G04 #@! TF.GenerationSoftware,KiCad,Pcbnew,(5.1.5)-3*
G04 #@! TF.CreationDate,2020-01-27T16:03:33-05:00*
G04 #@! TF.ProjectId,CombinedPnl_pcb,436f6d62-696e-4656-9450-6e6c5f706362,rev?*
G04 #@! TF.SameCoordinates,Original*
G04 #@! TF.FileFunction,Copper,L1,Top*
G04 #@! TF.FilePolarity,Positive*
%FSLAX46Y46*%
G04 Gerber Fmt 4.6, Leading zero omitted, Abs format (unit mm)*
G04 Created by KiCad (PCBNEW (5.1.5)-3) date 2020-01-27 16:03:33*
%MOMM*%
%LPD*%
G04 APERTURE LIST*
%ADD10C,1.700000*%
%ADD11C,1.524000*%
%ADD12C,2.000000*%
%ADD13C,1.600000*%
%ADD14O,1.600000X1.600000*%
%ADD15O,1.700000X1.700000*%
%ADD16R,1.700000X1.700000*%
%ADD17R,2.000000X2.000000*%
%ADD18O,1.500000X2.000000*%
%ADD19C,1.200000*%
%ADD20R,1.200000X1.200000*%
%ADD21R,1.600000X1.600000*%
%ADD22O,2.000000X1.200000*%
%ADD23C,0.800000*%
%ADD24C,0.250000*%
G04 APERTURE END LIST*
D10*
X192024000Y-86614000D03*
X179832000Y-86614000D03*
D11*
X185928000Y-85344000D03*
X189484000Y-85344000D03*
X182372000Y-85344000D03*
X189484000Y-87884000D03*
X185928000Y-87884000D03*
X182372000Y-87884000D03*
D12*
X191666000Y-46482000D03*
X191666000Y-41982000D03*
X185166000Y-46482000D03*
X185166000Y-41982000D03*
D13*
X106426000Y-54102000D03*
D14*
X106426000Y-43942000D03*
D15*
X100584000Y-51562000D03*
X98044000Y-51562000D03*
X100584000Y-49022000D03*
D16*
X98044000Y-49022000D03*
D12*
X129714000Y-46736000D03*
D17*
X124714000Y-46736000D03*
D16*
X166624000Y-42926000D03*
D15*
X166624000Y-45466000D03*
X164084000Y-42926000D03*
X164084000Y-45466000D03*
X161544000Y-42926000D03*
X161544000Y-45466000D03*
X159004000Y-42926000D03*
X159004000Y-45466000D03*
X156464000Y-42926000D03*
X156464000Y-45466000D03*
X153924000Y-42926000D03*
X153924000Y-45466000D03*
X151384000Y-42926000D03*
X151384000Y-45466000D03*
X148844000Y-42926000D03*
X148844000Y-45466000D03*
D18*
X123952000Y-56896000D03*
X123952000Y-84836000D03*
X126492000Y-56896000D03*
D12*
X126492000Y-84836000D03*
D18*
X129032000Y-56896000D03*
X129032000Y-84836000D03*
X131572000Y-56896000D03*
X131572000Y-84836000D03*
X134112000Y-56896000D03*
X134112000Y-84836000D03*
X136652000Y-56896000D03*
X136652000Y-84836000D03*
X139192000Y-56896000D03*
X139192000Y-84836000D03*
X141732000Y-56896000D03*
X141732000Y-84836000D03*
X144272000Y-56896000D03*
X144272000Y-84836000D03*
X146812000Y-56896000D03*
X146812000Y-84836000D03*
X149352000Y-56896000D03*
X149352000Y-84836000D03*
X151892000Y-56896000D03*
X151892000Y-84836000D03*
X154432000Y-56896000D03*
X154432000Y-84836000D03*
X156972000Y-56896000D03*
X156972000Y-84836000D03*
X159512000Y-56896000D03*
D12*
X159512000Y-84836000D03*
D18*
X162052000Y-56896000D03*
X162052000Y-84836000D03*
X164592000Y-56896000D03*
X164592000Y-84836000D03*
X167132000Y-56896000D03*
X167132000Y-84836000D03*
X169672000Y-56896000D03*
X169672000Y-84836000D03*
X172212000Y-56896000D03*
D12*
X172212000Y-84836000D03*
D15*
X98044000Y-64008000D03*
X100584000Y-64008000D03*
X98044000Y-66548000D03*
X100584000Y-66548000D03*
X98044000Y-69088000D03*
X100584000Y-69088000D03*
X98044000Y-71628000D03*
X100584000Y-71628000D03*
X98044000Y-74168000D03*
X100584000Y-74168000D03*
X98044000Y-76708000D03*
X100584000Y-76708000D03*
X98044000Y-79248000D03*
X100584000Y-79248000D03*
X98044000Y-81788000D03*
D16*
X100584000Y-81788000D03*
X98044000Y-56134000D03*
D15*
X100584000Y-56134000D03*
X98044000Y-58674000D03*
X100584000Y-58674000D03*
D14*
X171196000Y-49530000D03*
D13*
X181356000Y-49530000D03*
D19*
X173514000Y-42672000D03*
D20*
X175514000Y-42672000D03*
D14*
X131826000Y-62738000D03*
D13*
X131826000Y-72898000D03*
X113284000Y-44482000D03*
D21*
X113284000Y-46482000D03*
D15*
X167513000Y-101092000D03*
X164973000Y-101092000D03*
X162433000Y-101092000D03*
X159893000Y-101092000D03*
X157353000Y-101092000D03*
D16*
X154813000Y-101092000D03*
D15*
X134366000Y-123190000D03*
D16*
X134366000Y-120650000D03*
D10*
X189738000Y-133604000D03*
D16*
X187198000Y-133604000D03*
D15*
X189738000Y-131064000D03*
X187198000Y-131064000D03*
X189738000Y-128524000D03*
X187198000Y-128524000D03*
X189738000Y-125984000D03*
X187198000Y-125984000D03*
X189738000Y-123444000D03*
X187198000Y-123444000D03*
X189738000Y-120904000D03*
X187198000Y-120904000D03*
X189738000Y-118364000D03*
X187198000Y-118364000D03*
X189738000Y-115824000D03*
X187198000Y-115824000D03*
X124460000Y-101139001D03*
X121920000Y-101139001D03*
X119380000Y-101139001D03*
X116840000Y-101139001D03*
X114300000Y-101139001D03*
X111760000Y-101139001D03*
D16*
X109220000Y-101139001D03*
D22*
X148336000Y-130810000D03*
X161036000Y-130810000D03*
X148336000Y-128270000D03*
X161036000Y-128270000D03*
X148336000Y-125730000D03*
X161036000Y-125730000D03*
X148336000Y-123190000D03*
X161036000Y-123190000D03*
X148336000Y-120650000D03*
X161036000Y-120650000D03*
X148336000Y-118110000D03*
X161036000Y-118110000D03*
D13*
X134461000Y-100965000D03*
D21*
X132461000Y-100965000D03*
D23*
X141986000Y-66548000D03*
X147827996Y-68616990D03*
X138430000Y-67564012D03*
X164592000Y-48260000D03*
X132080000Y-76200000D03*
X110490000Y-58202990D03*
X109474000Y-75184000D03*
X156718000Y-51816000D03*
D24*
X141986000Y-74442000D02*
X141986000Y-67113685D01*
X146812000Y-84836000D02*
X146812000Y-79502000D01*
X141986000Y-67113685D02*
X141986000Y-66548000D01*
X146812000Y-79502000D02*
X141986000Y-74442000D01*
X149352000Y-77978000D02*
X149352000Y-84836000D01*
X147827996Y-68616990D02*
X147827996Y-76453996D01*
X147827996Y-76453996D02*
X149352000Y-77978000D01*
X138430000Y-74676000D02*
X144272000Y-80518000D01*
X144272000Y-80518000D02*
X144272000Y-84836000D01*
X138430000Y-74676000D02*
X138430000Y-67564012D01*
X101600000Y-51562000D02*
X112776000Y-40386000D01*
X100584000Y-51562000D02*
X101600000Y-51562000D01*
X112776000Y-40386000D02*
X142240000Y-40386000D01*
X142240000Y-40386000D02*
X156464000Y-40386000D01*
X164592000Y-51054000D02*
X164592000Y-51054000D01*
X164592000Y-56896000D02*
X164592000Y-48260000D01*
X158154001Y-42076001D02*
X156464000Y-40386000D01*
X159004000Y-42926000D02*
X158154001Y-42076001D01*
X128487010Y-76200000D02*
X110889999Y-58602989D01*
X132080000Y-76200000D02*
X128487010Y-76200000D01*
X98044000Y-47922000D02*
X102024000Y-43942000D01*
X110889999Y-58602989D02*
X110490000Y-58202990D01*
X98044000Y-49022000D02*
X98044000Y-47922000D01*
X105294630Y-43942000D02*
X106426000Y-43942000D01*
X102024000Y-43942000D02*
X105294630Y-43942000D01*
X109474000Y-75184000D02*
X109474000Y-65024000D01*
X109474000Y-65024000D02*
X100584000Y-56134000D01*
X166624000Y-42926000D02*
X167724000Y-42926000D01*
X178308000Y-46482000D02*
X181356000Y-49530000D01*
X167724000Y-42926000D02*
X171280000Y-46482000D01*
X171280000Y-46482000D02*
X178308000Y-46482000D01*
X162814000Y-44196000D02*
X165354000Y-44196000D01*
X165354000Y-44196000D02*
X165774001Y-44616001D01*
X165774001Y-44616001D02*
X166624000Y-45466000D01*
X161544000Y-45466000D02*
X162814000Y-44196000D01*
X164084000Y-45466000D02*
X162052000Y-47498000D01*
X162052000Y-47498000D02*
X162052000Y-56896000D01*
X159004000Y-49530000D02*
X158242000Y-50292000D01*
X159004000Y-45466000D02*
X159004000Y-49530000D01*
X158242000Y-50292000D02*
X156718000Y-51816000D01*
X159853999Y-44616001D02*
X161544000Y-42926000D01*
X159004000Y-45466000D02*
X159853999Y-44616001D01*
X156464000Y-45466000D02*
X156464000Y-47752000D01*
X156464000Y-47752000D02*
X154432000Y-49784000D01*
X154432000Y-49784000D02*
X154432000Y-56896000D01*
X129032000Y-83586000D02*
X129032000Y-84836000D01*
X134620000Y-77998000D02*
X129032000Y-83586000D01*
X134620000Y-69088000D02*
X134620000Y-77998000D01*
X152654000Y-44196000D02*
X152654000Y-48771853D01*
X153924000Y-42926000D02*
X152654000Y-44196000D01*
X152654000Y-48771853D02*
X145542000Y-55883853D01*
X145542000Y-58166000D02*
X134620000Y-69088000D01*
X145542000Y-55883853D02*
X145542000Y-58166000D01*
X185166001Y-86105999D02*
X185928000Y-85344000D01*
X184658000Y-86614000D02*
X185166001Y-86105999D01*
X180340000Y-85090000D02*
X181864000Y-86614000D01*
X129032000Y-86086000D02*
X130068000Y-87122000D01*
X181864000Y-86614000D02*
X184658000Y-86614000D01*
X129032000Y-84836000D02*
X129032000Y-86086000D01*
X174498000Y-87122000D02*
X176530000Y-85090000D01*
X130068000Y-87122000D02*
X174498000Y-87122000D01*
X176530000Y-85090000D02*
X180340000Y-85090000D01*
X151892000Y-51054000D02*
X151892000Y-56896000D01*
X153924000Y-45466000D02*
X153924000Y-49022000D01*
X153924000Y-49022000D02*
X151892000Y-51054000D01*
X131826000Y-69342000D02*
X131826000Y-72898000D01*
X143002000Y-58166000D02*
X131826000Y-69342000D01*
X148844000Y-45466000D02*
X143002000Y-51308000D01*
X143002000Y-51308000D02*
X143002000Y-58166000D01*
X186580213Y-46482000D02*
X191666000Y-46482000D01*
X185166000Y-46482000D02*
X186580213Y-46482000D01*
X148336000Y-123190000D02*
X134366000Y-123190000D01*
X115149999Y-101989000D02*
X114300000Y-101139001D01*
X188468000Y-122174000D02*
X179070000Y-122174000D01*
X189738000Y-123444000D02*
X188468000Y-122174000D01*
X127460999Y-114300000D02*
X115149999Y-101989000D01*
X179070000Y-122174000D02*
X171196000Y-114300000D01*
X171196000Y-114300000D02*
X127460999Y-114300000D01*
X186944000Y-123190000D02*
X187198000Y-123444000D01*
X161036000Y-123190000D02*
X186944000Y-123190000D01*
X135080999Y-111760000D02*
X125309999Y-101989000D01*
X188468000Y-119634000D02*
X188468000Y-117894998D01*
X189738000Y-120904000D02*
X188468000Y-119634000D01*
X183388000Y-117094000D02*
X178054000Y-111760000D01*
X125309999Y-101989000D02*
X124460000Y-101139001D01*
X188468000Y-117894998D02*
X187667002Y-117094000D01*
X178054000Y-111760000D02*
X135080999Y-111760000D01*
X187667002Y-117094000D02*
X183388000Y-117094000D01*
X171704000Y-113030000D02*
X131270999Y-113030000D01*
X131270999Y-113030000D02*
X119380000Y-101139001D01*
X178728001Y-120054001D02*
X171704000Y-113030000D01*
X187198000Y-120904000D02*
X186348001Y-120054001D01*
X186348001Y-120054001D02*
X178728001Y-120054001D01*
X187198000Y-115824000D02*
X187198000Y-113284000D01*
X187198000Y-113284000D02*
X184404000Y-110490000D01*
X184404000Y-110490000D02*
X167894000Y-110490000D01*
X159893000Y-102489000D02*
X159893000Y-101092000D01*
X167894000Y-110490000D02*
X159893000Y-102489000D01*
M02*
