M48
; DRILL file {KiCad (5.1.5)-3} date 1/27/2020 4:03:36 PM
; FORMAT={-:-/ absolute / inch / decimal}
; #@! TF.CreationDate,2020-01-27T16:03:36-05:00
; #@! TF.GenerationSoftware,Kicad,Pcbnew,(5.1.5)-3
; #@! TF.FileFunction,Plated,1,4,PTH
FMAT,2
INCH
T1C0.0157
T2C0.0236
T3C0.0300
T4C0.0315
T5C0.0394
T6C0.0402
T7C0.0433
%
G90
G05
T1
X4.31Y-2.96
X4.35Y-2.2915
X5.2Y-3.0
X5.45Y-2.66
X5.59Y-2.62
X5.82Y-2.7015
X6.17Y-2.04
X6.48Y-1.9
T2
X6.8313Y-1.68
X6.91Y-1.68
T3
X7.18Y-3.36
X7.18Y-3.46
X7.32Y-3.36
X7.32Y-3.46
X7.46Y-3.36
X7.46Y-3.46
T4
X5.19Y-2.47
X5.19Y-2.87
X6.74Y-1.95
X7.14Y-1.95
X4.19Y-1.73
X4.19Y-2.13
X5.215Y-3.975
X5.2937Y-3.975
X5.84Y-4.65
X5.84Y-4.75
X5.84Y-4.85
X5.84Y-4.95
X5.84Y-5.05
X5.84Y-5.15
X6.34Y-4.65
X6.34Y-4.75
X6.34Y-4.85
X6.34Y-4.95
X6.34Y-5.05
X6.34Y-5.15
X4.46Y-1.7513
X4.46Y-1.83
T5
X3.86Y-2.52
X3.86Y-2.62
X3.86Y-2.72
X3.86Y-2.82
X3.86Y-2.92
X3.86Y-3.02
X3.86Y-3.12
X3.86Y-3.22
X3.96Y-2.52
X3.96Y-2.62
X3.96Y-2.72
X3.96Y-2.82
X3.96Y-2.92
X3.96Y-3.02
X3.96Y-3.12
X3.96Y-3.22
X5.29Y-4.75
X5.29Y-4.85
X3.86Y-2.21
X3.86Y-2.31
X3.96Y-2.21
X3.96Y-2.31
X7.37Y-4.56
X7.37Y-4.66
X7.37Y-4.76
X7.37Y-4.86
X7.37Y-4.96
X7.37Y-5.06
X7.37Y-5.16
X7.37Y-5.26
X7.47Y-4.56
X7.47Y-4.66
X7.47Y-4.76
X7.47Y-4.86
X7.47Y-4.96
X7.47Y-5.06
X7.47Y-5.16
X7.47Y-5.26
X4.91Y-1.84
X5.1069Y-1.84
X3.86Y-1.93
X3.86Y-2.03
X3.96Y-1.93
X3.96Y-2.03
X6.095Y-3.98
X6.195Y-3.98
X6.295Y-3.98
X6.395Y-3.98
X6.495Y-3.98
X6.595Y-3.98
X5.86Y-1.69
X5.86Y-1.79
X5.96Y-1.69
X5.96Y-1.79
X6.06Y-1.69
X6.06Y-1.79
X6.16Y-1.69
X6.16Y-1.79
X6.26Y-1.69
X6.26Y-1.79
X6.36Y-1.69
X6.36Y-1.79
X6.46Y-1.69
X6.46Y-1.79
X6.56Y-1.69
X6.56Y-1.79
X4.3Y-3.9819
X4.4Y-3.9819
X4.5Y-3.9819
X4.6Y-3.9819
X4.7Y-3.9819
X4.8Y-3.9819
X4.9Y-3.9819
T6
X4.88Y-2.24
X4.88Y-3.34
X4.98Y-2.24
X4.98Y-3.34
X5.08Y-2.24
X5.08Y-3.34
X5.18Y-2.24
X5.18Y-3.34
X5.28Y-2.24
X5.28Y-3.34
X5.38Y-2.24
X5.38Y-3.34
X5.48Y-2.24
X5.48Y-3.34
X5.58Y-2.24
X5.58Y-3.34
X5.68Y-2.24
X5.68Y-3.34
X5.78Y-2.24
X5.78Y-3.34
X5.88Y-2.24
X5.88Y-3.34
X5.98Y-2.24
X5.98Y-3.34
X6.08Y-2.24
X6.08Y-3.34
X6.18Y-2.24
X6.18Y-3.34
X6.28Y-2.24
X6.28Y-3.34
X6.38Y-2.24
X6.38Y-3.34
X6.48Y-2.24
X6.48Y-3.34
X6.58Y-2.24
X6.58Y-3.34
X6.68Y-2.24
X6.68Y-3.34
X6.78Y-2.24
X6.78Y-3.34
T7
X7.29Y-1.6528
X7.29Y-1.83
X7.5459Y-1.6528
X7.5459Y-1.83
T0
M30
