G04 #@! TF.GenerationSoftware,KiCad,Pcbnew,(5.1.5)-3*
G04 #@! TF.CreationDate,2020-01-27T16:03:33-05:00*
G04 #@! TF.ProjectId,CombinedPnl_pcb,436f6d62-696e-4656-9450-6e6c5f706362,rev?*
G04 #@! TF.SameCoordinates,Original*
G04 #@! TF.FileFunction,Soldermask,Top*
G04 #@! TF.FilePolarity,Negative*
%FSLAX46Y46*%
G04 Gerber Fmt 4.6, Leading zero omitted, Abs format (unit mm)*
G04 Created by KiCad (PCBNEW (5.1.5)-3) date 2020-01-27 16:03:33*
%MOMM*%
%LPD*%
G04 APERTURE LIST*
%ADD10C,0.100000*%
G04 APERTURE END LIST*
D10*
G36*
X189851512Y-132707927D02*
G01*
X190000812Y-132737624D01*
X190164784Y-132805544D01*
X190312354Y-132904147D01*
X190437853Y-133029646D01*
X190536456Y-133177216D01*
X190604376Y-133341188D01*
X190639000Y-133515259D01*
X190639000Y-133692741D01*
X190604376Y-133866812D01*
X190536456Y-134030784D01*
X190437853Y-134178354D01*
X190312354Y-134303853D01*
X190164784Y-134402456D01*
X190000812Y-134470376D01*
X189851512Y-134500073D01*
X189826742Y-134505000D01*
X189649258Y-134505000D01*
X189624488Y-134500073D01*
X189475188Y-134470376D01*
X189311216Y-134402456D01*
X189163646Y-134303853D01*
X189038147Y-134178354D01*
X188939544Y-134030784D01*
X188871624Y-133866812D01*
X188837000Y-133692741D01*
X188837000Y-133515259D01*
X188871624Y-133341188D01*
X188939544Y-133177216D01*
X189038147Y-133029646D01*
X189163646Y-132904147D01*
X189311216Y-132805544D01*
X189475188Y-132737624D01*
X189624488Y-132707927D01*
X189649258Y-132703000D01*
X189826742Y-132703000D01*
X189851512Y-132707927D01*
G37*
G36*
X188099000Y-134505000D02*
G01*
X186297000Y-134505000D01*
X186297000Y-132703000D01*
X188099000Y-132703000D01*
X188099000Y-134505000D01*
G37*
G36*
X189851512Y-130167927D02*
G01*
X190000812Y-130197624D01*
X190164784Y-130265544D01*
X190312354Y-130364147D01*
X190437853Y-130489646D01*
X190536456Y-130637216D01*
X190604376Y-130801188D01*
X190639000Y-130975259D01*
X190639000Y-131152741D01*
X190604376Y-131326812D01*
X190536456Y-131490784D01*
X190437853Y-131638354D01*
X190312354Y-131763853D01*
X190164784Y-131862456D01*
X190000812Y-131930376D01*
X189851512Y-131960073D01*
X189826742Y-131965000D01*
X189649258Y-131965000D01*
X189624488Y-131960073D01*
X189475188Y-131930376D01*
X189311216Y-131862456D01*
X189163646Y-131763853D01*
X189038147Y-131638354D01*
X188939544Y-131490784D01*
X188871624Y-131326812D01*
X188837000Y-131152741D01*
X188837000Y-130975259D01*
X188871624Y-130801188D01*
X188939544Y-130637216D01*
X189038147Y-130489646D01*
X189163646Y-130364147D01*
X189311216Y-130265544D01*
X189475188Y-130197624D01*
X189624488Y-130167927D01*
X189649258Y-130163000D01*
X189826742Y-130163000D01*
X189851512Y-130167927D01*
G37*
G36*
X187311512Y-130167927D02*
G01*
X187460812Y-130197624D01*
X187624784Y-130265544D01*
X187772354Y-130364147D01*
X187897853Y-130489646D01*
X187996456Y-130637216D01*
X188064376Y-130801188D01*
X188099000Y-130975259D01*
X188099000Y-131152741D01*
X188064376Y-131326812D01*
X187996456Y-131490784D01*
X187897853Y-131638354D01*
X187772354Y-131763853D01*
X187624784Y-131862456D01*
X187460812Y-131930376D01*
X187311512Y-131960073D01*
X187286742Y-131965000D01*
X187109258Y-131965000D01*
X187084488Y-131960073D01*
X186935188Y-131930376D01*
X186771216Y-131862456D01*
X186623646Y-131763853D01*
X186498147Y-131638354D01*
X186399544Y-131490784D01*
X186331624Y-131326812D01*
X186297000Y-131152741D01*
X186297000Y-130975259D01*
X186331624Y-130801188D01*
X186399544Y-130637216D01*
X186498147Y-130489646D01*
X186623646Y-130364147D01*
X186771216Y-130265544D01*
X186935188Y-130197624D01*
X187084488Y-130167927D01*
X187109258Y-130163000D01*
X187286742Y-130163000D01*
X187311512Y-130167927D01*
G37*
G36*
X148799855Y-130162140D02*
G01*
X148863618Y-130168420D01*
X148954404Y-130195960D01*
X148986336Y-130205646D01*
X149099425Y-130266094D01*
X149198554Y-130347446D01*
X149279906Y-130446575D01*
X149340354Y-130559664D01*
X149340355Y-130559668D01*
X149377580Y-130682382D01*
X149390149Y-130810000D01*
X149377580Y-130937618D01*
X149350040Y-131028404D01*
X149340354Y-131060336D01*
X149279906Y-131173425D01*
X149198554Y-131272554D01*
X149099425Y-131353906D01*
X148986336Y-131414354D01*
X148954404Y-131424040D01*
X148863618Y-131451580D01*
X148799855Y-131457860D01*
X148767974Y-131461000D01*
X147904026Y-131461000D01*
X147872145Y-131457860D01*
X147808382Y-131451580D01*
X147717596Y-131424040D01*
X147685664Y-131414354D01*
X147572575Y-131353906D01*
X147473446Y-131272554D01*
X147392094Y-131173425D01*
X147331646Y-131060336D01*
X147321960Y-131028404D01*
X147294420Y-130937618D01*
X147281851Y-130810000D01*
X147294420Y-130682382D01*
X147331645Y-130559668D01*
X147331646Y-130559664D01*
X147392094Y-130446575D01*
X147473446Y-130347446D01*
X147572575Y-130266094D01*
X147685664Y-130205646D01*
X147717596Y-130195960D01*
X147808382Y-130168420D01*
X147872145Y-130162140D01*
X147904026Y-130159000D01*
X148767974Y-130159000D01*
X148799855Y-130162140D01*
G37*
G36*
X161499855Y-130162140D02*
G01*
X161563618Y-130168420D01*
X161654404Y-130195960D01*
X161686336Y-130205646D01*
X161799425Y-130266094D01*
X161898554Y-130347446D01*
X161979906Y-130446575D01*
X162040354Y-130559664D01*
X162040355Y-130559668D01*
X162077580Y-130682382D01*
X162090149Y-130810000D01*
X162077580Y-130937618D01*
X162050040Y-131028404D01*
X162040354Y-131060336D01*
X161979906Y-131173425D01*
X161898554Y-131272554D01*
X161799425Y-131353906D01*
X161686336Y-131414354D01*
X161654404Y-131424040D01*
X161563618Y-131451580D01*
X161499855Y-131457860D01*
X161467974Y-131461000D01*
X160604026Y-131461000D01*
X160572145Y-131457860D01*
X160508382Y-131451580D01*
X160417596Y-131424040D01*
X160385664Y-131414354D01*
X160272575Y-131353906D01*
X160173446Y-131272554D01*
X160092094Y-131173425D01*
X160031646Y-131060336D01*
X160021960Y-131028404D01*
X159994420Y-130937618D01*
X159981851Y-130810000D01*
X159994420Y-130682382D01*
X160031645Y-130559668D01*
X160031646Y-130559664D01*
X160092094Y-130446575D01*
X160173446Y-130347446D01*
X160272575Y-130266094D01*
X160385664Y-130205646D01*
X160417596Y-130195960D01*
X160508382Y-130168420D01*
X160572145Y-130162140D01*
X160604026Y-130159000D01*
X161467974Y-130159000D01*
X161499855Y-130162140D01*
G37*
G36*
X189851512Y-127627927D02*
G01*
X190000812Y-127657624D01*
X190164784Y-127725544D01*
X190312354Y-127824147D01*
X190437853Y-127949646D01*
X190536456Y-128097216D01*
X190604376Y-128261188D01*
X190639000Y-128435259D01*
X190639000Y-128612741D01*
X190604376Y-128786812D01*
X190536456Y-128950784D01*
X190437853Y-129098354D01*
X190312354Y-129223853D01*
X190164784Y-129322456D01*
X190000812Y-129390376D01*
X189851512Y-129420073D01*
X189826742Y-129425000D01*
X189649258Y-129425000D01*
X189624488Y-129420073D01*
X189475188Y-129390376D01*
X189311216Y-129322456D01*
X189163646Y-129223853D01*
X189038147Y-129098354D01*
X188939544Y-128950784D01*
X188871624Y-128786812D01*
X188837000Y-128612741D01*
X188837000Y-128435259D01*
X188871624Y-128261188D01*
X188939544Y-128097216D01*
X189038147Y-127949646D01*
X189163646Y-127824147D01*
X189311216Y-127725544D01*
X189475188Y-127657624D01*
X189624488Y-127627927D01*
X189649258Y-127623000D01*
X189826742Y-127623000D01*
X189851512Y-127627927D01*
G37*
G36*
X187311512Y-127627927D02*
G01*
X187460812Y-127657624D01*
X187624784Y-127725544D01*
X187772354Y-127824147D01*
X187897853Y-127949646D01*
X187996456Y-128097216D01*
X188064376Y-128261188D01*
X188099000Y-128435259D01*
X188099000Y-128612741D01*
X188064376Y-128786812D01*
X187996456Y-128950784D01*
X187897853Y-129098354D01*
X187772354Y-129223853D01*
X187624784Y-129322456D01*
X187460812Y-129390376D01*
X187311512Y-129420073D01*
X187286742Y-129425000D01*
X187109258Y-129425000D01*
X187084488Y-129420073D01*
X186935188Y-129390376D01*
X186771216Y-129322456D01*
X186623646Y-129223853D01*
X186498147Y-129098354D01*
X186399544Y-128950784D01*
X186331624Y-128786812D01*
X186297000Y-128612741D01*
X186297000Y-128435259D01*
X186331624Y-128261188D01*
X186399544Y-128097216D01*
X186498147Y-127949646D01*
X186623646Y-127824147D01*
X186771216Y-127725544D01*
X186935188Y-127657624D01*
X187084488Y-127627927D01*
X187109258Y-127623000D01*
X187286742Y-127623000D01*
X187311512Y-127627927D01*
G37*
G36*
X148799855Y-127622140D02*
G01*
X148863618Y-127628420D01*
X148954404Y-127655960D01*
X148986336Y-127665646D01*
X149099425Y-127726094D01*
X149198554Y-127807446D01*
X149279906Y-127906575D01*
X149340354Y-128019664D01*
X149340355Y-128019668D01*
X149377580Y-128142382D01*
X149390149Y-128270000D01*
X149377580Y-128397618D01*
X149350040Y-128488404D01*
X149340354Y-128520336D01*
X149279906Y-128633425D01*
X149198554Y-128732554D01*
X149099425Y-128813906D01*
X148986336Y-128874354D01*
X148954404Y-128884040D01*
X148863618Y-128911580D01*
X148799855Y-128917860D01*
X148767974Y-128921000D01*
X147904026Y-128921000D01*
X147872145Y-128917860D01*
X147808382Y-128911580D01*
X147717596Y-128884040D01*
X147685664Y-128874354D01*
X147572575Y-128813906D01*
X147473446Y-128732554D01*
X147392094Y-128633425D01*
X147331646Y-128520336D01*
X147321960Y-128488404D01*
X147294420Y-128397618D01*
X147281851Y-128270000D01*
X147294420Y-128142382D01*
X147331645Y-128019668D01*
X147331646Y-128019664D01*
X147392094Y-127906575D01*
X147473446Y-127807446D01*
X147572575Y-127726094D01*
X147685664Y-127665646D01*
X147717596Y-127655960D01*
X147808382Y-127628420D01*
X147872145Y-127622140D01*
X147904026Y-127619000D01*
X148767974Y-127619000D01*
X148799855Y-127622140D01*
G37*
G36*
X161499855Y-127622140D02*
G01*
X161563618Y-127628420D01*
X161654404Y-127655960D01*
X161686336Y-127665646D01*
X161799425Y-127726094D01*
X161898554Y-127807446D01*
X161979906Y-127906575D01*
X162040354Y-128019664D01*
X162040355Y-128019668D01*
X162077580Y-128142382D01*
X162090149Y-128270000D01*
X162077580Y-128397618D01*
X162050040Y-128488404D01*
X162040354Y-128520336D01*
X161979906Y-128633425D01*
X161898554Y-128732554D01*
X161799425Y-128813906D01*
X161686336Y-128874354D01*
X161654404Y-128884040D01*
X161563618Y-128911580D01*
X161499855Y-128917860D01*
X161467974Y-128921000D01*
X160604026Y-128921000D01*
X160572145Y-128917860D01*
X160508382Y-128911580D01*
X160417596Y-128884040D01*
X160385664Y-128874354D01*
X160272575Y-128813906D01*
X160173446Y-128732554D01*
X160092094Y-128633425D01*
X160031646Y-128520336D01*
X160021960Y-128488404D01*
X159994420Y-128397618D01*
X159981851Y-128270000D01*
X159994420Y-128142382D01*
X160031645Y-128019668D01*
X160031646Y-128019664D01*
X160092094Y-127906575D01*
X160173446Y-127807446D01*
X160272575Y-127726094D01*
X160385664Y-127665646D01*
X160417596Y-127655960D01*
X160508382Y-127628420D01*
X160572145Y-127622140D01*
X160604026Y-127619000D01*
X161467974Y-127619000D01*
X161499855Y-127622140D01*
G37*
G36*
X187311512Y-125087927D02*
G01*
X187460812Y-125117624D01*
X187624784Y-125185544D01*
X187772354Y-125284147D01*
X187897853Y-125409646D01*
X187996456Y-125557216D01*
X188064376Y-125721188D01*
X188099000Y-125895259D01*
X188099000Y-126072741D01*
X188064376Y-126246812D01*
X187996456Y-126410784D01*
X187897853Y-126558354D01*
X187772354Y-126683853D01*
X187624784Y-126782456D01*
X187460812Y-126850376D01*
X187311512Y-126880073D01*
X187286742Y-126885000D01*
X187109258Y-126885000D01*
X187084488Y-126880073D01*
X186935188Y-126850376D01*
X186771216Y-126782456D01*
X186623646Y-126683853D01*
X186498147Y-126558354D01*
X186399544Y-126410784D01*
X186331624Y-126246812D01*
X186297000Y-126072741D01*
X186297000Y-125895259D01*
X186331624Y-125721188D01*
X186399544Y-125557216D01*
X186498147Y-125409646D01*
X186623646Y-125284147D01*
X186771216Y-125185544D01*
X186935188Y-125117624D01*
X187084488Y-125087927D01*
X187109258Y-125083000D01*
X187286742Y-125083000D01*
X187311512Y-125087927D01*
G37*
G36*
X189851512Y-125087927D02*
G01*
X190000812Y-125117624D01*
X190164784Y-125185544D01*
X190312354Y-125284147D01*
X190437853Y-125409646D01*
X190536456Y-125557216D01*
X190604376Y-125721188D01*
X190639000Y-125895259D01*
X190639000Y-126072741D01*
X190604376Y-126246812D01*
X190536456Y-126410784D01*
X190437853Y-126558354D01*
X190312354Y-126683853D01*
X190164784Y-126782456D01*
X190000812Y-126850376D01*
X189851512Y-126880073D01*
X189826742Y-126885000D01*
X189649258Y-126885000D01*
X189624488Y-126880073D01*
X189475188Y-126850376D01*
X189311216Y-126782456D01*
X189163646Y-126683853D01*
X189038147Y-126558354D01*
X188939544Y-126410784D01*
X188871624Y-126246812D01*
X188837000Y-126072741D01*
X188837000Y-125895259D01*
X188871624Y-125721188D01*
X188939544Y-125557216D01*
X189038147Y-125409646D01*
X189163646Y-125284147D01*
X189311216Y-125185544D01*
X189475188Y-125117624D01*
X189624488Y-125087927D01*
X189649258Y-125083000D01*
X189826742Y-125083000D01*
X189851512Y-125087927D01*
G37*
G36*
X148799855Y-125082140D02*
G01*
X148863618Y-125088420D01*
X148954404Y-125115960D01*
X148986336Y-125125646D01*
X149099425Y-125186094D01*
X149198554Y-125267446D01*
X149279906Y-125366575D01*
X149340354Y-125479664D01*
X149340355Y-125479668D01*
X149377580Y-125602382D01*
X149390149Y-125730000D01*
X149377580Y-125857618D01*
X149350040Y-125948404D01*
X149340354Y-125980336D01*
X149279906Y-126093425D01*
X149198554Y-126192554D01*
X149099425Y-126273906D01*
X148986336Y-126334354D01*
X148954404Y-126344040D01*
X148863618Y-126371580D01*
X148799855Y-126377860D01*
X148767974Y-126381000D01*
X147904026Y-126381000D01*
X147872145Y-126377860D01*
X147808382Y-126371580D01*
X147717596Y-126344040D01*
X147685664Y-126334354D01*
X147572575Y-126273906D01*
X147473446Y-126192554D01*
X147392094Y-126093425D01*
X147331646Y-125980336D01*
X147321960Y-125948404D01*
X147294420Y-125857618D01*
X147281851Y-125730000D01*
X147294420Y-125602382D01*
X147331645Y-125479668D01*
X147331646Y-125479664D01*
X147392094Y-125366575D01*
X147473446Y-125267446D01*
X147572575Y-125186094D01*
X147685664Y-125125646D01*
X147717596Y-125115960D01*
X147808382Y-125088420D01*
X147872145Y-125082140D01*
X147904026Y-125079000D01*
X148767974Y-125079000D01*
X148799855Y-125082140D01*
G37*
G36*
X161499855Y-125082140D02*
G01*
X161563618Y-125088420D01*
X161654404Y-125115960D01*
X161686336Y-125125646D01*
X161799425Y-125186094D01*
X161898554Y-125267446D01*
X161979906Y-125366575D01*
X162040354Y-125479664D01*
X162040355Y-125479668D01*
X162077580Y-125602382D01*
X162090149Y-125730000D01*
X162077580Y-125857618D01*
X162050040Y-125948404D01*
X162040354Y-125980336D01*
X161979906Y-126093425D01*
X161898554Y-126192554D01*
X161799425Y-126273906D01*
X161686336Y-126334354D01*
X161654404Y-126344040D01*
X161563618Y-126371580D01*
X161499855Y-126377860D01*
X161467974Y-126381000D01*
X160604026Y-126381000D01*
X160572145Y-126377860D01*
X160508382Y-126371580D01*
X160417596Y-126344040D01*
X160385664Y-126334354D01*
X160272575Y-126273906D01*
X160173446Y-126192554D01*
X160092094Y-126093425D01*
X160031646Y-125980336D01*
X160021960Y-125948404D01*
X159994420Y-125857618D01*
X159981851Y-125730000D01*
X159994420Y-125602382D01*
X160031645Y-125479668D01*
X160031646Y-125479664D01*
X160092094Y-125366575D01*
X160173446Y-125267446D01*
X160272575Y-125186094D01*
X160385664Y-125125646D01*
X160417596Y-125115960D01*
X160508382Y-125088420D01*
X160572145Y-125082140D01*
X160604026Y-125079000D01*
X161467974Y-125079000D01*
X161499855Y-125082140D01*
G37*
G36*
X187311512Y-122547927D02*
G01*
X187460812Y-122577624D01*
X187624784Y-122645544D01*
X187772354Y-122744147D01*
X187897853Y-122869646D01*
X187996456Y-123017216D01*
X188064376Y-123181188D01*
X188099000Y-123355259D01*
X188099000Y-123532741D01*
X188064376Y-123706812D01*
X187996456Y-123870784D01*
X187897853Y-124018354D01*
X187772354Y-124143853D01*
X187624784Y-124242456D01*
X187460812Y-124310376D01*
X187311512Y-124340073D01*
X187286742Y-124345000D01*
X187109258Y-124345000D01*
X187084488Y-124340073D01*
X186935188Y-124310376D01*
X186771216Y-124242456D01*
X186623646Y-124143853D01*
X186498147Y-124018354D01*
X186399544Y-123870784D01*
X186331624Y-123706812D01*
X186297000Y-123532741D01*
X186297000Y-123355259D01*
X186331624Y-123181188D01*
X186399544Y-123017216D01*
X186498147Y-122869646D01*
X186623646Y-122744147D01*
X186771216Y-122645544D01*
X186935188Y-122577624D01*
X187084488Y-122547927D01*
X187109258Y-122543000D01*
X187286742Y-122543000D01*
X187311512Y-122547927D01*
G37*
G36*
X189851512Y-122547927D02*
G01*
X190000812Y-122577624D01*
X190164784Y-122645544D01*
X190312354Y-122744147D01*
X190437853Y-122869646D01*
X190536456Y-123017216D01*
X190604376Y-123181188D01*
X190639000Y-123355259D01*
X190639000Y-123532741D01*
X190604376Y-123706812D01*
X190536456Y-123870784D01*
X190437853Y-124018354D01*
X190312354Y-124143853D01*
X190164784Y-124242456D01*
X190000812Y-124310376D01*
X189851512Y-124340073D01*
X189826742Y-124345000D01*
X189649258Y-124345000D01*
X189624488Y-124340073D01*
X189475188Y-124310376D01*
X189311216Y-124242456D01*
X189163646Y-124143853D01*
X189038147Y-124018354D01*
X188939544Y-123870784D01*
X188871624Y-123706812D01*
X188837000Y-123532741D01*
X188837000Y-123355259D01*
X188871624Y-123181188D01*
X188939544Y-123017216D01*
X189038147Y-122869646D01*
X189163646Y-122744147D01*
X189311216Y-122645544D01*
X189475188Y-122577624D01*
X189624488Y-122547927D01*
X189649258Y-122543000D01*
X189826742Y-122543000D01*
X189851512Y-122547927D01*
G37*
G36*
X134479512Y-122293927D02*
G01*
X134628812Y-122323624D01*
X134792784Y-122391544D01*
X134940354Y-122490147D01*
X135065853Y-122615646D01*
X135164456Y-122763216D01*
X135232376Y-122927188D01*
X135267000Y-123101259D01*
X135267000Y-123278741D01*
X135232376Y-123452812D01*
X135164456Y-123616784D01*
X135065853Y-123764354D01*
X134940354Y-123889853D01*
X134792784Y-123988456D01*
X134628812Y-124056376D01*
X134479512Y-124086073D01*
X134454742Y-124091000D01*
X134277258Y-124091000D01*
X134252488Y-124086073D01*
X134103188Y-124056376D01*
X133939216Y-123988456D01*
X133791646Y-123889853D01*
X133666147Y-123764354D01*
X133567544Y-123616784D01*
X133499624Y-123452812D01*
X133465000Y-123278741D01*
X133465000Y-123101259D01*
X133499624Y-122927188D01*
X133567544Y-122763216D01*
X133666147Y-122615646D01*
X133791646Y-122490147D01*
X133939216Y-122391544D01*
X134103188Y-122323624D01*
X134252488Y-122293927D01*
X134277258Y-122289000D01*
X134454742Y-122289000D01*
X134479512Y-122293927D01*
G37*
G36*
X161499855Y-122542140D02*
G01*
X161563618Y-122548420D01*
X161654404Y-122575960D01*
X161686336Y-122585646D01*
X161799425Y-122646094D01*
X161898554Y-122727446D01*
X161979906Y-122826575D01*
X162040354Y-122939664D01*
X162040355Y-122939668D01*
X162077580Y-123062382D01*
X162090149Y-123190000D01*
X162077580Y-123317618D01*
X162050040Y-123408404D01*
X162040354Y-123440336D01*
X161979906Y-123553425D01*
X161898554Y-123652554D01*
X161799425Y-123733906D01*
X161686336Y-123794354D01*
X161654404Y-123804040D01*
X161563618Y-123831580D01*
X161499855Y-123837860D01*
X161467974Y-123841000D01*
X160604026Y-123841000D01*
X160572145Y-123837860D01*
X160508382Y-123831580D01*
X160417596Y-123804040D01*
X160385664Y-123794354D01*
X160272575Y-123733906D01*
X160173446Y-123652554D01*
X160092094Y-123553425D01*
X160031646Y-123440336D01*
X160021960Y-123408404D01*
X159994420Y-123317618D01*
X159981851Y-123190000D01*
X159994420Y-123062382D01*
X160031645Y-122939668D01*
X160031646Y-122939664D01*
X160092094Y-122826575D01*
X160173446Y-122727446D01*
X160272575Y-122646094D01*
X160385664Y-122585646D01*
X160417596Y-122575960D01*
X160508382Y-122548420D01*
X160572145Y-122542140D01*
X160604026Y-122539000D01*
X161467974Y-122539000D01*
X161499855Y-122542140D01*
G37*
G36*
X148799855Y-122542140D02*
G01*
X148863618Y-122548420D01*
X148954404Y-122575960D01*
X148986336Y-122585646D01*
X149099425Y-122646094D01*
X149198554Y-122727446D01*
X149279906Y-122826575D01*
X149340354Y-122939664D01*
X149340355Y-122939668D01*
X149377580Y-123062382D01*
X149390149Y-123190000D01*
X149377580Y-123317618D01*
X149350040Y-123408404D01*
X149340354Y-123440336D01*
X149279906Y-123553425D01*
X149198554Y-123652554D01*
X149099425Y-123733906D01*
X148986336Y-123794354D01*
X148954404Y-123804040D01*
X148863618Y-123831580D01*
X148799855Y-123837860D01*
X148767974Y-123841000D01*
X147904026Y-123841000D01*
X147872145Y-123837860D01*
X147808382Y-123831580D01*
X147717596Y-123804040D01*
X147685664Y-123794354D01*
X147572575Y-123733906D01*
X147473446Y-123652554D01*
X147392094Y-123553425D01*
X147331646Y-123440336D01*
X147321960Y-123408404D01*
X147294420Y-123317618D01*
X147281851Y-123190000D01*
X147294420Y-123062382D01*
X147331645Y-122939668D01*
X147331646Y-122939664D01*
X147392094Y-122826575D01*
X147473446Y-122727446D01*
X147572575Y-122646094D01*
X147685664Y-122585646D01*
X147717596Y-122575960D01*
X147808382Y-122548420D01*
X147872145Y-122542140D01*
X147904026Y-122539000D01*
X148767974Y-122539000D01*
X148799855Y-122542140D01*
G37*
G36*
X189851512Y-120007927D02*
G01*
X190000812Y-120037624D01*
X190164784Y-120105544D01*
X190312354Y-120204147D01*
X190437853Y-120329646D01*
X190536456Y-120477216D01*
X190604376Y-120641188D01*
X190639000Y-120815259D01*
X190639000Y-120992741D01*
X190604376Y-121166812D01*
X190536456Y-121330784D01*
X190437853Y-121478354D01*
X190312354Y-121603853D01*
X190164784Y-121702456D01*
X190000812Y-121770376D01*
X189851512Y-121800073D01*
X189826742Y-121805000D01*
X189649258Y-121805000D01*
X189624488Y-121800073D01*
X189475188Y-121770376D01*
X189311216Y-121702456D01*
X189163646Y-121603853D01*
X189038147Y-121478354D01*
X188939544Y-121330784D01*
X188871624Y-121166812D01*
X188837000Y-120992741D01*
X188837000Y-120815259D01*
X188871624Y-120641188D01*
X188939544Y-120477216D01*
X189038147Y-120329646D01*
X189163646Y-120204147D01*
X189311216Y-120105544D01*
X189475188Y-120037624D01*
X189624488Y-120007927D01*
X189649258Y-120003000D01*
X189826742Y-120003000D01*
X189851512Y-120007927D01*
G37*
G36*
X187311512Y-120007927D02*
G01*
X187460812Y-120037624D01*
X187624784Y-120105544D01*
X187772354Y-120204147D01*
X187897853Y-120329646D01*
X187996456Y-120477216D01*
X188064376Y-120641188D01*
X188099000Y-120815259D01*
X188099000Y-120992741D01*
X188064376Y-121166812D01*
X187996456Y-121330784D01*
X187897853Y-121478354D01*
X187772354Y-121603853D01*
X187624784Y-121702456D01*
X187460812Y-121770376D01*
X187311512Y-121800073D01*
X187286742Y-121805000D01*
X187109258Y-121805000D01*
X187084488Y-121800073D01*
X186935188Y-121770376D01*
X186771216Y-121702456D01*
X186623646Y-121603853D01*
X186498147Y-121478354D01*
X186399544Y-121330784D01*
X186331624Y-121166812D01*
X186297000Y-120992741D01*
X186297000Y-120815259D01*
X186331624Y-120641188D01*
X186399544Y-120477216D01*
X186498147Y-120329646D01*
X186623646Y-120204147D01*
X186771216Y-120105544D01*
X186935188Y-120037624D01*
X187084488Y-120007927D01*
X187109258Y-120003000D01*
X187286742Y-120003000D01*
X187311512Y-120007927D01*
G37*
G36*
X135267000Y-121551000D02*
G01*
X133465000Y-121551000D01*
X133465000Y-119749000D01*
X135267000Y-119749000D01*
X135267000Y-121551000D01*
G37*
G36*
X148799855Y-120002140D02*
G01*
X148863618Y-120008420D01*
X148954404Y-120035960D01*
X148986336Y-120045646D01*
X149099425Y-120106094D01*
X149198554Y-120187446D01*
X149279906Y-120286575D01*
X149340354Y-120399664D01*
X149340355Y-120399668D01*
X149377580Y-120522382D01*
X149390149Y-120650000D01*
X149377580Y-120777618D01*
X149350040Y-120868404D01*
X149340354Y-120900336D01*
X149279906Y-121013425D01*
X149198554Y-121112554D01*
X149099425Y-121193906D01*
X148986336Y-121254354D01*
X148954404Y-121264040D01*
X148863618Y-121291580D01*
X148799855Y-121297860D01*
X148767974Y-121301000D01*
X147904026Y-121301000D01*
X147872145Y-121297860D01*
X147808382Y-121291580D01*
X147717596Y-121264040D01*
X147685664Y-121254354D01*
X147572575Y-121193906D01*
X147473446Y-121112554D01*
X147392094Y-121013425D01*
X147331646Y-120900336D01*
X147321960Y-120868404D01*
X147294420Y-120777618D01*
X147281851Y-120650000D01*
X147294420Y-120522382D01*
X147331645Y-120399668D01*
X147331646Y-120399664D01*
X147392094Y-120286575D01*
X147473446Y-120187446D01*
X147572575Y-120106094D01*
X147685664Y-120045646D01*
X147717596Y-120035960D01*
X147808382Y-120008420D01*
X147872145Y-120002140D01*
X147904026Y-119999000D01*
X148767974Y-119999000D01*
X148799855Y-120002140D01*
G37*
G36*
X161499855Y-120002140D02*
G01*
X161563618Y-120008420D01*
X161654404Y-120035960D01*
X161686336Y-120045646D01*
X161799425Y-120106094D01*
X161898554Y-120187446D01*
X161979906Y-120286575D01*
X162040354Y-120399664D01*
X162040355Y-120399668D01*
X162077580Y-120522382D01*
X162090149Y-120650000D01*
X162077580Y-120777618D01*
X162050040Y-120868404D01*
X162040354Y-120900336D01*
X161979906Y-121013425D01*
X161898554Y-121112554D01*
X161799425Y-121193906D01*
X161686336Y-121254354D01*
X161654404Y-121264040D01*
X161563618Y-121291580D01*
X161499855Y-121297860D01*
X161467974Y-121301000D01*
X160604026Y-121301000D01*
X160572145Y-121297860D01*
X160508382Y-121291580D01*
X160417596Y-121264040D01*
X160385664Y-121254354D01*
X160272575Y-121193906D01*
X160173446Y-121112554D01*
X160092094Y-121013425D01*
X160031646Y-120900336D01*
X160021960Y-120868404D01*
X159994420Y-120777618D01*
X159981851Y-120650000D01*
X159994420Y-120522382D01*
X160031645Y-120399668D01*
X160031646Y-120399664D01*
X160092094Y-120286575D01*
X160173446Y-120187446D01*
X160272575Y-120106094D01*
X160385664Y-120045646D01*
X160417596Y-120035960D01*
X160508382Y-120008420D01*
X160572145Y-120002140D01*
X160604026Y-119999000D01*
X161467974Y-119999000D01*
X161499855Y-120002140D01*
G37*
G36*
X189851512Y-117467927D02*
G01*
X190000812Y-117497624D01*
X190164784Y-117565544D01*
X190312354Y-117664147D01*
X190437853Y-117789646D01*
X190536456Y-117937216D01*
X190604376Y-118101188D01*
X190639000Y-118275259D01*
X190639000Y-118452741D01*
X190604376Y-118626812D01*
X190536456Y-118790784D01*
X190437853Y-118938354D01*
X190312354Y-119063853D01*
X190164784Y-119162456D01*
X190000812Y-119230376D01*
X189851512Y-119260073D01*
X189826742Y-119265000D01*
X189649258Y-119265000D01*
X189624488Y-119260073D01*
X189475188Y-119230376D01*
X189311216Y-119162456D01*
X189163646Y-119063853D01*
X189038147Y-118938354D01*
X188939544Y-118790784D01*
X188871624Y-118626812D01*
X188837000Y-118452741D01*
X188837000Y-118275259D01*
X188871624Y-118101188D01*
X188939544Y-117937216D01*
X189038147Y-117789646D01*
X189163646Y-117664147D01*
X189311216Y-117565544D01*
X189475188Y-117497624D01*
X189624488Y-117467927D01*
X189649258Y-117463000D01*
X189826742Y-117463000D01*
X189851512Y-117467927D01*
G37*
G36*
X187311512Y-117467927D02*
G01*
X187460812Y-117497624D01*
X187624784Y-117565544D01*
X187772354Y-117664147D01*
X187897853Y-117789646D01*
X187996456Y-117937216D01*
X188064376Y-118101188D01*
X188099000Y-118275259D01*
X188099000Y-118452741D01*
X188064376Y-118626812D01*
X187996456Y-118790784D01*
X187897853Y-118938354D01*
X187772354Y-119063853D01*
X187624784Y-119162456D01*
X187460812Y-119230376D01*
X187311512Y-119260073D01*
X187286742Y-119265000D01*
X187109258Y-119265000D01*
X187084488Y-119260073D01*
X186935188Y-119230376D01*
X186771216Y-119162456D01*
X186623646Y-119063853D01*
X186498147Y-118938354D01*
X186399544Y-118790784D01*
X186331624Y-118626812D01*
X186297000Y-118452741D01*
X186297000Y-118275259D01*
X186331624Y-118101188D01*
X186399544Y-117937216D01*
X186498147Y-117789646D01*
X186623646Y-117664147D01*
X186771216Y-117565544D01*
X186935188Y-117497624D01*
X187084488Y-117467927D01*
X187109258Y-117463000D01*
X187286742Y-117463000D01*
X187311512Y-117467927D01*
G37*
G36*
X148799855Y-117462140D02*
G01*
X148863618Y-117468420D01*
X148954404Y-117495960D01*
X148986336Y-117505646D01*
X149099425Y-117566094D01*
X149198554Y-117647446D01*
X149279906Y-117746575D01*
X149340354Y-117859664D01*
X149340355Y-117859668D01*
X149377580Y-117982382D01*
X149390149Y-118110000D01*
X149377580Y-118237618D01*
X149350040Y-118328404D01*
X149340354Y-118360336D01*
X149279906Y-118473425D01*
X149198554Y-118572554D01*
X149099425Y-118653906D01*
X148986336Y-118714354D01*
X148954404Y-118724040D01*
X148863618Y-118751580D01*
X148799855Y-118757860D01*
X148767974Y-118761000D01*
X147904026Y-118761000D01*
X147872145Y-118757860D01*
X147808382Y-118751580D01*
X147717596Y-118724040D01*
X147685664Y-118714354D01*
X147572575Y-118653906D01*
X147473446Y-118572554D01*
X147392094Y-118473425D01*
X147331646Y-118360336D01*
X147321960Y-118328404D01*
X147294420Y-118237618D01*
X147281851Y-118110000D01*
X147294420Y-117982382D01*
X147331645Y-117859668D01*
X147331646Y-117859664D01*
X147392094Y-117746575D01*
X147473446Y-117647446D01*
X147572575Y-117566094D01*
X147685664Y-117505646D01*
X147717596Y-117495960D01*
X147808382Y-117468420D01*
X147872145Y-117462140D01*
X147904026Y-117459000D01*
X148767974Y-117459000D01*
X148799855Y-117462140D01*
G37*
G36*
X161499855Y-117462140D02*
G01*
X161563618Y-117468420D01*
X161654404Y-117495960D01*
X161686336Y-117505646D01*
X161799425Y-117566094D01*
X161898554Y-117647446D01*
X161979906Y-117746575D01*
X162040354Y-117859664D01*
X162040355Y-117859668D01*
X162077580Y-117982382D01*
X162090149Y-118110000D01*
X162077580Y-118237618D01*
X162050040Y-118328404D01*
X162040354Y-118360336D01*
X161979906Y-118473425D01*
X161898554Y-118572554D01*
X161799425Y-118653906D01*
X161686336Y-118714354D01*
X161654404Y-118724040D01*
X161563618Y-118751580D01*
X161499855Y-118757860D01*
X161467974Y-118761000D01*
X160604026Y-118761000D01*
X160572145Y-118757860D01*
X160508382Y-118751580D01*
X160417596Y-118724040D01*
X160385664Y-118714354D01*
X160272575Y-118653906D01*
X160173446Y-118572554D01*
X160092094Y-118473425D01*
X160031646Y-118360336D01*
X160021960Y-118328404D01*
X159994420Y-118237618D01*
X159981851Y-118110000D01*
X159994420Y-117982382D01*
X160031645Y-117859668D01*
X160031646Y-117859664D01*
X160092094Y-117746575D01*
X160173446Y-117647446D01*
X160272575Y-117566094D01*
X160385664Y-117505646D01*
X160417596Y-117495960D01*
X160508382Y-117468420D01*
X160572145Y-117462140D01*
X160604026Y-117459000D01*
X161467974Y-117459000D01*
X161499855Y-117462140D01*
G37*
G36*
X187311512Y-114927927D02*
G01*
X187460812Y-114957624D01*
X187624784Y-115025544D01*
X187772354Y-115124147D01*
X187897853Y-115249646D01*
X187996456Y-115397216D01*
X188064376Y-115561188D01*
X188099000Y-115735259D01*
X188099000Y-115912741D01*
X188064376Y-116086812D01*
X187996456Y-116250784D01*
X187897853Y-116398354D01*
X187772354Y-116523853D01*
X187624784Y-116622456D01*
X187460812Y-116690376D01*
X187311512Y-116720073D01*
X187286742Y-116725000D01*
X187109258Y-116725000D01*
X187084488Y-116720073D01*
X186935188Y-116690376D01*
X186771216Y-116622456D01*
X186623646Y-116523853D01*
X186498147Y-116398354D01*
X186399544Y-116250784D01*
X186331624Y-116086812D01*
X186297000Y-115912741D01*
X186297000Y-115735259D01*
X186331624Y-115561188D01*
X186399544Y-115397216D01*
X186498147Y-115249646D01*
X186623646Y-115124147D01*
X186771216Y-115025544D01*
X186935188Y-114957624D01*
X187084488Y-114927927D01*
X187109258Y-114923000D01*
X187286742Y-114923000D01*
X187311512Y-114927927D01*
G37*
G36*
X189851512Y-114927927D02*
G01*
X190000812Y-114957624D01*
X190164784Y-115025544D01*
X190312354Y-115124147D01*
X190437853Y-115249646D01*
X190536456Y-115397216D01*
X190604376Y-115561188D01*
X190639000Y-115735259D01*
X190639000Y-115912741D01*
X190604376Y-116086812D01*
X190536456Y-116250784D01*
X190437853Y-116398354D01*
X190312354Y-116523853D01*
X190164784Y-116622456D01*
X190000812Y-116690376D01*
X189851512Y-116720073D01*
X189826742Y-116725000D01*
X189649258Y-116725000D01*
X189624488Y-116720073D01*
X189475188Y-116690376D01*
X189311216Y-116622456D01*
X189163646Y-116523853D01*
X189038147Y-116398354D01*
X188939544Y-116250784D01*
X188871624Y-116086812D01*
X188837000Y-115912741D01*
X188837000Y-115735259D01*
X188871624Y-115561188D01*
X188939544Y-115397216D01*
X189038147Y-115249646D01*
X189163646Y-115124147D01*
X189311216Y-115025544D01*
X189475188Y-114957624D01*
X189624488Y-114927927D01*
X189649258Y-114923000D01*
X189826742Y-114923000D01*
X189851512Y-114927927D01*
G37*
G36*
X124573512Y-100242928D02*
G01*
X124722812Y-100272625D01*
X124886784Y-100340545D01*
X125034354Y-100439148D01*
X125159853Y-100564647D01*
X125258456Y-100712217D01*
X125326376Y-100876189D01*
X125361000Y-101050260D01*
X125361000Y-101227742D01*
X125326376Y-101401813D01*
X125258456Y-101565785D01*
X125159853Y-101713355D01*
X125034354Y-101838854D01*
X124886784Y-101937457D01*
X124722812Y-102005377D01*
X124573512Y-102035074D01*
X124548742Y-102040001D01*
X124371258Y-102040001D01*
X124346488Y-102035074D01*
X124197188Y-102005377D01*
X124033216Y-101937457D01*
X123885646Y-101838854D01*
X123760147Y-101713355D01*
X123661544Y-101565785D01*
X123593624Y-101401813D01*
X123559000Y-101227742D01*
X123559000Y-101050260D01*
X123593624Y-100876189D01*
X123661544Y-100712217D01*
X123760147Y-100564647D01*
X123885646Y-100439148D01*
X124033216Y-100340545D01*
X124197188Y-100272625D01*
X124346488Y-100242928D01*
X124371258Y-100238001D01*
X124548742Y-100238001D01*
X124573512Y-100242928D01*
G37*
G36*
X122033512Y-100242928D02*
G01*
X122182812Y-100272625D01*
X122346784Y-100340545D01*
X122494354Y-100439148D01*
X122619853Y-100564647D01*
X122718456Y-100712217D01*
X122786376Y-100876189D01*
X122821000Y-101050260D01*
X122821000Y-101227742D01*
X122786376Y-101401813D01*
X122718456Y-101565785D01*
X122619853Y-101713355D01*
X122494354Y-101838854D01*
X122346784Y-101937457D01*
X122182812Y-102005377D01*
X122033512Y-102035074D01*
X122008742Y-102040001D01*
X121831258Y-102040001D01*
X121806488Y-102035074D01*
X121657188Y-102005377D01*
X121493216Y-101937457D01*
X121345646Y-101838854D01*
X121220147Y-101713355D01*
X121121544Y-101565785D01*
X121053624Y-101401813D01*
X121019000Y-101227742D01*
X121019000Y-101050260D01*
X121053624Y-100876189D01*
X121121544Y-100712217D01*
X121220147Y-100564647D01*
X121345646Y-100439148D01*
X121493216Y-100340545D01*
X121657188Y-100272625D01*
X121806488Y-100242928D01*
X121831258Y-100238001D01*
X122008742Y-100238001D01*
X122033512Y-100242928D01*
G37*
G36*
X110121000Y-102040001D02*
G01*
X108319000Y-102040001D01*
X108319000Y-100238001D01*
X110121000Y-100238001D01*
X110121000Y-102040001D01*
G37*
G36*
X111873512Y-100242928D02*
G01*
X112022812Y-100272625D01*
X112186784Y-100340545D01*
X112334354Y-100439148D01*
X112459853Y-100564647D01*
X112558456Y-100712217D01*
X112626376Y-100876189D01*
X112661000Y-101050260D01*
X112661000Y-101227742D01*
X112626376Y-101401813D01*
X112558456Y-101565785D01*
X112459853Y-101713355D01*
X112334354Y-101838854D01*
X112186784Y-101937457D01*
X112022812Y-102005377D01*
X111873512Y-102035074D01*
X111848742Y-102040001D01*
X111671258Y-102040001D01*
X111646488Y-102035074D01*
X111497188Y-102005377D01*
X111333216Y-101937457D01*
X111185646Y-101838854D01*
X111060147Y-101713355D01*
X110961544Y-101565785D01*
X110893624Y-101401813D01*
X110859000Y-101227742D01*
X110859000Y-101050260D01*
X110893624Y-100876189D01*
X110961544Y-100712217D01*
X111060147Y-100564647D01*
X111185646Y-100439148D01*
X111333216Y-100340545D01*
X111497188Y-100272625D01*
X111646488Y-100242928D01*
X111671258Y-100238001D01*
X111848742Y-100238001D01*
X111873512Y-100242928D01*
G37*
G36*
X116953512Y-100242928D02*
G01*
X117102812Y-100272625D01*
X117266784Y-100340545D01*
X117414354Y-100439148D01*
X117539853Y-100564647D01*
X117638456Y-100712217D01*
X117706376Y-100876189D01*
X117741000Y-101050260D01*
X117741000Y-101227742D01*
X117706376Y-101401813D01*
X117638456Y-101565785D01*
X117539853Y-101713355D01*
X117414354Y-101838854D01*
X117266784Y-101937457D01*
X117102812Y-102005377D01*
X116953512Y-102035074D01*
X116928742Y-102040001D01*
X116751258Y-102040001D01*
X116726488Y-102035074D01*
X116577188Y-102005377D01*
X116413216Y-101937457D01*
X116265646Y-101838854D01*
X116140147Y-101713355D01*
X116041544Y-101565785D01*
X115973624Y-101401813D01*
X115939000Y-101227742D01*
X115939000Y-101050260D01*
X115973624Y-100876189D01*
X116041544Y-100712217D01*
X116140147Y-100564647D01*
X116265646Y-100439148D01*
X116413216Y-100340545D01*
X116577188Y-100272625D01*
X116726488Y-100242928D01*
X116751258Y-100238001D01*
X116928742Y-100238001D01*
X116953512Y-100242928D01*
G37*
G36*
X119493512Y-100242928D02*
G01*
X119642812Y-100272625D01*
X119806784Y-100340545D01*
X119954354Y-100439148D01*
X120079853Y-100564647D01*
X120178456Y-100712217D01*
X120246376Y-100876189D01*
X120281000Y-101050260D01*
X120281000Y-101227742D01*
X120246376Y-101401813D01*
X120178456Y-101565785D01*
X120079853Y-101713355D01*
X119954354Y-101838854D01*
X119806784Y-101937457D01*
X119642812Y-102005377D01*
X119493512Y-102035074D01*
X119468742Y-102040001D01*
X119291258Y-102040001D01*
X119266488Y-102035074D01*
X119117188Y-102005377D01*
X118953216Y-101937457D01*
X118805646Y-101838854D01*
X118680147Y-101713355D01*
X118581544Y-101565785D01*
X118513624Y-101401813D01*
X118479000Y-101227742D01*
X118479000Y-101050260D01*
X118513624Y-100876189D01*
X118581544Y-100712217D01*
X118680147Y-100564647D01*
X118805646Y-100439148D01*
X118953216Y-100340545D01*
X119117188Y-100272625D01*
X119266488Y-100242928D01*
X119291258Y-100238001D01*
X119468742Y-100238001D01*
X119493512Y-100242928D01*
G37*
G36*
X114413512Y-100242928D02*
G01*
X114562812Y-100272625D01*
X114726784Y-100340545D01*
X114874354Y-100439148D01*
X114999853Y-100564647D01*
X115098456Y-100712217D01*
X115166376Y-100876189D01*
X115201000Y-101050260D01*
X115201000Y-101227742D01*
X115166376Y-101401813D01*
X115098456Y-101565785D01*
X114999853Y-101713355D01*
X114874354Y-101838854D01*
X114726784Y-101937457D01*
X114562812Y-102005377D01*
X114413512Y-102035074D01*
X114388742Y-102040001D01*
X114211258Y-102040001D01*
X114186488Y-102035074D01*
X114037188Y-102005377D01*
X113873216Y-101937457D01*
X113725646Y-101838854D01*
X113600147Y-101713355D01*
X113501544Y-101565785D01*
X113433624Y-101401813D01*
X113399000Y-101227742D01*
X113399000Y-101050260D01*
X113433624Y-100876189D01*
X113501544Y-100712217D01*
X113600147Y-100564647D01*
X113725646Y-100439148D01*
X113873216Y-100340545D01*
X114037188Y-100272625D01*
X114186488Y-100242928D01*
X114211258Y-100238001D01*
X114388742Y-100238001D01*
X114413512Y-100242928D01*
G37*
G36*
X155714000Y-101993000D02*
G01*
X153912000Y-101993000D01*
X153912000Y-100191000D01*
X155714000Y-100191000D01*
X155714000Y-101993000D01*
G37*
G36*
X165086512Y-100195927D02*
G01*
X165235812Y-100225624D01*
X165399784Y-100293544D01*
X165547354Y-100392147D01*
X165672853Y-100517646D01*
X165771456Y-100665216D01*
X165839376Y-100829188D01*
X165874000Y-101003259D01*
X165874000Y-101180741D01*
X165839376Y-101354812D01*
X165771456Y-101518784D01*
X165672853Y-101666354D01*
X165547354Y-101791853D01*
X165399784Y-101890456D01*
X165235812Y-101958376D01*
X165086512Y-101988073D01*
X165061742Y-101993000D01*
X164884258Y-101993000D01*
X164859488Y-101988073D01*
X164710188Y-101958376D01*
X164546216Y-101890456D01*
X164398646Y-101791853D01*
X164273147Y-101666354D01*
X164174544Y-101518784D01*
X164106624Y-101354812D01*
X164072000Y-101180741D01*
X164072000Y-101003259D01*
X164106624Y-100829188D01*
X164174544Y-100665216D01*
X164273147Y-100517646D01*
X164398646Y-100392147D01*
X164546216Y-100293544D01*
X164710188Y-100225624D01*
X164859488Y-100195927D01*
X164884258Y-100191000D01*
X165061742Y-100191000D01*
X165086512Y-100195927D01*
G37*
G36*
X157466512Y-100195927D02*
G01*
X157615812Y-100225624D01*
X157779784Y-100293544D01*
X157927354Y-100392147D01*
X158052853Y-100517646D01*
X158151456Y-100665216D01*
X158219376Y-100829188D01*
X158254000Y-101003259D01*
X158254000Y-101180741D01*
X158219376Y-101354812D01*
X158151456Y-101518784D01*
X158052853Y-101666354D01*
X157927354Y-101791853D01*
X157779784Y-101890456D01*
X157615812Y-101958376D01*
X157466512Y-101988073D01*
X157441742Y-101993000D01*
X157264258Y-101993000D01*
X157239488Y-101988073D01*
X157090188Y-101958376D01*
X156926216Y-101890456D01*
X156778646Y-101791853D01*
X156653147Y-101666354D01*
X156554544Y-101518784D01*
X156486624Y-101354812D01*
X156452000Y-101180741D01*
X156452000Y-101003259D01*
X156486624Y-100829188D01*
X156554544Y-100665216D01*
X156653147Y-100517646D01*
X156778646Y-100392147D01*
X156926216Y-100293544D01*
X157090188Y-100225624D01*
X157239488Y-100195927D01*
X157264258Y-100191000D01*
X157441742Y-100191000D01*
X157466512Y-100195927D01*
G37*
G36*
X162546512Y-100195927D02*
G01*
X162695812Y-100225624D01*
X162859784Y-100293544D01*
X163007354Y-100392147D01*
X163132853Y-100517646D01*
X163231456Y-100665216D01*
X163299376Y-100829188D01*
X163334000Y-101003259D01*
X163334000Y-101180741D01*
X163299376Y-101354812D01*
X163231456Y-101518784D01*
X163132853Y-101666354D01*
X163007354Y-101791853D01*
X162859784Y-101890456D01*
X162695812Y-101958376D01*
X162546512Y-101988073D01*
X162521742Y-101993000D01*
X162344258Y-101993000D01*
X162319488Y-101988073D01*
X162170188Y-101958376D01*
X162006216Y-101890456D01*
X161858646Y-101791853D01*
X161733147Y-101666354D01*
X161634544Y-101518784D01*
X161566624Y-101354812D01*
X161532000Y-101180741D01*
X161532000Y-101003259D01*
X161566624Y-100829188D01*
X161634544Y-100665216D01*
X161733147Y-100517646D01*
X161858646Y-100392147D01*
X162006216Y-100293544D01*
X162170188Y-100225624D01*
X162319488Y-100195927D01*
X162344258Y-100191000D01*
X162521742Y-100191000D01*
X162546512Y-100195927D01*
G37*
G36*
X167626512Y-100195927D02*
G01*
X167775812Y-100225624D01*
X167939784Y-100293544D01*
X168087354Y-100392147D01*
X168212853Y-100517646D01*
X168311456Y-100665216D01*
X168379376Y-100829188D01*
X168414000Y-101003259D01*
X168414000Y-101180741D01*
X168379376Y-101354812D01*
X168311456Y-101518784D01*
X168212853Y-101666354D01*
X168087354Y-101791853D01*
X167939784Y-101890456D01*
X167775812Y-101958376D01*
X167626512Y-101988073D01*
X167601742Y-101993000D01*
X167424258Y-101993000D01*
X167399488Y-101988073D01*
X167250188Y-101958376D01*
X167086216Y-101890456D01*
X166938646Y-101791853D01*
X166813147Y-101666354D01*
X166714544Y-101518784D01*
X166646624Y-101354812D01*
X166612000Y-101180741D01*
X166612000Y-101003259D01*
X166646624Y-100829188D01*
X166714544Y-100665216D01*
X166813147Y-100517646D01*
X166938646Y-100392147D01*
X167086216Y-100293544D01*
X167250188Y-100225624D01*
X167399488Y-100195927D01*
X167424258Y-100191000D01*
X167601742Y-100191000D01*
X167626512Y-100195927D01*
G37*
G36*
X160006512Y-100195927D02*
G01*
X160155812Y-100225624D01*
X160319784Y-100293544D01*
X160467354Y-100392147D01*
X160592853Y-100517646D01*
X160691456Y-100665216D01*
X160759376Y-100829188D01*
X160794000Y-101003259D01*
X160794000Y-101180741D01*
X160759376Y-101354812D01*
X160691456Y-101518784D01*
X160592853Y-101666354D01*
X160467354Y-101791853D01*
X160319784Y-101890456D01*
X160155812Y-101958376D01*
X160006512Y-101988073D01*
X159981742Y-101993000D01*
X159804258Y-101993000D01*
X159779488Y-101988073D01*
X159630188Y-101958376D01*
X159466216Y-101890456D01*
X159318646Y-101791853D01*
X159193147Y-101666354D01*
X159094544Y-101518784D01*
X159026624Y-101354812D01*
X158992000Y-101180741D01*
X158992000Y-101003259D01*
X159026624Y-100829188D01*
X159094544Y-100665216D01*
X159193147Y-100517646D01*
X159318646Y-100392147D01*
X159466216Y-100293544D01*
X159630188Y-100225624D01*
X159779488Y-100195927D01*
X159804258Y-100191000D01*
X159981742Y-100191000D01*
X160006512Y-100195927D01*
G37*
G36*
X134709228Y-100146703D02*
G01*
X134864100Y-100210853D01*
X135003481Y-100303985D01*
X135122015Y-100422519D01*
X135215147Y-100561900D01*
X135279297Y-100716772D01*
X135312000Y-100881184D01*
X135312000Y-101048816D01*
X135279297Y-101213228D01*
X135215147Y-101368100D01*
X135122015Y-101507481D01*
X135003481Y-101626015D01*
X134864100Y-101719147D01*
X134709228Y-101783297D01*
X134544816Y-101816000D01*
X134377184Y-101816000D01*
X134212772Y-101783297D01*
X134057900Y-101719147D01*
X133918519Y-101626015D01*
X133799985Y-101507481D01*
X133706853Y-101368100D01*
X133642703Y-101213228D01*
X133610000Y-101048816D01*
X133610000Y-100881184D01*
X133642703Y-100716772D01*
X133706853Y-100561900D01*
X133799985Y-100422519D01*
X133918519Y-100303985D01*
X134057900Y-100210853D01*
X134212772Y-100146703D01*
X134377184Y-100114000D01*
X134544816Y-100114000D01*
X134709228Y-100146703D01*
G37*
G36*
X133312000Y-101816000D02*
G01*
X131610000Y-101816000D01*
X131610000Y-100114000D01*
X133312000Y-100114000D01*
X133312000Y-101816000D01*
G37*
G36*
X189721142Y-87102242D02*
G01*
X189869101Y-87163529D01*
X190002255Y-87252499D01*
X190115501Y-87365745D01*
X190204471Y-87498899D01*
X190265758Y-87646858D01*
X190297000Y-87803925D01*
X190297000Y-87964075D01*
X190265758Y-88121142D01*
X190204471Y-88269101D01*
X190115501Y-88402255D01*
X190002255Y-88515501D01*
X189869101Y-88604471D01*
X189721142Y-88665758D01*
X189564075Y-88697000D01*
X189403925Y-88697000D01*
X189246858Y-88665758D01*
X189098899Y-88604471D01*
X188965745Y-88515501D01*
X188852499Y-88402255D01*
X188763529Y-88269101D01*
X188702242Y-88121142D01*
X188671000Y-87964075D01*
X188671000Y-87803925D01*
X188702242Y-87646858D01*
X188763529Y-87498899D01*
X188852499Y-87365745D01*
X188965745Y-87252499D01*
X189098899Y-87163529D01*
X189246858Y-87102242D01*
X189403925Y-87071000D01*
X189564075Y-87071000D01*
X189721142Y-87102242D01*
G37*
G36*
X186165142Y-87102242D02*
G01*
X186313101Y-87163529D01*
X186446255Y-87252499D01*
X186559501Y-87365745D01*
X186648471Y-87498899D01*
X186709758Y-87646858D01*
X186741000Y-87803925D01*
X186741000Y-87964075D01*
X186709758Y-88121142D01*
X186648471Y-88269101D01*
X186559501Y-88402255D01*
X186446255Y-88515501D01*
X186313101Y-88604471D01*
X186165142Y-88665758D01*
X186008075Y-88697000D01*
X185847925Y-88697000D01*
X185690858Y-88665758D01*
X185542899Y-88604471D01*
X185409745Y-88515501D01*
X185296499Y-88402255D01*
X185207529Y-88269101D01*
X185146242Y-88121142D01*
X185115000Y-87964075D01*
X185115000Y-87803925D01*
X185146242Y-87646858D01*
X185207529Y-87498899D01*
X185296499Y-87365745D01*
X185409745Y-87252499D01*
X185542899Y-87163529D01*
X185690858Y-87102242D01*
X185847925Y-87071000D01*
X186008075Y-87071000D01*
X186165142Y-87102242D01*
G37*
G36*
X182609142Y-87102242D02*
G01*
X182757101Y-87163529D01*
X182890255Y-87252499D01*
X183003501Y-87365745D01*
X183092471Y-87498899D01*
X183153758Y-87646858D01*
X183185000Y-87803925D01*
X183185000Y-87964075D01*
X183153758Y-88121142D01*
X183092471Y-88269101D01*
X183003501Y-88402255D01*
X182890255Y-88515501D01*
X182757101Y-88604471D01*
X182609142Y-88665758D01*
X182452075Y-88697000D01*
X182291925Y-88697000D01*
X182134858Y-88665758D01*
X181986899Y-88604471D01*
X181853745Y-88515501D01*
X181740499Y-88402255D01*
X181651529Y-88269101D01*
X181590242Y-88121142D01*
X181559000Y-87964075D01*
X181559000Y-87803925D01*
X181590242Y-87646858D01*
X181651529Y-87498899D01*
X181740499Y-87365745D01*
X181853745Y-87252499D01*
X181986899Y-87163529D01*
X182134858Y-87102242D01*
X182291925Y-87071000D01*
X182452075Y-87071000D01*
X182609142Y-87102242D01*
G37*
G36*
X192137512Y-85717927D02*
G01*
X192286812Y-85747624D01*
X192450784Y-85815544D01*
X192598354Y-85914147D01*
X192723853Y-86039646D01*
X192822456Y-86187216D01*
X192890376Y-86351188D01*
X192925000Y-86525259D01*
X192925000Y-86702741D01*
X192890376Y-86876812D01*
X192822456Y-87040784D01*
X192723853Y-87188354D01*
X192598354Y-87313853D01*
X192450784Y-87412456D01*
X192286812Y-87480376D01*
X192137512Y-87510073D01*
X192112742Y-87515000D01*
X191935258Y-87515000D01*
X191910488Y-87510073D01*
X191761188Y-87480376D01*
X191597216Y-87412456D01*
X191449646Y-87313853D01*
X191324147Y-87188354D01*
X191225544Y-87040784D01*
X191157624Y-86876812D01*
X191123000Y-86702741D01*
X191123000Y-86525259D01*
X191157624Y-86351188D01*
X191225544Y-86187216D01*
X191324147Y-86039646D01*
X191449646Y-85914147D01*
X191597216Y-85815544D01*
X191761188Y-85747624D01*
X191910488Y-85717927D01*
X191935258Y-85713000D01*
X192112742Y-85713000D01*
X192137512Y-85717927D01*
G37*
G36*
X179945512Y-85717927D02*
G01*
X180094812Y-85747624D01*
X180258784Y-85815544D01*
X180406354Y-85914147D01*
X180531853Y-86039646D01*
X180630456Y-86187216D01*
X180698376Y-86351188D01*
X180733000Y-86525259D01*
X180733000Y-86702741D01*
X180698376Y-86876812D01*
X180630456Y-87040784D01*
X180531853Y-87188354D01*
X180406354Y-87313853D01*
X180258784Y-87412456D01*
X180094812Y-87480376D01*
X179945512Y-87510073D01*
X179920742Y-87515000D01*
X179743258Y-87515000D01*
X179718488Y-87510073D01*
X179569188Y-87480376D01*
X179405216Y-87412456D01*
X179257646Y-87313853D01*
X179132147Y-87188354D01*
X179033544Y-87040784D01*
X178965624Y-86876812D01*
X178931000Y-86702741D01*
X178931000Y-86525259D01*
X178965624Y-86351188D01*
X179033544Y-86187216D01*
X179132147Y-86039646D01*
X179257646Y-85914147D01*
X179405216Y-85815544D01*
X179569188Y-85747624D01*
X179718488Y-85717927D01*
X179743258Y-85713000D01*
X179920742Y-85713000D01*
X179945512Y-85717927D01*
G37*
G36*
X189721142Y-84562242D02*
G01*
X189869101Y-84623529D01*
X190002255Y-84712499D01*
X190115501Y-84825745D01*
X190204471Y-84958899D01*
X190265758Y-85106858D01*
X190297000Y-85263925D01*
X190297000Y-85424075D01*
X190265758Y-85581142D01*
X190204471Y-85729101D01*
X190115501Y-85862255D01*
X190002255Y-85975501D01*
X189869101Y-86064471D01*
X189721142Y-86125758D01*
X189564075Y-86157000D01*
X189403925Y-86157000D01*
X189246858Y-86125758D01*
X189098899Y-86064471D01*
X188965745Y-85975501D01*
X188852499Y-85862255D01*
X188763529Y-85729101D01*
X188702242Y-85581142D01*
X188671000Y-85424075D01*
X188671000Y-85263925D01*
X188702242Y-85106858D01*
X188763529Y-84958899D01*
X188852499Y-84825745D01*
X188965745Y-84712499D01*
X189098899Y-84623529D01*
X189246858Y-84562242D01*
X189403925Y-84531000D01*
X189564075Y-84531000D01*
X189721142Y-84562242D01*
G37*
G36*
X182609142Y-84562242D02*
G01*
X182757101Y-84623529D01*
X182890255Y-84712499D01*
X183003501Y-84825745D01*
X183092471Y-84958899D01*
X183153758Y-85106858D01*
X183185000Y-85263925D01*
X183185000Y-85424075D01*
X183153758Y-85581142D01*
X183092471Y-85729101D01*
X183003501Y-85862255D01*
X182890255Y-85975501D01*
X182757101Y-86064471D01*
X182609142Y-86125758D01*
X182452075Y-86157000D01*
X182291925Y-86157000D01*
X182134858Y-86125758D01*
X181986899Y-86064471D01*
X181853745Y-85975501D01*
X181740499Y-85862255D01*
X181651529Y-85729101D01*
X181590242Y-85581142D01*
X181559000Y-85424075D01*
X181559000Y-85263925D01*
X181590242Y-85106858D01*
X181651529Y-84958899D01*
X181740499Y-84825745D01*
X181853745Y-84712499D01*
X181986899Y-84623529D01*
X182134858Y-84562242D01*
X182291925Y-84531000D01*
X182452075Y-84531000D01*
X182609142Y-84562242D01*
G37*
G36*
X186165142Y-84562242D02*
G01*
X186313101Y-84623529D01*
X186446255Y-84712499D01*
X186559501Y-84825745D01*
X186648471Y-84958899D01*
X186709758Y-85106858D01*
X186741000Y-85263925D01*
X186741000Y-85424075D01*
X186709758Y-85581142D01*
X186648471Y-85729101D01*
X186559501Y-85862255D01*
X186446255Y-85975501D01*
X186313101Y-86064471D01*
X186165142Y-86125758D01*
X186008075Y-86157000D01*
X185847925Y-86157000D01*
X185690858Y-86125758D01*
X185542899Y-86064471D01*
X185409745Y-85975501D01*
X185296499Y-85862255D01*
X185207529Y-85729101D01*
X185146242Y-85581142D01*
X185115000Y-85424075D01*
X185115000Y-85263925D01*
X185146242Y-85106858D01*
X185207529Y-84958899D01*
X185296499Y-84825745D01*
X185409745Y-84712499D01*
X185542899Y-84623529D01*
X185690858Y-84562242D01*
X185847925Y-84531000D01*
X186008075Y-84531000D01*
X186165142Y-84562242D01*
G37*
G36*
X164749022Y-83796590D02*
G01*
X164843963Y-83825390D01*
X164900012Y-83842392D01*
X165016422Y-83904615D01*
X165039164Y-83916771D01*
X165161133Y-84016867D01*
X165261229Y-84138835D01*
X165335608Y-84277987D01*
X165350875Y-84328318D01*
X165381410Y-84428977D01*
X165393000Y-84546655D01*
X165393000Y-85125345D01*
X165381410Y-85243023D01*
X165375069Y-85263925D01*
X165335608Y-85394013D01*
X165261229Y-85533165D01*
X165161133Y-85655133D01*
X165039165Y-85755229D01*
X164900013Y-85829608D01*
X164849682Y-85844875D01*
X164749023Y-85875410D01*
X164592000Y-85890875D01*
X164434978Y-85875410D01*
X164334319Y-85844875D01*
X164283988Y-85829608D01*
X164144836Y-85755229D01*
X164022868Y-85655133D01*
X164020596Y-85652365D01*
X163922771Y-85533165D01*
X163864461Y-85424075D01*
X163848392Y-85394013D01*
X163808931Y-85263925D01*
X163802590Y-85243023D01*
X163791000Y-85125345D01*
X163791000Y-84546656D01*
X163802590Y-84428978D01*
X163848392Y-84277989D01*
X163848392Y-84277988D01*
X163922771Y-84138836D01*
X163922772Y-84138835D01*
X164022867Y-84016867D01*
X164144835Y-83916771D01*
X164167577Y-83904615D01*
X164283987Y-83842392D01*
X164340036Y-83825390D01*
X164434977Y-83796590D01*
X164592000Y-83781125D01*
X164749022Y-83796590D01*
G37*
G36*
X129189022Y-83796590D02*
G01*
X129283963Y-83825390D01*
X129340012Y-83842392D01*
X129456422Y-83904615D01*
X129479164Y-83916771D01*
X129601133Y-84016867D01*
X129701229Y-84138835D01*
X129775608Y-84277987D01*
X129790875Y-84328318D01*
X129821410Y-84428977D01*
X129833000Y-84546655D01*
X129833000Y-85125345D01*
X129821410Y-85243023D01*
X129815069Y-85263925D01*
X129775608Y-85394013D01*
X129701229Y-85533165D01*
X129601133Y-85655133D01*
X129479165Y-85755229D01*
X129340013Y-85829608D01*
X129289682Y-85844875D01*
X129189023Y-85875410D01*
X129032000Y-85890875D01*
X128874978Y-85875410D01*
X128774319Y-85844875D01*
X128723988Y-85829608D01*
X128584836Y-85755229D01*
X128462868Y-85655133D01*
X128460596Y-85652365D01*
X128362771Y-85533165D01*
X128304461Y-85424075D01*
X128288392Y-85394013D01*
X128248931Y-85263925D01*
X128242590Y-85243023D01*
X128231000Y-85125345D01*
X128231000Y-84546656D01*
X128242590Y-84428978D01*
X128288392Y-84277989D01*
X128288392Y-84277988D01*
X128362771Y-84138836D01*
X128362772Y-84138835D01*
X128462867Y-84016867D01*
X128584835Y-83916771D01*
X128607577Y-83904615D01*
X128723987Y-83842392D01*
X128780036Y-83825390D01*
X128874977Y-83796590D01*
X129032000Y-83781125D01*
X129189022Y-83796590D01*
G37*
G36*
X131729022Y-83796590D02*
G01*
X131823963Y-83825390D01*
X131880012Y-83842392D01*
X131996422Y-83904615D01*
X132019164Y-83916771D01*
X132141133Y-84016867D01*
X132241229Y-84138835D01*
X132315608Y-84277987D01*
X132330875Y-84328318D01*
X132361410Y-84428977D01*
X132373000Y-84546655D01*
X132373000Y-85125345D01*
X132361410Y-85243023D01*
X132355069Y-85263925D01*
X132315608Y-85394013D01*
X132241229Y-85533165D01*
X132141133Y-85655133D01*
X132019165Y-85755229D01*
X131880013Y-85829608D01*
X131829682Y-85844875D01*
X131729023Y-85875410D01*
X131572000Y-85890875D01*
X131414978Y-85875410D01*
X131314319Y-85844875D01*
X131263988Y-85829608D01*
X131124836Y-85755229D01*
X131002868Y-85655133D01*
X131000596Y-85652365D01*
X130902771Y-85533165D01*
X130844461Y-85424075D01*
X130828392Y-85394013D01*
X130788931Y-85263925D01*
X130782590Y-85243023D01*
X130771000Y-85125345D01*
X130771000Y-84546656D01*
X130782590Y-84428978D01*
X130828392Y-84277989D01*
X130828392Y-84277988D01*
X130902771Y-84138836D01*
X130902772Y-84138835D01*
X131002867Y-84016867D01*
X131124835Y-83916771D01*
X131147577Y-83904615D01*
X131263987Y-83842392D01*
X131320036Y-83825390D01*
X131414977Y-83796590D01*
X131572000Y-83781125D01*
X131729022Y-83796590D01*
G37*
G36*
X134269022Y-83796590D02*
G01*
X134363963Y-83825390D01*
X134420012Y-83842392D01*
X134536422Y-83904615D01*
X134559164Y-83916771D01*
X134681133Y-84016867D01*
X134781229Y-84138835D01*
X134855608Y-84277987D01*
X134870875Y-84328318D01*
X134901410Y-84428977D01*
X134913000Y-84546655D01*
X134913000Y-85125345D01*
X134901410Y-85243023D01*
X134895069Y-85263925D01*
X134855608Y-85394013D01*
X134781229Y-85533165D01*
X134681133Y-85655133D01*
X134559165Y-85755229D01*
X134420013Y-85829608D01*
X134369682Y-85844875D01*
X134269023Y-85875410D01*
X134112000Y-85890875D01*
X133954978Y-85875410D01*
X133854319Y-85844875D01*
X133803988Y-85829608D01*
X133664836Y-85755229D01*
X133542868Y-85655133D01*
X133540596Y-85652365D01*
X133442771Y-85533165D01*
X133384461Y-85424075D01*
X133368392Y-85394013D01*
X133328931Y-85263925D01*
X133322590Y-85243023D01*
X133311000Y-85125345D01*
X133311000Y-84546656D01*
X133322590Y-84428978D01*
X133368392Y-84277989D01*
X133368392Y-84277988D01*
X133442771Y-84138836D01*
X133442772Y-84138835D01*
X133542867Y-84016867D01*
X133664835Y-83916771D01*
X133687577Y-83904615D01*
X133803987Y-83842392D01*
X133860036Y-83825390D01*
X133954977Y-83796590D01*
X134112000Y-83781125D01*
X134269022Y-83796590D01*
G37*
G36*
X136809022Y-83796590D02*
G01*
X136903963Y-83825390D01*
X136960012Y-83842392D01*
X137076422Y-83904615D01*
X137099164Y-83916771D01*
X137221133Y-84016867D01*
X137321229Y-84138835D01*
X137395608Y-84277987D01*
X137410875Y-84328318D01*
X137441410Y-84428977D01*
X137453000Y-84546655D01*
X137453000Y-85125345D01*
X137441410Y-85243023D01*
X137435069Y-85263925D01*
X137395608Y-85394013D01*
X137321229Y-85533165D01*
X137221133Y-85655133D01*
X137099165Y-85755229D01*
X136960013Y-85829608D01*
X136909682Y-85844875D01*
X136809023Y-85875410D01*
X136652000Y-85890875D01*
X136494978Y-85875410D01*
X136394319Y-85844875D01*
X136343988Y-85829608D01*
X136204836Y-85755229D01*
X136082868Y-85655133D01*
X136080596Y-85652365D01*
X135982771Y-85533165D01*
X135924461Y-85424075D01*
X135908392Y-85394013D01*
X135868931Y-85263925D01*
X135862590Y-85243023D01*
X135851000Y-85125345D01*
X135851000Y-84546656D01*
X135862590Y-84428978D01*
X135908392Y-84277989D01*
X135908392Y-84277988D01*
X135982771Y-84138836D01*
X135982772Y-84138835D01*
X136082867Y-84016867D01*
X136204835Y-83916771D01*
X136227577Y-83904615D01*
X136343987Y-83842392D01*
X136400036Y-83825390D01*
X136494977Y-83796590D01*
X136652000Y-83781125D01*
X136809022Y-83796590D01*
G37*
G36*
X139349022Y-83796590D02*
G01*
X139443963Y-83825390D01*
X139500012Y-83842392D01*
X139616422Y-83904615D01*
X139639164Y-83916771D01*
X139761133Y-84016867D01*
X139861229Y-84138835D01*
X139935608Y-84277987D01*
X139950875Y-84328318D01*
X139981410Y-84428977D01*
X139993000Y-84546655D01*
X139993000Y-85125345D01*
X139981410Y-85243023D01*
X139975069Y-85263925D01*
X139935608Y-85394013D01*
X139861229Y-85533165D01*
X139761133Y-85655133D01*
X139639165Y-85755229D01*
X139500013Y-85829608D01*
X139449682Y-85844875D01*
X139349023Y-85875410D01*
X139192000Y-85890875D01*
X139034978Y-85875410D01*
X138934319Y-85844875D01*
X138883988Y-85829608D01*
X138744836Y-85755229D01*
X138622868Y-85655133D01*
X138620596Y-85652365D01*
X138522771Y-85533165D01*
X138464461Y-85424075D01*
X138448392Y-85394013D01*
X138408931Y-85263925D01*
X138402590Y-85243023D01*
X138391000Y-85125345D01*
X138391000Y-84546656D01*
X138402590Y-84428978D01*
X138448392Y-84277989D01*
X138448392Y-84277988D01*
X138522771Y-84138836D01*
X138522772Y-84138835D01*
X138622867Y-84016867D01*
X138744835Y-83916771D01*
X138767577Y-83904615D01*
X138883987Y-83842392D01*
X138940036Y-83825390D01*
X139034977Y-83796590D01*
X139192000Y-83781125D01*
X139349022Y-83796590D01*
G37*
G36*
X141889022Y-83796590D02*
G01*
X141983963Y-83825390D01*
X142040012Y-83842392D01*
X142156422Y-83904615D01*
X142179164Y-83916771D01*
X142301133Y-84016867D01*
X142401229Y-84138835D01*
X142475608Y-84277987D01*
X142490875Y-84328318D01*
X142521410Y-84428977D01*
X142533000Y-84546655D01*
X142533000Y-85125345D01*
X142521410Y-85243023D01*
X142515069Y-85263925D01*
X142475608Y-85394013D01*
X142401229Y-85533165D01*
X142301133Y-85655133D01*
X142179165Y-85755229D01*
X142040013Y-85829608D01*
X141989682Y-85844875D01*
X141889023Y-85875410D01*
X141732000Y-85890875D01*
X141574978Y-85875410D01*
X141474319Y-85844875D01*
X141423988Y-85829608D01*
X141284836Y-85755229D01*
X141162868Y-85655133D01*
X141160596Y-85652365D01*
X141062771Y-85533165D01*
X141004461Y-85424075D01*
X140988392Y-85394013D01*
X140948931Y-85263925D01*
X140942590Y-85243023D01*
X140931000Y-85125345D01*
X140931000Y-84546656D01*
X140942590Y-84428978D01*
X140988392Y-84277989D01*
X140988392Y-84277988D01*
X141062771Y-84138836D01*
X141062772Y-84138835D01*
X141162867Y-84016867D01*
X141284835Y-83916771D01*
X141307577Y-83904615D01*
X141423987Y-83842392D01*
X141480036Y-83825390D01*
X141574977Y-83796590D01*
X141732000Y-83781125D01*
X141889022Y-83796590D01*
G37*
G36*
X144429022Y-83796590D02*
G01*
X144523963Y-83825390D01*
X144580012Y-83842392D01*
X144696422Y-83904615D01*
X144719164Y-83916771D01*
X144841133Y-84016867D01*
X144941229Y-84138835D01*
X145015608Y-84277987D01*
X145030875Y-84328318D01*
X145061410Y-84428977D01*
X145073000Y-84546655D01*
X145073000Y-85125345D01*
X145061410Y-85243023D01*
X145055069Y-85263925D01*
X145015608Y-85394013D01*
X144941229Y-85533165D01*
X144841133Y-85655133D01*
X144719165Y-85755229D01*
X144580013Y-85829608D01*
X144529682Y-85844875D01*
X144429023Y-85875410D01*
X144272000Y-85890875D01*
X144114978Y-85875410D01*
X144014319Y-85844875D01*
X143963988Y-85829608D01*
X143824836Y-85755229D01*
X143702868Y-85655133D01*
X143700596Y-85652365D01*
X143602771Y-85533165D01*
X143544461Y-85424075D01*
X143528392Y-85394013D01*
X143488931Y-85263925D01*
X143482590Y-85243023D01*
X143471000Y-85125345D01*
X143471000Y-84546656D01*
X143482590Y-84428978D01*
X143528392Y-84277989D01*
X143528392Y-84277988D01*
X143602771Y-84138836D01*
X143602772Y-84138835D01*
X143702867Y-84016867D01*
X143824835Y-83916771D01*
X143847577Y-83904615D01*
X143963987Y-83842392D01*
X144020036Y-83825390D01*
X144114977Y-83796590D01*
X144272000Y-83781125D01*
X144429022Y-83796590D01*
G37*
G36*
X146969022Y-83796590D02*
G01*
X147063963Y-83825390D01*
X147120012Y-83842392D01*
X147236422Y-83904615D01*
X147259164Y-83916771D01*
X147381133Y-84016867D01*
X147481229Y-84138835D01*
X147555608Y-84277987D01*
X147570875Y-84328318D01*
X147601410Y-84428977D01*
X147613000Y-84546655D01*
X147613000Y-85125345D01*
X147601410Y-85243023D01*
X147595069Y-85263925D01*
X147555608Y-85394013D01*
X147481229Y-85533165D01*
X147381133Y-85655133D01*
X147259165Y-85755229D01*
X147120013Y-85829608D01*
X147069682Y-85844875D01*
X146969023Y-85875410D01*
X146812000Y-85890875D01*
X146654978Y-85875410D01*
X146554319Y-85844875D01*
X146503988Y-85829608D01*
X146364836Y-85755229D01*
X146242868Y-85655133D01*
X146240596Y-85652365D01*
X146142771Y-85533165D01*
X146084461Y-85424075D01*
X146068392Y-85394013D01*
X146028931Y-85263925D01*
X146022590Y-85243023D01*
X146011000Y-85125345D01*
X146011000Y-84546656D01*
X146022590Y-84428978D01*
X146068392Y-84277989D01*
X146068392Y-84277988D01*
X146142771Y-84138836D01*
X146142772Y-84138835D01*
X146242867Y-84016867D01*
X146364835Y-83916771D01*
X146387577Y-83904615D01*
X146503987Y-83842392D01*
X146560036Y-83825390D01*
X146654977Y-83796590D01*
X146812000Y-83781125D01*
X146969022Y-83796590D01*
G37*
G36*
X149509022Y-83796590D02*
G01*
X149603963Y-83825390D01*
X149660012Y-83842392D01*
X149776422Y-83904615D01*
X149799164Y-83916771D01*
X149921133Y-84016867D01*
X150021229Y-84138835D01*
X150095608Y-84277987D01*
X150110875Y-84328318D01*
X150141410Y-84428977D01*
X150153000Y-84546655D01*
X150153000Y-85125345D01*
X150141410Y-85243023D01*
X150135069Y-85263925D01*
X150095608Y-85394013D01*
X150021229Y-85533165D01*
X149921133Y-85655133D01*
X149799165Y-85755229D01*
X149660013Y-85829608D01*
X149609682Y-85844875D01*
X149509023Y-85875410D01*
X149352000Y-85890875D01*
X149194978Y-85875410D01*
X149094319Y-85844875D01*
X149043988Y-85829608D01*
X148904836Y-85755229D01*
X148782868Y-85655133D01*
X148780596Y-85652365D01*
X148682771Y-85533165D01*
X148624461Y-85424075D01*
X148608392Y-85394013D01*
X148568931Y-85263925D01*
X148562590Y-85243023D01*
X148551000Y-85125345D01*
X148551000Y-84546656D01*
X148562590Y-84428978D01*
X148608392Y-84277989D01*
X148608392Y-84277988D01*
X148682771Y-84138836D01*
X148682772Y-84138835D01*
X148782867Y-84016867D01*
X148904835Y-83916771D01*
X148927577Y-83904615D01*
X149043987Y-83842392D01*
X149100036Y-83825390D01*
X149194977Y-83796590D01*
X149352000Y-83781125D01*
X149509022Y-83796590D01*
G37*
G36*
X152049022Y-83796590D02*
G01*
X152143963Y-83825390D01*
X152200012Y-83842392D01*
X152316422Y-83904615D01*
X152339164Y-83916771D01*
X152461133Y-84016867D01*
X152561229Y-84138835D01*
X152635608Y-84277987D01*
X152650875Y-84328318D01*
X152681410Y-84428977D01*
X152693000Y-84546655D01*
X152693000Y-85125345D01*
X152681410Y-85243023D01*
X152675069Y-85263925D01*
X152635608Y-85394013D01*
X152561229Y-85533165D01*
X152461133Y-85655133D01*
X152339165Y-85755229D01*
X152200013Y-85829608D01*
X152149682Y-85844875D01*
X152049023Y-85875410D01*
X151892000Y-85890875D01*
X151734978Y-85875410D01*
X151634319Y-85844875D01*
X151583988Y-85829608D01*
X151444836Y-85755229D01*
X151322868Y-85655133D01*
X151320596Y-85652365D01*
X151222771Y-85533165D01*
X151164461Y-85424075D01*
X151148392Y-85394013D01*
X151108931Y-85263925D01*
X151102590Y-85243023D01*
X151091000Y-85125345D01*
X151091000Y-84546656D01*
X151102590Y-84428978D01*
X151148392Y-84277989D01*
X151148392Y-84277988D01*
X151222771Y-84138836D01*
X151222772Y-84138835D01*
X151322867Y-84016867D01*
X151444835Y-83916771D01*
X151467577Y-83904615D01*
X151583987Y-83842392D01*
X151640036Y-83825390D01*
X151734977Y-83796590D01*
X151892000Y-83781125D01*
X152049022Y-83796590D01*
G37*
G36*
X154589022Y-83796590D02*
G01*
X154683963Y-83825390D01*
X154740012Y-83842392D01*
X154856422Y-83904615D01*
X154879164Y-83916771D01*
X155001133Y-84016867D01*
X155101229Y-84138835D01*
X155175608Y-84277987D01*
X155190875Y-84328318D01*
X155221410Y-84428977D01*
X155233000Y-84546655D01*
X155233000Y-85125345D01*
X155221410Y-85243023D01*
X155215069Y-85263925D01*
X155175608Y-85394013D01*
X155101229Y-85533165D01*
X155001133Y-85655133D01*
X154879165Y-85755229D01*
X154740013Y-85829608D01*
X154689682Y-85844875D01*
X154589023Y-85875410D01*
X154432000Y-85890875D01*
X154274978Y-85875410D01*
X154174319Y-85844875D01*
X154123988Y-85829608D01*
X153984836Y-85755229D01*
X153862868Y-85655133D01*
X153860596Y-85652365D01*
X153762771Y-85533165D01*
X153704461Y-85424075D01*
X153688392Y-85394013D01*
X153648931Y-85263925D01*
X153642590Y-85243023D01*
X153631000Y-85125345D01*
X153631000Y-84546656D01*
X153642590Y-84428978D01*
X153688392Y-84277989D01*
X153688392Y-84277988D01*
X153762771Y-84138836D01*
X153762772Y-84138835D01*
X153862867Y-84016867D01*
X153984835Y-83916771D01*
X154007577Y-83904615D01*
X154123987Y-83842392D01*
X154180036Y-83825390D01*
X154274977Y-83796590D01*
X154432000Y-83781125D01*
X154589022Y-83796590D01*
G37*
G36*
X162209022Y-83796590D02*
G01*
X162303963Y-83825390D01*
X162360012Y-83842392D01*
X162476422Y-83904615D01*
X162499164Y-83916771D01*
X162621133Y-84016867D01*
X162721229Y-84138835D01*
X162795608Y-84277987D01*
X162810875Y-84328318D01*
X162841410Y-84428977D01*
X162853000Y-84546655D01*
X162853000Y-85125345D01*
X162841410Y-85243023D01*
X162835069Y-85263925D01*
X162795608Y-85394013D01*
X162721229Y-85533165D01*
X162621133Y-85655133D01*
X162499165Y-85755229D01*
X162360013Y-85829608D01*
X162309682Y-85844875D01*
X162209023Y-85875410D01*
X162052000Y-85890875D01*
X161894978Y-85875410D01*
X161794319Y-85844875D01*
X161743988Y-85829608D01*
X161604836Y-85755229D01*
X161482868Y-85655133D01*
X161480596Y-85652365D01*
X161382771Y-85533165D01*
X161324461Y-85424075D01*
X161308392Y-85394013D01*
X161268931Y-85263925D01*
X161262590Y-85243023D01*
X161251000Y-85125345D01*
X161251000Y-84546656D01*
X161262590Y-84428978D01*
X161308392Y-84277989D01*
X161308392Y-84277988D01*
X161382771Y-84138836D01*
X161382772Y-84138835D01*
X161482867Y-84016867D01*
X161604835Y-83916771D01*
X161627577Y-83904615D01*
X161743987Y-83842392D01*
X161800036Y-83825390D01*
X161894977Y-83796590D01*
X162052000Y-83781125D01*
X162209022Y-83796590D01*
G37*
G36*
X167289022Y-83796590D02*
G01*
X167383963Y-83825390D01*
X167440012Y-83842392D01*
X167556422Y-83904615D01*
X167579164Y-83916771D01*
X167701133Y-84016867D01*
X167801229Y-84138835D01*
X167875608Y-84277987D01*
X167890875Y-84328318D01*
X167921410Y-84428977D01*
X167933000Y-84546655D01*
X167933000Y-85125345D01*
X167921410Y-85243023D01*
X167915069Y-85263925D01*
X167875608Y-85394013D01*
X167801229Y-85533165D01*
X167701133Y-85655133D01*
X167579165Y-85755229D01*
X167440013Y-85829608D01*
X167389682Y-85844875D01*
X167289023Y-85875410D01*
X167132000Y-85890875D01*
X166974978Y-85875410D01*
X166874319Y-85844875D01*
X166823988Y-85829608D01*
X166684836Y-85755229D01*
X166562868Y-85655133D01*
X166560596Y-85652365D01*
X166462771Y-85533165D01*
X166404461Y-85424075D01*
X166388392Y-85394013D01*
X166348931Y-85263925D01*
X166342590Y-85243023D01*
X166331000Y-85125345D01*
X166331000Y-84546656D01*
X166342590Y-84428978D01*
X166388392Y-84277989D01*
X166388392Y-84277988D01*
X166462771Y-84138836D01*
X166462772Y-84138835D01*
X166562867Y-84016867D01*
X166684835Y-83916771D01*
X166707577Y-83904615D01*
X166823987Y-83842392D01*
X166880036Y-83825390D01*
X166974977Y-83796590D01*
X167132000Y-83781125D01*
X167289022Y-83796590D01*
G37*
G36*
X169829022Y-83796590D02*
G01*
X169923963Y-83825390D01*
X169980012Y-83842392D01*
X170096422Y-83904615D01*
X170119164Y-83916771D01*
X170241133Y-84016867D01*
X170341229Y-84138835D01*
X170415608Y-84277987D01*
X170430875Y-84328318D01*
X170461410Y-84428977D01*
X170473000Y-84546655D01*
X170473000Y-85125345D01*
X170461410Y-85243023D01*
X170455069Y-85263925D01*
X170415608Y-85394013D01*
X170341229Y-85533165D01*
X170241133Y-85655133D01*
X170119165Y-85755229D01*
X169980013Y-85829608D01*
X169929682Y-85844875D01*
X169829023Y-85875410D01*
X169672000Y-85890875D01*
X169514978Y-85875410D01*
X169414319Y-85844875D01*
X169363988Y-85829608D01*
X169224836Y-85755229D01*
X169102868Y-85655133D01*
X169100596Y-85652365D01*
X169002771Y-85533165D01*
X168944461Y-85424075D01*
X168928392Y-85394013D01*
X168888931Y-85263925D01*
X168882590Y-85243023D01*
X168871000Y-85125345D01*
X168871000Y-84546656D01*
X168882590Y-84428978D01*
X168928392Y-84277989D01*
X168928392Y-84277988D01*
X169002771Y-84138836D01*
X169002772Y-84138835D01*
X169102867Y-84016867D01*
X169224835Y-83916771D01*
X169247577Y-83904615D01*
X169363987Y-83842392D01*
X169420036Y-83825390D01*
X169514977Y-83796590D01*
X169672000Y-83781125D01*
X169829022Y-83796590D01*
G37*
G36*
X124109022Y-83796590D02*
G01*
X124203963Y-83825390D01*
X124260012Y-83842392D01*
X124376422Y-83904615D01*
X124399164Y-83916771D01*
X124521133Y-84016867D01*
X124621229Y-84138835D01*
X124695608Y-84277987D01*
X124710875Y-84328318D01*
X124741410Y-84428977D01*
X124753000Y-84546655D01*
X124753000Y-85125345D01*
X124741410Y-85243023D01*
X124735069Y-85263925D01*
X124695608Y-85394013D01*
X124621229Y-85533165D01*
X124521133Y-85655133D01*
X124399165Y-85755229D01*
X124260013Y-85829608D01*
X124209682Y-85844875D01*
X124109023Y-85875410D01*
X123952000Y-85890875D01*
X123794978Y-85875410D01*
X123694319Y-85844875D01*
X123643988Y-85829608D01*
X123504836Y-85755229D01*
X123382868Y-85655133D01*
X123380596Y-85652365D01*
X123282771Y-85533165D01*
X123224461Y-85424075D01*
X123208392Y-85394013D01*
X123168931Y-85263925D01*
X123162590Y-85243023D01*
X123151000Y-85125345D01*
X123151000Y-84546656D01*
X123162590Y-84428978D01*
X123208392Y-84277989D01*
X123208392Y-84277988D01*
X123282771Y-84138836D01*
X123282772Y-84138835D01*
X123382867Y-84016867D01*
X123504835Y-83916771D01*
X123527577Y-83904615D01*
X123643987Y-83842392D01*
X123700036Y-83825390D01*
X123794977Y-83796590D01*
X123952000Y-83781125D01*
X124109022Y-83796590D01*
G37*
G36*
X157129022Y-83796590D02*
G01*
X157223963Y-83825390D01*
X157280012Y-83842392D01*
X157396422Y-83904615D01*
X157419164Y-83916771D01*
X157541133Y-84016867D01*
X157641229Y-84138835D01*
X157715608Y-84277987D01*
X157730875Y-84328318D01*
X157761410Y-84428977D01*
X157773000Y-84546655D01*
X157773000Y-85125345D01*
X157761410Y-85243023D01*
X157755069Y-85263925D01*
X157715608Y-85394013D01*
X157641229Y-85533165D01*
X157541133Y-85655133D01*
X157419165Y-85755229D01*
X157280013Y-85829608D01*
X157229682Y-85844875D01*
X157129023Y-85875410D01*
X156972000Y-85890875D01*
X156814978Y-85875410D01*
X156714319Y-85844875D01*
X156663988Y-85829608D01*
X156524836Y-85755229D01*
X156402868Y-85655133D01*
X156400596Y-85652365D01*
X156302771Y-85533165D01*
X156244461Y-85424075D01*
X156228392Y-85394013D01*
X156188931Y-85263925D01*
X156182590Y-85243023D01*
X156171000Y-85125345D01*
X156171000Y-84546656D01*
X156182590Y-84428978D01*
X156228392Y-84277989D01*
X156228392Y-84277988D01*
X156302771Y-84138836D01*
X156302772Y-84138835D01*
X156402867Y-84016867D01*
X156524835Y-83916771D01*
X156547577Y-83904615D01*
X156663987Y-83842392D01*
X156720036Y-83825390D01*
X156814977Y-83796590D01*
X156972000Y-83781125D01*
X157129022Y-83796590D01*
G37*
G36*
X159818564Y-83825389D02*
G01*
X160009833Y-83904615D01*
X160009835Y-83904616D01*
X160181973Y-84019635D01*
X160328365Y-84166027D01*
X160403176Y-84277989D01*
X160443385Y-84338167D01*
X160522611Y-84529436D01*
X160563000Y-84732484D01*
X160563000Y-84939516D01*
X160522611Y-85142564D01*
X160472341Y-85263926D01*
X160443384Y-85333835D01*
X160328365Y-85505973D01*
X160181973Y-85652365D01*
X160009835Y-85767384D01*
X160009834Y-85767385D01*
X160009833Y-85767385D01*
X159818564Y-85846611D01*
X159615516Y-85887000D01*
X159408484Y-85887000D01*
X159205436Y-85846611D01*
X159014167Y-85767385D01*
X159014166Y-85767385D01*
X159014165Y-85767384D01*
X158842027Y-85652365D01*
X158695635Y-85505973D01*
X158580616Y-85333835D01*
X158551659Y-85263926D01*
X158501389Y-85142564D01*
X158461000Y-84939516D01*
X158461000Y-84732484D01*
X158501389Y-84529436D01*
X158580615Y-84338167D01*
X158620825Y-84277989D01*
X158695635Y-84166027D01*
X158842027Y-84019635D01*
X159014165Y-83904616D01*
X159014167Y-83904615D01*
X159205436Y-83825389D01*
X159408484Y-83785000D01*
X159615516Y-83785000D01*
X159818564Y-83825389D01*
G37*
G36*
X172518564Y-83825389D02*
G01*
X172709833Y-83904615D01*
X172709835Y-83904616D01*
X172881973Y-84019635D01*
X173028365Y-84166027D01*
X173103176Y-84277989D01*
X173143385Y-84338167D01*
X173222611Y-84529436D01*
X173263000Y-84732484D01*
X173263000Y-84939516D01*
X173222611Y-85142564D01*
X173172341Y-85263926D01*
X173143384Y-85333835D01*
X173028365Y-85505973D01*
X172881973Y-85652365D01*
X172709835Y-85767384D01*
X172709834Y-85767385D01*
X172709833Y-85767385D01*
X172518564Y-85846611D01*
X172315516Y-85887000D01*
X172108484Y-85887000D01*
X171905436Y-85846611D01*
X171714167Y-85767385D01*
X171714166Y-85767385D01*
X171714165Y-85767384D01*
X171542027Y-85652365D01*
X171395635Y-85505973D01*
X171280616Y-85333835D01*
X171251659Y-85263926D01*
X171201389Y-85142564D01*
X171161000Y-84939516D01*
X171161000Y-84732484D01*
X171201389Y-84529436D01*
X171280615Y-84338167D01*
X171320825Y-84277989D01*
X171395635Y-84166027D01*
X171542027Y-84019635D01*
X171714165Y-83904616D01*
X171714167Y-83904615D01*
X171905436Y-83825389D01*
X172108484Y-83785000D01*
X172315516Y-83785000D01*
X172518564Y-83825389D01*
G37*
G36*
X126798564Y-83825389D02*
G01*
X126989833Y-83904615D01*
X126989835Y-83904616D01*
X127161973Y-84019635D01*
X127308365Y-84166027D01*
X127383176Y-84277989D01*
X127423385Y-84338167D01*
X127502611Y-84529436D01*
X127543000Y-84732484D01*
X127543000Y-84939516D01*
X127502611Y-85142564D01*
X127452341Y-85263926D01*
X127423384Y-85333835D01*
X127308365Y-85505973D01*
X127161973Y-85652365D01*
X126989835Y-85767384D01*
X126989834Y-85767385D01*
X126989833Y-85767385D01*
X126798564Y-85846611D01*
X126595516Y-85887000D01*
X126388484Y-85887000D01*
X126185436Y-85846611D01*
X125994167Y-85767385D01*
X125994166Y-85767385D01*
X125994165Y-85767384D01*
X125822027Y-85652365D01*
X125675635Y-85505973D01*
X125560616Y-85333835D01*
X125531659Y-85263926D01*
X125481389Y-85142564D01*
X125441000Y-84939516D01*
X125441000Y-84732484D01*
X125481389Y-84529436D01*
X125560615Y-84338167D01*
X125600825Y-84277989D01*
X125675635Y-84166027D01*
X125822027Y-84019635D01*
X125994165Y-83904616D01*
X125994167Y-83904615D01*
X126185436Y-83825389D01*
X126388484Y-83785000D01*
X126595516Y-83785000D01*
X126798564Y-83825389D01*
G37*
G36*
X101485000Y-82689000D02*
G01*
X99683000Y-82689000D01*
X99683000Y-80887000D01*
X101485000Y-80887000D01*
X101485000Y-82689000D01*
G37*
G36*
X98157512Y-80891927D02*
G01*
X98306812Y-80921624D01*
X98470784Y-80989544D01*
X98618354Y-81088147D01*
X98743853Y-81213646D01*
X98842456Y-81361216D01*
X98910376Y-81525188D01*
X98945000Y-81699259D01*
X98945000Y-81876741D01*
X98910376Y-82050812D01*
X98842456Y-82214784D01*
X98743853Y-82362354D01*
X98618354Y-82487853D01*
X98470784Y-82586456D01*
X98306812Y-82654376D01*
X98157512Y-82684073D01*
X98132742Y-82689000D01*
X97955258Y-82689000D01*
X97930488Y-82684073D01*
X97781188Y-82654376D01*
X97617216Y-82586456D01*
X97469646Y-82487853D01*
X97344147Y-82362354D01*
X97245544Y-82214784D01*
X97177624Y-82050812D01*
X97143000Y-81876741D01*
X97143000Y-81699259D01*
X97177624Y-81525188D01*
X97245544Y-81361216D01*
X97344147Y-81213646D01*
X97469646Y-81088147D01*
X97617216Y-80989544D01*
X97781188Y-80921624D01*
X97930488Y-80891927D01*
X97955258Y-80887000D01*
X98132742Y-80887000D01*
X98157512Y-80891927D01*
G37*
G36*
X98157512Y-78351927D02*
G01*
X98306812Y-78381624D01*
X98470784Y-78449544D01*
X98618354Y-78548147D01*
X98743853Y-78673646D01*
X98842456Y-78821216D01*
X98910376Y-78985188D01*
X98945000Y-79159259D01*
X98945000Y-79336741D01*
X98910376Y-79510812D01*
X98842456Y-79674784D01*
X98743853Y-79822354D01*
X98618354Y-79947853D01*
X98470784Y-80046456D01*
X98306812Y-80114376D01*
X98157512Y-80144073D01*
X98132742Y-80149000D01*
X97955258Y-80149000D01*
X97930488Y-80144073D01*
X97781188Y-80114376D01*
X97617216Y-80046456D01*
X97469646Y-79947853D01*
X97344147Y-79822354D01*
X97245544Y-79674784D01*
X97177624Y-79510812D01*
X97143000Y-79336741D01*
X97143000Y-79159259D01*
X97177624Y-78985188D01*
X97245544Y-78821216D01*
X97344147Y-78673646D01*
X97469646Y-78548147D01*
X97617216Y-78449544D01*
X97781188Y-78381624D01*
X97930488Y-78351927D01*
X97955258Y-78347000D01*
X98132742Y-78347000D01*
X98157512Y-78351927D01*
G37*
G36*
X100697512Y-78351927D02*
G01*
X100846812Y-78381624D01*
X101010784Y-78449544D01*
X101158354Y-78548147D01*
X101283853Y-78673646D01*
X101382456Y-78821216D01*
X101450376Y-78985188D01*
X101485000Y-79159259D01*
X101485000Y-79336741D01*
X101450376Y-79510812D01*
X101382456Y-79674784D01*
X101283853Y-79822354D01*
X101158354Y-79947853D01*
X101010784Y-80046456D01*
X100846812Y-80114376D01*
X100697512Y-80144073D01*
X100672742Y-80149000D01*
X100495258Y-80149000D01*
X100470488Y-80144073D01*
X100321188Y-80114376D01*
X100157216Y-80046456D01*
X100009646Y-79947853D01*
X99884147Y-79822354D01*
X99785544Y-79674784D01*
X99717624Y-79510812D01*
X99683000Y-79336741D01*
X99683000Y-79159259D01*
X99717624Y-78985188D01*
X99785544Y-78821216D01*
X99884147Y-78673646D01*
X100009646Y-78548147D01*
X100157216Y-78449544D01*
X100321188Y-78381624D01*
X100470488Y-78351927D01*
X100495258Y-78347000D01*
X100672742Y-78347000D01*
X100697512Y-78351927D01*
G37*
G36*
X98157512Y-75811927D02*
G01*
X98306812Y-75841624D01*
X98470784Y-75909544D01*
X98618354Y-76008147D01*
X98743853Y-76133646D01*
X98842456Y-76281216D01*
X98910376Y-76445188D01*
X98945000Y-76619259D01*
X98945000Y-76796741D01*
X98910376Y-76970812D01*
X98842456Y-77134784D01*
X98743853Y-77282354D01*
X98618354Y-77407853D01*
X98470784Y-77506456D01*
X98306812Y-77574376D01*
X98157512Y-77604073D01*
X98132742Y-77609000D01*
X97955258Y-77609000D01*
X97930488Y-77604073D01*
X97781188Y-77574376D01*
X97617216Y-77506456D01*
X97469646Y-77407853D01*
X97344147Y-77282354D01*
X97245544Y-77134784D01*
X97177624Y-76970812D01*
X97143000Y-76796741D01*
X97143000Y-76619259D01*
X97177624Y-76445188D01*
X97245544Y-76281216D01*
X97344147Y-76133646D01*
X97469646Y-76008147D01*
X97617216Y-75909544D01*
X97781188Y-75841624D01*
X97930488Y-75811927D01*
X97955258Y-75807000D01*
X98132742Y-75807000D01*
X98157512Y-75811927D01*
G37*
G36*
X100697512Y-75811927D02*
G01*
X100846812Y-75841624D01*
X101010784Y-75909544D01*
X101158354Y-76008147D01*
X101283853Y-76133646D01*
X101382456Y-76281216D01*
X101450376Y-76445188D01*
X101485000Y-76619259D01*
X101485000Y-76796741D01*
X101450376Y-76970812D01*
X101382456Y-77134784D01*
X101283853Y-77282354D01*
X101158354Y-77407853D01*
X101010784Y-77506456D01*
X100846812Y-77574376D01*
X100697512Y-77604073D01*
X100672742Y-77609000D01*
X100495258Y-77609000D01*
X100470488Y-77604073D01*
X100321188Y-77574376D01*
X100157216Y-77506456D01*
X100009646Y-77407853D01*
X99884147Y-77282354D01*
X99785544Y-77134784D01*
X99717624Y-76970812D01*
X99683000Y-76796741D01*
X99683000Y-76619259D01*
X99717624Y-76445188D01*
X99785544Y-76281216D01*
X99884147Y-76133646D01*
X100009646Y-76008147D01*
X100157216Y-75909544D01*
X100321188Y-75841624D01*
X100470488Y-75811927D01*
X100495258Y-75807000D01*
X100672742Y-75807000D01*
X100697512Y-75811927D01*
G37*
G36*
X100697512Y-73271927D02*
G01*
X100846812Y-73301624D01*
X101010784Y-73369544D01*
X101158354Y-73468147D01*
X101283853Y-73593646D01*
X101382456Y-73741216D01*
X101450376Y-73905188D01*
X101485000Y-74079259D01*
X101485000Y-74256741D01*
X101450376Y-74430812D01*
X101382456Y-74594784D01*
X101283853Y-74742354D01*
X101158354Y-74867853D01*
X101010784Y-74966456D01*
X100846812Y-75034376D01*
X100697512Y-75064073D01*
X100672742Y-75069000D01*
X100495258Y-75069000D01*
X100470488Y-75064073D01*
X100321188Y-75034376D01*
X100157216Y-74966456D01*
X100009646Y-74867853D01*
X99884147Y-74742354D01*
X99785544Y-74594784D01*
X99717624Y-74430812D01*
X99683000Y-74256741D01*
X99683000Y-74079259D01*
X99717624Y-73905188D01*
X99785544Y-73741216D01*
X99884147Y-73593646D01*
X100009646Y-73468147D01*
X100157216Y-73369544D01*
X100321188Y-73301624D01*
X100470488Y-73271927D01*
X100495258Y-73267000D01*
X100672742Y-73267000D01*
X100697512Y-73271927D01*
G37*
G36*
X98157512Y-73271927D02*
G01*
X98306812Y-73301624D01*
X98470784Y-73369544D01*
X98618354Y-73468147D01*
X98743853Y-73593646D01*
X98842456Y-73741216D01*
X98910376Y-73905188D01*
X98945000Y-74079259D01*
X98945000Y-74256741D01*
X98910376Y-74430812D01*
X98842456Y-74594784D01*
X98743853Y-74742354D01*
X98618354Y-74867853D01*
X98470784Y-74966456D01*
X98306812Y-75034376D01*
X98157512Y-75064073D01*
X98132742Y-75069000D01*
X97955258Y-75069000D01*
X97930488Y-75064073D01*
X97781188Y-75034376D01*
X97617216Y-74966456D01*
X97469646Y-74867853D01*
X97344147Y-74742354D01*
X97245544Y-74594784D01*
X97177624Y-74430812D01*
X97143000Y-74256741D01*
X97143000Y-74079259D01*
X97177624Y-73905188D01*
X97245544Y-73741216D01*
X97344147Y-73593646D01*
X97469646Y-73468147D01*
X97617216Y-73369544D01*
X97781188Y-73301624D01*
X97930488Y-73271927D01*
X97955258Y-73267000D01*
X98132742Y-73267000D01*
X98157512Y-73271927D01*
G37*
G36*
X132074228Y-72079703D02*
G01*
X132229100Y-72143853D01*
X132368481Y-72236985D01*
X132487015Y-72355519D01*
X132580147Y-72494900D01*
X132644297Y-72649772D01*
X132677000Y-72814184D01*
X132677000Y-72981816D01*
X132644297Y-73146228D01*
X132580147Y-73301100D01*
X132487015Y-73440481D01*
X132368481Y-73559015D01*
X132229100Y-73652147D01*
X132074228Y-73716297D01*
X131909816Y-73749000D01*
X131742184Y-73749000D01*
X131577772Y-73716297D01*
X131422900Y-73652147D01*
X131283519Y-73559015D01*
X131164985Y-73440481D01*
X131071853Y-73301100D01*
X131007703Y-73146228D01*
X130975000Y-72981816D01*
X130975000Y-72814184D01*
X131007703Y-72649772D01*
X131071853Y-72494900D01*
X131164985Y-72355519D01*
X131283519Y-72236985D01*
X131422900Y-72143853D01*
X131577772Y-72079703D01*
X131742184Y-72047000D01*
X131909816Y-72047000D01*
X132074228Y-72079703D01*
G37*
G36*
X98157512Y-70731927D02*
G01*
X98306812Y-70761624D01*
X98470784Y-70829544D01*
X98618354Y-70928147D01*
X98743853Y-71053646D01*
X98842456Y-71201216D01*
X98910376Y-71365188D01*
X98945000Y-71539259D01*
X98945000Y-71716741D01*
X98910376Y-71890812D01*
X98842456Y-72054784D01*
X98743853Y-72202354D01*
X98618354Y-72327853D01*
X98470784Y-72426456D01*
X98306812Y-72494376D01*
X98157512Y-72524073D01*
X98132742Y-72529000D01*
X97955258Y-72529000D01*
X97930488Y-72524073D01*
X97781188Y-72494376D01*
X97617216Y-72426456D01*
X97469646Y-72327853D01*
X97344147Y-72202354D01*
X97245544Y-72054784D01*
X97177624Y-71890812D01*
X97143000Y-71716741D01*
X97143000Y-71539259D01*
X97177624Y-71365188D01*
X97245544Y-71201216D01*
X97344147Y-71053646D01*
X97469646Y-70928147D01*
X97617216Y-70829544D01*
X97781188Y-70761624D01*
X97930488Y-70731927D01*
X97955258Y-70727000D01*
X98132742Y-70727000D01*
X98157512Y-70731927D01*
G37*
G36*
X100697512Y-70731927D02*
G01*
X100846812Y-70761624D01*
X101010784Y-70829544D01*
X101158354Y-70928147D01*
X101283853Y-71053646D01*
X101382456Y-71201216D01*
X101450376Y-71365188D01*
X101485000Y-71539259D01*
X101485000Y-71716741D01*
X101450376Y-71890812D01*
X101382456Y-72054784D01*
X101283853Y-72202354D01*
X101158354Y-72327853D01*
X101010784Y-72426456D01*
X100846812Y-72494376D01*
X100697512Y-72524073D01*
X100672742Y-72529000D01*
X100495258Y-72529000D01*
X100470488Y-72524073D01*
X100321188Y-72494376D01*
X100157216Y-72426456D01*
X100009646Y-72327853D01*
X99884147Y-72202354D01*
X99785544Y-72054784D01*
X99717624Y-71890812D01*
X99683000Y-71716741D01*
X99683000Y-71539259D01*
X99717624Y-71365188D01*
X99785544Y-71201216D01*
X99884147Y-71053646D01*
X100009646Y-70928147D01*
X100157216Y-70829544D01*
X100321188Y-70761624D01*
X100470488Y-70731927D01*
X100495258Y-70727000D01*
X100672742Y-70727000D01*
X100697512Y-70731927D01*
G37*
G36*
X100697512Y-68191927D02*
G01*
X100846812Y-68221624D01*
X101010784Y-68289544D01*
X101158354Y-68388147D01*
X101283853Y-68513646D01*
X101382456Y-68661216D01*
X101450376Y-68825188D01*
X101485000Y-68999259D01*
X101485000Y-69176741D01*
X101450376Y-69350812D01*
X101382456Y-69514784D01*
X101283853Y-69662354D01*
X101158354Y-69787853D01*
X101010784Y-69886456D01*
X100846812Y-69954376D01*
X100697512Y-69984073D01*
X100672742Y-69989000D01*
X100495258Y-69989000D01*
X100470488Y-69984073D01*
X100321188Y-69954376D01*
X100157216Y-69886456D01*
X100009646Y-69787853D01*
X99884147Y-69662354D01*
X99785544Y-69514784D01*
X99717624Y-69350812D01*
X99683000Y-69176741D01*
X99683000Y-68999259D01*
X99717624Y-68825188D01*
X99785544Y-68661216D01*
X99884147Y-68513646D01*
X100009646Y-68388147D01*
X100157216Y-68289544D01*
X100321188Y-68221624D01*
X100470488Y-68191927D01*
X100495258Y-68187000D01*
X100672742Y-68187000D01*
X100697512Y-68191927D01*
G37*
G36*
X98157512Y-68191927D02*
G01*
X98306812Y-68221624D01*
X98470784Y-68289544D01*
X98618354Y-68388147D01*
X98743853Y-68513646D01*
X98842456Y-68661216D01*
X98910376Y-68825188D01*
X98945000Y-68999259D01*
X98945000Y-69176741D01*
X98910376Y-69350812D01*
X98842456Y-69514784D01*
X98743853Y-69662354D01*
X98618354Y-69787853D01*
X98470784Y-69886456D01*
X98306812Y-69954376D01*
X98157512Y-69984073D01*
X98132742Y-69989000D01*
X97955258Y-69989000D01*
X97930488Y-69984073D01*
X97781188Y-69954376D01*
X97617216Y-69886456D01*
X97469646Y-69787853D01*
X97344147Y-69662354D01*
X97245544Y-69514784D01*
X97177624Y-69350812D01*
X97143000Y-69176741D01*
X97143000Y-68999259D01*
X97177624Y-68825188D01*
X97245544Y-68661216D01*
X97344147Y-68513646D01*
X97469646Y-68388147D01*
X97617216Y-68289544D01*
X97781188Y-68221624D01*
X97930488Y-68191927D01*
X97955258Y-68187000D01*
X98132742Y-68187000D01*
X98157512Y-68191927D01*
G37*
G36*
X100697512Y-65651927D02*
G01*
X100846812Y-65681624D01*
X101010784Y-65749544D01*
X101158354Y-65848147D01*
X101283853Y-65973646D01*
X101382456Y-66121216D01*
X101450376Y-66285188D01*
X101485000Y-66459259D01*
X101485000Y-66636741D01*
X101450376Y-66810812D01*
X101382456Y-66974784D01*
X101283853Y-67122354D01*
X101158354Y-67247853D01*
X101010784Y-67346456D01*
X100846812Y-67414376D01*
X100697512Y-67444073D01*
X100672742Y-67449000D01*
X100495258Y-67449000D01*
X100470488Y-67444073D01*
X100321188Y-67414376D01*
X100157216Y-67346456D01*
X100009646Y-67247853D01*
X99884147Y-67122354D01*
X99785544Y-66974784D01*
X99717624Y-66810812D01*
X99683000Y-66636741D01*
X99683000Y-66459259D01*
X99717624Y-66285188D01*
X99785544Y-66121216D01*
X99884147Y-65973646D01*
X100009646Y-65848147D01*
X100157216Y-65749544D01*
X100321188Y-65681624D01*
X100470488Y-65651927D01*
X100495258Y-65647000D01*
X100672742Y-65647000D01*
X100697512Y-65651927D01*
G37*
G36*
X98157512Y-65651927D02*
G01*
X98306812Y-65681624D01*
X98470784Y-65749544D01*
X98618354Y-65848147D01*
X98743853Y-65973646D01*
X98842456Y-66121216D01*
X98910376Y-66285188D01*
X98945000Y-66459259D01*
X98945000Y-66636741D01*
X98910376Y-66810812D01*
X98842456Y-66974784D01*
X98743853Y-67122354D01*
X98618354Y-67247853D01*
X98470784Y-67346456D01*
X98306812Y-67414376D01*
X98157512Y-67444073D01*
X98132742Y-67449000D01*
X97955258Y-67449000D01*
X97930488Y-67444073D01*
X97781188Y-67414376D01*
X97617216Y-67346456D01*
X97469646Y-67247853D01*
X97344147Y-67122354D01*
X97245544Y-66974784D01*
X97177624Y-66810812D01*
X97143000Y-66636741D01*
X97143000Y-66459259D01*
X97177624Y-66285188D01*
X97245544Y-66121216D01*
X97344147Y-65973646D01*
X97469646Y-65848147D01*
X97617216Y-65749544D01*
X97781188Y-65681624D01*
X97930488Y-65651927D01*
X97955258Y-65647000D01*
X98132742Y-65647000D01*
X98157512Y-65651927D01*
G37*
G36*
X98157512Y-63111927D02*
G01*
X98306812Y-63141624D01*
X98470784Y-63209544D01*
X98618354Y-63308147D01*
X98743853Y-63433646D01*
X98842456Y-63581216D01*
X98910376Y-63745188D01*
X98945000Y-63919259D01*
X98945000Y-64096741D01*
X98910376Y-64270812D01*
X98842456Y-64434784D01*
X98743853Y-64582354D01*
X98618354Y-64707853D01*
X98470784Y-64806456D01*
X98306812Y-64874376D01*
X98157512Y-64904073D01*
X98132742Y-64909000D01*
X97955258Y-64909000D01*
X97930488Y-64904073D01*
X97781188Y-64874376D01*
X97617216Y-64806456D01*
X97469646Y-64707853D01*
X97344147Y-64582354D01*
X97245544Y-64434784D01*
X97177624Y-64270812D01*
X97143000Y-64096741D01*
X97143000Y-63919259D01*
X97177624Y-63745188D01*
X97245544Y-63581216D01*
X97344147Y-63433646D01*
X97469646Y-63308147D01*
X97617216Y-63209544D01*
X97781188Y-63141624D01*
X97930488Y-63111927D01*
X97955258Y-63107000D01*
X98132742Y-63107000D01*
X98157512Y-63111927D01*
G37*
G36*
X100697512Y-63111927D02*
G01*
X100846812Y-63141624D01*
X101010784Y-63209544D01*
X101158354Y-63308147D01*
X101283853Y-63433646D01*
X101382456Y-63581216D01*
X101450376Y-63745188D01*
X101485000Y-63919259D01*
X101485000Y-64096741D01*
X101450376Y-64270812D01*
X101382456Y-64434784D01*
X101283853Y-64582354D01*
X101158354Y-64707853D01*
X101010784Y-64806456D01*
X100846812Y-64874376D01*
X100697512Y-64904073D01*
X100672742Y-64909000D01*
X100495258Y-64909000D01*
X100470488Y-64904073D01*
X100321188Y-64874376D01*
X100157216Y-64806456D01*
X100009646Y-64707853D01*
X99884147Y-64582354D01*
X99785544Y-64434784D01*
X99717624Y-64270812D01*
X99683000Y-64096741D01*
X99683000Y-63919259D01*
X99717624Y-63745188D01*
X99785544Y-63581216D01*
X99884147Y-63433646D01*
X100009646Y-63308147D01*
X100157216Y-63209544D01*
X100321188Y-63141624D01*
X100470488Y-63111927D01*
X100495258Y-63107000D01*
X100672742Y-63107000D01*
X100697512Y-63111927D01*
G37*
G36*
X132074228Y-61919703D02*
G01*
X132229100Y-61983853D01*
X132368481Y-62076985D01*
X132487015Y-62195519D01*
X132580147Y-62334900D01*
X132644297Y-62489772D01*
X132677000Y-62654184D01*
X132677000Y-62821816D01*
X132644297Y-62986228D01*
X132580147Y-63141100D01*
X132487015Y-63280481D01*
X132368481Y-63399015D01*
X132229100Y-63492147D01*
X132074228Y-63556297D01*
X131909816Y-63589000D01*
X131742184Y-63589000D01*
X131577772Y-63556297D01*
X131422900Y-63492147D01*
X131283519Y-63399015D01*
X131164985Y-63280481D01*
X131071853Y-63141100D01*
X131007703Y-62986228D01*
X130975000Y-62821816D01*
X130975000Y-62654184D01*
X131007703Y-62489772D01*
X131071853Y-62334900D01*
X131164985Y-62195519D01*
X131283519Y-62076985D01*
X131422900Y-61983853D01*
X131577772Y-61919703D01*
X131742184Y-61887000D01*
X131909816Y-61887000D01*
X132074228Y-61919703D01*
G37*
G36*
X100697512Y-57777927D02*
G01*
X100846812Y-57807624D01*
X101010784Y-57875544D01*
X101158354Y-57974147D01*
X101283853Y-58099646D01*
X101382456Y-58247216D01*
X101450376Y-58411188D01*
X101485000Y-58585259D01*
X101485000Y-58762741D01*
X101450376Y-58936812D01*
X101382456Y-59100784D01*
X101283853Y-59248354D01*
X101158354Y-59373853D01*
X101010784Y-59472456D01*
X100846812Y-59540376D01*
X100697512Y-59570073D01*
X100672742Y-59575000D01*
X100495258Y-59575000D01*
X100470488Y-59570073D01*
X100321188Y-59540376D01*
X100157216Y-59472456D01*
X100009646Y-59373853D01*
X99884147Y-59248354D01*
X99785544Y-59100784D01*
X99717624Y-58936812D01*
X99683000Y-58762741D01*
X99683000Y-58585259D01*
X99717624Y-58411188D01*
X99785544Y-58247216D01*
X99884147Y-58099646D01*
X100009646Y-57974147D01*
X100157216Y-57875544D01*
X100321188Y-57807624D01*
X100470488Y-57777927D01*
X100495258Y-57773000D01*
X100672742Y-57773000D01*
X100697512Y-57777927D01*
G37*
G36*
X98157512Y-57777927D02*
G01*
X98306812Y-57807624D01*
X98470784Y-57875544D01*
X98618354Y-57974147D01*
X98743853Y-58099646D01*
X98842456Y-58247216D01*
X98910376Y-58411188D01*
X98945000Y-58585259D01*
X98945000Y-58762741D01*
X98910376Y-58936812D01*
X98842456Y-59100784D01*
X98743853Y-59248354D01*
X98618354Y-59373853D01*
X98470784Y-59472456D01*
X98306812Y-59540376D01*
X98157512Y-59570073D01*
X98132742Y-59575000D01*
X97955258Y-59575000D01*
X97930488Y-59570073D01*
X97781188Y-59540376D01*
X97617216Y-59472456D01*
X97469646Y-59373853D01*
X97344147Y-59248354D01*
X97245544Y-59100784D01*
X97177624Y-58936812D01*
X97143000Y-58762741D01*
X97143000Y-58585259D01*
X97177624Y-58411188D01*
X97245544Y-58247216D01*
X97344147Y-58099646D01*
X97469646Y-57974147D01*
X97617216Y-57875544D01*
X97781188Y-57807624D01*
X97930488Y-57777927D01*
X97955258Y-57773000D01*
X98132742Y-57773000D01*
X98157512Y-57777927D01*
G37*
G36*
X124109022Y-55856590D02*
G01*
X124209681Y-55887125D01*
X124260012Y-55902392D01*
X124399164Y-55976771D01*
X124521133Y-56076867D01*
X124621229Y-56198835D01*
X124695608Y-56337987D01*
X124710875Y-56388318D01*
X124741410Y-56488977D01*
X124753000Y-56606655D01*
X124753000Y-57185345D01*
X124741410Y-57303023D01*
X124710875Y-57403682D01*
X124695608Y-57454013D01*
X124621229Y-57593165D01*
X124521133Y-57715133D01*
X124399165Y-57815229D01*
X124260013Y-57889608D01*
X124209682Y-57904875D01*
X124109023Y-57935410D01*
X123952000Y-57950875D01*
X123794978Y-57935410D01*
X123694319Y-57904875D01*
X123643988Y-57889608D01*
X123504836Y-57815229D01*
X123382868Y-57715133D01*
X123282771Y-57593165D01*
X123227607Y-57489961D01*
X123208392Y-57454013D01*
X123193125Y-57403682D01*
X123162590Y-57303023D01*
X123151000Y-57185345D01*
X123151000Y-56606656D01*
X123162590Y-56488978D01*
X123208392Y-56337989D01*
X123208392Y-56337988D01*
X123282771Y-56198836D01*
X123282772Y-56198835D01*
X123382867Y-56076867D01*
X123504835Y-55976771D01*
X123643987Y-55902392D01*
X123694318Y-55887125D01*
X123794977Y-55856590D01*
X123952000Y-55841125D01*
X124109022Y-55856590D01*
G37*
G36*
X126649022Y-55856590D02*
G01*
X126749681Y-55887125D01*
X126800012Y-55902392D01*
X126939164Y-55976771D01*
X127061133Y-56076867D01*
X127161229Y-56198835D01*
X127235608Y-56337987D01*
X127250875Y-56388318D01*
X127281410Y-56488977D01*
X127293000Y-56606655D01*
X127293000Y-57185345D01*
X127281410Y-57303023D01*
X127250875Y-57403682D01*
X127235608Y-57454013D01*
X127161229Y-57593165D01*
X127061133Y-57715133D01*
X126939165Y-57815229D01*
X126800013Y-57889608D01*
X126749682Y-57904875D01*
X126649023Y-57935410D01*
X126492000Y-57950875D01*
X126334978Y-57935410D01*
X126234319Y-57904875D01*
X126183988Y-57889608D01*
X126044836Y-57815229D01*
X125922868Y-57715133D01*
X125822771Y-57593165D01*
X125767607Y-57489961D01*
X125748392Y-57454013D01*
X125733125Y-57403682D01*
X125702590Y-57303023D01*
X125691000Y-57185345D01*
X125691000Y-56606656D01*
X125702590Y-56488978D01*
X125748392Y-56337989D01*
X125748392Y-56337988D01*
X125822771Y-56198836D01*
X125822772Y-56198835D01*
X125922867Y-56076867D01*
X126044835Y-55976771D01*
X126183987Y-55902392D01*
X126234318Y-55887125D01*
X126334977Y-55856590D01*
X126492000Y-55841125D01*
X126649022Y-55856590D01*
G37*
G36*
X129189022Y-55856590D02*
G01*
X129289681Y-55887125D01*
X129340012Y-55902392D01*
X129479164Y-55976771D01*
X129601133Y-56076867D01*
X129701229Y-56198835D01*
X129775608Y-56337987D01*
X129790875Y-56388318D01*
X129821410Y-56488977D01*
X129833000Y-56606655D01*
X129833000Y-57185345D01*
X129821410Y-57303023D01*
X129790875Y-57403682D01*
X129775608Y-57454013D01*
X129701229Y-57593165D01*
X129601133Y-57715133D01*
X129479165Y-57815229D01*
X129340013Y-57889608D01*
X129289682Y-57904875D01*
X129189023Y-57935410D01*
X129032000Y-57950875D01*
X128874978Y-57935410D01*
X128774319Y-57904875D01*
X128723988Y-57889608D01*
X128584836Y-57815229D01*
X128462868Y-57715133D01*
X128362771Y-57593165D01*
X128307607Y-57489961D01*
X128288392Y-57454013D01*
X128273125Y-57403682D01*
X128242590Y-57303023D01*
X128231000Y-57185345D01*
X128231000Y-56606656D01*
X128242590Y-56488978D01*
X128288392Y-56337989D01*
X128288392Y-56337988D01*
X128362771Y-56198836D01*
X128362772Y-56198835D01*
X128462867Y-56076867D01*
X128584835Y-55976771D01*
X128723987Y-55902392D01*
X128774318Y-55887125D01*
X128874977Y-55856590D01*
X129032000Y-55841125D01*
X129189022Y-55856590D01*
G37*
G36*
X131729022Y-55856590D02*
G01*
X131829681Y-55887125D01*
X131880012Y-55902392D01*
X132019164Y-55976771D01*
X132141133Y-56076867D01*
X132241229Y-56198835D01*
X132315608Y-56337987D01*
X132330875Y-56388318D01*
X132361410Y-56488977D01*
X132373000Y-56606655D01*
X132373000Y-57185345D01*
X132361410Y-57303023D01*
X132330875Y-57403682D01*
X132315608Y-57454013D01*
X132241229Y-57593165D01*
X132141133Y-57715133D01*
X132019165Y-57815229D01*
X131880013Y-57889608D01*
X131829682Y-57904875D01*
X131729023Y-57935410D01*
X131572000Y-57950875D01*
X131414978Y-57935410D01*
X131314319Y-57904875D01*
X131263988Y-57889608D01*
X131124836Y-57815229D01*
X131002868Y-57715133D01*
X130902771Y-57593165D01*
X130847607Y-57489961D01*
X130828392Y-57454013D01*
X130813125Y-57403682D01*
X130782590Y-57303023D01*
X130771000Y-57185345D01*
X130771000Y-56606656D01*
X130782590Y-56488978D01*
X130828392Y-56337989D01*
X130828392Y-56337988D01*
X130902771Y-56198836D01*
X130902772Y-56198835D01*
X131002867Y-56076867D01*
X131124835Y-55976771D01*
X131263987Y-55902392D01*
X131314318Y-55887125D01*
X131414977Y-55856590D01*
X131572000Y-55841125D01*
X131729022Y-55856590D01*
G37*
G36*
X134269022Y-55856590D02*
G01*
X134369681Y-55887125D01*
X134420012Y-55902392D01*
X134559164Y-55976771D01*
X134681133Y-56076867D01*
X134781229Y-56198835D01*
X134855608Y-56337987D01*
X134870875Y-56388318D01*
X134901410Y-56488977D01*
X134913000Y-56606655D01*
X134913000Y-57185345D01*
X134901410Y-57303023D01*
X134870875Y-57403682D01*
X134855608Y-57454013D01*
X134781229Y-57593165D01*
X134681133Y-57715133D01*
X134559165Y-57815229D01*
X134420013Y-57889608D01*
X134369682Y-57904875D01*
X134269023Y-57935410D01*
X134112000Y-57950875D01*
X133954978Y-57935410D01*
X133854319Y-57904875D01*
X133803988Y-57889608D01*
X133664836Y-57815229D01*
X133542868Y-57715133D01*
X133442771Y-57593165D01*
X133387607Y-57489961D01*
X133368392Y-57454013D01*
X133353125Y-57403682D01*
X133322590Y-57303023D01*
X133311000Y-57185345D01*
X133311000Y-56606656D01*
X133322590Y-56488978D01*
X133368392Y-56337989D01*
X133368392Y-56337988D01*
X133442771Y-56198836D01*
X133442772Y-56198835D01*
X133542867Y-56076867D01*
X133664835Y-55976771D01*
X133803987Y-55902392D01*
X133854318Y-55887125D01*
X133954977Y-55856590D01*
X134112000Y-55841125D01*
X134269022Y-55856590D01*
G37*
G36*
X136809022Y-55856590D02*
G01*
X136909681Y-55887125D01*
X136960012Y-55902392D01*
X137099164Y-55976771D01*
X137221133Y-56076867D01*
X137321229Y-56198835D01*
X137395608Y-56337987D01*
X137410875Y-56388318D01*
X137441410Y-56488977D01*
X137453000Y-56606655D01*
X137453000Y-57185345D01*
X137441410Y-57303023D01*
X137410875Y-57403682D01*
X137395608Y-57454013D01*
X137321229Y-57593165D01*
X137221133Y-57715133D01*
X137099165Y-57815229D01*
X136960013Y-57889608D01*
X136909682Y-57904875D01*
X136809023Y-57935410D01*
X136652000Y-57950875D01*
X136494978Y-57935410D01*
X136394319Y-57904875D01*
X136343988Y-57889608D01*
X136204836Y-57815229D01*
X136082868Y-57715133D01*
X135982771Y-57593165D01*
X135927607Y-57489961D01*
X135908392Y-57454013D01*
X135893125Y-57403682D01*
X135862590Y-57303023D01*
X135851000Y-57185345D01*
X135851000Y-56606656D01*
X135862590Y-56488978D01*
X135908392Y-56337989D01*
X135908392Y-56337988D01*
X135982771Y-56198836D01*
X135982772Y-56198835D01*
X136082867Y-56076867D01*
X136204835Y-55976771D01*
X136343987Y-55902392D01*
X136394318Y-55887125D01*
X136494977Y-55856590D01*
X136652000Y-55841125D01*
X136809022Y-55856590D01*
G37*
G36*
X139349022Y-55856590D02*
G01*
X139449681Y-55887125D01*
X139500012Y-55902392D01*
X139639164Y-55976771D01*
X139761133Y-56076867D01*
X139861229Y-56198835D01*
X139935608Y-56337987D01*
X139950875Y-56388318D01*
X139981410Y-56488977D01*
X139993000Y-56606655D01*
X139993000Y-57185345D01*
X139981410Y-57303023D01*
X139950875Y-57403682D01*
X139935608Y-57454013D01*
X139861229Y-57593165D01*
X139761133Y-57715133D01*
X139639165Y-57815229D01*
X139500013Y-57889608D01*
X139449682Y-57904875D01*
X139349023Y-57935410D01*
X139192000Y-57950875D01*
X139034978Y-57935410D01*
X138934319Y-57904875D01*
X138883988Y-57889608D01*
X138744836Y-57815229D01*
X138622868Y-57715133D01*
X138522771Y-57593165D01*
X138467607Y-57489961D01*
X138448392Y-57454013D01*
X138433125Y-57403682D01*
X138402590Y-57303023D01*
X138391000Y-57185345D01*
X138391000Y-56606656D01*
X138402590Y-56488978D01*
X138448392Y-56337989D01*
X138448392Y-56337988D01*
X138522771Y-56198836D01*
X138522772Y-56198835D01*
X138622867Y-56076867D01*
X138744835Y-55976771D01*
X138883987Y-55902392D01*
X138934318Y-55887125D01*
X139034977Y-55856590D01*
X139192000Y-55841125D01*
X139349022Y-55856590D01*
G37*
G36*
X141889022Y-55856590D02*
G01*
X141989681Y-55887125D01*
X142040012Y-55902392D01*
X142179164Y-55976771D01*
X142301133Y-56076867D01*
X142401229Y-56198835D01*
X142475608Y-56337987D01*
X142490875Y-56388318D01*
X142521410Y-56488977D01*
X142533000Y-56606655D01*
X142533000Y-57185345D01*
X142521410Y-57303023D01*
X142490875Y-57403682D01*
X142475608Y-57454013D01*
X142401229Y-57593165D01*
X142301133Y-57715133D01*
X142179165Y-57815229D01*
X142040013Y-57889608D01*
X141989682Y-57904875D01*
X141889023Y-57935410D01*
X141732000Y-57950875D01*
X141574978Y-57935410D01*
X141474319Y-57904875D01*
X141423988Y-57889608D01*
X141284836Y-57815229D01*
X141162868Y-57715133D01*
X141062771Y-57593165D01*
X141007607Y-57489961D01*
X140988392Y-57454013D01*
X140973125Y-57403682D01*
X140942590Y-57303023D01*
X140931000Y-57185345D01*
X140931000Y-56606656D01*
X140942590Y-56488978D01*
X140988392Y-56337989D01*
X140988392Y-56337988D01*
X141062771Y-56198836D01*
X141062772Y-56198835D01*
X141162867Y-56076867D01*
X141284835Y-55976771D01*
X141423987Y-55902392D01*
X141474318Y-55887125D01*
X141574977Y-55856590D01*
X141732000Y-55841125D01*
X141889022Y-55856590D01*
G37*
G36*
X172369022Y-55856590D02*
G01*
X172469681Y-55887125D01*
X172520012Y-55902392D01*
X172659164Y-55976771D01*
X172781133Y-56076867D01*
X172881229Y-56198835D01*
X172955608Y-56337987D01*
X172970875Y-56388318D01*
X173001410Y-56488977D01*
X173013000Y-56606655D01*
X173013000Y-57185345D01*
X173001410Y-57303023D01*
X172970875Y-57403682D01*
X172955608Y-57454013D01*
X172881229Y-57593165D01*
X172781133Y-57715133D01*
X172659165Y-57815229D01*
X172520013Y-57889608D01*
X172469682Y-57904875D01*
X172369023Y-57935410D01*
X172212000Y-57950875D01*
X172054978Y-57935410D01*
X171954319Y-57904875D01*
X171903988Y-57889608D01*
X171764836Y-57815229D01*
X171642868Y-57715133D01*
X171542771Y-57593165D01*
X171487607Y-57489961D01*
X171468392Y-57454013D01*
X171453125Y-57403682D01*
X171422590Y-57303023D01*
X171411000Y-57185345D01*
X171411000Y-56606656D01*
X171422590Y-56488978D01*
X171468392Y-56337989D01*
X171468392Y-56337988D01*
X171542771Y-56198836D01*
X171542772Y-56198835D01*
X171642867Y-56076867D01*
X171764835Y-55976771D01*
X171903987Y-55902392D01*
X171954318Y-55887125D01*
X172054977Y-55856590D01*
X172212000Y-55841125D01*
X172369022Y-55856590D01*
G37*
G36*
X144429022Y-55856590D02*
G01*
X144529681Y-55887125D01*
X144580012Y-55902392D01*
X144719164Y-55976771D01*
X144841133Y-56076867D01*
X144941229Y-56198835D01*
X145015608Y-56337987D01*
X145030875Y-56388318D01*
X145061410Y-56488977D01*
X145073000Y-56606655D01*
X145073000Y-57185345D01*
X145061410Y-57303023D01*
X145030875Y-57403682D01*
X145015608Y-57454013D01*
X144941229Y-57593165D01*
X144841133Y-57715133D01*
X144719165Y-57815229D01*
X144580013Y-57889608D01*
X144529682Y-57904875D01*
X144429023Y-57935410D01*
X144272000Y-57950875D01*
X144114978Y-57935410D01*
X144014319Y-57904875D01*
X143963988Y-57889608D01*
X143824836Y-57815229D01*
X143702868Y-57715133D01*
X143602771Y-57593165D01*
X143547607Y-57489961D01*
X143528392Y-57454013D01*
X143513125Y-57403682D01*
X143482590Y-57303023D01*
X143471000Y-57185345D01*
X143471000Y-56606656D01*
X143482590Y-56488978D01*
X143528392Y-56337989D01*
X143528392Y-56337988D01*
X143602771Y-56198836D01*
X143602772Y-56198835D01*
X143702867Y-56076867D01*
X143824835Y-55976771D01*
X143963987Y-55902392D01*
X144014318Y-55887125D01*
X144114977Y-55856590D01*
X144272000Y-55841125D01*
X144429022Y-55856590D01*
G37*
G36*
X152049022Y-55856590D02*
G01*
X152149681Y-55887125D01*
X152200012Y-55902392D01*
X152339164Y-55976771D01*
X152461133Y-56076867D01*
X152561229Y-56198835D01*
X152635608Y-56337987D01*
X152650875Y-56388318D01*
X152681410Y-56488977D01*
X152693000Y-56606655D01*
X152693000Y-57185345D01*
X152681410Y-57303023D01*
X152650875Y-57403682D01*
X152635608Y-57454013D01*
X152561229Y-57593165D01*
X152461133Y-57715133D01*
X152339165Y-57815229D01*
X152200013Y-57889608D01*
X152149682Y-57904875D01*
X152049023Y-57935410D01*
X151892000Y-57950875D01*
X151734978Y-57935410D01*
X151634319Y-57904875D01*
X151583988Y-57889608D01*
X151444836Y-57815229D01*
X151322868Y-57715133D01*
X151222771Y-57593165D01*
X151167607Y-57489961D01*
X151148392Y-57454013D01*
X151133125Y-57403682D01*
X151102590Y-57303023D01*
X151091000Y-57185345D01*
X151091000Y-56606656D01*
X151102590Y-56488978D01*
X151148392Y-56337989D01*
X151148392Y-56337988D01*
X151222771Y-56198836D01*
X151222772Y-56198835D01*
X151322867Y-56076867D01*
X151444835Y-55976771D01*
X151583987Y-55902392D01*
X151634318Y-55887125D01*
X151734977Y-55856590D01*
X151892000Y-55841125D01*
X152049022Y-55856590D01*
G37*
G36*
X146969022Y-55856590D02*
G01*
X147069681Y-55887125D01*
X147120012Y-55902392D01*
X147259164Y-55976771D01*
X147381133Y-56076867D01*
X147481229Y-56198835D01*
X147555608Y-56337987D01*
X147570875Y-56388318D01*
X147601410Y-56488977D01*
X147613000Y-56606655D01*
X147613000Y-57185345D01*
X147601410Y-57303023D01*
X147570875Y-57403682D01*
X147555608Y-57454013D01*
X147481229Y-57593165D01*
X147381133Y-57715133D01*
X147259165Y-57815229D01*
X147120013Y-57889608D01*
X147069682Y-57904875D01*
X146969023Y-57935410D01*
X146812000Y-57950875D01*
X146654978Y-57935410D01*
X146554319Y-57904875D01*
X146503988Y-57889608D01*
X146364836Y-57815229D01*
X146242868Y-57715133D01*
X146142771Y-57593165D01*
X146087607Y-57489961D01*
X146068392Y-57454013D01*
X146053125Y-57403682D01*
X146022590Y-57303023D01*
X146011000Y-57185345D01*
X146011000Y-56606656D01*
X146022590Y-56488978D01*
X146068392Y-56337989D01*
X146068392Y-56337988D01*
X146142771Y-56198836D01*
X146142772Y-56198835D01*
X146242867Y-56076867D01*
X146364835Y-55976771D01*
X146503987Y-55902392D01*
X146554318Y-55887125D01*
X146654977Y-55856590D01*
X146812000Y-55841125D01*
X146969022Y-55856590D01*
G37*
G36*
X169829022Y-55856590D02*
G01*
X169929681Y-55887125D01*
X169980012Y-55902392D01*
X170119164Y-55976771D01*
X170241133Y-56076867D01*
X170341229Y-56198835D01*
X170415608Y-56337987D01*
X170430875Y-56388318D01*
X170461410Y-56488977D01*
X170473000Y-56606655D01*
X170473000Y-57185345D01*
X170461410Y-57303023D01*
X170430875Y-57403682D01*
X170415608Y-57454013D01*
X170341229Y-57593165D01*
X170241133Y-57715133D01*
X170119165Y-57815229D01*
X169980013Y-57889608D01*
X169929682Y-57904875D01*
X169829023Y-57935410D01*
X169672000Y-57950875D01*
X169514978Y-57935410D01*
X169414319Y-57904875D01*
X169363988Y-57889608D01*
X169224836Y-57815229D01*
X169102868Y-57715133D01*
X169002771Y-57593165D01*
X168947607Y-57489961D01*
X168928392Y-57454013D01*
X168913125Y-57403682D01*
X168882590Y-57303023D01*
X168871000Y-57185345D01*
X168871000Y-56606656D01*
X168882590Y-56488978D01*
X168928392Y-56337989D01*
X168928392Y-56337988D01*
X169002771Y-56198836D01*
X169002772Y-56198835D01*
X169102867Y-56076867D01*
X169224835Y-55976771D01*
X169363987Y-55902392D01*
X169414318Y-55887125D01*
X169514977Y-55856590D01*
X169672000Y-55841125D01*
X169829022Y-55856590D01*
G37*
G36*
X149509022Y-55856590D02*
G01*
X149609681Y-55887125D01*
X149660012Y-55902392D01*
X149799164Y-55976771D01*
X149921133Y-56076867D01*
X150021229Y-56198835D01*
X150095608Y-56337987D01*
X150110875Y-56388318D01*
X150141410Y-56488977D01*
X150153000Y-56606655D01*
X150153000Y-57185345D01*
X150141410Y-57303023D01*
X150110875Y-57403682D01*
X150095608Y-57454013D01*
X150021229Y-57593165D01*
X149921133Y-57715133D01*
X149799165Y-57815229D01*
X149660013Y-57889608D01*
X149609682Y-57904875D01*
X149509023Y-57935410D01*
X149352000Y-57950875D01*
X149194978Y-57935410D01*
X149094319Y-57904875D01*
X149043988Y-57889608D01*
X148904836Y-57815229D01*
X148782868Y-57715133D01*
X148682771Y-57593165D01*
X148627607Y-57489961D01*
X148608392Y-57454013D01*
X148593125Y-57403682D01*
X148562590Y-57303023D01*
X148551000Y-57185345D01*
X148551000Y-56606656D01*
X148562590Y-56488978D01*
X148608392Y-56337989D01*
X148608392Y-56337988D01*
X148682771Y-56198836D01*
X148682772Y-56198835D01*
X148782867Y-56076867D01*
X148904835Y-55976771D01*
X149043987Y-55902392D01*
X149094318Y-55887125D01*
X149194977Y-55856590D01*
X149352000Y-55841125D01*
X149509022Y-55856590D01*
G37*
G36*
X167289022Y-55856590D02*
G01*
X167389681Y-55887125D01*
X167440012Y-55902392D01*
X167579164Y-55976771D01*
X167701133Y-56076867D01*
X167801229Y-56198835D01*
X167875608Y-56337987D01*
X167890875Y-56388318D01*
X167921410Y-56488977D01*
X167933000Y-56606655D01*
X167933000Y-57185345D01*
X167921410Y-57303023D01*
X167890875Y-57403682D01*
X167875608Y-57454013D01*
X167801229Y-57593165D01*
X167701133Y-57715133D01*
X167579165Y-57815229D01*
X167440013Y-57889608D01*
X167389682Y-57904875D01*
X167289023Y-57935410D01*
X167132000Y-57950875D01*
X166974978Y-57935410D01*
X166874319Y-57904875D01*
X166823988Y-57889608D01*
X166684836Y-57815229D01*
X166562868Y-57715133D01*
X166462771Y-57593165D01*
X166407607Y-57489961D01*
X166388392Y-57454013D01*
X166373125Y-57403682D01*
X166342590Y-57303023D01*
X166331000Y-57185345D01*
X166331000Y-56606656D01*
X166342590Y-56488978D01*
X166388392Y-56337989D01*
X166388392Y-56337988D01*
X166462771Y-56198836D01*
X166462772Y-56198835D01*
X166562867Y-56076867D01*
X166684835Y-55976771D01*
X166823987Y-55902392D01*
X166874318Y-55887125D01*
X166974977Y-55856590D01*
X167132000Y-55841125D01*
X167289022Y-55856590D01*
G37*
G36*
X164749022Y-55856590D02*
G01*
X164849681Y-55887125D01*
X164900012Y-55902392D01*
X165039164Y-55976771D01*
X165161133Y-56076867D01*
X165261229Y-56198835D01*
X165335608Y-56337987D01*
X165350875Y-56388318D01*
X165381410Y-56488977D01*
X165393000Y-56606655D01*
X165393000Y-57185345D01*
X165381410Y-57303023D01*
X165350875Y-57403682D01*
X165335608Y-57454013D01*
X165261229Y-57593165D01*
X165161133Y-57715133D01*
X165039165Y-57815229D01*
X164900013Y-57889608D01*
X164849682Y-57904875D01*
X164749023Y-57935410D01*
X164592000Y-57950875D01*
X164434978Y-57935410D01*
X164334319Y-57904875D01*
X164283988Y-57889608D01*
X164144836Y-57815229D01*
X164022868Y-57715133D01*
X163922771Y-57593165D01*
X163867607Y-57489961D01*
X163848392Y-57454013D01*
X163833125Y-57403682D01*
X163802590Y-57303023D01*
X163791000Y-57185345D01*
X163791000Y-56606656D01*
X163802590Y-56488978D01*
X163848392Y-56337989D01*
X163848392Y-56337988D01*
X163922771Y-56198836D01*
X163922772Y-56198835D01*
X164022867Y-56076867D01*
X164144835Y-55976771D01*
X164283987Y-55902392D01*
X164334318Y-55887125D01*
X164434977Y-55856590D01*
X164592000Y-55841125D01*
X164749022Y-55856590D01*
G37*
G36*
X159669022Y-55856590D02*
G01*
X159769681Y-55887125D01*
X159820012Y-55902392D01*
X159959164Y-55976771D01*
X160081133Y-56076867D01*
X160181229Y-56198835D01*
X160255608Y-56337987D01*
X160270875Y-56388318D01*
X160301410Y-56488977D01*
X160313000Y-56606655D01*
X160313000Y-57185345D01*
X160301410Y-57303023D01*
X160270875Y-57403682D01*
X160255608Y-57454013D01*
X160181229Y-57593165D01*
X160081133Y-57715133D01*
X159959165Y-57815229D01*
X159820013Y-57889608D01*
X159769682Y-57904875D01*
X159669023Y-57935410D01*
X159512000Y-57950875D01*
X159354978Y-57935410D01*
X159254319Y-57904875D01*
X159203988Y-57889608D01*
X159064836Y-57815229D01*
X158942868Y-57715133D01*
X158842771Y-57593165D01*
X158787607Y-57489961D01*
X158768392Y-57454013D01*
X158753125Y-57403682D01*
X158722590Y-57303023D01*
X158711000Y-57185345D01*
X158711000Y-56606656D01*
X158722590Y-56488978D01*
X158768392Y-56337989D01*
X158768392Y-56337988D01*
X158842771Y-56198836D01*
X158842772Y-56198835D01*
X158942867Y-56076867D01*
X159064835Y-55976771D01*
X159203987Y-55902392D01*
X159254318Y-55887125D01*
X159354977Y-55856590D01*
X159512000Y-55841125D01*
X159669022Y-55856590D01*
G37*
G36*
X157129022Y-55856590D02*
G01*
X157229681Y-55887125D01*
X157280012Y-55902392D01*
X157419164Y-55976771D01*
X157541133Y-56076867D01*
X157641229Y-56198835D01*
X157715608Y-56337987D01*
X157730875Y-56388318D01*
X157761410Y-56488977D01*
X157773000Y-56606655D01*
X157773000Y-57185345D01*
X157761410Y-57303023D01*
X157730875Y-57403682D01*
X157715608Y-57454013D01*
X157641229Y-57593165D01*
X157541133Y-57715133D01*
X157419165Y-57815229D01*
X157280013Y-57889608D01*
X157229682Y-57904875D01*
X157129023Y-57935410D01*
X156972000Y-57950875D01*
X156814978Y-57935410D01*
X156714319Y-57904875D01*
X156663988Y-57889608D01*
X156524836Y-57815229D01*
X156402868Y-57715133D01*
X156302771Y-57593165D01*
X156247607Y-57489961D01*
X156228392Y-57454013D01*
X156213125Y-57403682D01*
X156182590Y-57303023D01*
X156171000Y-57185345D01*
X156171000Y-56606656D01*
X156182590Y-56488978D01*
X156228392Y-56337989D01*
X156228392Y-56337988D01*
X156302771Y-56198836D01*
X156302772Y-56198835D01*
X156402867Y-56076867D01*
X156524835Y-55976771D01*
X156663987Y-55902392D01*
X156714318Y-55887125D01*
X156814977Y-55856590D01*
X156972000Y-55841125D01*
X157129022Y-55856590D01*
G37*
G36*
X154589022Y-55856590D02*
G01*
X154689681Y-55887125D01*
X154740012Y-55902392D01*
X154879164Y-55976771D01*
X155001133Y-56076867D01*
X155101229Y-56198835D01*
X155175608Y-56337987D01*
X155190875Y-56388318D01*
X155221410Y-56488977D01*
X155233000Y-56606655D01*
X155233000Y-57185345D01*
X155221410Y-57303023D01*
X155190875Y-57403682D01*
X155175608Y-57454013D01*
X155101229Y-57593165D01*
X155001133Y-57715133D01*
X154879165Y-57815229D01*
X154740013Y-57889608D01*
X154689682Y-57904875D01*
X154589023Y-57935410D01*
X154432000Y-57950875D01*
X154274978Y-57935410D01*
X154174319Y-57904875D01*
X154123988Y-57889608D01*
X153984836Y-57815229D01*
X153862868Y-57715133D01*
X153762771Y-57593165D01*
X153707607Y-57489961D01*
X153688392Y-57454013D01*
X153673125Y-57403682D01*
X153642590Y-57303023D01*
X153631000Y-57185345D01*
X153631000Y-56606656D01*
X153642590Y-56488978D01*
X153688392Y-56337989D01*
X153688392Y-56337988D01*
X153762771Y-56198836D01*
X153762772Y-56198835D01*
X153862867Y-56076867D01*
X153984835Y-55976771D01*
X154123987Y-55902392D01*
X154174318Y-55887125D01*
X154274977Y-55856590D01*
X154432000Y-55841125D01*
X154589022Y-55856590D01*
G37*
G36*
X162209022Y-55856590D02*
G01*
X162309681Y-55887125D01*
X162360012Y-55902392D01*
X162499164Y-55976771D01*
X162621133Y-56076867D01*
X162721229Y-56198835D01*
X162795608Y-56337987D01*
X162810875Y-56388318D01*
X162841410Y-56488977D01*
X162853000Y-56606655D01*
X162853000Y-57185345D01*
X162841410Y-57303023D01*
X162810875Y-57403682D01*
X162795608Y-57454013D01*
X162721229Y-57593165D01*
X162621133Y-57715133D01*
X162499165Y-57815229D01*
X162360013Y-57889608D01*
X162309682Y-57904875D01*
X162209023Y-57935410D01*
X162052000Y-57950875D01*
X161894978Y-57935410D01*
X161794319Y-57904875D01*
X161743988Y-57889608D01*
X161604836Y-57815229D01*
X161482868Y-57715133D01*
X161382771Y-57593165D01*
X161327607Y-57489961D01*
X161308392Y-57454013D01*
X161293125Y-57403682D01*
X161262590Y-57303023D01*
X161251000Y-57185345D01*
X161251000Y-56606656D01*
X161262590Y-56488978D01*
X161308392Y-56337989D01*
X161308392Y-56337988D01*
X161382771Y-56198836D01*
X161382772Y-56198835D01*
X161482867Y-56076867D01*
X161604835Y-55976771D01*
X161743987Y-55902392D01*
X161794318Y-55887125D01*
X161894977Y-55856590D01*
X162052000Y-55841125D01*
X162209022Y-55856590D01*
G37*
G36*
X98945000Y-57035000D02*
G01*
X97143000Y-57035000D01*
X97143000Y-55233000D01*
X98945000Y-55233000D01*
X98945000Y-57035000D01*
G37*
G36*
X100697512Y-55237927D02*
G01*
X100846812Y-55267624D01*
X101010784Y-55335544D01*
X101158354Y-55434147D01*
X101283853Y-55559646D01*
X101382456Y-55707216D01*
X101450376Y-55871188D01*
X101485000Y-56045259D01*
X101485000Y-56222741D01*
X101450376Y-56396812D01*
X101382456Y-56560784D01*
X101283853Y-56708354D01*
X101158354Y-56833853D01*
X101010784Y-56932456D01*
X100846812Y-57000376D01*
X100697512Y-57030073D01*
X100672742Y-57035000D01*
X100495258Y-57035000D01*
X100470488Y-57030073D01*
X100321188Y-57000376D01*
X100157216Y-56932456D01*
X100009646Y-56833853D01*
X99884147Y-56708354D01*
X99785544Y-56560784D01*
X99717624Y-56396812D01*
X99683000Y-56222741D01*
X99683000Y-56045259D01*
X99717624Y-55871188D01*
X99785544Y-55707216D01*
X99884147Y-55559646D01*
X100009646Y-55434147D01*
X100157216Y-55335544D01*
X100321188Y-55267624D01*
X100470488Y-55237927D01*
X100495258Y-55233000D01*
X100672742Y-55233000D01*
X100697512Y-55237927D01*
G37*
G36*
X106674228Y-53283703D02*
G01*
X106829100Y-53347853D01*
X106968481Y-53440985D01*
X107087015Y-53559519D01*
X107180147Y-53698900D01*
X107244297Y-53853772D01*
X107277000Y-54018184D01*
X107277000Y-54185816D01*
X107244297Y-54350228D01*
X107180147Y-54505100D01*
X107087015Y-54644481D01*
X106968481Y-54763015D01*
X106829100Y-54856147D01*
X106674228Y-54920297D01*
X106509816Y-54953000D01*
X106342184Y-54953000D01*
X106177772Y-54920297D01*
X106022900Y-54856147D01*
X105883519Y-54763015D01*
X105764985Y-54644481D01*
X105671853Y-54505100D01*
X105607703Y-54350228D01*
X105575000Y-54185816D01*
X105575000Y-54018184D01*
X105607703Y-53853772D01*
X105671853Y-53698900D01*
X105764985Y-53559519D01*
X105883519Y-53440985D01*
X106022900Y-53347853D01*
X106177772Y-53283703D01*
X106342184Y-53251000D01*
X106509816Y-53251000D01*
X106674228Y-53283703D01*
G37*
G36*
X100697512Y-50665927D02*
G01*
X100846812Y-50695624D01*
X101010784Y-50763544D01*
X101158354Y-50862147D01*
X101283853Y-50987646D01*
X101382456Y-51135216D01*
X101450376Y-51299188D01*
X101485000Y-51473259D01*
X101485000Y-51650741D01*
X101450376Y-51824812D01*
X101382456Y-51988784D01*
X101283853Y-52136354D01*
X101158354Y-52261853D01*
X101010784Y-52360456D01*
X100846812Y-52428376D01*
X100697512Y-52458073D01*
X100672742Y-52463000D01*
X100495258Y-52463000D01*
X100470488Y-52458073D01*
X100321188Y-52428376D01*
X100157216Y-52360456D01*
X100009646Y-52261853D01*
X99884147Y-52136354D01*
X99785544Y-51988784D01*
X99717624Y-51824812D01*
X99683000Y-51650741D01*
X99683000Y-51473259D01*
X99717624Y-51299188D01*
X99785544Y-51135216D01*
X99884147Y-50987646D01*
X100009646Y-50862147D01*
X100157216Y-50763544D01*
X100321188Y-50695624D01*
X100470488Y-50665927D01*
X100495258Y-50661000D01*
X100672742Y-50661000D01*
X100697512Y-50665927D01*
G37*
G36*
X98157512Y-50665927D02*
G01*
X98306812Y-50695624D01*
X98470784Y-50763544D01*
X98618354Y-50862147D01*
X98743853Y-50987646D01*
X98842456Y-51135216D01*
X98910376Y-51299188D01*
X98945000Y-51473259D01*
X98945000Y-51650741D01*
X98910376Y-51824812D01*
X98842456Y-51988784D01*
X98743853Y-52136354D01*
X98618354Y-52261853D01*
X98470784Y-52360456D01*
X98306812Y-52428376D01*
X98157512Y-52458073D01*
X98132742Y-52463000D01*
X97955258Y-52463000D01*
X97930488Y-52458073D01*
X97781188Y-52428376D01*
X97617216Y-52360456D01*
X97469646Y-52261853D01*
X97344147Y-52136354D01*
X97245544Y-51988784D01*
X97177624Y-51824812D01*
X97143000Y-51650741D01*
X97143000Y-51473259D01*
X97177624Y-51299188D01*
X97245544Y-51135216D01*
X97344147Y-50987646D01*
X97469646Y-50862147D01*
X97617216Y-50763544D01*
X97781188Y-50695624D01*
X97930488Y-50665927D01*
X97955258Y-50661000D01*
X98132742Y-50661000D01*
X98157512Y-50665927D01*
G37*
G36*
X181604228Y-48711703D02*
G01*
X181759100Y-48775853D01*
X181898481Y-48868985D01*
X182017015Y-48987519D01*
X182110147Y-49126900D01*
X182174297Y-49281772D01*
X182207000Y-49446184D01*
X182207000Y-49613816D01*
X182174297Y-49778228D01*
X182110147Y-49933100D01*
X182017015Y-50072481D01*
X181898481Y-50191015D01*
X181759100Y-50284147D01*
X181604228Y-50348297D01*
X181439816Y-50381000D01*
X181272184Y-50381000D01*
X181107772Y-50348297D01*
X180952900Y-50284147D01*
X180813519Y-50191015D01*
X180694985Y-50072481D01*
X180601853Y-49933100D01*
X180537703Y-49778228D01*
X180505000Y-49613816D01*
X180505000Y-49446184D01*
X180537703Y-49281772D01*
X180601853Y-49126900D01*
X180694985Y-48987519D01*
X180813519Y-48868985D01*
X180952900Y-48775853D01*
X181107772Y-48711703D01*
X181272184Y-48679000D01*
X181439816Y-48679000D01*
X181604228Y-48711703D01*
G37*
G36*
X171444228Y-48711703D02*
G01*
X171599100Y-48775853D01*
X171738481Y-48868985D01*
X171857015Y-48987519D01*
X171950147Y-49126900D01*
X172014297Y-49281772D01*
X172047000Y-49446184D01*
X172047000Y-49613816D01*
X172014297Y-49778228D01*
X171950147Y-49933100D01*
X171857015Y-50072481D01*
X171738481Y-50191015D01*
X171599100Y-50284147D01*
X171444228Y-50348297D01*
X171279816Y-50381000D01*
X171112184Y-50381000D01*
X170947772Y-50348297D01*
X170792900Y-50284147D01*
X170653519Y-50191015D01*
X170534985Y-50072481D01*
X170441853Y-49933100D01*
X170377703Y-49778228D01*
X170345000Y-49613816D01*
X170345000Y-49446184D01*
X170377703Y-49281772D01*
X170441853Y-49126900D01*
X170534985Y-48987519D01*
X170653519Y-48868985D01*
X170792900Y-48775853D01*
X170947772Y-48711703D01*
X171112184Y-48679000D01*
X171279816Y-48679000D01*
X171444228Y-48711703D01*
G37*
G36*
X100697512Y-48125927D02*
G01*
X100846812Y-48155624D01*
X101010784Y-48223544D01*
X101158354Y-48322147D01*
X101283853Y-48447646D01*
X101382456Y-48595216D01*
X101450376Y-48759188D01*
X101485000Y-48933259D01*
X101485000Y-49110741D01*
X101450376Y-49284812D01*
X101382456Y-49448784D01*
X101283853Y-49596354D01*
X101158354Y-49721853D01*
X101010784Y-49820456D01*
X100846812Y-49888376D01*
X100697512Y-49918073D01*
X100672742Y-49923000D01*
X100495258Y-49923000D01*
X100470488Y-49918073D01*
X100321188Y-49888376D01*
X100157216Y-49820456D01*
X100009646Y-49721853D01*
X99884147Y-49596354D01*
X99785544Y-49448784D01*
X99717624Y-49284812D01*
X99683000Y-49110741D01*
X99683000Y-48933259D01*
X99717624Y-48759188D01*
X99785544Y-48595216D01*
X99884147Y-48447646D01*
X100009646Y-48322147D01*
X100157216Y-48223544D01*
X100321188Y-48155624D01*
X100470488Y-48125927D01*
X100495258Y-48121000D01*
X100672742Y-48121000D01*
X100697512Y-48125927D01*
G37*
G36*
X98945000Y-49923000D02*
G01*
X97143000Y-49923000D01*
X97143000Y-48121000D01*
X98945000Y-48121000D01*
X98945000Y-49923000D01*
G37*
G36*
X130020564Y-45725389D02*
G01*
X130211833Y-45804615D01*
X130211835Y-45804616D01*
X130383973Y-45919635D01*
X130530365Y-46066027D01*
X130597067Y-46165853D01*
X130645385Y-46238167D01*
X130724611Y-46429436D01*
X130765000Y-46632484D01*
X130765000Y-46839516D01*
X130724611Y-47042564D01*
X130679292Y-47151973D01*
X130645384Y-47233835D01*
X130530365Y-47405973D01*
X130383973Y-47552365D01*
X130211835Y-47667384D01*
X130211834Y-47667385D01*
X130211833Y-47667385D01*
X130020564Y-47746611D01*
X129817516Y-47787000D01*
X129610484Y-47787000D01*
X129407436Y-47746611D01*
X129216167Y-47667385D01*
X129216166Y-47667385D01*
X129216165Y-47667384D01*
X129044027Y-47552365D01*
X128897635Y-47405973D01*
X128782616Y-47233835D01*
X128748708Y-47151973D01*
X128703389Y-47042564D01*
X128663000Y-46839516D01*
X128663000Y-46632484D01*
X128703389Y-46429436D01*
X128782615Y-46238167D01*
X128830934Y-46165853D01*
X128897635Y-46066027D01*
X129044027Y-45919635D01*
X129216165Y-45804616D01*
X129216167Y-45804615D01*
X129407436Y-45725389D01*
X129610484Y-45685000D01*
X129817516Y-45685000D01*
X130020564Y-45725389D01*
G37*
G36*
X125765000Y-47787000D02*
G01*
X123663000Y-47787000D01*
X123663000Y-45685000D01*
X125765000Y-45685000D01*
X125765000Y-47787000D01*
G37*
G36*
X191972564Y-45471389D02*
G01*
X192163833Y-45550615D01*
X192163835Y-45550616D01*
X192170008Y-45554741D01*
X192335973Y-45665635D01*
X192482365Y-45812027D01*
X192597385Y-45984167D01*
X192676611Y-46175436D01*
X192717000Y-46378484D01*
X192717000Y-46585516D01*
X192676611Y-46788564D01*
X192655506Y-46839516D01*
X192597384Y-46979835D01*
X192482365Y-47151973D01*
X192335973Y-47298365D01*
X192163835Y-47413384D01*
X192163834Y-47413385D01*
X192163833Y-47413385D01*
X191972564Y-47492611D01*
X191769516Y-47533000D01*
X191562484Y-47533000D01*
X191359436Y-47492611D01*
X191168167Y-47413385D01*
X191168166Y-47413385D01*
X191168165Y-47413384D01*
X190996027Y-47298365D01*
X190849635Y-47151973D01*
X190734616Y-46979835D01*
X190676494Y-46839516D01*
X190655389Y-46788564D01*
X190615000Y-46585516D01*
X190615000Y-46378484D01*
X190655389Y-46175436D01*
X190734615Y-45984167D01*
X190849635Y-45812027D01*
X190996027Y-45665635D01*
X191161992Y-45554741D01*
X191168165Y-45550616D01*
X191168167Y-45550615D01*
X191359436Y-45471389D01*
X191562484Y-45431000D01*
X191769516Y-45431000D01*
X191972564Y-45471389D01*
G37*
G36*
X185472564Y-45471389D02*
G01*
X185663833Y-45550615D01*
X185663835Y-45550616D01*
X185670008Y-45554741D01*
X185835973Y-45665635D01*
X185982365Y-45812027D01*
X186097385Y-45984167D01*
X186176611Y-46175436D01*
X186217000Y-46378484D01*
X186217000Y-46585516D01*
X186176611Y-46788564D01*
X186155506Y-46839516D01*
X186097384Y-46979835D01*
X185982365Y-47151973D01*
X185835973Y-47298365D01*
X185663835Y-47413384D01*
X185663834Y-47413385D01*
X185663833Y-47413385D01*
X185472564Y-47492611D01*
X185269516Y-47533000D01*
X185062484Y-47533000D01*
X184859436Y-47492611D01*
X184668167Y-47413385D01*
X184668166Y-47413385D01*
X184668165Y-47413384D01*
X184496027Y-47298365D01*
X184349635Y-47151973D01*
X184234616Y-46979835D01*
X184176494Y-46839516D01*
X184155389Y-46788564D01*
X184115000Y-46585516D01*
X184115000Y-46378484D01*
X184155389Y-46175436D01*
X184234615Y-45984167D01*
X184349635Y-45812027D01*
X184496027Y-45665635D01*
X184661992Y-45554741D01*
X184668165Y-45550616D01*
X184668167Y-45550615D01*
X184859436Y-45471389D01*
X185062484Y-45431000D01*
X185269516Y-45431000D01*
X185472564Y-45471389D01*
G37*
G36*
X114135000Y-47333000D02*
G01*
X112433000Y-47333000D01*
X112433000Y-45631000D01*
X114135000Y-45631000D01*
X114135000Y-47333000D01*
G37*
G36*
X166737512Y-44569927D02*
G01*
X166886812Y-44599624D01*
X167050784Y-44667544D01*
X167198354Y-44766147D01*
X167323853Y-44891646D01*
X167422456Y-45039216D01*
X167490376Y-45203188D01*
X167525000Y-45377259D01*
X167525000Y-45554741D01*
X167490376Y-45728812D01*
X167422456Y-45892784D01*
X167323853Y-46040354D01*
X167198354Y-46165853D01*
X167050784Y-46264456D01*
X166886812Y-46332376D01*
X166737512Y-46362073D01*
X166712742Y-46367000D01*
X166535258Y-46367000D01*
X166510488Y-46362073D01*
X166361188Y-46332376D01*
X166197216Y-46264456D01*
X166049646Y-46165853D01*
X165924147Y-46040354D01*
X165825544Y-45892784D01*
X165757624Y-45728812D01*
X165723000Y-45554741D01*
X165723000Y-45377259D01*
X165757624Y-45203188D01*
X165825544Y-45039216D01*
X165924147Y-44891646D01*
X166049646Y-44766147D01*
X166197216Y-44667544D01*
X166361188Y-44599624D01*
X166510488Y-44569927D01*
X166535258Y-44565000D01*
X166712742Y-44565000D01*
X166737512Y-44569927D01*
G37*
G36*
X164197512Y-44569927D02*
G01*
X164346812Y-44599624D01*
X164510784Y-44667544D01*
X164658354Y-44766147D01*
X164783853Y-44891646D01*
X164882456Y-45039216D01*
X164950376Y-45203188D01*
X164985000Y-45377259D01*
X164985000Y-45554741D01*
X164950376Y-45728812D01*
X164882456Y-45892784D01*
X164783853Y-46040354D01*
X164658354Y-46165853D01*
X164510784Y-46264456D01*
X164346812Y-46332376D01*
X164197512Y-46362073D01*
X164172742Y-46367000D01*
X163995258Y-46367000D01*
X163970488Y-46362073D01*
X163821188Y-46332376D01*
X163657216Y-46264456D01*
X163509646Y-46165853D01*
X163384147Y-46040354D01*
X163285544Y-45892784D01*
X163217624Y-45728812D01*
X163183000Y-45554741D01*
X163183000Y-45377259D01*
X163217624Y-45203188D01*
X163285544Y-45039216D01*
X163384147Y-44891646D01*
X163509646Y-44766147D01*
X163657216Y-44667544D01*
X163821188Y-44599624D01*
X163970488Y-44569927D01*
X163995258Y-44565000D01*
X164172742Y-44565000D01*
X164197512Y-44569927D01*
G37*
G36*
X159117512Y-44569927D02*
G01*
X159266812Y-44599624D01*
X159430784Y-44667544D01*
X159578354Y-44766147D01*
X159703853Y-44891646D01*
X159802456Y-45039216D01*
X159870376Y-45203188D01*
X159905000Y-45377259D01*
X159905000Y-45554741D01*
X159870376Y-45728812D01*
X159802456Y-45892784D01*
X159703853Y-46040354D01*
X159578354Y-46165853D01*
X159430784Y-46264456D01*
X159266812Y-46332376D01*
X159117512Y-46362073D01*
X159092742Y-46367000D01*
X158915258Y-46367000D01*
X158890488Y-46362073D01*
X158741188Y-46332376D01*
X158577216Y-46264456D01*
X158429646Y-46165853D01*
X158304147Y-46040354D01*
X158205544Y-45892784D01*
X158137624Y-45728812D01*
X158103000Y-45554741D01*
X158103000Y-45377259D01*
X158137624Y-45203188D01*
X158205544Y-45039216D01*
X158304147Y-44891646D01*
X158429646Y-44766147D01*
X158577216Y-44667544D01*
X158741188Y-44599624D01*
X158890488Y-44569927D01*
X158915258Y-44565000D01*
X159092742Y-44565000D01*
X159117512Y-44569927D01*
G37*
G36*
X156577512Y-44569927D02*
G01*
X156726812Y-44599624D01*
X156890784Y-44667544D01*
X157038354Y-44766147D01*
X157163853Y-44891646D01*
X157262456Y-45039216D01*
X157330376Y-45203188D01*
X157365000Y-45377259D01*
X157365000Y-45554741D01*
X157330376Y-45728812D01*
X157262456Y-45892784D01*
X157163853Y-46040354D01*
X157038354Y-46165853D01*
X156890784Y-46264456D01*
X156726812Y-46332376D01*
X156577512Y-46362073D01*
X156552742Y-46367000D01*
X156375258Y-46367000D01*
X156350488Y-46362073D01*
X156201188Y-46332376D01*
X156037216Y-46264456D01*
X155889646Y-46165853D01*
X155764147Y-46040354D01*
X155665544Y-45892784D01*
X155597624Y-45728812D01*
X155563000Y-45554741D01*
X155563000Y-45377259D01*
X155597624Y-45203188D01*
X155665544Y-45039216D01*
X155764147Y-44891646D01*
X155889646Y-44766147D01*
X156037216Y-44667544D01*
X156201188Y-44599624D01*
X156350488Y-44569927D01*
X156375258Y-44565000D01*
X156552742Y-44565000D01*
X156577512Y-44569927D01*
G37*
G36*
X151497512Y-44569927D02*
G01*
X151646812Y-44599624D01*
X151810784Y-44667544D01*
X151958354Y-44766147D01*
X152083853Y-44891646D01*
X152182456Y-45039216D01*
X152250376Y-45203188D01*
X152285000Y-45377259D01*
X152285000Y-45554741D01*
X152250376Y-45728812D01*
X152182456Y-45892784D01*
X152083853Y-46040354D01*
X151958354Y-46165853D01*
X151810784Y-46264456D01*
X151646812Y-46332376D01*
X151497512Y-46362073D01*
X151472742Y-46367000D01*
X151295258Y-46367000D01*
X151270488Y-46362073D01*
X151121188Y-46332376D01*
X150957216Y-46264456D01*
X150809646Y-46165853D01*
X150684147Y-46040354D01*
X150585544Y-45892784D01*
X150517624Y-45728812D01*
X150483000Y-45554741D01*
X150483000Y-45377259D01*
X150517624Y-45203188D01*
X150585544Y-45039216D01*
X150684147Y-44891646D01*
X150809646Y-44766147D01*
X150957216Y-44667544D01*
X151121188Y-44599624D01*
X151270488Y-44569927D01*
X151295258Y-44565000D01*
X151472742Y-44565000D01*
X151497512Y-44569927D01*
G37*
G36*
X148957512Y-44569927D02*
G01*
X149106812Y-44599624D01*
X149270784Y-44667544D01*
X149418354Y-44766147D01*
X149543853Y-44891646D01*
X149642456Y-45039216D01*
X149710376Y-45203188D01*
X149745000Y-45377259D01*
X149745000Y-45554741D01*
X149710376Y-45728812D01*
X149642456Y-45892784D01*
X149543853Y-46040354D01*
X149418354Y-46165853D01*
X149270784Y-46264456D01*
X149106812Y-46332376D01*
X148957512Y-46362073D01*
X148932742Y-46367000D01*
X148755258Y-46367000D01*
X148730488Y-46362073D01*
X148581188Y-46332376D01*
X148417216Y-46264456D01*
X148269646Y-46165853D01*
X148144147Y-46040354D01*
X148045544Y-45892784D01*
X147977624Y-45728812D01*
X147943000Y-45554741D01*
X147943000Y-45377259D01*
X147977624Y-45203188D01*
X148045544Y-45039216D01*
X148144147Y-44891646D01*
X148269646Y-44766147D01*
X148417216Y-44667544D01*
X148581188Y-44599624D01*
X148730488Y-44569927D01*
X148755258Y-44565000D01*
X148932742Y-44565000D01*
X148957512Y-44569927D01*
G37*
G36*
X161657512Y-44569927D02*
G01*
X161806812Y-44599624D01*
X161970784Y-44667544D01*
X162118354Y-44766147D01*
X162243853Y-44891646D01*
X162342456Y-45039216D01*
X162410376Y-45203188D01*
X162445000Y-45377259D01*
X162445000Y-45554741D01*
X162410376Y-45728812D01*
X162342456Y-45892784D01*
X162243853Y-46040354D01*
X162118354Y-46165853D01*
X161970784Y-46264456D01*
X161806812Y-46332376D01*
X161657512Y-46362073D01*
X161632742Y-46367000D01*
X161455258Y-46367000D01*
X161430488Y-46362073D01*
X161281188Y-46332376D01*
X161117216Y-46264456D01*
X160969646Y-46165853D01*
X160844147Y-46040354D01*
X160745544Y-45892784D01*
X160677624Y-45728812D01*
X160643000Y-45554741D01*
X160643000Y-45377259D01*
X160677624Y-45203188D01*
X160745544Y-45039216D01*
X160844147Y-44891646D01*
X160969646Y-44766147D01*
X161117216Y-44667544D01*
X161281188Y-44599624D01*
X161430488Y-44569927D01*
X161455258Y-44565000D01*
X161632742Y-44565000D01*
X161657512Y-44569927D01*
G37*
G36*
X154037512Y-44569927D02*
G01*
X154186812Y-44599624D01*
X154350784Y-44667544D01*
X154498354Y-44766147D01*
X154623853Y-44891646D01*
X154722456Y-45039216D01*
X154790376Y-45203188D01*
X154825000Y-45377259D01*
X154825000Y-45554741D01*
X154790376Y-45728812D01*
X154722456Y-45892784D01*
X154623853Y-46040354D01*
X154498354Y-46165853D01*
X154350784Y-46264456D01*
X154186812Y-46332376D01*
X154037512Y-46362073D01*
X154012742Y-46367000D01*
X153835258Y-46367000D01*
X153810488Y-46362073D01*
X153661188Y-46332376D01*
X153497216Y-46264456D01*
X153349646Y-46165853D01*
X153224147Y-46040354D01*
X153125544Y-45892784D01*
X153057624Y-45728812D01*
X153023000Y-45554741D01*
X153023000Y-45377259D01*
X153057624Y-45203188D01*
X153125544Y-45039216D01*
X153224147Y-44891646D01*
X153349646Y-44766147D01*
X153497216Y-44667544D01*
X153661188Y-44599624D01*
X153810488Y-44569927D01*
X153835258Y-44565000D01*
X154012742Y-44565000D01*
X154037512Y-44569927D01*
G37*
G36*
X113532228Y-43663703D02*
G01*
X113687100Y-43727853D01*
X113826481Y-43820985D01*
X113945015Y-43939519D01*
X114038147Y-44078900D01*
X114102297Y-44233772D01*
X114135000Y-44398184D01*
X114135000Y-44565816D01*
X114102297Y-44730228D01*
X114038147Y-44885100D01*
X113945015Y-45024481D01*
X113826481Y-45143015D01*
X113687100Y-45236147D01*
X113532228Y-45300297D01*
X113367816Y-45333000D01*
X113200184Y-45333000D01*
X113035772Y-45300297D01*
X112880900Y-45236147D01*
X112741519Y-45143015D01*
X112622985Y-45024481D01*
X112529853Y-44885100D01*
X112465703Y-44730228D01*
X112433000Y-44565816D01*
X112433000Y-44398184D01*
X112465703Y-44233772D01*
X112529853Y-44078900D01*
X112622985Y-43939519D01*
X112741519Y-43820985D01*
X112880900Y-43727853D01*
X113035772Y-43663703D01*
X113200184Y-43631000D01*
X113367816Y-43631000D01*
X113532228Y-43663703D01*
G37*
G36*
X106674228Y-43123703D02*
G01*
X106829100Y-43187853D01*
X106968481Y-43280985D01*
X107087015Y-43399519D01*
X107180147Y-43538900D01*
X107244297Y-43693772D01*
X107277000Y-43858184D01*
X107277000Y-44025816D01*
X107244297Y-44190228D01*
X107180147Y-44345100D01*
X107087015Y-44484481D01*
X106968481Y-44603015D01*
X106829100Y-44696147D01*
X106674228Y-44760297D01*
X106509816Y-44793000D01*
X106342184Y-44793000D01*
X106177772Y-44760297D01*
X106022900Y-44696147D01*
X105883519Y-44603015D01*
X105764985Y-44484481D01*
X105671853Y-44345100D01*
X105607703Y-44190228D01*
X105575000Y-44025816D01*
X105575000Y-43858184D01*
X105607703Y-43693772D01*
X105671853Y-43538900D01*
X105764985Y-43399519D01*
X105883519Y-43280985D01*
X106022900Y-43187853D01*
X106177772Y-43123703D01*
X106342184Y-43091000D01*
X106509816Y-43091000D01*
X106674228Y-43123703D01*
G37*
G36*
X159117512Y-42029927D02*
G01*
X159266812Y-42059624D01*
X159430784Y-42127544D01*
X159578354Y-42226147D01*
X159703853Y-42351646D01*
X159802456Y-42499216D01*
X159870376Y-42663188D01*
X159905000Y-42837259D01*
X159905000Y-43014741D01*
X159870376Y-43188812D01*
X159802456Y-43352784D01*
X159703853Y-43500354D01*
X159578354Y-43625853D01*
X159430784Y-43724456D01*
X159266812Y-43792376D01*
X159122981Y-43820985D01*
X159092742Y-43827000D01*
X158915258Y-43827000D01*
X158885019Y-43820985D01*
X158741188Y-43792376D01*
X158577216Y-43724456D01*
X158429646Y-43625853D01*
X158304147Y-43500354D01*
X158205544Y-43352784D01*
X158137624Y-43188812D01*
X158103000Y-43014741D01*
X158103000Y-42837259D01*
X158137624Y-42663188D01*
X158205544Y-42499216D01*
X158304147Y-42351646D01*
X158429646Y-42226147D01*
X158577216Y-42127544D01*
X158741188Y-42059624D01*
X158890488Y-42029927D01*
X158915258Y-42025000D01*
X159092742Y-42025000D01*
X159117512Y-42029927D01*
G37*
G36*
X154037512Y-42029927D02*
G01*
X154186812Y-42059624D01*
X154350784Y-42127544D01*
X154498354Y-42226147D01*
X154623853Y-42351646D01*
X154722456Y-42499216D01*
X154790376Y-42663188D01*
X154825000Y-42837259D01*
X154825000Y-43014741D01*
X154790376Y-43188812D01*
X154722456Y-43352784D01*
X154623853Y-43500354D01*
X154498354Y-43625853D01*
X154350784Y-43724456D01*
X154186812Y-43792376D01*
X154042981Y-43820985D01*
X154012742Y-43827000D01*
X153835258Y-43827000D01*
X153805019Y-43820985D01*
X153661188Y-43792376D01*
X153497216Y-43724456D01*
X153349646Y-43625853D01*
X153224147Y-43500354D01*
X153125544Y-43352784D01*
X153057624Y-43188812D01*
X153023000Y-43014741D01*
X153023000Y-42837259D01*
X153057624Y-42663188D01*
X153125544Y-42499216D01*
X153224147Y-42351646D01*
X153349646Y-42226147D01*
X153497216Y-42127544D01*
X153661188Y-42059624D01*
X153810488Y-42029927D01*
X153835258Y-42025000D01*
X154012742Y-42025000D01*
X154037512Y-42029927D01*
G37*
G36*
X167525000Y-43827000D02*
G01*
X165723000Y-43827000D01*
X165723000Y-42025000D01*
X167525000Y-42025000D01*
X167525000Y-43827000D01*
G37*
G36*
X151497512Y-42029927D02*
G01*
X151646812Y-42059624D01*
X151810784Y-42127544D01*
X151958354Y-42226147D01*
X152083853Y-42351646D01*
X152182456Y-42499216D01*
X152250376Y-42663188D01*
X152285000Y-42837259D01*
X152285000Y-43014741D01*
X152250376Y-43188812D01*
X152182456Y-43352784D01*
X152083853Y-43500354D01*
X151958354Y-43625853D01*
X151810784Y-43724456D01*
X151646812Y-43792376D01*
X151502981Y-43820985D01*
X151472742Y-43827000D01*
X151295258Y-43827000D01*
X151265019Y-43820985D01*
X151121188Y-43792376D01*
X150957216Y-43724456D01*
X150809646Y-43625853D01*
X150684147Y-43500354D01*
X150585544Y-43352784D01*
X150517624Y-43188812D01*
X150483000Y-43014741D01*
X150483000Y-42837259D01*
X150517624Y-42663188D01*
X150585544Y-42499216D01*
X150684147Y-42351646D01*
X150809646Y-42226147D01*
X150957216Y-42127544D01*
X151121188Y-42059624D01*
X151270488Y-42029927D01*
X151295258Y-42025000D01*
X151472742Y-42025000D01*
X151497512Y-42029927D01*
G37*
G36*
X164197512Y-42029927D02*
G01*
X164346812Y-42059624D01*
X164510784Y-42127544D01*
X164658354Y-42226147D01*
X164783853Y-42351646D01*
X164882456Y-42499216D01*
X164950376Y-42663188D01*
X164985000Y-42837259D01*
X164985000Y-43014741D01*
X164950376Y-43188812D01*
X164882456Y-43352784D01*
X164783853Y-43500354D01*
X164658354Y-43625853D01*
X164510784Y-43724456D01*
X164346812Y-43792376D01*
X164202981Y-43820985D01*
X164172742Y-43827000D01*
X163995258Y-43827000D01*
X163965019Y-43820985D01*
X163821188Y-43792376D01*
X163657216Y-43724456D01*
X163509646Y-43625853D01*
X163384147Y-43500354D01*
X163285544Y-43352784D01*
X163217624Y-43188812D01*
X163183000Y-43014741D01*
X163183000Y-42837259D01*
X163217624Y-42663188D01*
X163285544Y-42499216D01*
X163384147Y-42351646D01*
X163509646Y-42226147D01*
X163657216Y-42127544D01*
X163821188Y-42059624D01*
X163970488Y-42029927D01*
X163995258Y-42025000D01*
X164172742Y-42025000D01*
X164197512Y-42029927D01*
G37*
G36*
X161657512Y-42029927D02*
G01*
X161806812Y-42059624D01*
X161970784Y-42127544D01*
X162118354Y-42226147D01*
X162243853Y-42351646D01*
X162342456Y-42499216D01*
X162410376Y-42663188D01*
X162445000Y-42837259D01*
X162445000Y-43014741D01*
X162410376Y-43188812D01*
X162342456Y-43352784D01*
X162243853Y-43500354D01*
X162118354Y-43625853D01*
X161970784Y-43724456D01*
X161806812Y-43792376D01*
X161662981Y-43820985D01*
X161632742Y-43827000D01*
X161455258Y-43827000D01*
X161425019Y-43820985D01*
X161281188Y-43792376D01*
X161117216Y-43724456D01*
X160969646Y-43625853D01*
X160844147Y-43500354D01*
X160745544Y-43352784D01*
X160677624Y-43188812D01*
X160643000Y-43014741D01*
X160643000Y-42837259D01*
X160677624Y-42663188D01*
X160745544Y-42499216D01*
X160844147Y-42351646D01*
X160969646Y-42226147D01*
X161117216Y-42127544D01*
X161281188Y-42059624D01*
X161430488Y-42029927D01*
X161455258Y-42025000D01*
X161632742Y-42025000D01*
X161657512Y-42029927D01*
G37*
G36*
X148957512Y-42029927D02*
G01*
X149106812Y-42059624D01*
X149270784Y-42127544D01*
X149418354Y-42226147D01*
X149543853Y-42351646D01*
X149642456Y-42499216D01*
X149710376Y-42663188D01*
X149745000Y-42837259D01*
X149745000Y-43014741D01*
X149710376Y-43188812D01*
X149642456Y-43352784D01*
X149543853Y-43500354D01*
X149418354Y-43625853D01*
X149270784Y-43724456D01*
X149106812Y-43792376D01*
X148962981Y-43820985D01*
X148932742Y-43827000D01*
X148755258Y-43827000D01*
X148725019Y-43820985D01*
X148581188Y-43792376D01*
X148417216Y-43724456D01*
X148269646Y-43625853D01*
X148144147Y-43500354D01*
X148045544Y-43352784D01*
X147977624Y-43188812D01*
X147943000Y-43014741D01*
X147943000Y-42837259D01*
X147977624Y-42663188D01*
X148045544Y-42499216D01*
X148144147Y-42351646D01*
X148269646Y-42226147D01*
X148417216Y-42127544D01*
X148581188Y-42059624D01*
X148730488Y-42029927D01*
X148755258Y-42025000D01*
X148932742Y-42025000D01*
X148957512Y-42029927D01*
G37*
G36*
X156577512Y-42029927D02*
G01*
X156726812Y-42059624D01*
X156890784Y-42127544D01*
X157038354Y-42226147D01*
X157163853Y-42351646D01*
X157262456Y-42499216D01*
X157330376Y-42663188D01*
X157365000Y-42837259D01*
X157365000Y-43014741D01*
X157330376Y-43188812D01*
X157262456Y-43352784D01*
X157163853Y-43500354D01*
X157038354Y-43625853D01*
X156890784Y-43724456D01*
X156726812Y-43792376D01*
X156582981Y-43820985D01*
X156552742Y-43827000D01*
X156375258Y-43827000D01*
X156345019Y-43820985D01*
X156201188Y-43792376D01*
X156037216Y-43724456D01*
X155889646Y-43625853D01*
X155764147Y-43500354D01*
X155665544Y-43352784D01*
X155597624Y-43188812D01*
X155563000Y-43014741D01*
X155563000Y-42837259D01*
X155597624Y-42663188D01*
X155665544Y-42499216D01*
X155764147Y-42351646D01*
X155889646Y-42226147D01*
X156037216Y-42127544D01*
X156201188Y-42059624D01*
X156350488Y-42029927D01*
X156375258Y-42025000D01*
X156552742Y-42025000D01*
X156577512Y-42029927D01*
G37*
G36*
X173703890Y-42046017D02*
G01*
X173799244Y-42085514D01*
X173822364Y-42095091D01*
X173928988Y-42166335D01*
X174019665Y-42257012D01*
X174082898Y-42351646D01*
X174090910Y-42363638D01*
X174139983Y-42482110D01*
X174165000Y-42607881D01*
X174165000Y-42736119D01*
X174144882Y-42837259D01*
X174139983Y-42861890D01*
X174090909Y-42980364D01*
X174019665Y-43086988D01*
X173928988Y-43177665D01*
X173822364Y-43248909D01*
X173822363Y-43248910D01*
X173822362Y-43248910D01*
X173703890Y-43297983D01*
X173578119Y-43323000D01*
X173449881Y-43323000D01*
X173324110Y-43297983D01*
X173205638Y-43248910D01*
X173205637Y-43248910D01*
X173205636Y-43248909D01*
X173099012Y-43177665D01*
X173008335Y-43086988D01*
X172937091Y-42980364D01*
X172888017Y-42861890D01*
X172883118Y-42837259D01*
X172863000Y-42736119D01*
X172863000Y-42607881D01*
X172888017Y-42482110D01*
X172937090Y-42363638D01*
X172945103Y-42351646D01*
X173008335Y-42257012D01*
X173099012Y-42166335D01*
X173205636Y-42095091D01*
X173228757Y-42085514D01*
X173324110Y-42046017D01*
X173449881Y-42021000D01*
X173578119Y-42021000D01*
X173703890Y-42046017D01*
G37*
G36*
X176165000Y-43323000D02*
G01*
X174863000Y-43323000D01*
X174863000Y-42021000D01*
X176165000Y-42021000D01*
X176165000Y-43323000D01*
G37*
G36*
X185472564Y-40971389D02*
G01*
X185663833Y-41050615D01*
X185663835Y-41050616D01*
X185835973Y-41165635D01*
X185982365Y-41312027D01*
X186097385Y-41484167D01*
X186176611Y-41675436D01*
X186217000Y-41878484D01*
X186217000Y-42085516D01*
X186176611Y-42288564D01*
X186150481Y-42351647D01*
X186097384Y-42479835D01*
X185982365Y-42651973D01*
X185835973Y-42798365D01*
X185663835Y-42913384D01*
X185663834Y-42913385D01*
X185663833Y-42913385D01*
X185472564Y-42992611D01*
X185269516Y-43033000D01*
X185062484Y-43033000D01*
X184859436Y-42992611D01*
X184668167Y-42913385D01*
X184668166Y-42913385D01*
X184668165Y-42913384D01*
X184496027Y-42798365D01*
X184349635Y-42651973D01*
X184234616Y-42479835D01*
X184181519Y-42351647D01*
X184155389Y-42288564D01*
X184115000Y-42085516D01*
X184115000Y-41878484D01*
X184155389Y-41675436D01*
X184234615Y-41484167D01*
X184349635Y-41312027D01*
X184496027Y-41165635D01*
X184668165Y-41050616D01*
X184668167Y-41050615D01*
X184859436Y-40971389D01*
X185062484Y-40931000D01*
X185269516Y-40931000D01*
X185472564Y-40971389D01*
G37*
G36*
X191972564Y-40971389D02*
G01*
X192163833Y-41050615D01*
X192163835Y-41050616D01*
X192335973Y-41165635D01*
X192482365Y-41312027D01*
X192597385Y-41484167D01*
X192676611Y-41675436D01*
X192717000Y-41878484D01*
X192717000Y-42085516D01*
X192676611Y-42288564D01*
X192650481Y-42351647D01*
X192597384Y-42479835D01*
X192482365Y-42651973D01*
X192335973Y-42798365D01*
X192163835Y-42913384D01*
X192163834Y-42913385D01*
X192163833Y-42913385D01*
X191972564Y-42992611D01*
X191769516Y-43033000D01*
X191562484Y-43033000D01*
X191359436Y-42992611D01*
X191168167Y-42913385D01*
X191168166Y-42913385D01*
X191168165Y-42913384D01*
X190996027Y-42798365D01*
X190849635Y-42651973D01*
X190734616Y-42479835D01*
X190681519Y-42351647D01*
X190655389Y-42288564D01*
X190615000Y-42085516D01*
X190615000Y-41878484D01*
X190655389Y-41675436D01*
X190734615Y-41484167D01*
X190849635Y-41312027D01*
X190996027Y-41165635D01*
X191168165Y-41050616D01*
X191168167Y-41050615D01*
X191359436Y-40971389D01*
X191562484Y-40931000D01*
X191769516Y-40931000D01*
X191972564Y-40971389D01*
G37*
M02*
