G04 #@! TF.GenerationSoftware,KiCad,Pcbnew,(5.1.5)-3*
G04 #@! TF.CreationDate,2020-05-02T21:00:29-04:00*
G04 #@! TF.ProjectId,CombinedPnl_pcb-r2,436f6d62-696e-4656-9450-6e6c5f706362,rev?*
G04 #@! TF.SameCoordinates,Original*
G04 #@! TF.FileFunction,Legend,Bot*
G04 #@! TF.FilePolarity,Positive*
%FSLAX46Y46*%
G04 Gerber Fmt 4.6, Leading zero omitted, Abs format (unit mm)*
G04 Created by KiCad (PCBNEW (5.1.5)-3) date 2020-05-02 21:00:29*
%MOMM*%
%LPD*%
G04 APERTURE LIST*
%ADD10C,0.120000*%
%ADD11C,0.150000*%
G04 APERTURE END LIST*
D10*
X133750000Y-43736000D02*
X133750000Y-45236000D01*
X132500000Y-47736000D02*
X128000000Y-47736000D01*
X126750000Y-45236000D02*
X126750000Y-43736000D01*
X128000000Y-41236000D02*
X132500000Y-41236000D01*
D11*
X131833333Y-49390761D02*
X131690476Y-49438380D01*
X131452380Y-49438380D01*
X131357142Y-49390761D01*
X131309523Y-49343142D01*
X131261904Y-49247904D01*
X131261904Y-49152666D01*
X131309523Y-49057428D01*
X131357142Y-49009809D01*
X131452380Y-48962190D01*
X131642857Y-48914571D01*
X131738095Y-48866952D01*
X131785714Y-48819333D01*
X131833333Y-48724095D01*
X131833333Y-48628857D01*
X131785714Y-48533619D01*
X131738095Y-48486000D01*
X131642857Y-48438380D01*
X131404761Y-48438380D01*
X131261904Y-48486000D01*
X130928571Y-48438380D02*
X130690476Y-49438380D01*
X130500000Y-48724095D01*
X130309523Y-49438380D01*
X130071428Y-48438380D01*
X129166666Y-49438380D02*
X129738095Y-49438380D01*
X129452380Y-49438380D02*
X129452380Y-48438380D01*
X129547619Y-48581238D01*
X129642857Y-48676476D01*
X129738095Y-48724095D01*
M02*
