G04 #@! TF.GenerationSoftware,KiCad,Pcbnew,(5.1.5)-3*
G04 #@! TF.CreationDate,2020-05-02T21:00:29-04:00*
G04 #@! TF.ProjectId,CombinedPnl_pcb-r2,436f6d62-696e-4656-9450-6e6c5f706362,rev?*
G04 #@! TF.SameCoordinates,Original*
G04 #@! TF.FileFunction,Copper,L4,Bot*
G04 #@! TF.FilePolarity,Positive*
%FSLAX46Y46*%
G04 Gerber Fmt 4.6, Leading zero omitted, Abs format (unit mm)*
G04 Created by KiCad (PCBNEW (5.1.5)-3) date 2020-05-02 21:00:29*
%MOMM*%
%LPD*%
G04 APERTURE LIST*
%ADD10O,1.700000X1.700000*%
%ADD11R,1.700000X1.700000*%
%ADD12O,1.500000X2.000000*%
%ADD13C,2.000000*%
%ADD14C,1.524000*%
%ADD15C,1.700000*%
%ADD16C,1.600000*%
%ADD17O,1.600000X1.600000*%
%ADD18R,2.000000X2.000000*%
%ADD19C,1.200000*%
%ADD20R,1.200000X1.200000*%
%ADD21R,1.600000X1.600000*%
%ADD22O,2.000000X1.200000*%
%ADD23C,0.800000*%
%ADD24C,0.500000*%
%ADD25C,0.250000*%
G04 APERTURE END LIST*
D10*
X109220000Y-101139001D03*
X111760000Y-101139001D03*
X114300000Y-101139001D03*
X116840000Y-101139001D03*
X119380000Y-101139001D03*
X121920000Y-101139001D03*
D11*
X124460000Y-101139001D03*
D10*
X154559000Y-101092000D03*
X157099000Y-101092000D03*
X159639000Y-101092000D03*
X162179000Y-101092000D03*
X164719000Y-101092000D03*
D11*
X167259000Y-101092000D03*
D10*
X98044000Y-64008000D03*
X100584000Y-64008000D03*
X98044000Y-66548000D03*
X100584000Y-66548000D03*
X98044000Y-69088000D03*
X100584000Y-69088000D03*
X98044000Y-71628000D03*
X100584000Y-71628000D03*
X98044000Y-74168000D03*
X100584000Y-74168000D03*
X98044000Y-76708000D03*
X100584000Y-76708000D03*
X98044000Y-79248000D03*
X100584000Y-79248000D03*
X98044000Y-81788000D03*
D11*
X100584000Y-81788000D03*
D12*
X124020000Y-56770000D03*
X124020000Y-83320000D03*
X172280000Y-56770000D03*
D13*
X172280000Y-83306000D03*
D12*
X169740000Y-56770000D03*
X169740000Y-83306000D03*
X167200000Y-56770000D03*
X167200000Y-83306000D03*
X164660000Y-56770000D03*
X164660000Y-83306000D03*
X162120000Y-56770000D03*
X162120000Y-83306000D03*
X159580000Y-56770000D03*
X159580000Y-83306000D03*
X157040000Y-56770000D03*
X157040000Y-83306000D03*
X154500000Y-56770000D03*
X154500000Y-83306000D03*
X151960000Y-56770000D03*
X151960000Y-83306000D03*
X149420000Y-56770000D03*
X149420000Y-83306000D03*
X146880000Y-56770000D03*
X146880000Y-83306000D03*
X144340000Y-56770000D03*
X144340000Y-83306000D03*
X141800000Y-56770000D03*
X141800000Y-83306000D03*
X139260000Y-56770000D03*
D13*
X139260000Y-83306000D03*
D12*
X136720000Y-56770000D03*
X136720000Y-83306000D03*
X134180000Y-56770000D03*
X134180000Y-83306000D03*
X131640000Y-56770000D03*
X131640000Y-83306000D03*
X129100000Y-56770000D03*
X129100000Y-83306000D03*
X126560000Y-56770000D03*
D13*
X126560000Y-83306000D03*
D14*
X181710000Y-87480000D03*
X185616000Y-87480000D03*
X189522000Y-87480000D03*
X181710000Y-84940000D03*
X189522000Y-84940000D03*
X185616000Y-84940000D03*
D15*
X179520000Y-86210000D03*
X191712000Y-86210000D03*
D13*
X133500000Y-46736000D03*
X133500000Y-42236000D03*
X127000000Y-46736000D03*
X127000000Y-42236000D03*
D16*
X127000000Y-74168000D03*
D17*
X127000000Y-64008000D03*
D10*
X100584000Y-51562000D03*
X98044000Y-51562000D03*
X100584000Y-49022000D03*
D11*
X98044000Y-49022000D03*
D13*
X108800000Y-47900000D03*
D18*
X108800000Y-42900000D03*
D11*
X174752000Y-42926000D03*
D10*
X174752000Y-45466000D03*
X172212000Y-42926000D03*
X172212000Y-45466000D03*
X169672000Y-42926000D03*
X169672000Y-45466000D03*
X167132000Y-42926000D03*
X167132000Y-45466000D03*
X164592000Y-42926000D03*
X164592000Y-45466000D03*
X162052000Y-42926000D03*
X162052000Y-45466000D03*
X159512000Y-42926000D03*
X159512000Y-45466000D03*
X156972000Y-42926000D03*
X156972000Y-45466000D03*
D11*
X98044000Y-56388000D03*
D10*
X100584000Y-56388000D03*
X98044000Y-58928000D03*
X100584000Y-58928000D03*
D17*
X182810000Y-51350000D03*
D16*
X172650000Y-51350000D03*
D19*
X188200000Y-49350000D03*
D20*
X188200000Y-51350000D03*
D17*
X150690000Y-70800000D03*
D16*
X160850000Y-70800000D03*
X182150000Y-42850000D03*
D21*
X182150000Y-44850000D03*
D10*
X134366000Y-123190000D03*
D11*
X134366000Y-120650000D03*
D15*
X189738000Y-133604000D03*
D11*
X187198000Y-133604000D03*
D10*
X189738000Y-131064000D03*
X187198000Y-131064000D03*
X189738000Y-128524000D03*
X187198000Y-128524000D03*
X189738000Y-125984000D03*
X187198000Y-125984000D03*
X189738000Y-123444000D03*
X187198000Y-123444000D03*
X189738000Y-120904000D03*
X187198000Y-120904000D03*
X189738000Y-118364000D03*
X187198000Y-118364000D03*
X189738000Y-115824000D03*
X187198000Y-115824000D03*
D22*
X148270000Y-130830000D03*
X160970000Y-130830000D03*
X148270000Y-128290000D03*
X160970000Y-128290000D03*
X148270000Y-125750000D03*
X160970000Y-125750000D03*
X148270000Y-123210000D03*
X160970000Y-123210000D03*
X148270000Y-120670000D03*
X160970000Y-120670000D03*
X148270000Y-118130000D03*
X160970000Y-118130000D03*
D16*
X134461000Y-100965000D03*
D21*
X132461000Y-100965000D03*
D16*
X110300000Y-85950000D03*
X110300000Y-80950000D03*
X117000000Y-77550000D03*
X117000000Y-72550000D03*
X181250000Y-100500000D03*
X186250000Y-100500000D03*
D23*
X167200000Y-62000006D03*
X134188000Y-51562000D03*
X162000000Y-63900000D03*
X132900000Y-59900000D03*
X162050000Y-62100000D03*
X165750000Y-51400000D03*
X144250000Y-50350000D03*
X153350000Y-49050000D03*
X150300000Y-49000004D03*
X151950008Y-49050000D03*
D24*
X148590000Y-118110000D02*
X148336000Y-118110000D01*
D25*
X156750000Y-61550000D02*
X159580000Y-58720000D01*
X104244081Y-61550000D02*
X156750000Y-61550000D01*
X159580000Y-58720000D02*
X159580000Y-56770000D01*
X100584000Y-64008000D02*
X101786081Y-64008000D01*
X101786081Y-64008000D02*
X104244081Y-61550000D01*
X167200000Y-56770000D02*
X167200000Y-62000006D01*
X149420000Y-84556000D02*
X149420000Y-83306000D01*
X99306000Y-70350000D02*
X104950000Y-70350000D01*
X98044000Y-69088000D02*
X99306000Y-70350000D01*
X119944000Y-85344000D02*
X148632000Y-85344000D01*
X104950000Y-70350000D02*
X119944000Y-85344000D01*
X148632000Y-85344000D02*
X149420000Y-84556000D01*
X154500000Y-81650000D02*
X154500000Y-83306000D01*
X100584000Y-69088000D02*
X141938000Y-69088000D01*
X141938000Y-69088000D02*
X154500000Y-81650000D01*
X165806000Y-41600000D02*
X167132000Y-42926000D01*
X144150000Y-41600000D02*
X165806000Y-41600000D01*
X100584000Y-51562000D02*
X134188000Y-51562000D01*
X134188000Y-51562000D02*
X144150000Y-41600000D01*
X134188000Y-51562000D02*
X134188000Y-51562000D01*
X162399999Y-64299999D02*
X162000000Y-63900000D01*
X164660000Y-66560000D02*
X162399999Y-64299999D01*
X164660000Y-83306000D02*
X164660000Y-66560000D01*
X167200000Y-83306000D02*
X167200000Y-67250000D01*
X167200000Y-67250000D02*
X162449999Y-62499999D01*
X162449999Y-62499999D02*
X162050000Y-62100000D01*
X104096000Y-59900000D02*
X100584000Y-56388000D01*
X132900000Y-59900000D02*
X104096000Y-59900000D01*
X165750000Y-49388000D02*
X169672000Y-45466000D01*
X165750000Y-51400000D02*
X165750000Y-49388000D01*
X170521999Y-44616001D02*
X169672000Y-45466000D01*
X170938000Y-44200000D02*
X170521999Y-44616001D01*
X174752000Y-45466000D02*
X173486000Y-44200000D01*
X173486000Y-44200000D02*
X170938000Y-44200000D01*
X141350000Y-50350000D02*
X144250000Y-50350000D01*
X136720000Y-56770000D02*
X136720000Y-54980000D01*
X136720000Y-54980000D02*
X141350000Y-50350000D01*
X168822001Y-43775999D02*
X167132000Y-45466000D01*
X169672000Y-42926000D02*
X168822001Y-43775999D01*
X151960000Y-50440000D02*
X152950001Y-49449999D01*
X152950001Y-49449999D02*
X153350000Y-49050000D01*
X151960000Y-56770000D02*
X151960000Y-50440000D01*
X144340000Y-54960004D02*
X149900001Y-49400003D01*
X149900001Y-49400003D02*
X150300000Y-49000004D01*
X144340000Y-56770000D02*
X144340000Y-54960004D01*
X169740000Y-67740000D02*
X169740000Y-83306000D01*
X163350000Y-61350000D02*
X169740000Y-67740000D01*
X162052000Y-42926000D02*
X163350000Y-44224000D01*
X163350000Y-44224000D02*
X163350000Y-61350000D01*
X146880000Y-56770000D02*
X146880000Y-54120008D01*
X151550009Y-49449999D02*
X151950008Y-49050000D01*
X146880000Y-54120008D02*
X151550009Y-49449999D01*
X162150000Y-83276000D02*
X162120000Y-83306000D01*
X162150000Y-74750000D02*
X162150000Y-83276000D01*
X160850000Y-73450000D02*
X161350001Y-73950001D01*
X156972000Y-45466000D02*
X160850000Y-49344000D01*
X161350001Y-73950001D02*
X162150000Y-74750000D01*
X160850000Y-49344000D02*
X160850000Y-73450000D01*
X128414213Y-46736000D02*
X133500000Y-46736000D01*
X127000000Y-46736000D02*
X128414213Y-46736000D01*
X119380000Y-103124000D02*
X119380000Y-101139001D01*
X188394000Y-122100000D02*
X179200000Y-122100000D01*
X189738000Y-123444000D02*
X188394000Y-122100000D01*
X130556000Y-114300000D02*
X119380000Y-103124000D01*
X179200000Y-122100000D02*
X171400000Y-114300000D01*
X171400000Y-114300000D02*
X130556000Y-114300000D01*
X161544000Y-97790000D02*
X161544000Y-97790000D01*
X114347001Y-98552000D02*
X111760000Y-101139001D01*
X185420000Y-118364000D02*
X170250000Y-103194000D01*
X187198000Y-118364000D02*
X185420000Y-118364000D01*
X169512000Y-98552000D02*
X114347001Y-98552000D01*
X170250000Y-103194000D02*
X170250000Y-99290000D01*
X170250000Y-99290000D02*
X169512000Y-98552000D01*
M02*
