M48
; DRILL file {KiCad (5.1.5)-3} date 5/2/2020 9:00:21 PM
; FORMAT={-:-/ absolute / inch / decimal}
; #@! TF.CreationDate,2020-05-02T21:00:21-04:00
; #@! TF.GenerationSoftware,Kicad,Pcbnew,(5.1.5)-3
; #@! TF.FileFunction,Plated,1,4,PTH
FMAT,2
INCH
T1C0.0157
T2C0.0236
T3C0.0300
T4C0.0315
T5C0.0394
T6C0.0402
T7C0.0433
%
G90
G05
T1
X5.2323Y-2.3583
X5.283Y-2.03
X5.6791Y-1.9823
X5.9173Y-1.9291
X5.9823Y-1.9311
X6.0374Y-1.9311
X6.378Y-2.5157
X6.3799Y-2.4449
X6.5256Y-2.0236
X6.5827Y-2.4409
T2
X7.4094Y-1.9429
X7.4094Y-2.0217
T3
X7.1539Y-3.3441
X7.1539Y-3.4441
X7.3077Y-3.3441
X7.3077Y-3.4441
X7.4615Y-3.3441
X7.4615Y-3.4441
T4
X7.1358Y-3.9567
X7.3327Y-3.9567
X4.6063Y-2.8563
X4.6063Y-3.0531
X7.1713Y-1.687
X7.1713Y-1.7657
X5.215Y-3.975
X5.2937Y-3.975
X5.0Y-2.52
X5.0Y-2.92
X4.3425Y-3.187
X4.3425Y-3.3839
X5.8374Y-4.6508
X5.8374Y-4.7508
X5.8374Y-4.8508
X5.8374Y-4.9508
X5.8374Y-5.0508
X5.8374Y-5.1508
X6.3374Y-4.6508
X6.3374Y-4.7508
X6.3374Y-4.8508
X6.3374Y-4.9508
X6.3374Y-5.0508
X6.3374Y-5.1508
X5.9327Y-2.7874
X6.3327Y-2.7874
X6.7972Y-2.0217
X7.1972Y-2.0217
T5
X5.29Y-4.75
X5.29Y-4.85
X3.86Y-1.93
X3.86Y-2.03
X3.96Y-1.93
X3.96Y-2.03
X7.37Y-4.56
X7.37Y-4.66
X7.37Y-4.76
X7.37Y-4.86
X7.37Y-4.96
X7.37Y-5.06
X7.37Y-5.16
X7.37Y-5.26
X7.47Y-4.56
X7.47Y-4.66
X7.47Y-4.76
X7.47Y-4.86
X7.47Y-4.96
X7.47Y-5.06
X7.47Y-5.16
X7.47Y-5.26
X3.86Y-2.52
X3.86Y-2.62
X3.86Y-2.72
X3.86Y-2.82
X3.86Y-2.92
X3.86Y-3.02
X3.86Y-3.12
X3.86Y-3.22
X3.96Y-2.52
X3.96Y-2.62
X3.96Y-2.72
X3.96Y-2.82
X3.96Y-2.92
X3.96Y-3.02
X3.96Y-3.12
X3.96Y-3.22
X6.085Y-3.98
X6.185Y-3.98
X6.285Y-3.98
X6.385Y-3.98
X6.485Y-3.98
X6.585Y-3.98
X6.18Y-1.69
X6.18Y-1.79
X6.28Y-1.69
X6.28Y-1.79
X6.38Y-1.69
X6.38Y-1.79
X6.48Y-1.69
X6.48Y-1.79
X6.58Y-1.69
X6.58Y-1.79
X6.68Y-1.69
X6.68Y-1.79
X6.78Y-1.69
X6.78Y-1.79
X6.88Y-1.69
X6.88Y-1.79
X3.86Y-2.22
X3.86Y-2.32
X3.96Y-2.22
X3.96Y-2.32
X4.3Y-3.9819
X4.4Y-3.9819
X4.5Y-3.9819
X4.6Y-3.9819
X4.7Y-3.9819
X4.8Y-3.9819
X4.9Y-3.9819
X4.2835Y-1.689
X4.2835Y-1.8858
T6
X4.8827Y-2.235
X4.8827Y-3.2803
X4.9827Y-2.235
X4.9827Y-3.2798
X5.0827Y-2.235
X5.0827Y-3.2798
X5.1827Y-2.235
X5.1827Y-3.2798
X5.2827Y-2.235
X5.2827Y-3.2798
X5.3827Y-2.235
X5.3827Y-3.2798
X5.4827Y-2.235
X5.4827Y-3.2798
X5.5827Y-2.235
X5.5827Y-3.2798
X5.6827Y-2.235
X5.6827Y-3.2798
X5.7827Y-2.235
X5.7827Y-3.2798
X5.8827Y-2.235
X5.8827Y-3.2798
X5.9827Y-2.235
X5.9827Y-3.2798
X6.0827Y-2.235
X6.0827Y-3.2798
X6.1827Y-2.235
X6.1827Y-3.2798
X6.2827Y-2.235
X6.2827Y-3.2798
X6.3827Y-2.235
X6.3827Y-3.2798
X6.4827Y-2.235
X6.4827Y-3.2798
X6.5827Y-2.235
X6.5827Y-3.2798
X6.6827Y-2.235
X6.6827Y-3.2798
X6.7827Y-2.235
X6.7827Y-3.2798
T7
X5.0Y-1.6628
X5.0Y-1.84
X5.2559Y-1.6628
X5.2559Y-1.84
T0
M30
