G04 #@! TF.GenerationSoftware,KiCad,Pcbnew,(5.1.5)-3*
G04 #@! TF.CreationDate,2020-05-02T21:00:29-04:00*
G04 #@! TF.ProjectId,CombinedPnl_pcb-r2,436f6d62-696e-4656-9450-6e6c5f706362,rev?*
G04 #@! TF.SameCoordinates,Original*
G04 #@! TF.FileFunction,Soldermask,Bot*
G04 #@! TF.FilePolarity,Negative*
%FSLAX46Y46*%
G04 Gerber Fmt 4.6, Leading zero omitted, Abs format (unit mm)*
G04 Created by KiCad (PCBNEW (5.1.5)-3) date 2020-05-02 21:00:29*
%MOMM*%
%LPD*%
G04 APERTURE LIST*
%ADD10C,0.100000*%
G04 APERTURE END LIST*
D10*
G36*
X183518433Y-136434893D02*
G01*
X183608657Y-136452839D01*
X183714267Y-136496585D01*
X183863621Y-136558449D01*
X183863622Y-136558450D01*
X184093086Y-136711772D01*
X184288228Y-136906914D01*
X184390675Y-137060237D01*
X184441551Y-137136379D01*
X184547161Y-137391344D01*
X184601000Y-137662012D01*
X184601000Y-137937988D01*
X184547161Y-138208656D01*
X184441551Y-138463621D01*
X184441550Y-138463622D01*
X184288228Y-138693086D01*
X184093086Y-138888228D01*
X183939763Y-138990675D01*
X183863621Y-139041551D01*
X183714267Y-139103415D01*
X183608657Y-139147161D01*
X183518433Y-139165107D01*
X183337988Y-139201000D01*
X183062012Y-139201000D01*
X182881567Y-139165107D01*
X182791343Y-139147161D01*
X182685733Y-139103415D01*
X182536379Y-139041551D01*
X182460237Y-138990675D01*
X182306914Y-138888228D01*
X182111772Y-138693086D01*
X181958450Y-138463622D01*
X181958449Y-138463621D01*
X181852839Y-138208656D01*
X181799000Y-137937988D01*
X181799000Y-137662012D01*
X181852839Y-137391344D01*
X181958449Y-137136379D01*
X182009325Y-137060237D01*
X182111772Y-136906914D01*
X182306914Y-136711772D01*
X182536378Y-136558450D01*
X182536379Y-136558449D01*
X182685733Y-136496585D01*
X182791343Y-136452839D01*
X182881567Y-136434893D01*
X183062012Y-136399000D01*
X183337988Y-136399000D01*
X183518433Y-136434893D01*
G37*
G36*
X97918433Y-136434893D02*
G01*
X98008657Y-136452839D01*
X98114267Y-136496585D01*
X98263621Y-136558449D01*
X98263622Y-136558450D01*
X98493086Y-136711772D01*
X98688228Y-136906914D01*
X98790675Y-137060237D01*
X98841551Y-137136379D01*
X98947161Y-137391344D01*
X99001000Y-137662012D01*
X99001000Y-137937988D01*
X98947161Y-138208656D01*
X98841551Y-138463621D01*
X98841550Y-138463622D01*
X98688228Y-138693086D01*
X98493086Y-138888228D01*
X98339763Y-138990675D01*
X98263621Y-139041551D01*
X98114267Y-139103415D01*
X98008657Y-139147161D01*
X97918433Y-139165107D01*
X97737988Y-139201000D01*
X97462012Y-139201000D01*
X97281567Y-139165107D01*
X97191343Y-139147161D01*
X97085733Y-139103415D01*
X96936379Y-139041551D01*
X96860237Y-138990675D01*
X96706914Y-138888228D01*
X96511772Y-138693086D01*
X96358450Y-138463622D01*
X96358449Y-138463621D01*
X96252839Y-138208656D01*
X96199000Y-137937988D01*
X96199000Y-137662012D01*
X96252839Y-137391344D01*
X96358449Y-137136379D01*
X96409325Y-137060237D01*
X96511772Y-136906914D01*
X96706914Y-136711772D01*
X96936378Y-136558450D01*
X96936379Y-136558449D01*
X97085733Y-136496585D01*
X97191343Y-136452839D01*
X97281567Y-136434893D01*
X97462012Y-136399000D01*
X97737988Y-136399000D01*
X97918433Y-136434893D01*
G37*
G36*
X189851512Y-132707927D02*
G01*
X190000812Y-132737624D01*
X190164784Y-132805544D01*
X190312354Y-132904147D01*
X190437853Y-133029646D01*
X190536456Y-133177216D01*
X190604376Y-133341188D01*
X190639000Y-133515259D01*
X190639000Y-133692741D01*
X190604376Y-133866812D01*
X190536456Y-134030784D01*
X190437853Y-134178354D01*
X190312354Y-134303853D01*
X190164784Y-134402456D01*
X190000812Y-134470376D01*
X189851512Y-134500073D01*
X189826742Y-134505000D01*
X189649258Y-134505000D01*
X189624488Y-134500073D01*
X189475188Y-134470376D01*
X189311216Y-134402456D01*
X189163646Y-134303853D01*
X189038147Y-134178354D01*
X188939544Y-134030784D01*
X188871624Y-133866812D01*
X188837000Y-133692741D01*
X188837000Y-133515259D01*
X188871624Y-133341188D01*
X188939544Y-133177216D01*
X189038147Y-133029646D01*
X189163646Y-132904147D01*
X189311216Y-132805544D01*
X189475188Y-132737624D01*
X189624488Y-132707927D01*
X189649258Y-132703000D01*
X189826742Y-132703000D01*
X189851512Y-132707927D01*
G37*
G36*
X188099000Y-134505000D02*
G01*
X186297000Y-134505000D01*
X186297000Y-132703000D01*
X188099000Y-132703000D01*
X188099000Y-134505000D01*
G37*
G36*
X189851512Y-130167927D02*
G01*
X190000812Y-130197624D01*
X190164784Y-130265544D01*
X190312354Y-130364147D01*
X190437853Y-130489646D01*
X190536456Y-130637216D01*
X190604376Y-130801188D01*
X190639000Y-130975259D01*
X190639000Y-131152741D01*
X190604376Y-131326812D01*
X190536456Y-131490784D01*
X190437853Y-131638354D01*
X190312354Y-131763853D01*
X190164784Y-131862456D01*
X190000812Y-131930376D01*
X189851512Y-131960073D01*
X189826742Y-131965000D01*
X189649258Y-131965000D01*
X189624488Y-131960073D01*
X189475188Y-131930376D01*
X189311216Y-131862456D01*
X189163646Y-131763853D01*
X189038147Y-131638354D01*
X188939544Y-131490784D01*
X188871624Y-131326812D01*
X188837000Y-131152741D01*
X188837000Y-130975259D01*
X188871624Y-130801188D01*
X188939544Y-130637216D01*
X189038147Y-130489646D01*
X189163646Y-130364147D01*
X189311216Y-130265544D01*
X189475188Y-130197624D01*
X189624488Y-130167927D01*
X189649258Y-130163000D01*
X189826742Y-130163000D01*
X189851512Y-130167927D01*
G37*
G36*
X187311512Y-130167927D02*
G01*
X187460812Y-130197624D01*
X187624784Y-130265544D01*
X187772354Y-130364147D01*
X187897853Y-130489646D01*
X187996456Y-130637216D01*
X188064376Y-130801188D01*
X188099000Y-130975259D01*
X188099000Y-131152741D01*
X188064376Y-131326812D01*
X187996456Y-131490784D01*
X187897853Y-131638354D01*
X187772354Y-131763853D01*
X187624784Y-131862456D01*
X187460812Y-131930376D01*
X187311512Y-131960073D01*
X187286742Y-131965000D01*
X187109258Y-131965000D01*
X187084488Y-131960073D01*
X186935188Y-131930376D01*
X186771216Y-131862456D01*
X186623646Y-131763853D01*
X186498147Y-131638354D01*
X186399544Y-131490784D01*
X186331624Y-131326812D01*
X186297000Y-131152741D01*
X186297000Y-130975259D01*
X186331624Y-130801188D01*
X186399544Y-130637216D01*
X186498147Y-130489646D01*
X186623646Y-130364147D01*
X186771216Y-130265544D01*
X186935188Y-130197624D01*
X187084488Y-130167927D01*
X187109258Y-130163000D01*
X187286742Y-130163000D01*
X187311512Y-130167927D01*
G37*
G36*
X161433855Y-130182140D02*
G01*
X161497618Y-130188420D01*
X161588404Y-130215960D01*
X161620336Y-130225646D01*
X161733425Y-130286094D01*
X161832554Y-130367446D01*
X161913906Y-130466575D01*
X161974354Y-130579664D01*
X161974355Y-130579668D01*
X162011580Y-130702382D01*
X162024149Y-130830000D01*
X162011580Y-130957618D01*
X161984040Y-131048404D01*
X161974354Y-131080336D01*
X161913906Y-131193425D01*
X161832554Y-131292554D01*
X161733425Y-131373906D01*
X161620336Y-131434354D01*
X161588404Y-131444040D01*
X161497618Y-131471580D01*
X161433855Y-131477860D01*
X161401974Y-131481000D01*
X160538026Y-131481000D01*
X160506145Y-131477860D01*
X160442382Y-131471580D01*
X160351596Y-131444040D01*
X160319664Y-131434354D01*
X160206575Y-131373906D01*
X160107446Y-131292554D01*
X160026094Y-131193425D01*
X159965646Y-131080336D01*
X159955960Y-131048404D01*
X159928420Y-130957618D01*
X159915851Y-130830000D01*
X159928420Y-130702382D01*
X159965645Y-130579668D01*
X159965646Y-130579664D01*
X160026094Y-130466575D01*
X160107446Y-130367446D01*
X160206575Y-130286094D01*
X160319664Y-130225646D01*
X160351596Y-130215960D01*
X160442382Y-130188420D01*
X160506145Y-130182140D01*
X160538026Y-130179000D01*
X161401974Y-130179000D01*
X161433855Y-130182140D01*
G37*
G36*
X148733855Y-130182140D02*
G01*
X148797618Y-130188420D01*
X148888404Y-130215960D01*
X148920336Y-130225646D01*
X149033425Y-130286094D01*
X149132554Y-130367446D01*
X149213906Y-130466575D01*
X149274354Y-130579664D01*
X149274355Y-130579668D01*
X149311580Y-130702382D01*
X149324149Y-130830000D01*
X149311580Y-130957618D01*
X149284040Y-131048404D01*
X149274354Y-131080336D01*
X149213906Y-131193425D01*
X149132554Y-131292554D01*
X149033425Y-131373906D01*
X148920336Y-131434354D01*
X148888404Y-131444040D01*
X148797618Y-131471580D01*
X148733855Y-131477860D01*
X148701974Y-131481000D01*
X147838026Y-131481000D01*
X147806145Y-131477860D01*
X147742382Y-131471580D01*
X147651596Y-131444040D01*
X147619664Y-131434354D01*
X147506575Y-131373906D01*
X147407446Y-131292554D01*
X147326094Y-131193425D01*
X147265646Y-131080336D01*
X147255960Y-131048404D01*
X147228420Y-130957618D01*
X147215851Y-130830000D01*
X147228420Y-130702382D01*
X147265645Y-130579668D01*
X147265646Y-130579664D01*
X147326094Y-130466575D01*
X147407446Y-130367446D01*
X147506575Y-130286094D01*
X147619664Y-130225646D01*
X147651596Y-130215960D01*
X147742382Y-130188420D01*
X147806145Y-130182140D01*
X147838026Y-130179000D01*
X148701974Y-130179000D01*
X148733855Y-130182140D01*
G37*
G36*
X189851512Y-127627927D02*
G01*
X190000812Y-127657624D01*
X190164784Y-127725544D01*
X190312354Y-127824147D01*
X190437853Y-127949646D01*
X190536456Y-128097216D01*
X190604376Y-128261188D01*
X190639000Y-128435259D01*
X190639000Y-128612741D01*
X190604376Y-128786812D01*
X190536456Y-128950784D01*
X190437853Y-129098354D01*
X190312354Y-129223853D01*
X190164784Y-129322456D01*
X190000812Y-129390376D01*
X189851512Y-129420073D01*
X189826742Y-129425000D01*
X189649258Y-129425000D01*
X189624488Y-129420073D01*
X189475188Y-129390376D01*
X189311216Y-129322456D01*
X189163646Y-129223853D01*
X189038147Y-129098354D01*
X188939544Y-128950784D01*
X188871624Y-128786812D01*
X188837000Y-128612741D01*
X188837000Y-128435259D01*
X188871624Y-128261188D01*
X188939544Y-128097216D01*
X189038147Y-127949646D01*
X189163646Y-127824147D01*
X189311216Y-127725544D01*
X189475188Y-127657624D01*
X189624488Y-127627927D01*
X189649258Y-127623000D01*
X189826742Y-127623000D01*
X189851512Y-127627927D01*
G37*
G36*
X187311512Y-127627927D02*
G01*
X187460812Y-127657624D01*
X187624784Y-127725544D01*
X187772354Y-127824147D01*
X187897853Y-127949646D01*
X187996456Y-128097216D01*
X188064376Y-128261188D01*
X188099000Y-128435259D01*
X188099000Y-128612741D01*
X188064376Y-128786812D01*
X187996456Y-128950784D01*
X187897853Y-129098354D01*
X187772354Y-129223853D01*
X187624784Y-129322456D01*
X187460812Y-129390376D01*
X187311512Y-129420073D01*
X187286742Y-129425000D01*
X187109258Y-129425000D01*
X187084488Y-129420073D01*
X186935188Y-129390376D01*
X186771216Y-129322456D01*
X186623646Y-129223853D01*
X186498147Y-129098354D01*
X186399544Y-128950784D01*
X186331624Y-128786812D01*
X186297000Y-128612741D01*
X186297000Y-128435259D01*
X186331624Y-128261188D01*
X186399544Y-128097216D01*
X186498147Y-127949646D01*
X186623646Y-127824147D01*
X186771216Y-127725544D01*
X186935188Y-127657624D01*
X187084488Y-127627927D01*
X187109258Y-127623000D01*
X187286742Y-127623000D01*
X187311512Y-127627927D01*
G37*
G36*
X148733855Y-127642140D02*
G01*
X148797618Y-127648420D01*
X148888404Y-127675960D01*
X148920336Y-127685646D01*
X149033425Y-127746094D01*
X149132554Y-127827446D01*
X149213906Y-127926575D01*
X149274354Y-128039664D01*
X149274355Y-128039668D01*
X149311580Y-128162382D01*
X149324149Y-128290000D01*
X149311580Y-128417618D01*
X149284040Y-128508404D01*
X149274354Y-128540336D01*
X149213906Y-128653425D01*
X149132554Y-128752554D01*
X149033425Y-128833906D01*
X148920336Y-128894354D01*
X148888404Y-128904040D01*
X148797618Y-128931580D01*
X148733855Y-128937860D01*
X148701974Y-128941000D01*
X147838026Y-128941000D01*
X147806145Y-128937860D01*
X147742382Y-128931580D01*
X147651596Y-128904040D01*
X147619664Y-128894354D01*
X147506575Y-128833906D01*
X147407446Y-128752554D01*
X147326094Y-128653425D01*
X147265646Y-128540336D01*
X147255960Y-128508404D01*
X147228420Y-128417618D01*
X147215851Y-128290000D01*
X147228420Y-128162382D01*
X147265645Y-128039668D01*
X147265646Y-128039664D01*
X147326094Y-127926575D01*
X147407446Y-127827446D01*
X147506575Y-127746094D01*
X147619664Y-127685646D01*
X147651596Y-127675960D01*
X147742382Y-127648420D01*
X147806145Y-127642140D01*
X147838026Y-127639000D01*
X148701974Y-127639000D01*
X148733855Y-127642140D01*
G37*
G36*
X161433855Y-127642140D02*
G01*
X161497618Y-127648420D01*
X161588404Y-127675960D01*
X161620336Y-127685646D01*
X161733425Y-127746094D01*
X161832554Y-127827446D01*
X161913906Y-127926575D01*
X161974354Y-128039664D01*
X161974355Y-128039668D01*
X162011580Y-128162382D01*
X162024149Y-128290000D01*
X162011580Y-128417618D01*
X161984040Y-128508404D01*
X161974354Y-128540336D01*
X161913906Y-128653425D01*
X161832554Y-128752554D01*
X161733425Y-128833906D01*
X161620336Y-128894354D01*
X161588404Y-128904040D01*
X161497618Y-128931580D01*
X161433855Y-128937860D01*
X161401974Y-128941000D01*
X160538026Y-128941000D01*
X160506145Y-128937860D01*
X160442382Y-128931580D01*
X160351596Y-128904040D01*
X160319664Y-128894354D01*
X160206575Y-128833906D01*
X160107446Y-128752554D01*
X160026094Y-128653425D01*
X159965646Y-128540336D01*
X159955960Y-128508404D01*
X159928420Y-128417618D01*
X159915851Y-128290000D01*
X159928420Y-128162382D01*
X159965645Y-128039668D01*
X159965646Y-128039664D01*
X160026094Y-127926575D01*
X160107446Y-127827446D01*
X160206575Y-127746094D01*
X160319664Y-127685646D01*
X160351596Y-127675960D01*
X160442382Y-127648420D01*
X160506145Y-127642140D01*
X160538026Y-127639000D01*
X161401974Y-127639000D01*
X161433855Y-127642140D01*
G37*
G36*
X187311512Y-125087927D02*
G01*
X187460812Y-125117624D01*
X187624784Y-125185544D01*
X187772354Y-125284147D01*
X187897853Y-125409646D01*
X187996456Y-125557216D01*
X188064376Y-125721188D01*
X188099000Y-125895259D01*
X188099000Y-126072741D01*
X188064376Y-126246812D01*
X187996456Y-126410784D01*
X187897853Y-126558354D01*
X187772354Y-126683853D01*
X187624784Y-126782456D01*
X187460812Y-126850376D01*
X187311512Y-126880073D01*
X187286742Y-126885000D01*
X187109258Y-126885000D01*
X187084488Y-126880073D01*
X186935188Y-126850376D01*
X186771216Y-126782456D01*
X186623646Y-126683853D01*
X186498147Y-126558354D01*
X186399544Y-126410784D01*
X186331624Y-126246812D01*
X186297000Y-126072741D01*
X186297000Y-125895259D01*
X186331624Y-125721188D01*
X186399544Y-125557216D01*
X186498147Y-125409646D01*
X186623646Y-125284147D01*
X186771216Y-125185544D01*
X186935188Y-125117624D01*
X187084488Y-125087927D01*
X187109258Y-125083000D01*
X187286742Y-125083000D01*
X187311512Y-125087927D01*
G37*
G36*
X189851512Y-125087927D02*
G01*
X190000812Y-125117624D01*
X190164784Y-125185544D01*
X190312354Y-125284147D01*
X190437853Y-125409646D01*
X190536456Y-125557216D01*
X190604376Y-125721188D01*
X190639000Y-125895259D01*
X190639000Y-126072741D01*
X190604376Y-126246812D01*
X190536456Y-126410784D01*
X190437853Y-126558354D01*
X190312354Y-126683853D01*
X190164784Y-126782456D01*
X190000812Y-126850376D01*
X189851512Y-126880073D01*
X189826742Y-126885000D01*
X189649258Y-126885000D01*
X189624488Y-126880073D01*
X189475188Y-126850376D01*
X189311216Y-126782456D01*
X189163646Y-126683853D01*
X189038147Y-126558354D01*
X188939544Y-126410784D01*
X188871624Y-126246812D01*
X188837000Y-126072741D01*
X188837000Y-125895259D01*
X188871624Y-125721188D01*
X188939544Y-125557216D01*
X189038147Y-125409646D01*
X189163646Y-125284147D01*
X189311216Y-125185544D01*
X189475188Y-125117624D01*
X189624488Y-125087927D01*
X189649258Y-125083000D01*
X189826742Y-125083000D01*
X189851512Y-125087927D01*
G37*
G36*
X148733855Y-125102140D02*
G01*
X148797618Y-125108420D01*
X148888404Y-125135960D01*
X148920336Y-125145646D01*
X149033425Y-125206094D01*
X149132554Y-125287446D01*
X149213906Y-125386575D01*
X149274354Y-125499664D01*
X149274355Y-125499668D01*
X149311580Y-125622382D01*
X149324149Y-125750000D01*
X149311580Y-125877618D01*
X149284040Y-125968404D01*
X149274354Y-126000336D01*
X149213906Y-126113425D01*
X149132554Y-126212554D01*
X149033425Y-126293906D01*
X148920336Y-126354354D01*
X148888404Y-126364040D01*
X148797618Y-126391580D01*
X148733855Y-126397860D01*
X148701974Y-126401000D01*
X147838026Y-126401000D01*
X147806145Y-126397860D01*
X147742382Y-126391580D01*
X147651596Y-126364040D01*
X147619664Y-126354354D01*
X147506575Y-126293906D01*
X147407446Y-126212554D01*
X147326094Y-126113425D01*
X147265646Y-126000336D01*
X147255960Y-125968404D01*
X147228420Y-125877618D01*
X147215851Y-125750000D01*
X147228420Y-125622382D01*
X147265645Y-125499668D01*
X147265646Y-125499664D01*
X147326094Y-125386575D01*
X147407446Y-125287446D01*
X147506575Y-125206094D01*
X147619664Y-125145646D01*
X147651596Y-125135960D01*
X147742382Y-125108420D01*
X147806145Y-125102140D01*
X147838026Y-125099000D01*
X148701974Y-125099000D01*
X148733855Y-125102140D01*
G37*
G36*
X161433855Y-125102140D02*
G01*
X161497618Y-125108420D01*
X161588404Y-125135960D01*
X161620336Y-125145646D01*
X161733425Y-125206094D01*
X161832554Y-125287446D01*
X161913906Y-125386575D01*
X161974354Y-125499664D01*
X161974355Y-125499668D01*
X162011580Y-125622382D01*
X162024149Y-125750000D01*
X162011580Y-125877618D01*
X161984040Y-125968404D01*
X161974354Y-126000336D01*
X161913906Y-126113425D01*
X161832554Y-126212554D01*
X161733425Y-126293906D01*
X161620336Y-126354354D01*
X161588404Y-126364040D01*
X161497618Y-126391580D01*
X161433855Y-126397860D01*
X161401974Y-126401000D01*
X160538026Y-126401000D01*
X160506145Y-126397860D01*
X160442382Y-126391580D01*
X160351596Y-126364040D01*
X160319664Y-126354354D01*
X160206575Y-126293906D01*
X160107446Y-126212554D01*
X160026094Y-126113425D01*
X159965646Y-126000336D01*
X159955960Y-125968404D01*
X159928420Y-125877618D01*
X159915851Y-125750000D01*
X159928420Y-125622382D01*
X159965645Y-125499668D01*
X159965646Y-125499664D01*
X160026094Y-125386575D01*
X160107446Y-125287446D01*
X160206575Y-125206094D01*
X160319664Y-125145646D01*
X160351596Y-125135960D01*
X160442382Y-125108420D01*
X160506145Y-125102140D01*
X160538026Y-125099000D01*
X161401974Y-125099000D01*
X161433855Y-125102140D01*
G37*
G36*
X189851512Y-122547927D02*
G01*
X190000812Y-122577624D01*
X190164784Y-122645544D01*
X190312354Y-122744147D01*
X190437853Y-122869646D01*
X190536456Y-123017216D01*
X190604376Y-123181188D01*
X190639000Y-123355259D01*
X190639000Y-123532741D01*
X190604376Y-123706812D01*
X190536456Y-123870784D01*
X190437853Y-124018354D01*
X190312354Y-124143853D01*
X190164784Y-124242456D01*
X190000812Y-124310376D01*
X189851512Y-124340073D01*
X189826742Y-124345000D01*
X189649258Y-124345000D01*
X189624488Y-124340073D01*
X189475188Y-124310376D01*
X189311216Y-124242456D01*
X189163646Y-124143853D01*
X189038147Y-124018354D01*
X188939544Y-123870784D01*
X188871624Y-123706812D01*
X188837000Y-123532741D01*
X188837000Y-123355259D01*
X188871624Y-123181188D01*
X188939544Y-123017216D01*
X189038147Y-122869646D01*
X189163646Y-122744147D01*
X189311216Y-122645544D01*
X189475188Y-122577624D01*
X189624488Y-122547927D01*
X189649258Y-122543000D01*
X189826742Y-122543000D01*
X189851512Y-122547927D01*
G37*
G36*
X187311512Y-122547927D02*
G01*
X187460812Y-122577624D01*
X187624784Y-122645544D01*
X187772354Y-122744147D01*
X187897853Y-122869646D01*
X187996456Y-123017216D01*
X188064376Y-123181188D01*
X188099000Y-123355259D01*
X188099000Y-123532741D01*
X188064376Y-123706812D01*
X187996456Y-123870784D01*
X187897853Y-124018354D01*
X187772354Y-124143853D01*
X187624784Y-124242456D01*
X187460812Y-124310376D01*
X187311512Y-124340073D01*
X187286742Y-124345000D01*
X187109258Y-124345000D01*
X187084488Y-124340073D01*
X186935188Y-124310376D01*
X186771216Y-124242456D01*
X186623646Y-124143853D01*
X186498147Y-124018354D01*
X186399544Y-123870784D01*
X186331624Y-123706812D01*
X186297000Y-123532741D01*
X186297000Y-123355259D01*
X186331624Y-123181188D01*
X186399544Y-123017216D01*
X186498147Y-122869646D01*
X186623646Y-122744147D01*
X186771216Y-122645544D01*
X186935188Y-122577624D01*
X187084488Y-122547927D01*
X187109258Y-122543000D01*
X187286742Y-122543000D01*
X187311512Y-122547927D01*
G37*
G36*
X134479512Y-122293927D02*
G01*
X134628812Y-122323624D01*
X134792784Y-122391544D01*
X134940354Y-122490147D01*
X135065853Y-122615646D01*
X135164456Y-122763216D01*
X135232376Y-122927188D01*
X135267000Y-123101259D01*
X135267000Y-123278741D01*
X135232376Y-123452812D01*
X135164456Y-123616784D01*
X135065853Y-123764354D01*
X134940354Y-123889853D01*
X134792784Y-123988456D01*
X134628812Y-124056376D01*
X134479512Y-124086073D01*
X134454742Y-124091000D01*
X134277258Y-124091000D01*
X134252488Y-124086073D01*
X134103188Y-124056376D01*
X133939216Y-123988456D01*
X133791646Y-123889853D01*
X133666147Y-123764354D01*
X133567544Y-123616784D01*
X133499624Y-123452812D01*
X133465000Y-123278741D01*
X133465000Y-123101259D01*
X133499624Y-122927188D01*
X133567544Y-122763216D01*
X133666147Y-122615646D01*
X133791646Y-122490147D01*
X133939216Y-122391544D01*
X134103188Y-122323624D01*
X134252488Y-122293927D01*
X134277258Y-122289000D01*
X134454742Y-122289000D01*
X134479512Y-122293927D01*
G37*
G36*
X148733855Y-122562140D02*
G01*
X148797618Y-122568420D01*
X148888404Y-122595960D01*
X148920336Y-122605646D01*
X149033425Y-122666094D01*
X149132554Y-122747446D01*
X149213906Y-122846575D01*
X149274354Y-122959664D01*
X149274355Y-122959668D01*
X149311580Y-123082382D01*
X149324149Y-123210000D01*
X149311580Y-123337618D01*
X149284040Y-123428404D01*
X149274354Y-123460336D01*
X149213906Y-123573425D01*
X149132554Y-123672554D01*
X149033425Y-123753906D01*
X148920336Y-123814354D01*
X148888404Y-123824040D01*
X148797618Y-123851580D01*
X148733855Y-123857860D01*
X148701974Y-123861000D01*
X147838026Y-123861000D01*
X147806145Y-123857860D01*
X147742382Y-123851580D01*
X147651596Y-123824040D01*
X147619664Y-123814354D01*
X147506575Y-123753906D01*
X147407446Y-123672554D01*
X147326094Y-123573425D01*
X147265646Y-123460336D01*
X147255960Y-123428404D01*
X147228420Y-123337618D01*
X147215851Y-123210000D01*
X147228420Y-123082382D01*
X147265645Y-122959668D01*
X147265646Y-122959664D01*
X147326094Y-122846575D01*
X147407446Y-122747446D01*
X147506575Y-122666094D01*
X147619664Y-122605646D01*
X147651596Y-122595960D01*
X147742382Y-122568420D01*
X147806145Y-122562140D01*
X147838026Y-122559000D01*
X148701974Y-122559000D01*
X148733855Y-122562140D01*
G37*
G36*
X161433855Y-122562140D02*
G01*
X161497618Y-122568420D01*
X161588404Y-122595960D01*
X161620336Y-122605646D01*
X161733425Y-122666094D01*
X161832554Y-122747446D01*
X161913906Y-122846575D01*
X161974354Y-122959664D01*
X161974355Y-122959668D01*
X162011580Y-123082382D01*
X162024149Y-123210000D01*
X162011580Y-123337618D01*
X161984040Y-123428404D01*
X161974354Y-123460336D01*
X161913906Y-123573425D01*
X161832554Y-123672554D01*
X161733425Y-123753906D01*
X161620336Y-123814354D01*
X161588404Y-123824040D01*
X161497618Y-123851580D01*
X161433855Y-123857860D01*
X161401974Y-123861000D01*
X160538026Y-123861000D01*
X160506145Y-123857860D01*
X160442382Y-123851580D01*
X160351596Y-123824040D01*
X160319664Y-123814354D01*
X160206575Y-123753906D01*
X160107446Y-123672554D01*
X160026094Y-123573425D01*
X159965646Y-123460336D01*
X159955960Y-123428404D01*
X159928420Y-123337618D01*
X159915851Y-123210000D01*
X159928420Y-123082382D01*
X159965645Y-122959668D01*
X159965646Y-122959664D01*
X160026094Y-122846575D01*
X160107446Y-122747446D01*
X160206575Y-122666094D01*
X160319664Y-122605646D01*
X160351596Y-122595960D01*
X160442382Y-122568420D01*
X160506145Y-122562140D01*
X160538026Y-122559000D01*
X161401974Y-122559000D01*
X161433855Y-122562140D01*
G37*
G36*
X189851512Y-120007927D02*
G01*
X190000812Y-120037624D01*
X190164784Y-120105544D01*
X190312354Y-120204147D01*
X190437853Y-120329646D01*
X190536456Y-120477216D01*
X190604376Y-120641188D01*
X190639000Y-120815259D01*
X190639000Y-120992741D01*
X190604376Y-121166812D01*
X190536456Y-121330784D01*
X190437853Y-121478354D01*
X190312354Y-121603853D01*
X190164784Y-121702456D01*
X190000812Y-121770376D01*
X189851512Y-121800073D01*
X189826742Y-121805000D01*
X189649258Y-121805000D01*
X189624488Y-121800073D01*
X189475188Y-121770376D01*
X189311216Y-121702456D01*
X189163646Y-121603853D01*
X189038147Y-121478354D01*
X188939544Y-121330784D01*
X188871624Y-121166812D01*
X188837000Y-120992741D01*
X188837000Y-120815259D01*
X188871624Y-120641188D01*
X188939544Y-120477216D01*
X189038147Y-120329646D01*
X189163646Y-120204147D01*
X189311216Y-120105544D01*
X189475188Y-120037624D01*
X189624488Y-120007927D01*
X189649258Y-120003000D01*
X189826742Y-120003000D01*
X189851512Y-120007927D01*
G37*
G36*
X187311512Y-120007927D02*
G01*
X187460812Y-120037624D01*
X187624784Y-120105544D01*
X187772354Y-120204147D01*
X187897853Y-120329646D01*
X187996456Y-120477216D01*
X188064376Y-120641188D01*
X188099000Y-120815259D01*
X188099000Y-120992741D01*
X188064376Y-121166812D01*
X187996456Y-121330784D01*
X187897853Y-121478354D01*
X187772354Y-121603853D01*
X187624784Y-121702456D01*
X187460812Y-121770376D01*
X187311512Y-121800073D01*
X187286742Y-121805000D01*
X187109258Y-121805000D01*
X187084488Y-121800073D01*
X186935188Y-121770376D01*
X186771216Y-121702456D01*
X186623646Y-121603853D01*
X186498147Y-121478354D01*
X186399544Y-121330784D01*
X186331624Y-121166812D01*
X186297000Y-120992741D01*
X186297000Y-120815259D01*
X186331624Y-120641188D01*
X186399544Y-120477216D01*
X186498147Y-120329646D01*
X186623646Y-120204147D01*
X186771216Y-120105544D01*
X186935188Y-120037624D01*
X187084488Y-120007927D01*
X187109258Y-120003000D01*
X187286742Y-120003000D01*
X187311512Y-120007927D01*
G37*
G36*
X135267000Y-121551000D02*
G01*
X133465000Y-121551000D01*
X133465000Y-119749000D01*
X135267000Y-119749000D01*
X135267000Y-121551000D01*
G37*
G36*
X161433855Y-120022140D02*
G01*
X161497618Y-120028420D01*
X161588404Y-120055960D01*
X161620336Y-120065646D01*
X161733425Y-120126094D01*
X161832554Y-120207446D01*
X161913906Y-120306575D01*
X161974354Y-120419664D01*
X161974355Y-120419668D01*
X162011580Y-120542382D01*
X162024149Y-120670000D01*
X162011580Y-120797618D01*
X161984040Y-120888404D01*
X161974354Y-120920336D01*
X161913906Y-121033425D01*
X161832554Y-121132554D01*
X161733425Y-121213906D01*
X161620336Y-121274354D01*
X161588404Y-121284040D01*
X161497618Y-121311580D01*
X161433855Y-121317860D01*
X161401974Y-121321000D01*
X160538026Y-121321000D01*
X160506145Y-121317860D01*
X160442382Y-121311580D01*
X160351596Y-121284040D01*
X160319664Y-121274354D01*
X160206575Y-121213906D01*
X160107446Y-121132554D01*
X160026094Y-121033425D01*
X159965646Y-120920336D01*
X159955960Y-120888404D01*
X159928420Y-120797618D01*
X159915851Y-120670000D01*
X159928420Y-120542382D01*
X159965645Y-120419668D01*
X159965646Y-120419664D01*
X160026094Y-120306575D01*
X160107446Y-120207446D01*
X160206575Y-120126094D01*
X160319664Y-120065646D01*
X160351596Y-120055960D01*
X160442382Y-120028420D01*
X160506145Y-120022140D01*
X160538026Y-120019000D01*
X161401974Y-120019000D01*
X161433855Y-120022140D01*
G37*
G36*
X148733855Y-120022140D02*
G01*
X148797618Y-120028420D01*
X148888404Y-120055960D01*
X148920336Y-120065646D01*
X149033425Y-120126094D01*
X149132554Y-120207446D01*
X149213906Y-120306575D01*
X149274354Y-120419664D01*
X149274355Y-120419668D01*
X149311580Y-120542382D01*
X149324149Y-120670000D01*
X149311580Y-120797618D01*
X149284040Y-120888404D01*
X149274354Y-120920336D01*
X149213906Y-121033425D01*
X149132554Y-121132554D01*
X149033425Y-121213906D01*
X148920336Y-121274354D01*
X148888404Y-121284040D01*
X148797618Y-121311580D01*
X148733855Y-121317860D01*
X148701974Y-121321000D01*
X147838026Y-121321000D01*
X147806145Y-121317860D01*
X147742382Y-121311580D01*
X147651596Y-121284040D01*
X147619664Y-121274354D01*
X147506575Y-121213906D01*
X147407446Y-121132554D01*
X147326094Y-121033425D01*
X147265646Y-120920336D01*
X147255960Y-120888404D01*
X147228420Y-120797618D01*
X147215851Y-120670000D01*
X147228420Y-120542382D01*
X147265645Y-120419668D01*
X147265646Y-120419664D01*
X147326094Y-120306575D01*
X147407446Y-120207446D01*
X147506575Y-120126094D01*
X147619664Y-120065646D01*
X147651596Y-120055960D01*
X147742382Y-120028420D01*
X147806145Y-120022140D01*
X147838026Y-120019000D01*
X148701974Y-120019000D01*
X148733855Y-120022140D01*
G37*
G36*
X189851512Y-117467927D02*
G01*
X190000812Y-117497624D01*
X190164784Y-117565544D01*
X190312354Y-117664147D01*
X190437853Y-117789646D01*
X190536456Y-117937216D01*
X190604376Y-118101188D01*
X190639000Y-118275259D01*
X190639000Y-118452741D01*
X190604376Y-118626812D01*
X190536456Y-118790784D01*
X190437853Y-118938354D01*
X190312354Y-119063853D01*
X190164784Y-119162456D01*
X190000812Y-119230376D01*
X189851512Y-119260073D01*
X189826742Y-119265000D01*
X189649258Y-119265000D01*
X189624488Y-119260073D01*
X189475188Y-119230376D01*
X189311216Y-119162456D01*
X189163646Y-119063853D01*
X189038147Y-118938354D01*
X188939544Y-118790784D01*
X188871624Y-118626812D01*
X188837000Y-118452741D01*
X188837000Y-118275259D01*
X188871624Y-118101188D01*
X188939544Y-117937216D01*
X189038147Y-117789646D01*
X189163646Y-117664147D01*
X189311216Y-117565544D01*
X189475188Y-117497624D01*
X189624488Y-117467927D01*
X189649258Y-117463000D01*
X189826742Y-117463000D01*
X189851512Y-117467927D01*
G37*
G36*
X187311512Y-117467927D02*
G01*
X187460812Y-117497624D01*
X187624784Y-117565544D01*
X187772354Y-117664147D01*
X187897853Y-117789646D01*
X187996456Y-117937216D01*
X188064376Y-118101188D01*
X188099000Y-118275259D01*
X188099000Y-118452741D01*
X188064376Y-118626812D01*
X187996456Y-118790784D01*
X187897853Y-118938354D01*
X187772354Y-119063853D01*
X187624784Y-119162456D01*
X187460812Y-119230376D01*
X187311512Y-119260073D01*
X187286742Y-119265000D01*
X187109258Y-119265000D01*
X187084488Y-119260073D01*
X186935188Y-119230376D01*
X186771216Y-119162456D01*
X186623646Y-119063853D01*
X186498147Y-118938354D01*
X186399544Y-118790784D01*
X186331624Y-118626812D01*
X186297000Y-118452741D01*
X186297000Y-118275259D01*
X186331624Y-118101188D01*
X186399544Y-117937216D01*
X186498147Y-117789646D01*
X186623646Y-117664147D01*
X186771216Y-117565544D01*
X186935188Y-117497624D01*
X187084488Y-117467927D01*
X187109258Y-117463000D01*
X187286742Y-117463000D01*
X187311512Y-117467927D01*
G37*
G36*
X148733855Y-117482140D02*
G01*
X148797618Y-117488420D01*
X148888404Y-117515960D01*
X148920336Y-117525646D01*
X149033425Y-117586094D01*
X149132554Y-117667446D01*
X149213906Y-117766575D01*
X149274354Y-117879664D01*
X149274355Y-117879668D01*
X149311580Y-118002382D01*
X149324149Y-118130000D01*
X149311580Y-118257618D01*
X149284040Y-118348404D01*
X149274354Y-118380336D01*
X149213906Y-118493425D01*
X149132554Y-118592554D01*
X149033425Y-118673906D01*
X148920336Y-118734354D01*
X148888404Y-118744040D01*
X148797618Y-118771580D01*
X148733855Y-118777860D01*
X148701974Y-118781000D01*
X147838026Y-118781000D01*
X147806145Y-118777860D01*
X147742382Y-118771580D01*
X147651596Y-118744040D01*
X147619664Y-118734354D01*
X147506575Y-118673906D01*
X147407446Y-118592554D01*
X147326094Y-118493425D01*
X147265646Y-118380336D01*
X147255960Y-118348404D01*
X147228420Y-118257618D01*
X147215851Y-118130000D01*
X147228420Y-118002382D01*
X147265645Y-117879668D01*
X147265646Y-117879664D01*
X147326094Y-117766575D01*
X147407446Y-117667446D01*
X147506575Y-117586094D01*
X147619664Y-117525646D01*
X147651596Y-117515960D01*
X147742382Y-117488420D01*
X147806145Y-117482140D01*
X147838026Y-117479000D01*
X148701974Y-117479000D01*
X148733855Y-117482140D01*
G37*
G36*
X161433855Y-117482140D02*
G01*
X161497618Y-117488420D01*
X161588404Y-117515960D01*
X161620336Y-117525646D01*
X161733425Y-117586094D01*
X161832554Y-117667446D01*
X161913906Y-117766575D01*
X161974354Y-117879664D01*
X161974355Y-117879668D01*
X162011580Y-118002382D01*
X162024149Y-118130000D01*
X162011580Y-118257618D01*
X161984040Y-118348404D01*
X161974354Y-118380336D01*
X161913906Y-118493425D01*
X161832554Y-118592554D01*
X161733425Y-118673906D01*
X161620336Y-118734354D01*
X161588404Y-118744040D01*
X161497618Y-118771580D01*
X161433855Y-118777860D01*
X161401974Y-118781000D01*
X160538026Y-118781000D01*
X160506145Y-118777860D01*
X160442382Y-118771580D01*
X160351596Y-118744040D01*
X160319664Y-118734354D01*
X160206575Y-118673906D01*
X160107446Y-118592554D01*
X160026094Y-118493425D01*
X159965646Y-118380336D01*
X159955960Y-118348404D01*
X159928420Y-118257618D01*
X159915851Y-118130000D01*
X159928420Y-118002382D01*
X159965645Y-117879668D01*
X159965646Y-117879664D01*
X160026094Y-117766575D01*
X160107446Y-117667446D01*
X160206575Y-117586094D01*
X160319664Y-117525646D01*
X160351596Y-117515960D01*
X160442382Y-117488420D01*
X160506145Y-117482140D01*
X160538026Y-117479000D01*
X161401974Y-117479000D01*
X161433855Y-117482140D01*
G37*
G36*
X187311512Y-114927927D02*
G01*
X187460812Y-114957624D01*
X187624784Y-115025544D01*
X187772354Y-115124147D01*
X187897853Y-115249646D01*
X187996456Y-115397216D01*
X188064376Y-115561188D01*
X188099000Y-115735259D01*
X188099000Y-115912741D01*
X188064376Y-116086812D01*
X187996456Y-116250784D01*
X187897853Y-116398354D01*
X187772354Y-116523853D01*
X187624784Y-116622456D01*
X187460812Y-116690376D01*
X187311512Y-116720073D01*
X187286742Y-116725000D01*
X187109258Y-116725000D01*
X187084488Y-116720073D01*
X186935188Y-116690376D01*
X186771216Y-116622456D01*
X186623646Y-116523853D01*
X186498147Y-116398354D01*
X186399544Y-116250784D01*
X186331624Y-116086812D01*
X186297000Y-115912741D01*
X186297000Y-115735259D01*
X186331624Y-115561188D01*
X186399544Y-115397216D01*
X186498147Y-115249646D01*
X186623646Y-115124147D01*
X186771216Y-115025544D01*
X186935188Y-114957624D01*
X187084488Y-114927927D01*
X187109258Y-114923000D01*
X187286742Y-114923000D01*
X187311512Y-114927927D01*
G37*
G36*
X189851512Y-114927927D02*
G01*
X190000812Y-114957624D01*
X190164784Y-115025544D01*
X190312354Y-115124147D01*
X190437853Y-115249646D01*
X190536456Y-115397216D01*
X190604376Y-115561188D01*
X190639000Y-115735259D01*
X190639000Y-115912741D01*
X190604376Y-116086812D01*
X190536456Y-116250784D01*
X190437853Y-116398354D01*
X190312354Y-116523853D01*
X190164784Y-116622456D01*
X190000812Y-116690376D01*
X189851512Y-116720073D01*
X189826742Y-116725000D01*
X189649258Y-116725000D01*
X189624488Y-116720073D01*
X189475188Y-116690376D01*
X189311216Y-116622456D01*
X189163646Y-116523853D01*
X189038147Y-116398354D01*
X188939544Y-116250784D01*
X188871624Y-116086812D01*
X188837000Y-115912741D01*
X188837000Y-115735259D01*
X188871624Y-115561188D01*
X188939544Y-115397216D01*
X189038147Y-115249646D01*
X189163646Y-115124147D01*
X189311216Y-115025544D01*
X189475188Y-114957624D01*
X189624488Y-114927927D01*
X189649258Y-114923000D01*
X189826742Y-114923000D01*
X189851512Y-114927927D01*
G37*
G36*
X122033512Y-100242928D02*
G01*
X122182812Y-100272625D01*
X122346784Y-100340545D01*
X122494354Y-100439148D01*
X122619853Y-100564647D01*
X122718456Y-100712217D01*
X122786376Y-100876189D01*
X122821000Y-101050260D01*
X122821000Y-101227742D01*
X122786376Y-101401813D01*
X122718456Y-101565785D01*
X122619853Y-101713355D01*
X122494354Y-101838854D01*
X122346784Y-101937457D01*
X122182812Y-102005377D01*
X122033512Y-102035074D01*
X122008742Y-102040001D01*
X121831258Y-102040001D01*
X121806488Y-102035074D01*
X121657188Y-102005377D01*
X121493216Y-101937457D01*
X121345646Y-101838854D01*
X121220147Y-101713355D01*
X121121544Y-101565785D01*
X121053624Y-101401813D01*
X121019000Y-101227742D01*
X121019000Y-101050260D01*
X121053624Y-100876189D01*
X121121544Y-100712217D01*
X121220147Y-100564647D01*
X121345646Y-100439148D01*
X121493216Y-100340545D01*
X121657188Y-100272625D01*
X121806488Y-100242928D01*
X121831258Y-100238001D01*
X122008742Y-100238001D01*
X122033512Y-100242928D01*
G37*
G36*
X109333512Y-100242928D02*
G01*
X109482812Y-100272625D01*
X109646784Y-100340545D01*
X109794354Y-100439148D01*
X109919853Y-100564647D01*
X110018456Y-100712217D01*
X110086376Y-100876189D01*
X110121000Y-101050260D01*
X110121000Y-101227742D01*
X110086376Y-101401813D01*
X110018456Y-101565785D01*
X109919853Y-101713355D01*
X109794354Y-101838854D01*
X109646784Y-101937457D01*
X109482812Y-102005377D01*
X109333512Y-102035074D01*
X109308742Y-102040001D01*
X109131258Y-102040001D01*
X109106488Y-102035074D01*
X108957188Y-102005377D01*
X108793216Y-101937457D01*
X108645646Y-101838854D01*
X108520147Y-101713355D01*
X108421544Y-101565785D01*
X108353624Y-101401813D01*
X108319000Y-101227742D01*
X108319000Y-101050260D01*
X108353624Y-100876189D01*
X108421544Y-100712217D01*
X108520147Y-100564647D01*
X108645646Y-100439148D01*
X108793216Y-100340545D01*
X108957188Y-100272625D01*
X109106488Y-100242928D01*
X109131258Y-100238001D01*
X109308742Y-100238001D01*
X109333512Y-100242928D01*
G37*
G36*
X111873512Y-100242928D02*
G01*
X112022812Y-100272625D01*
X112186784Y-100340545D01*
X112334354Y-100439148D01*
X112459853Y-100564647D01*
X112558456Y-100712217D01*
X112626376Y-100876189D01*
X112661000Y-101050260D01*
X112661000Y-101227742D01*
X112626376Y-101401813D01*
X112558456Y-101565785D01*
X112459853Y-101713355D01*
X112334354Y-101838854D01*
X112186784Y-101937457D01*
X112022812Y-102005377D01*
X111873512Y-102035074D01*
X111848742Y-102040001D01*
X111671258Y-102040001D01*
X111646488Y-102035074D01*
X111497188Y-102005377D01*
X111333216Y-101937457D01*
X111185646Y-101838854D01*
X111060147Y-101713355D01*
X110961544Y-101565785D01*
X110893624Y-101401813D01*
X110859000Y-101227742D01*
X110859000Y-101050260D01*
X110893624Y-100876189D01*
X110961544Y-100712217D01*
X111060147Y-100564647D01*
X111185646Y-100439148D01*
X111333216Y-100340545D01*
X111497188Y-100272625D01*
X111646488Y-100242928D01*
X111671258Y-100238001D01*
X111848742Y-100238001D01*
X111873512Y-100242928D01*
G37*
G36*
X114413512Y-100242928D02*
G01*
X114562812Y-100272625D01*
X114726784Y-100340545D01*
X114874354Y-100439148D01*
X114999853Y-100564647D01*
X115098456Y-100712217D01*
X115166376Y-100876189D01*
X115201000Y-101050260D01*
X115201000Y-101227742D01*
X115166376Y-101401813D01*
X115098456Y-101565785D01*
X114999853Y-101713355D01*
X114874354Y-101838854D01*
X114726784Y-101937457D01*
X114562812Y-102005377D01*
X114413512Y-102035074D01*
X114388742Y-102040001D01*
X114211258Y-102040001D01*
X114186488Y-102035074D01*
X114037188Y-102005377D01*
X113873216Y-101937457D01*
X113725646Y-101838854D01*
X113600147Y-101713355D01*
X113501544Y-101565785D01*
X113433624Y-101401813D01*
X113399000Y-101227742D01*
X113399000Y-101050260D01*
X113433624Y-100876189D01*
X113501544Y-100712217D01*
X113600147Y-100564647D01*
X113725646Y-100439148D01*
X113873216Y-100340545D01*
X114037188Y-100272625D01*
X114186488Y-100242928D01*
X114211258Y-100238001D01*
X114388742Y-100238001D01*
X114413512Y-100242928D01*
G37*
G36*
X116953512Y-100242928D02*
G01*
X117102812Y-100272625D01*
X117266784Y-100340545D01*
X117414354Y-100439148D01*
X117539853Y-100564647D01*
X117638456Y-100712217D01*
X117706376Y-100876189D01*
X117741000Y-101050260D01*
X117741000Y-101227742D01*
X117706376Y-101401813D01*
X117638456Y-101565785D01*
X117539853Y-101713355D01*
X117414354Y-101838854D01*
X117266784Y-101937457D01*
X117102812Y-102005377D01*
X116953512Y-102035074D01*
X116928742Y-102040001D01*
X116751258Y-102040001D01*
X116726488Y-102035074D01*
X116577188Y-102005377D01*
X116413216Y-101937457D01*
X116265646Y-101838854D01*
X116140147Y-101713355D01*
X116041544Y-101565785D01*
X115973624Y-101401813D01*
X115939000Y-101227742D01*
X115939000Y-101050260D01*
X115973624Y-100876189D01*
X116041544Y-100712217D01*
X116140147Y-100564647D01*
X116265646Y-100439148D01*
X116413216Y-100340545D01*
X116577188Y-100272625D01*
X116726488Y-100242928D01*
X116751258Y-100238001D01*
X116928742Y-100238001D01*
X116953512Y-100242928D01*
G37*
G36*
X119493512Y-100242928D02*
G01*
X119642812Y-100272625D01*
X119806784Y-100340545D01*
X119954354Y-100439148D01*
X120079853Y-100564647D01*
X120178456Y-100712217D01*
X120246376Y-100876189D01*
X120281000Y-101050260D01*
X120281000Y-101227742D01*
X120246376Y-101401813D01*
X120178456Y-101565785D01*
X120079853Y-101713355D01*
X119954354Y-101838854D01*
X119806784Y-101937457D01*
X119642812Y-102005377D01*
X119493512Y-102035074D01*
X119468742Y-102040001D01*
X119291258Y-102040001D01*
X119266488Y-102035074D01*
X119117188Y-102005377D01*
X118953216Y-101937457D01*
X118805646Y-101838854D01*
X118680147Y-101713355D01*
X118581544Y-101565785D01*
X118513624Y-101401813D01*
X118479000Y-101227742D01*
X118479000Y-101050260D01*
X118513624Y-100876189D01*
X118581544Y-100712217D01*
X118680147Y-100564647D01*
X118805646Y-100439148D01*
X118953216Y-100340545D01*
X119117188Y-100272625D01*
X119266488Y-100242928D01*
X119291258Y-100238001D01*
X119468742Y-100238001D01*
X119493512Y-100242928D01*
G37*
G36*
X125361000Y-102040001D02*
G01*
X123559000Y-102040001D01*
X123559000Y-100238001D01*
X125361000Y-100238001D01*
X125361000Y-102040001D01*
G37*
G36*
X168160000Y-101993000D02*
G01*
X166358000Y-101993000D01*
X166358000Y-100191000D01*
X168160000Y-100191000D01*
X168160000Y-101993000D01*
G37*
G36*
X162292512Y-100195927D02*
G01*
X162441812Y-100225624D01*
X162605784Y-100293544D01*
X162753354Y-100392147D01*
X162878853Y-100517646D01*
X162977456Y-100665216D01*
X163045376Y-100829188D01*
X163080000Y-101003259D01*
X163080000Y-101180741D01*
X163045376Y-101354812D01*
X162977456Y-101518784D01*
X162878853Y-101666354D01*
X162753354Y-101791853D01*
X162605784Y-101890456D01*
X162441812Y-101958376D01*
X162292512Y-101988073D01*
X162267742Y-101993000D01*
X162090258Y-101993000D01*
X162065488Y-101988073D01*
X161916188Y-101958376D01*
X161752216Y-101890456D01*
X161604646Y-101791853D01*
X161479147Y-101666354D01*
X161380544Y-101518784D01*
X161312624Y-101354812D01*
X161278000Y-101180741D01*
X161278000Y-101003259D01*
X161312624Y-100829188D01*
X161380544Y-100665216D01*
X161479147Y-100517646D01*
X161604646Y-100392147D01*
X161752216Y-100293544D01*
X161916188Y-100225624D01*
X162065488Y-100195927D01*
X162090258Y-100191000D01*
X162267742Y-100191000D01*
X162292512Y-100195927D01*
G37*
G36*
X159752512Y-100195927D02*
G01*
X159901812Y-100225624D01*
X160065784Y-100293544D01*
X160213354Y-100392147D01*
X160338853Y-100517646D01*
X160437456Y-100665216D01*
X160505376Y-100829188D01*
X160540000Y-101003259D01*
X160540000Y-101180741D01*
X160505376Y-101354812D01*
X160437456Y-101518784D01*
X160338853Y-101666354D01*
X160213354Y-101791853D01*
X160065784Y-101890456D01*
X159901812Y-101958376D01*
X159752512Y-101988073D01*
X159727742Y-101993000D01*
X159550258Y-101993000D01*
X159525488Y-101988073D01*
X159376188Y-101958376D01*
X159212216Y-101890456D01*
X159064646Y-101791853D01*
X158939147Y-101666354D01*
X158840544Y-101518784D01*
X158772624Y-101354812D01*
X158738000Y-101180741D01*
X158738000Y-101003259D01*
X158772624Y-100829188D01*
X158840544Y-100665216D01*
X158939147Y-100517646D01*
X159064646Y-100392147D01*
X159212216Y-100293544D01*
X159376188Y-100225624D01*
X159525488Y-100195927D01*
X159550258Y-100191000D01*
X159727742Y-100191000D01*
X159752512Y-100195927D01*
G37*
G36*
X154672512Y-100195927D02*
G01*
X154821812Y-100225624D01*
X154985784Y-100293544D01*
X155133354Y-100392147D01*
X155258853Y-100517646D01*
X155357456Y-100665216D01*
X155425376Y-100829188D01*
X155460000Y-101003259D01*
X155460000Y-101180741D01*
X155425376Y-101354812D01*
X155357456Y-101518784D01*
X155258853Y-101666354D01*
X155133354Y-101791853D01*
X154985784Y-101890456D01*
X154821812Y-101958376D01*
X154672512Y-101988073D01*
X154647742Y-101993000D01*
X154470258Y-101993000D01*
X154445488Y-101988073D01*
X154296188Y-101958376D01*
X154132216Y-101890456D01*
X153984646Y-101791853D01*
X153859147Y-101666354D01*
X153760544Y-101518784D01*
X153692624Y-101354812D01*
X153658000Y-101180741D01*
X153658000Y-101003259D01*
X153692624Y-100829188D01*
X153760544Y-100665216D01*
X153859147Y-100517646D01*
X153984646Y-100392147D01*
X154132216Y-100293544D01*
X154296188Y-100225624D01*
X154445488Y-100195927D01*
X154470258Y-100191000D01*
X154647742Y-100191000D01*
X154672512Y-100195927D01*
G37*
G36*
X164832512Y-100195927D02*
G01*
X164981812Y-100225624D01*
X165145784Y-100293544D01*
X165293354Y-100392147D01*
X165418853Y-100517646D01*
X165517456Y-100665216D01*
X165585376Y-100829188D01*
X165620000Y-101003259D01*
X165620000Y-101180741D01*
X165585376Y-101354812D01*
X165517456Y-101518784D01*
X165418853Y-101666354D01*
X165293354Y-101791853D01*
X165145784Y-101890456D01*
X164981812Y-101958376D01*
X164832512Y-101988073D01*
X164807742Y-101993000D01*
X164630258Y-101993000D01*
X164605488Y-101988073D01*
X164456188Y-101958376D01*
X164292216Y-101890456D01*
X164144646Y-101791853D01*
X164019147Y-101666354D01*
X163920544Y-101518784D01*
X163852624Y-101354812D01*
X163818000Y-101180741D01*
X163818000Y-101003259D01*
X163852624Y-100829188D01*
X163920544Y-100665216D01*
X164019147Y-100517646D01*
X164144646Y-100392147D01*
X164292216Y-100293544D01*
X164456188Y-100225624D01*
X164605488Y-100195927D01*
X164630258Y-100191000D01*
X164807742Y-100191000D01*
X164832512Y-100195927D01*
G37*
G36*
X157212512Y-100195927D02*
G01*
X157361812Y-100225624D01*
X157525784Y-100293544D01*
X157673354Y-100392147D01*
X157798853Y-100517646D01*
X157897456Y-100665216D01*
X157965376Y-100829188D01*
X158000000Y-101003259D01*
X158000000Y-101180741D01*
X157965376Y-101354812D01*
X157897456Y-101518784D01*
X157798853Y-101666354D01*
X157673354Y-101791853D01*
X157525784Y-101890456D01*
X157361812Y-101958376D01*
X157212512Y-101988073D01*
X157187742Y-101993000D01*
X157010258Y-101993000D01*
X156985488Y-101988073D01*
X156836188Y-101958376D01*
X156672216Y-101890456D01*
X156524646Y-101791853D01*
X156399147Y-101666354D01*
X156300544Y-101518784D01*
X156232624Y-101354812D01*
X156198000Y-101180741D01*
X156198000Y-101003259D01*
X156232624Y-100829188D01*
X156300544Y-100665216D01*
X156399147Y-100517646D01*
X156524646Y-100392147D01*
X156672216Y-100293544D01*
X156836188Y-100225624D01*
X156985488Y-100195927D01*
X157010258Y-100191000D01*
X157187742Y-100191000D01*
X157212512Y-100195927D01*
G37*
G36*
X134709228Y-100146703D02*
G01*
X134864100Y-100210853D01*
X135003481Y-100303985D01*
X135122015Y-100422519D01*
X135215147Y-100561900D01*
X135279297Y-100716772D01*
X135312000Y-100881184D01*
X135312000Y-101048816D01*
X135279297Y-101213228D01*
X135215147Y-101368100D01*
X135122015Y-101507481D01*
X135003481Y-101626015D01*
X134864100Y-101719147D01*
X134709228Y-101783297D01*
X134544816Y-101816000D01*
X134377184Y-101816000D01*
X134212772Y-101783297D01*
X134057900Y-101719147D01*
X133918519Y-101626015D01*
X133799985Y-101507481D01*
X133706853Y-101368100D01*
X133642703Y-101213228D01*
X133610000Y-101048816D01*
X133610000Y-100881184D01*
X133642703Y-100716772D01*
X133706853Y-100561900D01*
X133799985Y-100422519D01*
X133918519Y-100303985D01*
X134057900Y-100210853D01*
X134212772Y-100146703D01*
X134377184Y-100114000D01*
X134544816Y-100114000D01*
X134709228Y-100146703D01*
G37*
G36*
X133312000Y-101816000D02*
G01*
X131610000Y-101816000D01*
X131610000Y-100114000D01*
X133312000Y-100114000D01*
X133312000Y-101816000D01*
G37*
G36*
X186498228Y-99681703D02*
G01*
X186653100Y-99745853D01*
X186792481Y-99838985D01*
X186911015Y-99957519D01*
X187004147Y-100096900D01*
X187068297Y-100251772D01*
X187101000Y-100416184D01*
X187101000Y-100583816D01*
X187068297Y-100748228D01*
X187004147Y-100903100D01*
X186911015Y-101042481D01*
X186792481Y-101161015D01*
X186653100Y-101254147D01*
X186498228Y-101318297D01*
X186333816Y-101351000D01*
X186166184Y-101351000D01*
X186001772Y-101318297D01*
X185846900Y-101254147D01*
X185707519Y-101161015D01*
X185588985Y-101042481D01*
X185495853Y-100903100D01*
X185431703Y-100748228D01*
X185399000Y-100583816D01*
X185399000Y-100416184D01*
X185431703Y-100251772D01*
X185495853Y-100096900D01*
X185588985Y-99957519D01*
X185707519Y-99838985D01*
X185846900Y-99745853D01*
X186001772Y-99681703D01*
X186166184Y-99649000D01*
X186333816Y-99649000D01*
X186498228Y-99681703D01*
G37*
G36*
X181498228Y-99681703D02*
G01*
X181653100Y-99745853D01*
X181792481Y-99838985D01*
X181911015Y-99957519D01*
X182004147Y-100096900D01*
X182068297Y-100251772D01*
X182101000Y-100416184D01*
X182101000Y-100583816D01*
X182068297Y-100748228D01*
X182004147Y-100903100D01*
X181911015Y-101042481D01*
X181792481Y-101161015D01*
X181653100Y-101254147D01*
X181498228Y-101318297D01*
X181333816Y-101351000D01*
X181166184Y-101351000D01*
X181001772Y-101318297D01*
X180846900Y-101254147D01*
X180707519Y-101161015D01*
X180588985Y-101042481D01*
X180495853Y-100903100D01*
X180431703Y-100748228D01*
X180399000Y-100583816D01*
X180399000Y-100416184D01*
X180431703Y-100251772D01*
X180495853Y-100096900D01*
X180588985Y-99957519D01*
X180707519Y-99838985D01*
X180846900Y-99745853D01*
X181001772Y-99681703D01*
X181166184Y-99649000D01*
X181333816Y-99649000D01*
X181498228Y-99681703D01*
G37*
G36*
X97818433Y-92384893D02*
G01*
X97908657Y-92402839D01*
X98014267Y-92446585D01*
X98163621Y-92508449D01*
X98163622Y-92508450D01*
X98393086Y-92661772D01*
X98588228Y-92856914D01*
X98690675Y-93010237D01*
X98741551Y-93086379D01*
X98847161Y-93341344D01*
X98901000Y-93612012D01*
X98901000Y-93887988D01*
X98847161Y-94158656D01*
X98741551Y-94413621D01*
X98741550Y-94413622D01*
X98588228Y-94643086D01*
X98393086Y-94838228D01*
X98239763Y-94940675D01*
X98163621Y-94991551D01*
X98014267Y-95053415D01*
X97908657Y-95097161D01*
X97818433Y-95115107D01*
X97637988Y-95151000D01*
X97362012Y-95151000D01*
X97181567Y-95115107D01*
X97091343Y-95097161D01*
X96985733Y-95053415D01*
X96836379Y-94991551D01*
X96760237Y-94940675D01*
X96606914Y-94838228D01*
X96411772Y-94643086D01*
X96258450Y-94413622D01*
X96258449Y-94413621D01*
X96152839Y-94158656D01*
X96099000Y-93887988D01*
X96099000Y-93612012D01*
X96152839Y-93341344D01*
X96258449Y-93086379D01*
X96309325Y-93010237D01*
X96411772Y-92856914D01*
X96606914Y-92661772D01*
X96836378Y-92508450D01*
X96836379Y-92508449D01*
X96985733Y-92446585D01*
X97091343Y-92402839D01*
X97181567Y-92384893D01*
X97362012Y-92349000D01*
X97637988Y-92349000D01*
X97818433Y-92384893D01*
G37*
G36*
X190918433Y-92384893D02*
G01*
X191008657Y-92402839D01*
X191114267Y-92446585D01*
X191263621Y-92508449D01*
X191263622Y-92508450D01*
X191493086Y-92661772D01*
X191688228Y-92856914D01*
X191790675Y-93010237D01*
X191841551Y-93086379D01*
X191947161Y-93341344D01*
X192001000Y-93612012D01*
X192001000Y-93887988D01*
X191947161Y-94158656D01*
X191841551Y-94413621D01*
X191841550Y-94413622D01*
X191688228Y-94643086D01*
X191493086Y-94838228D01*
X191339763Y-94940675D01*
X191263621Y-94991551D01*
X191114267Y-95053415D01*
X191008657Y-95097161D01*
X190918433Y-95115107D01*
X190737988Y-95151000D01*
X190462012Y-95151000D01*
X190281567Y-95115107D01*
X190191343Y-95097161D01*
X190085733Y-95053415D01*
X189936379Y-94991551D01*
X189860237Y-94940675D01*
X189706914Y-94838228D01*
X189511772Y-94643086D01*
X189358450Y-94413622D01*
X189358449Y-94413621D01*
X189252839Y-94158656D01*
X189199000Y-93887988D01*
X189199000Y-93612012D01*
X189252839Y-93341344D01*
X189358449Y-93086379D01*
X189409325Y-93010237D01*
X189511772Y-92856914D01*
X189706914Y-92661772D01*
X189936378Y-92508450D01*
X189936379Y-92508449D01*
X190085733Y-92446585D01*
X190191343Y-92402839D01*
X190281567Y-92384893D01*
X190462012Y-92349000D01*
X190737988Y-92349000D01*
X190918433Y-92384893D01*
G37*
G36*
X181947142Y-86698242D02*
G01*
X182095101Y-86759529D01*
X182228255Y-86848499D01*
X182341501Y-86961745D01*
X182430471Y-87094899D01*
X182491758Y-87242858D01*
X182523000Y-87399925D01*
X182523000Y-87560075D01*
X182491758Y-87717142D01*
X182430471Y-87865101D01*
X182341501Y-87998255D01*
X182228255Y-88111501D01*
X182095101Y-88200471D01*
X181947142Y-88261758D01*
X181790075Y-88293000D01*
X181629925Y-88293000D01*
X181472858Y-88261758D01*
X181324899Y-88200471D01*
X181191745Y-88111501D01*
X181078499Y-87998255D01*
X180989529Y-87865101D01*
X180928242Y-87717142D01*
X180897000Y-87560075D01*
X180897000Y-87399925D01*
X180928242Y-87242858D01*
X180989529Y-87094899D01*
X181078499Y-86961745D01*
X181191745Y-86848499D01*
X181324899Y-86759529D01*
X181472858Y-86698242D01*
X181629925Y-86667000D01*
X181790075Y-86667000D01*
X181947142Y-86698242D01*
G37*
G36*
X185853142Y-86698242D02*
G01*
X186001101Y-86759529D01*
X186134255Y-86848499D01*
X186247501Y-86961745D01*
X186336471Y-87094899D01*
X186397758Y-87242858D01*
X186429000Y-87399925D01*
X186429000Y-87560075D01*
X186397758Y-87717142D01*
X186336471Y-87865101D01*
X186247501Y-87998255D01*
X186134255Y-88111501D01*
X186001101Y-88200471D01*
X185853142Y-88261758D01*
X185696075Y-88293000D01*
X185535925Y-88293000D01*
X185378858Y-88261758D01*
X185230899Y-88200471D01*
X185097745Y-88111501D01*
X184984499Y-87998255D01*
X184895529Y-87865101D01*
X184834242Y-87717142D01*
X184803000Y-87560075D01*
X184803000Y-87399925D01*
X184834242Y-87242858D01*
X184895529Y-87094899D01*
X184984499Y-86961745D01*
X185097745Y-86848499D01*
X185230899Y-86759529D01*
X185378858Y-86698242D01*
X185535925Y-86667000D01*
X185696075Y-86667000D01*
X185853142Y-86698242D01*
G37*
G36*
X189759142Y-86698242D02*
G01*
X189907101Y-86759529D01*
X190040255Y-86848499D01*
X190153501Y-86961745D01*
X190242471Y-87094899D01*
X190303758Y-87242858D01*
X190335000Y-87399925D01*
X190335000Y-87560075D01*
X190303758Y-87717142D01*
X190242471Y-87865101D01*
X190153501Y-87998255D01*
X190040255Y-88111501D01*
X189907101Y-88200471D01*
X189759142Y-88261758D01*
X189602075Y-88293000D01*
X189441925Y-88293000D01*
X189284858Y-88261758D01*
X189136899Y-88200471D01*
X189003745Y-88111501D01*
X188890499Y-87998255D01*
X188801529Y-87865101D01*
X188740242Y-87717142D01*
X188709000Y-87560075D01*
X188709000Y-87399925D01*
X188740242Y-87242858D01*
X188801529Y-87094899D01*
X188890499Y-86961745D01*
X189003745Y-86848499D01*
X189136899Y-86759529D01*
X189284858Y-86698242D01*
X189441925Y-86667000D01*
X189602075Y-86667000D01*
X189759142Y-86698242D01*
G37*
G36*
X104852325Y-84421743D02*
G01*
X105008657Y-84452839D01*
X105114267Y-84496585D01*
X105263621Y-84558449D01*
X105263622Y-84558450D01*
X105493086Y-84711772D01*
X105688228Y-84906914D01*
X105763839Y-85020075D01*
X105841551Y-85136379D01*
X105866186Y-85195853D01*
X105947161Y-85391343D01*
X105950379Y-85407520D01*
X106001000Y-85662012D01*
X106001000Y-85937988D01*
X105947161Y-86208656D01*
X105841551Y-86463621D01*
X105822268Y-86492480D01*
X105688228Y-86693086D01*
X105493086Y-86888228D01*
X105383062Y-86961743D01*
X105263621Y-87041551D01*
X105134825Y-87094900D01*
X105008657Y-87147161D01*
X104918433Y-87165107D01*
X104737988Y-87201000D01*
X104462012Y-87201000D01*
X104281567Y-87165107D01*
X104191343Y-87147161D01*
X104065175Y-87094900D01*
X103936379Y-87041551D01*
X103816938Y-86961743D01*
X103706914Y-86888228D01*
X103511772Y-86693086D01*
X103377732Y-86492480D01*
X103358449Y-86463621D01*
X103252839Y-86208656D01*
X103199000Y-85937988D01*
X103199000Y-85662012D01*
X103249621Y-85407520D01*
X103252839Y-85391343D01*
X103333814Y-85195853D01*
X103358449Y-85136379D01*
X103436161Y-85020075D01*
X103511772Y-84906914D01*
X103706914Y-84711772D01*
X103936378Y-84558450D01*
X103936379Y-84558449D01*
X104085733Y-84496585D01*
X104191343Y-84452839D01*
X104347675Y-84421743D01*
X104462012Y-84399000D01*
X104737988Y-84399000D01*
X104852325Y-84421743D01*
G37*
G36*
X191825512Y-85313927D02*
G01*
X191974812Y-85343624D01*
X192138784Y-85411544D01*
X192286354Y-85510147D01*
X192411853Y-85635646D01*
X192510456Y-85783216D01*
X192578376Y-85947188D01*
X192613000Y-86121259D01*
X192613000Y-86298741D01*
X192578376Y-86472812D01*
X192510456Y-86636784D01*
X192411853Y-86784354D01*
X192286354Y-86909853D01*
X192138784Y-87008456D01*
X191974812Y-87076376D01*
X191825512Y-87106073D01*
X191800742Y-87111000D01*
X191623258Y-87111000D01*
X191598488Y-87106073D01*
X191449188Y-87076376D01*
X191285216Y-87008456D01*
X191137646Y-86909853D01*
X191012147Y-86784354D01*
X190913544Y-86636784D01*
X190845624Y-86472812D01*
X190811000Y-86298741D01*
X190811000Y-86121259D01*
X190845624Y-85947188D01*
X190913544Y-85783216D01*
X191012147Y-85635646D01*
X191137646Y-85510147D01*
X191285216Y-85411544D01*
X191449188Y-85343624D01*
X191598488Y-85313927D01*
X191623258Y-85309000D01*
X191800742Y-85309000D01*
X191825512Y-85313927D01*
G37*
G36*
X179633512Y-85313927D02*
G01*
X179782812Y-85343624D01*
X179946784Y-85411544D01*
X180094354Y-85510147D01*
X180219853Y-85635646D01*
X180318456Y-85783216D01*
X180386376Y-85947188D01*
X180421000Y-86121259D01*
X180421000Y-86298741D01*
X180386376Y-86472812D01*
X180318456Y-86636784D01*
X180219853Y-86784354D01*
X180094354Y-86909853D01*
X179946784Y-87008456D01*
X179782812Y-87076376D01*
X179633512Y-87106073D01*
X179608742Y-87111000D01*
X179431258Y-87111000D01*
X179406488Y-87106073D01*
X179257188Y-87076376D01*
X179093216Y-87008456D01*
X178945646Y-86909853D01*
X178820147Y-86784354D01*
X178721544Y-86636784D01*
X178653624Y-86472812D01*
X178619000Y-86298741D01*
X178619000Y-86121259D01*
X178653624Y-85947188D01*
X178721544Y-85783216D01*
X178820147Y-85635646D01*
X178945646Y-85510147D01*
X179093216Y-85411544D01*
X179257188Y-85343624D01*
X179406488Y-85313927D01*
X179431258Y-85309000D01*
X179608742Y-85309000D01*
X179633512Y-85313927D01*
G37*
G36*
X110548228Y-85131703D02*
G01*
X110703100Y-85195853D01*
X110842481Y-85288985D01*
X110961015Y-85407519D01*
X111054147Y-85546900D01*
X111118297Y-85701772D01*
X111151000Y-85866184D01*
X111151000Y-86033816D01*
X111118297Y-86198228D01*
X111054147Y-86353100D01*
X110961015Y-86492481D01*
X110842481Y-86611015D01*
X110703100Y-86704147D01*
X110548228Y-86768297D01*
X110383816Y-86801000D01*
X110216184Y-86801000D01*
X110051772Y-86768297D01*
X109896900Y-86704147D01*
X109757519Y-86611015D01*
X109638985Y-86492481D01*
X109545853Y-86353100D01*
X109481703Y-86198228D01*
X109449000Y-86033816D01*
X109449000Y-85866184D01*
X109481703Y-85701772D01*
X109545853Y-85546900D01*
X109638985Y-85407519D01*
X109757519Y-85288985D01*
X109896900Y-85195853D01*
X110051772Y-85131703D01*
X110216184Y-85099000D01*
X110383816Y-85099000D01*
X110548228Y-85131703D01*
G37*
G36*
X189759142Y-84158242D02*
G01*
X189907101Y-84219529D01*
X190040255Y-84308499D01*
X190153501Y-84421745D01*
X190242471Y-84554899D01*
X190303758Y-84702858D01*
X190335000Y-84859925D01*
X190335000Y-85020075D01*
X190303758Y-85177142D01*
X190242471Y-85325101D01*
X190153501Y-85458255D01*
X190040255Y-85571501D01*
X189907101Y-85660471D01*
X189759142Y-85721758D01*
X189602075Y-85753000D01*
X189441925Y-85753000D01*
X189284858Y-85721758D01*
X189136899Y-85660471D01*
X189003745Y-85571501D01*
X188890499Y-85458255D01*
X188801529Y-85325101D01*
X188740242Y-85177142D01*
X188709000Y-85020075D01*
X188709000Y-84859925D01*
X188740242Y-84702858D01*
X188801529Y-84554899D01*
X188890499Y-84421745D01*
X189003745Y-84308499D01*
X189136899Y-84219529D01*
X189284858Y-84158242D01*
X189441925Y-84127000D01*
X189602075Y-84127000D01*
X189759142Y-84158242D01*
G37*
G36*
X181947142Y-84158242D02*
G01*
X182095101Y-84219529D01*
X182228255Y-84308499D01*
X182341501Y-84421745D01*
X182430471Y-84554899D01*
X182491758Y-84702858D01*
X182523000Y-84859925D01*
X182523000Y-85020075D01*
X182491758Y-85177142D01*
X182430471Y-85325101D01*
X182341501Y-85458255D01*
X182228255Y-85571501D01*
X182095101Y-85660471D01*
X181947142Y-85721758D01*
X181790075Y-85753000D01*
X181629925Y-85753000D01*
X181472858Y-85721758D01*
X181324899Y-85660471D01*
X181191745Y-85571501D01*
X181078499Y-85458255D01*
X180989529Y-85325101D01*
X180928242Y-85177142D01*
X180897000Y-85020075D01*
X180897000Y-84859925D01*
X180928242Y-84702858D01*
X180989529Y-84554899D01*
X181078499Y-84421745D01*
X181191745Y-84308499D01*
X181324899Y-84219529D01*
X181472858Y-84158242D01*
X181629925Y-84127000D01*
X181790075Y-84127000D01*
X181947142Y-84158242D01*
G37*
G36*
X185853142Y-84158242D02*
G01*
X186001101Y-84219529D01*
X186134255Y-84308499D01*
X186247501Y-84421745D01*
X186336471Y-84554899D01*
X186397758Y-84702858D01*
X186429000Y-84859925D01*
X186429000Y-85020075D01*
X186397758Y-85177142D01*
X186336471Y-85325101D01*
X186247501Y-85458255D01*
X186134255Y-85571501D01*
X186001101Y-85660471D01*
X185853142Y-85721758D01*
X185696075Y-85753000D01*
X185535925Y-85753000D01*
X185378858Y-85721758D01*
X185230899Y-85660471D01*
X185097745Y-85571501D01*
X184984499Y-85458255D01*
X184895529Y-85325101D01*
X184834242Y-85177142D01*
X184803000Y-85020075D01*
X184803000Y-84859925D01*
X184834242Y-84702858D01*
X184895529Y-84554899D01*
X184984499Y-84421745D01*
X185097745Y-84308499D01*
X185230899Y-84219529D01*
X185378858Y-84158242D01*
X185535925Y-84127000D01*
X185696075Y-84127000D01*
X185853142Y-84158242D01*
G37*
G36*
X124177022Y-82280590D02*
G01*
X124277681Y-82311125D01*
X124328012Y-82326392D01*
X124418230Y-82374615D01*
X124467164Y-82400771D01*
X124589133Y-82500867D01*
X124677740Y-82608836D01*
X124689229Y-82622835D01*
X124763608Y-82761987D01*
X124777616Y-82808165D01*
X124809410Y-82912977D01*
X124821000Y-83030655D01*
X124821000Y-83609345D01*
X124809410Y-83727023D01*
X124786110Y-83803833D01*
X124763608Y-83878013D01*
X124689229Y-84017165D01*
X124589133Y-84139133D01*
X124467165Y-84239229D01*
X124328013Y-84313608D01*
X124277682Y-84328875D01*
X124177023Y-84359410D01*
X124020000Y-84374875D01*
X123862978Y-84359410D01*
X123762319Y-84328875D01*
X123711988Y-84313608D01*
X123572836Y-84239229D01*
X123450868Y-84139133D01*
X123440911Y-84127000D01*
X123350771Y-84017165D01*
X123295607Y-83913961D01*
X123276392Y-83878013D01*
X123253890Y-83803833D01*
X123230590Y-83727023D01*
X123219000Y-83609345D01*
X123219000Y-83030656D01*
X123230590Y-82912978D01*
X123276392Y-82761989D01*
X123276392Y-82761988D01*
X123350771Y-82622836D01*
X123380627Y-82586456D01*
X123450867Y-82500867D01*
X123572835Y-82400771D01*
X123621769Y-82374615D01*
X123711987Y-82326392D01*
X123762318Y-82311125D01*
X123862977Y-82280590D01*
X124020000Y-82265125D01*
X124177022Y-82280590D01*
G37*
G36*
X167357023Y-82266590D02*
G01*
X167451964Y-82295390D01*
X167508013Y-82312392D01*
X167647165Y-82386771D01*
X167769133Y-82486867D01*
X167869229Y-82608835D01*
X167943608Y-82747987D01*
X167943608Y-82747988D01*
X167989410Y-82898977D01*
X168001000Y-83016655D01*
X168001000Y-83595345D01*
X167989410Y-83713023D01*
X167985163Y-83727023D01*
X167943608Y-83864013D01*
X167869230Y-84003164D01*
X167869229Y-84003165D01*
X167769133Y-84125133D01*
X167647164Y-84225229D01*
X167508012Y-84299608D01*
X167478695Y-84308501D01*
X167357022Y-84345410D01*
X167200000Y-84360875D01*
X167042977Y-84345410D01*
X166921304Y-84308501D01*
X166891987Y-84299608D01*
X166752835Y-84225229D01*
X166630867Y-84125133D01*
X166530771Y-84003164D01*
X166463876Y-83878013D01*
X166456392Y-83864012D01*
X166438137Y-83803833D01*
X166410590Y-83713022D01*
X166399000Y-83595344D01*
X166399000Y-83016655D01*
X166410590Y-82898977D01*
X166456392Y-82747988D01*
X166456392Y-82747987D01*
X166487922Y-82689000D01*
X166530771Y-82608835D01*
X166630868Y-82486867D01*
X166752836Y-82386771D01*
X166798517Y-82362354D01*
X166891988Y-82312392D01*
X166948037Y-82295390D01*
X167042978Y-82266590D01*
X167200000Y-82251125D01*
X167357023Y-82266590D01*
G37*
G36*
X129257023Y-82266590D02*
G01*
X129351964Y-82295390D01*
X129408013Y-82312392D01*
X129547165Y-82386771D01*
X129669133Y-82486867D01*
X129769229Y-82608835D01*
X129843608Y-82747987D01*
X129843608Y-82747988D01*
X129889410Y-82898977D01*
X129901000Y-83016655D01*
X129901000Y-83595345D01*
X129889410Y-83713023D01*
X129885163Y-83727023D01*
X129843608Y-83864013D01*
X129769230Y-84003164D01*
X129769229Y-84003165D01*
X129669133Y-84125133D01*
X129547164Y-84225229D01*
X129408012Y-84299608D01*
X129378695Y-84308501D01*
X129257022Y-84345410D01*
X129100000Y-84360875D01*
X128942977Y-84345410D01*
X128821304Y-84308501D01*
X128791987Y-84299608D01*
X128652835Y-84225229D01*
X128530867Y-84125133D01*
X128430771Y-84003164D01*
X128363876Y-83878013D01*
X128356392Y-83864012D01*
X128338137Y-83803833D01*
X128310590Y-83713022D01*
X128299000Y-83595344D01*
X128299000Y-83016655D01*
X128310590Y-82898977D01*
X128356392Y-82747988D01*
X128356392Y-82747987D01*
X128387922Y-82689000D01*
X128430771Y-82608835D01*
X128530868Y-82486867D01*
X128652836Y-82386771D01*
X128698517Y-82362354D01*
X128791988Y-82312392D01*
X128848037Y-82295390D01*
X128942978Y-82266590D01*
X129100000Y-82251125D01*
X129257023Y-82266590D01*
G37*
G36*
X131797023Y-82266590D02*
G01*
X131891964Y-82295390D01*
X131948013Y-82312392D01*
X132087165Y-82386771D01*
X132209133Y-82486867D01*
X132309229Y-82608835D01*
X132383608Y-82747987D01*
X132383608Y-82747988D01*
X132429410Y-82898977D01*
X132441000Y-83016655D01*
X132441000Y-83595345D01*
X132429410Y-83713023D01*
X132425163Y-83727023D01*
X132383608Y-83864013D01*
X132309230Y-84003164D01*
X132309229Y-84003165D01*
X132209133Y-84125133D01*
X132087164Y-84225229D01*
X131948012Y-84299608D01*
X131918695Y-84308501D01*
X131797022Y-84345410D01*
X131640000Y-84360875D01*
X131482977Y-84345410D01*
X131361304Y-84308501D01*
X131331987Y-84299608D01*
X131192835Y-84225229D01*
X131070867Y-84125133D01*
X130970771Y-84003164D01*
X130903876Y-83878013D01*
X130896392Y-83864012D01*
X130878137Y-83803833D01*
X130850590Y-83713022D01*
X130839000Y-83595344D01*
X130839000Y-83016655D01*
X130850590Y-82898977D01*
X130896392Y-82747988D01*
X130896392Y-82747987D01*
X130927922Y-82689000D01*
X130970771Y-82608835D01*
X131070868Y-82486867D01*
X131192836Y-82386771D01*
X131238517Y-82362354D01*
X131331988Y-82312392D01*
X131388037Y-82295390D01*
X131482978Y-82266590D01*
X131640000Y-82251125D01*
X131797023Y-82266590D01*
G37*
G36*
X134337023Y-82266590D02*
G01*
X134431964Y-82295390D01*
X134488013Y-82312392D01*
X134627165Y-82386771D01*
X134749133Y-82486867D01*
X134849229Y-82608835D01*
X134923608Y-82747987D01*
X134923608Y-82747988D01*
X134969410Y-82898977D01*
X134981000Y-83016655D01*
X134981000Y-83595345D01*
X134969410Y-83713023D01*
X134965163Y-83727023D01*
X134923608Y-83864013D01*
X134849230Y-84003164D01*
X134849229Y-84003165D01*
X134749133Y-84125133D01*
X134627164Y-84225229D01*
X134488012Y-84299608D01*
X134458695Y-84308501D01*
X134337022Y-84345410D01*
X134180000Y-84360875D01*
X134022977Y-84345410D01*
X133901304Y-84308501D01*
X133871987Y-84299608D01*
X133732835Y-84225229D01*
X133610867Y-84125133D01*
X133510771Y-84003164D01*
X133443876Y-83878013D01*
X133436392Y-83864012D01*
X133418137Y-83803833D01*
X133390590Y-83713022D01*
X133379000Y-83595344D01*
X133379000Y-83016655D01*
X133390590Y-82898977D01*
X133436392Y-82747988D01*
X133436392Y-82747987D01*
X133467922Y-82689000D01*
X133510771Y-82608835D01*
X133610868Y-82486867D01*
X133732836Y-82386771D01*
X133778517Y-82362354D01*
X133871988Y-82312392D01*
X133928037Y-82295390D01*
X134022978Y-82266590D01*
X134180000Y-82251125D01*
X134337023Y-82266590D01*
G37*
G36*
X136877023Y-82266590D02*
G01*
X136971964Y-82295390D01*
X137028013Y-82312392D01*
X137167165Y-82386771D01*
X137289133Y-82486867D01*
X137389229Y-82608835D01*
X137463608Y-82747987D01*
X137463608Y-82747988D01*
X137509410Y-82898977D01*
X137521000Y-83016655D01*
X137521000Y-83595345D01*
X137509410Y-83713023D01*
X137505163Y-83727023D01*
X137463608Y-83864013D01*
X137389230Y-84003164D01*
X137389229Y-84003165D01*
X137289133Y-84125133D01*
X137167164Y-84225229D01*
X137028012Y-84299608D01*
X136998695Y-84308501D01*
X136877022Y-84345410D01*
X136720000Y-84360875D01*
X136562977Y-84345410D01*
X136441304Y-84308501D01*
X136411987Y-84299608D01*
X136272835Y-84225229D01*
X136150867Y-84125133D01*
X136050771Y-84003164D01*
X135983876Y-83878013D01*
X135976392Y-83864012D01*
X135958137Y-83803833D01*
X135930590Y-83713022D01*
X135919000Y-83595344D01*
X135919000Y-83016655D01*
X135930590Y-82898977D01*
X135976392Y-82747988D01*
X135976392Y-82747987D01*
X136007922Y-82689000D01*
X136050771Y-82608835D01*
X136150868Y-82486867D01*
X136272836Y-82386771D01*
X136318517Y-82362354D01*
X136411988Y-82312392D01*
X136468037Y-82295390D01*
X136562978Y-82266590D01*
X136720000Y-82251125D01*
X136877023Y-82266590D01*
G37*
G36*
X141957023Y-82266590D02*
G01*
X142051964Y-82295390D01*
X142108013Y-82312392D01*
X142247165Y-82386771D01*
X142369133Y-82486867D01*
X142469229Y-82608835D01*
X142543608Y-82747987D01*
X142543608Y-82747988D01*
X142589410Y-82898977D01*
X142601000Y-83016655D01*
X142601000Y-83595345D01*
X142589410Y-83713023D01*
X142585163Y-83727023D01*
X142543608Y-83864013D01*
X142469230Y-84003164D01*
X142469229Y-84003165D01*
X142369133Y-84125133D01*
X142247164Y-84225229D01*
X142108012Y-84299608D01*
X142078695Y-84308501D01*
X141957022Y-84345410D01*
X141800000Y-84360875D01*
X141642977Y-84345410D01*
X141521304Y-84308501D01*
X141491987Y-84299608D01*
X141352835Y-84225229D01*
X141230867Y-84125133D01*
X141130771Y-84003164D01*
X141063876Y-83878013D01*
X141056392Y-83864012D01*
X141038137Y-83803833D01*
X141010590Y-83713022D01*
X140999000Y-83595344D01*
X140999000Y-83016655D01*
X141010590Y-82898977D01*
X141056392Y-82747988D01*
X141056392Y-82747987D01*
X141087922Y-82689000D01*
X141130771Y-82608835D01*
X141230868Y-82486867D01*
X141352836Y-82386771D01*
X141398517Y-82362354D01*
X141491988Y-82312392D01*
X141548037Y-82295390D01*
X141642978Y-82266590D01*
X141800000Y-82251125D01*
X141957023Y-82266590D01*
G37*
G36*
X147037023Y-82266590D02*
G01*
X147131964Y-82295390D01*
X147188013Y-82312392D01*
X147327165Y-82386771D01*
X147449133Y-82486867D01*
X147549229Y-82608835D01*
X147623608Y-82747987D01*
X147623608Y-82747988D01*
X147669410Y-82898977D01*
X147681000Y-83016655D01*
X147681000Y-83595345D01*
X147669410Y-83713023D01*
X147665163Y-83727023D01*
X147623608Y-83864013D01*
X147549230Y-84003164D01*
X147549229Y-84003165D01*
X147449133Y-84125133D01*
X147327164Y-84225229D01*
X147188012Y-84299608D01*
X147158695Y-84308501D01*
X147037022Y-84345410D01*
X146880000Y-84360875D01*
X146722977Y-84345410D01*
X146601304Y-84308501D01*
X146571987Y-84299608D01*
X146432835Y-84225229D01*
X146310867Y-84125133D01*
X146210771Y-84003164D01*
X146143876Y-83878013D01*
X146136392Y-83864012D01*
X146118137Y-83803833D01*
X146090590Y-83713022D01*
X146079000Y-83595344D01*
X146079000Y-83016655D01*
X146090590Y-82898977D01*
X146136392Y-82747988D01*
X146136392Y-82747987D01*
X146167922Y-82689000D01*
X146210771Y-82608835D01*
X146310868Y-82486867D01*
X146432836Y-82386771D01*
X146478517Y-82362354D01*
X146571988Y-82312392D01*
X146628037Y-82295390D01*
X146722978Y-82266590D01*
X146880000Y-82251125D01*
X147037023Y-82266590D01*
G37*
G36*
X149577023Y-82266590D02*
G01*
X149671964Y-82295390D01*
X149728013Y-82312392D01*
X149867165Y-82386771D01*
X149989133Y-82486867D01*
X150089229Y-82608835D01*
X150163608Y-82747987D01*
X150163608Y-82747988D01*
X150209410Y-82898977D01*
X150221000Y-83016655D01*
X150221000Y-83595345D01*
X150209410Y-83713023D01*
X150205163Y-83727023D01*
X150163608Y-83864013D01*
X150089230Y-84003164D01*
X150089229Y-84003165D01*
X149989133Y-84125133D01*
X149867164Y-84225229D01*
X149728012Y-84299608D01*
X149698695Y-84308501D01*
X149577022Y-84345410D01*
X149420000Y-84360875D01*
X149262977Y-84345410D01*
X149141304Y-84308501D01*
X149111987Y-84299608D01*
X148972835Y-84225229D01*
X148850867Y-84125133D01*
X148750771Y-84003164D01*
X148683876Y-83878013D01*
X148676392Y-83864012D01*
X148658137Y-83803833D01*
X148630590Y-83713022D01*
X148619000Y-83595344D01*
X148619000Y-83016655D01*
X148630590Y-82898977D01*
X148676392Y-82747988D01*
X148676392Y-82747987D01*
X148707922Y-82689000D01*
X148750771Y-82608835D01*
X148850868Y-82486867D01*
X148972836Y-82386771D01*
X149018517Y-82362354D01*
X149111988Y-82312392D01*
X149168037Y-82295390D01*
X149262978Y-82266590D01*
X149420000Y-82251125D01*
X149577023Y-82266590D01*
G37*
G36*
X152117023Y-82266590D02*
G01*
X152211964Y-82295390D01*
X152268013Y-82312392D01*
X152407165Y-82386771D01*
X152529133Y-82486867D01*
X152629229Y-82608835D01*
X152703608Y-82747987D01*
X152703608Y-82747988D01*
X152749410Y-82898977D01*
X152761000Y-83016655D01*
X152761000Y-83595345D01*
X152749410Y-83713023D01*
X152745163Y-83727023D01*
X152703608Y-83864013D01*
X152629230Y-84003164D01*
X152629229Y-84003165D01*
X152529133Y-84125133D01*
X152407164Y-84225229D01*
X152268012Y-84299608D01*
X152238695Y-84308501D01*
X152117022Y-84345410D01*
X151960000Y-84360875D01*
X151802977Y-84345410D01*
X151681304Y-84308501D01*
X151651987Y-84299608D01*
X151512835Y-84225229D01*
X151390867Y-84125133D01*
X151290771Y-84003164D01*
X151223876Y-83878013D01*
X151216392Y-83864012D01*
X151198137Y-83803833D01*
X151170590Y-83713022D01*
X151159000Y-83595344D01*
X151159000Y-83016655D01*
X151170590Y-82898977D01*
X151216392Y-82747988D01*
X151216392Y-82747987D01*
X151247922Y-82689000D01*
X151290771Y-82608835D01*
X151390868Y-82486867D01*
X151512836Y-82386771D01*
X151558517Y-82362354D01*
X151651988Y-82312392D01*
X151708037Y-82295390D01*
X151802978Y-82266590D01*
X151960000Y-82251125D01*
X152117023Y-82266590D01*
G37*
G36*
X154657023Y-82266590D02*
G01*
X154751964Y-82295390D01*
X154808013Y-82312392D01*
X154947165Y-82386771D01*
X155069133Y-82486867D01*
X155169229Y-82608835D01*
X155243608Y-82747987D01*
X155243608Y-82747988D01*
X155289410Y-82898977D01*
X155301000Y-83016655D01*
X155301000Y-83595345D01*
X155289410Y-83713023D01*
X155285163Y-83727023D01*
X155243608Y-83864013D01*
X155169230Y-84003164D01*
X155169229Y-84003165D01*
X155069133Y-84125133D01*
X154947164Y-84225229D01*
X154808012Y-84299608D01*
X154778695Y-84308501D01*
X154657022Y-84345410D01*
X154500000Y-84360875D01*
X154342977Y-84345410D01*
X154221304Y-84308501D01*
X154191987Y-84299608D01*
X154052835Y-84225229D01*
X153930867Y-84125133D01*
X153830771Y-84003164D01*
X153763876Y-83878013D01*
X153756392Y-83864012D01*
X153738137Y-83803833D01*
X153710590Y-83713022D01*
X153699000Y-83595344D01*
X153699000Y-83016655D01*
X153710590Y-82898977D01*
X153756392Y-82747988D01*
X153756392Y-82747987D01*
X153787922Y-82689000D01*
X153830771Y-82608835D01*
X153930868Y-82486867D01*
X154052836Y-82386771D01*
X154098517Y-82362354D01*
X154191988Y-82312392D01*
X154248037Y-82295390D01*
X154342978Y-82266590D01*
X154500000Y-82251125D01*
X154657023Y-82266590D01*
G37*
G36*
X157197023Y-82266590D02*
G01*
X157291964Y-82295390D01*
X157348013Y-82312392D01*
X157487165Y-82386771D01*
X157609133Y-82486867D01*
X157709229Y-82608835D01*
X157783608Y-82747987D01*
X157783608Y-82747988D01*
X157829410Y-82898977D01*
X157841000Y-83016655D01*
X157841000Y-83595345D01*
X157829410Y-83713023D01*
X157825163Y-83727023D01*
X157783608Y-83864013D01*
X157709230Y-84003164D01*
X157709229Y-84003165D01*
X157609133Y-84125133D01*
X157487164Y-84225229D01*
X157348012Y-84299608D01*
X157318695Y-84308501D01*
X157197022Y-84345410D01*
X157040000Y-84360875D01*
X156882977Y-84345410D01*
X156761304Y-84308501D01*
X156731987Y-84299608D01*
X156592835Y-84225229D01*
X156470867Y-84125133D01*
X156370771Y-84003164D01*
X156303876Y-83878013D01*
X156296392Y-83864012D01*
X156278137Y-83803833D01*
X156250590Y-83713022D01*
X156239000Y-83595344D01*
X156239000Y-83016655D01*
X156250590Y-82898977D01*
X156296392Y-82747988D01*
X156296392Y-82747987D01*
X156327922Y-82689000D01*
X156370771Y-82608835D01*
X156470868Y-82486867D01*
X156592836Y-82386771D01*
X156638517Y-82362354D01*
X156731988Y-82312392D01*
X156788037Y-82295390D01*
X156882978Y-82266590D01*
X157040000Y-82251125D01*
X157197023Y-82266590D01*
G37*
G36*
X159737023Y-82266590D02*
G01*
X159831964Y-82295390D01*
X159888013Y-82312392D01*
X160027165Y-82386771D01*
X160149133Y-82486867D01*
X160249229Y-82608835D01*
X160323608Y-82747987D01*
X160323608Y-82747988D01*
X160369410Y-82898977D01*
X160381000Y-83016655D01*
X160381000Y-83595345D01*
X160369410Y-83713023D01*
X160365163Y-83727023D01*
X160323608Y-83864013D01*
X160249230Y-84003164D01*
X160249229Y-84003165D01*
X160149133Y-84125133D01*
X160027164Y-84225229D01*
X159888012Y-84299608D01*
X159858695Y-84308501D01*
X159737022Y-84345410D01*
X159580000Y-84360875D01*
X159422977Y-84345410D01*
X159301304Y-84308501D01*
X159271987Y-84299608D01*
X159132835Y-84225229D01*
X159010867Y-84125133D01*
X158910771Y-84003164D01*
X158843876Y-83878013D01*
X158836392Y-83864012D01*
X158818137Y-83803833D01*
X158790590Y-83713022D01*
X158779000Y-83595344D01*
X158779000Y-83016655D01*
X158790590Y-82898977D01*
X158836392Y-82747988D01*
X158836392Y-82747987D01*
X158867922Y-82689000D01*
X158910771Y-82608835D01*
X159010868Y-82486867D01*
X159132836Y-82386771D01*
X159178517Y-82362354D01*
X159271988Y-82312392D01*
X159328037Y-82295390D01*
X159422978Y-82266590D01*
X159580000Y-82251125D01*
X159737023Y-82266590D01*
G37*
G36*
X162277023Y-82266590D02*
G01*
X162371964Y-82295390D01*
X162428013Y-82312392D01*
X162567165Y-82386771D01*
X162689133Y-82486867D01*
X162789229Y-82608835D01*
X162863608Y-82747987D01*
X162863608Y-82747988D01*
X162909410Y-82898977D01*
X162921000Y-83016655D01*
X162921000Y-83595345D01*
X162909410Y-83713023D01*
X162905163Y-83727023D01*
X162863608Y-83864013D01*
X162789230Y-84003164D01*
X162789229Y-84003165D01*
X162689133Y-84125133D01*
X162567164Y-84225229D01*
X162428012Y-84299608D01*
X162398695Y-84308501D01*
X162277022Y-84345410D01*
X162120000Y-84360875D01*
X161962977Y-84345410D01*
X161841304Y-84308501D01*
X161811987Y-84299608D01*
X161672835Y-84225229D01*
X161550867Y-84125133D01*
X161450771Y-84003164D01*
X161383876Y-83878013D01*
X161376392Y-83864012D01*
X161358137Y-83803833D01*
X161330590Y-83713022D01*
X161319000Y-83595344D01*
X161319000Y-83016655D01*
X161330590Y-82898977D01*
X161376392Y-82747988D01*
X161376392Y-82747987D01*
X161407922Y-82689000D01*
X161450771Y-82608835D01*
X161550868Y-82486867D01*
X161672836Y-82386771D01*
X161718517Y-82362354D01*
X161811988Y-82312392D01*
X161868037Y-82295390D01*
X161962978Y-82266590D01*
X162120000Y-82251125D01*
X162277023Y-82266590D01*
G37*
G36*
X164817023Y-82266590D02*
G01*
X164911964Y-82295390D01*
X164968013Y-82312392D01*
X165107165Y-82386771D01*
X165229133Y-82486867D01*
X165329229Y-82608835D01*
X165403608Y-82747987D01*
X165403608Y-82747988D01*
X165449410Y-82898977D01*
X165461000Y-83016655D01*
X165461000Y-83595345D01*
X165449410Y-83713023D01*
X165445163Y-83727023D01*
X165403608Y-83864013D01*
X165329230Y-84003164D01*
X165329229Y-84003165D01*
X165229133Y-84125133D01*
X165107164Y-84225229D01*
X164968012Y-84299608D01*
X164938695Y-84308501D01*
X164817022Y-84345410D01*
X164660000Y-84360875D01*
X164502977Y-84345410D01*
X164381304Y-84308501D01*
X164351987Y-84299608D01*
X164212835Y-84225229D01*
X164090867Y-84125133D01*
X163990771Y-84003164D01*
X163923876Y-83878013D01*
X163916392Y-83864012D01*
X163898137Y-83803833D01*
X163870590Y-83713022D01*
X163859000Y-83595344D01*
X163859000Y-83016655D01*
X163870590Y-82898977D01*
X163916392Y-82747988D01*
X163916392Y-82747987D01*
X163947922Y-82689000D01*
X163990771Y-82608835D01*
X164090868Y-82486867D01*
X164212836Y-82386771D01*
X164258517Y-82362354D01*
X164351988Y-82312392D01*
X164408037Y-82295390D01*
X164502978Y-82266590D01*
X164660000Y-82251125D01*
X164817023Y-82266590D01*
G37*
G36*
X144497023Y-82266590D02*
G01*
X144591964Y-82295390D01*
X144648013Y-82312392D01*
X144787165Y-82386771D01*
X144909133Y-82486867D01*
X145009229Y-82608835D01*
X145083608Y-82747987D01*
X145083608Y-82747988D01*
X145129410Y-82898977D01*
X145141000Y-83016655D01*
X145141000Y-83595345D01*
X145129410Y-83713023D01*
X145125163Y-83727023D01*
X145083608Y-83864013D01*
X145009230Y-84003164D01*
X145009229Y-84003165D01*
X144909133Y-84125133D01*
X144787164Y-84225229D01*
X144648012Y-84299608D01*
X144618695Y-84308501D01*
X144497022Y-84345410D01*
X144340000Y-84360875D01*
X144182977Y-84345410D01*
X144061304Y-84308501D01*
X144031987Y-84299608D01*
X143892835Y-84225229D01*
X143770867Y-84125133D01*
X143670771Y-84003164D01*
X143603876Y-83878013D01*
X143596392Y-83864012D01*
X143578137Y-83803833D01*
X143550590Y-83713022D01*
X143539000Y-83595344D01*
X143539000Y-83016655D01*
X143550590Y-82898977D01*
X143596392Y-82747988D01*
X143596392Y-82747987D01*
X143627922Y-82689000D01*
X143670771Y-82608835D01*
X143770868Y-82486867D01*
X143892836Y-82386771D01*
X143938517Y-82362354D01*
X144031988Y-82312392D01*
X144088037Y-82295390D01*
X144182978Y-82266590D01*
X144340000Y-82251125D01*
X144497023Y-82266590D01*
G37*
G36*
X169897023Y-82266590D02*
G01*
X169991964Y-82295390D01*
X170048013Y-82312392D01*
X170187165Y-82386771D01*
X170309133Y-82486867D01*
X170409229Y-82608835D01*
X170483608Y-82747987D01*
X170483608Y-82747988D01*
X170529410Y-82898977D01*
X170541000Y-83016655D01*
X170541000Y-83595345D01*
X170529410Y-83713023D01*
X170525163Y-83727023D01*
X170483608Y-83864013D01*
X170409230Y-84003164D01*
X170409229Y-84003165D01*
X170309133Y-84125133D01*
X170187164Y-84225229D01*
X170048012Y-84299608D01*
X170018695Y-84308501D01*
X169897022Y-84345410D01*
X169740000Y-84360875D01*
X169582977Y-84345410D01*
X169461304Y-84308501D01*
X169431987Y-84299608D01*
X169292835Y-84225229D01*
X169170867Y-84125133D01*
X169070771Y-84003164D01*
X169003876Y-83878013D01*
X168996392Y-83864012D01*
X168978137Y-83803833D01*
X168950590Y-83713022D01*
X168939000Y-83595344D01*
X168939000Y-83016655D01*
X168950590Y-82898977D01*
X168996392Y-82747988D01*
X168996392Y-82747987D01*
X169027922Y-82689000D01*
X169070771Y-82608835D01*
X169170868Y-82486867D01*
X169292836Y-82386771D01*
X169338517Y-82362354D01*
X169431988Y-82312392D01*
X169488037Y-82295390D01*
X169582978Y-82266590D01*
X169740000Y-82251125D01*
X169897023Y-82266590D01*
G37*
G36*
X139566564Y-82295389D02*
G01*
X139728232Y-82362354D01*
X139757835Y-82374616D01*
X139925830Y-82486867D01*
X139929973Y-82489635D01*
X140076365Y-82636027D01*
X140191385Y-82808167D01*
X140270611Y-82999436D01*
X140311000Y-83202484D01*
X140311000Y-83409516D01*
X140270611Y-83612564D01*
X140191385Y-83803833D01*
X140191384Y-83803835D01*
X140076365Y-83975973D01*
X139929973Y-84122365D01*
X139757835Y-84237384D01*
X139757834Y-84237385D01*
X139757833Y-84237385D01*
X139566564Y-84316611D01*
X139363516Y-84357000D01*
X139156484Y-84357000D01*
X138953436Y-84316611D01*
X138762167Y-84237385D01*
X138762166Y-84237385D01*
X138762165Y-84237384D01*
X138590027Y-84122365D01*
X138443635Y-83975973D01*
X138328616Y-83803835D01*
X138328615Y-83803833D01*
X138249389Y-83612564D01*
X138209000Y-83409516D01*
X138209000Y-83202484D01*
X138249389Y-82999436D01*
X138328615Y-82808167D01*
X138443635Y-82636027D01*
X138590027Y-82489635D01*
X138594170Y-82486867D01*
X138762165Y-82374616D01*
X138791768Y-82362354D01*
X138953436Y-82295389D01*
X139156484Y-82255000D01*
X139363516Y-82255000D01*
X139566564Y-82295389D01*
G37*
G36*
X172586564Y-82295389D02*
G01*
X172748232Y-82362354D01*
X172777835Y-82374616D01*
X172945830Y-82486867D01*
X172949973Y-82489635D01*
X173096365Y-82636027D01*
X173211385Y-82808167D01*
X173290611Y-82999436D01*
X173331000Y-83202484D01*
X173331000Y-83409516D01*
X173290611Y-83612564D01*
X173211385Y-83803833D01*
X173211384Y-83803835D01*
X173096365Y-83975973D01*
X172949973Y-84122365D01*
X172777835Y-84237384D01*
X172777834Y-84237385D01*
X172777833Y-84237385D01*
X172586564Y-84316611D01*
X172383516Y-84357000D01*
X172176484Y-84357000D01*
X171973436Y-84316611D01*
X171782167Y-84237385D01*
X171782166Y-84237385D01*
X171782165Y-84237384D01*
X171610027Y-84122365D01*
X171463635Y-83975973D01*
X171348616Y-83803835D01*
X171348615Y-83803833D01*
X171269389Y-83612564D01*
X171229000Y-83409516D01*
X171229000Y-83202484D01*
X171269389Y-82999436D01*
X171348615Y-82808167D01*
X171463635Y-82636027D01*
X171610027Y-82489635D01*
X171614170Y-82486867D01*
X171782165Y-82374616D01*
X171811768Y-82362354D01*
X171973436Y-82295389D01*
X172176484Y-82255000D01*
X172383516Y-82255000D01*
X172586564Y-82295389D01*
G37*
G36*
X126866564Y-82295389D02*
G01*
X127028232Y-82362354D01*
X127057835Y-82374616D01*
X127225830Y-82486867D01*
X127229973Y-82489635D01*
X127376365Y-82636027D01*
X127491385Y-82808167D01*
X127570611Y-82999436D01*
X127611000Y-83202484D01*
X127611000Y-83409516D01*
X127570611Y-83612564D01*
X127491385Y-83803833D01*
X127491384Y-83803835D01*
X127376365Y-83975973D01*
X127229973Y-84122365D01*
X127057835Y-84237384D01*
X127057834Y-84237385D01*
X127057833Y-84237385D01*
X126866564Y-84316611D01*
X126663516Y-84357000D01*
X126456484Y-84357000D01*
X126253436Y-84316611D01*
X126062167Y-84237385D01*
X126062166Y-84237385D01*
X126062165Y-84237384D01*
X125890027Y-84122365D01*
X125743635Y-83975973D01*
X125628616Y-83803835D01*
X125628615Y-83803833D01*
X125549389Y-83612564D01*
X125509000Y-83409516D01*
X125509000Y-83202484D01*
X125549389Y-82999436D01*
X125628615Y-82808167D01*
X125743635Y-82636027D01*
X125890027Y-82489635D01*
X125894170Y-82486867D01*
X126062165Y-82374616D01*
X126091768Y-82362354D01*
X126253436Y-82295389D01*
X126456484Y-82255000D01*
X126663516Y-82255000D01*
X126866564Y-82295389D01*
G37*
G36*
X101485000Y-82689000D02*
G01*
X99683000Y-82689000D01*
X99683000Y-80887000D01*
X101485000Y-80887000D01*
X101485000Y-82689000D01*
G37*
G36*
X98157512Y-80891927D02*
G01*
X98306812Y-80921624D01*
X98470784Y-80989544D01*
X98618354Y-81088147D01*
X98743853Y-81213646D01*
X98842456Y-81361216D01*
X98910376Y-81525188D01*
X98945000Y-81699259D01*
X98945000Y-81876741D01*
X98910376Y-82050812D01*
X98842456Y-82214784D01*
X98743853Y-82362354D01*
X98618354Y-82487853D01*
X98470784Y-82586456D01*
X98306812Y-82654376D01*
X98157512Y-82684073D01*
X98132742Y-82689000D01*
X97955258Y-82689000D01*
X97930488Y-82684073D01*
X97781188Y-82654376D01*
X97617216Y-82586456D01*
X97469646Y-82487853D01*
X97344147Y-82362354D01*
X97245544Y-82214784D01*
X97177624Y-82050812D01*
X97143000Y-81876741D01*
X97143000Y-81699259D01*
X97177624Y-81525188D01*
X97245544Y-81361216D01*
X97344147Y-81213646D01*
X97469646Y-81088147D01*
X97617216Y-80989544D01*
X97781188Y-80921624D01*
X97930488Y-80891927D01*
X97955258Y-80887000D01*
X98132742Y-80887000D01*
X98157512Y-80891927D01*
G37*
G36*
X110548228Y-80131703D02*
G01*
X110703100Y-80195853D01*
X110842481Y-80288985D01*
X110961015Y-80407519D01*
X111054147Y-80546900D01*
X111118297Y-80701772D01*
X111151000Y-80866184D01*
X111151000Y-81033816D01*
X111118297Y-81198228D01*
X111054147Y-81353100D01*
X110961015Y-81492481D01*
X110842481Y-81611015D01*
X110703100Y-81704147D01*
X110548228Y-81768297D01*
X110383816Y-81801000D01*
X110216184Y-81801000D01*
X110051772Y-81768297D01*
X109896900Y-81704147D01*
X109757519Y-81611015D01*
X109638985Y-81492481D01*
X109545853Y-81353100D01*
X109481703Y-81198228D01*
X109449000Y-81033816D01*
X109449000Y-80866184D01*
X109481703Y-80701772D01*
X109545853Y-80546900D01*
X109638985Y-80407519D01*
X109757519Y-80288985D01*
X109896900Y-80195853D01*
X110051772Y-80131703D01*
X110216184Y-80099000D01*
X110383816Y-80099000D01*
X110548228Y-80131703D01*
G37*
G36*
X190918433Y-77884893D02*
G01*
X191008657Y-77902839D01*
X191114267Y-77946585D01*
X191263621Y-78008449D01*
X191263622Y-78008450D01*
X191493086Y-78161772D01*
X191688228Y-78356914D01*
X191704739Y-78381625D01*
X191841551Y-78586379D01*
X191903415Y-78735733D01*
X191947161Y-78841343D01*
X192001000Y-79112014D01*
X192001000Y-79387986D01*
X191947161Y-79658657D01*
X191940481Y-79674784D01*
X191841551Y-79913621D01*
X191818678Y-79947853D01*
X191688228Y-80143086D01*
X191493086Y-80338228D01*
X191339763Y-80440675D01*
X191263621Y-80491551D01*
X191114267Y-80553415D01*
X191008657Y-80597161D01*
X190918433Y-80615107D01*
X190737988Y-80651000D01*
X190462012Y-80651000D01*
X190281567Y-80615107D01*
X190191343Y-80597161D01*
X190085733Y-80553415D01*
X189936379Y-80491551D01*
X189860237Y-80440675D01*
X189706914Y-80338228D01*
X189511772Y-80143086D01*
X189381322Y-79947853D01*
X189358449Y-79913621D01*
X189259519Y-79674784D01*
X189252839Y-79658657D01*
X189199000Y-79387986D01*
X189199000Y-79112014D01*
X189252839Y-78841343D01*
X189296585Y-78735733D01*
X189358449Y-78586379D01*
X189495261Y-78381625D01*
X189511772Y-78356914D01*
X189706914Y-78161772D01*
X189936378Y-78008450D01*
X189936379Y-78008449D01*
X190085733Y-77946585D01*
X190191343Y-77902839D01*
X190281567Y-77884893D01*
X190462012Y-77849000D01*
X190737988Y-77849000D01*
X190918433Y-77884893D01*
G37*
G36*
X100697512Y-78351927D02*
G01*
X100846812Y-78381624D01*
X101010784Y-78449544D01*
X101158354Y-78548147D01*
X101283853Y-78673646D01*
X101382456Y-78821216D01*
X101450376Y-78985188D01*
X101485000Y-79159259D01*
X101485000Y-79336741D01*
X101450376Y-79510812D01*
X101382456Y-79674784D01*
X101283853Y-79822354D01*
X101158354Y-79947853D01*
X101010784Y-80046456D01*
X100846812Y-80114376D01*
X100702478Y-80143085D01*
X100672742Y-80149000D01*
X100495258Y-80149000D01*
X100465522Y-80143085D01*
X100321188Y-80114376D01*
X100157216Y-80046456D01*
X100009646Y-79947853D01*
X99884147Y-79822354D01*
X99785544Y-79674784D01*
X99717624Y-79510812D01*
X99683000Y-79336741D01*
X99683000Y-79159259D01*
X99717624Y-78985188D01*
X99785544Y-78821216D01*
X99884147Y-78673646D01*
X100009646Y-78548147D01*
X100157216Y-78449544D01*
X100321188Y-78381624D01*
X100470488Y-78351927D01*
X100495258Y-78347000D01*
X100672742Y-78347000D01*
X100697512Y-78351927D01*
G37*
G36*
X98157512Y-78351927D02*
G01*
X98306812Y-78381624D01*
X98470784Y-78449544D01*
X98618354Y-78548147D01*
X98743853Y-78673646D01*
X98842456Y-78821216D01*
X98910376Y-78985188D01*
X98945000Y-79159259D01*
X98945000Y-79336741D01*
X98910376Y-79510812D01*
X98842456Y-79674784D01*
X98743853Y-79822354D01*
X98618354Y-79947853D01*
X98470784Y-80046456D01*
X98306812Y-80114376D01*
X98162478Y-80143085D01*
X98132742Y-80149000D01*
X97955258Y-80149000D01*
X97925522Y-80143085D01*
X97781188Y-80114376D01*
X97617216Y-80046456D01*
X97469646Y-79947853D01*
X97344147Y-79822354D01*
X97245544Y-79674784D01*
X97177624Y-79510812D01*
X97143000Y-79336741D01*
X97143000Y-79159259D01*
X97177624Y-78985188D01*
X97245544Y-78821216D01*
X97344147Y-78673646D01*
X97469646Y-78548147D01*
X97617216Y-78449544D01*
X97781188Y-78381624D01*
X97930488Y-78351927D01*
X97955258Y-78347000D01*
X98132742Y-78347000D01*
X98157512Y-78351927D01*
G37*
G36*
X117248228Y-76731703D02*
G01*
X117403100Y-76795853D01*
X117542481Y-76888985D01*
X117661015Y-77007519D01*
X117754147Y-77146900D01*
X117818297Y-77301772D01*
X117851000Y-77466184D01*
X117851000Y-77633816D01*
X117818297Y-77798228D01*
X117754147Y-77953100D01*
X117661015Y-78092481D01*
X117542481Y-78211015D01*
X117403100Y-78304147D01*
X117248228Y-78368297D01*
X117083816Y-78401000D01*
X116916184Y-78401000D01*
X116751772Y-78368297D01*
X116596900Y-78304147D01*
X116457519Y-78211015D01*
X116338985Y-78092481D01*
X116245853Y-77953100D01*
X116181703Y-77798228D01*
X116149000Y-77633816D01*
X116149000Y-77466184D01*
X116181703Y-77301772D01*
X116245853Y-77146900D01*
X116338985Y-77007519D01*
X116457519Y-76888985D01*
X116596900Y-76795853D01*
X116751772Y-76731703D01*
X116916184Y-76699000D01*
X117083816Y-76699000D01*
X117248228Y-76731703D01*
G37*
G36*
X100697512Y-75811927D02*
G01*
X100846812Y-75841624D01*
X101010784Y-75909544D01*
X101158354Y-76008147D01*
X101283853Y-76133646D01*
X101382456Y-76281216D01*
X101450376Y-76445188D01*
X101485000Y-76619259D01*
X101485000Y-76796741D01*
X101450376Y-76970812D01*
X101382456Y-77134784D01*
X101283853Y-77282354D01*
X101158354Y-77407853D01*
X101010784Y-77506456D01*
X100846812Y-77574376D01*
X100697512Y-77604073D01*
X100672742Y-77609000D01*
X100495258Y-77609000D01*
X100470488Y-77604073D01*
X100321188Y-77574376D01*
X100157216Y-77506456D01*
X100009646Y-77407853D01*
X99884147Y-77282354D01*
X99785544Y-77134784D01*
X99717624Y-76970812D01*
X99683000Y-76796741D01*
X99683000Y-76619259D01*
X99717624Y-76445188D01*
X99785544Y-76281216D01*
X99884147Y-76133646D01*
X100009646Y-76008147D01*
X100157216Y-75909544D01*
X100321188Y-75841624D01*
X100470488Y-75811927D01*
X100495258Y-75807000D01*
X100672742Y-75807000D01*
X100697512Y-75811927D01*
G37*
G36*
X98157512Y-75811927D02*
G01*
X98306812Y-75841624D01*
X98470784Y-75909544D01*
X98618354Y-76008147D01*
X98743853Y-76133646D01*
X98842456Y-76281216D01*
X98910376Y-76445188D01*
X98945000Y-76619259D01*
X98945000Y-76796741D01*
X98910376Y-76970812D01*
X98842456Y-77134784D01*
X98743853Y-77282354D01*
X98618354Y-77407853D01*
X98470784Y-77506456D01*
X98306812Y-77574376D01*
X98157512Y-77604073D01*
X98132742Y-77609000D01*
X97955258Y-77609000D01*
X97930488Y-77604073D01*
X97781188Y-77574376D01*
X97617216Y-77506456D01*
X97469646Y-77407853D01*
X97344147Y-77282354D01*
X97245544Y-77134784D01*
X97177624Y-76970812D01*
X97143000Y-76796741D01*
X97143000Y-76619259D01*
X97177624Y-76445188D01*
X97245544Y-76281216D01*
X97344147Y-76133646D01*
X97469646Y-76008147D01*
X97617216Y-75909544D01*
X97781188Y-75841624D01*
X97930488Y-75811927D01*
X97955258Y-75807000D01*
X98132742Y-75807000D01*
X98157512Y-75811927D01*
G37*
G36*
X100697512Y-73271927D02*
G01*
X100846812Y-73301624D01*
X101010784Y-73369544D01*
X101158354Y-73468147D01*
X101283853Y-73593646D01*
X101382456Y-73741216D01*
X101450376Y-73905188D01*
X101485000Y-74079259D01*
X101485000Y-74256741D01*
X101450376Y-74430812D01*
X101382456Y-74594784D01*
X101283853Y-74742354D01*
X101158354Y-74867853D01*
X101010784Y-74966456D01*
X100846812Y-75034376D01*
X100697512Y-75064073D01*
X100672742Y-75069000D01*
X100495258Y-75069000D01*
X100470488Y-75064073D01*
X100321188Y-75034376D01*
X100157216Y-74966456D01*
X100009646Y-74867853D01*
X99884147Y-74742354D01*
X99785544Y-74594784D01*
X99717624Y-74430812D01*
X99683000Y-74256741D01*
X99683000Y-74079259D01*
X99717624Y-73905188D01*
X99785544Y-73741216D01*
X99884147Y-73593646D01*
X100009646Y-73468147D01*
X100157216Y-73369544D01*
X100321188Y-73301624D01*
X100470488Y-73271927D01*
X100495258Y-73267000D01*
X100672742Y-73267000D01*
X100697512Y-73271927D01*
G37*
G36*
X98157512Y-73271927D02*
G01*
X98306812Y-73301624D01*
X98470784Y-73369544D01*
X98618354Y-73468147D01*
X98743853Y-73593646D01*
X98842456Y-73741216D01*
X98910376Y-73905188D01*
X98945000Y-74079259D01*
X98945000Y-74256741D01*
X98910376Y-74430812D01*
X98842456Y-74594784D01*
X98743853Y-74742354D01*
X98618354Y-74867853D01*
X98470784Y-74966456D01*
X98306812Y-75034376D01*
X98157512Y-75064073D01*
X98132742Y-75069000D01*
X97955258Y-75069000D01*
X97930488Y-75064073D01*
X97781188Y-75034376D01*
X97617216Y-74966456D01*
X97469646Y-74867853D01*
X97344147Y-74742354D01*
X97245544Y-74594784D01*
X97177624Y-74430812D01*
X97143000Y-74256741D01*
X97143000Y-74079259D01*
X97177624Y-73905188D01*
X97245544Y-73741216D01*
X97344147Y-73593646D01*
X97469646Y-73468147D01*
X97617216Y-73369544D01*
X97781188Y-73301624D01*
X97930488Y-73271927D01*
X97955258Y-73267000D01*
X98132742Y-73267000D01*
X98157512Y-73271927D01*
G37*
G36*
X127248228Y-73349703D02*
G01*
X127403100Y-73413853D01*
X127542481Y-73506985D01*
X127661015Y-73625519D01*
X127754147Y-73764900D01*
X127818297Y-73919772D01*
X127851000Y-74084184D01*
X127851000Y-74251816D01*
X127818297Y-74416228D01*
X127754147Y-74571100D01*
X127661015Y-74710481D01*
X127542481Y-74829015D01*
X127403100Y-74922147D01*
X127248228Y-74986297D01*
X127083816Y-75019000D01*
X126916184Y-75019000D01*
X126751772Y-74986297D01*
X126596900Y-74922147D01*
X126457519Y-74829015D01*
X126338985Y-74710481D01*
X126245853Y-74571100D01*
X126181703Y-74416228D01*
X126149000Y-74251816D01*
X126149000Y-74084184D01*
X126181703Y-73919772D01*
X126245853Y-73764900D01*
X126338985Y-73625519D01*
X126457519Y-73506985D01*
X126596900Y-73413853D01*
X126751772Y-73349703D01*
X126916184Y-73317000D01*
X127083816Y-73317000D01*
X127248228Y-73349703D01*
G37*
G36*
X117248228Y-71731703D02*
G01*
X117403100Y-71795853D01*
X117542481Y-71888985D01*
X117661015Y-72007519D01*
X117754147Y-72146900D01*
X117818297Y-72301772D01*
X117851000Y-72466184D01*
X117851000Y-72633816D01*
X117818297Y-72798228D01*
X117754147Y-72953100D01*
X117661015Y-73092481D01*
X117542481Y-73211015D01*
X117403100Y-73304147D01*
X117248228Y-73368297D01*
X117083816Y-73401000D01*
X116916184Y-73401000D01*
X116751772Y-73368297D01*
X116596900Y-73304147D01*
X116457519Y-73211015D01*
X116338985Y-73092481D01*
X116245853Y-72953100D01*
X116181703Y-72798228D01*
X116149000Y-72633816D01*
X116149000Y-72466184D01*
X116181703Y-72301772D01*
X116245853Y-72146900D01*
X116338985Y-72007519D01*
X116457519Y-71888985D01*
X116596900Y-71795853D01*
X116751772Y-71731703D01*
X116916184Y-71699000D01*
X117083816Y-71699000D01*
X117248228Y-71731703D01*
G37*
G36*
X98157512Y-70731927D02*
G01*
X98306812Y-70761624D01*
X98470784Y-70829544D01*
X98618354Y-70928147D01*
X98743853Y-71053646D01*
X98842456Y-71201216D01*
X98910376Y-71365188D01*
X98945000Y-71539259D01*
X98945000Y-71716741D01*
X98910376Y-71890812D01*
X98842456Y-72054784D01*
X98743853Y-72202354D01*
X98618354Y-72327853D01*
X98470784Y-72426456D01*
X98306812Y-72494376D01*
X98157512Y-72524073D01*
X98132742Y-72529000D01*
X97955258Y-72529000D01*
X97930488Y-72524073D01*
X97781188Y-72494376D01*
X97617216Y-72426456D01*
X97469646Y-72327853D01*
X97344147Y-72202354D01*
X97245544Y-72054784D01*
X97177624Y-71890812D01*
X97143000Y-71716741D01*
X97143000Y-71539259D01*
X97177624Y-71365188D01*
X97245544Y-71201216D01*
X97344147Y-71053646D01*
X97469646Y-70928147D01*
X97617216Y-70829544D01*
X97781188Y-70761624D01*
X97930488Y-70731927D01*
X97955258Y-70727000D01*
X98132742Y-70727000D01*
X98157512Y-70731927D01*
G37*
G36*
X100697512Y-70731927D02*
G01*
X100846812Y-70761624D01*
X101010784Y-70829544D01*
X101158354Y-70928147D01*
X101283853Y-71053646D01*
X101382456Y-71201216D01*
X101450376Y-71365188D01*
X101485000Y-71539259D01*
X101485000Y-71716741D01*
X101450376Y-71890812D01*
X101382456Y-72054784D01*
X101283853Y-72202354D01*
X101158354Y-72327853D01*
X101010784Y-72426456D01*
X100846812Y-72494376D01*
X100697512Y-72524073D01*
X100672742Y-72529000D01*
X100495258Y-72529000D01*
X100470488Y-72524073D01*
X100321188Y-72494376D01*
X100157216Y-72426456D01*
X100009646Y-72327853D01*
X99884147Y-72202354D01*
X99785544Y-72054784D01*
X99717624Y-71890812D01*
X99683000Y-71716741D01*
X99683000Y-71539259D01*
X99717624Y-71365188D01*
X99785544Y-71201216D01*
X99884147Y-71053646D01*
X100009646Y-70928147D01*
X100157216Y-70829544D01*
X100321188Y-70761624D01*
X100470488Y-70731927D01*
X100495258Y-70727000D01*
X100672742Y-70727000D01*
X100697512Y-70731927D01*
G37*
G36*
X150938228Y-69981703D02*
G01*
X151093100Y-70045853D01*
X151232481Y-70138985D01*
X151351015Y-70257519D01*
X151444147Y-70396900D01*
X151508297Y-70551772D01*
X151541000Y-70716184D01*
X151541000Y-70883816D01*
X151508297Y-71048228D01*
X151444147Y-71203100D01*
X151351015Y-71342481D01*
X151232481Y-71461015D01*
X151093100Y-71554147D01*
X150938228Y-71618297D01*
X150773816Y-71651000D01*
X150606184Y-71651000D01*
X150441772Y-71618297D01*
X150286900Y-71554147D01*
X150147519Y-71461015D01*
X150028985Y-71342481D01*
X149935853Y-71203100D01*
X149871703Y-71048228D01*
X149839000Y-70883816D01*
X149839000Y-70716184D01*
X149871703Y-70551772D01*
X149935853Y-70396900D01*
X150028985Y-70257519D01*
X150147519Y-70138985D01*
X150286900Y-70045853D01*
X150441772Y-69981703D01*
X150606184Y-69949000D01*
X150773816Y-69949000D01*
X150938228Y-69981703D01*
G37*
G36*
X161098228Y-69981703D02*
G01*
X161253100Y-70045853D01*
X161392481Y-70138985D01*
X161511015Y-70257519D01*
X161604147Y-70396900D01*
X161668297Y-70551772D01*
X161701000Y-70716184D01*
X161701000Y-70883816D01*
X161668297Y-71048228D01*
X161604147Y-71203100D01*
X161511015Y-71342481D01*
X161392481Y-71461015D01*
X161253100Y-71554147D01*
X161098228Y-71618297D01*
X160933816Y-71651000D01*
X160766184Y-71651000D01*
X160601772Y-71618297D01*
X160446900Y-71554147D01*
X160307519Y-71461015D01*
X160188985Y-71342481D01*
X160095853Y-71203100D01*
X160031703Y-71048228D01*
X159999000Y-70883816D01*
X159999000Y-70716184D01*
X160031703Y-70551772D01*
X160095853Y-70396900D01*
X160188985Y-70257519D01*
X160307519Y-70138985D01*
X160446900Y-70045853D01*
X160601772Y-69981703D01*
X160766184Y-69949000D01*
X160933816Y-69949000D01*
X161098228Y-69981703D01*
G37*
G36*
X100697512Y-68191927D02*
G01*
X100846812Y-68221624D01*
X101010784Y-68289544D01*
X101158354Y-68388147D01*
X101283853Y-68513646D01*
X101382456Y-68661216D01*
X101450376Y-68825188D01*
X101485000Y-68999259D01*
X101485000Y-69176741D01*
X101450376Y-69350812D01*
X101382456Y-69514784D01*
X101283853Y-69662354D01*
X101158354Y-69787853D01*
X101010784Y-69886456D01*
X100846812Y-69954376D01*
X100709426Y-69981703D01*
X100672742Y-69989000D01*
X100495258Y-69989000D01*
X100458574Y-69981703D01*
X100321188Y-69954376D01*
X100157216Y-69886456D01*
X100009646Y-69787853D01*
X99884147Y-69662354D01*
X99785544Y-69514784D01*
X99717624Y-69350812D01*
X99683000Y-69176741D01*
X99683000Y-68999259D01*
X99717624Y-68825188D01*
X99785544Y-68661216D01*
X99884147Y-68513646D01*
X100009646Y-68388147D01*
X100157216Y-68289544D01*
X100321188Y-68221624D01*
X100470488Y-68191927D01*
X100495258Y-68187000D01*
X100672742Y-68187000D01*
X100697512Y-68191927D01*
G37*
G36*
X98157512Y-68191927D02*
G01*
X98306812Y-68221624D01*
X98470784Y-68289544D01*
X98618354Y-68388147D01*
X98743853Y-68513646D01*
X98842456Y-68661216D01*
X98910376Y-68825188D01*
X98945000Y-68999259D01*
X98945000Y-69176741D01*
X98910376Y-69350812D01*
X98842456Y-69514784D01*
X98743853Y-69662354D01*
X98618354Y-69787853D01*
X98470784Y-69886456D01*
X98306812Y-69954376D01*
X98169426Y-69981703D01*
X98132742Y-69989000D01*
X97955258Y-69989000D01*
X97918574Y-69981703D01*
X97781188Y-69954376D01*
X97617216Y-69886456D01*
X97469646Y-69787853D01*
X97344147Y-69662354D01*
X97245544Y-69514784D01*
X97177624Y-69350812D01*
X97143000Y-69176741D01*
X97143000Y-68999259D01*
X97177624Y-68825188D01*
X97245544Y-68661216D01*
X97344147Y-68513646D01*
X97469646Y-68388147D01*
X97617216Y-68289544D01*
X97781188Y-68221624D01*
X97930488Y-68191927D01*
X97955258Y-68187000D01*
X98132742Y-68187000D01*
X98157512Y-68191927D01*
G37*
G36*
X98157512Y-65651927D02*
G01*
X98306812Y-65681624D01*
X98470784Y-65749544D01*
X98618354Y-65848147D01*
X98743853Y-65973646D01*
X98842456Y-66121216D01*
X98910376Y-66285188D01*
X98945000Y-66459259D01*
X98945000Y-66636741D01*
X98910376Y-66810812D01*
X98842456Y-66974784D01*
X98743853Y-67122354D01*
X98618354Y-67247853D01*
X98470784Y-67346456D01*
X98306812Y-67414376D01*
X98157512Y-67444073D01*
X98132742Y-67449000D01*
X97955258Y-67449000D01*
X97930488Y-67444073D01*
X97781188Y-67414376D01*
X97617216Y-67346456D01*
X97469646Y-67247853D01*
X97344147Y-67122354D01*
X97245544Y-66974784D01*
X97177624Y-66810812D01*
X97143000Y-66636741D01*
X97143000Y-66459259D01*
X97177624Y-66285188D01*
X97245544Y-66121216D01*
X97344147Y-65973646D01*
X97469646Y-65848147D01*
X97617216Y-65749544D01*
X97781188Y-65681624D01*
X97930488Y-65651927D01*
X97955258Y-65647000D01*
X98132742Y-65647000D01*
X98157512Y-65651927D01*
G37*
G36*
X100697512Y-65651927D02*
G01*
X100846812Y-65681624D01*
X101010784Y-65749544D01*
X101158354Y-65848147D01*
X101283853Y-65973646D01*
X101382456Y-66121216D01*
X101450376Y-66285188D01*
X101485000Y-66459259D01*
X101485000Y-66636741D01*
X101450376Y-66810812D01*
X101382456Y-66974784D01*
X101283853Y-67122354D01*
X101158354Y-67247853D01*
X101010784Y-67346456D01*
X100846812Y-67414376D01*
X100697512Y-67444073D01*
X100672742Y-67449000D01*
X100495258Y-67449000D01*
X100470488Y-67444073D01*
X100321188Y-67414376D01*
X100157216Y-67346456D01*
X100009646Y-67247853D01*
X99884147Y-67122354D01*
X99785544Y-66974784D01*
X99717624Y-66810812D01*
X99683000Y-66636741D01*
X99683000Y-66459259D01*
X99717624Y-66285188D01*
X99785544Y-66121216D01*
X99884147Y-65973646D01*
X100009646Y-65848147D01*
X100157216Y-65749544D01*
X100321188Y-65681624D01*
X100470488Y-65651927D01*
X100495258Y-65647000D01*
X100672742Y-65647000D01*
X100697512Y-65651927D01*
G37*
G36*
X98157512Y-63111927D02*
G01*
X98306812Y-63141624D01*
X98470784Y-63209544D01*
X98618354Y-63308147D01*
X98743853Y-63433646D01*
X98842456Y-63581216D01*
X98910376Y-63745188D01*
X98945000Y-63919259D01*
X98945000Y-64096741D01*
X98910376Y-64270812D01*
X98842456Y-64434784D01*
X98743853Y-64582354D01*
X98618354Y-64707853D01*
X98470784Y-64806456D01*
X98306812Y-64874376D01*
X98157512Y-64904073D01*
X98132742Y-64909000D01*
X97955258Y-64909000D01*
X97930488Y-64904073D01*
X97781188Y-64874376D01*
X97617216Y-64806456D01*
X97469646Y-64707853D01*
X97344147Y-64582354D01*
X97245544Y-64434784D01*
X97177624Y-64270812D01*
X97143000Y-64096741D01*
X97143000Y-63919259D01*
X97177624Y-63745188D01*
X97245544Y-63581216D01*
X97344147Y-63433646D01*
X97469646Y-63308147D01*
X97617216Y-63209544D01*
X97781188Y-63141624D01*
X97930488Y-63111927D01*
X97955258Y-63107000D01*
X98132742Y-63107000D01*
X98157512Y-63111927D01*
G37*
G36*
X100697512Y-63111927D02*
G01*
X100846812Y-63141624D01*
X101010784Y-63209544D01*
X101158354Y-63308147D01*
X101283853Y-63433646D01*
X101382456Y-63581216D01*
X101450376Y-63745188D01*
X101485000Y-63919259D01*
X101485000Y-64096741D01*
X101450376Y-64270812D01*
X101382456Y-64434784D01*
X101283853Y-64582354D01*
X101158354Y-64707853D01*
X101010784Y-64806456D01*
X100846812Y-64874376D01*
X100697512Y-64904073D01*
X100672742Y-64909000D01*
X100495258Y-64909000D01*
X100470488Y-64904073D01*
X100321188Y-64874376D01*
X100157216Y-64806456D01*
X100009646Y-64707853D01*
X99884147Y-64582354D01*
X99785544Y-64434784D01*
X99717624Y-64270812D01*
X99683000Y-64096741D01*
X99683000Y-63919259D01*
X99717624Y-63745188D01*
X99785544Y-63581216D01*
X99884147Y-63433646D01*
X100009646Y-63308147D01*
X100157216Y-63209544D01*
X100321188Y-63141624D01*
X100470488Y-63111927D01*
X100495258Y-63107000D01*
X100672742Y-63107000D01*
X100697512Y-63111927D01*
G37*
G36*
X127248228Y-63189703D02*
G01*
X127403100Y-63253853D01*
X127542481Y-63346985D01*
X127661015Y-63465519D01*
X127754147Y-63604900D01*
X127818297Y-63759772D01*
X127851000Y-63924184D01*
X127851000Y-64091816D01*
X127818297Y-64256228D01*
X127754147Y-64411100D01*
X127661015Y-64550481D01*
X127542481Y-64669015D01*
X127403100Y-64762147D01*
X127248228Y-64826297D01*
X127083816Y-64859000D01*
X126916184Y-64859000D01*
X126751772Y-64826297D01*
X126596900Y-64762147D01*
X126457519Y-64669015D01*
X126338985Y-64550481D01*
X126245853Y-64411100D01*
X126181703Y-64256228D01*
X126149000Y-64091816D01*
X126149000Y-63924184D01*
X126181703Y-63759772D01*
X126245853Y-63604900D01*
X126338985Y-63465519D01*
X126457519Y-63346985D01*
X126596900Y-63253853D01*
X126751772Y-63189703D01*
X126916184Y-63157000D01*
X127083816Y-63157000D01*
X127248228Y-63189703D01*
G37*
G36*
X98157512Y-58031927D02*
G01*
X98306812Y-58061624D01*
X98470784Y-58129544D01*
X98618354Y-58228147D01*
X98743853Y-58353646D01*
X98842456Y-58501216D01*
X98910376Y-58665188D01*
X98945000Y-58839259D01*
X98945000Y-59016741D01*
X98910376Y-59190812D01*
X98842456Y-59354784D01*
X98743853Y-59502354D01*
X98618354Y-59627853D01*
X98470784Y-59726456D01*
X98306812Y-59794376D01*
X98157512Y-59824073D01*
X98132742Y-59829000D01*
X97955258Y-59829000D01*
X97930488Y-59824073D01*
X97781188Y-59794376D01*
X97617216Y-59726456D01*
X97469646Y-59627853D01*
X97344147Y-59502354D01*
X97245544Y-59354784D01*
X97177624Y-59190812D01*
X97143000Y-59016741D01*
X97143000Y-58839259D01*
X97177624Y-58665188D01*
X97245544Y-58501216D01*
X97344147Y-58353646D01*
X97469646Y-58228147D01*
X97617216Y-58129544D01*
X97781188Y-58061624D01*
X97930488Y-58031927D01*
X97955258Y-58027000D01*
X98132742Y-58027000D01*
X98157512Y-58031927D01*
G37*
G36*
X100697512Y-58031927D02*
G01*
X100846812Y-58061624D01*
X101010784Y-58129544D01*
X101158354Y-58228147D01*
X101283853Y-58353646D01*
X101382456Y-58501216D01*
X101450376Y-58665188D01*
X101485000Y-58839259D01*
X101485000Y-59016741D01*
X101450376Y-59190812D01*
X101382456Y-59354784D01*
X101283853Y-59502354D01*
X101158354Y-59627853D01*
X101010784Y-59726456D01*
X100846812Y-59794376D01*
X100697512Y-59824073D01*
X100672742Y-59829000D01*
X100495258Y-59829000D01*
X100470488Y-59824073D01*
X100321188Y-59794376D01*
X100157216Y-59726456D01*
X100009646Y-59627853D01*
X99884147Y-59502354D01*
X99785544Y-59354784D01*
X99717624Y-59190812D01*
X99683000Y-59016741D01*
X99683000Y-58839259D01*
X99717624Y-58665188D01*
X99785544Y-58501216D01*
X99884147Y-58353646D01*
X100009646Y-58228147D01*
X100157216Y-58129544D01*
X100321188Y-58061624D01*
X100470488Y-58031927D01*
X100495258Y-58027000D01*
X100672742Y-58027000D01*
X100697512Y-58031927D01*
G37*
G36*
X167357023Y-55730590D02*
G01*
X167457682Y-55761125D01*
X167508013Y-55776392D01*
X167647165Y-55850771D01*
X167769133Y-55950867D01*
X167869229Y-56072835D01*
X167943608Y-56211987D01*
X167958875Y-56262318D01*
X167989410Y-56362977D01*
X168001000Y-56480655D01*
X168001000Y-57059345D01*
X167989410Y-57177023D01*
X167965945Y-57254376D01*
X167943608Y-57328013D01*
X167869230Y-57467164D01*
X167869229Y-57467165D01*
X167769133Y-57589133D01*
X167647164Y-57689229D01*
X167508012Y-57763608D01*
X167457681Y-57778875D01*
X167357022Y-57809410D01*
X167200000Y-57824875D01*
X167042977Y-57809410D01*
X166942318Y-57778875D01*
X166891987Y-57763608D01*
X166752835Y-57689229D01*
X166630867Y-57589133D01*
X166530771Y-57467164D01*
X166456393Y-57328013D01*
X166456392Y-57328012D01*
X166413452Y-57186456D01*
X166410590Y-57177022D01*
X166399000Y-57059344D01*
X166399000Y-56480655D01*
X166410590Y-56362977D01*
X166441125Y-56262318D01*
X166456392Y-56211987D01*
X166475607Y-56176039D01*
X166530771Y-56072835D01*
X166630868Y-55950867D01*
X166752836Y-55850771D01*
X166891988Y-55776392D01*
X166942319Y-55761125D01*
X167042978Y-55730590D01*
X167200000Y-55715125D01*
X167357023Y-55730590D01*
G37*
G36*
X139417023Y-55730590D02*
G01*
X139517682Y-55761125D01*
X139568013Y-55776392D01*
X139707165Y-55850771D01*
X139829133Y-55950867D01*
X139929229Y-56072835D01*
X140003608Y-56211987D01*
X140018875Y-56262318D01*
X140049410Y-56362977D01*
X140061000Y-56480655D01*
X140061000Y-57059345D01*
X140049410Y-57177023D01*
X140025945Y-57254376D01*
X140003608Y-57328013D01*
X139929230Y-57467164D01*
X139929229Y-57467165D01*
X139829133Y-57589133D01*
X139707164Y-57689229D01*
X139568012Y-57763608D01*
X139517681Y-57778875D01*
X139417022Y-57809410D01*
X139260000Y-57824875D01*
X139102977Y-57809410D01*
X139002318Y-57778875D01*
X138951987Y-57763608D01*
X138812835Y-57689229D01*
X138690867Y-57589133D01*
X138590771Y-57467164D01*
X138516393Y-57328013D01*
X138516392Y-57328012D01*
X138473452Y-57186456D01*
X138470590Y-57177022D01*
X138459000Y-57059344D01*
X138459000Y-56480655D01*
X138470590Y-56362977D01*
X138501125Y-56262318D01*
X138516392Y-56211987D01*
X138535607Y-56176039D01*
X138590771Y-56072835D01*
X138690868Y-55950867D01*
X138812836Y-55850771D01*
X138951988Y-55776392D01*
X139002319Y-55761125D01*
X139102978Y-55730590D01*
X139260000Y-55715125D01*
X139417023Y-55730590D01*
G37*
G36*
X169897023Y-55730590D02*
G01*
X169997682Y-55761125D01*
X170048013Y-55776392D01*
X170187165Y-55850771D01*
X170309133Y-55950867D01*
X170409229Y-56072835D01*
X170483608Y-56211987D01*
X170498875Y-56262318D01*
X170529410Y-56362977D01*
X170541000Y-56480655D01*
X170541000Y-57059345D01*
X170529410Y-57177023D01*
X170505945Y-57254376D01*
X170483608Y-57328013D01*
X170409230Y-57467164D01*
X170409229Y-57467165D01*
X170309133Y-57589133D01*
X170187164Y-57689229D01*
X170048012Y-57763608D01*
X169997681Y-57778875D01*
X169897022Y-57809410D01*
X169740000Y-57824875D01*
X169582977Y-57809410D01*
X169482318Y-57778875D01*
X169431987Y-57763608D01*
X169292835Y-57689229D01*
X169170867Y-57589133D01*
X169070771Y-57467164D01*
X168996393Y-57328013D01*
X168996392Y-57328012D01*
X168953452Y-57186456D01*
X168950590Y-57177022D01*
X168939000Y-57059344D01*
X168939000Y-56480655D01*
X168950590Y-56362977D01*
X168981125Y-56262318D01*
X168996392Y-56211987D01*
X169015607Y-56176039D01*
X169070771Y-56072835D01*
X169170868Y-55950867D01*
X169292836Y-55850771D01*
X169431988Y-55776392D01*
X169482319Y-55761125D01*
X169582978Y-55730590D01*
X169740000Y-55715125D01*
X169897023Y-55730590D01*
G37*
G36*
X172437023Y-55730590D02*
G01*
X172537682Y-55761125D01*
X172588013Y-55776392D01*
X172727165Y-55850771D01*
X172849133Y-55950867D01*
X172949229Y-56072835D01*
X173023608Y-56211987D01*
X173038875Y-56262318D01*
X173069410Y-56362977D01*
X173081000Y-56480655D01*
X173081000Y-57059345D01*
X173069410Y-57177023D01*
X173045945Y-57254376D01*
X173023608Y-57328013D01*
X172949230Y-57467164D01*
X172949229Y-57467165D01*
X172849133Y-57589133D01*
X172727164Y-57689229D01*
X172588012Y-57763608D01*
X172537681Y-57778875D01*
X172437022Y-57809410D01*
X172280000Y-57824875D01*
X172122977Y-57809410D01*
X172022318Y-57778875D01*
X171971987Y-57763608D01*
X171832835Y-57689229D01*
X171710867Y-57589133D01*
X171610771Y-57467164D01*
X171536393Y-57328013D01*
X171536392Y-57328012D01*
X171493452Y-57186456D01*
X171490590Y-57177022D01*
X171479000Y-57059344D01*
X171479000Y-56480655D01*
X171490590Y-56362977D01*
X171521125Y-56262318D01*
X171536392Y-56211987D01*
X171555607Y-56176039D01*
X171610771Y-56072835D01*
X171710868Y-55950867D01*
X171832836Y-55850771D01*
X171971988Y-55776392D01*
X172022319Y-55761125D01*
X172122978Y-55730590D01*
X172280000Y-55715125D01*
X172437023Y-55730590D01*
G37*
G36*
X149577023Y-55730590D02*
G01*
X149677682Y-55761125D01*
X149728013Y-55776392D01*
X149867165Y-55850771D01*
X149989133Y-55950867D01*
X150089229Y-56072835D01*
X150163608Y-56211987D01*
X150178875Y-56262318D01*
X150209410Y-56362977D01*
X150221000Y-56480655D01*
X150221000Y-57059345D01*
X150209410Y-57177023D01*
X150185945Y-57254376D01*
X150163608Y-57328013D01*
X150089230Y-57467164D01*
X150089229Y-57467165D01*
X149989133Y-57589133D01*
X149867164Y-57689229D01*
X149728012Y-57763608D01*
X149677681Y-57778875D01*
X149577022Y-57809410D01*
X149420000Y-57824875D01*
X149262977Y-57809410D01*
X149162318Y-57778875D01*
X149111987Y-57763608D01*
X148972835Y-57689229D01*
X148850867Y-57589133D01*
X148750771Y-57467164D01*
X148676393Y-57328013D01*
X148676392Y-57328012D01*
X148633452Y-57186456D01*
X148630590Y-57177022D01*
X148619000Y-57059344D01*
X148619000Y-56480655D01*
X148630590Y-56362977D01*
X148661125Y-56262318D01*
X148676392Y-56211987D01*
X148695607Y-56176039D01*
X148750771Y-56072835D01*
X148850868Y-55950867D01*
X148972836Y-55850771D01*
X149111988Y-55776392D01*
X149162319Y-55761125D01*
X149262978Y-55730590D01*
X149420000Y-55715125D01*
X149577023Y-55730590D01*
G37*
G36*
X154657023Y-55730590D02*
G01*
X154757682Y-55761125D01*
X154808013Y-55776392D01*
X154947165Y-55850771D01*
X155069133Y-55950867D01*
X155169229Y-56072835D01*
X155243608Y-56211987D01*
X155258875Y-56262318D01*
X155289410Y-56362977D01*
X155301000Y-56480655D01*
X155301000Y-57059345D01*
X155289410Y-57177023D01*
X155265945Y-57254376D01*
X155243608Y-57328013D01*
X155169230Y-57467164D01*
X155169229Y-57467165D01*
X155069133Y-57589133D01*
X154947164Y-57689229D01*
X154808012Y-57763608D01*
X154757681Y-57778875D01*
X154657022Y-57809410D01*
X154500000Y-57824875D01*
X154342977Y-57809410D01*
X154242318Y-57778875D01*
X154191987Y-57763608D01*
X154052835Y-57689229D01*
X153930867Y-57589133D01*
X153830771Y-57467164D01*
X153756393Y-57328013D01*
X153756392Y-57328012D01*
X153713452Y-57186456D01*
X153710590Y-57177022D01*
X153699000Y-57059344D01*
X153699000Y-56480655D01*
X153710590Y-56362977D01*
X153741125Y-56262318D01*
X153756392Y-56211987D01*
X153775607Y-56176039D01*
X153830771Y-56072835D01*
X153930868Y-55950867D01*
X154052836Y-55850771D01*
X154191988Y-55776392D01*
X154242319Y-55761125D01*
X154342978Y-55730590D01*
X154500000Y-55715125D01*
X154657023Y-55730590D01*
G37*
G36*
X129257023Y-55730590D02*
G01*
X129357682Y-55761125D01*
X129408013Y-55776392D01*
X129547165Y-55850771D01*
X129669133Y-55950867D01*
X129769229Y-56072835D01*
X129843608Y-56211987D01*
X129858875Y-56262318D01*
X129889410Y-56362977D01*
X129901000Y-56480655D01*
X129901000Y-57059345D01*
X129889410Y-57177023D01*
X129865945Y-57254376D01*
X129843608Y-57328013D01*
X129769230Y-57467164D01*
X129769229Y-57467165D01*
X129669133Y-57589133D01*
X129547164Y-57689229D01*
X129408012Y-57763608D01*
X129357681Y-57778875D01*
X129257022Y-57809410D01*
X129100000Y-57824875D01*
X128942977Y-57809410D01*
X128842318Y-57778875D01*
X128791987Y-57763608D01*
X128652835Y-57689229D01*
X128530867Y-57589133D01*
X128430771Y-57467164D01*
X128356393Y-57328013D01*
X128356392Y-57328012D01*
X128313452Y-57186456D01*
X128310590Y-57177022D01*
X128299000Y-57059344D01*
X128299000Y-56480655D01*
X128310590Y-56362977D01*
X128341125Y-56262318D01*
X128356392Y-56211987D01*
X128375607Y-56176039D01*
X128430771Y-56072835D01*
X128530868Y-55950867D01*
X128652836Y-55850771D01*
X128791988Y-55776392D01*
X128842319Y-55761125D01*
X128942978Y-55730590D01*
X129100000Y-55715125D01*
X129257023Y-55730590D01*
G37*
G36*
X131797023Y-55730590D02*
G01*
X131897682Y-55761125D01*
X131948013Y-55776392D01*
X132087165Y-55850771D01*
X132209133Y-55950867D01*
X132309229Y-56072835D01*
X132383608Y-56211987D01*
X132398875Y-56262318D01*
X132429410Y-56362977D01*
X132441000Y-56480655D01*
X132441000Y-57059345D01*
X132429410Y-57177023D01*
X132405945Y-57254376D01*
X132383608Y-57328013D01*
X132309230Y-57467164D01*
X132309229Y-57467165D01*
X132209133Y-57589133D01*
X132087164Y-57689229D01*
X131948012Y-57763608D01*
X131897681Y-57778875D01*
X131797022Y-57809410D01*
X131640000Y-57824875D01*
X131482977Y-57809410D01*
X131382318Y-57778875D01*
X131331987Y-57763608D01*
X131192835Y-57689229D01*
X131070867Y-57589133D01*
X130970771Y-57467164D01*
X130896393Y-57328013D01*
X130896392Y-57328012D01*
X130853452Y-57186456D01*
X130850590Y-57177022D01*
X130839000Y-57059344D01*
X130839000Y-56480655D01*
X130850590Y-56362977D01*
X130881125Y-56262318D01*
X130896392Y-56211987D01*
X130915607Y-56176039D01*
X130970771Y-56072835D01*
X131070868Y-55950867D01*
X131192836Y-55850771D01*
X131331988Y-55776392D01*
X131382319Y-55761125D01*
X131482978Y-55730590D01*
X131640000Y-55715125D01*
X131797023Y-55730590D01*
G37*
G36*
X136877023Y-55730590D02*
G01*
X136977682Y-55761125D01*
X137028013Y-55776392D01*
X137167165Y-55850771D01*
X137289133Y-55950867D01*
X137389229Y-56072835D01*
X137463608Y-56211987D01*
X137478875Y-56262318D01*
X137509410Y-56362977D01*
X137521000Y-56480655D01*
X137521000Y-57059345D01*
X137509410Y-57177023D01*
X137485945Y-57254376D01*
X137463608Y-57328013D01*
X137389230Y-57467164D01*
X137389229Y-57467165D01*
X137289133Y-57589133D01*
X137167164Y-57689229D01*
X137028012Y-57763608D01*
X136977681Y-57778875D01*
X136877022Y-57809410D01*
X136720000Y-57824875D01*
X136562977Y-57809410D01*
X136462318Y-57778875D01*
X136411987Y-57763608D01*
X136272835Y-57689229D01*
X136150867Y-57589133D01*
X136050771Y-57467164D01*
X135976393Y-57328013D01*
X135976392Y-57328012D01*
X135933452Y-57186456D01*
X135930590Y-57177022D01*
X135919000Y-57059344D01*
X135919000Y-56480655D01*
X135930590Y-56362977D01*
X135961125Y-56262318D01*
X135976392Y-56211987D01*
X135995607Y-56176039D01*
X136050771Y-56072835D01*
X136150868Y-55950867D01*
X136272836Y-55850771D01*
X136411988Y-55776392D01*
X136462319Y-55761125D01*
X136562978Y-55730590D01*
X136720000Y-55715125D01*
X136877023Y-55730590D01*
G37*
G36*
X134337023Y-55730590D02*
G01*
X134437682Y-55761125D01*
X134488013Y-55776392D01*
X134627165Y-55850771D01*
X134749133Y-55950867D01*
X134849229Y-56072835D01*
X134923608Y-56211987D01*
X134938875Y-56262318D01*
X134969410Y-56362977D01*
X134981000Y-56480655D01*
X134981000Y-57059345D01*
X134969410Y-57177023D01*
X134945945Y-57254376D01*
X134923608Y-57328013D01*
X134849230Y-57467164D01*
X134849229Y-57467165D01*
X134749133Y-57589133D01*
X134627164Y-57689229D01*
X134488012Y-57763608D01*
X134437681Y-57778875D01*
X134337022Y-57809410D01*
X134180000Y-57824875D01*
X134022977Y-57809410D01*
X133922318Y-57778875D01*
X133871987Y-57763608D01*
X133732835Y-57689229D01*
X133610867Y-57589133D01*
X133510771Y-57467164D01*
X133436393Y-57328013D01*
X133436392Y-57328012D01*
X133393452Y-57186456D01*
X133390590Y-57177022D01*
X133379000Y-57059344D01*
X133379000Y-56480655D01*
X133390590Y-56362977D01*
X133421125Y-56262318D01*
X133436392Y-56211987D01*
X133455607Y-56176039D01*
X133510771Y-56072835D01*
X133610868Y-55950867D01*
X133732836Y-55850771D01*
X133871988Y-55776392D01*
X133922319Y-55761125D01*
X134022978Y-55730590D01*
X134180000Y-55715125D01*
X134337023Y-55730590D01*
G37*
G36*
X162277023Y-55730590D02*
G01*
X162377682Y-55761125D01*
X162428013Y-55776392D01*
X162567165Y-55850771D01*
X162689133Y-55950867D01*
X162789229Y-56072835D01*
X162863608Y-56211987D01*
X162878875Y-56262318D01*
X162909410Y-56362977D01*
X162921000Y-56480655D01*
X162921000Y-57059345D01*
X162909410Y-57177023D01*
X162885945Y-57254376D01*
X162863608Y-57328013D01*
X162789230Y-57467164D01*
X162789229Y-57467165D01*
X162689133Y-57589133D01*
X162567164Y-57689229D01*
X162428012Y-57763608D01*
X162377681Y-57778875D01*
X162277022Y-57809410D01*
X162120000Y-57824875D01*
X161962977Y-57809410D01*
X161862318Y-57778875D01*
X161811987Y-57763608D01*
X161672835Y-57689229D01*
X161550867Y-57589133D01*
X161450771Y-57467164D01*
X161376393Y-57328013D01*
X161376392Y-57328012D01*
X161333452Y-57186456D01*
X161330590Y-57177022D01*
X161319000Y-57059344D01*
X161319000Y-56480655D01*
X161330590Y-56362977D01*
X161361125Y-56262318D01*
X161376392Y-56211987D01*
X161395607Y-56176039D01*
X161450771Y-56072835D01*
X161550868Y-55950867D01*
X161672836Y-55850771D01*
X161811988Y-55776392D01*
X161862319Y-55761125D01*
X161962978Y-55730590D01*
X162120000Y-55715125D01*
X162277023Y-55730590D01*
G37*
G36*
X159737023Y-55730590D02*
G01*
X159837682Y-55761125D01*
X159888013Y-55776392D01*
X160027165Y-55850771D01*
X160149133Y-55950867D01*
X160249229Y-56072835D01*
X160323608Y-56211987D01*
X160338875Y-56262318D01*
X160369410Y-56362977D01*
X160381000Y-56480655D01*
X160381000Y-57059345D01*
X160369410Y-57177023D01*
X160345945Y-57254376D01*
X160323608Y-57328013D01*
X160249230Y-57467164D01*
X160249229Y-57467165D01*
X160149133Y-57589133D01*
X160027164Y-57689229D01*
X159888012Y-57763608D01*
X159837681Y-57778875D01*
X159737022Y-57809410D01*
X159580000Y-57824875D01*
X159422977Y-57809410D01*
X159322318Y-57778875D01*
X159271987Y-57763608D01*
X159132835Y-57689229D01*
X159010867Y-57589133D01*
X158910771Y-57467164D01*
X158836393Y-57328013D01*
X158836392Y-57328012D01*
X158793452Y-57186456D01*
X158790590Y-57177022D01*
X158779000Y-57059344D01*
X158779000Y-56480655D01*
X158790590Y-56362977D01*
X158821125Y-56262318D01*
X158836392Y-56211987D01*
X158855607Y-56176039D01*
X158910771Y-56072835D01*
X159010868Y-55950867D01*
X159132836Y-55850771D01*
X159271988Y-55776392D01*
X159322319Y-55761125D01*
X159422978Y-55730590D01*
X159580000Y-55715125D01*
X159737023Y-55730590D01*
G37*
G36*
X157197023Y-55730590D02*
G01*
X157297682Y-55761125D01*
X157348013Y-55776392D01*
X157487165Y-55850771D01*
X157609133Y-55950867D01*
X157709229Y-56072835D01*
X157783608Y-56211987D01*
X157798875Y-56262318D01*
X157829410Y-56362977D01*
X157841000Y-56480655D01*
X157841000Y-57059345D01*
X157829410Y-57177023D01*
X157805945Y-57254376D01*
X157783608Y-57328013D01*
X157709230Y-57467164D01*
X157709229Y-57467165D01*
X157609133Y-57589133D01*
X157487164Y-57689229D01*
X157348012Y-57763608D01*
X157297681Y-57778875D01*
X157197022Y-57809410D01*
X157040000Y-57824875D01*
X156882977Y-57809410D01*
X156782318Y-57778875D01*
X156731987Y-57763608D01*
X156592835Y-57689229D01*
X156470867Y-57589133D01*
X156370771Y-57467164D01*
X156296393Y-57328013D01*
X156296392Y-57328012D01*
X156253452Y-57186456D01*
X156250590Y-57177022D01*
X156239000Y-57059344D01*
X156239000Y-56480655D01*
X156250590Y-56362977D01*
X156281125Y-56262318D01*
X156296392Y-56211987D01*
X156315607Y-56176039D01*
X156370771Y-56072835D01*
X156470868Y-55950867D01*
X156592836Y-55850771D01*
X156731988Y-55776392D01*
X156782319Y-55761125D01*
X156882978Y-55730590D01*
X157040000Y-55715125D01*
X157197023Y-55730590D01*
G37*
G36*
X152117023Y-55730590D02*
G01*
X152217682Y-55761125D01*
X152268013Y-55776392D01*
X152407165Y-55850771D01*
X152529133Y-55950867D01*
X152629229Y-56072835D01*
X152703608Y-56211987D01*
X152718875Y-56262318D01*
X152749410Y-56362977D01*
X152761000Y-56480655D01*
X152761000Y-57059345D01*
X152749410Y-57177023D01*
X152725945Y-57254376D01*
X152703608Y-57328013D01*
X152629230Y-57467164D01*
X152629229Y-57467165D01*
X152529133Y-57589133D01*
X152407164Y-57689229D01*
X152268012Y-57763608D01*
X152217681Y-57778875D01*
X152117022Y-57809410D01*
X151960000Y-57824875D01*
X151802977Y-57809410D01*
X151702318Y-57778875D01*
X151651987Y-57763608D01*
X151512835Y-57689229D01*
X151390867Y-57589133D01*
X151290771Y-57467164D01*
X151216393Y-57328013D01*
X151216392Y-57328012D01*
X151173452Y-57186456D01*
X151170590Y-57177022D01*
X151159000Y-57059344D01*
X151159000Y-56480655D01*
X151170590Y-56362977D01*
X151201125Y-56262318D01*
X151216392Y-56211987D01*
X151235607Y-56176039D01*
X151290771Y-56072835D01*
X151390868Y-55950867D01*
X151512836Y-55850771D01*
X151651988Y-55776392D01*
X151702319Y-55761125D01*
X151802978Y-55730590D01*
X151960000Y-55715125D01*
X152117023Y-55730590D01*
G37*
G36*
X124177022Y-55730590D02*
G01*
X124277681Y-55761125D01*
X124328012Y-55776392D01*
X124467164Y-55850771D01*
X124589133Y-55950867D01*
X124689229Y-56072835D01*
X124763608Y-56211987D01*
X124778875Y-56262318D01*
X124809410Y-56362977D01*
X124821000Y-56480655D01*
X124821000Y-57059345D01*
X124809410Y-57177023D01*
X124785945Y-57254376D01*
X124763608Y-57328013D01*
X124689229Y-57467165D01*
X124589133Y-57589133D01*
X124467165Y-57689229D01*
X124328013Y-57763608D01*
X124277682Y-57778875D01*
X124177023Y-57809410D01*
X124020000Y-57824875D01*
X123862978Y-57809410D01*
X123762319Y-57778875D01*
X123711988Y-57763608D01*
X123572836Y-57689229D01*
X123450868Y-57589133D01*
X123450867Y-57589132D01*
X123350771Y-57467165D01*
X123295607Y-57363961D01*
X123276392Y-57328013D01*
X123254055Y-57254376D01*
X123230590Y-57177023D01*
X123219000Y-57059345D01*
X123219000Y-56480656D01*
X123219386Y-56476741D01*
X123230590Y-56362980D01*
X123230590Y-56362978D01*
X123276392Y-56211989D01*
X123276392Y-56211988D01*
X123350771Y-56072836D01*
X123350772Y-56072835D01*
X123450867Y-55950867D01*
X123572835Y-55850771D01*
X123711987Y-55776392D01*
X123762318Y-55761125D01*
X123862977Y-55730590D01*
X124020000Y-55715125D01*
X124177022Y-55730590D01*
G37*
G36*
X147037023Y-55730590D02*
G01*
X147137682Y-55761125D01*
X147188013Y-55776392D01*
X147327165Y-55850771D01*
X147449133Y-55950867D01*
X147549229Y-56072835D01*
X147623608Y-56211987D01*
X147638875Y-56262318D01*
X147669410Y-56362977D01*
X147681000Y-56480655D01*
X147681000Y-57059345D01*
X147669410Y-57177023D01*
X147645945Y-57254376D01*
X147623608Y-57328013D01*
X147549230Y-57467164D01*
X147549229Y-57467165D01*
X147449133Y-57589133D01*
X147327164Y-57689229D01*
X147188012Y-57763608D01*
X147137681Y-57778875D01*
X147037022Y-57809410D01*
X146880000Y-57824875D01*
X146722977Y-57809410D01*
X146622318Y-57778875D01*
X146571987Y-57763608D01*
X146432835Y-57689229D01*
X146310867Y-57589133D01*
X146210771Y-57467164D01*
X146136393Y-57328013D01*
X146136392Y-57328012D01*
X146093452Y-57186456D01*
X146090590Y-57177022D01*
X146079000Y-57059344D01*
X146079000Y-56480655D01*
X146090590Y-56362977D01*
X146121125Y-56262318D01*
X146136392Y-56211987D01*
X146155607Y-56176039D01*
X146210771Y-56072835D01*
X146310868Y-55950867D01*
X146432836Y-55850771D01*
X146571988Y-55776392D01*
X146622319Y-55761125D01*
X146722978Y-55730590D01*
X146880000Y-55715125D01*
X147037023Y-55730590D01*
G37*
G36*
X144497023Y-55730590D02*
G01*
X144597682Y-55761125D01*
X144648013Y-55776392D01*
X144787165Y-55850771D01*
X144909133Y-55950867D01*
X145009229Y-56072835D01*
X145083608Y-56211987D01*
X145098875Y-56262318D01*
X145129410Y-56362977D01*
X145141000Y-56480655D01*
X145141000Y-57059345D01*
X145129410Y-57177023D01*
X145105945Y-57254376D01*
X145083608Y-57328013D01*
X145009230Y-57467164D01*
X145009229Y-57467165D01*
X144909133Y-57589133D01*
X144787164Y-57689229D01*
X144648012Y-57763608D01*
X144597681Y-57778875D01*
X144497022Y-57809410D01*
X144340000Y-57824875D01*
X144182977Y-57809410D01*
X144082318Y-57778875D01*
X144031987Y-57763608D01*
X143892835Y-57689229D01*
X143770867Y-57589133D01*
X143670771Y-57467164D01*
X143596393Y-57328013D01*
X143596392Y-57328012D01*
X143553452Y-57186456D01*
X143550590Y-57177022D01*
X143539000Y-57059344D01*
X143539000Y-56480655D01*
X143550590Y-56362977D01*
X143581125Y-56262318D01*
X143596392Y-56211987D01*
X143615607Y-56176039D01*
X143670771Y-56072835D01*
X143770868Y-55950867D01*
X143892836Y-55850771D01*
X144031988Y-55776392D01*
X144082319Y-55761125D01*
X144182978Y-55730590D01*
X144340000Y-55715125D01*
X144497023Y-55730590D01*
G37*
G36*
X126717023Y-55730590D02*
G01*
X126817682Y-55761125D01*
X126868013Y-55776392D01*
X127007165Y-55850771D01*
X127129133Y-55950867D01*
X127229229Y-56072835D01*
X127303608Y-56211987D01*
X127318875Y-56262318D01*
X127349410Y-56362977D01*
X127361000Y-56480655D01*
X127361000Y-57059345D01*
X127349410Y-57177023D01*
X127325945Y-57254376D01*
X127303608Y-57328013D01*
X127229230Y-57467164D01*
X127229229Y-57467165D01*
X127129133Y-57589133D01*
X127007164Y-57689229D01*
X126868012Y-57763608D01*
X126817681Y-57778875D01*
X126717022Y-57809410D01*
X126560000Y-57824875D01*
X126402977Y-57809410D01*
X126302318Y-57778875D01*
X126251987Y-57763608D01*
X126112835Y-57689229D01*
X125990867Y-57589133D01*
X125890771Y-57467164D01*
X125816393Y-57328013D01*
X125816392Y-57328012D01*
X125773452Y-57186456D01*
X125770590Y-57177022D01*
X125759000Y-57059344D01*
X125759000Y-56480655D01*
X125770590Y-56362977D01*
X125801125Y-56262318D01*
X125816392Y-56211987D01*
X125835607Y-56176039D01*
X125890771Y-56072835D01*
X125990868Y-55950867D01*
X126112836Y-55850771D01*
X126251988Y-55776392D01*
X126302319Y-55761125D01*
X126402978Y-55730590D01*
X126560000Y-55715125D01*
X126717023Y-55730590D01*
G37*
G36*
X141957023Y-55730590D02*
G01*
X142057682Y-55761125D01*
X142108013Y-55776392D01*
X142247165Y-55850771D01*
X142369133Y-55950867D01*
X142469229Y-56072835D01*
X142543608Y-56211987D01*
X142558875Y-56262318D01*
X142589410Y-56362977D01*
X142601000Y-56480655D01*
X142601000Y-57059345D01*
X142589410Y-57177023D01*
X142565945Y-57254376D01*
X142543608Y-57328013D01*
X142469230Y-57467164D01*
X142469229Y-57467165D01*
X142369133Y-57589133D01*
X142247164Y-57689229D01*
X142108012Y-57763608D01*
X142057681Y-57778875D01*
X141957022Y-57809410D01*
X141800000Y-57824875D01*
X141642977Y-57809410D01*
X141542318Y-57778875D01*
X141491987Y-57763608D01*
X141352835Y-57689229D01*
X141230867Y-57589133D01*
X141130771Y-57467164D01*
X141056393Y-57328013D01*
X141056392Y-57328012D01*
X141013452Y-57186456D01*
X141010590Y-57177022D01*
X140999000Y-57059344D01*
X140999000Y-56480655D01*
X141010590Y-56362977D01*
X141041125Y-56262318D01*
X141056392Y-56211987D01*
X141075607Y-56176039D01*
X141130771Y-56072835D01*
X141230868Y-55950867D01*
X141352836Y-55850771D01*
X141491988Y-55776392D01*
X141542319Y-55761125D01*
X141642978Y-55730590D01*
X141800000Y-55715125D01*
X141957023Y-55730590D01*
G37*
G36*
X164817023Y-55730590D02*
G01*
X164917682Y-55761125D01*
X164968013Y-55776392D01*
X165107165Y-55850771D01*
X165229133Y-55950867D01*
X165329229Y-56072835D01*
X165403608Y-56211987D01*
X165418875Y-56262318D01*
X165449410Y-56362977D01*
X165461000Y-56480655D01*
X165461000Y-57059345D01*
X165449410Y-57177023D01*
X165425945Y-57254376D01*
X165403608Y-57328013D01*
X165329230Y-57467164D01*
X165329229Y-57467165D01*
X165229133Y-57589133D01*
X165107164Y-57689229D01*
X164968012Y-57763608D01*
X164917681Y-57778875D01*
X164817022Y-57809410D01*
X164660000Y-57824875D01*
X164502977Y-57809410D01*
X164402318Y-57778875D01*
X164351987Y-57763608D01*
X164212835Y-57689229D01*
X164090867Y-57589133D01*
X163990771Y-57467164D01*
X163916393Y-57328013D01*
X163916392Y-57328012D01*
X163873452Y-57186456D01*
X163870590Y-57177022D01*
X163859000Y-57059344D01*
X163859000Y-56480655D01*
X163870590Y-56362977D01*
X163901125Y-56262318D01*
X163916392Y-56211987D01*
X163935607Y-56176039D01*
X163990771Y-56072835D01*
X164090868Y-55950867D01*
X164212836Y-55850771D01*
X164351988Y-55776392D01*
X164402319Y-55761125D01*
X164502978Y-55730590D01*
X164660000Y-55715125D01*
X164817023Y-55730590D01*
G37*
G36*
X100697512Y-55491927D02*
G01*
X100846812Y-55521624D01*
X101010784Y-55589544D01*
X101158354Y-55688147D01*
X101283853Y-55813646D01*
X101382456Y-55961216D01*
X101450376Y-56125188D01*
X101467641Y-56211988D01*
X101485000Y-56299258D01*
X101485000Y-56476742D01*
X101484221Y-56480656D01*
X101450376Y-56650812D01*
X101382456Y-56814784D01*
X101283853Y-56962354D01*
X101158354Y-57087853D01*
X101010784Y-57186456D01*
X100846812Y-57254376D01*
X100697512Y-57284073D01*
X100672742Y-57289000D01*
X100495258Y-57289000D01*
X100470488Y-57284073D01*
X100321188Y-57254376D01*
X100157216Y-57186456D01*
X100009646Y-57087853D01*
X99884147Y-56962354D01*
X99785544Y-56814784D01*
X99717624Y-56650812D01*
X99683779Y-56480656D01*
X99683000Y-56476742D01*
X99683000Y-56299258D01*
X99700359Y-56211988D01*
X99717624Y-56125188D01*
X99785544Y-55961216D01*
X99884147Y-55813646D01*
X100009646Y-55688147D01*
X100157216Y-55589544D01*
X100321188Y-55521624D01*
X100470488Y-55491927D01*
X100495258Y-55487000D01*
X100672742Y-55487000D01*
X100697512Y-55491927D01*
G37*
G36*
X98945000Y-57289000D02*
G01*
X97143000Y-57289000D01*
X97143000Y-55487000D01*
X98945000Y-55487000D01*
X98945000Y-57289000D01*
G37*
G36*
X100697512Y-50665927D02*
G01*
X100846812Y-50695624D01*
X101010784Y-50763544D01*
X101158354Y-50862147D01*
X101283853Y-50987646D01*
X101382456Y-51135216D01*
X101450376Y-51299188D01*
X101485000Y-51473259D01*
X101485000Y-51650741D01*
X101450376Y-51824812D01*
X101382456Y-51988784D01*
X101283853Y-52136354D01*
X101158354Y-52261853D01*
X101010784Y-52360456D01*
X100846812Y-52428376D01*
X100697512Y-52458073D01*
X100672742Y-52463000D01*
X100495258Y-52463000D01*
X100470488Y-52458073D01*
X100321188Y-52428376D01*
X100157216Y-52360456D01*
X100009646Y-52261853D01*
X99884147Y-52136354D01*
X99785544Y-51988784D01*
X99717624Y-51824812D01*
X99683000Y-51650741D01*
X99683000Y-51473259D01*
X99717624Y-51299188D01*
X99785544Y-51135216D01*
X99884147Y-50987646D01*
X100009646Y-50862147D01*
X100157216Y-50763544D01*
X100321188Y-50695624D01*
X100470488Y-50665927D01*
X100495258Y-50661000D01*
X100672742Y-50661000D01*
X100697512Y-50665927D01*
G37*
G36*
X98157512Y-50665927D02*
G01*
X98306812Y-50695624D01*
X98470784Y-50763544D01*
X98618354Y-50862147D01*
X98743853Y-50987646D01*
X98842456Y-51135216D01*
X98910376Y-51299188D01*
X98945000Y-51473259D01*
X98945000Y-51650741D01*
X98910376Y-51824812D01*
X98842456Y-51988784D01*
X98743853Y-52136354D01*
X98618354Y-52261853D01*
X98470784Y-52360456D01*
X98306812Y-52428376D01*
X98157512Y-52458073D01*
X98132742Y-52463000D01*
X97955258Y-52463000D01*
X97930488Y-52458073D01*
X97781188Y-52428376D01*
X97617216Y-52360456D01*
X97469646Y-52261853D01*
X97344147Y-52136354D01*
X97245544Y-51988784D01*
X97177624Y-51824812D01*
X97143000Y-51650741D01*
X97143000Y-51473259D01*
X97177624Y-51299188D01*
X97245544Y-51135216D01*
X97344147Y-50987646D01*
X97469646Y-50862147D01*
X97617216Y-50763544D01*
X97781188Y-50695624D01*
X97930488Y-50665927D01*
X97955258Y-50661000D01*
X98132742Y-50661000D01*
X98157512Y-50665927D01*
G37*
G36*
X172898228Y-50531703D02*
G01*
X173053100Y-50595853D01*
X173192481Y-50688985D01*
X173311015Y-50807519D01*
X173404147Y-50946900D01*
X173468297Y-51101772D01*
X173501000Y-51266184D01*
X173501000Y-51433816D01*
X173468297Y-51598228D01*
X173404147Y-51753100D01*
X173311015Y-51892481D01*
X173192481Y-52011015D01*
X173053100Y-52104147D01*
X172898228Y-52168297D01*
X172733816Y-52201000D01*
X172566184Y-52201000D01*
X172401772Y-52168297D01*
X172246900Y-52104147D01*
X172107519Y-52011015D01*
X171988985Y-51892481D01*
X171895853Y-51753100D01*
X171831703Y-51598228D01*
X171799000Y-51433816D01*
X171799000Y-51266184D01*
X171831703Y-51101772D01*
X171895853Y-50946900D01*
X171988985Y-50807519D01*
X172107519Y-50688985D01*
X172246900Y-50595853D01*
X172401772Y-50531703D01*
X172566184Y-50499000D01*
X172733816Y-50499000D01*
X172898228Y-50531703D01*
G37*
G36*
X183058228Y-50531703D02*
G01*
X183213100Y-50595853D01*
X183352481Y-50688985D01*
X183471015Y-50807519D01*
X183564147Y-50946900D01*
X183628297Y-51101772D01*
X183661000Y-51266184D01*
X183661000Y-51433816D01*
X183628297Y-51598228D01*
X183564147Y-51753100D01*
X183471015Y-51892481D01*
X183352481Y-52011015D01*
X183213100Y-52104147D01*
X183058228Y-52168297D01*
X182893816Y-52201000D01*
X182726184Y-52201000D01*
X182561772Y-52168297D01*
X182406900Y-52104147D01*
X182267519Y-52011015D01*
X182148985Y-51892481D01*
X182055853Y-51753100D01*
X181991703Y-51598228D01*
X181959000Y-51433816D01*
X181959000Y-51266184D01*
X181991703Y-51101772D01*
X182055853Y-50946900D01*
X182148985Y-50807519D01*
X182267519Y-50688985D01*
X182406900Y-50595853D01*
X182561772Y-50531703D01*
X182726184Y-50499000D01*
X182893816Y-50499000D01*
X183058228Y-50531703D01*
G37*
G36*
X188851000Y-52001000D02*
G01*
X187549000Y-52001000D01*
X187549000Y-50699000D01*
X188851000Y-50699000D01*
X188851000Y-52001000D01*
G37*
G36*
X188351420Y-48716365D02*
G01*
X188389890Y-48724017D01*
X188508364Y-48773091D01*
X188595605Y-48831384D01*
X188614988Y-48844335D01*
X188705665Y-48935012D01*
X188776910Y-49041638D01*
X188805534Y-49110742D01*
X188825983Y-49160110D01*
X188851000Y-49285882D01*
X188851000Y-49414118D01*
X188825983Y-49539890D01*
X188776909Y-49658364D01*
X188705665Y-49764988D01*
X188614988Y-49855665D01*
X188508364Y-49926909D01*
X188508363Y-49926910D01*
X188508362Y-49926910D01*
X188389890Y-49975983D01*
X188264119Y-50001000D01*
X188135881Y-50001000D01*
X188010110Y-49975983D01*
X187891638Y-49926910D01*
X187891637Y-49926910D01*
X187891636Y-49926909D01*
X187785012Y-49855665D01*
X187694335Y-49764988D01*
X187623091Y-49658364D01*
X187574017Y-49539890D01*
X187549000Y-49414118D01*
X187549000Y-49285882D01*
X187574017Y-49160110D01*
X187594466Y-49110742D01*
X187623090Y-49041638D01*
X187694335Y-48935012D01*
X187785012Y-48844335D01*
X187804395Y-48831384D01*
X187891636Y-48773091D01*
X188010110Y-48724017D01*
X188048580Y-48716365D01*
X188135881Y-48699000D01*
X188264119Y-48699000D01*
X188351420Y-48716365D01*
G37*
G36*
X98945000Y-49923000D02*
G01*
X97143000Y-49923000D01*
X97143000Y-48121000D01*
X98945000Y-48121000D01*
X98945000Y-49923000D01*
G37*
G36*
X100697512Y-48125927D02*
G01*
X100846812Y-48155624D01*
X101010784Y-48223544D01*
X101158354Y-48322147D01*
X101283853Y-48447646D01*
X101382456Y-48595216D01*
X101450376Y-48759188D01*
X101485000Y-48933259D01*
X101485000Y-49110741D01*
X101450376Y-49284812D01*
X101382456Y-49448784D01*
X101283853Y-49596354D01*
X101158354Y-49721853D01*
X101010784Y-49820456D01*
X100846812Y-49888376D01*
X100697512Y-49918073D01*
X100672742Y-49923000D01*
X100495258Y-49923000D01*
X100470488Y-49918073D01*
X100321188Y-49888376D01*
X100157216Y-49820456D01*
X100009646Y-49721853D01*
X99884147Y-49596354D01*
X99785544Y-49448784D01*
X99717624Y-49284812D01*
X99683000Y-49110741D01*
X99683000Y-48933259D01*
X99717624Y-48759188D01*
X99785544Y-48595216D01*
X99884147Y-48447646D01*
X100009646Y-48322147D01*
X100157216Y-48223544D01*
X100321188Y-48155624D01*
X100470488Y-48125927D01*
X100495258Y-48121000D01*
X100672742Y-48121000D01*
X100697512Y-48125927D01*
G37*
G36*
X109106564Y-46889389D02*
G01*
X109297833Y-46968615D01*
X109297835Y-46968616D01*
X109408506Y-47042564D01*
X109469973Y-47083635D01*
X109616365Y-47230027D01*
X109731385Y-47402167D01*
X109810611Y-47593436D01*
X109851000Y-47796484D01*
X109851000Y-48003516D01*
X109810611Y-48206564D01*
X109731385Y-48397833D01*
X109731384Y-48397835D01*
X109616365Y-48569973D01*
X109469973Y-48716365D01*
X109297835Y-48831384D01*
X109297834Y-48831385D01*
X109297833Y-48831385D01*
X109106564Y-48910611D01*
X108903516Y-48951000D01*
X108696484Y-48951000D01*
X108493436Y-48910611D01*
X108302167Y-48831385D01*
X108302166Y-48831385D01*
X108302165Y-48831384D01*
X108130027Y-48716365D01*
X107983635Y-48569973D01*
X107868616Y-48397835D01*
X107868615Y-48397833D01*
X107789389Y-48206564D01*
X107749000Y-48003516D01*
X107749000Y-47796484D01*
X107789389Y-47593436D01*
X107868615Y-47402167D01*
X107983635Y-47230027D01*
X108130027Y-47083635D01*
X108191494Y-47042564D01*
X108302165Y-46968616D01*
X108302167Y-46968615D01*
X108493436Y-46889389D01*
X108696484Y-46849000D01*
X108903516Y-46849000D01*
X109106564Y-46889389D01*
G37*
G36*
X133806564Y-45725389D02*
G01*
X133997833Y-45804615D01*
X133997835Y-45804616D01*
X134169973Y-45919635D01*
X134316365Y-46066027D01*
X134383067Y-46165853D01*
X134431385Y-46238167D01*
X134510611Y-46429436D01*
X134551000Y-46632484D01*
X134551000Y-46839516D01*
X134510611Y-47042564D01*
X134432961Y-47230027D01*
X134431384Y-47233835D01*
X134316365Y-47405973D01*
X134169973Y-47552365D01*
X133997835Y-47667384D01*
X133997834Y-47667385D01*
X133997833Y-47667385D01*
X133806564Y-47746611D01*
X133603516Y-47787000D01*
X133396484Y-47787000D01*
X133193436Y-47746611D01*
X133002167Y-47667385D01*
X133002166Y-47667385D01*
X133002165Y-47667384D01*
X132830027Y-47552365D01*
X132683635Y-47405973D01*
X132568616Y-47233835D01*
X132567039Y-47230027D01*
X132489389Y-47042564D01*
X132449000Y-46839516D01*
X132449000Y-46632484D01*
X132489389Y-46429436D01*
X132568615Y-46238167D01*
X132616934Y-46165853D01*
X132683635Y-46066027D01*
X132830027Y-45919635D01*
X133002165Y-45804616D01*
X133002167Y-45804615D01*
X133193436Y-45725389D01*
X133396484Y-45685000D01*
X133603516Y-45685000D01*
X133806564Y-45725389D01*
G37*
G36*
X127306564Y-45725389D02*
G01*
X127497833Y-45804615D01*
X127497835Y-45804616D01*
X127669973Y-45919635D01*
X127816365Y-46066027D01*
X127883067Y-46165853D01*
X127931385Y-46238167D01*
X128010611Y-46429436D01*
X128051000Y-46632484D01*
X128051000Y-46839516D01*
X128010611Y-47042564D01*
X127932961Y-47230027D01*
X127931384Y-47233835D01*
X127816365Y-47405973D01*
X127669973Y-47552365D01*
X127497835Y-47667384D01*
X127497834Y-47667385D01*
X127497833Y-47667385D01*
X127306564Y-47746611D01*
X127103516Y-47787000D01*
X126896484Y-47787000D01*
X126693436Y-47746611D01*
X126502167Y-47667385D01*
X126502166Y-47667385D01*
X126502165Y-47667384D01*
X126330027Y-47552365D01*
X126183635Y-47405973D01*
X126068616Y-47233835D01*
X126067039Y-47230027D01*
X125989389Y-47042564D01*
X125949000Y-46839516D01*
X125949000Y-46632484D01*
X125989389Y-46429436D01*
X126068615Y-46238167D01*
X126116934Y-46165853D01*
X126183635Y-46066027D01*
X126330027Y-45919635D01*
X126502165Y-45804616D01*
X126502167Y-45804615D01*
X126693436Y-45725389D01*
X126896484Y-45685000D01*
X127103516Y-45685000D01*
X127306564Y-45725389D01*
G37*
G36*
X157085512Y-44569927D02*
G01*
X157234812Y-44599624D01*
X157398784Y-44667544D01*
X157546354Y-44766147D01*
X157671853Y-44891646D01*
X157770456Y-45039216D01*
X157838376Y-45203188D01*
X157873000Y-45377259D01*
X157873000Y-45554741D01*
X157838376Y-45728812D01*
X157770456Y-45892784D01*
X157671853Y-46040354D01*
X157546354Y-46165853D01*
X157398784Y-46264456D01*
X157234812Y-46332376D01*
X157085512Y-46362073D01*
X157060742Y-46367000D01*
X156883258Y-46367000D01*
X156858488Y-46362073D01*
X156709188Y-46332376D01*
X156545216Y-46264456D01*
X156397646Y-46165853D01*
X156272147Y-46040354D01*
X156173544Y-45892784D01*
X156105624Y-45728812D01*
X156071000Y-45554741D01*
X156071000Y-45377259D01*
X156105624Y-45203188D01*
X156173544Y-45039216D01*
X156272147Y-44891646D01*
X156397646Y-44766147D01*
X156545216Y-44667544D01*
X156709188Y-44599624D01*
X156858488Y-44569927D01*
X156883258Y-44565000D01*
X157060742Y-44565000D01*
X157085512Y-44569927D01*
G37*
G36*
X169785512Y-44569927D02*
G01*
X169934812Y-44599624D01*
X170098784Y-44667544D01*
X170246354Y-44766147D01*
X170371853Y-44891646D01*
X170470456Y-45039216D01*
X170538376Y-45203188D01*
X170573000Y-45377259D01*
X170573000Y-45554741D01*
X170538376Y-45728812D01*
X170470456Y-45892784D01*
X170371853Y-46040354D01*
X170246354Y-46165853D01*
X170098784Y-46264456D01*
X169934812Y-46332376D01*
X169785512Y-46362073D01*
X169760742Y-46367000D01*
X169583258Y-46367000D01*
X169558488Y-46362073D01*
X169409188Y-46332376D01*
X169245216Y-46264456D01*
X169097646Y-46165853D01*
X168972147Y-46040354D01*
X168873544Y-45892784D01*
X168805624Y-45728812D01*
X168771000Y-45554741D01*
X168771000Y-45377259D01*
X168805624Y-45203188D01*
X168873544Y-45039216D01*
X168972147Y-44891646D01*
X169097646Y-44766147D01*
X169245216Y-44667544D01*
X169409188Y-44599624D01*
X169558488Y-44569927D01*
X169583258Y-44565000D01*
X169760742Y-44565000D01*
X169785512Y-44569927D01*
G37*
G36*
X172325512Y-44569927D02*
G01*
X172474812Y-44599624D01*
X172638784Y-44667544D01*
X172786354Y-44766147D01*
X172911853Y-44891646D01*
X173010456Y-45039216D01*
X173078376Y-45203188D01*
X173113000Y-45377259D01*
X173113000Y-45554741D01*
X173078376Y-45728812D01*
X173010456Y-45892784D01*
X172911853Y-46040354D01*
X172786354Y-46165853D01*
X172638784Y-46264456D01*
X172474812Y-46332376D01*
X172325512Y-46362073D01*
X172300742Y-46367000D01*
X172123258Y-46367000D01*
X172098488Y-46362073D01*
X171949188Y-46332376D01*
X171785216Y-46264456D01*
X171637646Y-46165853D01*
X171512147Y-46040354D01*
X171413544Y-45892784D01*
X171345624Y-45728812D01*
X171311000Y-45554741D01*
X171311000Y-45377259D01*
X171345624Y-45203188D01*
X171413544Y-45039216D01*
X171512147Y-44891646D01*
X171637646Y-44766147D01*
X171785216Y-44667544D01*
X171949188Y-44599624D01*
X172098488Y-44569927D01*
X172123258Y-44565000D01*
X172300742Y-44565000D01*
X172325512Y-44569927D01*
G37*
G36*
X159625512Y-44569927D02*
G01*
X159774812Y-44599624D01*
X159938784Y-44667544D01*
X160086354Y-44766147D01*
X160211853Y-44891646D01*
X160310456Y-45039216D01*
X160378376Y-45203188D01*
X160413000Y-45377259D01*
X160413000Y-45554741D01*
X160378376Y-45728812D01*
X160310456Y-45892784D01*
X160211853Y-46040354D01*
X160086354Y-46165853D01*
X159938784Y-46264456D01*
X159774812Y-46332376D01*
X159625512Y-46362073D01*
X159600742Y-46367000D01*
X159423258Y-46367000D01*
X159398488Y-46362073D01*
X159249188Y-46332376D01*
X159085216Y-46264456D01*
X158937646Y-46165853D01*
X158812147Y-46040354D01*
X158713544Y-45892784D01*
X158645624Y-45728812D01*
X158611000Y-45554741D01*
X158611000Y-45377259D01*
X158645624Y-45203188D01*
X158713544Y-45039216D01*
X158812147Y-44891646D01*
X158937646Y-44766147D01*
X159085216Y-44667544D01*
X159249188Y-44599624D01*
X159398488Y-44569927D01*
X159423258Y-44565000D01*
X159600742Y-44565000D01*
X159625512Y-44569927D01*
G37*
G36*
X167245512Y-44569927D02*
G01*
X167394812Y-44599624D01*
X167558784Y-44667544D01*
X167706354Y-44766147D01*
X167831853Y-44891646D01*
X167930456Y-45039216D01*
X167998376Y-45203188D01*
X168033000Y-45377259D01*
X168033000Y-45554741D01*
X167998376Y-45728812D01*
X167930456Y-45892784D01*
X167831853Y-46040354D01*
X167706354Y-46165853D01*
X167558784Y-46264456D01*
X167394812Y-46332376D01*
X167245512Y-46362073D01*
X167220742Y-46367000D01*
X167043258Y-46367000D01*
X167018488Y-46362073D01*
X166869188Y-46332376D01*
X166705216Y-46264456D01*
X166557646Y-46165853D01*
X166432147Y-46040354D01*
X166333544Y-45892784D01*
X166265624Y-45728812D01*
X166231000Y-45554741D01*
X166231000Y-45377259D01*
X166265624Y-45203188D01*
X166333544Y-45039216D01*
X166432147Y-44891646D01*
X166557646Y-44766147D01*
X166705216Y-44667544D01*
X166869188Y-44599624D01*
X167018488Y-44569927D01*
X167043258Y-44565000D01*
X167220742Y-44565000D01*
X167245512Y-44569927D01*
G37*
G36*
X162165512Y-44569927D02*
G01*
X162314812Y-44599624D01*
X162478784Y-44667544D01*
X162626354Y-44766147D01*
X162751853Y-44891646D01*
X162850456Y-45039216D01*
X162918376Y-45203188D01*
X162953000Y-45377259D01*
X162953000Y-45554741D01*
X162918376Y-45728812D01*
X162850456Y-45892784D01*
X162751853Y-46040354D01*
X162626354Y-46165853D01*
X162478784Y-46264456D01*
X162314812Y-46332376D01*
X162165512Y-46362073D01*
X162140742Y-46367000D01*
X161963258Y-46367000D01*
X161938488Y-46362073D01*
X161789188Y-46332376D01*
X161625216Y-46264456D01*
X161477646Y-46165853D01*
X161352147Y-46040354D01*
X161253544Y-45892784D01*
X161185624Y-45728812D01*
X161151000Y-45554741D01*
X161151000Y-45377259D01*
X161185624Y-45203188D01*
X161253544Y-45039216D01*
X161352147Y-44891646D01*
X161477646Y-44766147D01*
X161625216Y-44667544D01*
X161789188Y-44599624D01*
X161938488Y-44569927D01*
X161963258Y-44565000D01*
X162140742Y-44565000D01*
X162165512Y-44569927D01*
G37*
G36*
X164705512Y-44569927D02*
G01*
X164854812Y-44599624D01*
X165018784Y-44667544D01*
X165166354Y-44766147D01*
X165291853Y-44891646D01*
X165390456Y-45039216D01*
X165458376Y-45203188D01*
X165493000Y-45377259D01*
X165493000Y-45554741D01*
X165458376Y-45728812D01*
X165390456Y-45892784D01*
X165291853Y-46040354D01*
X165166354Y-46165853D01*
X165018784Y-46264456D01*
X164854812Y-46332376D01*
X164705512Y-46362073D01*
X164680742Y-46367000D01*
X164503258Y-46367000D01*
X164478488Y-46362073D01*
X164329188Y-46332376D01*
X164165216Y-46264456D01*
X164017646Y-46165853D01*
X163892147Y-46040354D01*
X163793544Y-45892784D01*
X163725624Y-45728812D01*
X163691000Y-45554741D01*
X163691000Y-45377259D01*
X163725624Y-45203188D01*
X163793544Y-45039216D01*
X163892147Y-44891646D01*
X164017646Y-44766147D01*
X164165216Y-44667544D01*
X164329188Y-44599624D01*
X164478488Y-44569927D01*
X164503258Y-44565000D01*
X164680742Y-44565000D01*
X164705512Y-44569927D01*
G37*
G36*
X174865512Y-44569927D02*
G01*
X175014812Y-44599624D01*
X175178784Y-44667544D01*
X175326354Y-44766147D01*
X175451853Y-44891646D01*
X175550456Y-45039216D01*
X175618376Y-45203188D01*
X175653000Y-45377259D01*
X175653000Y-45554741D01*
X175618376Y-45728812D01*
X175550456Y-45892784D01*
X175451853Y-46040354D01*
X175326354Y-46165853D01*
X175178784Y-46264456D01*
X175014812Y-46332376D01*
X174865512Y-46362073D01*
X174840742Y-46367000D01*
X174663258Y-46367000D01*
X174638488Y-46362073D01*
X174489188Y-46332376D01*
X174325216Y-46264456D01*
X174177646Y-46165853D01*
X174052147Y-46040354D01*
X173953544Y-45892784D01*
X173885624Y-45728812D01*
X173851000Y-45554741D01*
X173851000Y-45377259D01*
X173885624Y-45203188D01*
X173953544Y-45039216D01*
X174052147Y-44891646D01*
X174177646Y-44766147D01*
X174325216Y-44667544D01*
X174489188Y-44599624D01*
X174638488Y-44569927D01*
X174663258Y-44565000D01*
X174840742Y-44565000D01*
X174865512Y-44569927D01*
G37*
G36*
X183001000Y-45701000D02*
G01*
X181299000Y-45701000D01*
X181299000Y-43999000D01*
X183001000Y-43999000D01*
X183001000Y-45701000D01*
G37*
G36*
X109851000Y-43951000D02*
G01*
X107749000Y-43951000D01*
X107749000Y-41849000D01*
X109851000Y-41849000D01*
X109851000Y-43951000D01*
G37*
G36*
X164705512Y-42029927D02*
G01*
X164854812Y-42059624D01*
X165018784Y-42127544D01*
X165166354Y-42226147D01*
X165291853Y-42351646D01*
X165390456Y-42499216D01*
X165458376Y-42663188D01*
X165493000Y-42837259D01*
X165493000Y-43014741D01*
X165458376Y-43188812D01*
X165390456Y-43352784D01*
X165291853Y-43500354D01*
X165166354Y-43625853D01*
X165018784Y-43724456D01*
X164854812Y-43792376D01*
X164705512Y-43822073D01*
X164680742Y-43827000D01*
X164503258Y-43827000D01*
X164478488Y-43822073D01*
X164329188Y-43792376D01*
X164165216Y-43724456D01*
X164017646Y-43625853D01*
X163892147Y-43500354D01*
X163793544Y-43352784D01*
X163725624Y-43188812D01*
X163691000Y-43014741D01*
X163691000Y-42837259D01*
X163725624Y-42663188D01*
X163793544Y-42499216D01*
X163892147Y-42351646D01*
X164017646Y-42226147D01*
X164165216Y-42127544D01*
X164329188Y-42059624D01*
X164478488Y-42029927D01*
X164503258Y-42025000D01*
X164680742Y-42025000D01*
X164705512Y-42029927D01*
G37*
G36*
X175653000Y-43827000D02*
G01*
X173851000Y-43827000D01*
X173851000Y-42025000D01*
X175653000Y-42025000D01*
X175653000Y-43827000D01*
G37*
G36*
X157085512Y-42029927D02*
G01*
X157234812Y-42059624D01*
X157398784Y-42127544D01*
X157546354Y-42226147D01*
X157671853Y-42351646D01*
X157770456Y-42499216D01*
X157838376Y-42663188D01*
X157873000Y-42837259D01*
X157873000Y-43014741D01*
X157838376Y-43188812D01*
X157770456Y-43352784D01*
X157671853Y-43500354D01*
X157546354Y-43625853D01*
X157398784Y-43724456D01*
X157234812Y-43792376D01*
X157085512Y-43822073D01*
X157060742Y-43827000D01*
X156883258Y-43827000D01*
X156858488Y-43822073D01*
X156709188Y-43792376D01*
X156545216Y-43724456D01*
X156397646Y-43625853D01*
X156272147Y-43500354D01*
X156173544Y-43352784D01*
X156105624Y-43188812D01*
X156071000Y-43014741D01*
X156071000Y-42837259D01*
X156105624Y-42663188D01*
X156173544Y-42499216D01*
X156272147Y-42351646D01*
X156397646Y-42226147D01*
X156545216Y-42127544D01*
X156709188Y-42059624D01*
X156858488Y-42029927D01*
X156883258Y-42025000D01*
X157060742Y-42025000D01*
X157085512Y-42029927D01*
G37*
G36*
X159625512Y-42029927D02*
G01*
X159774812Y-42059624D01*
X159938784Y-42127544D01*
X160086354Y-42226147D01*
X160211853Y-42351646D01*
X160310456Y-42499216D01*
X160378376Y-42663188D01*
X160413000Y-42837259D01*
X160413000Y-43014741D01*
X160378376Y-43188812D01*
X160310456Y-43352784D01*
X160211853Y-43500354D01*
X160086354Y-43625853D01*
X159938784Y-43724456D01*
X159774812Y-43792376D01*
X159625512Y-43822073D01*
X159600742Y-43827000D01*
X159423258Y-43827000D01*
X159398488Y-43822073D01*
X159249188Y-43792376D01*
X159085216Y-43724456D01*
X158937646Y-43625853D01*
X158812147Y-43500354D01*
X158713544Y-43352784D01*
X158645624Y-43188812D01*
X158611000Y-43014741D01*
X158611000Y-42837259D01*
X158645624Y-42663188D01*
X158713544Y-42499216D01*
X158812147Y-42351646D01*
X158937646Y-42226147D01*
X159085216Y-42127544D01*
X159249188Y-42059624D01*
X159398488Y-42029927D01*
X159423258Y-42025000D01*
X159600742Y-42025000D01*
X159625512Y-42029927D01*
G37*
G36*
X162165512Y-42029927D02*
G01*
X162314812Y-42059624D01*
X162478784Y-42127544D01*
X162626354Y-42226147D01*
X162751853Y-42351646D01*
X162850456Y-42499216D01*
X162918376Y-42663188D01*
X162953000Y-42837259D01*
X162953000Y-43014741D01*
X162918376Y-43188812D01*
X162850456Y-43352784D01*
X162751853Y-43500354D01*
X162626354Y-43625853D01*
X162478784Y-43724456D01*
X162314812Y-43792376D01*
X162165512Y-43822073D01*
X162140742Y-43827000D01*
X161963258Y-43827000D01*
X161938488Y-43822073D01*
X161789188Y-43792376D01*
X161625216Y-43724456D01*
X161477646Y-43625853D01*
X161352147Y-43500354D01*
X161253544Y-43352784D01*
X161185624Y-43188812D01*
X161151000Y-43014741D01*
X161151000Y-42837259D01*
X161185624Y-42663188D01*
X161253544Y-42499216D01*
X161352147Y-42351646D01*
X161477646Y-42226147D01*
X161625216Y-42127544D01*
X161789188Y-42059624D01*
X161938488Y-42029927D01*
X161963258Y-42025000D01*
X162140742Y-42025000D01*
X162165512Y-42029927D01*
G37*
G36*
X167245512Y-42029927D02*
G01*
X167394812Y-42059624D01*
X167558784Y-42127544D01*
X167706354Y-42226147D01*
X167831853Y-42351646D01*
X167930456Y-42499216D01*
X167998376Y-42663188D01*
X168033000Y-42837259D01*
X168033000Y-43014741D01*
X167998376Y-43188812D01*
X167930456Y-43352784D01*
X167831853Y-43500354D01*
X167706354Y-43625853D01*
X167558784Y-43724456D01*
X167394812Y-43792376D01*
X167245512Y-43822073D01*
X167220742Y-43827000D01*
X167043258Y-43827000D01*
X167018488Y-43822073D01*
X166869188Y-43792376D01*
X166705216Y-43724456D01*
X166557646Y-43625853D01*
X166432147Y-43500354D01*
X166333544Y-43352784D01*
X166265624Y-43188812D01*
X166231000Y-43014741D01*
X166231000Y-42837259D01*
X166265624Y-42663188D01*
X166333544Y-42499216D01*
X166432147Y-42351646D01*
X166557646Y-42226147D01*
X166705216Y-42127544D01*
X166869188Y-42059624D01*
X167018488Y-42029927D01*
X167043258Y-42025000D01*
X167220742Y-42025000D01*
X167245512Y-42029927D01*
G37*
G36*
X169785512Y-42029927D02*
G01*
X169934812Y-42059624D01*
X170098784Y-42127544D01*
X170246354Y-42226147D01*
X170371853Y-42351646D01*
X170470456Y-42499216D01*
X170538376Y-42663188D01*
X170573000Y-42837259D01*
X170573000Y-43014741D01*
X170538376Y-43188812D01*
X170470456Y-43352784D01*
X170371853Y-43500354D01*
X170246354Y-43625853D01*
X170098784Y-43724456D01*
X169934812Y-43792376D01*
X169785512Y-43822073D01*
X169760742Y-43827000D01*
X169583258Y-43827000D01*
X169558488Y-43822073D01*
X169409188Y-43792376D01*
X169245216Y-43724456D01*
X169097646Y-43625853D01*
X168972147Y-43500354D01*
X168873544Y-43352784D01*
X168805624Y-43188812D01*
X168771000Y-43014741D01*
X168771000Y-42837259D01*
X168805624Y-42663188D01*
X168873544Y-42499216D01*
X168972147Y-42351646D01*
X169097646Y-42226147D01*
X169245216Y-42127544D01*
X169409188Y-42059624D01*
X169558488Y-42029927D01*
X169583258Y-42025000D01*
X169760742Y-42025000D01*
X169785512Y-42029927D01*
G37*
G36*
X172325512Y-42029927D02*
G01*
X172474812Y-42059624D01*
X172638784Y-42127544D01*
X172786354Y-42226147D01*
X172911853Y-42351646D01*
X173010456Y-42499216D01*
X173078376Y-42663188D01*
X173113000Y-42837259D01*
X173113000Y-43014741D01*
X173078376Y-43188812D01*
X173010456Y-43352784D01*
X172911853Y-43500354D01*
X172786354Y-43625853D01*
X172638784Y-43724456D01*
X172474812Y-43792376D01*
X172325512Y-43822073D01*
X172300742Y-43827000D01*
X172123258Y-43827000D01*
X172098488Y-43822073D01*
X171949188Y-43792376D01*
X171785216Y-43724456D01*
X171637646Y-43625853D01*
X171512147Y-43500354D01*
X171413544Y-43352784D01*
X171345624Y-43188812D01*
X171311000Y-43014741D01*
X171311000Y-42837259D01*
X171345624Y-42663188D01*
X171413544Y-42499216D01*
X171512147Y-42351646D01*
X171637646Y-42226147D01*
X171785216Y-42127544D01*
X171949188Y-42059624D01*
X172098488Y-42029927D01*
X172123258Y-42025000D01*
X172300742Y-42025000D01*
X172325512Y-42029927D01*
G37*
G36*
X182398228Y-42031703D02*
G01*
X182553100Y-42095853D01*
X182692481Y-42188985D01*
X182811015Y-42307519D01*
X182904147Y-42446900D01*
X182968297Y-42601772D01*
X183001000Y-42766184D01*
X183001000Y-42933816D01*
X182968297Y-43098228D01*
X182904147Y-43253100D01*
X182811015Y-43392481D01*
X182692481Y-43511015D01*
X182553100Y-43604147D01*
X182398228Y-43668297D01*
X182233816Y-43701000D01*
X182066184Y-43701000D01*
X181901772Y-43668297D01*
X181746900Y-43604147D01*
X181607519Y-43511015D01*
X181488985Y-43392481D01*
X181395853Y-43253100D01*
X181331703Y-43098228D01*
X181299000Y-42933816D01*
X181299000Y-42766184D01*
X181331703Y-42601772D01*
X181395853Y-42446900D01*
X181488985Y-42307519D01*
X181607519Y-42188985D01*
X181746900Y-42095853D01*
X181901772Y-42031703D01*
X182066184Y-41999000D01*
X182233816Y-41999000D01*
X182398228Y-42031703D01*
G37*
G36*
X127306564Y-41225389D02*
G01*
X127497833Y-41304615D01*
X127497835Y-41304616D01*
X127669973Y-41419635D01*
X127816365Y-41566027D01*
X127931385Y-41738167D01*
X128010611Y-41929436D01*
X128051000Y-42132484D01*
X128051000Y-42339516D01*
X128010611Y-42542564D01*
X127948263Y-42693085D01*
X127931384Y-42733835D01*
X127816365Y-42905973D01*
X127669973Y-43052365D01*
X127497835Y-43167384D01*
X127497834Y-43167385D01*
X127497833Y-43167385D01*
X127306564Y-43246611D01*
X127103516Y-43287000D01*
X126896484Y-43287000D01*
X126693436Y-43246611D01*
X126502167Y-43167385D01*
X126502166Y-43167385D01*
X126502165Y-43167384D01*
X126330027Y-43052365D01*
X126183635Y-42905973D01*
X126068616Y-42733835D01*
X126051737Y-42693085D01*
X125989389Y-42542564D01*
X125949000Y-42339516D01*
X125949000Y-42132484D01*
X125989389Y-41929436D01*
X126068615Y-41738167D01*
X126183635Y-41566027D01*
X126330027Y-41419635D01*
X126502165Y-41304616D01*
X126502167Y-41304615D01*
X126693436Y-41225389D01*
X126896484Y-41185000D01*
X127103516Y-41185000D01*
X127306564Y-41225389D01*
G37*
G36*
X133806564Y-41225389D02*
G01*
X133997833Y-41304615D01*
X133997835Y-41304616D01*
X134169973Y-41419635D01*
X134316365Y-41566027D01*
X134431385Y-41738167D01*
X134510611Y-41929436D01*
X134551000Y-42132484D01*
X134551000Y-42339516D01*
X134510611Y-42542564D01*
X134448263Y-42693085D01*
X134431384Y-42733835D01*
X134316365Y-42905973D01*
X134169973Y-43052365D01*
X133997835Y-43167384D01*
X133997834Y-43167385D01*
X133997833Y-43167385D01*
X133806564Y-43246611D01*
X133603516Y-43287000D01*
X133396484Y-43287000D01*
X133193436Y-43246611D01*
X133002167Y-43167385D01*
X133002166Y-43167385D01*
X133002165Y-43167384D01*
X132830027Y-43052365D01*
X132683635Y-42905973D01*
X132568616Y-42733835D01*
X132551737Y-42693085D01*
X132489389Y-42542564D01*
X132449000Y-42339516D01*
X132449000Y-42132484D01*
X132489389Y-41929436D01*
X132568615Y-41738167D01*
X132683635Y-41566027D01*
X132830027Y-41419635D01*
X133002165Y-41304616D01*
X133002167Y-41304615D01*
X133193436Y-41225389D01*
X133396484Y-41185000D01*
X133603516Y-41185000D01*
X133806564Y-41225389D01*
G37*
G36*
X190918433Y-40434893D02*
G01*
X191008657Y-40452839D01*
X191114267Y-40496585D01*
X191263621Y-40558449D01*
X191263622Y-40558450D01*
X191493086Y-40711772D01*
X191688228Y-40906914D01*
X191790675Y-41060237D01*
X191841551Y-41136379D01*
X191903415Y-41285733D01*
X191947161Y-41391343D01*
X191965107Y-41481567D01*
X192001000Y-41662012D01*
X192001000Y-41937988D01*
X191976805Y-42059624D01*
X191962313Y-42132484D01*
X191947161Y-42208656D01*
X191841551Y-42463621D01*
X191841550Y-42463622D01*
X191688228Y-42693086D01*
X191493086Y-42888228D01*
X191424858Y-42933816D01*
X191263621Y-43041551D01*
X191126791Y-43098228D01*
X191008657Y-43147161D01*
X190918433Y-43165107D01*
X190737988Y-43201000D01*
X190462012Y-43201000D01*
X190281567Y-43165107D01*
X190191343Y-43147161D01*
X190073209Y-43098228D01*
X189936379Y-43041551D01*
X189775142Y-42933816D01*
X189706914Y-42888228D01*
X189511772Y-42693086D01*
X189358450Y-42463622D01*
X189358449Y-42463621D01*
X189252839Y-42208656D01*
X189237688Y-42132484D01*
X189223195Y-42059624D01*
X189199000Y-41937988D01*
X189199000Y-41662012D01*
X189234893Y-41481567D01*
X189252839Y-41391343D01*
X189296585Y-41285733D01*
X189358449Y-41136379D01*
X189409325Y-41060237D01*
X189511772Y-40906914D01*
X189706914Y-40711772D01*
X189936378Y-40558450D01*
X189936379Y-40558449D01*
X190085733Y-40496585D01*
X190191343Y-40452839D01*
X190281567Y-40434893D01*
X190462012Y-40399000D01*
X190737988Y-40399000D01*
X190918433Y-40434893D01*
G37*
G36*
X97918433Y-40434893D02*
G01*
X98008657Y-40452839D01*
X98114267Y-40496585D01*
X98263621Y-40558449D01*
X98263622Y-40558450D01*
X98493086Y-40711772D01*
X98688228Y-40906914D01*
X98790675Y-41060237D01*
X98841551Y-41136379D01*
X98903415Y-41285733D01*
X98947161Y-41391343D01*
X98965107Y-41481567D01*
X99001000Y-41662012D01*
X99001000Y-41937988D01*
X98976805Y-42059624D01*
X98962313Y-42132484D01*
X98947161Y-42208656D01*
X98841551Y-42463621D01*
X98841550Y-42463622D01*
X98688228Y-42693086D01*
X98493086Y-42888228D01*
X98424858Y-42933816D01*
X98263621Y-43041551D01*
X98126791Y-43098228D01*
X98008657Y-43147161D01*
X97918433Y-43165107D01*
X97737988Y-43201000D01*
X97462012Y-43201000D01*
X97281567Y-43165107D01*
X97191343Y-43147161D01*
X97073209Y-43098228D01*
X96936379Y-43041551D01*
X96775142Y-42933816D01*
X96706914Y-42888228D01*
X96511772Y-42693086D01*
X96358450Y-42463622D01*
X96358449Y-42463621D01*
X96252839Y-42208656D01*
X96237688Y-42132484D01*
X96223195Y-42059624D01*
X96199000Y-41937988D01*
X96199000Y-41662012D01*
X96234893Y-41481567D01*
X96252839Y-41391343D01*
X96296585Y-41285733D01*
X96358449Y-41136379D01*
X96409325Y-41060237D01*
X96511772Y-40906914D01*
X96706914Y-40711772D01*
X96936378Y-40558450D01*
X96936379Y-40558449D01*
X97085733Y-40496585D01*
X97191343Y-40452839D01*
X97281567Y-40434893D01*
X97462012Y-40399000D01*
X97737988Y-40399000D01*
X97918433Y-40434893D01*
G37*
M02*
