G04 #@! TF.GenerationSoftware,KiCad,Pcbnew,(5.1.5)-3*
G04 #@! TF.CreationDate,2020-05-02T21:00:29-04:00*
G04 #@! TF.ProjectId,CombinedPnl_pcb-r2,436f6d62-696e-4656-9450-6e6c5f706362,rev?*
G04 #@! TF.SameCoordinates,Original*
G04 #@! TF.FileFunction,Legend,Top*
G04 #@! TF.FilePolarity,Positive*
%FSLAX46Y46*%
G04 Gerber Fmt 4.6, Leading zero omitted, Abs format (unit mm)*
G04 Created by KiCad (PCBNEW (5.1.5)-3) date 2020-05-02 21:00:29*
%MOMM*%
%LPD*%
G04 APERTURE LIST*
%ADD10C,0.150000*%
%ADD11C,0.120000*%
%ADD12C,0.100000*%
%ADD13C,0.250000*%
G04 APERTURE END LIST*
D10*
X174942666Y-85987380D02*
X174942666Y-84987380D01*
X175323619Y-84987380D01*
X175418857Y-85035000D01*
X175466476Y-85082619D01*
X175514095Y-85177857D01*
X175514095Y-85320714D01*
X175466476Y-85415952D01*
X175418857Y-85463571D01*
X175323619Y-85511190D01*
X174942666Y-85511190D01*
X175847428Y-84987380D02*
X176085523Y-85987380D01*
X176276000Y-85273095D01*
X176466476Y-85987380D01*
X176704571Y-84987380D01*
X177656952Y-85987380D02*
X177323619Y-85511190D01*
X177085523Y-85987380D02*
X177085523Y-84987380D01*
X177466476Y-84987380D01*
X177561714Y-85035000D01*
X177609333Y-85082619D01*
X177656952Y-85177857D01*
X177656952Y-85320714D01*
X177609333Y-85415952D01*
X177561714Y-85463571D01*
X177466476Y-85511190D01*
X177085523Y-85511190D01*
X175656952Y-86637380D02*
X175847428Y-86637380D01*
X175942666Y-86685000D01*
X176037904Y-86780238D01*
X176085523Y-86970714D01*
X176085523Y-87304047D01*
X176037904Y-87494523D01*
X175942666Y-87589761D01*
X175847428Y-87637380D01*
X175656952Y-87637380D01*
X175561714Y-87589761D01*
X175466476Y-87494523D01*
X175418857Y-87304047D01*
X175418857Y-86970714D01*
X175466476Y-86780238D01*
X175561714Y-86685000D01*
X175656952Y-86637380D01*
X176514095Y-87637380D02*
X176514095Y-86637380D01*
X177085523Y-87637380D01*
X177085523Y-86637380D01*
D11*
X102078000Y-134747000D02*
X102078000Y-140970000D01*
X103578000Y-131953000D02*
X103578000Y-140970000D01*
X105078000Y-130048000D02*
X105078000Y-140970000D01*
X106578000Y-128651000D02*
X106578000Y-140970000D01*
X108078000Y-127508000D02*
X108078000Y-140970000D01*
X109578000Y-126619000D02*
X109578000Y-140970000D01*
X111078000Y-125857000D02*
X111078000Y-140970000D01*
X112578000Y-125349000D02*
X112578000Y-140970000D01*
X114078000Y-124968000D02*
X114078000Y-140970000D01*
X115578000Y-124714000D02*
X115578000Y-140970000D01*
X132078000Y-134620000D02*
X132078000Y-140970000D01*
X130578000Y-131953000D02*
X130578000Y-140970000D01*
X129078000Y-130048000D02*
X129078000Y-140970000D01*
X127578000Y-128524000D02*
X127578000Y-140970000D01*
X126078000Y-127508000D02*
X126078000Y-140970000D01*
X124571000Y-126619000D02*
X124578000Y-140970000D01*
X123078000Y-125857000D02*
X123078000Y-140970000D01*
X121578000Y-125349000D02*
X121578000Y-140970000D01*
X120078000Y-124968000D02*
X120078000Y-140970000D01*
X118578000Y-124714000D02*
X118578000Y-140970000D01*
X100949000Y-139230000D02*
X133207000Y-139230000D01*
X101203000Y-137730000D02*
X132953000Y-137730000D01*
X101584000Y-136230000D02*
X132572000Y-136230000D01*
X102092000Y-134730000D02*
X132064000Y-134730000D01*
X102854000Y-133230000D02*
X131302000Y-133230000D01*
X103616000Y-131730000D02*
X130540000Y-131730000D01*
X104886000Y-130302000D02*
X129270000Y-130302000D01*
X106410000Y-128730000D02*
X127746000Y-128730000D01*
X108442000Y-127230000D02*
X125714000Y-127230000D01*
X111490000Y-125730000D02*
X122666000Y-125730000D01*
X117078000Y-124714000D02*
X117078000Y-140970000D01*
D12*
G36*
X196596000Y-90170000D02*
G01*
X91694000Y-90170000D01*
X91694000Y-89408000D01*
X196596000Y-89408000D01*
X196596000Y-90170000D01*
G37*
X196596000Y-90170000D02*
X91694000Y-90170000D01*
X91694000Y-89408000D01*
X196596000Y-89408000D01*
X196596000Y-90170000D01*
D10*
X113011904Y-39952380D02*
X113011904Y-38952380D01*
X113345238Y-39666666D01*
X113678571Y-38952380D01*
X113678571Y-39952380D01*
X114583333Y-39952380D02*
X114583333Y-39428571D01*
X114535714Y-39333333D01*
X114440476Y-39285714D01*
X114250000Y-39285714D01*
X114154761Y-39333333D01*
X114583333Y-39904761D02*
X114488095Y-39952380D01*
X114250000Y-39952380D01*
X114154761Y-39904761D01*
X114107142Y-39809523D01*
X114107142Y-39714285D01*
X114154761Y-39619047D01*
X114250000Y-39571428D01*
X114488095Y-39571428D01*
X114583333Y-39523809D01*
X115059523Y-39952380D02*
X115059523Y-39285714D01*
X115059523Y-38952380D02*
X115011904Y-39000000D01*
X115059523Y-39047619D01*
X115107142Y-39000000D01*
X115059523Y-38952380D01*
X115059523Y-39047619D01*
X115535714Y-39285714D02*
X115535714Y-39952380D01*
X115535714Y-39380952D02*
X115583333Y-39333333D01*
X115678571Y-39285714D01*
X115821428Y-39285714D01*
X115916666Y-39333333D01*
X115964285Y-39428571D01*
X115964285Y-39952380D01*
X117535714Y-39428571D02*
X117678571Y-39476190D01*
X117726190Y-39523809D01*
X117773809Y-39619047D01*
X117773809Y-39761904D01*
X117726190Y-39857142D01*
X117678571Y-39904761D01*
X117583333Y-39952380D01*
X117202380Y-39952380D01*
X117202380Y-38952380D01*
X117535714Y-38952380D01*
X117630952Y-39000000D01*
X117678571Y-39047619D01*
X117726190Y-39142857D01*
X117726190Y-39238095D01*
X117678571Y-39333333D01*
X117630952Y-39380952D01*
X117535714Y-39428571D01*
X117202380Y-39428571D01*
X118345238Y-39952380D02*
X118250000Y-39904761D01*
X118202380Y-39857142D01*
X118154761Y-39761904D01*
X118154761Y-39476190D01*
X118202380Y-39380952D01*
X118250000Y-39333333D01*
X118345238Y-39285714D01*
X118488095Y-39285714D01*
X118583333Y-39333333D01*
X118630952Y-39380952D01*
X118678571Y-39476190D01*
X118678571Y-39761904D01*
X118630952Y-39857142D01*
X118583333Y-39904761D01*
X118488095Y-39952380D01*
X118345238Y-39952380D01*
X119535714Y-39952380D02*
X119535714Y-39428571D01*
X119488095Y-39333333D01*
X119392857Y-39285714D01*
X119202380Y-39285714D01*
X119107142Y-39333333D01*
X119535714Y-39904761D02*
X119440476Y-39952380D01*
X119202380Y-39952380D01*
X119107142Y-39904761D01*
X119059523Y-39809523D01*
X119059523Y-39714285D01*
X119107142Y-39619047D01*
X119202380Y-39571428D01*
X119440476Y-39571428D01*
X119535714Y-39523809D01*
X120011904Y-39952380D02*
X120011904Y-39285714D01*
X120011904Y-39476190D02*
X120059523Y-39380952D01*
X120107142Y-39333333D01*
X120202380Y-39285714D01*
X120297619Y-39285714D01*
X121059523Y-39952380D02*
X121059523Y-38952380D01*
X121059523Y-39904761D02*
X120964285Y-39952380D01*
X120773809Y-39952380D01*
X120678571Y-39904761D01*
X120630952Y-39857142D01*
X120583333Y-39761904D01*
X120583333Y-39476190D01*
X120630952Y-39380952D01*
X120678571Y-39333333D01*
X120773809Y-39285714D01*
X120964285Y-39285714D01*
X121059523Y-39333333D01*
X122297619Y-39571428D02*
X123059523Y-39571428D01*
X124297619Y-39952380D02*
X124297619Y-38952380D01*
X124535714Y-38952380D01*
X124678571Y-39000000D01*
X124773809Y-39095238D01*
X124821428Y-39190476D01*
X124869047Y-39380952D01*
X124869047Y-39523809D01*
X124821428Y-39714285D01*
X124773809Y-39809523D01*
X124678571Y-39904761D01*
X124535714Y-39952380D01*
X124297619Y-39952380D01*
X125297619Y-39952380D02*
X125297619Y-38952380D01*
X125535714Y-38952380D01*
X125678571Y-39000000D01*
X125773809Y-39095238D01*
X125821428Y-39190476D01*
X125869047Y-39380952D01*
X125869047Y-39523809D01*
X125821428Y-39714285D01*
X125773809Y-39809523D01*
X125678571Y-39904761D01*
X125535714Y-39952380D01*
X125297619Y-39952380D01*
X126297619Y-39952380D02*
X126297619Y-38952380D01*
X126678571Y-38952380D01*
X126773809Y-39000000D01*
X126821428Y-39047619D01*
X126869047Y-39142857D01*
X126869047Y-39285714D01*
X126821428Y-39380952D01*
X126773809Y-39428571D01*
X126678571Y-39476190D01*
X126297619Y-39476190D01*
X128011904Y-39666666D02*
X128488095Y-39666666D01*
X127916666Y-39952380D02*
X128250000Y-38952380D01*
X128583333Y-39952380D01*
X129059523Y-39952380D02*
X128964285Y-39904761D01*
X128916666Y-39809523D01*
X128916666Y-38952380D01*
X129869047Y-39952380D02*
X129869047Y-39428571D01*
X129821428Y-39333333D01*
X129726190Y-39285714D01*
X129535714Y-39285714D01*
X129440476Y-39333333D01*
X129869047Y-39904761D02*
X129773809Y-39952380D01*
X129535714Y-39952380D01*
X129440476Y-39904761D01*
X129392857Y-39809523D01*
X129392857Y-39714285D01*
X129440476Y-39619047D01*
X129535714Y-39571428D01*
X129773809Y-39571428D01*
X129869047Y-39523809D01*
X130345238Y-39952380D02*
X130345238Y-39285714D01*
X130345238Y-39476190D02*
X130392857Y-39380952D01*
X130440476Y-39333333D01*
X130535714Y-39285714D01*
X130630952Y-39285714D01*
X130964285Y-39952380D02*
X130964285Y-39285714D01*
X130964285Y-39380952D02*
X131011904Y-39333333D01*
X131107142Y-39285714D01*
X131250000Y-39285714D01*
X131345238Y-39333333D01*
X131392857Y-39428571D01*
X131392857Y-39952380D01*
X131392857Y-39428571D02*
X131440476Y-39333333D01*
X131535714Y-39285714D01*
X131678571Y-39285714D01*
X131773809Y-39333333D01*
X131821428Y-39428571D01*
X131821428Y-39952380D01*
X133630952Y-39857142D02*
X133583333Y-39904761D01*
X133440476Y-39952380D01*
X133345238Y-39952380D01*
X133202380Y-39904761D01*
X133107142Y-39809523D01*
X133059523Y-39714285D01*
X133011904Y-39523809D01*
X133011904Y-39380952D01*
X133059523Y-39190476D01*
X133107142Y-39095238D01*
X133202380Y-39000000D01*
X133345238Y-38952380D01*
X133440476Y-38952380D01*
X133583333Y-39000000D01*
X133630952Y-39047619D01*
X134202380Y-39952380D02*
X134107142Y-39904761D01*
X134059523Y-39809523D01*
X134059523Y-38952380D01*
X134726190Y-39952380D02*
X134630952Y-39904761D01*
X134583333Y-39857142D01*
X134535714Y-39761904D01*
X134535714Y-39476190D01*
X134583333Y-39380952D01*
X134630952Y-39333333D01*
X134726190Y-39285714D01*
X134869047Y-39285714D01*
X134964285Y-39333333D01*
X135011904Y-39380952D01*
X135059523Y-39476190D01*
X135059523Y-39761904D01*
X135011904Y-39857142D01*
X134964285Y-39904761D01*
X134869047Y-39952380D01*
X134726190Y-39952380D01*
X135916666Y-39904761D02*
X135821428Y-39952380D01*
X135630952Y-39952380D01*
X135535714Y-39904761D01*
X135488095Y-39857142D01*
X135440476Y-39761904D01*
X135440476Y-39476190D01*
X135488095Y-39380952D01*
X135535714Y-39333333D01*
X135630952Y-39285714D01*
X135821428Y-39285714D01*
X135916666Y-39333333D01*
X136345238Y-39952380D02*
X136345238Y-38952380D01*
X136440476Y-39571428D02*
X136726190Y-39952380D01*
X136726190Y-39285714D02*
X136345238Y-39666666D01*
X137916666Y-39952380D02*
X137916666Y-38952380D01*
X138297619Y-38952380D01*
X138392857Y-39000000D01*
X138440476Y-39047619D01*
X138488095Y-39142857D01*
X138488095Y-39285714D01*
X138440476Y-39380952D01*
X138392857Y-39428571D01*
X138297619Y-39476190D01*
X137916666Y-39476190D01*
X138916666Y-39952380D02*
X138916666Y-39285714D01*
X138916666Y-39476190D02*
X138964285Y-39380952D01*
X139011904Y-39333333D01*
X139107142Y-39285714D01*
X139202380Y-39285714D01*
X139678571Y-39952380D02*
X139583333Y-39904761D01*
X139535714Y-39857142D01*
X139488095Y-39761904D01*
X139488095Y-39476190D01*
X139535714Y-39380952D01*
X139583333Y-39333333D01*
X139678571Y-39285714D01*
X139821428Y-39285714D01*
X139916666Y-39333333D01*
X139964285Y-39380952D01*
X140011904Y-39476190D01*
X140011904Y-39761904D01*
X139964285Y-39857142D01*
X139916666Y-39904761D01*
X139821428Y-39952380D01*
X139678571Y-39952380D01*
X140440476Y-39285714D02*
X140440476Y-40142857D01*
X140392857Y-40238095D01*
X140297619Y-40285714D01*
X140250000Y-40285714D01*
X140440476Y-38952380D02*
X140392857Y-39000000D01*
X140440476Y-39047619D01*
X140488095Y-39000000D01*
X140440476Y-38952380D01*
X140440476Y-39047619D01*
X140916666Y-39857142D02*
X140964285Y-39904761D01*
X140916666Y-39952380D01*
X140869047Y-39904761D01*
X140916666Y-39857142D01*
X140916666Y-39952380D01*
X142154761Y-39571428D02*
X142916666Y-39571428D01*
X144726190Y-39952380D02*
X144392857Y-39476190D01*
X144154761Y-39952380D02*
X144154761Y-38952380D01*
X144535714Y-38952380D01*
X144630952Y-39000000D01*
X144678571Y-39047619D01*
X144726190Y-39142857D01*
X144726190Y-39285714D01*
X144678571Y-39380952D01*
X144630952Y-39428571D01*
X144535714Y-39476190D01*
X144154761Y-39476190D01*
X145535714Y-39904761D02*
X145440476Y-39952380D01*
X145250000Y-39952380D01*
X145154761Y-39904761D01*
X145107142Y-39809523D01*
X145107142Y-39428571D01*
X145154761Y-39333333D01*
X145250000Y-39285714D01*
X145440476Y-39285714D01*
X145535714Y-39333333D01*
X145583333Y-39428571D01*
X145583333Y-39523809D01*
X145107142Y-39619047D01*
X145916666Y-39285714D02*
X146154761Y-39952380D01*
X146392857Y-39285714D01*
X146773809Y-39857142D02*
X146821428Y-39904761D01*
X146773809Y-39952380D01*
X146726190Y-39904761D01*
X146773809Y-39857142D01*
X146773809Y-39952380D01*
X147964285Y-39047619D02*
X148011904Y-39000000D01*
X148107142Y-38952380D01*
X148345238Y-38952380D01*
X148440476Y-39000000D01*
X148488095Y-39047619D01*
X148535714Y-39142857D01*
X148535714Y-39238095D01*
X148488095Y-39380952D01*
X147916666Y-39952380D01*
X148535714Y-39952380D01*
X115731238Y-92352761D02*
X115874095Y-92400380D01*
X116112190Y-92400380D01*
X116207428Y-92352761D01*
X116255047Y-92305142D01*
X116302666Y-92209904D01*
X116302666Y-92114666D01*
X116255047Y-92019428D01*
X116207428Y-91971809D01*
X116112190Y-91924190D01*
X115921714Y-91876571D01*
X115826476Y-91828952D01*
X115778857Y-91781333D01*
X115731238Y-91686095D01*
X115731238Y-91590857D01*
X115778857Y-91495619D01*
X115826476Y-91448000D01*
X115921714Y-91400380D01*
X116159809Y-91400380D01*
X116302666Y-91448000D01*
X117112190Y-92352761D02*
X117016952Y-92400380D01*
X116826476Y-92400380D01*
X116731238Y-92352761D01*
X116683619Y-92257523D01*
X116683619Y-91876571D01*
X116731238Y-91781333D01*
X116826476Y-91733714D01*
X117016952Y-91733714D01*
X117112190Y-91781333D01*
X117159809Y-91876571D01*
X117159809Y-91971809D01*
X116683619Y-92067047D01*
X118016952Y-92352761D02*
X117921714Y-92400380D01*
X117731238Y-92400380D01*
X117636000Y-92352761D01*
X117588380Y-92305142D01*
X117540761Y-92209904D01*
X117540761Y-91924190D01*
X117588380Y-91828952D01*
X117636000Y-91781333D01*
X117731238Y-91733714D01*
X117921714Y-91733714D01*
X118016952Y-91781333D01*
X118588380Y-92400380D02*
X118493142Y-92352761D01*
X118445523Y-92305142D01*
X118397904Y-92209904D01*
X118397904Y-91924190D01*
X118445523Y-91828952D01*
X118493142Y-91781333D01*
X118588380Y-91733714D01*
X118731238Y-91733714D01*
X118826476Y-91781333D01*
X118874095Y-91828952D01*
X118921714Y-91924190D01*
X118921714Y-92209904D01*
X118874095Y-92305142D01*
X118826476Y-92352761D01*
X118731238Y-92400380D01*
X118588380Y-92400380D01*
X119350285Y-91733714D02*
X119350285Y-92400380D01*
X119350285Y-91828952D02*
X119397904Y-91781333D01*
X119493142Y-91733714D01*
X119636000Y-91733714D01*
X119731238Y-91781333D01*
X119778857Y-91876571D01*
X119778857Y-92400380D01*
X120683619Y-92400380D02*
X120683619Y-91400380D01*
X120683619Y-92352761D02*
X120588380Y-92400380D01*
X120397904Y-92400380D01*
X120302666Y-92352761D01*
X120255047Y-92305142D01*
X120207428Y-92209904D01*
X120207428Y-91924190D01*
X120255047Y-91828952D01*
X120302666Y-91781333D01*
X120397904Y-91733714D01*
X120588380Y-91733714D01*
X120683619Y-91781333D01*
X121588380Y-92400380D02*
X121588380Y-91876571D01*
X121540761Y-91781333D01*
X121445523Y-91733714D01*
X121255047Y-91733714D01*
X121159809Y-91781333D01*
X121588380Y-92352761D02*
X121493142Y-92400380D01*
X121255047Y-92400380D01*
X121159809Y-92352761D01*
X121112190Y-92257523D01*
X121112190Y-92162285D01*
X121159809Y-92067047D01*
X121255047Y-92019428D01*
X121493142Y-92019428D01*
X121588380Y-91971809D01*
X122064571Y-92400380D02*
X122064571Y-91733714D01*
X122064571Y-91924190D02*
X122112190Y-91828952D01*
X122159809Y-91781333D01*
X122255047Y-91733714D01*
X122350285Y-91733714D01*
X122588380Y-91733714D02*
X122826476Y-92400380D01*
X123064571Y-91733714D02*
X122826476Y-92400380D01*
X122731238Y-92638476D01*
X122683619Y-92686095D01*
X122588380Y-92733714D01*
X124540761Y-91876571D02*
X124683619Y-91924190D01*
X124731238Y-91971809D01*
X124778857Y-92067047D01*
X124778857Y-92209904D01*
X124731238Y-92305142D01*
X124683619Y-92352761D01*
X124588380Y-92400380D01*
X124207428Y-92400380D01*
X124207428Y-91400380D01*
X124540761Y-91400380D01*
X124636000Y-91448000D01*
X124683619Y-91495619D01*
X124731238Y-91590857D01*
X124731238Y-91686095D01*
X124683619Y-91781333D01*
X124636000Y-91828952D01*
X124540761Y-91876571D01*
X124207428Y-91876571D01*
X125350285Y-92400380D02*
X125255047Y-92352761D01*
X125207428Y-92305142D01*
X125159809Y-92209904D01*
X125159809Y-91924190D01*
X125207428Y-91828952D01*
X125255047Y-91781333D01*
X125350285Y-91733714D01*
X125493142Y-91733714D01*
X125588380Y-91781333D01*
X125636000Y-91828952D01*
X125683619Y-91924190D01*
X125683619Y-92209904D01*
X125636000Y-92305142D01*
X125588380Y-92352761D01*
X125493142Y-92400380D01*
X125350285Y-92400380D01*
X126540761Y-92400380D02*
X126540761Y-91876571D01*
X126493142Y-91781333D01*
X126397904Y-91733714D01*
X126207428Y-91733714D01*
X126112190Y-91781333D01*
X126540761Y-92352761D02*
X126445523Y-92400380D01*
X126207428Y-92400380D01*
X126112190Y-92352761D01*
X126064571Y-92257523D01*
X126064571Y-92162285D01*
X126112190Y-92067047D01*
X126207428Y-92019428D01*
X126445523Y-92019428D01*
X126540761Y-91971809D01*
X127016952Y-92400380D02*
X127016952Y-91733714D01*
X127016952Y-91924190D02*
X127064571Y-91828952D01*
X127112190Y-91781333D01*
X127207428Y-91733714D01*
X127302666Y-91733714D01*
X128064571Y-92400380D02*
X128064571Y-91400380D01*
X128064571Y-92352761D02*
X127969333Y-92400380D01*
X127778857Y-92400380D01*
X127683619Y-92352761D01*
X127636000Y-92305142D01*
X127588380Y-92209904D01*
X127588380Y-91924190D01*
X127636000Y-91828952D01*
X127683619Y-91781333D01*
X127778857Y-91733714D01*
X127969333Y-91733714D01*
X128064571Y-91781333D01*
X129302666Y-92019428D02*
X130064571Y-92019428D01*
X131302666Y-92400380D02*
X131302666Y-91400380D01*
X131540761Y-91400380D01*
X131683619Y-91448000D01*
X131778857Y-91543238D01*
X131826476Y-91638476D01*
X131874095Y-91828952D01*
X131874095Y-91971809D01*
X131826476Y-92162285D01*
X131778857Y-92257523D01*
X131683619Y-92352761D01*
X131540761Y-92400380D01*
X131302666Y-92400380D01*
X132302666Y-92400380D02*
X132302666Y-91400380D01*
X132540761Y-91400380D01*
X132683619Y-91448000D01*
X132778857Y-91543238D01*
X132826476Y-91638476D01*
X132874095Y-91828952D01*
X132874095Y-91971809D01*
X132826476Y-92162285D01*
X132778857Y-92257523D01*
X132683619Y-92352761D01*
X132540761Y-92400380D01*
X132302666Y-92400380D01*
X133302666Y-92400380D02*
X133302666Y-91400380D01*
X133683619Y-91400380D01*
X133778857Y-91448000D01*
X133826476Y-91495619D01*
X133874095Y-91590857D01*
X133874095Y-91733714D01*
X133826476Y-91828952D01*
X133778857Y-91876571D01*
X133683619Y-91924190D01*
X133302666Y-91924190D01*
X135016952Y-92114666D02*
X135493142Y-92114666D01*
X134921714Y-92400380D02*
X135255047Y-91400380D01*
X135588380Y-92400380D01*
X136064571Y-92400380D02*
X135969333Y-92352761D01*
X135921714Y-92257523D01*
X135921714Y-91400380D01*
X136874095Y-92400380D02*
X136874095Y-91876571D01*
X136826476Y-91781333D01*
X136731238Y-91733714D01*
X136540761Y-91733714D01*
X136445523Y-91781333D01*
X136874095Y-92352761D02*
X136778857Y-92400380D01*
X136540761Y-92400380D01*
X136445523Y-92352761D01*
X136397904Y-92257523D01*
X136397904Y-92162285D01*
X136445523Y-92067047D01*
X136540761Y-92019428D01*
X136778857Y-92019428D01*
X136874095Y-91971809D01*
X137350285Y-92400380D02*
X137350285Y-91733714D01*
X137350285Y-91924190D02*
X137397904Y-91828952D01*
X137445523Y-91781333D01*
X137540761Y-91733714D01*
X137636000Y-91733714D01*
X137969333Y-92400380D02*
X137969333Y-91733714D01*
X137969333Y-91828952D02*
X138016952Y-91781333D01*
X138112190Y-91733714D01*
X138255047Y-91733714D01*
X138350285Y-91781333D01*
X138397904Y-91876571D01*
X138397904Y-92400380D01*
X138397904Y-91876571D02*
X138445523Y-91781333D01*
X138540761Y-91733714D01*
X138683619Y-91733714D01*
X138778857Y-91781333D01*
X138826476Y-91876571D01*
X138826476Y-92400380D01*
X140636000Y-92305142D02*
X140588380Y-92352761D01*
X140445523Y-92400380D01*
X140350285Y-92400380D01*
X140207428Y-92352761D01*
X140112190Y-92257523D01*
X140064571Y-92162285D01*
X140016952Y-91971809D01*
X140016952Y-91828952D01*
X140064571Y-91638476D01*
X140112190Y-91543238D01*
X140207428Y-91448000D01*
X140350285Y-91400380D01*
X140445523Y-91400380D01*
X140588380Y-91448000D01*
X140636000Y-91495619D01*
X141207428Y-92400380D02*
X141112190Y-92352761D01*
X141064571Y-92257523D01*
X141064571Y-91400380D01*
X141731238Y-92400380D02*
X141636000Y-92352761D01*
X141588380Y-92305142D01*
X141540761Y-92209904D01*
X141540761Y-91924190D01*
X141588380Y-91828952D01*
X141636000Y-91781333D01*
X141731238Y-91733714D01*
X141874095Y-91733714D01*
X141969333Y-91781333D01*
X142016952Y-91828952D01*
X142064571Y-91924190D01*
X142064571Y-92209904D01*
X142016952Y-92305142D01*
X141969333Y-92352761D01*
X141874095Y-92400380D01*
X141731238Y-92400380D01*
X142921714Y-92352761D02*
X142826476Y-92400380D01*
X142636000Y-92400380D01*
X142540761Y-92352761D01*
X142493142Y-92305142D01*
X142445523Y-92209904D01*
X142445523Y-91924190D01*
X142493142Y-91828952D01*
X142540761Y-91781333D01*
X142636000Y-91733714D01*
X142826476Y-91733714D01*
X142921714Y-91781333D01*
X143350285Y-92400380D02*
X143350285Y-91400380D01*
X143445523Y-92019428D02*
X143731238Y-92400380D01*
X143731238Y-91733714D02*
X143350285Y-92114666D01*
X144921714Y-92400380D02*
X144921714Y-91400380D01*
X145302666Y-91400380D01*
X145397904Y-91448000D01*
X145445523Y-91495619D01*
X145493142Y-91590857D01*
X145493142Y-91733714D01*
X145445523Y-91828952D01*
X145397904Y-91876571D01*
X145302666Y-91924190D01*
X144921714Y-91924190D01*
X145921714Y-92400380D02*
X145921714Y-91733714D01*
X145921714Y-91924190D02*
X145969333Y-91828952D01*
X146016952Y-91781333D01*
X146112190Y-91733714D01*
X146207428Y-91733714D01*
X146683619Y-92400380D02*
X146588380Y-92352761D01*
X146540761Y-92305142D01*
X146493142Y-92209904D01*
X146493142Y-91924190D01*
X146540761Y-91828952D01*
X146588380Y-91781333D01*
X146683619Y-91733714D01*
X146826476Y-91733714D01*
X146921714Y-91781333D01*
X146969333Y-91828952D01*
X147016952Y-91924190D01*
X147016952Y-92209904D01*
X146969333Y-92305142D01*
X146921714Y-92352761D01*
X146826476Y-92400380D01*
X146683619Y-92400380D01*
X147445523Y-91733714D02*
X147445523Y-92590857D01*
X147397904Y-92686095D01*
X147302666Y-92733714D01*
X147255047Y-92733714D01*
X147445523Y-91400380D02*
X147397904Y-91448000D01*
X147445523Y-91495619D01*
X147493142Y-91448000D01*
X147445523Y-91400380D01*
X147445523Y-91495619D01*
X147921714Y-92305142D02*
X147969333Y-92352761D01*
X147921714Y-92400380D01*
X147874095Y-92352761D01*
X147921714Y-92305142D01*
X147921714Y-92400380D01*
X149159809Y-92019428D02*
X149921714Y-92019428D01*
X151731238Y-92400380D02*
X151397904Y-91924190D01*
X151159809Y-92400380D02*
X151159809Y-91400380D01*
X151540761Y-91400380D01*
X151636000Y-91448000D01*
X151683619Y-91495619D01*
X151731238Y-91590857D01*
X151731238Y-91733714D01*
X151683619Y-91828952D01*
X151636000Y-91876571D01*
X151540761Y-91924190D01*
X151159809Y-91924190D01*
X152540761Y-92352761D02*
X152445523Y-92400380D01*
X152255047Y-92400380D01*
X152159809Y-92352761D01*
X152112190Y-92257523D01*
X152112190Y-91876571D01*
X152159809Y-91781333D01*
X152255047Y-91733714D01*
X152445523Y-91733714D01*
X152540761Y-91781333D01*
X152588380Y-91876571D01*
X152588380Y-91971809D01*
X152112190Y-92067047D01*
X152921714Y-91733714D02*
X153159809Y-92400380D01*
X153397904Y-91733714D01*
X153778857Y-92305142D02*
X153826476Y-92352761D01*
X153778857Y-92400380D01*
X153731238Y-92352761D01*
X153778857Y-92305142D01*
X153778857Y-92400380D01*
X154969333Y-91495619D02*
X155016952Y-91448000D01*
X155112190Y-91400380D01*
X155350285Y-91400380D01*
X155445523Y-91448000D01*
X155493142Y-91495619D01*
X155540761Y-91590857D01*
X155540761Y-91686095D01*
X155493142Y-91828952D01*
X154921714Y-92400380D01*
X155540761Y-92400380D01*
D13*
X100822000Y-140970000D02*
G75*
G02X133334000Y-140970000I16256000J0D01*
G01*
D11*
X125790000Y-101139001D02*
X125790000Y-102469001D01*
X125790000Y-102469001D02*
X124460000Y-102469001D01*
X123190000Y-102469001D02*
X107890000Y-102469001D01*
X107890000Y-99809001D02*
X107890000Y-102469001D01*
X123190000Y-99809001D02*
X107890000Y-99809001D01*
X123190000Y-99809001D02*
X123190000Y-102469001D01*
X168843000Y-101092000D02*
X168843000Y-102422000D01*
X168843000Y-102422000D02*
X167513000Y-102422000D01*
X166243000Y-102422000D02*
X153483000Y-102422000D01*
X153483000Y-99762000D02*
X153483000Y-102422000D01*
X166243000Y-99762000D02*
X153483000Y-99762000D01*
X166243000Y-99762000D02*
X166243000Y-102422000D01*
X101914000Y-83118000D02*
X100584000Y-83118000D01*
X101914000Y-81788000D02*
X101914000Y-83118000D01*
X99314000Y-83118000D02*
X96714000Y-83118000D01*
X99314000Y-80518000D02*
X99314000Y-83118000D01*
X101914000Y-80518000D02*
X99314000Y-80518000D01*
X96714000Y-83118000D02*
X96714000Y-62678000D01*
X101914000Y-80518000D02*
X101914000Y-62678000D01*
X101914000Y-62678000D02*
X96714000Y-62678000D01*
X122496000Y-84844000D02*
X173780000Y-84820000D01*
X173780000Y-84820000D02*
X173780000Y-55270001D01*
X173780000Y-55270001D02*
X122520000Y-55270000D01*
X122520000Y-55270000D02*
X122520000Y-65583334D01*
X122520000Y-65583334D02*
X122880000Y-65583334D01*
X122880000Y-65583334D02*
X122880000Y-75896666D01*
X122880000Y-75896666D02*
X122520000Y-75896666D01*
X122520000Y-75896666D02*
X122496000Y-84844000D01*
X178250000Y-83670000D02*
X178250000Y-88750000D01*
X178250000Y-88750000D02*
X192982000Y-88750000D01*
X192982000Y-88750000D02*
X192982000Y-83670000D01*
X192982000Y-83670000D02*
X178250000Y-83670000D01*
X125630000Y-72358000D02*
X128370000Y-72358000D01*
X128370000Y-72358000D02*
X128370000Y-65818000D01*
X128370000Y-65818000D02*
X125630000Y-65818000D01*
X125630000Y-65818000D02*
X125630000Y-72358000D01*
X127000000Y-73128000D02*
X127000000Y-72358000D01*
X127000000Y-65048000D02*
X127000000Y-65818000D01*
X96714000Y-47692000D02*
X98044000Y-47692000D01*
X96714000Y-49022000D02*
X96714000Y-47692000D01*
X99314000Y-47692000D02*
X101914000Y-47692000D01*
X99314000Y-50292000D02*
X99314000Y-47692000D01*
X96714000Y-50292000D02*
X99314000Y-50292000D01*
X101914000Y-47692000D02*
X101914000Y-52892000D01*
X96714000Y-50292000D02*
X96714000Y-52892000D01*
X96714000Y-52892000D02*
X101914000Y-52892000D01*
X112175000Y-40420354D02*
X111175000Y-40420354D01*
X111675000Y-39920354D02*
X111675000Y-40920354D01*
X109399000Y-50481000D02*
X108201000Y-50481000D01*
X109662000Y-50441000D02*
X107938000Y-50441000D01*
X109862000Y-50401000D02*
X107738000Y-50401000D01*
X110030000Y-50361000D02*
X107570000Y-50361000D01*
X110178000Y-50321000D02*
X107422000Y-50321000D01*
X110310000Y-50281000D02*
X107290000Y-50281000D01*
X110430000Y-50241000D02*
X107170000Y-50241000D01*
X110542000Y-50201000D02*
X107058000Y-50201000D01*
X110646000Y-50161000D02*
X106954000Y-50161000D01*
X110744000Y-50121000D02*
X106856000Y-50121000D01*
X110837000Y-50081000D02*
X106763000Y-50081000D01*
X110925000Y-50041000D02*
X106675000Y-50041000D01*
X111009000Y-50001000D02*
X106591000Y-50001000D01*
X111089000Y-49961000D02*
X106511000Y-49961000D01*
X111165000Y-49921000D02*
X106435000Y-49921000D01*
X111239000Y-49881000D02*
X106361000Y-49881000D01*
X111310000Y-49841000D02*
X106290000Y-49841000D01*
X111379000Y-49801000D02*
X106221000Y-49801000D01*
X111445000Y-49761000D02*
X106155000Y-49761000D01*
X111509000Y-49721000D02*
X106091000Y-49721000D01*
X111570000Y-49681000D02*
X106030000Y-49681000D01*
X111630000Y-49641000D02*
X105970000Y-49641000D01*
X111689000Y-49601000D02*
X105911000Y-49601000D01*
X111745000Y-49561000D02*
X105855000Y-49561000D01*
X111800000Y-49521000D02*
X105800000Y-49521000D01*
X111854000Y-49481000D02*
X105746000Y-49481000D01*
X111906000Y-49441000D02*
X105694000Y-49441000D01*
X111956000Y-49401000D02*
X105644000Y-49401000D01*
X112006000Y-49361000D02*
X105594000Y-49361000D01*
X112054000Y-49321000D02*
X105546000Y-49321000D01*
X112101000Y-49281000D02*
X105499000Y-49281000D01*
X112147000Y-49241000D02*
X105453000Y-49241000D01*
X112192000Y-49201000D02*
X105408000Y-49201000D01*
X112236000Y-49161000D02*
X105364000Y-49161000D01*
X107559000Y-49121000D02*
X105322000Y-49121000D01*
X112278000Y-49121000D02*
X110041000Y-49121000D01*
X107559000Y-49081000D02*
X105280000Y-49081000D01*
X112320000Y-49081000D02*
X110041000Y-49081000D01*
X107559000Y-49041000D02*
X105239000Y-49041000D01*
X112361000Y-49041000D02*
X110041000Y-49041000D01*
X107559000Y-49001000D02*
X105199000Y-49001000D01*
X112401000Y-49001000D02*
X110041000Y-49001000D01*
X107559000Y-48961000D02*
X105160000Y-48961000D01*
X112440000Y-48961000D02*
X110041000Y-48961000D01*
X107559000Y-48921000D02*
X105121000Y-48921000D01*
X112479000Y-48921000D02*
X110041000Y-48921000D01*
X107559000Y-48881000D02*
X105084000Y-48881000D01*
X112516000Y-48881000D02*
X110041000Y-48881000D01*
X107559000Y-48841000D02*
X105047000Y-48841000D01*
X112553000Y-48841000D02*
X110041000Y-48841000D01*
X107559000Y-48801000D02*
X105011000Y-48801000D01*
X112589000Y-48801000D02*
X110041000Y-48801000D01*
X107559000Y-48761000D02*
X104976000Y-48761000D01*
X112624000Y-48761000D02*
X110041000Y-48761000D01*
X107559000Y-48721000D02*
X104942000Y-48721000D01*
X112658000Y-48721000D02*
X110041000Y-48721000D01*
X107559000Y-48681000D02*
X104908000Y-48681000D01*
X112692000Y-48681000D02*
X110041000Y-48681000D01*
X107559000Y-48641000D02*
X104875000Y-48641000D01*
X112725000Y-48641000D02*
X110041000Y-48641000D01*
X107559000Y-48601000D02*
X104843000Y-48601000D01*
X112757000Y-48601000D02*
X110041000Y-48601000D01*
X107559000Y-48561000D02*
X104811000Y-48561000D01*
X112789000Y-48561000D02*
X110041000Y-48561000D01*
X107559000Y-48521000D02*
X104780000Y-48521000D01*
X112820000Y-48521000D02*
X110041000Y-48521000D01*
X107559000Y-48481000D02*
X104750000Y-48481000D01*
X112850000Y-48481000D02*
X110041000Y-48481000D01*
X107559000Y-48441000D02*
X104720000Y-48441000D01*
X112880000Y-48441000D02*
X110041000Y-48441000D01*
X107559000Y-48401000D02*
X104690000Y-48401000D01*
X112910000Y-48401000D02*
X110041000Y-48401000D01*
X107559000Y-48361000D02*
X104662000Y-48361000D01*
X112938000Y-48361000D02*
X110041000Y-48361000D01*
X107559000Y-48321000D02*
X104634000Y-48321000D01*
X112966000Y-48321000D02*
X110041000Y-48321000D01*
X107559000Y-48281000D02*
X104606000Y-48281000D01*
X112994000Y-48281000D02*
X110041000Y-48281000D01*
X107559000Y-48241000D02*
X104579000Y-48241000D01*
X113021000Y-48241000D02*
X110041000Y-48241000D01*
X107559000Y-48201000D02*
X104553000Y-48201000D01*
X113047000Y-48201000D02*
X110041000Y-48201000D01*
X107559000Y-48161000D02*
X104527000Y-48161000D01*
X113073000Y-48161000D02*
X110041000Y-48161000D01*
X107559000Y-48121000D02*
X104502000Y-48121000D01*
X113098000Y-48121000D02*
X110041000Y-48121000D01*
X107559000Y-48081000D02*
X104477000Y-48081000D01*
X113123000Y-48081000D02*
X110041000Y-48081000D01*
X107559000Y-48041000D02*
X104453000Y-48041000D01*
X113147000Y-48041000D02*
X110041000Y-48041000D01*
X107559000Y-48001000D02*
X104429000Y-48001000D01*
X113171000Y-48001000D02*
X110041000Y-48001000D01*
X107559000Y-47961000D02*
X104405000Y-47961000D01*
X113195000Y-47961000D02*
X110041000Y-47961000D01*
X107559000Y-47921000D02*
X104383000Y-47921000D01*
X113217000Y-47921000D02*
X110041000Y-47921000D01*
X107559000Y-47881000D02*
X104360000Y-47881000D01*
X113240000Y-47881000D02*
X110041000Y-47881000D01*
X107559000Y-47841000D02*
X104338000Y-47841000D01*
X113262000Y-47841000D02*
X110041000Y-47841000D01*
X107559000Y-47801000D02*
X104317000Y-47801000D01*
X113283000Y-47801000D02*
X110041000Y-47801000D01*
X107559000Y-47761000D02*
X104296000Y-47761000D01*
X113304000Y-47761000D02*
X110041000Y-47761000D01*
X107559000Y-47721000D02*
X104275000Y-47721000D01*
X113325000Y-47721000D02*
X110041000Y-47721000D01*
X107559000Y-47681000D02*
X104255000Y-47681000D01*
X113345000Y-47681000D02*
X110041000Y-47681000D01*
X107559000Y-47641000D02*
X104236000Y-47641000D01*
X113364000Y-47641000D02*
X110041000Y-47641000D01*
X107559000Y-47601000D02*
X104216000Y-47601000D01*
X113384000Y-47601000D02*
X110041000Y-47601000D01*
X107559000Y-47561000D02*
X104197000Y-47561000D01*
X113403000Y-47561000D02*
X110041000Y-47561000D01*
X107559000Y-47521000D02*
X104179000Y-47521000D01*
X113421000Y-47521000D02*
X110041000Y-47521000D01*
X107559000Y-47481000D02*
X104161000Y-47481000D01*
X113439000Y-47481000D02*
X110041000Y-47481000D01*
X107559000Y-47441000D02*
X104143000Y-47441000D01*
X113457000Y-47441000D02*
X110041000Y-47441000D01*
X107559000Y-47401000D02*
X104126000Y-47401000D01*
X113474000Y-47401000D02*
X110041000Y-47401000D01*
X107559000Y-47361000D02*
X104110000Y-47361000D01*
X113490000Y-47361000D02*
X110041000Y-47361000D01*
X107559000Y-47321000D02*
X104093000Y-47321000D01*
X113507000Y-47321000D02*
X110041000Y-47321000D01*
X107559000Y-47281000D02*
X104077000Y-47281000D01*
X113523000Y-47281000D02*
X110041000Y-47281000D01*
X107559000Y-47241000D02*
X104062000Y-47241000D01*
X113538000Y-47241000D02*
X110041000Y-47241000D01*
X107559000Y-47201000D02*
X104046000Y-47201000D01*
X113554000Y-47201000D02*
X110041000Y-47201000D01*
X107559000Y-47161000D02*
X104032000Y-47161000D01*
X113568000Y-47161000D02*
X110041000Y-47161000D01*
X107559000Y-47121000D02*
X104017000Y-47121000D01*
X113583000Y-47121000D02*
X110041000Y-47121000D01*
X107559000Y-47081000D02*
X104003000Y-47081000D01*
X113597000Y-47081000D02*
X110041000Y-47081000D01*
X107559000Y-47041000D02*
X103989000Y-47041000D01*
X113611000Y-47041000D02*
X110041000Y-47041000D01*
X107559000Y-47001000D02*
X103976000Y-47001000D01*
X113624000Y-47001000D02*
X110041000Y-47001000D01*
X107559000Y-46961000D02*
X103963000Y-46961000D01*
X113637000Y-46961000D02*
X110041000Y-46961000D01*
X107559000Y-46921000D02*
X103950000Y-46921000D01*
X113650000Y-46921000D02*
X110041000Y-46921000D01*
X107559000Y-46881000D02*
X103938000Y-46881000D01*
X113662000Y-46881000D02*
X110041000Y-46881000D01*
X107559000Y-46841000D02*
X103926000Y-46841000D01*
X113674000Y-46841000D02*
X110041000Y-46841000D01*
X107559000Y-46801000D02*
X103915000Y-46801000D01*
X113685000Y-46801000D02*
X110041000Y-46801000D01*
X107559000Y-46761000D02*
X103903000Y-46761000D01*
X113697000Y-46761000D02*
X110041000Y-46761000D01*
X107559000Y-46721000D02*
X103893000Y-46721000D01*
X113707000Y-46721000D02*
X110041000Y-46721000D01*
X107559000Y-46681000D02*
X103882000Y-46681000D01*
X113718000Y-46681000D02*
X110041000Y-46681000D01*
X113728000Y-46641000D02*
X103872000Y-46641000D01*
X113738000Y-46601000D02*
X103862000Y-46601000D01*
X113747000Y-46561000D02*
X103853000Y-46561000D01*
X113756000Y-46521000D02*
X103844000Y-46521000D01*
X113765000Y-46481000D02*
X103835000Y-46481000D01*
X113774000Y-46441000D02*
X103826000Y-46441000D01*
X113782000Y-46401000D02*
X103818000Y-46401000D01*
X113790000Y-46361000D02*
X103810000Y-46361000D01*
X113797000Y-46321000D02*
X103803000Y-46321000D01*
X113804000Y-46281000D02*
X103796000Y-46281000D01*
X113811000Y-46241000D02*
X103789000Y-46241000D01*
X113818000Y-46201000D02*
X103782000Y-46201000D01*
X113824000Y-46161000D02*
X103776000Y-46161000D01*
X113830000Y-46121000D02*
X103770000Y-46121000D01*
X113835000Y-46080000D02*
X103765000Y-46080000D01*
X113840000Y-46040000D02*
X103760000Y-46040000D01*
X113845000Y-46000000D02*
X103755000Y-46000000D01*
X113850000Y-45960000D02*
X103750000Y-45960000D01*
X113854000Y-45920000D02*
X103746000Y-45920000D01*
X113858000Y-45880000D02*
X103742000Y-45880000D01*
X113862000Y-45840000D02*
X103738000Y-45840000D01*
X113865000Y-45800000D02*
X103735000Y-45800000D01*
X113868000Y-45760000D02*
X103732000Y-45760000D01*
X113870000Y-45720000D02*
X103730000Y-45720000D01*
X113873000Y-45680000D02*
X103727000Y-45680000D01*
X113875000Y-45640000D02*
X103725000Y-45640000D01*
X113877000Y-45600000D02*
X103723000Y-45600000D01*
X113878000Y-45560000D02*
X103722000Y-45560000D01*
X113879000Y-45520000D02*
X103721000Y-45520000D01*
X113880000Y-45480000D02*
X103720000Y-45480000D01*
X113880000Y-45440000D02*
X103720000Y-45440000D01*
X113880000Y-45400000D02*
X103720000Y-45400000D01*
X113920000Y-45400000D02*
G75*
G03X113920000Y-45400000I-5120000J0D01*
G01*
X155642000Y-41596000D02*
X155642000Y-46796000D01*
X173482000Y-41596000D02*
X155642000Y-41596000D01*
X176082000Y-46796000D02*
X155642000Y-46796000D01*
X173482000Y-41596000D02*
X173482000Y-44196000D01*
X173482000Y-44196000D02*
X176082000Y-44196000D01*
X176082000Y-44196000D02*
X176082000Y-46796000D01*
X174752000Y-41596000D02*
X176082000Y-41596000D01*
X176082000Y-41596000D02*
X176082000Y-42926000D01*
X96714000Y-60258000D02*
X101914000Y-60258000D01*
X96714000Y-57658000D02*
X96714000Y-60258000D01*
X101914000Y-55058000D02*
X101914000Y-60258000D01*
X96714000Y-57658000D02*
X99314000Y-57658000D01*
X99314000Y-57658000D02*
X99314000Y-55058000D01*
X99314000Y-55058000D02*
X101914000Y-55058000D01*
X96714000Y-56388000D02*
X96714000Y-55058000D01*
X96714000Y-55058000D02*
X98044000Y-55058000D01*
X181770000Y-51350000D02*
X181000000Y-51350000D01*
X173690000Y-51350000D02*
X174460000Y-51350000D01*
X181000000Y-49980000D02*
X174460000Y-49980000D01*
X181000000Y-52720000D02*
X181000000Y-49980000D01*
X174460000Y-52720000D02*
X181000000Y-52720000D01*
X174460000Y-49980000D02*
X174460000Y-52720000D01*
X186805000Y-52419801D02*
X187205000Y-52419801D01*
X187005000Y-52619801D02*
X187005000Y-52219801D01*
X187830000Y-48269000D02*
X188570000Y-48269000D01*
X187663000Y-48309000D02*
X188737000Y-48309000D01*
X187536000Y-48349000D02*
X188864000Y-48349000D01*
X187432000Y-48389000D02*
X188968000Y-48389000D01*
X187341000Y-48429000D02*
X189059000Y-48429000D01*
X187260000Y-48469000D02*
X189140000Y-48469000D01*
X187187000Y-48509000D02*
X189213000Y-48509000D01*
X189040000Y-48549000D02*
X189280000Y-48549000D01*
X187120000Y-48549000D02*
X187360000Y-48549000D01*
X189040000Y-48589000D02*
X189342000Y-48589000D01*
X187058000Y-48589000D02*
X187360000Y-48589000D01*
X189040000Y-48629000D02*
X189400000Y-48629000D01*
X187000000Y-48629000D02*
X187360000Y-48629000D01*
X189040000Y-48669000D02*
X189454000Y-48669000D01*
X186946000Y-48669000D02*
X187360000Y-48669000D01*
X189040000Y-48709000D02*
X189504000Y-48709000D01*
X186896000Y-48709000D02*
X187360000Y-48709000D01*
X189040000Y-48749000D02*
X189551000Y-48749000D01*
X186849000Y-48749000D02*
X187360000Y-48749000D01*
X189040000Y-48789000D02*
X189596000Y-48789000D01*
X186804000Y-48789000D02*
X187360000Y-48789000D01*
X189040000Y-48829000D02*
X189638000Y-48829000D01*
X186762000Y-48829000D02*
X187360000Y-48829000D01*
X189040000Y-48869000D02*
X189678000Y-48869000D01*
X186722000Y-48869000D02*
X187360000Y-48869000D01*
X189040000Y-48909000D02*
X189716000Y-48909000D01*
X186684000Y-48909000D02*
X187360000Y-48909000D01*
X189040000Y-48949000D02*
X189752000Y-48949000D01*
X186648000Y-48949000D02*
X187360000Y-48949000D01*
X189040000Y-48989000D02*
X189787000Y-48989000D01*
X186613000Y-48989000D02*
X187360000Y-48989000D01*
X189040000Y-49029000D02*
X189819000Y-49029000D01*
X186581000Y-49029000D02*
X187360000Y-49029000D01*
X189040000Y-49069000D02*
X189850000Y-49069000D01*
X186550000Y-49069000D02*
X187360000Y-49069000D01*
X189040000Y-49109000D02*
X189880000Y-49109000D01*
X186520000Y-49109000D02*
X187360000Y-49109000D01*
X189040000Y-49149000D02*
X189908000Y-49149000D01*
X186492000Y-49149000D02*
X187360000Y-49149000D01*
X189040000Y-49189000D02*
X189935000Y-49189000D01*
X186465000Y-49189000D02*
X187360000Y-49189000D01*
X189040000Y-49229000D02*
X189960000Y-49229000D01*
X186440000Y-49229000D02*
X187360000Y-49229000D01*
X189040000Y-49269000D02*
X189985000Y-49269000D01*
X186415000Y-49269000D02*
X187360000Y-49269000D01*
X189040000Y-49309000D02*
X190008000Y-49309000D01*
X186392000Y-49309000D02*
X187360000Y-49309000D01*
X189040000Y-49349000D02*
X190030000Y-49349000D01*
X186370000Y-49349000D02*
X187360000Y-49349000D01*
X189040000Y-49389000D02*
X190051000Y-49389000D01*
X186349000Y-49389000D02*
X187360000Y-49389000D01*
X189040000Y-49429000D02*
X190070000Y-49429000D01*
X186330000Y-49429000D02*
X187360000Y-49429000D01*
X189040000Y-49469000D02*
X190089000Y-49469000D01*
X186311000Y-49469000D02*
X187360000Y-49469000D01*
X189040000Y-49509000D02*
X190107000Y-49509000D01*
X186293000Y-49509000D02*
X187360000Y-49509000D01*
X189040000Y-49549000D02*
X190124000Y-49549000D01*
X186276000Y-49549000D02*
X187360000Y-49549000D01*
X189040000Y-49589000D02*
X190140000Y-49589000D01*
X186260000Y-49589000D02*
X187360000Y-49589000D01*
X189040000Y-49629000D02*
X190154000Y-49629000D01*
X186246000Y-49629000D02*
X187360000Y-49629000D01*
X189040000Y-49670000D02*
X190168000Y-49670000D01*
X186232000Y-49670000D02*
X187360000Y-49670000D01*
X189040000Y-49710000D02*
X190182000Y-49710000D01*
X186218000Y-49710000D02*
X187360000Y-49710000D01*
X189040000Y-49750000D02*
X190194000Y-49750000D01*
X186206000Y-49750000D02*
X187360000Y-49750000D01*
X189040000Y-49790000D02*
X190205000Y-49790000D01*
X186195000Y-49790000D02*
X187360000Y-49790000D01*
X189040000Y-49830000D02*
X190216000Y-49830000D01*
X186184000Y-49830000D02*
X187360000Y-49830000D01*
X189040000Y-49870000D02*
X190225000Y-49870000D01*
X186175000Y-49870000D02*
X187360000Y-49870000D01*
X189040000Y-49910000D02*
X190234000Y-49910000D01*
X186166000Y-49910000D02*
X187360000Y-49910000D01*
X189040000Y-49950000D02*
X190242000Y-49950000D01*
X186158000Y-49950000D02*
X187360000Y-49950000D01*
X189040000Y-49990000D02*
X190250000Y-49990000D01*
X186150000Y-49990000D02*
X187360000Y-49990000D01*
X189040000Y-50030000D02*
X190256000Y-50030000D01*
X186144000Y-50030000D02*
X187360000Y-50030000D01*
X189040000Y-50070000D02*
X190262000Y-50070000D01*
X186138000Y-50070000D02*
X187360000Y-50070000D01*
X189040000Y-50110000D02*
X190267000Y-50110000D01*
X186133000Y-50110000D02*
X187360000Y-50110000D01*
X189040000Y-50150000D02*
X190271000Y-50150000D01*
X186129000Y-50150000D02*
X187360000Y-50150000D01*
X186126000Y-50190000D02*
X190274000Y-50190000D01*
X186123000Y-50230000D02*
X190277000Y-50230000D01*
X186121000Y-50270000D02*
X190279000Y-50270000D01*
X186120000Y-50310000D02*
X190280000Y-50310000D01*
X186120000Y-50350000D02*
X190280000Y-50350000D01*
X190320000Y-50350000D02*
G75*
G03X190320000Y-50350000I-2120000J0D01*
G01*
X151730000Y-70800000D02*
X152500000Y-70800000D01*
X159810000Y-70800000D02*
X159040000Y-70800000D01*
X152500000Y-72170000D02*
X159040000Y-72170000D01*
X152500000Y-69430000D02*
X152500000Y-72170000D01*
X159040000Y-69430000D02*
X152500000Y-69430000D01*
X159040000Y-72170000D02*
X159040000Y-69430000D01*
X180425000Y-46404775D02*
X180925000Y-46404775D01*
X180675000Y-46654775D02*
X180675000Y-46154775D01*
X181866000Y-41249000D02*
X182434000Y-41249000D01*
X181632000Y-41289000D02*
X182668000Y-41289000D01*
X181473000Y-41329000D02*
X182827000Y-41329000D01*
X181345000Y-41369000D02*
X182955000Y-41369000D01*
X181235000Y-41409000D02*
X183065000Y-41409000D01*
X181139000Y-41449000D02*
X183161000Y-41449000D01*
X181052000Y-41489000D02*
X183248000Y-41489000D01*
X180972000Y-41529000D02*
X183328000Y-41529000D01*
X180899000Y-41569000D02*
X183401000Y-41569000D01*
X180831000Y-41609000D02*
X183469000Y-41609000D01*
X180767000Y-41649000D02*
X183533000Y-41649000D01*
X180707000Y-41689000D02*
X183593000Y-41689000D01*
X180650000Y-41729000D02*
X183650000Y-41729000D01*
X180596000Y-41769000D02*
X183704000Y-41769000D01*
X180545000Y-41809000D02*
X183755000Y-41809000D01*
X183190000Y-41849000D02*
X183803000Y-41849000D01*
X180497000Y-41849000D02*
X181110000Y-41849000D01*
X183190000Y-41889000D02*
X183849000Y-41889000D01*
X180451000Y-41889000D02*
X181110000Y-41889000D01*
X183190000Y-41929000D02*
X183893000Y-41929000D01*
X180407000Y-41929000D02*
X181110000Y-41929000D01*
X183190000Y-41969000D02*
X183935000Y-41969000D01*
X180365000Y-41969000D02*
X181110000Y-41969000D01*
X183190000Y-42009000D02*
X183976000Y-42009000D01*
X180324000Y-42009000D02*
X181110000Y-42009000D01*
X183190000Y-42049000D02*
X184014000Y-42049000D01*
X180286000Y-42049000D02*
X181110000Y-42049000D01*
X183190000Y-42089000D02*
X184051000Y-42089000D01*
X180249000Y-42089000D02*
X181110000Y-42089000D01*
X183190000Y-42129000D02*
X184087000Y-42129000D01*
X180213000Y-42129000D02*
X181110000Y-42129000D01*
X183190000Y-42169000D02*
X184121000Y-42169000D01*
X180179000Y-42169000D02*
X181110000Y-42169000D01*
X183190000Y-42209000D02*
X184154000Y-42209000D01*
X180146000Y-42209000D02*
X181110000Y-42209000D01*
X183190000Y-42249000D02*
X184185000Y-42249000D01*
X180115000Y-42249000D02*
X181110000Y-42249000D01*
X183190000Y-42289000D02*
X184215000Y-42289000D01*
X180085000Y-42289000D02*
X181110000Y-42289000D01*
X183190000Y-42329000D02*
X184245000Y-42329000D01*
X180055000Y-42329000D02*
X181110000Y-42329000D01*
X183190000Y-42369000D02*
X184272000Y-42369000D01*
X180028000Y-42369000D02*
X181110000Y-42369000D01*
X183190000Y-42409000D02*
X184299000Y-42409000D01*
X180001000Y-42409000D02*
X181110000Y-42409000D01*
X183190000Y-42449000D02*
X184325000Y-42449000D01*
X179975000Y-42449000D02*
X181110000Y-42449000D01*
X183190000Y-42489000D02*
X184350000Y-42489000D01*
X179950000Y-42489000D02*
X181110000Y-42489000D01*
X183190000Y-42529000D02*
X184374000Y-42529000D01*
X179926000Y-42529000D02*
X181110000Y-42529000D01*
X183190000Y-42569000D02*
X184397000Y-42569000D01*
X179903000Y-42569000D02*
X181110000Y-42569000D01*
X183190000Y-42609000D02*
X184418000Y-42609000D01*
X179882000Y-42609000D02*
X181110000Y-42609000D01*
X183190000Y-42649000D02*
X184440000Y-42649000D01*
X179860000Y-42649000D02*
X181110000Y-42649000D01*
X183190000Y-42689000D02*
X184460000Y-42689000D01*
X179840000Y-42689000D02*
X181110000Y-42689000D01*
X183190000Y-42729000D02*
X184479000Y-42729000D01*
X179821000Y-42729000D02*
X181110000Y-42729000D01*
X183190000Y-42769000D02*
X184498000Y-42769000D01*
X179802000Y-42769000D02*
X181110000Y-42769000D01*
X183190000Y-42809000D02*
X184515000Y-42809000D01*
X179785000Y-42809000D02*
X181110000Y-42809000D01*
X183190000Y-42849000D02*
X184532000Y-42849000D01*
X179768000Y-42849000D02*
X181110000Y-42849000D01*
X183190000Y-42889000D02*
X184548000Y-42889000D01*
X179752000Y-42889000D02*
X181110000Y-42889000D01*
X183190000Y-42929000D02*
X184564000Y-42929000D01*
X179736000Y-42929000D02*
X181110000Y-42929000D01*
X183190000Y-42969000D02*
X184578000Y-42969000D01*
X179722000Y-42969000D02*
X181110000Y-42969000D01*
X183190000Y-43009000D02*
X184592000Y-43009000D01*
X179708000Y-43009000D02*
X181110000Y-43009000D01*
X183190000Y-43049000D02*
X184605000Y-43049000D01*
X179695000Y-43049000D02*
X181110000Y-43049000D01*
X183190000Y-43089000D02*
X184618000Y-43089000D01*
X179682000Y-43089000D02*
X181110000Y-43089000D01*
X183190000Y-43129000D02*
X184630000Y-43129000D01*
X179670000Y-43129000D02*
X181110000Y-43129000D01*
X183190000Y-43170000D02*
X184641000Y-43170000D01*
X179659000Y-43170000D02*
X181110000Y-43170000D01*
X183190000Y-43210000D02*
X184651000Y-43210000D01*
X179649000Y-43210000D02*
X181110000Y-43210000D01*
X183190000Y-43250000D02*
X184661000Y-43250000D01*
X179639000Y-43250000D02*
X181110000Y-43250000D01*
X183190000Y-43290000D02*
X184670000Y-43290000D01*
X179630000Y-43290000D02*
X181110000Y-43290000D01*
X183190000Y-43330000D02*
X184678000Y-43330000D01*
X179622000Y-43330000D02*
X181110000Y-43330000D01*
X183190000Y-43370000D02*
X184686000Y-43370000D01*
X179614000Y-43370000D02*
X181110000Y-43370000D01*
X183190000Y-43410000D02*
X184693000Y-43410000D01*
X179607000Y-43410000D02*
X181110000Y-43410000D01*
X183190000Y-43450000D02*
X184700000Y-43450000D01*
X179600000Y-43450000D02*
X181110000Y-43450000D01*
X183190000Y-43490000D02*
X184706000Y-43490000D01*
X179594000Y-43490000D02*
X181110000Y-43490000D01*
X183190000Y-43530000D02*
X184711000Y-43530000D01*
X179589000Y-43530000D02*
X181110000Y-43530000D01*
X183190000Y-43570000D02*
X184715000Y-43570000D01*
X179585000Y-43570000D02*
X181110000Y-43570000D01*
X183190000Y-43610000D02*
X184719000Y-43610000D01*
X179581000Y-43610000D02*
X181110000Y-43610000D01*
X183190000Y-43650000D02*
X184723000Y-43650000D01*
X179577000Y-43650000D02*
X181110000Y-43650000D01*
X183190000Y-43690000D02*
X184726000Y-43690000D01*
X179574000Y-43690000D02*
X181110000Y-43690000D01*
X183190000Y-43730000D02*
X184728000Y-43730000D01*
X179572000Y-43730000D02*
X181110000Y-43730000D01*
X183190000Y-43770000D02*
X184729000Y-43770000D01*
X179571000Y-43770000D02*
X181110000Y-43770000D01*
X179570000Y-43810000D02*
X181110000Y-43810000D01*
X183190000Y-43810000D02*
X184730000Y-43810000D01*
X179570000Y-43850000D02*
X181110000Y-43850000D01*
X183190000Y-43850000D02*
X184730000Y-43850000D01*
X184770000Y-43850000D02*
G75*
G03X184770000Y-43850000I-2620000J0D01*
G01*
X133036000Y-119320000D02*
X134366000Y-119320000D01*
X133036000Y-120650000D02*
X133036000Y-119320000D01*
X133036000Y-121920000D02*
X135696000Y-121920000D01*
X135696000Y-121920000D02*
X135696000Y-124520000D01*
X133036000Y-121920000D02*
X133036000Y-124520000D01*
X133036000Y-124520000D02*
X135696000Y-124520000D01*
X191068000Y-114494000D02*
X185868000Y-114494000D01*
X191068000Y-132334000D02*
X191068000Y-114494000D01*
X185868000Y-134934000D02*
X185868000Y-114494000D01*
X191068000Y-132334000D02*
X188468000Y-132334000D01*
X188468000Y-132334000D02*
X188468000Y-134934000D01*
X188468000Y-134934000D02*
X185868000Y-134934000D01*
X191068000Y-133604000D02*
X191068000Y-134934000D01*
X191068000Y-134934000D02*
X189738000Y-134934000D01*
X152003334Y-117030000D02*
X146770000Y-117030000D01*
X152003334Y-117390000D02*
X152003334Y-117030000D01*
X157236666Y-117390000D02*
X152003334Y-117390000D01*
X157236666Y-117030000D02*
X157236666Y-117390000D01*
X162470000Y-117030001D02*
X157236666Y-117030000D01*
X162470000Y-131930000D02*
X162470000Y-117030001D01*
X146770000Y-131929999D02*
X162470000Y-131930000D01*
X146770000Y-117030000D02*
X146770000Y-131929999D01*
X130906225Y-99240000D02*
X130906225Y-99740000D01*
X130656225Y-99490000D02*
X131156225Y-99490000D01*
X136062000Y-100681000D02*
X136062000Y-101249000D01*
X136022000Y-100447000D02*
X136022000Y-101483000D01*
X135982000Y-100288000D02*
X135982000Y-101642000D01*
X135942000Y-100160000D02*
X135942000Y-101770000D01*
X135902000Y-100050000D02*
X135902000Y-101880000D01*
X135862000Y-99954000D02*
X135862000Y-101976000D01*
X135822000Y-99867000D02*
X135822000Y-102063000D01*
X135782000Y-99787000D02*
X135782000Y-102143000D01*
X135742000Y-99714000D02*
X135742000Y-102216000D01*
X135702000Y-99646000D02*
X135702000Y-102284000D01*
X135662000Y-99582000D02*
X135662000Y-102348000D01*
X135622000Y-99522000D02*
X135622000Y-102408000D01*
X135582000Y-99465000D02*
X135582000Y-102465000D01*
X135542000Y-99411000D02*
X135542000Y-102519000D01*
X135502000Y-99360000D02*
X135502000Y-102570000D01*
X135462000Y-102005000D02*
X135462000Y-102618000D01*
X135462000Y-99312000D02*
X135462000Y-99925000D01*
X135422000Y-102005000D02*
X135422000Y-102664000D01*
X135422000Y-99266000D02*
X135422000Y-99925000D01*
X135382000Y-102005000D02*
X135382000Y-102708000D01*
X135382000Y-99222000D02*
X135382000Y-99925000D01*
X135342000Y-102005000D02*
X135342000Y-102750000D01*
X135342000Y-99180000D02*
X135342000Y-99925000D01*
X135302000Y-102005000D02*
X135302000Y-102791000D01*
X135302000Y-99139000D02*
X135302000Y-99925000D01*
X135262000Y-102005000D02*
X135262000Y-102829000D01*
X135262000Y-99101000D02*
X135262000Y-99925000D01*
X135222000Y-102005000D02*
X135222000Y-102866000D01*
X135222000Y-99064000D02*
X135222000Y-99925000D01*
X135182000Y-102005000D02*
X135182000Y-102902000D01*
X135182000Y-99028000D02*
X135182000Y-99925000D01*
X135142000Y-102005000D02*
X135142000Y-102936000D01*
X135142000Y-98994000D02*
X135142000Y-99925000D01*
X135102000Y-102005000D02*
X135102000Y-102969000D01*
X135102000Y-98961000D02*
X135102000Y-99925000D01*
X135062000Y-102005000D02*
X135062000Y-103000000D01*
X135062000Y-98930000D02*
X135062000Y-99925000D01*
X135022000Y-102005000D02*
X135022000Y-103030000D01*
X135022000Y-98900000D02*
X135022000Y-99925000D01*
X134982000Y-102005000D02*
X134982000Y-103060000D01*
X134982000Y-98870000D02*
X134982000Y-99925000D01*
X134942000Y-102005000D02*
X134942000Y-103087000D01*
X134942000Y-98843000D02*
X134942000Y-99925000D01*
X134902000Y-102005000D02*
X134902000Y-103114000D01*
X134902000Y-98816000D02*
X134902000Y-99925000D01*
X134862000Y-102005000D02*
X134862000Y-103140000D01*
X134862000Y-98790000D02*
X134862000Y-99925000D01*
X134822000Y-102005000D02*
X134822000Y-103165000D01*
X134822000Y-98765000D02*
X134822000Y-99925000D01*
X134782000Y-102005000D02*
X134782000Y-103189000D01*
X134782000Y-98741000D02*
X134782000Y-99925000D01*
X134742000Y-102005000D02*
X134742000Y-103212000D01*
X134742000Y-98718000D02*
X134742000Y-99925000D01*
X134702000Y-102005000D02*
X134702000Y-103233000D01*
X134702000Y-98697000D02*
X134702000Y-99925000D01*
X134662000Y-102005000D02*
X134662000Y-103255000D01*
X134662000Y-98675000D02*
X134662000Y-99925000D01*
X134622000Y-102005000D02*
X134622000Y-103275000D01*
X134622000Y-98655000D02*
X134622000Y-99925000D01*
X134582000Y-102005000D02*
X134582000Y-103294000D01*
X134582000Y-98636000D02*
X134582000Y-99925000D01*
X134542000Y-102005000D02*
X134542000Y-103313000D01*
X134542000Y-98617000D02*
X134542000Y-99925000D01*
X134502000Y-102005000D02*
X134502000Y-103330000D01*
X134502000Y-98600000D02*
X134502000Y-99925000D01*
X134462000Y-102005000D02*
X134462000Y-103347000D01*
X134462000Y-98583000D02*
X134462000Y-99925000D01*
X134422000Y-102005000D02*
X134422000Y-103363000D01*
X134422000Y-98567000D02*
X134422000Y-99925000D01*
X134382000Y-102005000D02*
X134382000Y-103379000D01*
X134382000Y-98551000D02*
X134382000Y-99925000D01*
X134342000Y-102005000D02*
X134342000Y-103393000D01*
X134342000Y-98537000D02*
X134342000Y-99925000D01*
X134302000Y-102005000D02*
X134302000Y-103407000D01*
X134302000Y-98523000D02*
X134302000Y-99925000D01*
X134262000Y-102005000D02*
X134262000Y-103420000D01*
X134262000Y-98510000D02*
X134262000Y-99925000D01*
X134222000Y-102005000D02*
X134222000Y-103433000D01*
X134222000Y-98497000D02*
X134222000Y-99925000D01*
X134182000Y-102005000D02*
X134182000Y-103445000D01*
X134182000Y-98485000D02*
X134182000Y-99925000D01*
X134141000Y-102005000D02*
X134141000Y-103456000D01*
X134141000Y-98474000D02*
X134141000Y-99925000D01*
X134101000Y-102005000D02*
X134101000Y-103466000D01*
X134101000Y-98464000D02*
X134101000Y-99925000D01*
X134061000Y-102005000D02*
X134061000Y-103476000D01*
X134061000Y-98454000D02*
X134061000Y-99925000D01*
X134021000Y-102005000D02*
X134021000Y-103485000D01*
X134021000Y-98445000D02*
X134021000Y-99925000D01*
X133981000Y-102005000D02*
X133981000Y-103493000D01*
X133981000Y-98437000D02*
X133981000Y-99925000D01*
X133941000Y-102005000D02*
X133941000Y-103501000D01*
X133941000Y-98429000D02*
X133941000Y-99925000D01*
X133901000Y-102005000D02*
X133901000Y-103508000D01*
X133901000Y-98422000D02*
X133901000Y-99925000D01*
X133861000Y-102005000D02*
X133861000Y-103515000D01*
X133861000Y-98415000D02*
X133861000Y-99925000D01*
X133821000Y-102005000D02*
X133821000Y-103521000D01*
X133821000Y-98409000D02*
X133821000Y-99925000D01*
X133781000Y-102005000D02*
X133781000Y-103526000D01*
X133781000Y-98404000D02*
X133781000Y-99925000D01*
X133741000Y-102005000D02*
X133741000Y-103530000D01*
X133741000Y-98400000D02*
X133741000Y-99925000D01*
X133701000Y-102005000D02*
X133701000Y-103534000D01*
X133701000Y-98396000D02*
X133701000Y-99925000D01*
X133661000Y-102005000D02*
X133661000Y-103538000D01*
X133661000Y-98392000D02*
X133661000Y-99925000D01*
X133621000Y-102005000D02*
X133621000Y-103541000D01*
X133621000Y-98389000D02*
X133621000Y-99925000D01*
X133581000Y-102005000D02*
X133581000Y-103543000D01*
X133581000Y-98387000D02*
X133581000Y-99925000D01*
X133541000Y-102005000D02*
X133541000Y-103544000D01*
X133541000Y-98386000D02*
X133541000Y-99925000D01*
X133501000Y-98385000D02*
X133501000Y-99925000D01*
X133501000Y-102005000D02*
X133501000Y-103545000D01*
X133461000Y-98385000D02*
X133461000Y-99925000D01*
X133461000Y-102005000D02*
X133461000Y-103545000D01*
X136081000Y-100965000D02*
G75*
G03X136081000Y-100965000I-2620000J0D01*
G01*
X108579000Y-86120000D02*
X108579000Y-80780000D01*
X112021000Y-86120000D02*
X112021000Y-80780000D01*
X108579000Y-86120000D02*
X109245000Y-86120000D01*
X111355000Y-86120000D02*
X112021000Y-86120000D01*
X108579000Y-80780000D02*
X109245000Y-80780000D01*
X111355000Y-80780000D02*
X112021000Y-80780000D01*
X115279000Y-77720000D02*
X115279000Y-72380000D01*
X118721000Y-77720000D02*
X118721000Y-72380000D01*
X115279000Y-77720000D02*
X115945000Y-77720000D01*
X118055000Y-77720000D02*
X118721000Y-77720000D01*
X115279000Y-72380000D02*
X115945000Y-72380000D01*
X118055000Y-72380000D02*
X118721000Y-72380000D01*
X181080000Y-98779000D02*
X186420000Y-98779000D01*
X181080000Y-102221000D02*
X186420000Y-102221000D01*
X181080000Y-98779000D02*
X181080000Y-99445000D01*
X181080000Y-101555000D02*
X181080000Y-102221000D01*
X186420000Y-98779000D02*
X186420000Y-99445000D01*
X186420000Y-101555000D02*
X186420000Y-102221000D01*
D10*
X116078095Y-103084380D02*
X116078095Y-103893904D01*
X116125714Y-103989142D01*
X116173333Y-104036761D01*
X116268571Y-104084380D01*
X116459047Y-104084380D01*
X116554285Y-104036761D01*
X116601904Y-103989142D01*
X116649523Y-103893904D01*
X116649523Y-103084380D01*
X117030476Y-103084380D02*
X117649523Y-103084380D01*
X117316190Y-103465333D01*
X117459047Y-103465333D01*
X117554285Y-103512952D01*
X117601904Y-103560571D01*
X117649523Y-103655809D01*
X117649523Y-103893904D01*
X117601904Y-103989142D01*
X117554285Y-104036761D01*
X117459047Y-104084380D01*
X117173333Y-104084380D01*
X117078095Y-104036761D01*
X117030476Y-103989142D01*
X108855904Y-98877380D02*
X108855904Y-97877380D01*
X109189238Y-98591666D01*
X109522571Y-97877380D01*
X109522571Y-98877380D01*
X109951142Y-98591666D02*
X110427333Y-98591666D01*
X109855904Y-98877380D02*
X110189238Y-97877380D01*
X110522571Y-98877380D01*
X110760666Y-97877380D02*
X111427333Y-98877380D01*
X111427333Y-97877380D02*
X110760666Y-98877380D01*
X111855904Y-98877380D02*
X112046380Y-98877380D01*
X112141619Y-98829761D01*
X112189238Y-98782142D01*
X112284476Y-98639285D01*
X112332095Y-98448809D01*
X112332095Y-98067857D01*
X112284476Y-97972619D01*
X112236857Y-97925000D01*
X112141619Y-97877380D01*
X111951142Y-97877380D01*
X111855904Y-97925000D01*
X111808285Y-97972619D01*
X111760666Y-98067857D01*
X111760666Y-98305952D01*
X111808285Y-98401190D01*
X111855904Y-98448809D01*
X111951142Y-98496428D01*
X112141619Y-98496428D01*
X112236857Y-98448809D01*
X112284476Y-98401190D01*
X112332095Y-98305952D01*
X112903523Y-98305952D02*
X112808285Y-98258333D01*
X112760666Y-98210714D01*
X112713047Y-98115476D01*
X112713047Y-98067857D01*
X112760666Y-97972619D01*
X112808285Y-97925000D01*
X112903523Y-97877380D01*
X113094000Y-97877380D01*
X113189238Y-97925000D01*
X113236857Y-97972619D01*
X113284476Y-98067857D01*
X113284476Y-98115476D01*
X113236857Y-98210714D01*
X113189238Y-98258333D01*
X113094000Y-98305952D01*
X112903523Y-98305952D01*
X112808285Y-98353571D01*
X112760666Y-98401190D01*
X112713047Y-98496428D01*
X112713047Y-98686904D01*
X112760666Y-98782142D01*
X112808285Y-98829761D01*
X112903523Y-98877380D01*
X113094000Y-98877380D01*
X113189238Y-98829761D01*
X113236857Y-98782142D01*
X113284476Y-98686904D01*
X113284476Y-98496428D01*
X113236857Y-98401190D01*
X113189238Y-98353571D01*
X113094000Y-98305952D01*
X113617809Y-97877380D02*
X114236857Y-97877380D01*
X113903523Y-98258333D01*
X114046380Y-98258333D01*
X114141619Y-98305952D01*
X114189238Y-98353571D01*
X114236857Y-98448809D01*
X114236857Y-98686904D01*
X114189238Y-98782142D01*
X114141619Y-98829761D01*
X114046380Y-98877380D01*
X113760666Y-98877380D01*
X113665428Y-98829761D01*
X113617809Y-98782142D01*
X115141619Y-97877380D02*
X114665428Y-97877380D01*
X114617809Y-98353571D01*
X114665428Y-98305952D01*
X114760666Y-98258333D01*
X114998761Y-98258333D01*
X115094000Y-98305952D01*
X115141619Y-98353571D01*
X115189238Y-98448809D01*
X115189238Y-98686904D01*
X115141619Y-98782142D01*
X115094000Y-98829761D01*
X114998761Y-98877380D01*
X114760666Y-98877380D01*
X114665428Y-98829761D01*
X114617809Y-98782142D01*
X115522571Y-97877380D02*
X116189238Y-97877380D01*
X115760666Y-98877380D01*
X116522571Y-98591666D02*
X116998761Y-98591666D01*
X116427333Y-98877380D02*
X116760666Y-97877380D01*
X117094000Y-98877380D01*
X117189238Y-98972619D02*
X117951142Y-98972619D01*
X118522571Y-98353571D02*
X118665428Y-98401190D01*
X118713047Y-98448809D01*
X118760666Y-98544047D01*
X118760666Y-98686904D01*
X118713047Y-98782142D01*
X118665428Y-98829761D01*
X118570190Y-98877380D01*
X118189238Y-98877380D01*
X118189238Y-97877380D01*
X118522571Y-97877380D01*
X118617809Y-97925000D01*
X118665428Y-97972619D01*
X118713047Y-98067857D01*
X118713047Y-98163095D01*
X118665428Y-98258333D01*
X118617809Y-98305952D01*
X118522571Y-98353571D01*
X118189238Y-98353571D01*
X119760666Y-98877380D02*
X119427333Y-98401190D01*
X119189238Y-98877380D02*
X119189238Y-97877380D01*
X119570190Y-97877380D01*
X119665428Y-97925000D01*
X119713047Y-97972619D01*
X119760666Y-98067857D01*
X119760666Y-98210714D01*
X119713047Y-98305952D01*
X119665428Y-98353571D01*
X119570190Y-98401190D01*
X119189238Y-98401190D01*
X120189238Y-98353571D02*
X120522571Y-98353571D01*
X120665428Y-98877380D02*
X120189238Y-98877380D01*
X120189238Y-97877380D01*
X120665428Y-97877380D01*
X121046380Y-98591666D02*
X121522571Y-98591666D01*
X120951142Y-98877380D02*
X121284476Y-97877380D01*
X121617809Y-98877380D01*
X121951142Y-98877380D02*
X121951142Y-97877380D01*
X122522571Y-98877380D02*
X122094000Y-98305952D01*
X122522571Y-97877380D02*
X121951142Y-98448809D01*
X123141619Y-97877380D02*
X123332095Y-97877380D01*
X123427333Y-97925000D01*
X123522571Y-98020238D01*
X123570190Y-98210714D01*
X123570190Y-98544047D01*
X123522571Y-98734523D01*
X123427333Y-98829761D01*
X123332095Y-98877380D01*
X123141619Y-98877380D01*
X123046380Y-98829761D01*
X122951142Y-98734523D01*
X122903523Y-98544047D01*
X122903523Y-98210714D01*
X122951142Y-98020238D01*
X123046380Y-97925000D01*
X123141619Y-97877380D01*
X123998761Y-97877380D02*
X123998761Y-98686904D01*
X124046380Y-98782142D01*
X124094000Y-98829761D01*
X124189238Y-98877380D01*
X124379714Y-98877380D01*
X124474952Y-98829761D01*
X124522571Y-98782142D01*
X124570190Y-98686904D01*
X124570190Y-97877380D01*
X124903523Y-97877380D02*
X125474952Y-97877380D01*
X125189238Y-98877380D02*
X125189238Y-97877380D01*
X159766095Y-103084380D02*
X159766095Y-103893904D01*
X159813714Y-103989142D01*
X159861333Y-104036761D01*
X159956571Y-104084380D01*
X160147047Y-104084380D01*
X160242285Y-104036761D01*
X160289904Y-103989142D01*
X160337523Y-103893904D01*
X160337523Y-103084380D01*
X160766095Y-103179619D02*
X160813714Y-103132000D01*
X160908952Y-103084380D01*
X161147047Y-103084380D01*
X161242285Y-103132000D01*
X161289904Y-103179619D01*
X161337523Y-103274857D01*
X161337523Y-103370095D01*
X161289904Y-103512952D01*
X160718476Y-104084380D01*
X161337523Y-104084380D01*
X154293665Y-98830379D02*
X154293665Y-97830379D01*
X154531760Y-97830379D01*
X154674618Y-97877999D01*
X154769856Y-97973237D01*
X154817475Y-98068475D01*
X154865094Y-98258951D01*
X154865094Y-98401808D01*
X154817475Y-98592284D01*
X154769856Y-98687522D01*
X154674618Y-98782760D01*
X154531760Y-98830379D01*
X154293665Y-98830379D01*
X155246046Y-98782760D02*
X155388903Y-98830379D01*
X155626999Y-98830379D01*
X155722237Y-98782760D01*
X155769856Y-98735141D01*
X155817475Y-98639903D01*
X155817475Y-98544665D01*
X155769856Y-98449427D01*
X155722237Y-98401808D01*
X155626999Y-98354189D01*
X155436522Y-98306570D01*
X155341284Y-98258951D01*
X155293665Y-98211332D01*
X155246046Y-98116094D01*
X155246046Y-98020856D01*
X155293665Y-97925618D01*
X155341284Y-97877999D01*
X155436522Y-97830379D01*
X155674618Y-97830379D01*
X155817475Y-97877999D01*
X156150808Y-97830379D02*
X156769856Y-97830379D01*
X156436522Y-98211332D01*
X156579379Y-98211332D01*
X156674618Y-98258951D01*
X156722237Y-98306570D01*
X156769856Y-98401808D01*
X156769856Y-98639903D01*
X156722237Y-98735141D01*
X156674618Y-98782760D01*
X156579379Y-98830379D01*
X156293665Y-98830379D01*
X156198427Y-98782760D01*
X156150808Y-98735141D01*
X157150808Y-97925618D02*
X157198427Y-97877999D01*
X157293665Y-97830379D01*
X157531760Y-97830379D01*
X157626999Y-97877999D01*
X157674618Y-97925618D01*
X157722237Y-98020856D01*
X157722237Y-98116094D01*
X157674618Y-98258951D01*
X157103189Y-98830379D01*
X157722237Y-98830379D01*
X158055570Y-97830379D02*
X158674618Y-97830379D01*
X158341284Y-98211332D01*
X158484141Y-98211332D01*
X158579379Y-98258951D01*
X158626999Y-98306570D01*
X158674618Y-98401808D01*
X158674618Y-98639903D01*
X158626999Y-98735141D01*
X158579379Y-98782760D01*
X158484141Y-98830379D01*
X158198427Y-98830379D01*
X158103189Y-98782760D01*
X158055570Y-98735141D01*
X159626999Y-98830379D02*
X159055570Y-98830379D01*
X159341284Y-98830379D02*
X159341284Y-97830379D01*
X159246046Y-97973237D01*
X159150808Y-98068475D01*
X159055570Y-98116094D01*
X159817475Y-98925618D02*
X160579379Y-98925618D01*
X161150808Y-98306570D02*
X161293665Y-98354189D01*
X161341284Y-98401808D01*
X161388903Y-98497046D01*
X161388903Y-98639903D01*
X161341284Y-98735141D01*
X161293665Y-98782760D01*
X161198427Y-98830379D01*
X160817475Y-98830379D01*
X160817475Y-97830379D01*
X161150808Y-97830379D01*
X161246046Y-97877999D01*
X161293665Y-97925618D01*
X161341284Y-98020856D01*
X161341284Y-98116094D01*
X161293665Y-98211332D01*
X161246046Y-98258951D01*
X161150808Y-98306570D01*
X160817475Y-98306570D01*
X162388903Y-98830379D02*
X162055570Y-98354189D01*
X161817475Y-98830379D02*
X161817475Y-97830379D01*
X162198427Y-97830379D01*
X162293665Y-97877999D01*
X162341284Y-97925618D01*
X162388903Y-98020856D01*
X162388903Y-98163713D01*
X162341284Y-98258951D01*
X162293665Y-98306570D01*
X162198427Y-98354189D01*
X161817475Y-98354189D01*
X162817475Y-98306570D02*
X163150808Y-98306570D01*
X163293665Y-98830379D02*
X162817475Y-98830379D01*
X162817475Y-97830379D01*
X163293665Y-97830379D01*
X163674618Y-98544665D02*
X164150808Y-98544665D01*
X163579379Y-98830379D02*
X163912713Y-97830379D01*
X164246046Y-98830379D01*
X164579379Y-98830379D02*
X164579379Y-97830379D01*
X165150808Y-98830379D02*
X164722237Y-98258951D01*
X165150808Y-97830379D02*
X164579379Y-98401808D01*
X165769856Y-97830379D02*
X165960332Y-97830379D01*
X166055570Y-97877999D01*
X166150808Y-97973237D01*
X166198427Y-98163713D01*
X166198427Y-98497046D01*
X166150808Y-98687522D01*
X166055570Y-98782760D01*
X165960332Y-98830379D01*
X165769856Y-98830379D01*
X165674618Y-98782760D01*
X165579379Y-98687522D01*
X165531760Y-98497046D01*
X165531760Y-98163713D01*
X165579379Y-97973237D01*
X165674618Y-97877999D01*
X165769856Y-97830379D01*
X166626999Y-97830379D02*
X166626999Y-98639903D01*
X166674618Y-98735141D01*
X166722237Y-98782760D01*
X166817475Y-98830379D01*
X167007951Y-98830379D01*
X167103189Y-98782760D01*
X167150808Y-98735141D01*
X167198427Y-98639903D01*
X167198427Y-97830379D01*
X167531760Y-97830379D02*
X168103189Y-97830379D01*
X167817475Y-98830379D02*
X167817475Y-97830379D01*
X94956380Y-72977333D02*
X95670666Y-72977333D01*
X95813523Y-73024952D01*
X95908761Y-73120190D01*
X95956380Y-73263047D01*
X95956380Y-73358285D01*
X95956380Y-71977333D02*
X95956380Y-72548761D01*
X95956380Y-72263047D02*
X94956380Y-72263047D01*
X95099238Y-72358285D01*
X95194476Y-72453523D01*
X95242095Y-72548761D01*
X103528761Y-78580476D02*
X103576380Y-78437619D01*
X103576380Y-78199523D01*
X103528761Y-78104285D01*
X103481142Y-78056666D01*
X103385904Y-78009047D01*
X103290666Y-78009047D01*
X103195428Y-78056666D01*
X103147809Y-78104285D01*
X103100190Y-78199523D01*
X103052571Y-78390000D01*
X103004952Y-78485238D01*
X102957333Y-78532857D01*
X102862095Y-78580476D01*
X102766857Y-78580476D01*
X102671619Y-78532857D01*
X102624000Y-78485238D01*
X102576380Y-78390000D01*
X102576380Y-78151904D01*
X102624000Y-78009047D01*
X103528761Y-77199523D02*
X103576380Y-77294761D01*
X103576380Y-77485238D01*
X103528761Y-77580476D01*
X103433523Y-77628095D01*
X103052571Y-77628095D01*
X102957333Y-77580476D01*
X102909714Y-77485238D01*
X102909714Y-77294761D01*
X102957333Y-77199523D01*
X103052571Y-77151904D01*
X103147809Y-77151904D01*
X103243047Y-77628095D01*
X103528761Y-76294761D02*
X103576380Y-76390000D01*
X103576380Y-76580476D01*
X103528761Y-76675714D01*
X103481142Y-76723333D01*
X103385904Y-76770952D01*
X103100190Y-76770952D01*
X103004952Y-76723333D01*
X102957333Y-76675714D01*
X102909714Y-76580476D01*
X102909714Y-76390000D01*
X102957333Y-76294761D01*
X103576380Y-75723333D02*
X103528761Y-75818571D01*
X103481142Y-75866190D01*
X103385904Y-75913809D01*
X103100190Y-75913809D01*
X103004952Y-75866190D01*
X102957333Y-75818571D01*
X102909714Y-75723333D01*
X102909714Y-75580476D01*
X102957333Y-75485238D01*
X103004952Y-75437619D01*
X103100190Y-75390000D01*
X103385904Y-75390000D01*
X103481142Y-75437619D01*
X103528761Y-75485238D01*
X103576380Y-75580476D01*
X103576380Y-75723333D01*
X102909714Y-74961428D02*
X103576380Y-74961428D01*
X103004952Y-74961428D02*
X102957333Y-74913809D01*
X102909714Y-74818571D01*
X102909714Y-74675714D01*
X102957333Y-74580476D01*
X103052571Y-74532857D01*
X103576380Y-74532857D01*
X103576380Y-73628095D02*
X102576380Y-73628095D01*
X103528761Y-73628095D02*
X103576380Y-73723333D01*
X103576380Y-73913809D01*
X103528761Y-74009047D01*
X103481142Y-74056666D01*
X103385904Y-74104285D01*
X103100190Y-74104285D01*
X103004952Y-74056666D01*
X102957333Y-74009047D01*
X102909714Y-73913809D01*
X102909714Y-73723333D01*
X102957333Y-73628095D01*
X103576380Y-72723333D02*
X103052571Y-72723333D01*
X102957333Y-72770952D01*
X102909714Y-72866190D01*
X102909714Y-73056666D01*
X102957333Y-73151904D01*
X103528761Y-72723333D02*
X103576380Y-72818571D01*
X103576380Y-73056666D01*
X103528761Y-73151904D01*
X103433523Y-73199523D01*
X103338285Y-73199523D01*
X103243047Y-73151904D01*
X103195428Y-73056666D01*
X103195428Y-72818571D01*
X103147809Y-72723333D01*
X103576380Y-72247142D02*
X102909714Y-72247142D01*
X103100190Y-72247142D02*
X103004952Y-72199523D01*
X102957333Y-72151904D01*
X102909714Y-72056666D01*
X102909714Y-71961428D01*
X102909714Y-71723333D02*
X103576380Y-71485238D01*
X102909714Y-71247142D02*
X103576380Y-71485238D01*
X103814476Y-71580476D01*
X103862095Y-71628095D01*
X103909714Y-71723333D01*
X103052571Y-69770952D02*
X103100190Y-69628095D01*
X103147809Y-69580476D01*
X103243047Y-69532857D01*
X103385904Y-69532857D01*
X103481142Y-69580476D01*
X103528761Y-69628095D01*
X103576380Y-69723333D01*
X103576380Y-70104285D01*
X102576380Y-70104285D01*
X102576380Y-69770952D01*
X102624000Y-69675714D01*
X102671619Y-69628095D01*
X102766857Y-69580476D01*
X102862095Y-69580476D01*
X102957333Y-69628095D01*
X103004952Y-69675714D01*
X103052571Y-69770952D01*
X103052571Y-70104285D01*
X103576380Y-68961428D02*
X103528761Y-69056666D01*
X103481142Y-69104285D01*
X103385904Y-69151904D01*
X103100190Y-69151904D01*
X103004952Y-69104285D01*
X102957333Y-69056666D01*
X102909714Y-68961428D01*
X102909714Y-68818571D01*
X102957333Y-68723333D01*
X103004952Y-68675714D01*
X103100190Y-68628095D01*
X103385904Y-68628095D01*
X103481142Y-68675714D01*
X103528761Y-68723333D01*
X103576380Y-68818571D01*
X103576380Y-68961428D01*
X103576380Y-67770952D02*
X103052571Y-67770952D01*
X102957333Y-67818571D01*
X102909714Y-67913809D01*
X102909714Y-68104285D01*
X102957333Y-68199523D01*
X103528761Y-67770952D02*
X103576380Y-67866190D01*
X103576380Y-68104285D01*
X103528761Y-68199523D01*
X103433523Y-68247142D01*
X103338285Y-68247142D01*
X103243047Y-68199523D01*
X103195428Y-68104285D01*
X103195428Y-67866190D01*
X103147809Y-67770952D01*
X103576380Y-67294761D02*
X102909714Y-67294761D01*
X103100190Y-67294761D02*
X103004952Y-67247142D01*
X102957333Y-67199523D01*
X102909714Y-67104285D01*
X102909714Y-67009047D01*
X103576380Y-66247142D02*
X102576380Y-66247142D01*
X103528761Y-66247142D02*
X103576380Y-66342380D01*
X103576380Y-66532857D01*
X103528761Y-66628095D01*
X103481142Y-66675714D01*
X103385904Y-66723333D01*
X103100190Y-66723333D01*
X103004952Y-66675714D01*
X102957333Y-66628095D01*
X102909714Y-66532857D01*
X102909714Y-66342380D01*
X102957333Y-66247142D01*
X120972380Y-71501904D02*
X121781904Y-71501904D01*
X121877142Y-71454285D01*
X121924761Y-71406666D01*
X121972380Y-71311428D01*
X121972380Y-71120952D01*
X121924761Y-71025714D01*
X121877142Y-70978095D01*
X121781904Y-70930476D01*
X120972380Y-70930476D01*
X121972380Y-69930476D02*
X121972380Y-70501904D01*
X121972380Y-70216190D02*
X120972380Y-70216190D01*
X121115238Y-70311428D01*
X121210476Y-70406666D01*
X121258095Y-70501904D01*
X139692857Y-66778571D02*
X140026190Y-66778571D01*
X140169047Y-67302380D02*
X139692857Y-67302380D01*
X139692857Y-66302380D01*
X140169047Y-66302380D01*
X140550000Y-67254761D02*
X140692857Y-67302380D01*
X140930952Y-67302380D01*
X141026190Y-67254761D01*
X141073809Y-67207142D01*
X141121428Y-67111904D01*
X141121428Y-67016666D01*
X141073809Y-66921428D01*
X141026190Y-66873809D01*
X140930952Y-66826190D01*
X140740476Y-66778571D01*
X140645238Y-66730952D01*
X140597619Y-66683333D01*
X140550000Y-66588095D01*
X140550000Y-66492857D01*
X140597619Y-66397619D01*
X140645238Y-66350000D01*
X140740476Y-66302380D01*
X140978571Y-66302380D01*
X141121428Y-66350000D01*
X141550000Y-67302380D02*
X141550000Y-66302380D01*
X141930952Y-66302380D01*
X142026190Y-66350000D01*
X142073809Y-66397619D01*
X142121428Y-66492857D01*
X142121428Y-66635714D01*
X142073809Y-66730952D01*
X142026190Y-66778571D01*
X141930952Y-66826190D01*
X141550000Y-66826190D01*
X142454761Y-66302380D02*
X143073809Y-66302380D01*
X142740476Y-66683333D01*
X142883333Y-66683333D01*
X142978571Y-66730952D01*
X143026190Y-66778571D01*
X143073809Y-66873809D01*
X143073809Y-67111904D01*
X143026190Y-67207142D01*
X142978571Y-67254761D01*
X142883333Y-67302380D01*
X142597619Y-67302380D01*
X142502380Y-67254761D01*
X142454761Y-67207142D01*
X143454761Y-66397619D02*
X143502380Y-66350000D01*
X143597619Y-66302380D01*
X143835714Y-66302380D01*
X143930952Y-66350000D01*
X143978571Y-66397619D01*
X144026190Y-66492857D01*
X144026190Y-66588095D01*
X143978571Y-66730952D01*
X143407142Y-67302380D01*
X144026190Y-67302380D01*
X144454761Y-66921428D02*
X145216666Y-66921428D01*
X145692857Y-67302380D02*
X145692857Y-66302380D01*
X145930952Y-66302380D01*
X146073809Y-66350000D01*
X146169047Y-66445238D01*
X146216666Y-66540476D01*
X146264285Y-66730952D01*
X146264285Y-66873809D01*
X146216666Y-67064285D01*
X146169047Y-67159523D01*
X146073809Y-67254761D01*
X145930952Y-67302380D01*
X145692857Y-67302380D01*
X147073809Y-67254761D02*
X146978571Y-67302380D01*
X146788095Y-67302380D01*
X146692857Y-67254761D01*
X146645238Y-67159523D01*
X146645238Y-66778571D01*
X146692857Y-66683333D01*
X146788095Y-66635714D01*
X146978571Y-66635714D01*
X147073809Y-66683333D01*
X147121428Y-66778571D01*
X147121428Y-66873809D01*
X146645238Y-66969047D01*
X147454761Y-66635714D02*
X147692857Y-67302380D01*
X147930952Y-66635714D01*
X148311904Y-66921428D02*
X149073809Y-66921428D01*
X149883333Y-66778571D02*
X150026190Y-66826190D01*
X150073809Y-66873809D01*
X150121428Y-66969047D01*
X150121428Y-67111904D01*
X150073809Y-67207142D01*
X150026190Y-67254761D01*
X149930952Y-67302380D01*
X149550000Y-67302380D01*
X149550000Y-66302380D01*
X149883333Y-66302380D01*
X149978571Y-66350000D01*
X150026190Y-66397619D01*
X150073809Y-66492857D01*
X150073809Y-66588095D01*
X150026190Y-66683333D01*
X149978571Y-66730952D01*
X149883333Y-66778571D01*
X149550000Y-66778571D01*
X150692857Y-67302380D02*
X150597619Y-67254761D01*
X150550000Y-67207142D01*
X150502380Y-67111904D01*
X150502380Y-66826190D01*
X150550000Y-66730952D01*
X150597619Y-66683333D01*
X150692857Y-66635714D01*
X150835714Y-66635714D01*
X150930952Y-66683333D01*
X150978571Y-66730952D01*
X151026190Y-66826190D01*
X151026190Y-67111904D01*
X150978571Y-67207142D01*
X150930952Y-67254761D01*
X150835714Y-67302380D01*
X150692857Y-67302380D01*
X151883333Y-67302380D02*
X151883333Y-66778571D01*
X151835714Y-66683333D01*
X151740476Y-66635714D01*
X151550000Y-66635714D01*
X151454761Y-66683333D01*
X151883333Y-67254761D02*
X151788095Y-67302380D01*
X151550000Y-67302380D01*
X151454761Y-67254761D01*
X151407142Y-67159523D01*
X151407142Y-67064285D01*
X151454761Y-66969047D01*
X151550000Y-66921428D01*
X151788095Y-66921428D01*
X151883333Y-66873809D01*
X152359523Y-67302380D02*
X152359523Y-66635714D01*
X152359523Y-66826190D02*
X152407142Y-66730952D01*
X152454761Y-66683333D01*
X152550000Y-66635714D01*
X152645238Y-66635714D01*
X153407142Y-67302380D02*
X153407142Y-66302380D01*
X153407142Y-67254761D02*
X153311904Y-67302380D01*
X153121428Y-67302380D01*
X153026190Y-67254761D01*
X152978571Y-67207142D01*
X152930952Y-67111904D01*
X152930952Y-66826190D01*
X152978571Y-66730952D01*
X153026190Y-66683333D01*
X153121428Y-66635714D01*
X153311904Y-66635714D01*
X153407142Y-66683333D01*
X178498666Y-83208761D02*
X178641523Y-83256380D01*
X178879619Y-83256380D01*
X178974857Y-83208761D01*
X179022476Y-83161142D01*
X179070095Y-83065904D01*
X179070095Y-82970666D01*
X179022476Y-82875428D01*
X178974857Y-82827809D01*
X178879619Y-82780190D01*
X178689142Y-82732571D01*
X178593904Y-82684952D01*
X178546285Y-82637333D01*
X178498666Y-82542095D01*
X178498666Y-82446857D01*
X178546285Y-82351619D01*
X178593904Y-82304000D01*
X178689142Y-82256380D01*
X178927238Y-82256380D01*
X179070095Y-82304000D01*
X179403428Y-82256380D02*
X179641523Y-83256380D01*
X179832000Y-82542095D01*
X180022476Y-83256380D01*
X180260571Y-82256380D01*
X180593904Y-82351619D02*
X180641523Y-82304000D01*
X180736761Y-82256380D01*
X180974857Y-82256380D01*
X181070095Y-82304000D01*
X181117714Y-82351619D01*
X181165333Y-82446857D01*
X181165333Y-82542095D01*
X181117714Y-82684952D01*
X180546285Y-83256380D01*
X181165333Y-83256380D01*
X181428190Y-83312761D02*
X181571047Y-83360380D01*
X181809142Y-83360380D01*
X181904380Y-83312761D01*
X181952000Y-83265142D01*
X181999619Y-83169904D01*
X181999619Y-83074666D01*
X181952000Y-82979428D01*
X181904380Y-82931809D01*
X181809142Y-82884190D01*
X181618666Y-82836571D01*
X181523428Y-82788952D01*
X181475809Y-82741333D01*
X181428190Y-82646095D01*
X181428190Y-82550857D01*
X181475809Y-82455619D01*
X181523428Y-82408000D01*
X181618666Y-82360380D01*
X181856761Y-82360380D01*
X181999619Y-82408000D01*
X182332952Y-82360380D02*
X182571047Y-83360380D01*
X182761523Y-82646095D01*
X182952000Y-83360380D01*
X183190095Y-82360380D01*
X183332952Y-83455619D02*
X184094857Y-83455619D01*
X184285333Y-83312761D02*
X184428190Y-83360380D01*
X184666285Y-83360380D01*
X184761523Y-83312761D01*
X184809142Y-83265142D01*
X184856761Y-83169904D01*
X184856761Y-83074666D01*
X184809142Y-82979428D01*
X184761523Y-82931809D01*
X184666285Y-82884190D01*
X184475809Y-82836571D01*
X184380571Y-82788952D01*
X184332952Y-82741333D01*
X184285333Y-82646095D01*
X184285333Y-82550857D01*
X184332952Y-82455619D01*
X184380571Y-82408000D01*
X184475809Y-82360380D01*
X184713904Y-82360380D01*
X184856761Y-82408000D01*
X185285333Y-83360380D02*
X185285333Y-82360380D01*
X185666285Y-82360380D01*
X185761523Y-82408000D01*
X185809142Y-82455619D01*
X185856761Y-82550857D01*
X185856761Y-82693714D01*
X185809142Y-82788952D01*
X185761523Y-82836571D01*
X185666285Y-82884190D01*
X185285333Y-82884190D01*
X186285333Y-83360380D02*
X186285333Y-82360380D01*
X186523428Y-82360380D01*
X186666285Y-82408000D01*
X186761523Y-82503238D01*
X186809142Y-82598476D01*
X186856761Y-82788952D01*
X186856761Y-82931809D01*
X186809142Y-83122285D01*
X186761523Y-83217523D01*
X186666285Y-83312761D01*
X186523428Y-83360380D01*
X186285333Y-83360380D01*
X187142476Y-82360380D02*
X187713904Y-82360380D01*
X187428190Y-83360380D02*
X187428190Y-82360380D01*
X187809142Y-83455619D02*
X188571047Y-83455619D01*
X188809142Y-83360380D02*
X188809142Y-82360380D01*
X189190095Y-82360380D01*
X189285333Y-82408000D01*
X189332952Y-82455619D01*
X189380571Y-82550857D01*
X189380571Y-82693714D01*
X189332952Y-82788952D01*
X189285333Y-82836571D01*
X189190095Y-82884190D01*
X188809142Y-82884190D01*
X189999619Y-82360380D02*
X190190095Y-82360380D01*
X190285333Y-82408000D01*
X190380571Y-82503238D01*
X190428190Y-82693714D01*
X190428190Y-83027047D01*
X190380571Y-83217523D01*
X190285333Y-83312761D01*
X190190095Y-83360380D01*
X189999619Y-83360380D01*
X189904380Y-83312761D01*
X189809142Y-83217523D01*
X189761523Y-83027047D01*
X189761523Y-82693714D01*
X189809142Y-82503238D01*
X189904380Y-82408000D01*
X189999619Y-82360380D01*
X190761523Y-82360380D02*
X190999619Y-83360380D01*
X191190095Y-82646095D01*
X191380571Y-83360380D01*
X191618666Y-82360380D01*
X191999619Y-82836571D02*
X192332952Y-82836571D01*
X192475809Y-83360380D02*
X191999619Y-83360380D01*
X191999619Y-82360380D01*
X192475809Y-82360380D01*
X193475809Y-83360380D02*
X193142476Y-82884190D01*
X192904380Y-83360380D02*
X192904380Y-82360380D01*
X193285333Y-82360380D01*
X193380571Y-82408000D01*
X193428190Y-82455619D01*
X193475809Y-82550857D01*
X193475809Y-82693714D01*
X193428190Y-82788952D01*
X193380571Y-82836571D01*
X193285333Y-82884190D01*
X192904380Y-82884190D01*
X129776380Y-69232666D02*
X129300190Y-69566000D01*
X129776380Y-69804095D02*
X128776380Y-69804095D01*
X128776380Y-69423142D01*
X128824000Y-69327904D01*
X128871619Y-69280285D01*
X128966857Y-69232666D01*
X129109714Y-69232666D01*
X129204952Y-69280285D01*
X129252571Y-69327904D01*
X129300190Y-69423142D01*
X129300190Y-69804095D01*
X128871619Y-68851714D02*
X128824000Y-68804095D01*
X128776380Y-68708857D01*
X128776380Y-68470761D01*
X128824000Y-68375523D01*
X128871619Y-68327904D01*
X128966857Y-68280285D01*
X129062095Y-68280285D01*
X129204952Y-68327904D01*
X129776380Y-68899333D01*
X129776380Y-68280285D01*
X94956380Y-50625333D02*
X95670666Y-50625333D01*
X95813523Y-50672952D01*
X95908761Y-50768190D01*
X95956380Y-50911047D01*
X95956380Y-51006285D01*
X95051619Y-50196761D02*
X95004000Y-50149142D01*
X94956380Y-50053904D01*
X94956380Y-49815809D01*
X95004000Y-49720571D01*
X95051619Y-49672952D01*
X95146857Y-49625333D01*
X95242095Y-49625333D01*
X95384952Y-49672952D01*
X95956380Y-50244380D01*
X95956380Y-49625333D01*
X103528761Y-52768190D02*
X103576380Y-52625333D01*
X103576380Y-52387238D01*
X103528761Y-52292000D01*
X103481142Y-52244380D01*
X103385904Y-52196761D01*
X103290666Y-52196761D01*
X103195428Y-52244380D01*
X103147809Y-52292000D01*
X103100190Y-52387238D01*
X103052571Y-52577714D01*
X103004952Y-52672952D01*
X102957333Y-52720571D01*
X102862095Y-52768190D01*
X102766857Y-52768190D01*
X102671619Y-52720571D01*
X102624000Y-52672952D01*
X102576380Y-52577714D01*
X102576380Y-52339619D01*
X102624000Y-52196761D01*
X102909714Y-51768190D02*
X103576380Y-51768190D01*
X103004952Y-51768190D02*
X102957333Y-51720571D01*
X102909714Y-51625333D01*
X102909714Y-51482476D01*
X102957333Y-51387238D01*
X103052571Y-51339619D01*
X103576380Y-51339619D01*
X103576380Y-50720571D02*
X103528761Y-50815809D01*
X103481142Y-50863428D01*
X103385904Y-50911047D01*
X103100190Y-50911047D01*
X103004952Y-50863428D01*
X102957333Y-50815809D01*
X102909714Y-50720571D01*
X102909714Y-50577714D01*
X102957333Y-50482476D01*
X103004952Y-50434857D01*
X103100190Y-50387238D01*
X103385904Y-50387238D01*
X103481142Y-50434857D01*
X103528761Y-50482476D01*
X103576380Y-50577714D01*
X103576380Y-50720571D01*
X103576380Y-49815809D02*
X103528761Y-49911047D01*
X103481142Y-49958666D01*
X103385904Y-50006285D01*
X103100190Y-50006285D01*
X103004952Y-49958666D01*
X102957333Y-49911047D01*
X102909714Y-49815809D01*
X102909714Y-49672952D01*
X102957333Y-49577714D01*
X103004952Y-49530095D01*
X103100190Y-49482476D01*
X103385904Y-49482476D01*
X103481142Y-49530095D01*
X103528761Y-49577714D01*
X103576380Y-49672952D01*
X103576380Y-49815809D01*
X102909714Y-49149142D02*
X102909714Y-48625333D01*
X103576380Y-49149142D01*
X103576380Y-48625333D01*
X103528761Y-47863428D02*
X103576380Y-47958666D01*
X103576380Y-48149142D01*
X103528761Y-48244380D01*
X103433523Y-48292000D01*
X103052571Y-48292000D01*
X102957333Y-48244380D01*
X102909714Y-48149142D01*
X102909714Y-47958666D01*
X102957333Y-47863428D01*
X103052571Y-47815809D01*
X103147809Y-47815809D01*
X103243047Y-48292000D01*
X104061333Y-41225142D02*
X104013714Y-41272761D01*
X103870857Y-41320380D01*
X103775619Y-41320380D01*
X103632761Y-41272761D01*
X103537523Y-41177523D01*
X103489904Y-41082285D01*
X103442285Y-40891809D01*
X103442285Y-40748952D01*
X103489904Y-40558476D01*
X103537523Y-40463238D01*
X103632761Y-40368000D01*
X103775619Y-40320380D01*
X103870857Y-40320380D01*
X104013714Y-40368000D01*
X104061333Y-40415619D01*
X104442285Y-40415619D02*
X104489904Y-40368000D01*
X104585142Y-40320380D01*
X104823238Y-40320380D01*
X104918476Y-40368000D01*
X104966095Y-40415619D01*
X105013714Y-40510857D01*
X105013714Y-40606095D01*
X104966095Y-40748952D01*
X104394666Y-41320380D01*
X105013714Y-41320380D01*
X165274666Y-47712380D02*
X165274666Y-48426666D01*
X165227047Y-48569523D01*
X165131809Y-48664761D01*
X164988952Y-48712380D01*
X164893714Y-48712380D01*
X166179428Y-48045714D02*
X166179428Y-48712380D01*
X165941333Y-47664761D02*
X165703238Y-48379047D01*
X166322285Y-48379047D01*
X162282666Y-40060571D02*
X161949333Y-40060571D01*
X161949333Y-40584380D02*
X161949333Y-39584380D01*
X162425523Y-39584380D01*
X162806476Y-40584380D02*
X162806476Y-39917714D01*
X162806476Y-40108190D02*
X162854095Y-40012952D01*
X162901714Y-39965333D01*
X162996952Y-39917714D01*
X163092190Y-39917714D01*
X163568380Y-40584380D02*
X163473142Y-40536761D01*
X163425523Y-40489142D01*
X163377904Y-40393904D01*
X163377904Y-40108190D01*
X163425523Y-40012952D01*
X163473142Y-39965333D01*
X163568380Y-39917714D01*
X163711238Y-39917714D01*
X163806476Y-39965333D01*
X163854095Y-40012952D01*
X163901714Y-40108190D01*
X163901714Y-40393904D01*
X163854095Y-40489142D01*
X163806476Y-40536761D01*
X163711238Y-40584380D01*
X163568380Y-40584380D01*
X164330285Y-39917714D02*
X164330285Y-40584380D01*
X164330285Y-40012952D02*
X164377904Y-39965333D01*
X164473142Y-39917714D01*
X164616000Y-39917714D01*
X164711238Y-39965333D01*
X164758857Y-40060571D01*
X164758857Y-40584380D01*
X165092190Y-39917714D02*
X165473142Y-39917714D01*
X165235047Y-39584380D02*
X165235047Y-40441523D01*
X165282666Y-40536761D01*
X165377904Y-40584380D01*
X165473142Y-40584380D01*
X166568380Y-40584380D02*
X166568380Y-39584380D01*
X166949333Y-39584380D01*
X167044571Y-39632000D01*
X167092190Y-39679619D01*
X167139809Y-39774857D01*
X167139809Y-39917714D01*
X167092190Y-40012952D01*
X167044571Y-40060571D01*
X166949333Y-40108190D01*
X166568380Y-40108190D01*
X167996952Y-40584380D02*
X167996952Y-40060571D01*
X167949333Y-39965333D01*
X167854095Y-39917714D01*
X167663619Y-39917714D01*
X167568380Y-39965333D01*
X167996952Y-40536761D02*
X167901714Y-40584380D01*
X167663619Y-40584380D01*
X167568380Y-40536761D01*
X167520761Y-40441523D01*
X167520761Y-40346285D01*
X167568380Y-40251047D01*
X167663619Y-40203428D01*
X167901714Y-40203428D01*
X167996952Y-40155809D01*
X168473142Y-39917714D02*
X168473142Y-40584380D01*
X168473142Y-40012952D02*
X168520761Y-39965333D01*
X168616000Y-39917714D01*
X168758857Y-39917714D01*
X168854095Y-39965333D01*
X168901714Y-40060571D01*
X168901714Y-40584380D01*
X169758857Y-40536761D02*
X169663619Y-40584380D01*
X169473142Y-40584380D01*
X169377904Y-40536761D01*
X169330285Y-40441523D01*
X169330285Y-40060571D01*
X169377904Y-39965333D01*
X169473142Y-39917714D01*
X169663619Y-39917714D01*
X169758857Y-39965333D01*
X169806476Y-40060571D01*
X169806476Y-40155809D01*
X169330285Y-40251047D01*
X170377904Y-40584380D02*
X170282666Y-40536761D01*
X170235047Y-40441523D01*
X170235047Y-39584380D01*
X94956380Y-58245333D02*
X95670666Y-58245333D01*
X95813523Y-58292952D01*
X95908761Y-58388190D01*
X95956380Y-58531047D01*
X95956380Y-58626285D01*
X94956380Y-57864380D02*
X94956380Y-57245333D01*
X95337333Y-57578666D01*
X95337333Y-57435809D01*
X95384952Y-57340571D01*
X95432571Y-57292952D01*
X95527809Y-57245333D01*
X95765904Y-57245333D01*
X95861142Y-57292952D01*
X95908761Y-57340571D01*
X95956380Y-57435809D01*
X95956380Y-57721523D01*
X95908761Y-57816761D01*
X95861142Y-57864380D01*
X102576380Y-60149238D02*
X103576380Y-59815904D01*
X102576380Y-59482571D01*
X103576380Y-59006380D02*
X103528761Y-59101619D01*
X103481142Y-59149238D01*
X103385904Y-59196857D01*
X103100190Y-59196857D01*
X103004952Y-59149238D01*
X102957333Y-59101619D01*
X102909714Y-59006380D01*
X102909714Y-58863523D01*
X102957333Y-58768285D01*
X103004952Y-58720666D01*
X103100190Y-58673047D01*
X103385904Y-58673047D01*
X103481142Y-58720666D01*
X103528761Y-58768285D01*
X103576380Y-58863523D01*
X103576380Y-59006380D01*
X103576380Y-58101619D02*
X103528761Y-58196857D01*
X103433523Y-58244476D01*
X102576380Y-58244476D01*
X102909714Y-57292095D02*
X103576380Y-57292095D01*
X102909714Y-57720666D02*
X103433523Y-57720666D01*
X103528761Y-57673047D01*
X103576380Y-57577809D01*
X103576380Y-57434952D01*
X103528761Y-57339714D01*
X103481142Y-57292095D01*
X103576380Y-56815904D02*
X102909714Y-56815904D01*
X103004952Y-56815904D02*
X102957333Y-56768285D01*
X102909714Y-56673047D01*
X102909714Y-56530190D01*
X102957333Y-56434952D01*
X103052571Y-56387333D01*
X103576380Y-56387333D01*
X103052571Y-56387333D02*
X102957333Y-56339714D01*
X102909714Y-56244476D01*
X102909714Y-56101619D01*
X102957333Y-56006380D01*
X103052571Y-55958761D01*
X103576380Y-55958761D01*
X103528761Y-55101619D02*
X103576380Y-55196857D01*
X103576380Y-55387333D01*
X103528761Y-55482571D01*
X103433523Y-55530190D01*
X103052571Y-55530190D01*
X102957333Y-55482571D01*
X102909714Y-55387333D01*
X102909714Y-55196857D01*
X102957333Y-55101619D01*
X103052571Y-55054000D01*
X103147809Y-55054000D01*
X103243047Y-55530190D01*
X177563333Y-49432380D02*
X177230000Y-48956190D01*
X176991904Y-49432380D02*
X176991904Y-48432380D01*
X177372857Y-48432380D01*
X177468095Y-48480000D01*
X177515714Y-48527619D01*
X177563333Y-48622857D01*
X177563333Y-48765714D01*
X177515714Y-48860952D01*
X177468095Y-48908571D01*
X177372857Y-48956190D01*
X176991904Y-48956190D01*
X178515714Y-49432380D02*
X177944285Y-49432380D01*
X178230000Y-49432380D02*
X178230000Y-48432380D01*
X178134761Y-48575238D01*
X178039523Y-48670476D01*
X177944285Y-48718095D01*
X188033333Y-47707142D02*
X187985714Y-47754761D01*
X187842857Y-47802380D01*
X187747619Y-47802380D01*
X187604761Y-47754761D01*
X187509523Y-47659523D01*
X187461904Y-47564285D01*
X187414285Y-47373809D01*
X187414285Y-47230952D01*
X187461904Y-47040476D01*
X187509523Y-46945238D01*
X187604761Y-46850000D01*
X187747619Y-46802380D01*
X187842857Y-46802380D01*
X187985714Y-46850000D01*
X188033333Y-46897619D01*
X188985714Y-47802380D02*
X188414285Y-47802380D01*
X188700000Y-47802380D02*
X188700000Y-46802380D01*
X188604761Y-46945238D01*
X188509523Y-47040476D01*
X188414285Y-47088095D01*
X155633333Y-68902380D02*
X155300000Y-68426190D01*
X155061904Y-68902380D02*
X155061904Y-67902380D01*
X155442857Y-67902380D01*
X155538095Y-67950000D01*
X155585714Y-67997619D01*
X155633333Y-68092857D01*
X155633333Y-68235714D01*
X155585714Y-68330952D01*
X155538095Y-68378571D01*
X155442857Y-68426190D01*
X155061904Y-68426190D01*
X156538095Y-67902380D02*
X156061904Y-67902380D01*
X156014285Y-68378571D01*
X156061904Y-68330952D01*
X156157142Y-68283333D01*
X156395238Y-68283333D01*
X156490476Y-68330952D01*
X156538095Y-68378571D01*
X156585714Y-68473809D01*
X156585714Y-68711904D01*
X156538095Y-68807142D01*
X156490476Y-68854761D01*
X156395238Y-68902380D01*
X156157142Y-68902380D01*
X156061904Y-68854761D01*
X156014285Y-68807142D01*
X181983333Y-40635142D02*
X181935714Y-40682761D01*
X181792857Y-40730380D01*
X181697619Y-40730380D01*
X181554761Y-40682761D01*
X181459523Y-40587523D01*
X181411904Y-40492285D01*
X181364285Y-40301809D01*
X181364285Y-40158952D01*
X181411904Y-39968476D01*
X181459523Y-39873238D01*
X181554761Y-39778000D01*
X181697619Y-39730380D01*
X181792857Y-39730380D01*
X181935714Y-39778000D01*
X181983333Y-39825619D01*
X182316666Y-39730380D02*
X182935714Y-39730380D01*
X182602380Y-40111333D01*
X182745238Y-40111333D01*
X182840476Y-40158952D01*
X182888095Y-40206571D01*
X182935714Y-40301809D01*
X182935714Y-40539904D01*
X182888095Y-40635142D01*
X182840476Y-40682761D01*
X182745238Y-40730380D01*
X182459523Y-40730380D01*
X182364285Y-40682761D01*
X182316666Y-40635142D01*
X134266666Y-117552380D02*
X134266666Y-118266666D01*
X134219047Y-118409523D01*
X134123809Y-118504761D01*
X133980952Y-118552380D01*
X133885714Y-118552380D01*
X134695238Y-117647619D02*
X134742857Y-117600000D01*
X134838095Y-117552380D01*
X135076190Y-117552380D01*
X135171428Y-117600000D01*
X135219047Y-117647619D01*
X135266666Y-117742857D01*
X135266666Y-117838095D01*
X135219047Y-117980952D01*
X134647619Y-118552380D01*
X135266666Y-118552380D01*
X137652380Y-124509523D02*
X137652380Y-124985714D01*
X136652380Y-124985714D01*
X137128571Y-124176190D02*
X137128571Y-123842857D01*
X137652380Y-123700000D02*
X137652380Y-124176190D01*
X136652380Y-124176190D01*
X136652380Y-123700000D01*
X137652380Y-123271428D02*
X136652380Y-123271428D01*
X136652380Y-123033333D01*
X136700000Y-122890476D01*
X136795238Y-122795238D01*
X136890476Y-122747619D01*
X137080952Y-122700000D01*
X137223809Y-122700000D01*
X137414285Y-122747619D01*
X137509523Y-122795238D01*
X137604761Y-122890476D01*
X137652380Y-123033333D01*
X137652380Y-123271428D01*
X137747619Y-122509523D02*
X137747619Y-121747619D01*
X137557142Y-120938095D02*
X137604761Y-120985714D01*
X137652380Y-121128571D01*
X137652380Y-121223809D01*
X137604761Y-121366666D01*
X137509523Y-121461904D01*
X137414285Y-121509523D01*
X137223809Y-121557142D01*
X137080952Y-121557142D01*
X136890476Y-121509523D01*
X136795238Y-121461904D01*
X136700000Y-121366666D01*
X136652380Y-121223809D01*
X136652380Y-121128571D01*
X136700000Y-120985714D01*
X136747619Y-120938095D01*
X136652380Y-120652380D02*
X136652380Y-120080952D01*
X137652380Y-120366666D02*
X136652380Y-120366666D01*
X137652380Y-119176190D02*
X137176190Y-119509523D01*
X137652380Y-119747619D02*
X136652380Y-119747619D01*
X136652380Y-119366666D01*
X136700000Y-119271428D01*
X136747619Y-119223809D01*
X136842857Y-119176190D01*
X136985714Y-119176190D01*
X137080952Y-119223809D01*
X137128571Y-119271428D01*
X137176190Y-119366666D01*
X137176190Y-119747619D01*
X137652380Y-118271428D02*
X137652380Y-118747619D01*
X136652380Y-118747619D01*
X191984380Y-125301333D02*
X192698666Y-125301333D01*
X192841523Y-125348952D01*
X192936761Y-125444190D01*
X192984380Y-125587047D01*
X192984380Y-125682285D01*
X192984380Y-124301333D02*
X192984380Y-124872761D01*
X192984380Y-124587047D02*
X191984380Y-124587047D01*
X192127238Y-124682285D01*
X192222476Y-124777523D01*
X192270095Y-124872761D01*
X184729380Y-129372809D02*
X183729380Y-129372809D01*
X184443666Y-129039476D01*
X183729380Y-128706142D01*
X184729380Y-128706142D01*
X184729380Y-127801380D02*
X184205571Y-127801380D01*
X184110333Y-127849000D01*
X184062714Y-127944238D01*
X184062714Y-128134714D01*
X184110333Y-128229952D01*
X184681761Y-127801380D02*
X184729380Y-127896619D01*
X184729380Y-128134714D01*
X184681761Y-128229952D01*
X184586523Y-128277571D01*
X184491285Y-128277571D01*
X184396047Y-128229952D01*
X184348428Y-128134714D01*
X184348428Y-127896619D01*
X184300809Y-127801380D01*
X184729380Y-127325190D02*
X184062714Y-127325190D01*
X183729380Y-127325190D02*
X183777000Y-127372809D01*
X183824619Y-127325190D01*
X183777000Y-127277571D01*
X183729380Y-127325190D01*
X183824619Y-127325190D01*
X184062714Y-126849000D02*
X184729380Y-126849000D01*
X184157952Y-126849000D02*
X184110333Y-126801380D01*
X184062714Y-126706142D01*
X184062714Y-126563285D01*
X184110333Y-126468047D01*
X184205571Y-126420428D01*
X184729380Y-126420428D01*
X184205571Y-124849000D02*
X184253190Y-124706142D01*
X184300809Y-124658523D01*
X184396047Y-124610904D01*
X184538904Y-124610904D01*
X184634142Y-124658523D01*
X184681761Y-124706142D01*
X184729380Y-124801380D01*
X184729380Y-125182333D01*
X183729380Y-125182333D01*
X183729380Y-124849000D01*
X183777000Y-124753761D01*
X183824619Y-124706142D01*
X183919857Y-124658523D01*
X184015095Y-124658523D01*
X184110333Y-124706142D01*
X184157952Y-124753761D01*
X184205571Y-124849000D01*
X184205571Y-125182333D01*
X184729380Y-124039476D02*
X184681761Y-124134714D01*
X184634142Y-124182333D01*
X184538904Y-124229952D01*
X184253190Y-124229952D01*
X184157952Y-124182333D01*
X184110333Y-124134714D01*
X184062714Y-124039476D01*
X184062714Y-123896619D01*
X184110333Y-123801380D01*
X184157952Y-123753761D01*
X184253190Y-123706142D01*
X184538904Y-123706142D01*
X184634142Y-123753761D01*
X184681761Y-123801380D01*
X184729380Y-123896619D01*
X184729380Y-124039476D01*
X184729380Y-122849000D02*
X184205571Y-122849000D01*
X184110333Y-122896619D01*
X184062714Y-122991857D01*
X184062714Y-123182333D01*
X184110333Y-123277571D01*
X184681761Y-122849000D02*
X184729380Y-122944238D01*
X184729380Y-123182333D01*
X184681761Y-123277571D01*
X184586523Y-123325190D01*
X184491285Y-123325190D01*
X184396047Y-123277571D01*
X184348428Y-123182333D01*
X184348428Y-122944238D01*
X184300809Y-122849000D01*
X184729380Y-122372809D02*
X184062714Y-122372809D01*
X184253190Y-122372809D02*
X184157952Y-122325190D01*
X184110333Y-122277571D01*
X184062714Y-122182333D01*
X184062714Y-122087095D01*
X184729380Y-121325190D02*
X183729380Y-121325190D01*
X184681761Y-121325190D02*
X184729380Y-121420428D01*
X184729380Y-121610904D01*
X184681761Y-121706142D01*
X184634142Y-121753761D01*
X184538904Y-121801380D01*
X184253190Y-121801380D01*
X184157952Y-121753761D01*
X184110333Y-121706142D01*
X184062714Y-121610904D01*
X184062714Y-121420428D01*
X184110333Y-121325190D01*
X154088095Y-115802380D02*
X154088095Y-116611904D01*
X154135714Y-116707142D01*
X154183333Y-116754761D01*
X154278571Y-116802380D01*
X154469047Y-116802380D01*
X154564285Y-116754761D01*
X154611904Y-116707142D01*
X154659523Y-116611904D01*
X154659523Y-115802380D01*
X155659523Y-116802380D02*
X155088095Y-116802380D01*
X155373809Y-116802380D02*
X155373809Y-115802380D01*
X155278571Y-115945238D01*
X155183333Y-116040476D01*
X155088095Y-116088095D01*
X155352380Y-129726190D02*
X155352380Y-130107142D01*
X154352380Y-130107142D01*
X154352380Y-129307142D02*
X154352380Y-129154761D01*
X154400000Y-129078571D01*
X154495238Y-129002380D01*
X154685714Y-128964285D01*
X155019047Y-128964285D01*
X155209523Y-129002380D01*
X155304761Y-129078571D01*
X155352380Y-129154761D01*
X155352380Y-129307142D01*
X155304761Y-129383333D01*
X155209523Y-129459523D01*
X155019047Y-129497619D01*
X154685714Y-129497619D01*
X154495238Y-129459523D01*
X154400000Y-129383333D01*
X154352380Y-129307142D01*
X154400000Y-128202380D02*
X154352380Y-128278571D01*
X154352380Y-128392857D01*
X154400000Y-128507142D01*
X154495238Y-128583333D01*
X154590476Y-128621428D01*
X154780952Y-128659523D01*
X154923809Y-128659523D01*
X155114285Y-128621428D01*
X155209523Y-128583333D01*
X155304761Y-128507142D01*
X155352380Y-128392857D01*
X155352380Y-128316666D01*
X155304761Y-128202380D01*
X155257142Y-128164285D01*
X154923809Y-128164285D01*
X154923809Y-128316666D01*
X155352380Y-127821428D02*
X154352380Y-127821428D01*
X155257142Y-126983333D02*
X155304761Y-127021428D01*
X155352380Y-127135714D01*
X155352380Y-127211904D01*
X155304761Y-127326190D01*
X155209523Y-127402380D01*
X155114285Y-127440476D01*
X154923809Y-127478571D01*
X154780952Y-127478571D01*
X154590476Y-127440476D01*
X154495238Y-127402380D01*
X154400000Y-127326190D01*
X154352380Y-127211904D01*
X154352380Y-127135714D01*
X154400000Y-127021428D01*
X154447619Y-126983333D01*
X155447619Y-126830952D02*
X155447619Y-126221428D01*
X155352380Y-125650000D02*
X155352380Y-126030952D01*
X154352380Y-126030952D01*
X154352380Y-125497619D02*
X155352380Y-125230952D01*
X154352380Y-124964285D01*
X155352380Y-124316666D02*
X155352380Y-124697619D01*
X154352380Y-124697619D01*
X155447619Y-124240476D02*
X155447619Y-123630952D01*
X155257142Y-122983333D02*
X155304761Y-123021428D01*
X155352380Y-123135714D01*
X155352380Y-123211904D01*
X155304761Y-123326190D01*
X155209523Y-123402380D01*
X155114285Y-123440476D01*
X154923809Y-123478571D01*
X154780952Y-123478571D01*
X154590476Y-123440476D01*
X154495238Y-123402380D01*
X154400000Y-123326190D01*
X154352380Y-123211904D01*
X154352380Y-123135714D01*
X154400000Y-123021428D01*
X154447619Y-122983333D01*
X154352380Y-122754761D02*
X155352380Y-122488095D01*
X154352380Y-122221428D01*
X154352380Y-122069047D02*
X154352380Y-121611904D01*
X155352380Y-121840476D02*
X154352380Y-121840476D01*
X155352380Y-120888095D02*
X154876190Y-121154761D01*
X155352380Y-121345238D02*
X154352380Y-121345238D01*
X154352380Y-121040476D01*
X154400000Y-120964285D01*
X154447619Y-120926190D01*
X154542857Y-120888095D01*
X154685714Y-120888095D01*
X154780952Y-120926190D01*
X154828571Y-120964285D01*
X154876190Y-121040476D01*
X154876190Y-121345238D01*
X155447619Y-120735714D02*
X155447619Y-120126190D01*
X154685714Y-119592857D02*
X155352380Y-119592857D01*
X154304761Y-119783333D02*
X155019047Y-119973809D01*
X155019047Y-119478571D01*
X154352380Y-119250000D02*
X155352380Y-118716666D01*
X154352380Y-118716666D02*
X155352380Y-119250000D01*
X133294333Y-97572142D02*
X133246714Y-97619761D01*
X133103857Y-97667380D01*
X133008619Y-97667380D01*
X132865761Y-97619761D01*
X132770523Y-97524523D01*
X132722904Y-97429285D01*
X132675285Y-97238809D01*
X132675285Y-97095952D01*
X132722904Y-96905476D01*
X132770523Y-96810238D01*
X132865761Y-96715000D01*
X133008619Y-96667380D01*
X133103857Y-96667380D01*
X133246714Y-96715000D01*
X133294333Y-96762619D01*
X134246714Y-97667380D02*
X133675285Y-97667380D01*
X133961000Y-97667380D02*
X133961000Y-96667380D01*
X133865761Y-96810238D01*
X133770523Y-96905476D01*
X133675285Y-96953095D01*
X113133142Y-83478666D02*
X113180761Y-83526285D01*
X113228380Y-83669142D01*
X113228380Y-83764380D01*
X113180761Y-83907238D01*
X113085523Y-84002476D01*
X112990285Y-84050095D01*
X112799809Y-84097714D01*
X112656952Y-84097714D01*
X112466476Y-84050095D01*
X112371238Y-84002476D01*
X112276000Y-83907238D01*
X112228380Y-83764380D01*
X112228380Y-83669142D01*
X112276000Y-83526285D01*
X112323619Y-83478666D01*
X112561714Y-82621523D02*
X113228380Y-82621523D01*
X112180761Y-82859619D02*
X112895047Y-83097714D01*
X112895047Y-82478666D01*
X116833333Y-71303142D02*
X116785714Y-71350761D01*
X116642857Y-71398380D01*
X116547619Y-71398380D01*
X116404761Y-71350761D01*
X116309523Y-71255523D01*
X116261904Y-71160285D01*
X116214285Y-70969809D01*
X116214285Y-70826952D01*
X116261904Y-70636476D01*
X116309523Y-70541238D01*
X116404761Y-70446000D01*
X116547619Y-70398380D01*
X116642857Y-70398380D01*
X116785714Y-70446000D01*
X116833333Y-70493619D01*
X117738095Y-70398380D02*
X117261904Y-70398380D01*
X117214285Y-70874571D01*
X117261904Y-70826952D01*
X117357142Y-70779333D01*
X117595238Y-70779333D01*
X117690476Y-70826952D01*
X117738095Y-70874571D01*
X117785714Y-70969809D01*
X117785714Y-71207904D01*
X117738095Y-71303142D01*
X117690476Y-71350761D01*
X117595238Y-71398380D01*
X117357142Y-71398380D01*
X117261904Y-71350761D01*
X117214285Y-71303142D01*
X183583333Y-98007142D02*
X183535714Y-98054761D01*
X183392857Y-98102380D01*
X183297619Y-98102380D01*
X183154761Y-98054761D01*
X183059523Y-97959523D01*
X183011904Y-97864285D01*
X182964285Y-97673809D01*
X182964285Y-97530952D01*
X183011904Y-97340476D01*
X183059523Y-97245238D01*
X183154761Y-97150000D01*
X183297619Y-97102380D01*
X183392857Y-97102380D01*
X183535714Y-97150000D01*
X183583333Y-97197619D01*
X183964285Y-97197619D02*
X184011904Y-97150000D01*
X184107142Y-97102380D01*
X184345238Y-97102380D01*
X184440476Y-97150000D01*
X184488095Y-97197619D01*
X184535714Y-97292857D01*
X184535714Y-97388095D01*
X184488095Y-97530952D01*
X183916666Y-98102380D01*
X184535714Y-98102380D01*
M02*
