M48
; DRILL file {KiCad (5.1.5)-3} date 3/6/2020 2:14:38 PM
; FORMAT={-:-/ absolute / inch / decimal}
; #@! TF.CreationDate,2020-03-06T14:14:38-05:00
; #@! TF.GenerationSoftware,Kicad,Pcbnew,(5.1.5)-3
; #@! TF.FileFunction,Plated,1,4,PTH
FMAT,2
INCH
T1C0.0157
T2C0.0236
T3C0.0300
T4C0.0315
T5C0.0394
T6C0.0402
T7C0.0433
%
G90
G05
T1
X4.31Y-2.96
X4.35Y-2.2915
X5.2Y-3.0
X5.45Y-2.66
X5.59Y-2.62
X5.82Y-2.7015
X6.17Y-2.04
X6.48Y-1.9
T2
X6.9055Y-1.6457
X6.9055Y-1.7244
T3
X7.1539Y-3.3441
X7.1539Y-3.4441
X7.3077Y-3.3441
X7.3077Y-3.4441
X7.4615Y-3.3441
X7.4615Y-3.4441
T4
X5.19Y-2.47
X5.19Y-2.87
X6.6669Y-1.95
X7.0669Y-1.95
X4.498Y-2.126
X4.6949Y-2.126
X7.1358Y-3.9567
X7.3327Y-3.9567
X4.7638Y-1.6437
X4.7638Y-1.8406
X4.19Y-1.73
X4.19Y-2.13
X5.215Y-3.975
X5.2937Y-3.975
X5.8374Y-4.6508
X5.8374Y-4.7508
X5.8374Y-4.8508
X5.8374Y-4.9508
X5.8374Y-5.0508
X5.8374Y-5.1508
X6.3374Y-4.6508
X6.3374Y-4.7508
X6.3374Y-4.8508
X6.3374Y-4.9508
X6.3374Y-5.0508
X6.3374Y-5.1508
X4.46Y-1.7513
X4.46Y-1.83
T5
X3.86Y-1.93
X3.86Y-2.03
X3.96Y-1.93
X3.96Y-2.03
X5.0098Y-1.811
X5.2067Y-1.811
X7.37Y-4.56
X7.37Y-4.66
X7.37Y-4.76
X7.37Y-4.86
X7.37Y-4.96
X7.37Y-5.06
X7.37Y-5.16
X7.37Y-5.26
X7.47Y-4.56
X7.47Y-4.66
X7.47Y-4.76
X7.47Y-4.86
X7.47Y-4.96
X7.47Y-5.06
X7.47Y-5.16
X7.47Y-5.26
X3.86Y-2.52
X3.86Y-2.62
X3.86Y-2.72
X3.86Y-2.82
X3.86Y-2.92
X3.86Y-3.02
X3.86Y-3.12
X3.86Y-3.22
X3.96Y-2.52
X3.96Y-2.62
X3.96Y-2.72
X3.96Y-2.82
X3.96Y-2.92
X3.96Y-3.02
X3.96Y-3.12
X3.96Y-3.22
X5.29Y-4.75
X5.29Y-4.85
X4.3Y-3.9819
X4.4Y-3.9819
X4.5Y-3.9819
X4.6Y-3.9819
X4.7Y-3.9819
X4.8Y-3.9819
X4.9Y-3.9819
X6.095Y-3.98
X6.195Y-3.98
X6.295Y-3.98
X6.395Y-3.98
X6.495Y-3.98
X6.595Y-3.98
X5.86Y-1.69
X5.86Y-1.79
X5.96Y-1.69
X5.96Y-1.79
X6.06Y-1.69
X6.06Y-1.79
X6.16Y-1.69
X6.16Y-1.79
X6.26Y-1.69
X6.26Y-1.79
X6.36Y-1.69
X6.36Y-1.79
X6.46Y-1.69
X6.46Y-1.79
X6.56Y-1.69
X6.56Y-1.79
X3.86Y-2.21
X3.86Y-2.31
X3.96Y-2.21
X3.96Y-2.31
T6
X4.8827Y-2.235
X4.8827Y-3.2803
X4.9827Y-2.235
X4.9827Y-3.2803
X5.0827Y-2.235
X5.0827Y-3.2803
X5.1827Y-2.235
X5.1827Y-3.2803
X5.2827Y-2.235
X5.2827Y-3.2803
X5.3827Y-2.235
X5.3827Y-3.2803
X5.4827Y-2.235
X5.4827Y-3.2803
X5.5827Y-2.235
X5.5827Y-3.2803
X5.6827Y-2.235
X5.6827Y-3.2803
X5.7827Y-2.235
X5.7827Y-3.2803
X5.8827Y-2.235
X5.8827Y-3.2803
X5.9827Y-2.235
X5.9827Y-3.2803
X6.0827Y-2.235
X6.0827Y-3.2803
X6.1827Y-2.235
X6.1827Y-3.2803
X6.2827Y-2.235
X6.2827Y-3.2803
X6.3827Y-2.235
X6.3827Y-3.2803
X6.4827Y-2.235
X6.4827Y-3.2803
X6.5827Y-2.235
X6.5827Y-3.2803
X6.6827Y-2.235
X6.6827Y-3.2803
X6.7827Y-2.235
X6.7827Y-3.2803
T7
X7.2736Y-1.8701
X7.2736Y-2.0472
X7.5295Y-1.8701
X7.5295Y-2.0472
T0
M30
