G04 #@! TF.GenerationSoftware,KiCad,Pcbnew,(5.1.5)-3*
G04 #@! TF.CreationDate,2020-03-06T14:14:40-05:00*
G04 #@! TF.ProjectId,CombinedPnl_pcb-r1,436f6d62-696e-4656-9450-6e6c5f706362,rev?*
G04 #@! TF.SameCoordinates,Original*
G04 #@! TF.FileFunction,Copper,L4,Bot*
G04 #@! TF.FilePolarity,Positive*
%FSLAX46Y46*%
G04 Gerber Fmt 4.6, Leading zero omitted, Abs format (unit mm)*
G04 Created by KiCad (PCBNEW (5.1.5)-3) date 2020-03-06 14:14:40*
%MOMM*%
%LPD*%
G04 APERTURE LIST*
%ADD10C,1.524000*%
%ADD11C,1.700000*%
%ADD12O,1.500000X2.000000*%
%ADD13C,2.000000*%
%ADD14C,1.600000*%
%ADD15O,1.600000X1.600000*%
%ADD16O,1.700000X1.700000*%
%ADD17R,1.700000X1.700000*%
%ADD18R,2.000000X2.000000*%
%ADD19C,1.200000*%
%ADD20R,1.200000X1.200000*%
%ADD21R,1.600000X1.600000*%
%ADD22O,2.000000X1.200000*%
%ADD23C,0.800000*%
%ADD24C,0.250000*%
%ADD25C,0.500000*%
G04 APERTURE END LIST*
D10*
X181710000Y-87480000D03*
X185616000Y-87480000D03*
X189522000Y-87480000D03*
X181710000Y-84940000D03*
X189522000Y-84940000D03*
X185616000Y-84940000D03*
D11*
X179520000Y-86210000D03*
X191712000Y-86210000D03*
D12*
X124020000Y-56770000D03*
X124020000Y-83320000D03*
X126560000Y-56770000D03*
D13*
X126560000Y-83320000D03*
D12*
X129100000Y-56770000D03*
X129100000Y-83320000D03*
X131640000Y-56770000D03*
X131640000Y-83320000D03*
X134180000Y-56770000D03*
X134180000Y-83320000D03*
X136720000Y-56770000D03*
X136720000Y-83320000D03*
X139260000Y-56770000D03*
X139260000Y-83320000D03*
X141800000Y-56770000D03*
X141800000Y-83320000D03*
X144340000Y-56770000D03*
X144340000Y-83320000D03*
X146880000Y-56770000D03*
X146880000Y-83320000D03*
X149420000Y-56770000D03*
X149420000Y-83320000D03*
X151960000Y-56770000D03*
X151960000Y-83320000D03*
X154500000Y-56770000D03*
X154500000Y-83320000D03*
X157040000Y-56770000D03*
X157040000Y-83320000D03*
X159580000Y-56770000D03*
D13*
X159580000Y-83320000D03*
D12*
X162120000Y-56770000D03*
X162120000Y-83320000D03*
X164660000Y-56770000D03*
X164660000Y-83320000D03*
X167200000Y-56770000D03*
X167200000Y-83320000D03*
X169740000Y-56770000D03*
X169740000Y-83320000D03*
X172280000Y-56770000D03*
D13*
X172280000Y-83320000D03*
X191250000Y-52000000D03*
X191250000Y-47500000D03*
X184750000Y-52000000D03*
X184750000Y-47500000D03*
D14*
X106426000Y-54102000D03*
D15*
X106426000Y-43942000D03*
D16*
X100584000Y-51562000D03*
X98044000Y-51562000D03*
X100584000Y-49022000D03*
D17*
X98044000Y-49022000D03*
D13*
X132250000Y-46000000D03*
D18*
X127250000Y-46000000D03*
D17*
X166624000Y-42926000D03*
D16*
X166624000Y-45466000D03*
X164084000Y-42926000D03*
X164084000Y-45466000D03*
X161544000Y-42926000D03*
X161544000Y-45466000D03*
X159004000Y-42926000D03*
X159004000Y-45466000D03*
X156464000Y-42926000D03*
X156464000Y-45466000D03*
X153924000Y-42926000D03*
X153924000Y-45466000D03*
X151384000Y-42926000D03*
X151384000Y-45466000D03*
X148844000Y-42926000D03*
X148844000Y-45466000D03*
X98044000Y-64008000D03*
X100584000Y-64008000D03*
X98044000Y-66548000D03*
X100584000Y-66548000D03*
X98044000Y-69088000D03*
X100584000Y-69088000D03*
X98044000Y-71628000D03*
X100584000Y-71628000D03*
X98044000Y-74168000D03*
X100584000Y-74168000D03*
X98044000Y-76708000D03*
X100584000Y-76708000D03*
X98044000Y-79248000D03*
X100584000Y-79248000D03*
X98044000Y-81788000D03*
D17*
X100584000Y-81788000D03*
X98044000Y-56134000D03*
D16*
X100584000Y-56134000D03*
X98044000Y-58674000D03*
X100584000Y-58674000D03*
D15*
X169340000Y-49530000D03*
D14*
X179500000Y-49530000D03*
D19*
X175400000Y-41800000D03*
D20*
X175400000Y-43800000D03*
D15*
X131826000Y-62738000D03*
D14*
X131826000Y-72898000D03*
X113284000Y-44482000D03*
D21*
X113284000Y-46482000D03*
D16*
X167513000Y-101092000D03*
X164973000Y-101092000D03*
X162433000Y-101092000D03*
X159893000Y-101092000D03*
X157353000Y-101092000D03*
D17*
X154813000Y-101092000D03*
D16*
X134366000Y-123190000D03*
D17*
X134366000Y-120650000D03*
D11*
X189738000Y-133604000D03*
D17*
X187198000Y-133604000D03*
D16*
X189738000Y-131064000D03*
X187198000Y-131064000D03*
X189738000Y-128524000D03*
X187198000Y-128524000D03*
X189738000Y-125984000D03*
X187198000Y-125984000D03*
X189738000Y-123444000D03*
X187198000Y-123444000D03*
X189738000Y-120904000D03*
X187198000Y-120904000D03*
X189738000Y-118364000D03*
X187198000Y-118364000D03*
X189738000Y-115824000D03*
X187198000Y-115824000D03*
X124460000Y-101139001D03*
X121920000Y-101139001D03*
X119380000Y-101139001D03*
X116840000Y-101139001D03*
X114300000Y-101139001D03*
X111760000Y-101139001D03*
D17*
X109220000Y-101139001D03*
D22*
X148270000Y-130830000D03*
X160970000Y-130830000D03*
X148270000Y-128290000D03*
X160970000Y-128290000D03*
X148270000Y-125750000D03*
X160970000Y-125750000D03*
X148270000Y-123210000D03*
X160970000Y-123210000D03*
X148270000Y-120670000D03*
X160970000Y-120670000D03*
X148270000Y-118130000D03*
X160970000Y-118130000D03*
D14*
X134461000Y-100965000D03*
D21*
X132461000Y-100965000D03*
D14*
X121000000Y-41750000D03*
X121000000Y-46750000D03*
X114250000Y-54000000D03*
X119250000Y-54000000D03*
X181250000Y-100500000D03*
X186250000Y-100500000D03*
D23*
X141986000Y-66548000D03*
X147827996Y-68616990D03*
X138430000Y-67564012D03*
X164592000Y-48260000D03*
X132080000Y-76200000D03*
X110490000Y-58202990D03*
X109474000Y-75184000D03*
X156718000Y-51816000D03*
D24*
X163088000Y-49530000D02*
X156972000Y-55646000D01*
X156972000Y-55646000D02*
X156972000Y-56896000D01*
X163088000Y-49530000D02*
X169340000Y-49530000D01*
X175070000Y-43800000D02*
X175400000Y-43800000D01*
X169340000Y-49530000D02*
X175070000Y-43800000D01*
D25*
X148590000Y-118110000D02*
X148336000Y-118110000D01*
D24*
X136124000Y-61214000D02*
X139192000Y-58146000D01*
X133604000Y-61214000D02*
X136124000Y-61214000D01*
X121920000Y-64008000D02*
X124714000Y-61214000D01*
X100584000Y-64008000D02*
X121920000Y-64008000D01*
X124714000Y-61214000D02*
X133604000Y-61214000D01*
X139192000Y-58146000D02*
X139192000Y-56896000D01*
X99314000Y-65278000D02*
X99314000Y-63246000D01*
X98044000Y-66548000D02*
X99314000Y-65278000D01*
X129774000Y-59944000D02*
X131572000Y-58146000D01*
X131572000Y-58146000D02*
X131572000Y-56896000D01*
X99314000Y-63246000D02*
X102616000Y-59944000D01*
X102616000Y-59944000D02*
X129774000Y-59944000D01*
X100584000Y-66548000D02*
X141986000Y-66548000D01*
X103595010Y-68616990D02*
X147262311Y-68616990D01*
X147262311Y-68616990D02*
X147827996Y-68616990D01*
X101854000Y-70358000D02*
X103595010Y-68616990D01*
X98044000Y-69088000D02*
X99314000Y-70358000D01*
X99314000Y-70358000D02*
X101854000Y-70358000D01*
X137864315Y-67564012D02*
X138430000Y-67564012D01*
X100584000Y-69088000D02*
X102107988Y-67564012D01*
X102107988Y-67564012D02*
X137864315Y-67564012D01*
X104648000Y-70612000D02*
X133096000Y-70612000D01*
X133096000Y-70612000D02*
X141732000Y-79502000D01*
X102362000Y-72898000D02*
X104648000Y-70612000D01*
X99314000Y-72898000D02*
X102362000Y-72898000D01*
X98044000Y-71628000D02*
X99314000Y-72898000D01*
X141800000Y-79570000D02*
X141800000Y-83320000D01*
X141732000Y-79502000D02*
X141800000Y-79570000D01*
X162120000Y-80586000D02*
X162120000Y-83320000D01*
X151130000Y-69596000D02*
X162120000Y-80586000D01*
X103818081Y-69596000D02*
X151130000Y-69596000D01*
X100584000Y-71628000D02*
X101786081Y-71628000D01*
X101786081Y-71628000D02*
X103818081Y-69596000D01*
X159853999Y-43775999D02*
X159004000Y-42926000D01*
X162814000Y-46482000D02*
X162814000Y-44958000D01*
X162814000Y-44958000D02*
X162052000Y-44196000D01*
X164592000Y-48260000D02*
X162814000Y-46482000D01*
X162052000Y-44196000D02*
X160274000Y-44196000D01*
X160274000Y-44196000D02*
X159853999Y-43775999D01*
X106426000Y-43942000D02*
X110490000Y-48006000D01*
X110490000Y-48006000D02*
X110490000Y-58202990D01*
X134180000Y-78300000D02*
X134180000Y-83320000D01*
X132080000Y-76200000D02*
X134180000Y-78300000D01*
X131640000Y-82070000D02*
X131640000Y-83320000D01*
X124754000Y-75184000D02*
X131640000Y-82070000D01*
X109474000Y-75184000D02*
X124754000Y-75184000D01*
X149880000Y-50038000D02*
X158750000Y-50038000D01*
X144272000Y-56896000D02*
X144272000Y-55646000D01*
X158750000Y-50038000D02*
X161544000Y-47244000D01*
X144272000Y-55646000D02*
X149880000Y-50038000D01*
X161544000Y-47244000D02*
X161544000Y-45466000D01*
X129032000Y-55646000D02*
X131846000Y-52832000D01*
X156464000Y-41148000D02*
X154686000Y-41148000D01*
X164084000Y-42926000D02*
X162306000Y-41148000D01*
X156464000Y-42926000D02*
X154686000Y-41148000D01*
X129032000Y-56896000D02*
X129032000Y-55646000D01*
X158242000Y-41148000D02*
X156464000Y-41148000D01*
X131846000Y-52832000D02*
X135890000Y-52832000D01*
X147683787Y-41148000D02*
X154686000Y-41148000D01*
X135890000Y-52832000D02*
X147683787Y-41148000D01*
X162306000Y-41148000D02*
X158242000Y-41148000D01*
X146812000Y-55646000D02*
X146812000Y-56896000D01*
X156318001Y-52215999D02*
X150242001Y-52215999D01*
X150242001Y-52215999D02*
X146812000Y-55646000D01*
X156718000Y-51816000D02*
X156318001Y-52215999D01*
X132957370Y-72898000D02*
X131826000Y-72898000D01*
X136652000Y-76708000D02*
X132957370Y-72898000D01*
X136720000Y-76776000D02*
X136720000Y-83320000D01*
X136652000Y-76708000D02*
X136720000Y-76776000D01*
X161564000Y-53594000D02*
X183156000Y-53594000D01*
X159512000Y-56896000D02*
X159512000Y-55646000D01*
X183156000Y-53594000D02*
X184750000Y-52000000D01*
X159512000Y-55646000D02*
X161564000Y-53594000D01*
X180134000Y-119634000D02*
X162433000Y-101933000D01*
X189738000Y-118364000D02*
X188468000Y-119634000D01*
X162433000Y-101933000D02*
X162433000Y-101092000D01*
X188468000Y-119634000D02*
X180134000Y-119634000D01*
X161544000Y-97790000D02*
X161544000Y-97790000D01*
X125269001Y-97790000D02*
X121920000Y-101139001D01*
X187198000Y-118364000D02*
X180864000Y-118364000D01*
X170250000Y-107750000D02*
X170250000Y-99290000D01*
X180864000Y-118364000D02*
X170250000Y-107750000D01*
X170250000Y-99290000D02*
X168750000Y-97790000D01*
X168750000Y-97790000D02*
X125269001Y-97790000D01*
M02*
