G04 #@! TF.GenerationSoftware,KiCad,Pcbnew,(5.1.5)-3*
G04 #@! TF.CreationDate,2020-01-27T11:44:27-05:00*
G04 #@! TF.ProjectId,Main Board,4d61696e-2042-46f6-9172-642e6b696361,rev?*
G04 #@! TF.SameCoordinates,Original*
G04 #@! TF.FileFunction,Copper,L1,Top*
G04 #@! TF.FilePolarity,Positive*
%FSLAX46Y46*%
G04 Gerber Fmt 4.6, Leading zero omitted, Abs format (unit mm)*
G04 Created by KiCad (PCBNEW (5.1.5)-3) date 2020-01-27 11:44:27*
%MOMM*%
%LPD*%
G04 APERTURE LIST*
%ADD10C,2.000000*%
%ADD11O,1.500000X2.000000*%
%ADD12C,1.524000*%
%ADD13O,1.700000X1.700000*%
%ADD14R,1.700000X1.700000*%
%ADD15R,1.200000X1.200000*%
%ADD16C,1.200000*%
%ADD17R,2.000000X2.000000*%
%ADD18R,1.600000X1.600000*%
%ADD19C,1.600000*%
%ADD20O,1.600000X1.600000*%
%ADD21C,0.800000*%
%ADD22C,0.250000*%
%ADD23C,0.500000*%
G04 APERTURE END LIST*
D10*
X154178000Y-86868000D03*
D11*
X154178000Y-58928000D03*
X151638000Y-86868000D03*
X151638000Y-58928000D03*
X149098000Y-86868000D03*
X149098000Y-58928000D03*
X146558000Y-86868000D03*
X146558000Y-58928000D03*
X144018000Y-86868000D03*
X144018000Y-58928000D03*
D10*
X141478000Y-86868000D03*
D11*
X141478000Y-58928000D03*
X138938000Y-86868000D03*
X138938000Y-58928000D03*
X136398000Y-86868000D03*
X136398000Y-58928000D03*
X133858000Y-86868000D03*
X133858000Y-58928000D03*
X131318000Y-86868000D03*
X131318000Y-58928000D03*
X128778000Y-86868000D03*
X128778000Y-58928000D03*
X126238000Y-86868000D03*
X126238000Y-58928000D03*
X123698000Y-86868000D03*
X123698000Y-58928000D03*
X121158000Y-86868000D03*
X121158000Y-58928000D03*
X118618000Y-86868000D03*
X118618000Y-58928000D03*
X116078000Y-86868000D03*
X116078000Y-58928000D03*
X113538000Y-86868000D03*
X113538000Y-58928000D03*
X110998000Y-86868000D03*
X110998000Y-58928000D03*
D10*
X108458000Y-86868000D03*
D11*
X108458000Y-58928000D03*
X105918000Y-86868000D03*
X105918000Y-58928000D03*
D12*
X164338000Y-89916000D03*
X167894000Y-89916000D03*
X171450000Y-89916000D03*
X164338000Y-87376000D03*
X171450000Y-87376000D03*
X167894000Y-87376000D03*
X161798000Y-88646000D03*
X173990000Y-88646000D03*
D13*
X130810000Y-47498000D03*
X130810000Y-44958000D03*
X133350000Y-47498000D03*
X133350000Y-44958000D03*
X135890000Y-47498000D03*
X135890000Y-44958000D03*
X138430000Y-47498000D03*
X138430000Y-44958000D03*
X140970000Y-47498000D03*
X140970000Y-44958000D03*
X143510000Y-47498000D03*
X143510000Y-44958000D03*
X146050000Y-47498000D03*
X146050000Y-44958000D03*
X148590000Y-47498000D03*
D14*
X148590000Y-44958000D03*
X82550000Y-83820000D03*
D13*
X80010000Y-83820000D03*
X82550000Y-81280000D03*
X80010000Y-81280000D03*
X82550000Y-78740000D03*
X80010000Y-78740000D03*
X82550000Y-76200000D03*
X80010000Y-76200000D03*
X82550000Y-73660000D03*
X80010000Y-73660000D03*
X82550000Y-71120000D03*
X80010000Y-71120000D03*
X82550000Y-68580000D03*
X80010000Y-68580000D03*
X82550000Y-66040000D03*
X80010000Y-66040000D03*
D15*
X157480000Y-44704000D03*
D16*
X155480000Y-44704000D03*
D17*
X106680000Y-48768000D03*
D10*
X111680000Y-48768000D03*
D18*
X95250000Y-48514000D03*
D19*
X95250000Y-46514000D03*
D14*
X80010000Y-51054000D03*
D13*
X82550000Y-51054000D03*
X80010000Y-53594000D03*
X82550000Y-53594000D03*
X82550000Y-60706000D03*
X80010000Y-60706000D03*
X82550000Y-58166000D03*
D14*
X80010000Y-58166000D03*
D19*
X163322000Y-51562000D03*
D20*
X153162000Y-51562000D03*
X88392000Y-45974000D03*
D19*
X88392000Y-56134000D03*
X113792000Y-74930000D03*
D20*
X113792000Y-64770000D03*
D10*
X167132000Y-44014000D03*
X167132000Y-48514000D03*
X173632000Y-44014000D03*
X173632000Y-48514000D03*
D21*
X120396000Y-69596012D03*
X129793996Y-70648990D03*
X123952000Y-68580000D03*
X114046000Y-78232000D03*
X92456000Y-60234990D03*
X150876000Y-48768000D03*
X144780000Y-42418000D03*
X91440000Y-77216000D03*
X138684000Y-53848000D03*
D22*
X149690000Y-44958000D02*
X153246000Y-48514000D01*
X148590000Y-44958000D02*
X149690000Y-44958000D01*
X160274000Y-48514000D02*
X163322000Y-51562000D01*
X153246000Y-48514000D02*
X160274000Y-48514000D01*
D23*
X130810000Y-44958000D02*
X133350000Y-47498000D01*
D22*
X120396000Y-76708000D02*
X120396000Y-69596012D01*
X126238000Y-82550000D02*
X126238000Y-86868000D01*
X120396000Y-76708000D02*
X126238000Y-82550000D01*
X129793996Y-81025996D02*
X129793996Y-70648990D01*
X131318000Y-82550000D02*
X131318000Y-86868000D01*
X129793996Y-81025996D02*
X131318000Y-82550000D01*
X123952000Y-76474000D02*
X123952000Y-69145685D01*
X123952000Y-69145685D02*
X123952000Y-68580000D01*
X128778000Y-86868000D02*
X128778000Y-81534000D01*
X128778000Y-81534000D02*
X123952000Y-76474000D01*
X80010000Y-49954000D02*
X83990000Y-45974000D01*
X87260630Y-45974000D02*
X88392000Y-45974000D01*
X83990000Y-45974000D02*
X87260630Y-45974000D01*
X80010000Y-51054000D02*
X80010000Y-49954000D01*
X114046000Y-78232000D02*
X110453010Y-78232000D01*
X92855999Y-60634989D02*
X92456000Y-60234990D01*
X110453010Y-78232000D02*
X92855999Y-60634989D01*
X144214315Y-42418000D02*
X144780000Y-42418000D01*
X82550000Y-53594000D02*
X83566000Y-53594000D01*
X94742000Y-42418000D02*
X124206000Y-42418000D01*
X83566000Y-53594000D02*
X94742000Y-42418000D01*
X146558000Y-53086000D02*
X146558000Y-58928000D01*
X150876000Y-48768000D02*
X146558000Y-53086000D01*
X141819999Y-44108001D02*
X143510000Y-42418000D01*
X140970000Y-44958000D02*
X141819999Y-44108001D01*
X140970000Y-42418000D02*
X143510000Y-42418000D01*
X143510000Y-42418000D02*
X144214315Y-42418000D01*
X140120001Y-44108001D02*
X138430000Y-42418000D01*
X140970000Y-44958000D02*
X140120001Y-44108001D01*
X124206000Y-42418000D02*
X138430000Y-42418000D01*
X138430000Y-42418000D02*
X140970000Y-42418000D01*
X91440000Y-67056000D02*
X82550000Y-58166000D01*
X91440000Y-77216000D02*
X91440000Y-67056000D01*
X113792000Y-70358000D02*
X113792000Y-74930000D01*
X124968000Y-53340000D02*
X124968000Y-60198000D01*
X130810000Y-47498000D02*
X124968000Y-53340000D01*
X124968000Y-60198000D02*
X123444000Y-61722000D01*
X123444000Y-61722000D02*
X122428000Y-61722000D01*
X122428000Y-61722000D02*
X113792000Y-70358000D01*
X133858000Y-53086000D02*
X133858000Y-58928000D01*
X135890000Y-47498000D02*
X135890000Y-51054000D01*
X135890000Y-51054000D02*
X133858000Y-53086000D01*
X110998000Y-85618000D02*
X110998000Y-86868000D01*
X115316000Y-70358000D02*
X115316000Y-81300000D01*
X123952000Y-65532000D02*
X120142000Y-65532000D01*
X134620000Y-46228000D02*
X134620000Y-50803853D01*
X120142000Y-65532000D02*
X115316000Y-70358000D01*
X135890000Y-44958000D02*
X134620000Y-46228000D01*
X134620000Y-50803853D02*
X127508000Y-57915853D01*
X127508000Y-57915853D02*
X127508000Y-61976000D01*
X115316000Y-81300000D02*
X110998000Y-85618000D01*
X127508000Y-61976000D02*
X123952000Y-65532000D01*
X110998000Y-88118000D02*
X110998000Y-86868000D01*
X166624000Y-88646000D02*
X163576000Y-88646000D01*
X167894000Y-87376000D02*
X166624000Y-88646000D01*
X163576000Y-88646000D02*
X162306000Y-89916000D01*
X112796000Y-89916000D02*
X110998000Y-88118000D01*
X162306000Y-89916000D02*
X112796000Y-89916000D01*
X138430000Y-47498000D02*
X138430000Y-49784000D01*
X136398000Y-51816000D02*
X136398000Y-58928000D01*
X138430000Y-49784000D02*
X136398000Y-51816000D01*
X140970000Y-51562000D02*
X140208000Y-52324000D01*
X140970000Y-47498000D02*
X140970000Y-51562000D01*
X140208000Y-52324000D02*
X138684000Y-53848000D01*
X147320000Y-46228000D02*
X147740001Y-46648001D01*
X147740001Y-46648001D02*
X148590000Y-47498000D01*
X143510000Y-47498000D02*
X144780000Y-46228000D01*
X144780000Y-46228000D02*
X147320000Y-46228000D01*
X146050000Y-47498000D02*
X146050000Y-51308000D01*
X144018000Y-53340000D02*
X144018000Y-58928000D01*
X146050000Y-51308000D02*
X144018000Y-53340000D01*
X168546213Y-48514000D02*
X173632000Y-48514000D01*
X167132000Y-48514000D02*
X168546213Y-48514000D01*
M02*
