M48
; DRILL file {KiCad (5.1.5)-3} date 1/27/2020 11:44:30 AM
; FORMAT={-:-/ absolute / inch / decimal}
; #@! TF.CreationDate,2020-01-27T11:44:30-05:00
; #@! TF.GenerationSoftware,Kicad,Pcbnew,(5.1.5)-3
; #@! TF.FileFunction,Plated,1,4,PTH
FMAT,2
INCH
T1C0.0157
T2C0.0236
T3C0.0300
T4C0.0315
T5C0.0394
T6C0.0402
T7C0.0433
%
G90
G05
T1
X3.6Y-3.04
X3.64Y-2.3715
X4.49Y-3.08
X4.74Y-2.74
X4.88Y-2.7
X5.11Y-2.7815
X5.46Y-2.12
X5.7Y-1.67
X5.94Y-1.92
T2
X6.1213Y-1.76
X6.2Y-1.76
T3
X6.47Y-3.44
X6.47Y-3.54
X6.61Y-3.44
X6.61Y-3.54
X6.75Y-3.44
X6.75Y-3.54
T4
X4.48Y-2.55
X4.48Y-2.95
X3.48Y-1.81
X3.48Y-2.21
X6.03Y-2.03
X6.43Y-2.03
X3.75Y-1.8313
X3.75Y-1.91
T5
X3.15Y-2.29
X3.15Y-2.39
X3.25Y-2.29
X3.25Y-2.39
X3.15Y-2.6
X3.15Y-2.7
X3.15Y-2.8
X3.15Y-2.9
X3.15Y-3.0
X3.15Y-3.1
X3.15Y-3.2
X3.15Y-3.3
X3.25Y-2.6
X3.25Y-2.7
X3.25Y-2.8
X3.25Y-2.9
X3.25Y-3.0
X3.25Y-3.1
X3.25Y-3.2
X3.25Y-3.3
X4.2Y-1.92
X4.3969Y-1.92
X3.15Y-2.01
X3.15Y-2.11
X3.25Y-2.01
X3.25Y-2.11
X5.15Y-1.77
X5.15Y-1.87
X5.25Y-1.77
X5.25Y-1.87
X5.35Y-1.77
X5.35Y-1.87
X5.45Y-1.77
X5.45Y-1.87
X5.55Y-1.77
X5.55Y-1.87
X5.65Y-1.77
X5.65Y-1.87
X5.75Y-1.77
X5.75Y-1.87
X5.85Y-1.77
X5.85Y-1.87
T6
X4.17Y-2.32
X4.17Y-3.42
X4.27Y-2.32
X4.27Y-3.42
X4.37Y-2.32
X4.37Y-3.42
X4.47Y-2.32
X4.47Y-3.42
X4.57Y-2.32
X4.57Y-3.42
X4.67Y-2.32
X4.67Y-3.42
X4.77Y-2.32
X4.77Y-3.42
X4.87Y-2.32
X4.87Y-3.42
X4.97Y-2.32
X4.97Y-3.42
X5.07Y-2.32
X5.07Y-3.42
X5.17Y-2.32
X5.17Y-3.42
X5.27Y-2.32
X5.27Y-3.42
X5.37Y-2.32
X5.37Y-3.42
X5.47Y-2.32
X5.47Y-3.42
X5.57Y-2.32
X5.57Y-3.42
X5.67Y-2.32
X5.67Y-3.42
X5.77Y-2.32
X5.77Y-3.42
X5.87Y-2.32
X5.87Y-3.42
X5.97Y-2.32
X5.97Y-3.42
X6.07Y-2.32
X6.07Y-3.42
T7
X6.58Y-1.7328
X6.58Y-1.91
X6.8359Y-1.7328
X6.8359Y-1.91
T0
M30
