G04 #@! TF.GenerationSoftware,KiCad,Pcbnew,(5.1.5)-3*
G04 #@! TF.CreationDate,2020-01-27T11:44:28-05:00*
G04 #@! TF.ProjectId,Main Board,4d61696e-2042-46f6-9172-642e6b696361,rev?*
G04 #@! TF.SameCoordinates,Original*
G04 #@! TF.FileFunction,Copper,L3,Inr*
G04 #@! TF.FilePolarity,Positive*
%FSLAX46Y46*%
G04 Gerber Fmt 4.6, Leading zero omitted, Abs format (unit mm)*
G04 Created by KiCad (PCBNEW (5.1.5)-3) date 2020-01-27 11:44:28*
%MOMM*%
%LPD*%
G04 APERTURE LIST*
%ADD10C,2.000000*%
%ADD11O,1.500000X2.000000*%
%ADD12C,1.524000*%
%ADD13O,1.700000X1.700000*%
%ADD14R,1.700000X1.700000*%
%ADD15R,1.200000X1.200000*%
%ADD16C,1.200000*%
%ADD17R,2.000000X2.000000*%
%ADD18R,1.600000X1.600000*%
%ADD19C,1.600000*%
%ADD20O,1.600000X1.600000*%
%ADD21C,0.800000*%
%ADD22C,0.200000*%
G04 APERTURE END LIST*
D10*
X154178000Y-86868000D03*
D11*
X154178000Y-58928000D03*
X151638000Y-86868000D03*
X151638000Y-58928000D03*
X149098000Y-86868000D03*
X149098000Y-58928000D03*
X146558000Y-86868000D03*
X146558000Y-58928000D03*
X144018000Y-86868000D03*
X144018000Y-58928000D03*
D10*
X141478000Y-86868000D03*
D11*
X141478000Y-58928000D03*
X138938000Y-86868000D03*
X138938000Y-58928000D03*
X136398000Y-86868000D03*
X136398000Y-58928000D03*
X133858000Y-86868000D03*
X133858000Y-58928000D03*
X131318000Y-86868000D03*
X131318000Y-58928000D03*
X128778000Y-86868000D03*
X128778000Y-58928000D03*
X126238000Y-86868000D03*
X126238000Y-58928000D03*
X123698000Y-86868000D03*
X123698000Y-58928000D03*
X121158000Y-86868000D03*
X121158000Y-58928000D03*
X118618000Y-86868000D03*
X118618000Y-58928000D03*
X116078000Y-86868000D03*
X116078000Y-58928000D03*
X113538000Y-86868000D03*
X113538000Y-58928000D03*
X110998000Y-86868000D03*
X110998000Y-58928000D03*
D10*
X108458000Y-86868000D03*
D11*
X108458000Y-58928000D03*
X105918000Y-86868000D03*
X105918000Y-58928000D03*
D12*
X164338000Y-89916000D03*
X167894000Y-89916000D03*
X171450000Y-89916000D03*
X164338000Y-87376000D03*
X171450000Y-87376000D03*
X167894000Y-87376000D03*
X161798000Y-88646000D03*
X173990000Y-88646000D03*
D13*
X130810000Y-47498000D03*
X130810000Y-44958000D03*
X133350000Y-47498000D03*
X133350000Y-44958000D03*
X135890000Y-47498000D03*
X135890000Y-44958000D03*
X138430000Y-47498000D03*
X138430000Y-44958000D03*
X140970000Y-47498000D03*
X140970000Y-44958000D03*
X143510000Y-47498000D03*
X143510000Y-44958000D03*
X146050000Y-47498000D03*
X146050000Y-44958000D03*
X148590000Y-47498000D03*
D14*
X148590000Y-44958000D03*
X82550000Y-83820000D03*
D13*
X80010000Y-83820000D03*
X82550000Y-81280000D03*
X80010000Y-81280000D03*
X82550000Y-78740000D03*
X80010000Y-78740000D03*
X82550000Y-76200000D03*
X80010000Y-76200000D03*
X82550000Y-73660000D03*
X80010000Y-73660000D03*
X82550000Y-71120000D03*
X80010000Y-71120000D03*
X82550000Y-68580000D03*
X80010000Y-68580000D03*
X82550000Y-66040000D03*
X80010000Y-66040000D03*
D15*
X157480000Y-44704000D03*
D16*
X155480000Y-44704000D03*
D17*
X106680000Y-48768000D03*
D10*
X111680000Y-48768000D03*
D18*
X95250000Y-48514000D03*
D19*
X95250000Y-46514000D03*
D14*
X80010000Y-51054000D03*
D13*
X82550000Y-51054000D03*
X80010000Y-53594000D03*
X82550000Y-53594000D03*
X82550000Y-60706000D03*
X80010000Y-60706000D03*
X82550000Y-58166000D03*
D14*
X80010000Y-58166000D03*
D19*
X163322000Y-51562000D03*
D20*
X153162000Y-51562000D03*
X88392000Y-45974000D03*
D19*
X88392000Y-56134000D03*
X113792000Y-74930000D03*
D20*
X113792000Y-64770000D03*
D10*
X167132000Y-44014000D03*
X167132000Y-48514000D03*
X173632000Y-44014000D03*
X173632000Y-48514000D03*
D21*
X120396000Y-69596012D03*
X129793996Y-70648990D03*
X123952000Y-68580000D03*
X114046000Y-78232000D03*
X92456000Y-60234990D03*
X150876000Y-48768000D03*
X144780000Y-42418000D03*
X91440000Y-77216000D03*
X138684000Y-53848000D03*
D22*
G36*
X177904001Y-90782000D02*
G01*
X172519043Y-90782000D01*
X172664078Y-90564938D01*
X172767352Y-90315614D01*
X172820000Y-90050933D01*
X172820000Y-89781067D01*
X172767352Y-89516386D01*
X172664078Y-89267062D01*
X172514149Y-89042676D01*
X172323324Y-88851851D01*
X172098938Y-88701922D01*
X171849614Y-88598648D01*
X171584933Y-88546000D01*
X171315067Y-88546000D01*
X171050386Y-88598648D01*
X170801062Y-88701922D01*
X170576676Y-88851851D01*
X170385851Y-89042676D01*
X170235922Y-89267062D01*
X170132648Y-89516386D01*
X170080000Y-89781067D01*
X170080000Y-90050933D01*
X170132648Y-90315614D01*
X170235922Y-90564938D01*
X170380957Y-90782000D01*
X168963043Y-90782000D01*
X169108078Y-90564938D01*
X169211352Y-90315614D01*
X169264000Y-90050933D01*
X169264000Y-89781067D01*
X169211352Y-89516386D01*
X169108078Y-89267062D01*
X168958149Y-89042676D01*
X168767324Y-88851851D01*
X168542938Y-88701922D01*
X168407931Y-88646000D01*
X168542938Y-88590078D01*
X168767324Y-88440149D01*
X168958149Y-88249324D01*
X168971394Y-88229501D01*
X170808632Y-88229501D01*
X170890728Y-88400967D01*
X171101435Y-88490381D01*
X171325538Y-88536970D01*
X171554423Y-88538944D01*
X171701171Y-88511067D01*
X172620000Y-88511067D01*
X172620000Y-88780933D01*
X172672648Y-89045614D01*
X172775922Y-89294938D01*
X172925851Y-89519324D01*
X173116676Y-89710149D01*
X173341062Y-89860078D01*
X173590386Y-89963352D01*
X173855067Y-90016000D01*
X174124933Y-90016000D01*
X174389614Y-89963352D01*
X174638938Y-89860078D01*
X174863324Y-89710149D01*
X175054149Y-89519324D01*
X175204078Y-89294938D01*
X175307352Y-89045614D01*
X175360000Y-88780933D01*
X175360000Y-88511067D01*
X175307352Y-88246386D01*
X175204078Y-87997062D01*
X175054149Y-87772676D01*
X174863324Y-87581851D01*
X174638938Y-87431922D01*
X174389614Y-87328648D01*
X174124933Y-87276000D01*
X173855067Y-87276000D01*
X173590386Y-87328648D01*
X173341062Y-87431922D01*
X173116676Y-87581851D01*
X172925851Y-87772676D01*
X172775922Y-87997062D01*
X172672648Y-88246386D01*
X172620000Y-88511067D01*
X171701171Y-88511067D01*
X171779296Y-88496226D01*
X171991514Y-88410459D01*
X172009272Y-88400967D01*
X172091368Y-88229501D01*
X171450000Y-87588132D01*
X170808632Y-88229501D01*
X168971394Y-88229501D01*
X169108078Y-88024938D01*
X169211352Y-87775614D01*
X169264000Y-87510933D01*
X169264000Y-87480423D01*
X170287056Y-87480423D01*
X170329774Y-87705296D01*
X170415541Y-87917514D01*
X170425033Y-87935272D01*
X170596499Y-88017368D01*
X171237868Y-87376000D01*
X171662132Y-87376000D01*
X172303501Y-88017368D01*
X172474967Y-87935272D01*
X172564381Y-87724565D01*
X172610970Y-87500462D01*
X172612944Y-87271577D01*
X172570226Y-87046704D01*
X172484459Y-86834486D01*
X172474967Y-86816728D01*
X172303501Y-86734632D01*
X171662132Y-87376000D01*
X171237868Y-87376000D01*
X170596499Y-86734632D01*
X170425033Y-86816728D01*
X170335619Y-87027435D01*
X170289030Y-87251538D01*
X170287056Y-87480423D01*
X169264000Y-87480423D01*
X169264000Y-87241067D01*
X169211352Y-86976386D01*
X169108078Y-86727062D01*
X168971395Y-86522499D01*
X170808632Y-86522499D01*
X171450000Y-87163868D01*
X172091368Y-86522499D01*
X172009272Y-86351033D01*
X171798565Y-86261619D01*
X171574462Y-86215030D01*
X171345577Y-86213056D01*
X171120704Y-86255774D01*
X170908486Y-86341541D01*
X170890728Y-86351033D01*
X170808632Y-86522499D01*
X168971395Y-86522499D01*
X168958149Y-86502676D01*
X168767324Y-86311851D01*
X168542938Y-86161922D01*
X168293614Y-86058648D01*
X168028933Y-86006000D01*
X167759067Y-86006000D01*
X167494386Y-86058648D01*
X167245062Y-86161922D01*
X167020676Y-86311851D01*
X166829851Y-86502676D01*
X166679922Y-86727062D01*
X166576648Y-86976386D01*
X166524000Y-87241067D01*
X166524000Y-87510933D01*
X166576648Y-87775614D01*
X166679922Y-88024938D01*
X166829851Y-88249324D01*
X167020676Y-88440149D01*
X167245062Y-88590078D01*
X167380069Y-88646000D01*
X167245062Y-88701922D01*
X167020676Y-88851851D01*
X166829851Y-89042676D01*
X166679922Y-89267062D01*
X166576648Y-89516386D01*
X166524000Y-89781067D01*
X166524000Y-90050933D01*
X166576648Y-90315614D01*
X166679922Y-90564938D01*
X166824957Y-90782000D01*
X165407043Y-90782000D01*
X165552078Y-90564938D01*
X165655352Y-90315614D01*
X165708000Y-90050933D01*
X165708000Y-89781067D01*
X165655352Y-89516386D01*
X165552078Y-89267062D01*
X165402149Y-89042676D01*
X165211324Y-88851851D01*
X164986938Y-88701922D01*
X164851931Y-88646000D01*
X164986938Y-88590078D01*
X165211324Y-88440149D01*
X165402149Y-88249324D01*
X165552078Y-88024938D01*
X165655352Y-87775614D01*
X165708000Y-87510933D01*
X165708000Y-87241067D01*
X165655352Y-86976386D01*
X165552078Y-86727062D01*
X165402149Y-86502676D01*
X165211324Y-86311851D01*
X164986938Y-86161922D01*
X164737614Y-86058648D01*
X164472933Y-86006000D01*
X164203067Y-86006000D01*
X163938386Y-86058648D01*
X163689062Y-86161922D01*
X163464676Y-86311851D01*
X163273851Y-86502676D01*
X163123922Y-86727062D01*
X163020648Y-86976386D01*
X162968000Y-87241067D01*
X162968000Y-87510933D01*
X163020648Y-87775614D01*
X163123922Y-88024938D01*
X163273851Y-88249324D01*
X163464676Y-88440149D01*
X163689062Y-88590078D01*
X163824069Y-88646000D01*
X163689062Y-88701922D01*
X163464676Y-88851851D01*
X163273851Y-89042676D01*
X163123922Y-89267062D01*
X163020648Y-89516386D01*
X162968000Y-89781067D01*
X162968000Y-90050933D01*
X163020648Y-90315614D01*
X163123922Y-90564938D01*
X163268957Y-90782000D01*
X74318000Y-90782000D01*
X74318000Y-88511067D01*
X160428000Y-88511067D01*
X160428000Y-88780933D01*
X160480648Y-89045614D01*
X160583922Y-89294938D01*
X160733851Y-89519324D01*
X160924676Y-89710149D01*
X161149062Y-89860078D01*
X161398386Y-89963352D01*
X161663067Y-90016000D01*
X161932933Y-90016000D01*
X162197614Y-89963352D01*
X162446938Y-89860078D01*
X162671324Y-89710149D01*
X162862149Y-89519324D01*
X163012078Y-89294938D01*
X163115352Y-89045614D01*
X163168000Y-88780933D01*
X163168000Y-88511067D01*
X163115352Y-88246386D01*
X163012078Y-87997062D01*
X162862149Y-87772676D01*
X162671324Y-87581851D01*
X162446938Y-87431922D01*
X162197614Y-87328648D01*
X161932933Y-87276000D01*
X161663067Y-87276000D01*
X161398386Y-87328648D01*
X161149062Y-87431922D01*
X160924676Y-87581851D01*
X160733851Y-87772676D01*
X160583922Y-87997062D01*
X160480648Y-88246386D01*
X160428000Y-88511067D01*
X74318000Y-88511067D01*
X74318000Y-86551295D01*
X104560000Y-86551295D01*
X104560000Y-87184706D01*
X104579650Y-87384214D01*
X104657302Y-87640198D01*
X104783402Y-87876114D01*
X104953104Y-88082897D01*
X105159887Y-88252598D01*
X105395803Y-88378698D01*
X105651787Y-88456350D01*
X105918000Y-88482570D01*
X106184214Y-88456350D01*
X106440198Y-88378698D01*
X106676114Y-88252598D01*
X106882897Y-88082897D01*
X107052598Y-87876114D01*
X107117075Y-87755486D01*
X107208985Y-87893040D01*
X107432960Y-88117015D01*
X107696327Y-88292991D01*
X107988964Y-88414205D01*
X108299626Y-88476000D01*
X108616374Y-88476000D01*
X108927036Y-88414205D01*
X109219673Y-88292991D01*
X109483040Y-88117015D01*
X109707015Y-87893040D01*
X109798925Y-87755487D01*
X109863402Y-87876114D01*
X110033104Y-88082897D01*
X110239887Y-88252598D01*
X110475803Y-88378698D01*
X110731787Y-88456350D01*
X110998000Y-88482570D01*
X111264214Y-88456350D01*
X111520198Y-88378698D01*
X111756114Y-88252598D01*
X111962897Y-88082897D01*
X112132598Y-87876114D01*
X112258698Y-87640197D01*
X112268000Y-87609533D01*
X112277302Y-87640198D01*
X112403402Y-87876114D01*
X112573104Y-88082897D01*
X112779887Y-88252598D01*
X113015803Y-88378698D01*
X113271787Y-88456350D01*
X113538000Y-88482570D01*
X113804214Y-88456350D01*
X114060198Y-88378698D01*
X114296114Y-88252598D01*
X114502897Y-88082897D01*
X114672598Y-87876114D01*
X114798698Y-87640197D01*
X114808000Y-87609533D01*
X114817302Y-87640198D01*
X114943402Y-87876114D01*
X115113104Y-88082897D01*
X115319887Y-88252598D01*
X115555803Y-88378698D01*
X115811787Y-88456350D01*
X116078000Y-88482570D01*
X116344214Y-88456350D01*
X116600198Y-88378698D01*
X116836114Y-88252598D01*
X117042897Y-88082897D01*
X117212598Y-87876114D01*
X117338698Y-87640197D01*
X117348000Y-87609533D01*
X117357302Y-87640198D01*
X117483402Y-87876114D01*
X117653104Y-88082897D01*
X117859887Y-88252598D01*
X118095803Y-88378698D01*
X118351787Y-88456350D01*
X118618000Y-88482570D01*
X118884214Y-88456350D01*
X119140198Y-88378698D01*
X119376114Y-88252598D01*
X119582897Y-88082897D01*
X119752598Y-87876114D01*
X119878698Y-87640197D01*
X119888000Y-87609533D01*
X119897302Y-87640198D01*
X120023402Y-87876114D01*
X120193104Y-88082897D01*
X120399887Y-88252598D01*
X120635803Y-88378698D01*
X120891787Y-88456350D01*
X121158000Y-88482570D01*
X121424214Y-88456350D01*
X121680198Y-88378698D01*
X121916114Y-88252598D01*
X122122897Y-88082897D01*
X122292598Y-87876114D01*
X122418698Y-87640197D01*
X122428000Y-87609533D01*
X122437302Y-87640198D01*
X122563402Y-87876114D01*
X122733104Y-88082897D01*
X122939887Y-88252598D01*
X123175803Y-88378698D01*
X123431787Y-88456350D01*
X123698000Y-88482570D01*
X123964214Y-88456350D01*
X124220198Y-88378698D01*
X124456114Y-88252598D01*
X124662897Y-88082897D01*
X124832598Y-87876114D01*
X124958698Y-87640197D01*
X124968000Y-87609533D01*
X124977302Y-87640198D01*
X125103402Y-87876114D01*
X125273104Y-88082897D01*
X125479887Y-88252598D01*
X125715803Y-88378698D01*
X125971787Y-88456350D01*
X126238000Y-88482570D01*
X126504214Y-88456350D01*
X126760198Y-88378698D01*
X126996114Y-88252598D01*
X127202897Y-88082897D01*
X127372598Y-87876114D01*
X127498698Y-87640197D01*
X127508000Y-87609533D01*
X127517302Y-87640198D01*
X127643402Y-87876114D01*
X127813104Y-88082897D01*
X128019887Y-88252598D01*
X128255803Y-88378698D01*
X128511787Y-88456350D01*
X128778000Y-88482570D01*
X129044214Y-88456350D01*
X129300198Y-88378698D01*
X129536114Y-88252598D01*
X129742897Y-88082897D01*
X129912598Y-87876114D01*
X130038698Y-87640197D01*
X130048000Y-87609533D01*
X130057302Y-87640198D01*
X130183402Y-87876114D01*
X130353104Y-88082897D01*
X130559887Y-88252598D01*
X130795803Y-88378698D01*
X131051787Y-88456350D01*
X131318000Y-88482570D01*
X131584214Y-88456350D01*
X131840198Y-88378698D01*
X132076114Y-88252598D01*
X132282897Y-88082897D01*
X132452598Y-87876114D01*
X132578698Y-87640197D01*
X132588000Y-87609533D01*
X132597302Y-87640198D01*
X132723402Y-87876114D01*
X132893104Y-88082897D01*
X133099887Y-88252598D01*
X133335803Y-88378698D01*
X133591787Y-88456350D01*
X133858000Y-88482570D01*
X134124214Y-88456350D01*
X134380198Y-88378698D01*
X134616114Y-88252598D01*
X134822897Y-88082897D01*
X134992598Y-87876114D01*
X135118698Y-87640197D01*
X135128000Y-87609533D01*
X135137302Y-87640198D01*
X135263402Y-87876114D01*
X135433104Y-88082897D01*
X135639887Y-88252598D01*
X135875803Y-88378698D01*
X136131787Y-88456350D01*
X136398000Y-88482570D01*
X136664214Y-88456350D01*
X136920198Y-88378698D01*
X137156114Y-88252598D01*
X137362897Y-88082897D01*
X137532598Y-87876114D01*
X137658698Y-87640197D01*
X137668000Y-87609533D01*
X137677302Y-87640198D01*
X137803402Y-87876114D01*
X137973104Y-88082897D01*
X138179887Y-88252598D01*
X138415803Y-88378698D01*
X138671787Y-88456350D01*
X138938000Y-88482570D01*
X139204214Y-88456350D01*
X139460198Y-88378698D01*
X139696114Y-88252598D01*
X139902897Y-88082897D01*
X140059571Y-87891987D01*
X140666145Y-87891987D01*
X140777186Y-88087784D01*
X141028620Y-88201068D01*
X141297324Y-88263124D01*
X141572971Y-88271565D01*
X141844968Y-88226069D01*
X142102862Y-88128382D01*
X142178814Y-88087784D01*
X142289855Y-87891987D01*
X141478000Y-87080132D01*
X140666145Y-87891987D01*
X140059571Y-87891987D01*
X140072598Y-87876114D01*
X140198698Y-87640197D01*
X140234060Y-87523623D01*
X140258216Y-87568814D01*
X140454013Y-87679855D01*
X141265868Y-86868000D01*
X141690132Y-86868000D01*
X142501987Y-87679855D01*
X142697784Y-87568814D01*
X142720413Y-87518590D01*
X142757302Y-87640198D01*
X142883402Y-87876114D01*
X143053104Y-88082897D01*
X143259887Y-88252598D01*
X143495803Y-88378698D01*
X143751787Y-88456350D01*
X144018000Y-88482570D01*
X144284214Y-88456350D01*
X144540198Y-88378698D01*
X144776114Y-88252598D01*
X144982897Y-88082897D01*
X145152598Y-87876114D01*
X145278698Y-87640197D01*
X145288000Y-87609533D01*
X145297302Y-87640198D01*
X145423402Y-87876114D01*
X145593104Y-88082897D01*
X145799887Y-88252598D01*
X146035803Y-88378698D01*
X146291787Y-88456350D01*
X146558000Y-88482570D01*
X146824214Y-88456350D01*
X147080198Y-88378698D01*
X147316114Y-88252598D01*
X147522897Y-88082897D01*
X147692598Y-87876114D01*
X147818698Y-87640197D01*
X147828000Y-87609533D01*
X147837302Y-87640198D01*
X147963402Y-87876114D01*
X148133104Y-88082897D01*
X148339887Y-88252598D01*
X148575803Y-88378698D01*
X148831787Y-88456350D01*
X149098000Y-88482570D01*
X149364214Y-88456350D01*
X149620198Y-88378698D01*
X149856114Y-88252598D01*
X150062897Y-88082897D01*
X150232598Y-87876114D01*
X150358698Y-87640197D01*
X150368000Y-87609533D01*
X150377302Y-87640198D01*
X150503402Y-87876114D01*
X150673104Y-88082897D01*
X150879887Y-88252598D01*
X151115803Y-88378698D01*
X151371787Y-88456350D01*
X151638000Y-88482570D01*
X151904214Y-88456350D01*
X152160198Y-88378698D01*
X152396114Y-88252598D01*
X152602897Y-88082897D01*
X152772598Y-87876114D01*
X152837075Y-87755486D01*
X152928985Y-87893040D01*
X153152960Y-88117015D01*
X153416327Y-88292991D01*
X153708964Y-88414205D01*
X154019626Y-88476000D01*
X154336374Y-88476000D01*
X154647036Y-88414205D01*
X154939673Y-88292991D01*
X155203040Y-88117015D01*
X155427015Y-87893040D01*
X155602991Y-87629673D01*
X155724205Y-87337036D01*
X155786000Y-87026374D01*
X155786000Y-86709626D01*
X155724205Y-86398964D01*
X155602991Y-86106327D01*
X155427015Y-85842960D01*
X155203040Y-85618985D01*
X154939673Y-85443009D01*
X154647036Y-85321795D01*
X154336374Y-85260000D01*
X154019626Y-85260000D01*
X153708964Y-85321795D01*
X153416327Y-85443009D01*
X153152960Y-85618985D01*
X152928985Y-85842960D01*
X152837075Y-85980513D01*
X152772598Y-85859886D01*
X152602896Y-85653103D01*
X152396113Y-85483402D01*
X152160197Y-85357302D01*
X151904213Y-85279650D01*
X151638000Y-85253430D01*
X151371786Y-85279650D01*
X151115802Y-85357302D01*
X150879886Y-85483402D01*
X150673103Y-85653104D01*
X150503402Y-85859887D01*
X150377302Y-86095803D01*
X150368000Y-86126467D01*
X150358698Y-86095802D01*
X150232598Y-85859886D01*
X150062896Y-85653103D01*
X149856113Y-85483402D01*
X149620197Y-85357302D01*
X149364213Y-85279650D01*
X149098000Y-85253430D01*
X148831786Y-85279650D01*
X148575802Y-85357302D01*
X148339886Y-85483402D01*
X148133103Y-85653104D01*
X147963402Y-85859887D01*
X147837302Y-86095803D01*
X147828000Y-86126467D01*
X147818698Y-86095802D01*
X147692598Y-85859886D01*
X147522896Y-85653103D01*
X147316113Y-85483402D01*
X147080197Y-85357302D01*
X146824213Y-85279650D01*
X146558000Y-85253430D01*
X146291786Y-85279650D01*
X146035802Y-85357302D01*
X145799886Y-85483402D01*
X145593103Y-85653104D01*
X145423402Y-85859887D01*
X145297302Y-86095803D01*
X145288000Y-86126467D01*
X145278698Y-86095802D01*
X145152598Y-85859886D01*
X144982896Y-85653103D01*
X144776113Y-85483402D01*
X144540197Y-85357302D01*
X144284213Y-85279650D01*
X144018000Y-85253430D01*
X143751786Y-85279650D01*
X143495802Y-85357302D01*
X143259886Y-85483402D01*
X143053103Y-85653104D01*
X142883402Y-85859887D01*
X142757302Y-86095803D01*
X142721940Y-86212377D01*
X142697784Y-86167186D01*
X142501987Y-86056145D01*
X141690132Y-86868000D01*
X141265868Y-86868000D01*
X140454013Y-86056145D01*
X140258216Y-86167186D01*
X140235587Y-86217410D01*
X140198698Y-86095802D01*
X140072598Y-85859886D01*
X140059572Y-85844013D01*
X140666145Y-85844013D01*
X141478000Y-86655868D01*
X142289855Y-85844013D01*
X142178814Y-85648216D01*
X141927380Y-85534932D01*
X141658676Y-85472876D01*
X141383029Y-85464435D01*
X141111032Y-85509931D01*
X140853138Y-85607618D01*
X140777186Y-85648216D01*
X140666145Y-85844013D01*
X140059572Y-85844013D01*
X139902896Y-85653103D01*
X139696113Y-85483402D01*
X139460197Y-85357302D01*
X139204213Y-85279650D01*
X138938000Y-85253430D01*
X138671786Y-85279650D01*
X138415802Y-85357302D01*
X138179886Y-85483402D01*
X137973103Y-85653104D01*
X137803402Y-85859887D01*
X137677302Y-86095803D01*
X137668000Y-86126467D01*
X137658698Y-86095802D01*
X137532598Y-85859886D01*
X137362896Y-85653103D01*
X137156113Y-85483402D01*
X136920197Y-85357302D01*
X136664213Y-85279650D01*
X136398000Y-85253430D01*
X136131786Y-85279650D01*
X135875802Y-85357302D01*
X135639886Y-85483402D01*
X135433103Y-85653104D01*
X135263402Y-85859887D01*
X135137302Y-86095803D01*
X135128000Y-86126467D01*
X135118698Y-86095802D01*
X134992598Y-85859886D01*
X134822896Y-85653103D01*
X134616113Y-85483402D01*
X134380197Y-85357302D01*
X134124213Y-85279650D01*
X133858000Y-85253430D01*
X133591786Y-85279650D01*
X133335802Y-85357302D01*
X133099886Y-85483402D01*
X132893103Y-85653104D01*
X132723402Y-85859887D01*
X132597302Y-86095803D01*
X132588000Y-86126467D01*
X132578698Y-86095802D01*
X132452598Y-85859886D01*
X132282896Y-85653103D01*
X132076113Y-85483402D01*
X131840197Y-85357302D01*
X131584213Y-85279650D01*
X131318000Y-85253430D01*
X131051786Y-85279650D01*
X130795802Y-85357302D01*
X130559886Y-85483402D01*
X130353103Y-85653104D01*
X130183402Y-85859887D01*
X130057302Y-86095803D01*
X130048000Y-86126467D01*
X130038698Y-86095802D01*
X129912598Y-85859886D01*
X129742896Y-85653103D01*
X129536113Y-85483402D01*
X129300197Y-85357302D01*
X129044213Y-85279650D01*
X128778000Y-85253430D01*
X128511786Y-85279650D01*
X128255802Y-85357302D01*
X128019886Y-85483402D01*
X127813103Y-85653104D01*
X127643402Y-85859887D01*
X127517302Y-86095803D01*
X127508000Y-86126467D01*
X127498698Y-86095802D01*
X127372598Y-85859886D01*
X127202896Y-85653103D01*
X126996113Y-85483402D01*
X126760197Y-85357302D01*
X126504213Y-85279650D01*
X126238000Y-85253430D01*
X125971786Y-85279650D01*
X125715802Y-85357302D01*
X125479886Y-85483402D01*
X125273103Y-85653104D01*
X125103402Y-85859887D01*
X124977302Y-86095803D01*
X124968000Y-86126467D01*
X124958698Y-86095802D01*
X124832598Y-85859886D01*
X124662896Y-85653103D01*
X124456113Y-85483402D01*
X124220197Y-85357302D01*
X123964213Y-85279650D01*
X123698000Y-85253430D01*
X123431786Y-85279650D01*
X123175802Y-85357302D01*
X122939886Y-85483402D01*
X122733103Y-85653104D01*
X122563402Y-85859887D01*
X122437302Y-86095803D01*
X122428000Y-86126467D01*
X122418698Y-86095802D01*
X122292598Y-85859886D01*
X122122896Y-85653103D01*
X121916113Y-85483402D01*
X121680197Y-85357302D01*
X121424213Y-85279650D01*
X121158000Y-85253430D01*
X120891786Y-85279650D01*
X120635802Y-85357302D01*
X120399886Y-85483402D01*
X120193103Y-85653104D01*
X120023402Y-85859887D01*
X119897302Y-86095803D01*
X119888000Y-86126467D01*
X119878698Y-86095802D01*
X119752598Y-85859886D01*
X119582896Y-85653103D01*
X119376113Y-85483402D01*
X119140197Y-85357302D01*
X118884213Y-85279650D01*
X118618000Y-85253430D01*
X118351786Y-85279650D01*
X118095802Y-85357302D01*
X117859886Y-85483402D01*
X117653103Y-85653104D01*
X117483402Y-85859887D01*
X117357302Y-86095803D01*
X117348000Y-86126467D01*
X117338698Y-86095802D01*
X117212598Y-85859886D01*
X117042896Y-85653103D01*
X116836113Y-85483402D01*
X116600197Y-85357302D01*
X116344213Y-85279650D01*
X116078000Y-85253430D01*
X115811786Y-85279650D01*
X115555802Y-85357302D01*
X115319886Y-85483402D01*
X115113103Y-85653104D01*
X114943402Y-85859887D01*
X114817302Y-86095803D01*
X114808000Y-86126467D01*
X114798698Y-86095802D01*
X114672598Y-85859886D01*
X114502896Y-85653103D01*
X114296113Y-85483402D01*
X114060197Y-85357302D01*
X113804213Y-85279650D01*
X113538000Y-85253430D01*
X113271786Y-85279650D01*
X113015802Y-85357302D01*
X112779886Y-85483402D01*
X112573103Y-85653104D01*
X112403402Y-85859887D01*
X112277302Y-86095803D01*
X112268000Y-86126467D01*
X112258698Y-86095802D01*
X112132598Y-85859886D01*
X111962896Y-85653103D01*
X111756113Y-85483402D01*
X111520197Y-85357302D01*
X111264213Y-85279650D01*
X110998000Y-85253430D01*
X110731786Y-85279650D01*
X110475802Y-85357302D01*
X110239886Y-85483402D01*
X110033103Y-85653104D01*
X109863402Y-85859887D01*
X109798925Y-85980514D01*
X109707015Y-85842960D01*
X109483040Y-85618985D01*
X109219673Y-85443009D01*
X108927036Y-85321795D01*
X108616374Y-85260000D01*
X108299626Y-85260000D01*
X107988964Y-85321795D01*
X107696327Y-85443009D01*
X107432960Y-85618985D01*
X107208985Y-85842960D01*
X107117075Y-85980513D01*
X107052598Y-85859886D01*
X106882896Y-85653103D01*
X106676113Y-85483402D01*
X106440197Y-85357302D01*
X106184213Y-85279650D01*
X105918000Y-85253430D01*
X105651786Y-85279650D01*
X105395802Y-85357302D01*
X105159886Y-85483402D01*
X104953103Y-85653104D01*
X104783402Y-85859887D01*
X104657302Y-86095803D01*
X104579650Y-86351787D01*
X104560000Y-86551295D01*
X74318000Y-86551295D01*
X74318000Y-84162283D01*
X78807777Y-84162283D01*
X78820220Y-84203325D01*
X78917864Y-84428074D01*
X79057478Y-84629455D01*
X79233697Y-84799729D01*
X79439749Y-84932353D01*
X79667716Y-85022230D01*
X79860000Y-84960974D01*
X79860000Y-83970000D01*
X80160000Y-83970000D01*
X80160000Y-84960974D01*
X80352284Y-85022230D01*
X80580251Y-84932353D01*
X80786303Y-84799729D01*
X80920561Y-84670000D01*
X81298065Y-84670000D01*
X81305788Y-84748414D01*
X81328660Y-84823814D01*
X81365803Y-84893303D01*
X81415789Y-84954211D01*
X81476697Y-85004197D01*
X81546186Y-85041340D01*
X81621586Y-85064212D01*
X81700000Y-85071935D01*
X82300000Y-85070000D01*
X82400000Y-84970000D01*
X82400000Y-83970000D01*
X82700000Y-83970000D01*
X82700000Y-84970000D01*
X82800000Y-85070000D01*
X83400000Y-85071935D01*
X83478414Y-85064212D01*
X83553814Y-85041340D01*
X83623303Y-85004197D01*
X83684211Y-84954211D01*
X83734197Y-84893303D01*
X83771340Y-84823814D01*
X83794212Y-84748414D01*
X83801935Y-84670000D01*
X83800000Y-84070000D01*
X83700000Y-83970000D01*
X82700000Y-83970000D01*
X82400000Y-83970000D01*
X81400000Y-83970000D01*
X81300000Y-84070000D01*
X81298065Y-84670000D01*
X80920561Y-84670000D01*
X80962522Y-84629455D01*
X81102136Y-84428074D01*
X81199780Y-84203325D01*
X81212223Y-84162283D01*
X81150175Y-83970000D01*
X80160000Y-83970000D01*
X79860000Y-83970000D01*
X78869825Y-83970000D01*
X78807777Y-84162283D01*
X74318000Y-84162283D01*
X74318000Y-81136399D01*
X78552000Y-81136399D01*
X78552000Y-81423601D01*
X78608030Y-81705283D01*
X78717937Y-81970622D01*
X78877497Y-82209421D01*
X79080579Y-82412503D01*
X79319378Y-82572063D01*
X79545783Y-82665843D01*
X79439749Y-82707647D01*
X79233697Y-82840271D01*
X79057478Y-83010545D01*
X78917864Y-83211926D01*
X78820220Y-83436675D01*
X78807777Y-83477717D01*
X78869825Y-83670000D01*
X79860000Y-83670000D01*
X79860000Y-83650000D01*
X80160000Y-83650000D01*
X80160000Y-83670000D01*
X81150175Y-83670000D01*
X81212223Y-83477717D01*
X81199780Y-83436675D01*
X81102136Y-83211926D01*
X80962522Y-83010545D01*
X80786303Y-82840271D01*
X80580251Y-82707647D01*
X80474217Y-82665843D01*
X80700622Y-82572063D01*
X80939421Y-82412503D01*
X81142503Y-82209421D01*
X81280000Y-82003642D01*
X81417497Y-82209421D01*
X81620579Y-82412503D01*
X81854139Y-82568562D01*
X81700000Y-82568065D01*
X81621586Y-82575788D01*
X81546186Y-82598660D01*
X81476697Y-82635803D01*
X81415789Y-82685789D01*
X81365803Y-82746697D01*
X81328660Y-82816186D01*
X81305788Y-82891586D01*
X81298065Y-82970000D01*
X81300000Y-83570000D01*
X81400000Y-83670000D01*
X82400000Y-83670000D01*
X82400000Y-83650000D01*
X82700000Y-83650000D01*
X82700000Y-83670000D01*
X83700000Y-83670000D01*
X83800000Y-83570000D01*
X83801935Y-82970000D01*
X83794212Y-82891586D01*
X83771340Y-82816186D01*
X83734197Y-82746697D01*
X83684211Y-82685789D01*
X83623303Y-82635803D01*
X83553814Y-82598660D01*
X83478414Y-82575788D01*
X83400000Y-82568065D01*
X83245861Y-82568562D01*
X83479421Y-82412503D01*
X83682503Y-82209421D01*
X83842063Y-81970622D01*
X83951970Y-81705283D01*
X84008000Y-81423601D01*
X84008000Y-81136399D01*
X83951970Y-80854717D01*
X83842063Y-80589378D01*
X83682503Y-80350579D01*
X83479421Y-80147497D01*
X83240622Y-79987937D01*
X83014217Y-79894157D01*
X83120251Y-79852353D01*
X83326303Y-79719729D01*
X83502522Y-79549455D01*
X83642136Y-79348074D01*
X83739780Y-79123325D01*
X83752223Y-79082283D01*
X83690175Y-78890000D01*
X82700000Y-78890000D01*
X82700000Y-78910000D01*
X82400000Y-78910000D01*
X82400000Y-78890000D01*
X81409825Y-78890000D01*
X81347777Y-79082283D01*
X81360220Y-79123325D01*
X81457864Y-79348074D01*
X81597478Y-79549455D01*
X81773697Y-79719729D01*
X81979749Y-79852353D01*
X82085783Y-79894157D01*
X81859378Y-79987937D01*
X81620579Y-80147497D01*
X81417497Y-80350579D01*
X81280000Y-80556358D01*
X81142503Y-80350579D01*
X80939421Y-80147497D01*
X80700622Y-79987937D01*
X80474217Y-79894157D01*
X80580251Y-79852353D01*
X80786303Y-79719729D01*
X80962522Y-79549455D01*
X81102136Y-79348074D01*
X81199780Y-79123325D01*
X81212223Y-79082283D01*
X81150175Y-78890000D01*
X80160000Y-78890000D01*
X80160000Y-78910000D01*
X79860000Y-78910000D01*
X79860000Y-78890000D01*
X78869825Y-78890000D01*
X78807777Y-79082283D01*
X78820220Y-79123325D01*
X78917864Y-79348074D01*
X79057478Y-79549455D01*
X79233697Y-79719729D01*
X79439749Y-79852353D01*
X79545783Y-79894157D01*
X79319378Y-79987937D01*
X79080579Y-80147497D01*
X78877497Y-80350579D01*
X78717937Y-80589378D01*
X78608030Y-80854717D01*
X78552000Y-81136399D01*
X74318000Y-81136399D01*
X74318000Y-65896399D01*
X78552000Y-65896399D01*
X78552000Y-66183601D01*
X78608030Y-66465283D01*
X78717937Y-66730622D01*
X78877497Y-66969421D01*
X79080579Y-67172503D01*
X79286358Y-67310000D01*
X79080579Y-67447497D01*
X78877497Y-67650579D01*
X78717937Y-67889378D01*
X78608030Y-68154717D01*
X78552000Y-68436399D01*
X78552000Y-68723601D01*
X78608030Y-69005283D01*
X78717937Y-69270622D01*
X78877497Y-69509421D01*
X79080579Y-69712503D01*
X79286358Y-69850000D01*
X79080579Y-69987497D01*
X78877497Y-70190579D01*
X78717937Y-70429378D01*
X78608030Y-70694717D01*
X78552000Y-70976399D01*
X78552000Y-71263601D01*
X78608030Y-71545283D01*
X78717937Y-71810622D01*
X78877497Y-72049421D01*
X79080579Y-72252503D01*
X79286358Y-72390000D01*
X79080579Y-72527497D01*
X78877497Y-72730579D01*
X78717937Y-72969378D01*
X78608030Y-73234717D01*
X78552000Y-73516399D01*
X78552000Y-73803601D01*
X78608030Y-74085283D01*
X78717937Y-74350622D01*
X78877497Y-74589421D01*
X79080579Y-74792503D01*
X79286358Y-74930000D01*
X79080579Y-75067497D01*
X78877497Y-75270579D01*
X78717937Y-75509378D01*
X78608030Y-75774717D01*
X78552000Y-76056399D01*
X78552000Y-76343601D01*
X78608030Y-76625283D01*
X78717937Y-76890622D01*
X78877497Y-77129421D01*
X79080579Y-77332503D01*
X79319378Y-77492063D01*
X79545783Y-77585843D01*
X79439749Y-77627647D01*
X79233697Y-77760271D01*
X79057478Y-77930545D01*
X78917864Y-78131926D01*
X78820220Y-78356675D01*
X78807777Y-78397717D01*
X78869825Y-78590000D01*
X79860000Y-78590000D01*
X79860000Y-78570000D01*
X80160000Y-78570000D01*
X80160000Y-78590000D01*
X81150175Y-78590000D01*
X81212223Y-78397717D01*
X81199780Y-78356675D01*
X81102136Y-78131926D01*
X80962522Y-77930545D01*
X80786303Y-77760271D01*
X80580251Y-77627647D01*
X80474217Y-77585843D01*
X80700622Y-77492063D01*
X80939421Y-77332503D01*
X81142503Y-77129421D01*
X81280000Y-76923642D01*
X81417497Y-77129421D01*
X81620579Y-77332503D01*
X81859378Y-77492063D01*
X82085783Y-77585843D01*
X81979749Y-77627647D01*
X81773697Y-77760271D01*
X81597478Y-77930545D01*
X81457864Y-78131926D01*
X81360220Y-78356675D01*
X81347777Y-78397717D01*
X81409825Y-78590000D01*
X82400000Y-78590000D01*
X82400000Y-78570000D01*
X82700000Y-78570000D01*
X82700000Y-78590000D01*
X83690175Y-78590000D01*
X83752223Y-78397717D01*
X83739780Y-78356675D01*
X83642136Y-78131926D01*
X83502522Y-77930545D01*
X83326303Y-77760271D01*
X83120251Y-77627647D01*
X83014217Y-77585843D01*
X83240622Y-77492063D01*
X83479421Y-77332503D01*
X83682503Y-77129421D01*
X83690988Y-77116721D01*
X90432000Y-77116721D01*
X90432000Y-77315279D01*
X90470737Y-77510023D01*
X90546722Y-77693467D01*
X90657035Y-77858562D01*
X90797438Y-77998965D01*
X90962533Y-78109278D01*
X91145977Y-78185263D01*
X91340721Y-78224000D01*
X91539279Y-78224000D01*
X91734023Y-78185263D01*
X91860870Y-78132721D01*
X113038000Y-78132721D01*
X113038000Y-78331279D01*
X113076737Y-78526023D01*
X113152722Y-78709467D01*
X113263035Y-78874562D01*
X113403438Y-79014965D01*
X113568533Y-79125278D01*
X113751977Y-79201263D01*
X113946721Y-79240000D01*
X114145279Y-79240000D01*
X114340023Y-79201263D01*
X114523467Y-79125278D01*
X114688562Y-79014965D01*
X114828965Y-78874562D01*
X114939278Y-78709467D01*
X115015263Y-78526023D01*
X115054000Y-78331279D01*
X115054000Y-78132721D01*
X115015263Y-77937977D01*
X114939278Y-77754533D01*
X114828965Y-77589438D01*
X114688562Y-77449035D01*
X114523467Y-77338722D01*
X114340023Y-77262737D01*
X114145279Y-77224000D01*
X113946721Y-77224000D01*
X113751977Y-77262737D01*
X113568533Y-77338722D01*
X113403438Y-77449035D01*
X113263035Y-77589438D01*
X113152722Y-77754533D01*
X113076737Y-77937977D01*
X113038000Y-78132721D01*
X91860870Y-78132721D01*
X91917467Y-78109278D01*
X92082562Y-77998965D01*
X92222965Y-77858562D01*
X92333278Y-77693467D01*
X92409263Y-77510023D01*
X92448000Y-77315279D01*
X92448000Y-77116721D01*
X92409263Y-76921977D01*
X92333278Y-76738533D01*
X92222965Y-76573438D01*
X92082562Y-76433035D01*
X91917467Y-76322722D01*
X91734023Y-76246737D01*
X91539279Y-76208000D01*
X91340721Y-76208000D01*
X91145977Y-76246737D01*
X90962533Y-76322722D01*
X90797438Y-76433035D01*
X90657035Y-76573438D01*
X90546722Y-76738533D01*
X90470737Y-76921977D01*
X90432000Y-77116721D01*
X83690988Y-77116721D01*
X83842063Y-76890622D01*
X83951970Y-76625283D01*
X84008000Y-76343601D01*
X84008000Y-76056399D01*
X83951970Y-75774717D01*
X83842063Y-75509378D01*
X83682503Y-75270579D01*
X83479421Y-75067497D01*
X83273642Y-74930000D01*
X83479421Y-74792503D01*
X83480600Y-74791324D01*
X112384000Y-74791324D01*
X112384000Y-75068676D01*
X112438108Y-75340699D01*
X112544246Y-75596938D01*
X112698335Y-75827548D01*
X112894452Y-76023665D01*
X113125062Y-76177754D01*
X113381301Y-76283892D01*
X113653324Y-76338000D01*
X113930676Y-76338000D01*
X114202699Y-76283892D01*
X114458938Y-76177754D01*
X114689548Y-76023665D01*
X114885665Y-75827548D01*
X115039754Y-75596938D01*
X115145892Y-75340699D01*
X115200000Y-75068676D01*
X115200000Y-74791324D01*
X115145892Y-74519301D01*
X115039754Y-74263062D01*
X114885665Y-74032452D01*
X114689548Y-73836335D01*
X114458938Y-73682246D01*
X114202699Y-73576108D01*
X113930676Y-73522000D01*
X113653324Y-73522000D01*
X113381301Y-73576108D01*
X113125062Y-73682246D01*
X112894452Y-73836335D01*
X112698335Y-74032452D01*
X112544246Y-74263062D01*
X112438108Y-74519301D01*
X112384000Y-74791324D01*
X83480600Y-74791324D01*
X83682503Y-74589421D01*
X83842063Y-74350622D01*
X83951970Y-74085283D01*
X84008000Y-73803601D01*
X84008000Y-73516399D01*
X83951970Y-73234717D01*
X83842063Y-72969378D01*
X83682503Y-72730579D01*
X83479421Y-72527497D01*
X83273642Y-72390000D01*
X83479421Y-72252503D01*
X83682503Y-72049421D01*
X83842063Y-71810622D01*
X83951970Y-71545283D01*
X84008000Y-71263601D01*
X84008000Y-70976399D01*
X83951970Y-70694717D01*
X83842063Y-70429378D01*
X83682503Y-70190579D01*
X83479421Y-69987497D01*
X83273642Y-69850000D01*
X83479421Y-69712503D01*
X83682503Y-69509421D01*
X83690980Y-69496733D01*
X119388000Y-69496733D01*
X119388000Y-69695291D01*
X119426737Y-69890035D01*
X119502722Y-70073479D01*
X119613035Y-70238574D01*
X119753438Y-70378977D01*
X119918533Y-70489290D01*
X120101977Y-70565275D01*
X120296721Y-70604012D01*
X120495279Y-70604012D01*
X120690023Y-70565275D01*
X120727597Y-70549711D01*
X128785996Y-70549711D01*
X128785996Y-70748269D01*
X128824733Y-70943013D01*
X128900718Y-71126457D01*
X129011031Y-71291552D01*
X129151434Y-71431955D01*
X129316529Y-71542268D01*
X129499973Y-71618253D01*
X129694717Y-71656990D01*
X129893275Y-71656990D01*
X130088019Y-71618253D01*
X130271463Y-71542268D01*
X130436558Y-71431955D01*
X130576961Y-71291552D01*
X130687274Y-71126457D01*
X130763259Y-70943013D01*
X130801996Y-70748269D01*
X130801996Y-70549711D01*
X130763259Y-70354967D01*
X130687274Y-70171523D01*
X130576961Y-70006428D01*
X130436558Y-69866025D01*
X130271463Y-69755712D01*
X130088019Y-69679727D01*
X129893275Y-69640990D01*
X129694717Y-69640990D01*
X129499973Y-69679727D01*
X129316529Y-69755712D01*
X129151434Y-69866025D01*
X129011031Y-70006428D01*
X128900718Y-70171523D01*
X128824733Y-70354967D01*
X128785996Y-70549711D01*
X120727597Y-70549711D01*
X120873467Y-70489290D01*
X121038562Y-70378977D01*
X121178965Y-70238574D01*
X121289278Y-70073479D01*
X121365263Y-69890035D01*
X121404000Y-69695291D01*
X121404000Y-69496733D01*
X121365263Y-69301989D01*
X121289278Y-69118545D01*
X121178965Y-68953450D01*
X121038562Y-68813047D01*
X120873467Y-68702734D01*
X120690023Y-68626749D01*
X120495279Y-68588012D01*
X120296721Y-68588012D01*
X120101977Y-68626749D01*
X119918533Y-68702734D01*
X119753438Y-68813047D01*
X119613035Y-68953450D01*
X119502722Y-69118545D01*
X119426737Y-69301989D01*
X119388000Y-69496733D01*
X83690980Y-69496733D01*
X83842063Y-69270622D01*
X83951970Y-69005283D01*
X84008000Y-68723601D01*
X84008000Y-68480721D01*
X122944000Y-68480721D01*
X122944000Y-68679279D01*
X122982737Y-68874023D01*
X123058722Y-69057467D01*
X123169035Y-69222562D01*
X123309438Y-69362965D01*
X123474533Y-69473278D01*
X123657977Y-69549263D01*
X123852721Y-69588000D01*
X124051279Y-69588000D01*
X124246023Y-69549263D01*
X124429467Y-69473278D01*
X124594562Y-69362965D01*
X124734965Y-69222562D01*
X124845278Y-69057467D01*
X124921263Y-68874023D01*
X124960000Y-68679279D01*
X124960000Y-68480721D01*
X124921263Y-68285977D01*
X124845278Y-68102533D01*
X124734965Y-67937438D01*
X124594562Y-67797035D01*
X124429467Y-67686722D01*
X124246023Y-67610737D01*
X124051279Y-67572000D01*
X123852721Y-67572000D01*
X123657977Y-67610737D01*
X123474533Y-67686722D01*
X123309438Y-67797035D01*
X123169035Y-67937438D01*
X123058722Y-68102533D01*
X122982737Y-68285977D01*
X122944000Y-68480721D01*
X84008000Y-68480721D01*
X84008000Y-68436399D01*
X83951970Y-68154717D01*
X83842063Y-67889378D01*
X83682503Y-67650579D01*
X83479421Y-67447497D01*
X83273642Y-67310000D01*
X83479421Y-67172503D01*
X83682503Y-66969421D01*
X83842063Y-66730622D01*
X83951970Y-66465283D01*
X84008000Y-66183601D01*
X84008000Y-65896399D01*
X83951970Y-65614717D01*
X83842063Y-65349378D01*
X83682503Y-65110579D01*
X83676327Y-65104403D01*
X112639528Y-65104403D01*
X112726911Y-65322814D01*
X112855225Y-65519980D01*
X113019539Y-65688325D01*
X113213538Y-65821379D01*
X113429767Y-65914029D01*
X113457598Y-65922465D01*
X113642000Y-65859725D01*
X113642000Y-64920000D01*
X113942000Y-64920000D01*
X113942000Y-65859725D01*
X114126402Y-65922465D01*
X114154233Y-65914029D01*
X114370462Y-65821379D01*
X114564461Y-65688325D01*
X114728775Y-65519980D01*
X114857089Y-65322814D01*
X114944472Y-65104403D01*
X114882595Y-64920000D01*
X113942000Y-64920000D01*
X113642000Y-64920000D01*
X112701405Y-64920000D01*
X112639528Y-65104403D01*
X83676327Y-65104403D01*
X83479421Y-64907497D01*
X83240622Y-64747937D01*
X82975283Y-64638030D01*
X82693601Y-64582000D01*
X82406399Y-64582000D01*
X82124717Y-64638030D01*
X81859378Y-64747937D01*
X81620579Y-64907497D01*
X81417497Y-65110579D01*
X81280000Y-65316358D01*
X81142503Y-65110579D01*
X80939421Y-64907497D01*
X80700622Y-64747937D01*
X80435283Y-64638030D01*
X80153601Y-64582000D01*
X79866399Y-64582000D01*
X79584717Y-64638030D01*
X79319378Y-64747937D01*
X79080579Y-64907497D01*
X78877497Y-65110579D01*
X78717937Y-65349378D01*
X78608030Y-65614717D01*
X78552000Y-65896399D01*
X74318000Y-65896399D01*
X74318000Y-64435597D01*
X112639528Y-64435597D01*
X112701405Y-64620000D01*
X113642000Y-64620000D01*
X113642000Y-63680275D01*
X113942000Y-63680275D01*
X113942000Y-64620000D01*
X114882595Y-64620000D01*
X114944472Y-64435597D01*
X114857089Y-64217186D01*
X114728775Y-64020020D01*
X114564461Y-63851675D01*
X114370462Y-63718621D01*
X114154233Y-63625971D01*
X114126402Y-63617535D01*
X113942000Y-63680275D01*
X113642000Y-63680275D01*
X113457598Y-63617535D01*
X113429767Y-63625971D01*
X113213538Y-63718621D01*
X113019539Y-63851675D01*
X112855225Y-64020020D01*
X112726911Y-64217186D01*
X112639528Y-64435597D01*
X74318000Y-64435597D01*
X74318000Y-61048283D01*
X78807777Y-61048283D01*
X78820220Y-61089325D01*
X78917864Y-61314074D01*
X79057478Y-61515455D01*
X79233697Y-61685729D01*
X79439749Y-61818353D01*
X79667716Y-61908230D01*
X79860000Y-61846974D01*
X79860000Y-60856000D01*
X78869825Y-60856000D01*
X78807777Y-61048283D01*
X74318000Y-61048283D01*
X74318000Y-57316000D01*
X78549059Y-57316000D01*
X78549059Y-59016000D01*
X78560798Y-59135189D01*
X78595564Y-59249797D01*
X78652021Y-59355421D01*
X78727999Y-59448001D01*
X78820579Y-59523979D01*
X78926203Y-59580436D01*
X79040811Y-59615202D01*
X79160000Y-59626941D01*
X79388022Y-59626941D01*
X79233697Y-59726271D01*
X79057478Y-59896545D01*
X78917864Y-60097926D01*
X78820220Y-60322675D01*
X78807777Y-60363717D01*
X78869825Y-60556000D01*
X79860000Y-60556000D01*
X79860000Y-60536000D01*
X80160000Y-60536000D01*
X80160000Y-60556000D01*
X80180000Y-60556000D01*
X80180000Y-60856000D01*
X80160000Y-60856000D01*
X80160000Y-61846974D01*
X80352284Y-61908230D01*
X80580251Y-61818353D01*
X80786303Y-61685729D01*
X80962522Y-61515455D01*
X81102136Y-61314074D01*
X81164391Y-61170781D01*
X81257937Y-61396622D01*
X81417497Y-61635421D01*
X81620579Y-61838503D01*
X81859378Y-61998063D01*
X82124717Y-62107970D01*
X82406399Y-62164000D01*
X82693601Y-62164000D01*
X82975283Y-62107970D01*
X83240622Y-61998063D01*
X83479421Y-61838503D01*
X83682503Y-61635421D01*
X83842063Y-61396622D01*
X83951970Y-61131283D01*
X84008000Y-60849601D01*
X84008000Y-60562399D01*
X83951970Y-60280717D01*
X83891907Y-60135711D01*
X91448000Y-60135711D01*
X91448000Y-60334269D01*
X91486737Y-60529013D01*
X91562722Y-60712457D01*
X91673035Y-60877552D01*
X91813438Y-61017955D01*
X91978533Y-61128268D01*
X92161977Y-61204253D01*
X92356721Y-61242990D01*
X92555279Y-61242990D01*
X92750023Y-61204253D01*
X92933467Y-61128268D01*
X93098562Y-61017955D01*
X93238965Y-60877552D01*
X93349278Y-60712457D01*
X93425263Y-60529013D01*
X93464000Y-60334269D01*
X93464000Y-60135711D01*
X93425263Y-59940967D01*
X93349278Y-59757523D01*
X93238965Y-59592428D01*
X93098562Y-59452025D01*
X92933467Y-59341712D01*
X92750023Y-59265727D01*
X92555279Y-59226990D01*
X92356721Y-59226990D01*
X92161977Y-59265727D01*
X91978533Y-59341712D01*
X91813438Y-59452025D01*
X91673035Y-59592428D01*
X91562722Y-59757523D01*
X91486737Y-59940967D01*
X91448000Y-60135711D01*
X83891907Y-60135711D01*
X83842063Y-60015378D01*
X83682503Y-59776579D01*
X83479421Y-59573497D01*
X83273642Y-59436000D01*
X83479421Y-59298503D01*
X83682503Y-59095421D01*
X83842063Y-58856622D01*
X83943680Y-58611295D01*
X104560000Y-58611295D01*
X104560000Y-59244706D01*
X104579650Y-59444214D01*
X104657302Y-59700198D01*
X104783402Y-59936114D01*
X104953104Y-60142897D01*
X105159887Y-60312598D01*
X105395803Y-60438698D01*
X105651787Y-60516350D01*
X105918000Y-60542570D01*
X106184214Y-60516350D01*
X106440198Y-60438698D01*
X106676114Y-60312598D01*
X106882897Y-60142897D01*
X107052598Y-59936114D01*
X107178698Y-59700197D01*
X107256350Y-59444213D01*
X107274479Y-59260147D01*
X107300097Y-59260147D01*
X107338372Y-59484464D01*
X107419673Y-59697004D01*
X107540877Y-59889599D01*
X107697325Y-60054848D01*
X107883006Y-60186400D01*
X108090783Y-60279200D01*
X108131484Y-60280672D01*
X108308000Y-60217230D01*
X108308000Y-59078000D01*
X108608000Y-59078000D01*
X108608000Y-60217230D01*
X108784516Y-60280672D01*
X108825217Y-60279200D01*
X109032994Y-60186400D01*
X109218675Y-60054848D01*
X109375123Y-59889599D01*
X109496327Y-59697004D01*
X109577628Y-59484464D01*
X109615903Y-59260147D01*
X109514498Y-59078000D01*
X108608000Y-59078000D01*
X108308000Y-59078000D01*
X107401502Y-59078000D01*
X107300097Y-59260147D01*
X107274479Y-59260147D01*
X107276000Y-59244705D01*
X107276000Y-58611294D01*
X107274480Y-58595853D01*
X107300097Y-58595853D01*
X107401502Y-58778000D01*
X108308000Y-58778000D01*
X108308000Y-57638770D01*
X108608000Y-57638770D01*
X108608000Y-58778000D01*
X109514498Y-58778000D01*
X109607306Y-58611295D01*
X109640000Y-58611295D01*
X109640000Y-59244706D01*
X109659650Y-59444214D01*
X109737302Y-59700198D01*
X109863402Y-59936114D01*
X110033104Y-60142897D01*
X110239887Y-60312598D01*
X110475803Y-60438698D01*
X110731787Y-60516350D01*
X110998000Y-60542570D01*
X111264214Y-60516350D01*
X111520198Y-60438698D01*
X111756114Y-60312598D01*
X111962897Y-60142897D01*
X112132598Y-59936114D01*
X112258698Y-59700197D01*
X112268000Y-59669533D01*
X112277302Y-59700198D01*
X112403402Y-59936114D01*
X112573104Y-60142897D01*
X112779887Y-60312598D01*
X113015803Y-60438698D01*
X113271787Y-60516350D01*
X113538000Y-60542570D01*
X113804214Y-60516350D01*
X114060198Y-60438698D01*
X114296114Y-60312598D01*
X114502897Y-60142897D01*
X114672598Y-59936114D01*
X114798698Y-59700197D01*
X114808000Y-59669533D01*
X114817302Y-59700198D01*
X114943402Y-59936114D01*
X115113104Y-60142897D01*
X115319887Y-60312598D01*
X115555803Y-60438698D01*
X115811787Y-60516350D01*
X116078000Y-60542570D01*
X116344214Y-60516350D01*
X116600198Y-60438698D01*
X116836114Y-60312598D01*
X117042897Y-60142897D01*
X117212598Y-59936114D01*
X117338698Y-59700197D01*
X117348000Y-59669533D01*
X117357302Y-59700198D01*
X117483402Y-59936114D01*
X117653104Y-60142897D01*
X117859887Y-60312598D01*
X118095803Y-60438698D01*
X118351787Y-60516350D01*
X118618000Y-60542570D01*
X118884214Y-60516350D01*
X119140198Y-60438698D01*
X119376114Y-60312598D01*
X119582897Y-60142897D01*
X119752598Y-59936114D01*
X119878698Y-59700197D01*
X119888000Y-59669533D01*
X119897302Y-59700198D01*
X120023402Y-59936114D01*
X120193104Y-60142897D01*
X120399887Y-60312598D01*
X120635803Y-60438698D01*
X120891787Y-60516350D01*
X121158000Y-60542570D01*
X121424214Y-60516350D01*
X121680198Y-60438698D01*
X121916114Y-60312598D01*
X122122897Y-60142897D01*
X122292598Y-59936114D01*
X122418698Y-59700197D01*
X122496350Y-59444213D01*
X122514479Y-59260147D01*
X122540097Y-59260147D01*
X122578372Y-59484464D01*
X122659673Y-59697004D01*
X122780877Y-59889599D01*
X122937325Y-60054848D01*
X123123006Y-60186400D01*
X123330783Y-60279200D01*
X123371484Y-60280672D01*
X123548000Y-60217230D01*
X123548000Y-59078000D01*
X123848000Y-59078000D01*
X123848000Y-60217230D01*
X124024516Y-60280672D01*
X124065217Y-60279200D01*
X124272994Y-60186400D01*
X124458675Y-60054848D01*
X124615123Y-59889599D01*
X124736327Y-59697004D01*
X124817628Y-59484464D01*
X124855903Y-59260147D01*
X124754498Y-59078000D01*
X123848000Y-59078000D01*
X123548000Y-59078000D01*
X122641502Y-59078000D01*
X122540097Y-59260147D01*
X122514479Y-59260147D01*
X122516000Y-59244705D01*
X122516000Y-58611294D01*
X122514480Y-58595853D01*
X122540097Y-58595853D01*
X122641502Y-58778000D01*
X123548000Y-58778000D01*
X123548000Y-57638770D01*
X123848000Y-57638770D01*
X123848000Y-58778000D01*
X124754498Y-58778000D01*
X124847306Y-58611295D01*
X124880000Y-58611295D01*
X124880000Y-59244706D01*
X124899650Y-59444214D01*
X124977302Y-59700198D01*
X125103402Y-59936114D01*
X125273104Y-60142897D01*
X125479887Y-60312598D01*
X125715803Y-60438698D01*
X125971787Y-60516350D01*
X126238000Y-60542570D01*
X126504214Y-60516350D01*
X126760198Y-60438698D01*
X126996114Y-60312598D01*
X127202897Y-60142897D01*
X127372598Y-59936114D01*
X127498698Y-59700197D01*
X127508000Y-59669533D01*
X127517302Y-59700198D01*
X127643402Y-59936114D01*
X127813104Y-60142897D01*
X128019887Y-60312598D01*
X128255803Y-60438698D01*
X128511787Y-60516350D01*
X128778000Y-60542570D01*
X129044214Y-60516350D01*
X129300198Y-60438698D01*
X129536114Y-60312598D01*
X129742897Y-60142897D01*
X129912598Y-59936114D01*
X130038698Y-59700197D01*
X130048000Y-59669533D01*
X130057302Y-59700198D01*
X130183402Y-59936114D01*
X130353104Y-60142897D01*
X130559887Y-60312598D01*
X130795803Y-60438698D01*
X131051787Y-60516350D01*
X131318000Y-60542570D01*
X131584214Y-60516350D01*
X131840198Y-60438698D01*
X132076114Y-60312598D01*
X132282897Y-60142897D01*
X132452598Y-59936114D01*
X132578698Y-59700197D01*
X132588000Y-59669533D01*
X132597302Y-59700198D01*
X132723402Y-59936114D01*
X132893104Y-60142897D01*
X133099887Y-60312598D01*
X133335803Y-60438698D01*
X133591787Y-60516350D01*
X133858000Y-60542570D01*
X134124214Y-60516350D01*
X134380198Y-60438698D01*
X134616114Y-60312598D01*
X134822897Y-60142897D01*
X134992598Y-59936114D01*
X135118698Y-59700197D01*
X135128000Y-59669533D01*
X135137302Y-59700198D01*
X135263402Y-59936114D01*
X135433104Y-60142897D01*
X135639887Y-60312598D01*
X135875803Y-60438698D01*
X136131787Y-60516350D01*
X136398000Y-60542570D01*
X136664214Y-60516350D01*
X136920198Y-60438698D01*
X137156114Y-60312598D01*
X137362897Y-60142897D01*
X137532598Y-59936114D01*
X137658698Y-59700197D01*
X137668000Y-59669533D01*
X137677302Y-59700198D01*
X137803402Y-59936114D01*
X137973104Y-60142897D01*
X138179887Y-60312598D01*
X138415803Y-60438698D01*
X138671787Y-60516350D01*
X138938000Y-60542570D01*
X139204214Y-60516350D01*
X139460198Y-60438698D01*
X139696114Y-60312598D01*
X139902897Y-60142897D01*
X140072598Y-59936114D01*
X140198698Y-59700197D01*
X140208000Y-59669533D01*
X140217302Y-59700198D01*
X140343402Y-59936114D01*
X140513104Y-60142897D01*
X140719887Y-60312598D01*
X140955803Y-60438698D01*
X141211787Y-60516350D01*
X141478000Y-60542570D01*
X141744214Y-60516350D01*
X142000198Y-60438698D01*
X142236114Y-60312598D01*
X142442897Y-60142897D01*
X142612598Y-59936114D01*
X142738698Y-59700197D01*
X142748000Y-59669533D01*
X142757302Y-59700198D01*
X142883402Y-59936114D01*
X143053104Y-60142897D01*
X143259887Y-60312598D01*
X143495803Y-60438698D01*
X143751787Y-60516350D01*
X144018000Y-60542570D01*
X144284214Y-60516350D01*
X144540198Y-60438698D01*
X144776114Y-60312598D01*
X144982897Y-60142897D01*
X145152598Y-59936114D01*
X145278698Y-59700197D01*
X145288000Y-59669533D01*
X145297302Y-59700198D01*
X145423402Y-59936114D01*
X145593104Y-60142897D01*
X145799887Y-60312598D01*
X146035803Y-60438698D01*
X146291787Y-60516350D01*
X146558000Y-60542570D01*
X146824214Y-60516350D01*
X147080198Y-60438698D01*
X147316114Y-60312598D01*
X147522897Y-60142897D01*
X147692598Y-59936114D01*
X147818698Y-59700197D01*
X147828000Y-59669533D01*
X147837302Y-59700198D01*
X147963402Y-59936114D01*
X148133104Y-60142897D01*
X148339887Y-60312598D01*
X148575803Y-60438698D01*
X148831787Y-60516350D01*
X149098000Y-60542570D01*
X149364214Y-60516350D01*
X149620198Y-60438698D01*
X149856114Y-60312598D01*
X150062897Y-60142897D01*
X150232598Y-59936114D01*
X150358698Y-59700197D01*
X150368000Y-59669533D01*
X150377302Y-59700198D01*
X150503402Y-59936114D01*
X150673104Y-60142897D01*
X150879887Y-60312598D01*
X151115803Y-60438698D01*
X151371787Y-60516350D01*
X151638000Y-60542570D01*
X151904214Y-60516350D01*
X152160198Y-60438698D01*
X152396114Y-60312598D01*
X152602897Y-60142897D01*
X152772598Y-59936114D01*
X152898698Y-59700197D01*
X152908000Y-59669533D01*
X152917302Y-59700198D01*
X153043402Y-59936114D01*
X153213104Y-60142897D01*
X153419887Y-60312598D01*
X153655803Y-60438698D01*
X153911787Y-60516350D01*
X154178000Y-60542570D01*
X154444214Y-60516350D01*
X154700198Y-60438698D01*
X154936114Y-60312598D01*
X155142897Y-60142897D01*
X155312598Y-59936114D01*
X155438698Y-59700197D01*
X155516350Y-59444213D01*
X155536000Y-59244705D01*
X155536000Y-58611294D01*
X155516350Y-58411786D01*
X155438698Y-58155802D01*
X155312598Y-57919886D01*
X155142896Y-57713103D01*
X154936113Y-57543402D01*
X154700197Y-57417302D01*
X154656347Y-57404000D01*
X155602000Y-57404000D01*
X155602000Y-85344000D01*
X155603921Y-85363509D01*
X155609612Y-85382268D01*
X155618853Y-85399557D01*
X155631289Y-85414711D01*
X155646443Y-85427147D01*
X155663732Y-85436388D01*
X155682491Y-85442079D01*
X155702000Y-85444000D01*
X175006000Y-85444000D01*
X175025509Y-85442079D01*
X175044268Y-85436388D01*
X175061557Y-85427147D01*
X175076711Y-85414711D01*
X175089147Y-85399557D01*
X175098388Y-85382268D01*
X175104079Y-85363509D01*
X175106000Y-85344000D01*
X175106000Y-57404000D01*
X175104079Y-57384491D01*
X175098388Y-57365732D01*
X175089147Y-57348443D01*
X175076711Y-57333289D01*
X175061557Y-57320853D01*
X175044268Y-57311612D01*
X175025509Y-57305921D01*
X175006000Y-57304000D01*
X155702000Y-57304000D01*
X155682491Y-57305921D01*
X155663732Y-57311612D01*
X155646443Y-57320853D01*
X155631289Y-57333289D01*
X155618853Y-57348443D01*
X155609612Y-57365732D01*
X155603921Y-57384491D01*
X155602000Y-57404000D01*
X154656347Y-57404000D01*
X154444213Y-57339650D01*
X154178000Y-57313430D01*
X153911786Y-57339650D01*
X153655802Y-57417302D01*
X153419886Y-57543402D01*
X153213103Y-57713104D01*
X153043402Y-57919887D01*
X152917302Y-58155803D01*
X152908000Y-58186467D01*
X152898698Y-58155802D01*
X152772598Y-57919886D01*
X152602896Y-57713103D01*
X152396113Y-57543402D01*
X152160197Y-57417302D01*
X151904213Y-57339650D01*
X151638000Y-57313430D01*
X151371786Y-57339650D01*
X151115802Y-57417302D01*
X150879886Y-57543402D01*
X150673103Y-57713104D01*
X150503402Y-57919887D01*
X150377302Y-58155803D01*
X150368000Y-58186467D01*
X150358698Y-58155802D01*
X150232598Y-57919886D01*
X150062896Y-57713103D01*
X149856113Y-57543402D01*
X149620197Y-57417302D01*
X149364213Y-57339650D01*
X149098000Y-57313430D01*
X148831786Y-57339650D01*
X148575802Y-57417302D01*
X148339886Y-57543402D01*
X148133103Y-57713104D01*
X147963402Y-57919887D01*
X147837302Y-58155803D01*
X147828000Y-58186467D01*
X147818698Y-58155802D01*
X147692598Y-57919886D01*
X147522896Y-57713103D01*
X147316113Y-57543402D01*
X147080197Y-57417302D01*
X146824213Y-57339650D01*
X146558000Y-57313430D01*
X146291786Y-57339650D01*
X146035802Y-57417302D01*
X145799886Y-57543402D01*
X145593103Y-57713104D01*
X145423402Y-57919887D01*
X145297302Y-58155803D01*
X145288000Y-58186467D01*
X145278698Y-58155802D01*
X145152598Y-57919886D01*
X144982896Y-57713103D01*
X144776113Y-57543402D01*
X144540197Y-57417302D01*
X144284213Y-57339650D01*
X144018000Y-57313430D01*
X143751786Y-57339650D01*
X143495802Y-57417302D01*
X143259886Y-57543402D01*
X143053103Y-57713104D01*
X142883402Y-57919887D01*
X142757302Y-58155803D01*
X142748000Y-58186467D01*
X142738698Y-58155802D01*
X142612598Y-57919886D01*
X142442896Y-57713103D01*
X142236113Y-57543402D01*
X142000197Y-57417302D01*
X141744213Y-57339650D01*
X141478000Y-57313430D01*
X141211786Y-57339650D01*
X140955802Y-57417302D01*
X140719886Y-57543402D01*
X140513103Y-57713104D01*
X140343402Y-57919887D01*
X140217302Y-58155803D01*
X140208000Y-58186467D01*
X140198698Y-58155802D01*
X140072598Y-57919886D01*
X139902896Y-57713103D01*
X139696113Y-57543402D01*
X139460197Y-57417302D01*
X139204213Y-57339650D01*
X138938000Y-57313430D01*
X138671786Y-57339650D01*
X138415802Y-57417302D01*
X138179886Y-57543402D01*
X137973103Y-57713104D01*
X137803402Y-57919887D01*
X137677302Y-58155803D01*
X137668000Y-58186467D01*
X137658698Y-58155802D01*
X137532598Y-57919886D01*
X137362896Y-57713103D01*
X137156113Y-57543402D01*
X136920197Y-57417302D01*
X136664213Y-57339650D01*
X136398000Y-57313430D01*
X136131786Y-57339650D01*
X135875802Y-57417302D01*
X135639886Y-57543402D01*
X135433103Y-57713104D01*
X135263402Y-57919887D01*
X135137302Y-58155803D01*
X135128000Y-58186467D01*
X135118698Y-58155802D01*
X134992598Y-57919886D01*
X134822896Y-57713103D01*
X134616113Y-57543402D01*
X134380197Y-57417302D01*
X134124213Y-57339650D01*
X133858000Y-57313430D01*
X133591786Y-57339650D01*
X133335802Y-57417302D01*
X133099886Y-57543402D01*
X132893103Y-57713104D01*
X132723402Y-57919887D01*
X132597302Y-58155803D01*
X132588000Y-58186467D01*
X132578698Y-58155802D01*
X132452598Y-57919886D01*
X132282896Y-57713103D01*
X132076113Y-57543402D01*
X131840197Y-57417302D01*
X131584213Y-57339650D01*
X131318000Y-57313430D01*
X131051786Y-57339650D01*
X130795802Y-57417302D01*
X130559886Y-57543402D01*
X130353103Y-57713104D01*
X130183402Y-57919887D01*
X130057302Y-58155803D01*
X130048000Y-58186467D01*
X130038698Y-58155802D01*
X129912598Y-57919886D01*
X129742896Y-57713103D01*
X129536113Y-57543402D01*
X129300197Y-57417302D01*
X129044213Y-57339650D01*
X128778000Y-57313430D01*
X128511786Y-57339650D01*
X128255802Y-57417302D01*
X128019886Y-57543402D01*
X127813103Y-57713104D01*
X127643402Y-57919887D01*
X127517302Y-58155803D01*
X127508000Y-58186467D01*
X127498698Y-58155802D01*
X127372598Y-57919886D01*
X127202896Y-57713103D01*
X126996113Y-57543402D01*
X126760197Y-57417302D01*
X126504213Y-57339650D01*
X126238000Y-57313430D01*
X125971786Y-57339650D01*
X125715802Y-57417302D01*
X125479886Y-57543402D01*
X125273103Y-57713104D01*
X125103402Y-57919887D01*
X124977302Y-58155803D01*
X124899650Y-58411787D01*
X124880000Y-58611295D01*
X124847306Y-58611295D01*
X124855903Y-58595853D01*
X124817628Y-58371536D01*
X124736327Y-58158996D01*
X124615123Y-57966401D01*
X124458675Y-57801152D01*
X124272994Y-57669600D01*
X124065217Y-57576800D01*
X124024516Y-57575328D01*
X123848000Y-57638770D01*
X123548000Y-57638770D01*
X123371484Y-57575328D01*
X123330783Y-57576800D01*
X123123006Y-57669600D01*
X122937325Y-57801152D01*
X122780877Y-57966401D01*
X122659673Y-58158996D01*
X122578372Y-58371536D01*
X122540097Y-58595853D01*
X122514480Y-58595853D01*
X122496350Y-58411786D01*
X122418698Y-58155802D01*
X122292598Y-57919886D01*
X122122896Y-57713103D01*
X121916113Y-57543402D01*
X121680197Y-57417302D01*
X121424213Y-57339650D01*
X121158000Y-57313430D01*
X120891786Y-57339650D01*
X120635802Y-57417302D01*
X120399886Y-57543402D01*
X120193103Y-57713104D01*
X120023402Y-57919887D01*
X119897302Y-58155803D01*
X119888000Y-58186467D01*
X119878698Y-58155802D01*
X119752598Y-57919886D01*
X119582896Y-57713103D01*
X119376113Y-57543402D01*
X119140197Y-57417302D01*
X118884213Y-57339650D01*
X118618000Y-57313430D01*
X118351786Y-57339650D01*
X118095802Y-57417302D01*
X117859886Y-57543402D01*
X117653103Y-57713104D01*
X117483402Y-57919887D01*
X117357302Y-58155803D01*
X117348000Y-58186467D01*
X117338698Y-58155802D01*
X117212598Y-57919886D01*
X117042896Y-57713103D01*
X116836113Y-57543402D01*
X116600197Y-57417302D01*
X116344213Y-57339650D01*
X116078000Y-57313430D01*
X115811786Y-57339650D01*
X115555802Y-57417302D01*
X115319886Y-57543402D01*
X115113103Y-57713104D01*
X114943402Y-57919887D01*
X114817302Y-58155803D01*
X114808000Y-58186467D01*
X114798698Y-58155802D01*
X114672598Y-57919886D01*
X114502896Y-57713103D01*
X114296113Y-57543402D01*
X114060197Y-57417302D01*
X113804213Y-57339650D01*
X113538000Y-57313430D01*
X113271786Y-57339650D01*
X113015802Y-57417302D01*
X112779886Y-57543402D01*
X112573103Y-57713104D01*
X112403402Y-57919887D01*
X112277302Y-58155803D01*
X112268000Y-58186467D01*
X112258698Y-58155802D01*
X112132598Y-57919886D01*
X111962896Y-57713103D01*
X111756113Y-57543402D01*
X111520197Y-57417302D01*
X111264213Y-57339650D01*
X110998000Y-57313430D01*
X110731786Y-57339650D01*
X110475802Y-57417302D01*
X110239886Y-57543402D01*
X110033103Y-57713104D01*
X109863402Y-57919887D01*
X109737302Y-58155803D01*
X109659650Y-58411787D01*
X109640000Y-58611295D01*
X109607306Y-58611295D01*
X109615903Y-58595853D01*
X109577628Y-58371536D01*
X109496327Y-58158996D01*
X109375123Y-57966401D01*
X109218675Y-57801152D01*
X109032994Y-57669600D01*
X108825217Y-57576800D01*
X108784516Y-57575328D01*
X108608000Y-57638770D01*
X108308000Y-57638770D01*
X108131484Y-57575328D01*
X108090783Y-57576800D01*
X107883006Y-57669600D01*
X107697325Y-57801152D01*
X107540877Y-57966401D01*
X107419673Y-58158996D01*
X107338372Y-58371536D01*
X107300097Y-58595853D01*
X107274480Y-58595853D01*
X107256350Y-58411786D01*
X107178698Y-58155802D01*
X107052598Y-57919886D01*
X106882896Y-57713103D01*
X106676113Y-57543402D01*
X106440197Y-57417302D01*
X106184213Y-57339650D01*
X105918000Y-57313430D01*
X105651786Y-57339650D01*
X105395802Y-57417302D01*
X105159886Y-57543402D01*
X104953103Y-57713104D01*
X104783402Y-57919887D01*
X104657302Y-58155803D01*
X104579650Y-58411787D01*
X104560000Y-58611295D01*
X83943680Y-58611295D01*
X83951970Y-58591283D01*
X84008000Y-58309601D01*
X84008000Y-58022399D01*
X83951970Y-57740717D01*
X83842063Y-57475378D01*
X83682503Y-57236579D01*
X83479421Y-57033497D01*
X83240622Y-56873937D01*
X82975283Y-56764030D01*
X82693601Y-56708000D01*
X82406399Y-56708000D01*
X82124717Y-56764030D01*
X81859378Y-56873937D01*
X81620579Y-57033497D01*
X81458751Y-57195325D01*
X81424436Y-57082203D01*
X81367979Y-56976579D01*
X81292001Y-56883999D01*
X81199421Y-56808021D01*
X81093797Y-56751564D01*
X80979189Y-56716798D01*
X80860000Y-56705059D01*
X79160000Y-56705059D01*
X79040811Y-56716798D01*
X78926203Y-56751564D01*
X78820579Y-56808021D01*
X78727999Y-56883999D01*
X78652021Y-56976579D01*
X78595564Y-57082203D01*
X78560798Y-57196811D01*
X78549059Y-57316000D01*
X74318000Y-57316000D01*
X74318000Y-55995324D01*
X86984000Y-55995324D01*
X86984000Y-56272676D01*
X87038108Y-56544699D01*
X87144246Y-56800938D01*
X87298335Y-57031548D01*
X87494452Y-57227665D01*
X87725062Y-57381754D01*
X87981301Y-57487892D01*
X88253324Y-57542000D01*
X88530676Y-57542000D01*
X88802699Y-57487892D01*
X89058938Y-57381754D01*
X89289548Y-57227665D01*
X89485665Y-57031548D01*
X89639754Y-56800938D01*
X89745892Y-56544699D01*
X89800000Y-56272676D01*
X89800000Y-55995324D01*
X89745892Y-55723301D01*
X89639754Y-55467062D01*
X89485665Y-55236452D01*
X89289548Y-55040335D01*
X89058938Y-54886246D01*
X88802699Y-54780108D01*
X88530676Y-54726000D01*
X88253324Y-54726000D01*
X87981301Y-54780108D01*
X87725062Y-54886246D01*
X87494452Y-55040335D01*
X87298335Y-55236452D01*
X87144246Y-55467062D01*
X87038108Y-55723301D01*
X86984000Y-55995324D01*
X74318000Y-55995324D01*
X74318000Y-53936283D01*
X78807777Y-53936283D01*
X78820220Y-53977325D01*
X78917864Y-54202074D01*
X79057478Y-54403455D01*
X79233697Y-54573729D01*
X79439749Y-54706353D01*
X79667716Y-54796230D01*
X79860000Y-54734974D01*
X79860000Y-53744000D01*
X78869825Y-53744000D01*
X78807777Y-53936283D01*
X74318000Y-53936283D01*
X74318000Y-50204000D01*
X78549059Y-50204000D01*
X78549059Y-51904000D01*
X78560798Y-52023189D01*
X78595564Y-52137797D01*
X78652021Y-52243421D01*
X78727999Y-52336001D01*
X78820579Y-52411979D01*
X78926203Y-52468436D01*
X79040811Y-52503202D01*
X79160000Y-52514941D01*
X79388022Y-52514941D01*
X79233697Y-52614271D01*
X79057478Y-52784545D01*
X78917864Y-52985926D01*
X78820220Y-53210675D01*
X78807777Y-53251717D01*
X78869825Y-53444000D01*
X79860000Y-53444000D01*
X79860000Y-53424000D01*
X80160000Y-53424000D01*
X80160000Y-53444000D01*
X80180000Y-53444000D01*
X80180000Y-53744000D01*
X80160000Y-53744000D01*
X80160000Y-54734974D01*
X80352284Y-54796230D01*
X80580251Y-54706353D01*
X80786303Y-54573729D01*
X80962522Y-54403455D01*
X81102136Y-54202074D01*
X81164391Y-54058781D01*
X81257937Y-54284622D01*
X81417497Y-54523421D01*
X81620579Y-54726503D01*
X81859378Y-54886063D01*
X82124717Y-54995970D01*
X82406399Y-55052000D01*
X82693601Y-55052000D01*
X82975283Y-54995970D01*
X83240622Y-54886063D01*
X83479421Y-54726503D01*
X83682503Y-54523421D01*
X83842063Y-54284622D01*
X83951970Y-54019283D01*
X84005788Y-53748721D01*
X137676000Y-53748721D01*
X137676000Y-53947279D01*
X137714737Y-54142023D01*
X137790722Y-54325467D01*
X137901035Y-54490562D01*
X138041438Y-54630965D01*
X138206533Y-54741278D01*
X138389977Y-54817263D01*
X138584721Y-54856000D01*
X138783279Y-54856000D01*
X138978023Y-54817263D01*
X139161467Y-54741278D01*
X139326562Y-54630965D01*
X139466965Y-54490562D01*
X139577278Y-54325467D01*
X139653263Y-54142023D01*
X139692000Y-53947279D01*
X139692000Y-53748721D01*
X139653263Y-53553977D01*
X139577278Y-53370533D01*
X139466965Y-53205438D01*
X139326562Y-53065035D01*
X139161467Y-52954722D01*
X138978023Y-52878737D01*
X138783279Y-52840000D01*
X138584721Y-52840000D01*
X138389977Y-52878737D01*
X138206533Y-52954722D01*
X138041438Y-53065035D01*
X137901035Y-53205438D01*
X137790722Y-53370533D01*
X137714737Y-53553977D01*
X137676000Y-53748721D01*
X84005788Y-53748721D01*
X84008000Y-53737601D01*
X84008000Y-53450399D01*
X83951970Y-53168717D01*
X83842063Y-52903378D01*
X83682503Y-52664579D01*
X83479421Y-52461497D01*
X83240622Y-52301937D01*
X83014217Y-52208157D01*
X83120251Y-52166353D01*
X83326303Y-52033729D01*
X83502522Y-51863455D01*
X83642136Y-51662074D01*
X83739780Y-51437325D01*
X83744024Y-51423324D01*
X151754000Y-51423324D01*
X151754000Y-51700676D01*
X151808108Y-51972699D01*
X151914246Y-52228938D01*
X152068335Y-52459548D01*
X152264452Y-52655665D01*
X152495062Y-52809754D01*
X152751301Y-52915892D01*
X153023324Y-52970000D01*
X153300676Y-52970000D01*
X153572699Y-52915892D01*
X153828938Y-52809754D01*
X154059548Y-52655665D01*
X154255665Y-52459548D01*
X154409754Y-52228938D01*
X154515892Y-51972699D01*
X154570000Y-51700676D01*
X154570000Y-51423324D01*
X161914000Y-51423324D01*
X161914000Y-51700676D01*
X161968108Y-51972699D01*
X162074246Y-52228938D01*
X162228335Y-52459548D01*
X162424452Y-52655665D01*
X162655062Y-52809754D01*
X162911301Y-52915892D01*
X163183324Y-52970000D01*
X163460676Y-52970000D01*
X163732699Y-52915892D01*
X163988938Y-52809754D01*
X164219548Y-52655665D01*
X164415665Y-52459548D01*
X164569754Y-52228938D01*
X164675892Y-51972699D01*
X164730000Y-51700676D01*
X164730000Y-51423324D01*
X164675892Y-51151301D01*
X164569754Y-50895062D01*
X164415665Y-50664452D01*
X164219548Y-50468335D01*
X163988938Y-50314246D01*
X163732699Y-50208108D01*
X163460676Y-50154000D01*
X163183324Y-50154000D01*
X162911301Y-50208108D01*
X162655062Y-50314246D01*
X162424452Y-50468335D01*
X162228335Y-50664452D01*
X162074246Y-50895062D01*
X161968108Y-51151301D01*
X161914000Y-51423324D01*
X154570000Y-51423324D01*
X154515892Y-51151301D01*
X154409754Y-50895062D01*
X154255665Y-50664452D01*
X154059548Y-50468335D01*
X153828938Y-50314246D01*
X153572699Y-50208108D01*
X153300676Y-50154000D01*
X153023324Y-50154000D01*
X152751301Y-50208108D01*
X152495062Y-50314246D01*
X152264452Y-50468335D01*
X152068335Y-50664452D01*
X151914246Y-50895062D01*
X151808108Y-51151301D01*
X151754000Y-51423324D01*
X83744024Y-51423324D01*
X83752223Y-51396283D01*
X83690175Y-51204000D01*
X82700000Y-51204000D01*
X82700000Y-51224000D01*
X82400000Y-51224000D01*
X82400000Y-51204000D01*
X82380000Y-51204000D01*
X82380000Y-50904000D01*
X82400000Y-50904000D01*
X82400000Y-49913026D01*
X82700000Y-49913026D01*
X82700000Y-50904000D01*
X83690175Y-50904000D01*
X83752223Y-50711717D01*
X83739780Y-50670675D01*
X83642136Y-50445926D01*
X83502522Y-50244545D01*
X83326303Y-50074271D01*
X83120251Y-49941647D01*
X82892284Y-49851770D01*
X82700000Y-49913026D01*
X82400000Y-49913026D01*
X82207716Y-49851770D01*
X81979749Y-49941647D01*
X81773697Y-50074271D01*
X81597478Y-50244545D01*
X81470941Y-50427064D01*
X81470941Y-50204000D01*
X81459202Y-50084811D01*
X81424436Y-49970203D01*
X81367979Y-49864579D01*
X81292001Y-49771999D01*
X81199421Y-49696021D01*
X81093797Y-49639564D01*
X80979189Y-49604798D01*
X80860000Y-49593059D01*
X79160000Y-49593059D01*
X79040811Y-49604798D01*
X78926203Y-49639564D01*
X78820579Y-49696021D01*
X78727999Y-49771999D01*
X78652021Y-49864579D01*
X78595564Y-49970203D01*
X78560798Y-50084811D01*
X78549059Y-50204000D01*
X74318000Y-50204000D01*
X74318000Y-47714000D01*
X93839059Y-47714000D01*
X93839059Y-49314000D01*
X93850798Y-49433189D01*
X93885564Y-49547797D01*
X93942021Y-49653421D01*
X94017999Y-49746001D01*
X94110579Y-49821979D01*
X94216203Y-49878436D01*
X94330811Y-49913202D01*
X94450000Y-49924941D01*
X96050000Y-49924941D01*
X96169189Y-49913202D01*
X96283797Y-49878436D01*
X96389421Y-49821979D01*
X96482001Y-49746001D01*
X96557979Y-49653421D01*
X96614436Y-49547797D01*
X96649202Y-49433189D01*
X96660941Y-49314000D01*
X96660941Y-47768000D01*
X105069059Y-47768000D01*
X105069059Y-49768000D01*
X105080798Y-49887189D01*
X105115564Y-50001797D01*
X105172021Y-50107421D01*
X105247999Y-50200001D01*
X105340579Y-50275979D01*
X105446203Y-50332436D01*
X105560811Y-50367202D01*
X105680000Y-50378941D01*
X107680000Y-50378941D01*
X107799189Y-50367202D01*
X107913797Y-50332436D01*
X108019421Y-50275979D01*
X108112001Y-50200001D01*
X108187979Y-50107421D01*
X108244436Y-50001797D01*
X108279202Y-49887189D01*
X108288578Y-49791987D01*
X110868145Y-49791987D01*
X110979186Y-49987784D01*
X111230620Y-50101068D01*
X111499324Y-50163124D01*
X111774971Y-50171565D01*
X112046968Y-50126069D01*
X112304862Y-50028382D01*
X112380814Y-49987784D01*
X112491855Y-49791987D01*
X111680000Y-48980132D01*
X110868145Y-49791987D01*
X108288578Y-49791987D01*
X108290941Y-49768000D01*
X108290941Y-48862971D01*
X110276435Y-48862971D01*
X110321931Y-49134968D01*
X110419618Y-49392862D01*
X110460216Y-49468814D01*
X110656013Y-49579855D01*
X111467868Y-48768000D01*
X111892132Y-48768000D01*
X112703987Y-49579855D01*
X112899784Y-49468814D01*
X113013068Y-49217380D01*
X113075124Y-48948676D01*
X113083565Y-48673029D01*
X113038069Y-48401032D01*
X112940382Y-48143138D01*
X112899784Y-48067186D01*
X112703987Y-47956145D01*
X111892132Y-48768000D01*
X111467868Y-48768000D01*
X110656013Y-47956145D01*
X110460216Y-48067186D01*
X110346932Y-48318620D01*
X110284876Y-48587324D01*
X110276435Y-48862971D01*
X108290941Y-48862971D01*
X108290941Y-47768000D01*
X108288579Y-47744013D01*
X110868145Y-47744013D01*
X111680000Y-48555868D01*
X112491855Y-47744013D01*
X112380814Y-47548216D01*
X112129380Y-47434932D01*
X111860676Y-47372876D01*
X111585029Y-47364435D01*
X111313032Y-47409931D01*
X111055138Y-47507618D01*
X110979186Y-47548216D01*
X110868145Y-47744013D01*
X108288579Y-47744013D01*
X108279202Y-47648811D01*
X108244436Y-47534203D01*
X108187979Y-47428579D01*
X108112001Y-47335999D01*
X108019421Y-47260021D01*
X107913797Y-47203564D01*
X107799189Y-47168798D01*
X107680000Y-47157059D01*
X105680000Y-47157059D01*
X105560811Y-47168798D01*
X105446203Y-47203564D01*
X105340579Y-47260021D01*
X105247999Y-47335999D01*
X105172021Y-47428579D01*
X105115564Y-47534203D01*
X105080798Y-47648811D01*
X105069059Y-47768000D01*
X96660941Y-47768000D01*
X96660941Y-47714000D01*
X96649202Y-47594811D01*
X96614436Y-47480203D01*
X96557979Y-47374579D01*
X96482001Y-47281999D01*
X96389421Y-47206021D01*
X96283797Y-47149564D01*
X96230374Y-47133358D01*
X96306109Y-47095897D01*
X96399338Y-46878680D01*
X96448399Y-46647448D01*
X96451407Y-46411088D01*
X96408244Y-46178682D01*
X96320572Y-45959163D01*
X96306109Y-45932103D01*
X96130762Y-45845370D01*
X95462132Y-46514000D01*
X95476275Y-46528143D01*
X95264143Y-46740275D01*
X95250000Y-46726132D01*
X95235858Y-46740275D01*
X95023726Y-46528143D01*
X95037868Y-46514000D01*
X94369238Y-45845370D01*
X94193891Y-45932103D01*
X94100662Y-46149320D01*
X94051601Y-46380552D01*
X94048593Y-46616912D01*
X94091756Y-46849318D01*
X94179428Y-47068837D01*
X94193891Y-47095897D01*
X94269626Y-47133358D01*
X94216203Y-47149564D01*
X94110579Y-47206021D01*
X94017999Y-47281999D01*
X93942021Y-47374579D01*
X93885564Y-47480203D01*
X93850798Y-47594811D01*
X93839059Y-47714000D01*
X74318000Y-47714000D01*
X74318000Y-45835324D01*
X86984000Y-45835324D01*
X86984000Y-46112676D01*
X87038108Y-46384699D01*
X87144246Y-46640938D01*
X87298335Y-46871548D01*
X87494452Y-47067665D01*
X87725062Y-47221754D01*
X87981301Y-47327892D01*
X88253324Y-47382000D01*
X88530676Y-47382000D01*
X88802699Y-47327892D01*
X89058938Y-47221754D01*
X89289548Y-47067665D01*
X89485665Y-46871548D01*
X89639754Y-46640938D01*
X89745892Y-46384699D01*
X89800000Y-46112676D01*
X89800000Y-45835324D01*
X89759804Y-45633238D01*
X94581370Y-45633238D01*
X95250000Y-46301868D01*
X95918630Y-45633238D01*
X95831897Y-45457891D01*
X95614680Y-45364662D01*
X95383448Y-45315601D01*
X95147088Y-45312593D01*
X94914682Y-45355756D01*
X94695163Y-45443428D01*
X94668103Y-45457891D01*
X94581370Y-45633238D01*
X89759804Y-45633238D01*
X89745892Y-45563301D01*
X89639754Y-45307062D01*
X89485665Y-45076452D01*
X89289548Y-44880335D01*
X89190869Y-44814399D01*
X129352000Y-44814399D01*
X129352000Y-45101601D01*
X129408030Y-45383283D01*
X129517937Y-45648622D01*
X129677497Y-45887421D01*
X129880579Y-46090503D01*
X130086358Y-46228000D01*
X129880579Y-46365497D01*
X129677497Y-46568579D01*
X129517937Y-46807378D01*
X129408030Y-47072717D01*
X129352000Y-47354399D01*
X129352000Y-47641601D01*
X129408030Y-47923283D01*
X129517937Y-48188622D01*
X129677497Y-48427421D01*
X129880579Y-48630503D01*
X130119378Y-48790063D01*
X130384717Y-48899970D01*
X130666399Y-48956000D01*
X130953601Y-48956000D01*
X131235283Y-48899970D01*
X131500622Y-48790063D01*
X131739421Y-48630503D01*
X131942503Y-48427421D01*
X132080000Y-48221642D01*
X132217497Y-48427421D01*
X132420579Y-48630503D01*
X132659378Y-48790063D01*
X132924717Y-48899970D01*
X133206399Y-48956000D01*
X133493601Y-48956000D01*
X133775283Y-48899970D01*
X134040622Y-48790063D01*
X134279421Y-48630503D01*
X134482503Y-48427421D01*
X134620000Y-48221642D01*
X134757497Y-48427421D01*
X134960579Y-48630503D01*
X135199378Y-48790063D01*
X135464717Y-48899970D01*
X135746399Y-48956000D01*
X136033601Y-48956000D01*
X136315283Y-48899970D01*
X136580622Y-48790063D01*
X136819421Y-48630503D01*
X137022503Y-48427421D01*
X137160000Y-48221642D01*
X137297497Y-48427421D01*
X137500579Y-48630503D01*
X137739378Y-48790063D01*
X138004717Y-48899970D01*
X138286399Y-48956000D01*
X138573601Y-48956000D01*
X138855283Y-48899970D01*
X139120622Y-48790063D01*
X139359421Y-48630503D01*
X139562503Y-48427421D01*
X139700000Y-48221642D01*
X139837497Y-48427421D01*
X140040579Y-48630503D01*
X140279378Y-48790063D01*
X140544717Y-48899970D01*
X140826399Y-48956000D01*
X141113601Y-48956000D01*
X141395283Y-48899970D01*
X141660622Y-48790063D01*
X141899421Y-48630503D01*
X142102503Y-48427421D01*
X142240000Y-48221642D01*
X142377497Y-48427421D01*
X142580579Y-48630503D01*
X142819378Y-48790063D01*
X143084717Y-48899970D01*
X143366399Y-48956000D01*
X143653601Y-48956000D01*
X143935283Y-48899970D01*
X144200622Y-48790063D01*
X144439421Y-48630503D01*
X144642503Y-48427421D01*
X144780000Y-48221642D01*
X144917497Y-48427421D01*
X145120579Y-48630503D01*
X145359378Y-48790063D01*
X145624717Y-48899970D01*
X145906399Y-48956000D01*
X146193601Y-48956000D01*
X146475283Y-48899970D01*
X146740622Y-48790063D01*
X146979421Y-48630503D01*
X147182503Y-48427421D01*
X147320000Y-48221642D01*
X147457497Y-48427421D01*
X147660579Y-48630503D01*
X147899378Y-48790063D01*
X148164717Y-48899970D01*
X148446399Y-48956000D01*
X148733601Y-48956000D01*
X149015283Y-48899970D01*
X149280622Y-48790063D01*
X149462223Y-48668721D01*
X149868000Y-48668721D01*
X149868000Y-48867279D01*
X149906737Y-49062023D01*
X149982722Y-49245467D01*
X150093035Y-49410562D01*
X150233438Y-49550965D01*
X150398533Y-49661278D01*
X150581977Y-49737263D01*
X150776721Y-49776000D01*
X150975279Y-49776000D01*
X151170023Y-49737263D01*
X151353467Y-49661278D01*
X151518562Y-49550965D01*
X151658965Y-49410562D01*
X151769278Y-49245467D01*
X151845263Y-49062023D01*
X151884000Y-48867279D01*
X151884000Y-48668721D01*
X151845263Y-48473977D01*
X151796241Y-48355626D01*
X165524000Y-48355626D01*
X165524000Y-48672374D01*
X165585795Y-48983036D01*
X165707009Y-49275673D01*
X165882985Y-49539040D01*
X166106960Y-49763015D01*
X166370327Y-49938991D01*
X166662964Y-50060205D01*
X166973626Y-50122000D01*
X167290374Y-50122000D01*
X167601036Y-50060205D01*
X167893673Y-49938991D01*
X168157040Y-49763015D01*
X168381015Y-49539040D01*
X168556991Y-49275673D01*
X168678205Y-48983036D01*
X168740000Y-48672374D01*
X168740000Y-48355626D01*
X172024000Y-48355626D01*
X172024000Y-48672374D01*
X172085795Y-48983036D01*
X172207009Y-49275673D01*
X172382985Y-49539040D01*
X172606960Y-49763015D01*
X172870327Y-49938991D01*
X173162964Y-50060205D01*
X173473626Y-50122000D01*
X173790374Y-50122000D01*
X174101036Y-50060205D01*
X174393673Y-49938991D01*
X174657040Y-49763015D01*
X174881015Y-49539040D01*
X175056991Y-49275673D01*
X175178205Y-48983036D01*
X175240000Y-48672374D01*
X175240000Y-48355626D01*
X175178205Y-48044964D01*
X175056991Y-47752327D01*
X174881015Y-47488960D01*
X174657040Y-47264985D01*
X174393673Y-47089009D01*
X174101036Y-46967795D01*
X173790374Y-46906000D01*
X173473626Y-46906000D01*
X173162964Y-46967795D01*
X172870327Y-47089009D01*
X172606960Y-47264985D01*
X172382985Y-47488960D01*
X172207009Y-47752327D01*
X172085795Y-48044964D01*
X172024000Y-48355626D01*
X168740000Y-48355626D01*
X168678205Y-48044964D01*
X168556991Y-47752327D01*
X168381015Y-47488960D01*
X168157040Y-47264985D01*
X167893673Y-47089009D01*
X167601036Y-46967795D01*
X167290374Y-46906000D01*
X166973626Y-46906000D01*
X166662964Y-46967795D01*
X166370327Y-47089009D01*
X166106960Y-47264985D01*
X165882985Y-47488960D01*
X165707009Y-47752327D01*
X165585795Y-48044964D01*
X165524000Y-48355626D01*
X151796241Y-48355626D01*
X151769278Y-48290533D01*
X151658965Y-48125438D01*
X151518562Y-47985035D01*
X151353467Y-47874722D01*
X151170023Y-47798737D01*
X150975279Y-47760000D01*
X150776721Y-47760000D01*
X150581977Y-47798737D01*
X150398533Y-47874722D01*
X150233438Y-47985035D01*
X150093035Y-48125438D01*
X149982722Y-48290533D01*
X149906737Y-48473977D01*
X149868000Y-48668721D01*
X149462223Y-48668721D01*
X149519421Y-48630503D01*
X149722503Y-48427421D01*
X149882063Y-48188622D01*
X149991970Y-47923283D01*
X150048000Y-47641601D01*
X150048000Y-47354399D01*
X149991970Y-47072717D01*
X149882063Y-46807378D01*
X149722503Y-46568579D01*
X149560675Y-46406751D01*
X149673797Y-46372436D01*
X149779421Y-46315979D01*
X149872001Y-46240001D01*
X149947979Y-46147421D01*
X150004436Y-46041797D01*
X150039202Y-45927189D01*
X150050941Y-45808000D01*
X150050941Y-45441031D01*
X154955101Y-45441031D01*
X155017341Y-45595990D01*
X155200249Y-45669111D01*
X155393908Y-45705143D01*
X155590876Y-45702702D01*
X155783583Y-45661881D01*
X155942659Y-45595990D01*
X156004899Y-45441031D01*
X155480000Y-44916132D01*
X154955101Y-45441031D01*
X150050941Y-45441031D01*
X150050941Y-44617908D01*
X154478857Y-44617908D01*
X154481298Y-44814876D01*
X154522119Y-45007583D01*
X154588010Y-45166659D01*
X154742969Y-45228899D01*
X155267868Y-44704000D01*
X155692132Y-44704000D01*
X156217031Y-45228899D01*
X156269059Y-45208002D01*
X156269059Y-45304000D01*
X156280798Y-45423189D01*
X156315564Y-45537797D01*
X156372021Y-45643421D01*
X156447999Y-45736001D01*
X156540579Y-45811979D01*
X156646203Y-45868436D01*
X156760811Y-45903202D01*
X156880000Y-45914941D01*
X158080000Y-45914941D01*
X158199189Y-45903202D01*
X158313797Y-45868436D01*
X158419421Y-45811979D01*
X158512001Y-45736001D01*
X158587979Y-45643421D01*
X158644436Y-45537797D01*
X158679202Y-45423189D01*
X158690941Y-45304000D01*
X158690941Y-45037987D01*
X166320145Y-45037987D01*
X166431186Y-45233784D01*
X166682620Y-45347068D01*
X166951324Y-45409124D01*
X167226971Y-45417565D01*
X167498968Y-45372069D01*
X167756862Y-45274382D01*
X167832814Y-45233784D01*
X167943855Y-45037987D01*
X172820145Y-45037987D01*
X172931186Y-45233784D01*
X173182620Y-45347068D01*
X173451324Y-45409124D01*
X173726971Y-45417565D01*
X173998968Y-45372069D01*
X174256862Y-45274382D01*
X174332814Y-45233784D01*
X174443855Y-45037987D01*
X173632000Y-44226132D01*
X172820145Y-45037987D01*
X167943855Y-45037987D01*
X167132000Y-44226132D01*
X166320145Y-45037987D01*
X158690941Y-45037987D01*
X158690941Y-44108971D01*
X165728435Y-44108971D01*
X165773931Y-44380968D01*
X165871618Y-44638862D01*
X165912216Y-44714814D01*
X166108013Y-44825855D01*
X166919868Y-44014000D01*
X167344132Y-44014000D01*
X168155987Y-44825855D01*
X168351784Y-44714814D01*
X168465068Y-44463380D01*
X168527124Y-44194676D01*
X168529748Y-44108971D01*
X172228435Y-44108971D01*
X172273931Y-44380968D01*
X172371618Y-44638862D01*
X172412216Y-44714814D01*
X172608013Y-44825855D01*
X173419868Y-44014000D01*
X173844132Y-44014000D01*
X174655987Y-44825855D01*
X174851784Y-44714814D01*
X174965068Y-44463380D01*
X175027124Y-44194676D01*
X175035565Y-43919029D01*
X174990069Y-43647032D01*
X174892382Y-43389138D01*
X174851784Y-43313186D01*
X174655987Y-43202145D01*
X173844132Y-44014000D01*
X173419868Y-44014000D01*
X172608013Y-43202145D01*
X172412216Y-43313186D01*
X172298932Y-43564620D01*
X172236876Y-43833324D01*
X172228435Y-44108971D01*
X168529748Y-44108971D01*
X168535565Y-43919029D01*
X168490069Y-43647032D01*
X168392382Y-43389138D01*
X168351784Y-43313186D01*
X168155987Y-43202145D01*
X167344132Y-44014000D01*
X166919868Y-44014000D01*
X166108013Y-43202145D01*
X165912216Y-43313186D01*
X165798932Y-43564620D01*
X165736876Y-43833324D01*
X165728435Y-44108971D01*
X158690941Y-44108971D01*
X158690941Y-44104000D01*
X158679202Y-43984811D01*
X158644436Y-43870203D01*
X158587979Y-43764579D01*
X158512001Y-43671999D01*
X158419421Y-43596021D01*
X158313797Y-43539564D01*
X158199189Y-43504798D01*
X158080000Y-43493059D01*
X156880000Y-43493059D01*
X156760811Y-43504798D01*
X156646203Y-43539564D01*
X156540579Y-43596021D01*
X156447999Y-43671999D01*
X156372021Y-43764579D01*
X156315564Y-43870203D01*
X156280798Y-43984811D01*
X156269059Y-44104000D01*
X156269059Y-44199998D01*
X156217031Y-44179101D01*
X155692132Y-44704000D01*
X155267868Y-44704000D01*
X154742969Y-44179101D01*
X154588010Y-44241341D01*
X154514889Y-44424249D01*
X154478857Y-44617908D01*
X150050941Y-44617908D01*
X150050941Y-44108000D01*
X150039202Y-43988811D01*
X150032577Y-43966969D01*
X154955101Y-43966969D01*
X155480000Y-44491868D01*
X156004899Y-43966969D01*
X155942659Y-43812010D01*
X155759751Y-43738889D01*
X155566092Y-43702857D01*
X155369124Y-43705298D01*
X155176417Y-43746119D01*
X155017341Y-43812010D01*
X154955101Y-43966969D01*
X150032577Y-43966969D01*
X150004436Y-43874203D01*
X149947979Y-43768579D01*
X149872001Y-43675999D01*
X149779421Y-43600021D01*
X149673797Y-43543564D01*
X149559189Y-43508798D01*
X149440000Y-43497059D01*
X147740000Y-43497059D01*
X147620811Y-43508798D01*
X147506203Y-43543564D01*
X147400579Y-43600021D01*
X147307999Y-43675999D01*
X147232021Y-43768579D01*
X147175564Y-43874203D01*
X147141249Y-43987325D01*
X146979421Y-43825497D01*
X146740622Y-43665937D01*
X146475283Y-43556030D01*
X146193601Y-43500000D01*
X145906399Y-43500000D01*
X145624717Y-43556030D01*
X145359378Y-43665937D01*
X145120579Y-43825497D01*
X144917497Y-44028579D01*
X144780000Y-44234358D01*
X144642503Y-44028579D01*
X144439421Y-43825497D01*
X144200622Y-43665937D01*
X143935283Y-43556030D01*
X143653601Y-43500000D01*
X143366399Y-43500000D01*
X143084717Y-43556030D01*
X142819378Y-43665937D01*
X142580579Y-43825497D01*
X142377497Y-44028579D01*
X142240000Y-44234358D01*
X142102503Y-44028579D01*
X141899421Y-43825497D01*
X141660622Y-43665937D01*
X141395283Y-43556030D01*
X141113601Y-43500000D01*
X140826399Y-43500000D01*
X140544717Y-43556030D01*
X140279378Y-43665937D01*
X140040579Y-43825497D01*
X139837497Y-44028579D01*
X139700000Y-44234358D01*
X139562503Y-44028579D01*
X139359421Y-43825497D01*
X139120622Y-43665937D01*
X138855283Y-43556030D01*
X138573601Y-43500000D01*
X138286399Y-43500000D01*
X138004717Y-43556030D01*
X137739378Y-43665937D01*
X137500579Y-43825497D01*
X137297497Y-44028579D01*
X137160000Y-44234358D01*
X137022503Y-44028579D01*
X136819421Y-43825497D01*
X136580622Y-43665937D01*
X136315283Y-43556030D01*
X136033601Y-43500000D01*
X135746399Y-43500000D01*
X135464717Y-43556030D01*
X135199378Y-43665937D01*
X134960579Y-43825497D01*
X134757497Y-44028579D01*
X134597937Y-44267378D01*
X134504157Y-44493783D01*
X134462353Y-44387749D01*
X134329729Y-44181697D01*
X134159455Y-44005478D01*
X133958074Y-43865864D01*
X133733325Y-43768220D01*
X133692283Y-43755777D01*
X133500000Y-43817825D01*
X133500000Y-44808000D01*
X133520000Y-44808000D01*
X133520000Y-45108000D01*
X133500000Y-45108000D01*
X133500000Y-45128000D01*
X133200000Y-45128000D01*
X133200000Y-45108000D01*
X133180000Y-45108000D01*
X133180000Y-44808000D01*
X133200000Y-44808000D01*
X133200000Y-43817825D01*
X133007717Y-43755777D01*
X132966675Y-43768220D01*
X132741926Y-43865864D01*
X132540545Y-44005478D01*
X132370271Y-44181697D01*
X132237647Y-44387749D01*
X132195843Y-44493783D01*
X132102063Y-44267378D01*
X131942503Y-44028579D01*
X131739421Y-43825497D01*
X131500622Y-43665937D01*
X131235283Y-43556030D01*
X130953601Y-43500000D01*
X130666399Y-43500000D01*
X130384717Y-43556030D01*
X130119378Y-43665937D01*
X129880579Y-43825497D01*
X129677497Y-44028579D01*
X129517937Y-44267378D01*
X129408030Y-44532717D01*
X129352000Y-44814399D01*
X89190869Y-44814399D01*
X89058938Y-44726246D01*
X88802699Y-44620108D01*
X88530676Y-44566000D01*
X88253324Y-44566000D01*
X87981301Y-44620108D01*
X87725062Y-44726246D01*
X87494452Y-44880335D01*
X87298335Y-45076452D01*
X87144246Y-45307062D01*
X87038108Y-45563301D01*
X86984000Y-45835324D01*
X74318000Y-45835324D01*
X74318000Y-42318721D01*
X143772000Y-42318721D01*
X143772000Y-42517279D01*
X143810737Y-42712023D01*
X143886722Y-42895467D01*
X143997035Y-43060562D01*
X144137438Y-43200965D01*
X144302533Y-43311278D01*
X144485977Y-43387263D01*
X144680721Y-43426000D01*
X144879279Y-43426000D01*
X145074023Y-43387263D01*
X145257467Y-43311278D01*
X145422562Y-43200965D01*
X145562965Y-43060562D01*
X145610104Y-42990013D01*
X166320145Y-42990013D01*
X167132000Y-43801868D01*
X167943855Y-42990013D01*
X172820145Y-42990013D01*
X173632000Y-43801868D01*
X174443855Y-42990013D01*
X174332814Y-42794216D01*
X174081380Y-42680932D01*
X173812676Y-42618876D01*
X173537029Y-42610435D01*
X173265032Y-42655931D01*
X173007138Y-42753618D01*
X172931186Y-42794216D01*
X172820145Y-42990013D01*
X167943855Y-42990013D01*
X167832814Y-42794216D01*
X167581380Y-42680932D01*
X167312676Y-42618876D01*
X167037029Y-42610435D01*
X166765032Y-42655931D01*
X166507138Y-42753618D01*
X166431186Y-42794216D01*
X166320145Y-42990013D01*
X145610104Y-42990013D01*
X145673278Y-42895467D01*
X145749263Y-42712023D01*
X145788000Y-42517279D01*
X145788000Y-42318721D01*
X145749263Y-42123977D01*
X145673278Y-41940533D01*
X145562965Y-41775438D01*
X145422562Y-41635035D01*
X145257467Y-41524722D01*
X145074023Y-41448737D01*
X144879279Y-41410000D01*
X144680721Y-41410000D01*
X144485977Y-41448737D01*
X144302533Y-41524722D01*
X144137438Y-41635035D01*
X143997035Y-41775438D01*
X143886722Y-41940533D01*
X143810737Y-42123977D01*
X143772000Y-42318721D01*
X74318000Y-42318721D01*
X74318000Y-41298000D01*
X177904000Y-41298000D01*
X177904001Y-90782000D01*
G37*
X177904001Y-90782000D02*
X172519043Y-90782000D01*
X172664078Y-90564938D01*
X172767352Y-90315614D01*
X172820000Y-90050933D01*
X172820000Y-89781067D01*
X172767352Y-89516386D01*
X172664078Y-89267062D01*
X172514149Y-89042676D01*
X172323324Y-88851851D01*
X172098938Y-88701922D01*
X171849614Y-88598648D01*
X171584933Y-88546000D01*
X171315067Y-88546000D01*
X171050386Y-88598648D01*
X170801062Y-88701922D01*
X170576676Y-88851851D01*
X170385851Y-89042676D01*
X170235922Y-89267062D01*
X170132648Y-89516386D01*
X170080000Y-89781067D01*
X170080000Y-90050933D01*
X170132648Y-90315614D01*
X170235922Y-90564938D01*
X170380957Y-90782000D01*
X168963043Y-90782000D01*
X169108078Y-90564938D01*
X169211352Y-90315614D01*
X169264000Y-90050933D01*
X169264000Y-89781067D01*
X169211352Y-89516386D01*
X169108078Y-89267062D01*
X168958149Y-89042676D01*
X168767324Y-88851851D01*
X168542938Y-88701922D01*
X168407931Y-88646000D01*
X168542938Y-88590078D01*
X168767324Y-88440149D01*
X168958149Y-88249324D01*
X168971394Y-88229501D01*
X170808632Y-88229501D01*
X170890728Y-88400967D01*
X171101435Y-88490381D01*
X171325538Y-88536970D01*
X171554423Y-88538944D01*
X171701171Y-88511067D01*
X172620000Y-88511067D01*
X172620000Y-88780933D01*
X172672648Y-89045614D01*
X172775922Y-89294938D01*
X172925851Y-89519324D01*
X173116676Y-89710149D01*
X173341062Y-89860078D01*
X173590386Y-89963352D01*
X173855067Y-90016000D01*
X174124933Y-90016000D01*
X174389614Y-89963352D01*
X174638938Y-89860078D01*
X174863324Y-89710149D01*
X175054149Y-89519324D01*
X175204078Y-89294938D01*
X175307352Y-89045614D01*
X175360000Y-88780933D01*
X175360000Y-88511067D01*
X175307352Y-88246386D01*
X175204078Y-87997062D01*
X175054149Y-87772676D01*
X174863324Y-87581851D01*
X174638938Y-87431922D01*
X174389614Y-87328648D01*
X174124933Y-87276000D01*
X173855067Y-87276000D01*
X173590386Y-87328648D01*
X173341062Y-87431922D01*
X173116676Y-87581851D01*
X172925851Y-87772676D01*
X172775922Y-87997062D01*
X172672648Y-88246386D01*
X172620000Y-88511067D01*
X171701171Y-88511067D01*
X171779296Y-88496226D01*
X171991514Y-88410459D01*
X172009272Y-88400967D01*
X172091368Y-88229501D01*
X171450000Y-87588132D01*
X170808632Y-88229501D01*
X168971394Y-88229501D01*
X169108078Y-88024938D01*
X169211352Y-87775614D01*
X169264000Y-87510933D01*
X169264000Y-87480423D01*
X170287056Y-87480423D01*
X170329774Y-87705296D01*
X170415541Y-87917514D01*
X170425033Y-87935272D01*
X170596499Y-88017368D01*
X171237868Y-87376000D01*
X171662132Y-87376000D01*
X172303501Y-88017368D01*
X172474967Y-87935272D01*
X172564381Y-87724565D01*
X172610970Y-87500462D01*
X172612944Y-87271577D01*
X172570226Y-87046704D01*
X172484459Y-86834486D01*
X172474967Y-86816728D01*
X172303501Y-86734632D01*
X171662132Y-87376000D01*
X171237868Y-87376000D01*
X170596499Y-86734632D01*
X170425033Y-86816728D01*
X170335619Y-87027435D01*
X170289030Y-87251538D01*
X170287056Y-87480423D01*
X169264000Y-87480423D01*
X169264000Y-87241067D01*
X169211352Y-86976386D01*
X169108078Y-86727062D01*
X168971395Y-86522499D01*
X170808632Y-86522499D01*
X171450000Y-87163868D01*
X172091368Y-86522499D01*
X172009272Y-86351033D01*
X171798565Y-86261619D01*
X171574462Y-86215030D01*
X171345577Y-86213056D01*
X171120704Y-86255774D01*
X170908486Y-86341541D01*
X170890728Y-86351033D01*
X170808632Y-86522499D01*
X168971395Y-86522499D01*
X168958149Y-86502676D01*
X168767324Y-86311851D01*
X168542938Y-86161922D01*
X168293614Y-86058648D01*
X168028933Y-86006000D01*
X167759067Y-86006000D01*
X167494386Y-86058648D01*
X167245062Y-86161922D01*
X167020676Y-86311851D01*
X166829851Y-86502676D01*
X166679922Y-86727062D01*
X166576648Y-86976386D01*
X166524000Y-87241067D01*
X166524000Y-87510933D01*
X166576648Y-87775614D01*
X166679922Y-88024938D01*
X166829851Y-88249324D01*
X167020676Y-88440149D01*
X167245062Y-88590078D01*
X167380069Y-88646000D01*
X167245062Y-88701922D01*
X167020676Y-88851851D01*
X166829851Y-89042676D01*
X166679922Y-89267062D01*
X166576648Y-89516386D01*
X166524000Y-89781067D01*
X166524000Y-90050933D01*
X166576648Y-90315614D01*
X166679922Y-90564938D01*
X166824957Y-90782000D01*
X165407043Y-90782000D01*
X165552078Y-90564938D01*
X165655352Y-90315614D01*
X165708000Y-90050933D01*
X165708000Y-89781067D01*
X165655352Y-89516386D01*
X165552078Y-89267062D01*
X165402149Y-89042676D01*
X165211324Y-88851851D01*
X164986938Y-88701922D01*
X164851931Y-88646000D01*
X164986938Y-88590078D01*
X165211324Y-88440149D01*
X165402149Y-88249324D01*
X165552078Y-88024938D01*
X165655352Y-87775614D01*
X165708000Y-87510933D01*
X165708000Y-87241067D01*
X165655352Y-86976386D01*
X165552078Y-86727062D01*
X165402149Y-86502676D01*
X165211324Y-86311851D01*
X164986938Y-86161922D01*
X164737614Y-86058648D01*
X164472933Y-86006000D01*
X164203067Y-86006000D01*
X163938386Y-86058648D01*
X163689062Y-86161922D01*
X163464676Y-86311851D01*
X163273851Y-86502676D01*
X163123922Y-86727062D01*
X163020648Y-86976386D01*
X162968000Y-87241067D01*
X162968000Y-87510933D01*
X163020648Y-87775614D01*
X163123922Y-88024938D01*
X163273851Y-88249324D01*
X163464676Y-88440149D01*
X163689062Y-88590078D01*
X163824069Y-88646000D01*
X163689062Y-88701922D01*
X163464676Y-88851851D01*
X163273851Y-89042676D01*
X163123922Y-89267062D01*
X163020648Y-89516386D01*
X162968000Y-89781067D01*
X162968000Y-90050933D01*
X163020648Y-90315614D01*
X163123922Y-90564938D01*
X163268957Y-90782000D01*
X74318000Y-90782000D01*
X74318000Y-88511067D01*
X160428000Y-88511067D01*
X160428000Y-88780933D01*
X160480648Y-89045614D01*
X160583922Y-89294938D01*
X160733851Y-89519324D01*
X160924676Y-89710149D01*
X161149062Y-89860078D01*
X161398386Y-89963352D01*
X161663067Y-90016000D01*
X161932933Y-90016000D01*
X162197614Y-89963352D01*
X162446938Y-89860078D01*
X162671324Y-89710149D01*
X162862149Y-89519324D01*
X163012078Y-89294938D01*
X163115352Y-89045614D01*
X163168000Y-88780933D01*
X163168000Y-88511067D01*
X163115352Y-88246386D01*
X163012078Y-87997062D01*
X162862149Y-87772676D01*
X162671324Y-87581851D01*
X162446938Y-87431922D01*
X162197614Y-87328648D01*
X161932933Y-87276000D01*
X161663067Y-87276000D01*
X161398386Y-87328648D01*
X161149062Y-87431922D01*
X160924676Y-87581851D01*
X160733851Y-87772676D01*
X160583922Y-87997062D01*
X160480648Y-88246386D01*
X160428000Y-88511067D01*
X74318000Y-88511067D01*
X74318000Y-86551295D01*
X104560000Y-86551295D01*
X104560000Y-87184706D01*
X104579650Y-87384214D01*
X104657302Y-87640198D01*
X104783402Y-87876114D01*
X104953104Y-88082897D01*
X105159887Y-88252598D01*
X105395803Y-88378698D01*
X105651787Y-88456350D01*
X105918000Y-88482570D01*
X106184214Y-88456350D01*
X106440198Y-88378698D01*
X106676114Y-88252598D01*
X106882897Y-88082897D01*
X107052598Y-87876114D01*
X107117075Y-87755486D01*
X107208985Y-87893040D01*
X107432960Y-88117015D01*
X107696327Y-88292991D01*
X107988964Y-88414205D01*
X108299626Y-88476000D01*
X108616374Y-88476000D01*
X108927036Y-88414205D01*
X109219673Y-88292991D01*
X109483040Y-88117015D01*
X109707015Y-87893040D01*
X109798925Y-87755487D01*
X109863402Y-87876114D01*
X110033104Y-88082897D01*
X110239887Y-88252598D01*
X110475803Y-88378698D01*
X110731787Y-88456350D01*
X110998000Y-88482570D01*
X111264214Y-88456350D01*
X111520198Y-88378698D01*
X111756114Y-88252598D01*
X111962897Y-88082897D01*
X112132598Y-87876114D01*
X112258698Y-87640197D01*
X112268000Y-87609533D01*
X112277302Y-87640198D01*
X112403402Y-87876114D01*
X112573104Y-88082897D01*
X112779887Y-88252598D01*
X113015803Y-88378698D01*
X113271787Y-88456350D01*
X113538000Y-88482570D01*
X113804214Y-88456350D01*
X114060198Y-88378698D01*
X114296114Y-88252598D01*
X114502897Y-88082897D01*
X114672598Y-87876114D01*
X114798698Y-87640197D01*
X114808000Y-87609533D01*
X114817302Y-87640198D01*
X114943402Y-87876114D01*
X115113104Y-88082897D01*
X115319887Y-88252598D01*
X115555803Y-88378698D01*
X115811787Y-88456350D01*
X116078000Y-88482570D01*
X116344214Y-88456350D01*
X116600198Y-88378698D01*
X116836114Y-88252598D01*
X117042897Y-88082897D01*
X117212598Y-87876114D01*
X117338698Y-87640197D01*
X117348000Y-87609533D01*
X117357302Y-87640198D01*
X117483402Y-87876114D01*
X117653104Y-88082897D01*
X117859887Y-88252598D01*
X118095803Y-88378698D01*
X118351787Y-88456350D01*
X118618000Y-88482570D01*
X118884214Y-88456350D01*
X119140198Y-88378698D01*
X119376114Y-88252598D01*
X119582897Y-88082897D01*
X119752598Y-87876114D01*
X119878698Y-87640197D01*
X119888000Y-87609533D01*
X119897302Y-87640198D01*
X120023402Y-87876114D01*
X120193104Y-88082897D01*
X120399887Y-88252598D01*
X120635803Y-88378698D01*
X120891787Y-88456350D01*
X121158000Y-88482570D01*
X121424214Y-88456350D01*
X121680198Y-88378698D01*
X121916114Y-88252598D01*
X122122897Y-88082897D01*
X122292598Y-87876114D01*
X122418698Y-87640197D01*
X122428000Y-87609533D01*
X122437302Y-87640198D01*
X122563402Y-87876114D01*
X122733104Y-88082897D01*
X122939887Y-88252598D01*
X123175803Y-88378698D01*
X123431787Y-88456350D01*
X123698000Y-88482570D01*
X123964214Y-88456350D01*
X124220198Y-88378698D01*
X124456114Y-88252598D01*
X124662897Y-88082897D01*
X124832598Y-87876114D01*
X124958698Y-87640197D01*
X124968000Y-87609533D01*
X124977302Y-87640198D01*
X125103402Y-87876114D01*
X125273104Y-88082897D01*
X125479887Y-88252598D01*
X125715803Y-88378698D01*
X125971787Y-88456350D01*
X126238000Y-88482570D01*
X126504214Y-88456350D01*
X126760198Y-88378698D01*
X126996114Y-88252598D01*
X127202897Y-88082897D01*
X127372598Y-87876114D01*
X127498698Y-87640197D01*
X127508000Y-87609533D01*
X127517302Y-87640198D01*
X127643402Y-87876114D01*
X127813104Y-88082897D01*
X128019887Y-88252598D01*
X128255803Y-88378698D01*
X128511787Y-88456350D01*
X128778000Y-88482570D01*
X129044214Y-88456350D01*
X129300198Y-88378698D01*
X129536114Y-88252598D01*
X129742897Y-88082897D01*
X129912598Y-87876114D01*
X130038698Y-87640197D01*
X130048000Y-87609533D01*
X130057302Y-87640198D01*
X130183402Y-87876114D01*
X130353104Y-88082897D01*
X130559887Y-88252598D01*
X130795803Y-88378698D01*
X131051787Y-88456350D01*
X131318000Y-88482570D01*
X131584214Y-88456350D01*
X131840198Y-88378698D01*
X132076114Y-88252598D01*
X132282897Y-88082897D01*
X132452598Y-87876114D01*
X132578698Y-87640197D01*
X132588000Y-87609533D01*
X132597302Y-87640198D01*
X132723402Y-87876114D01*
X132893104Y-88082897D01*
X133099887Y-88252598D01*
X133335803Y-88378698D01*
X133591787Y-88456350D01*
X133858000Y-88482570D01*
X134124214Y-88456350D01*
X134380198Y-88378698D01*
X134616114Y-88252598D01*
X134822897Y-88082897D01*
X134992598Y-87876114D01*
X135118698Y-87640197D01*
X135128000Y-87609533D01*
X135137302Y-87640198D01*
X135263402Y-87876114D01*
X135433104Y-88082897D01*
X135639887Y-88252598D01*
X135875803Y-88378698D01*
X136131787Y-88456350D01*
X136398000Y-88482570D01*
X136664214Y-88456350D01*
X136920198Y-88378698D01*
X137156114Y-88252598D01*
X137362897Y-88082897D01*
X137532598Y-87876114D01*
X137658698Y-87640197D01*
X137668000Y-87609533D01*
X137677302Y-87640198D01*
X137803402Y-87876114D01*
X137973104Y-88082897D01*
X138179887Y-88252598D01*
X138415803Y-88378698D01*
X138671787Y-88456350D01*
X138938000Y-88482570D01*
X139204214Y-88456350D01*
X139460198Y-88378698D01*
X139696114Y-88252598D01*
X139902897Y-88082897D01*
X140059571Y-87891987D01*
X140666145Y-87891987D01*
X140777186Y-88087784D01*
X141028620Y-88201068D01*
X141297324Y-88263124D01*
X141572971Y-88271565D01*
X141844968Y-88226069D01*
X142102862Y-88128382D01*
X142178814Y-88087784D01*
X142289855Y-87891987D01*
X141478000Y-87080132D01*
X140666145Y-87891987D01*
X140059571Y-87891987D01*
X140072598Y-87876114D01*
X140198698Y-87640197D01*
X140234060Y-87523623D01*
X140258216Y-87568814D01*
X140454013Y-87679855D01*
X141265868Y-86868000D01*
X141690132Y-86868000D01*
X142501987Y-87679855D01*
X142697784Y-87568814D01*
X142720413Y-87518590D01*
X142757302Y-87640198D01*
X142883402Y-87876114D01*
X143053104Y-88082897D01*
X143259887Y-88252598D01*
X143495803Y-88378698D01*
X143751787Y-88456350D01*
X144018000Y-88482570D01*
X144284214Y-88456350D01*
X144540198Y-88378698D01*
X144776114Y-88252598D01*
X144982897Y-88082897D01*
X145152598Y-87876114D01*
X145278698Y-87640197D01*
X145288000Y-87609533D01*
X145297302Y-87640198D01*
X145423402Y-87876114D01*
X145593104Y-88082897D01*
X145799887Y-88252598D01*
X146035803Y-88378698D01*
X146291787Y-88456350D01*
X146558000Y-88482570D01*
X146824214Y-88456350D01*
X147080198Y-88378698D01*
X147316114Y-88252598D01*
X147522897Y-88082897D01*
X147692598Y-87876114D01*
X147818698Y-87640197D01*
X147828000Y-87609533D01*
X147837302Y-87640198D01*
X147963402Y-87876114D01*
X148133104Y-88082897D01*
X148339887Y-88252598D01*
X148575803Y-88378698D01*
X148831787Y-88456350D01*
X149098000Y-88482570D01*
X149364214Y-88456350D01*
X149620198Y-88378698D01*
X149856114Y-88252598D01*
X150062897Y-88082897D01*
X150232598Y-87876114D01*
X150358698Y-87640197D01*
X150368000Y-87609533D01*
X150377302Y-87640198D01*
X150503402Y-87876114D01*
X150673104Y-88082897D01*
X150879887Y-88252598D01*
X151115803Y-88378698D01*
X151371787Y-88456350D01*
X151638000Y-88482570D01*
X151904214Y-88456350D01*
X152160198Y-88378698D01*
X152396114Y-88252598D01*
X152602897Y-88082897D01*
X152772598Y-87876114D01*
X152837075Y-87755486D01*
X152928985Y-87893040D01*
X153152960Y-88117015D01*
X153416327Y-88292991D01*
X153708964Y-88414205D01*
X154019626Y-88476000D01*
X154336374Y-88476000D01*
X154647036Y-88414205D01*
X154939673Y-88292991D01*
X155203040Y-88117015D01*
X155427015Y-87893040D01*
X155602991Y-87629673D01*
X155724205Y-87337036D01*
X155786000Y-87026374D01*
X155786000Y-86709626D01*
X155724205Y-86398964D01*
X155602991Y-86106327D01*
X155427015Y-85842960D01*
X155203040Y-85618985D01*
X154939673Y-85443009D01*
X154647036Y-85321795D01*
X154336374Y-85260000D01*
X154019626Y-85260000D01*
X153708964Y-85321795D01*
X153416327Y-85443009D01*
X153152960Y-85618985D01*
X152928985Y-85842960D01*
X152837075Y-85980513D01*
X152772598Y-85859886D01*
X152602896Y-85653103D01*
X152396113Y-85483402D01*
X152160197Y-85357302D01*
X151904213Y-85279650D01*
X151638000Y-85253430D01*
X151371786Y-85279650D01*
X151115802Y-85357302D01*
X150879886Y-85483402D01*
X150673103Y-85653104D01*
X150503402Y-85859887D01*
X150377302Y-86095803D01*
X150368000Y-86126467D01*
X150358698Y-86095802D01*
X150232598Y-85859886D01*
X150062896Y-85653103D01*
X149856113Y-85483402D01*
X149620197Y-85357302D01*
X149364213Y-85279650D01*
X149098000Y-85253430D01*
X148831786Y-85279650D01*
X148575802Y-85357302D01*
X148339886Y-85483402D01*
X148133103Y-85653104D01*
X147963402Y-85859887D01*
X147837302Y-86095803D01*
X147828000Y-86126467D01*
X147818698Y-86095802D01*
X147692598Y-85859886D01*
X147522896Y-85653103D01*
X147316113Y-85483402D01*
X147080197Y-85357302D01*
X146824213Y-85279650D01*
X146558000Y-85253430D01*
X146291786Y-85279650D01*
X146035802Y-85357302D01*
X145799886Y-85483402D01*
X145593103Y-85653104D01*
X145423402Y-85859887D01*
X145297302Y-86095803D01*
X145288000Y-86126467D01*
X145278698Y-86095802D01*
X145152598Y-85859886D01*
X144982896Y-85653103D01*
X144776113Y-85483402D01*
X144540197Y-85357302D01*
X144284213Y-85279650D01*
X144018000Y-85253430D01*
X143751786Y-85279650D01*
X143495802Y-85357302D01*
X143259886Y-85483402D01*
X143053103Y-85653104D01*
X142883402Y-85859887D01*
X142757302Y-86095803D01*
X142721940Y-86212377D01*
X142697784Y-86167186D01*
X142501987Y-86056145D01*
X141690132Y-86868000D01*
X141265868Y-86868000D01*
X140454013Y-86056145D01*
X140258216Y-86167186D01*
X140235587Y-86217410D01*
X140198698Y-86095802D01*
X140072598Y-85859886D01*
X140059572Y-85844013D01*
X140666145Y-85844013D01*
X141478000Y-86655868D01*
X142289855Y-85844013D01*
X142178814Y-85648216D01*
X141927380Y-85534932D01*
X141658676Y-85472876D01*
X141383029Y-85464435D01*
X141111032Y-85509931D01*
X140853138Y-85607618D01*
X140777186Y-85648216D01*
X140666145Y-85844013D01*
X140059572Y-85844013D01*
X139902896Y-85653103D01*
X139696113Y-85483402D01*
X139460197Y-85357302D01*
X139204213Y-85279650D01*
X138938000Y-85253430D01*
X138671786Y-85279650D01*
X138415802Y-85357302D01*
X138179886Y-85483402D01*
X137973103Y-85653104D01*
X137803402Y-85859887D01*
X137677302Y-86095803D01*
X137668000Y-86126467D01*
X137658698Y-86095802D01*
X137532598Y-85859886D01*
X137362896Y-85653103D01*
X137156113Y-85483402D01*
X136920197Y-85357302D01*
X136664213Y-85279650D01*
X136398000Y-85253430D01*
X136131786Y-85279650D01*
X135875802Y-85357302D01*
X135639886Y-85483402D01*
X135433103Y-85653104D01*
X135263402Y-85859887D01*
X135137302Y-86095803D01*
X135128000Y-86126467D01*
X135118698Y-86095802D01*
X134992598Y-85859886D01*
X134822896Y-85653103D01*
X134616113Y-85483402D01*
X134380197Y-85357302D01*
X134124213Y-85279650D01*
X133858000Y-85253430D01*
X133591786Y-85279650D01*
X133335802Y-85357302D01*
X133099886Y-85483402D01*
X132893103Y-85653104D01*
X132723402Y-85859887D01*
X132597302Y-86095803D01*
X132588000Y-86126467D01*
X132578698Y-86095802D01*
X132452598Y-85859886D01*
X132282896Y-85653103D01*
X132076113Y-85483402D01*
X131840197Y-85357302D01*
X131584213Y-85279650D01*
X131318000Y-85253430D01*
X131051786Y-85279650D01*
X130795802Y-85357302D01*
X130559886Y-85483402D01*
X130353103Y-85653104D01*
X130183402Y-85859887D01*
X130057302Y-86095803D01*
X130048000Y-86126467D01*
X130038698Y-86095802D01*
X129912598Y-85859886D01*
X129742896Y-85653103D01*
X129536113Y-85483402D01*
X129300197Y-85357302D01*
X129044213Y-85279650D01*
X128778000Y-85253430D01*
X128511786Y-85279650D01*
X128255802Y-85357302D01*
X128019886Y-85483402D01*
X127813103Y-85653104D01*
X127643402Y-85859887D01*
X127517302Y-86095803D01*
X127508000Y-86126467D01*
X127498698Y-86095802D01*
X127372598Y-85859886D01*
X127202896Y-85653103D01*
X126996113Y-85483402D01*
X126760197Y-85357302D01*
X126504213Y-85279650D01*
X126238000Y-85253430D01*
X125971786Y-85279650D01*
X125715802Y-85357302D01*
X125479886Y-85483402D01*
X125273103Y-85653104D01*
X125103402Y-85859887D01*
X124977302Y-86095803D01*
X124968000Y-86126467D01*
X124958698Y-86095802D01*
X124832598Y-85859886D01*
X124662896Y-85653103D01*
X124456113Y-85483402D01*
X124220197Y-85357302D01*
X123964213Y-85279650D01*
X123698000Y-85253430D01*
X123431786Y-85279650D01*
X123175802Y-85357302D01*
X122939886Y-85483402D01*
X122733103Y-85653104D01*
X122563402Y-85859887D01*
X122437302Y-86095803D01*
X122428000Y-86126467D01*
X122418698Y-86095802D01*
X122292598Y-85859886D01*
X122122896Y-85653103D01*
X121916113Y-85483402D01*
X121680197Y-85357302D01*
X121424213Y-85279650D01*
X121158000Y-85253430D01*
X120891786Y-85279650D01*
X120635802Y-85357302D01*
X120399886Y-85483402D01*
X120193103Y-85653104D01*
X120023402Y-85859887D01*
X119897302Y-86095803D01*
X119888000Y-86126467D01*
X119878698Y-86095802D01*
X119752598Y-85859886D01*
X119582896Y-85653103D01*
X119376113Y-85483402D01*
X119140197Y-85357302D01*
X118884213Y-85279650D01*
X118618000Y-85253430D01*
X118351786Y-85279650D01*
X118095802Y-85357302D01*
X117859886Y-85483402D01*
X117653103Y-85653104D01*
X117483402Y-85859887D01*
X117357302Y-86095803D01*
X117348000Y-86126467D01*
X117338698Y-86095802D01*
X117212598Y-85859886D01*
X117042896Y-85653103D01*
X116836113Y-85483402D01*
X116600197Y-85357302D01*
X116344213Y-85279650D01*
X116078000Y-85253430D01*
X115811786Y-85279650D01*
X115555802Y-85357302D01*
X115319886Y-85483402D01*
X115113103Y-85653104D01*
X114943402Y-85859887D01*
X114817302Y-86095803D01*
X114808000Y-86126467D01*
X114798698Y-86095802D01*
X114672598Y-85859886D01*
X114502896Y-85653103D01*
X114296113Y-85483402D01*
X114060197Y-85357302D01*
X113804213Y-85279650D01*
X113538000Y-85253430D01*
X113271786Y-85279650D01*
X113015802Y-85357302D01*
X112779886Y-85483402D01*
X112573103Y-85653104D01*
X112403402Y-85859887D01*
X112277302Y-86095803D01*
X112268000Y-86126467D01*
X112258698Y-86095802D01*
X112132598Y-85859886D01*
X111962896Y-85653103D01*
X111756113Y-85483402D01*
X111520197Y-85357302D01*
X111264213Y-85279650D01*
X110998000Y-85253430D01*
X110731786Y-85279650D01*
X110475802Y-85357302D01*
X110239886Y-85483402D01*
X110033103Y-85653104D01*
X109863402Y-85859887D01*
X109798925Y-85980514D01*
X109707015Y-85842960D01*
X109483040Y-85618985D01*
X109219673Y-85443009D01*
X108927036Y-85321795D01*
X108616374Y-85260000D01*
X108299626Y-85260000D01*
X107988964Y-85321795D01*
X107696327Y-85443009D01*
X107432960Y-85618985D01*
X107208985Y-85842960D01*
X107117075Y-85980513D01*
X107052598Y-85859886D01*
X106882896Y-85653103D01*
X106676113Y-85483402D01*
X106440197Y-85357302D01*
X106184213Y-85279650D01*
X105918000Y-85253430D01*
X105651786Y-85279650D01*
X105395802Y-85357302D01*
X105159886Y-85483402D01*
X104953103Y-85653104D01*
X104783402Y-85859887D01*
X104657302Y-86095803D01*
X104579650Y-86351787D01*
X104560000Y-86551295D01*
X74318000Y-86551295D01*
X74318000Y-84162283D01*
X78807777Y-84162283D01*
X78820220Y-84203325D01*
X78917864Y-84428074D01*
X79057478Y-84629455D01*
X79233697Y-84799729D01*
X79439749Y-84932353D01*
X79667716Y-85022230D01*
X79860000Y-84960974D01*
X79860000Y-83970000D01*
X80160000Y-83970000D01*
X80160000Y-84960974D01*
X80352284Y-85022230D01*
X80580251Y-84932353D01*
X80786303Y-84799729D01*
X80920561Y-84670000D01*
X81298065Y-84670000D01*
X81305788Y-84748414D01*
X81328660Y-84823814D01*
X81365803Y-84893303D01*
X81415789Y-84954211D01*
X81476697Y-85004197D01*
X81546186Y-85041340D01*
X81621586Y-85064212D01*
X81700000Y-85071935D01*
X82300000Y-85070000D01*
X82400000Y-84970000D01*
X82400000Y-83970000D01*
X82700000Y-83970000D01*
X82700000Y-84970000D01*
X82800000Y-85070000D01*
X83400000Y-85071935D01*
X83478414Y-85064212D01*
X83553814Y-85041340D01*
X83623303Y-85004197D01*
X83684211Y-84954211D01*
X83734197Y-84893303D01*
X83771340Y-84823814D01*
X83794212Y-84748414D01*
X83801935Y-84670000D01*
X83800000Y-84070000D01*
X83700000Y-83970000D01*
X82700000Y-83970000D01*
X82400000Y-83970000D01*
X81400000Y-83970000D01*
X81300000Y-84070000D01*
X81298065Y-84670000D01*
X80920561Y-84670000D01*
X80962522Y-84629455D01*
X81102136Y-84428074D01*
X81199780Y-84203325D01*
X81212223Y-84162283D01*
X81150175Y-83970000D01*
X80160000Y-83970000D01*
X79860000Y-83970000D01*
X78869825Y-83970000D01*
X78807777Y-84162283D01*
X74318000Y-84162283D01*
X74318000Y-81136399D01*
X78552000Y-81136399D01*
X78552000Y-81423601D01*
X78608030Y-81705283D01*
X78717937Y-81970622D01*
X78877497Y-82209421D01*
X79080579Y-82412503D01*
X79319378Y-82572063D01*
X79545783Y-82665843D01*
X79439749Y-82707647D01*
X79233697Y-82840271D01*
X79057478Y-83010545D01*
X78917864Y-83211926D01*
X78820220Y-83436675D01*
X78807777Y-83477717D01*
X78869825Y-83670000D01*
X79860000Y-83670000D01*
X79860000Y-83650000D01*
X80160000Y-83650000D01*
X80160000Y-83670000D01*
X81150175Y-83670000D01*
X81212223Y-83477717D01*
X81199780Y-83436675D01*
X81102136Y-83211926D01*
X80962522Y-83010545D01*
X80786303Y-82840271D01*
X80580251Y-82707647D01*
X80474217Y-82665843D01*
X80700622Y-82572063D01*
X80939421Y-82412503D01*
X81142503Y-82209421D01*
X81280000Y-82003642D01*
X81417497Y-82209421D01*
X81620579Y-82412503D01*
X81854139Y-82568562D01*
X81700000Y-82568065D01*
X81621586Y-82575788D01*
X81546186Y-82598660D01*
X81476697Y-82635803D01*
X81415789Y-82685789D01*
X81365803Y-82746697D01*
X81328660Y-82816186D01*
X81305788Y-82891586D01*
X81298065Y-82970000D01*
X81300000Y-83570000D01*
X81400000Y-83670000D01*
X82400000Y-83670000D01*
X82400000Y-83650000D01*
X82700000Y-83650000D01*
X82700000Y-83670000D01*
X83700000Y-83670000D01*
X83800000Y-83570000D01*
X83801935Y-82970000D01*
X83794212Y-82891586D01*
X83771340Y-82816186D01*
X83734197Y-82746697D01*
X83684211Y-82685789D01*
X83623303Y-82635803D01*
X83553814Y-82598660D01*
X83478414Y-82575788D01*
X83400000Y-82568065D01*
X83245861Y-82568562D01*
X83479421Y-82412503D01*
X83682503Y-82209421D01*
X83842063Y-81970622D01*
X83951970Y-81705283D01*
X84008000Y-81423601D01*
X84008000Y-81136399D01*
X83951970Y-80854717D01*
X83842063Y-80589378D01*
X83682503Y-80350579D01*
X83479421Y-80147497D01*
X83240622Y-79987937D01*
X83014217Y-79894157D01*
X83120251Y-79852353D01*
X83326303Y-79719729D01*
X83502522Y-79549455D01*
X83642136Y-79348074D01*
X83739780Y-79123325D01*
X83752223Y-79082283D01*
X83690175Y-78890000D01*
X82700000Y-78890000D01*
X82700000Y-78910000D01*
X82400000Y-78910000D01*
X82400000Y-78890000D01*
X81409825Y-78890000D01*
X81347777Y-79082283D01*
X81360220Y-79123325D01*
X81457864Y-79348074D01*
X81597478Y-79549455D01*
X81773697Y-79719729D01*
X81979749Y-79852353D01*
X82085783Y-79894157D01*
X81859378Y-79987937D01*
X81620579Y-80147497D01*
X81417497Y-80350579D01*
X81280000Y-80556358D01*
X81142503Y-80350579D01*
X80939421Y-80147497D01*
X80700622Y-79987937D01*
X80474217Y-79894157D01*
X80580251Y-79852353D01*
X80786303Y-79719729D01*
X80962522Y-79549455D01*
X81102136Y-79348074D01*
X81199780Y-79123325D01*
X81212223Y-79082283D01*
X81150175Y-78890000D01*
X80160000Y-78890000D01*
X80160000Y-78910000D01*
X79860000Y-78910000D01*
X79860000Y-78890000D01*
X78869825Y-78890000D01*
X78807777Y-79082283D01*
X78820220Y-79123325D01*
X78917864Y-79348074D01*
X79057478Y-79549455D01*
X79233697Y-79719729D01*
X79439749Y-79852353D01*
X79545783Y-79894157D01*
X79319378Y-79987937D01*
X79080579Y-80147497D01*
X78877497Y-80350579D01*
X78717937Y-80589378D01*
X78608030Y-80854717D01*
X78552000Y-81136399D01*
X74318000Y-81136399D01*
X74318000Y-65896399D01*
X78552000Y-65896399D01*
X78552000Y-66183601D01*
X78608030Y-66465283D01*
X78717937Y-66730622D01*
X78877497Y-66969421D01*
X79080579Y-67172503D01*
X79286358Y-67310000D01*
X79080579Y-67447497D01*
X78877497Y-67650579D01*
X78717937Y-67889378D01*
X78608030Y-68154717D01*
X78552000Y-68436399D01*
X78552000Y-68723601D01*
X78608030Y-69005283D01*
X78717937Y-69270622D01*
X78877497Y-69509421D01*
X79080579Y-69712503D01*
X79286358Y-69850000D01*
X79080579Y-69987497D01*
X78877497Y-70190579D01*
X78717937Y-70429378D01*
X78608030Y-70694717D01*
X78552000Y-70976399D01*
X78552000Y-71263601D01*
X78608030Y-71545283D01*
X78717937Y-71810622D01*
X78877497Y-72049421D01*
X79080579Y-72252503D01*
X79286358Y-72390000D01*
X79080579Y-72527497D01*
X78877497Y-72730579D01*
X78717937Y-72969378D01*
X78608030Y-73234717D01*
X78552000Y-73516399D01*
X78552000Y-73803601D01*
X78608030Y-74085283D01*
X78717937Y-74350622D01*
X78877497Y-74589421D01*
X79080579Y-74792503D01*
X79286358Y-74930000D01*
X79080579Y-75067497D01*
X78877497Y-75270579D01*
X78717937Y-75509378D01*
X78608030Y-75774717D01*
X78552000Y-76056399D01*
X78552000Y-76343601D01*
X78608030Y-76625283D01*
X78717937Y-76890622D01*
X78877497Y-77129421D01*
X79080579Y-77332503D01*
X79319378Y-77492063D01*
X79545783Y-77585843D01*
X79439749Y-77627647D01*
X79233697Y-77760271D01*
X79057478Y-77930545D01*
X78917864Y-78131926D01*
X78820220Y-78356675D01*
X78807777Y-78397717D01*
X78869825Y-78590000D01*
X79860000Y-78590000D01*
X79860000Y-78570000D01*
X80160000Y-78570000D01*
X80160000Y-78590000D01*
X81150175Y-78590000D01*
X81212223Y-78397717D01*
X81199780Y-78356675D01*
X81102136Y-78131926D01*
X80962522Y-77930545D01*
X80786303Y-77760271D01*
X80580251Y-77627647D01*
X80474217Y-77585843D01*
X80700622Y-77492063D01*
X80939421Y-77332503D01*
X81142503Y-77129421D01*
X81280000Y-76923642D01*
X81417497Y-77129421D01*
X81620579Y-77332503D01*
X81859378Y-77492063D01*
X82085783Y-77585843D01*
X81979749Y-77627647D01*
X81773697Y-77760271D01*
X81597478Y-77930545D01*
X81457864Y-78131926D01*
X81360220Y-78356675D01*
X81347777Y-78397717D01*
X81409825Y-78590000D01*
X82400000Y-78590000D01*
X82400000Y-78570000D01*
X82700000Y-78570000D01*
X82700000Y-78590000D01*
X83690175Y-78590000D01*
X83752223Y-78397717D01*
X83739780Y-78356675D01*
X83642136Y-78131926D01*
X83502522Y-77930545D01*
X83326303Y-77760271D01*
X83120251Y-77627647D01*
X83014217Y-77585843D01*
X83240622Y-77492063D01*
X83479421Y-77332503D01*
X83682503Y-77129421D01*
X83690988Y-77116721D01*
X90432000Y-77116721D01*
X90432000Y-77315279D01*
X90470737Y-77510023D01*
X90546722Y-77693467D01*
X90657035Y-77858562D01*
X90797438Y-77998965D01*
X90962533Y-78109278D01*
X91145977Y-78185263D01*
X91340721Y-78224000D01*
X91539279Y-78224000D01*
X91734023Y-78185263D01*
X91860870Y-78132721D01*
X113038000Y-78132721D01*
X113038000Y-78331279D01*
X113076737Y-78526023D01*
X113152722Y-78709467D01*
X113263035Y-78874562D01*
X113403438Y-79014965D01*
X113568533Y-79125278D01*
X113751977Y-79201263D01*
X113946721Y-79240000D01*
X114145279Y-79240000D01*
X114340023Y-79201263D01*
X114523467Y-79125278D01*
X114688562Y-79014965D01*
X114828965Y-78874562D01*
X114939278Y-78709467D01*
X115015263Y-78526023D01*
X115054000Y-78331279D01*
X115054000Y-78132721D01*
X115015263Y-77937977D01*
X114939278Y-77754533D01*
X114828965Y-77589438D01*
X114688562Y-77449035D01*
X114523467Y-77338722D01*
X114340023Y-77262737D01*
X114145279Y-77224000D01*
X113946721Y-77224000D01*
X113751977Y-77262737D01*
X113568533Y-77338722D01*
X113403438Y-77449035D01*
X113263035Y-77589438D01*
X113152722Y-77754533D01*
X113076737Y-77937977D01*
X113038000Y-78132721D01*
X91860870Y-78132721D01*
X91917467Y-78109278D01*
X92082562Y-77998965D01*
X92222965Y-77858562D01*
X92333278Y-77693467D01*
X92409263Y-77510023D01*
X92448000Y-77315279D01*
X92448000Y-77116721D01*
X92409263Y-76921977D01*
X92333278Y-76738533D01*
X92222965Y-76573438D01*
X92082562Y-76433035D01*
X91917467Y-76322722D01*
X91734023Y-76246737D01*
X91539279Y-76208000D01*
X91340721Y-76208000D01*
X91145977Y-76246737D01*
X90962533Y-76322722D01*
X90797438Y-76433035D01*
X90657035Y-76573438D01*
X90546722Y-76738533D01*
X90470737Y-76921977D01*
X90432000Y-77116721D01*
X83690988Y-77116721D01*
X83842063Y-76890622D01*
X83951970Y-76625283D01*
X84008000Y-76343601D01*
X84008000Y-76056399D01*
X83951970Y-75774717D01*
X83842063Y-75509378D01*
X83682503Y-75270579D01*
X83479421Y-75067497D01*
X83273642Y-74930000D01*
X83479421Y-74792503D01*
X83480600Y-74791324D01*
X112384000Y-74791324D01*
X112384000Y-75068676D01*
X112438108Y-75340699D01*
X112544246Y-75596938D01*
X112698335Y-75827548D01*
X112894452Y-76023665D01*
X113125062Y-76177754D01*
X113381301Y-76283892D01*
X113653324Y-76338000D01*
X113930676Y-76338000D01*
X114202699Y-76283892D01*
X114458938Y-76177754D01*
X114689548Y-76023665D01*
X114885665Y-75827548D01*
X115039754Y-75596938D01*
X115145892Y-75340699D01*
X115200000Y-75068676D01*
X115200000Y-74791324D01*
X115145892Y-74519301D01*
X115039754Y-74263062D01*
X114885665Y-74032452D01*
X114689548Y-73836335D01*
X114458938Y-73682246D01*
X114202699Y-73576108D01*
X113930676Y-73522000D01*
X113653324Y-73522000D01*
X113381301Y-73576108D01*
X113125062Y-73682246D01*
X112894452Y-73836335D01*
X112698335Y-74032452D01*
X112544246Y-74263062D01*
X112438108Y-74519301D01*
X112384000Y-74791324D01*
X83480600Y-74791324D01*
X83682503Y-74589421D01*
X83842063Y-74350622D01*
X83951970Y-74085283D01*
X84008000Y-73803601D01*
X84008000Y-73516399D01*
X83951970Y-73234717D01*
X83842063Y-72969378D01*
X83682503Y-72730579D01*
X83479421Y-72527497D01*
X83273642Y-72390000D01*
X83479421Y-72252503D01*
X83682503Y-72049421D01*
X83842063Y-71810622D01*
X83951970Y-71545283D01*
X84008000Y-71263601D01*
X84008000Y-70976399D01*
X83951970Y-70694717D01*
X83842063Y-70429378D01*
X83682503Y-70190579D01*
X83479421Y-69987497D01*
X83273642Y-69850000D01*
X83479421Y-69712503D01*
X83682503Y-69509421D01*
X83690980Y-69496733D01*
X119388000Y-69496733D01*
X119388000Y-69695291D01*
X119426737Y-69890035D01*
X119502722Y-70073479D01*
X119613035Y-70238574D01*
X119753438Y-70378977D01*
X119918533Y-70489290D01*
X120101977Y-70565275D01*
X120296721Y-70604012D01*
X120495279Y-70604012D01*
X120690023Y-70565275D01*
X120727597Y-70549711D01*
X128785996Y-70549711D01*
X128785996Y-70748269D01*
X128824733Y-70943013D01*
X128900718Y-71126457D01*
X129011031Y-71291552D01*
X129151434Y-71431955D01*
X129316529Y-71542268D01*
X129499973Y-71618253D01*
X129694717Y-71656990D01*
X129893275Y-71656990D01*
X130088019Y-71618253D01*
X130271463Y-71542268D01*
X130436558Y-71431955D01*
X130576961Y-71291552D01*
X130687274Y-71126457D01*
X130763259Y-70943013D01*
X130801996Y-70748269D01*
X130801996Y-70549711D01*
X130763259Y-70354967D01*
X130687274Y-70171523D01*
X130576961Y-70006428D01*
X130436558Y-69866025D01*
X130271463Y-69755712D01*
X130088019Y-69679727D01*
X129893275Y-69640990D01*
X129694717Y-69640990D01*
X129499973Y-69679727D01*
X129316529Y-69755712D01*
X129151434Y-69866025D01*
X129011031Y-70006428D01*
X128900718Y-70171523D01*
X128824733Y-70354967D01*
X128785996Y-70549711D01*
X120727597Y-70549711D01*
X120873467Y-70489290D01*
X121038562Y-70378977D01*
X121178965Y-70238574D01*
X121289278Y-70073479D01*
X121365263Y-69890035D01*
X121404000Y-69695291D01*
X121404000Y-69496733D01*
X121365263Y-69301989D01*
X121289278Y-69118545D01*
X121178965Y-68953450D01*
X121038562Y-68813047D01*
X120873467Y-68702734D01*
X120690023Y-68626749D01*
X120495279Y-68588012D01*
X120296721Y-68588012D01*
X120101977Y-68626749D01*
X119918533Y-68702734D01*
X119753438Y-68813047D01*
X119613035Y-68953450D01*
X119502722Y-69118545D01*
X119426737Y-69301989D01*
X119388000Y-69496733D01*
X83690980Y-69496733D01*
X83842063Y-69270622D01*
X83951970Y-69005283D01*
X84008000Y-68723601D01*
X84008000Y-68480721D01*
X122944000Y-68480721D01*
X122944000Y-68679279D01*
X122982737Y-68874023D01*
X123058722Y-69057467D01*
X123169035Y-69222562D01*
X123309438Y-69362965D01*
X123474533Y-69473278D01*
X123657977Y-69549263D01*
X123852721Y-69588000D01*
X124051279Y-69588000D01*
X124246023Y-69549263D01*
X124429467Y-69473278D01*
X124594562Y-69362965D01*
X124734965Y-69222562D01*
X124845278Y-69057467D01*
X124921263Y-68874023D01*
X124960000Y-68679279D01*
X124960000Y-68480721D01*
X124921263Y-68285977D01*
X124845278Y-68102533D01*
X124734965Y-67937438D01*
X124594562Y-67797035D01*
X124429467Y-67686722D01*
X124246023Y-67610737D01*
X124051279Y-67572000D01*
X123852721Y-67572000D01*
X123657977Y-67610737D01*
X123474533Y-67686722D01*
X123309438Y-67797035D01*
X123169035Y-67937438D01*
X123058722Y-68102533D01*
X122982737Y-68285977D01*
X122944000Y-68480721D01*
X84008000Y-68480721D01*
X84008000Y-68436399D01*
X83951970Y-68154717D01*
X83842063Y-67889378D01*
X83682503Y-67650579D01*
X83479421Y-67447497D01*
X83273642Y-67310000D01*
X83479421Y-67172503D01*
X83682503Y-66969421D01*
X83842063Y-66730622D01*
X83951970Y-66465283D01*
X84008000Y-66183601D01*
X84008000Y-65896399D01*
X83951970Y-65614717D01*
X83842063Y-65349378D01*
X83682503Y-65110579D01*
X83676327Y-65104403D01*
X112639528Y-65104403D01*
X112726911Y-65322814D01*
X112855225Y-65519980D01*
X113019539Y-65688325D01*
X113213538Y-65821379D01*
X113429767Y-65914029D01*
X113457598Y-65922465D01*
X113642000Y-65859725D01*
X113642000Y-64920000D01*
X113942000Y-64920000D01*
X113942000Y-65859725D01*
X114126402Y-65922465D01*
X114154233Y-65914029D01*
X114370462Y-65821379D01*
X114564461Y-65688325D01*
X114728775Y-65519980D01*
X114857089Y-65322814D01*
X114944472Y-65104403D01*
X114882595Y-64920000D01*
X113942000Y-64920000D01*
X113642000Y-64920000D01*
X112701405Y-64920000D01*
X112639528Y-65104403D01*
X83676327Y-65104403D01*
X83479421Y-64907497D01*
X83240622Y-64747937D01*
X82975283Y-64638030D01*
X82693601Y-64582000D01*
X82406399Y-64582000D01*
X82124717Y-64638030D01*
X81859378Y-64747937D01*
X81620579Y-64907497D01*
X81417497Y-65110579D01*
X81280000Y-65316358D01*
X81142503Y-65110579D01*
X80939421Y-64907497D01*
X80700622Y-64747937D01*
X80435283Y-64638030D01*
X80153601Y-64582000D01*
X79866399Y-64582000D01*
X79584717Y-64638030D01*
X79319378Y-64747937D01*
X79080579Y-64907497D01*
X78877497Y-65110579D01*
X78717937Y-65349378D01*
X78608030Y-65614717D01*
X78552000Y-65896399D01*
X74318000Y-65896399D01*
X74318000Y-64435597D01*
X112639528Y-64435597D01*
X112701405Y-64620000D01*
X113642000Y-64620000D01*
X113642000Y-63680275D01*
X113942000Y-63680275D01*
X113942000Y-64620000D01*
X114882595Y-64620000D01*
X114944472Y-64435597D01*
X114857089Y-64217186D01*
X114728775Y-64020020D01*
X114564461Y-63851675D01*
X114370462Y-63718621D01*
X114154233Y-63625971D01*
X114126402Y-63617535D01*
X113942000Y-63680275D01*
X113642000Y-63680275D01*
X113457598Y-63617535D01*
X113429767Y-63625971D01*
X113213538Y-63718621D01*
X113019539Y-63851675D01*
X112855225Y-64020020D01*
X112726911Y-64217186D01*
X112639528Y-64435597D01*
X74318000Y-64435597D01*
X74318000Y-61048283D01*
X78807777Y-61048283D01*
X78820220Y-61089325D01*
X78917864Y-61314074D01*
X79057478Y-61515455D01*
X79233697Y-61685729D01*
X79439749Y-61818353D01*
X79667716Y-61908230D01*
X79860000Y-61846974D01*
X79860000Y-60856000D01*
X78869825Y-60856000D01*
X78807777Y-61048283D01*
X74318000Y-61048283D01*
X74318000Y-57316000D01*
X78549059Y-57316000D01*
X78549059Y-59016000D01*
X78560798Y-59135189D01*
X78595564Y-59249797D01*
X78652021Y-59355421D01*
X78727999Y-59448001D01*
X78820579Y-59523979D01*
X78926203Y-59580436D01*
X79040811Y-59615202D01*
X79160000Y-59626941D01*
X79388022Y-59626941D01*
X79233697Y-59726271D01*
X79057478Y-59896545D01*
X78917864Y-60097926D01*
X78820220Y-60322675D01*
X78807777Y-60363717D01*
X78869825Y-60556000D01*
X79860000Y-60556000D01*
X79860000Y-60536000D01*
X80160000Y-60536000D01*
X80160000Y-60556000D01*
X80180000Y-60556000D01*
X80180000Y-60856000D01*
X80160000Y-60856000D01*
X80160000Y-61846974D01*
X80352284Y-61908230D01*
X80580251Y-61818353D01*
X80786303Y-61685729D01*
X80962522Y-61515455D01*
X81102136Y-61314074D01*
X81164391Y-61170781D01*
X81257937Y-61396622D01*
X81417497Y-61635421D01*
X81620579Y-61838503D01*
X81859378Y-61998063D01*
X82124717Y-62107970D01*
X82406399Y-62164000D01*
X82693601Y-62164000D01*
X82975283Y-62107970D01*
X83240622Y-61998063D01*
X83479421Y-61838503D01*
X83682503Y-61635421D01*
X83842063Y-61396622D01*
X83951970Y-61131283D01*
X84008000Y-60849601D01*
X84008000Y-60562399D01*
X83951970Y-60280717D01*
X83891907Y-60135711D01*
X91448000Y-60135711D01*
X91448000Y-60334269D01*
X91486737Y-60529013D01*
X91562722Y-60712457D01*
X91673035Y-60877552D01*
X91813438Y-61017955D01*
X91978533Y-61128268D01*
X92161977Y-61204253D01*
X92356721Y-61242990D01*
X92555279Y-61242990D01*
X92750023Y-61204253D01*
X92933467Y-61128268D01*
X93098562Y-61017955D01*
X93238965Y-60877552D01*
X93349278Y-60712457D01*
X93425263Y-60529013D01*
X93464000Y-60334269D01*
X93464000Y-60135711D01*
X93425263Y-59940967D01*
X93349278Y-59757523D01*
X93238965Y-59592428D01*
X93098562Y-59452025D01*
X92933467Y-59341712D01*
X92750023Y-59265727D01*
X92555279Y-59226990D01*
X92356721Y-59226990D01*
X92161977Y-59265727D01*
X91978533Y-59341712D01*
X91813438Y-59452025D01*
X91673035Y-59592428D01*
X91562722Y-59757523D01*
X91486737Y-59940967D01*
X91448000Y-60135711D01*
X83891907Y-60135711D01*
X83842063Y-60015378D01*
X83682503Y-59776579D01*
X83479421Y-59573497D01*
X83273642Y-59436000D01*
X83479421Y-59298503D01*
X83682503Y-59095421D01*
X83842063Y-58856622D01*
X83943680Y-58611295D01*
X104560000Y-58611295D01*
X104560000Y-59244706D01*
X104579650Y-59444214D01*
X104657302Y-59700198D01*
X104783402Y-59936114D01*
X104953104Y-60142897D01*
X105159887Y-60312598D01*
X105395803Y-60438698D01*
X105651787Y-60516350D01*
X105918000Y-60542570D01*
X106184214Y-60516350D01*
X106440198Y-60438698D01*
X106676114Y-60312598D01*
X106882897Y-60142897D01*
X107052598Y-59936114D01*
X107178698Y-59700197D01*
X107256350Y-59444213D01*
X107274479Y-59260147D01*
X107300097Y-59260147D01*
X107338372Y-59484464D01*
X107419673Y-59697004D01*
X107540877Y-59889599D01*
X107697325Y-60054848D01*
X107883006Y-60186400D01*
X108090783Y-60279200D01*
X108131484Y-60280672D01*
X108308000Y-60217230D01*
X108308000Y-59078000D01*
X108608000Y-59078000D01*
X108608000Y-60217230D01*
X108784516Y-60280672D01*
X108825217Y-60279200D01*
X109032994Y-60186400D01*
X109218675Y-60054848D01*
X109375123Y-59889599D01*
X109496327Y-59697004D01*
X109577628Y-59484464D01*
X109615903Y-59260147D01*
X109514498Y-59078000D01*
X108608000Y-59078000D01*
X108308000Y-59078000D01*
X107401502Y-59078000D01*
X107300097Y-59260147D01*
X107274479Y-59260147D01*
X107276000Y-59244705D01*
X107276000Y-58611294D01*
X107274480Y-58595853D01*
X107300097Y-58595853D01*
X107401502Y-58778000D01*
X108308000Y-58778000D01*
X108308000Y-57638770D01*
X108608000Y-57638770D01*
X108608000Y-58778000D01*
X109514498Y-58778000D01*
X109607306Y-58611295D01*
X109640000Y-58611295D01*
X109640000Y-59244706D01*
X109659650Y-59444214D01*
X109737302Y-59700198D01*
X109863402Y-59936114D01*
X110033104Y-60142897D01*
X110239887Y-60312598D01*
X110475803Y-60438698D01*
X110731787Y-60516350D01*
X110998000Y-60542570D01*
X111264214Y-60516350D01*
X111520198Y-60438698D01*
X111756114Y-60312598D01*
X111962897Y-60142897D01*
X112132598Y-59936114D01*
X112258698Y-59700197D01*
X112268000Y-59669533D01*
X112277302Y-59700198D01*
X112403402Y-59936114D01*
X112573104Y-60142897D01*
X112779887Y-60312598D01*
X113015803Y-60438698D01*
X113271787Y-60516350D01*
X113538000Y-60542570D01*
X113804214Y-60516350D01*
X114060198Y-60438698D01*
X114296114Y-60312598D01*
X114502897Y-60142897D01*
X114672598Y-59936114D01*
X114798698Y-59700197D01*
X114808000Y-59669533D01*
X114817302Y-59700198D01*
X114943402Y-59936114D01*
X115113104Y-60142897D01*
X115319887Y-60312598D01*
X115555803Y-60438698D01*
X115811787Y-60516350D01*
X116078000Y-60542570D01*
X116344214Y-60516350D01*
X116600198Y-60438698D01*
X116836114Y-60312598D01*
X117042897Y-60142897D01*
X117212598Y-59936114D01*
X117338698Y-59700197D01*
X117348000Y-59669533D01*
X117357302Y-59700198D01*
X117483402Y-59936114D01*
X117653104Y-60142897D01*
X117859887Y-60312598D01*
X118095803Y-60438698D01*
X118351787Y-60516350D01*
X118618000Y-60542570D01*
X118884214Y-60516350D01*
X119140198Y-60438698D01*
X119376114Y-60312598D01*
X119582897Y-60142897D01*
X119752598Y-59936114D01*
X119878698Y-59700197D01*
X119888000Y-59669533D01*
X119897302Y-59700198D01*
X120023402Y-59936114D01*
X120193104Y-60142897D01*
X120399887Y-60312598D01*
X120635803Y-60438698D01*
X120891787Y-60516350D01*
X121158000Y-60542570D01*
X121424214Y-60516350D01*
X121680198Y-60438698D01*
X121916114Y-60312598D01*
X122122897Y-60142897D01*
X122292598Y-59936114D01*
X122418698Y-59700197D01*
X122496350Y-59444213D01*
X122514479Y-59260147D01*
X122540097Y-59260147D01*
X122578372Y-59484464D01*
X122659673Y-59697004D01*
X122780877Y-59889599D01*
X122937325Y-60054848D01*
X123123006Y-60186400D01*
X123330783Y-60279200D01*
X123371484Y-60280672D01*
X123548000Y-60217230D01*
X123548000Y-59078000D01*
X123848000Y-59078000D01*
X123848000Y-60217230D01*
X124024516Y-60280672D01*
X124065217Y-60279200D01*
X124272994Y-60186400D01*
X124458675Y-60054848D01*
X124615123Y-59889599D01*
X124736327Y-59697004D01*
X124817628Y-59484464D01*
X124855903Y-59260147D01*
X124754498Y-59078000D01*
X123848000Y-59078000D01*
X123548000Y-59078000D01*
X122641502Y-59078000D01*
X122540097Y-59260147D01*
X122514479Y-59260147D01*
X122516000Y-59244705D01*
X122516000Y-58611294D01*
X122514480Y-58595853D01*
X122540097Y-58595853D01*
X122641502Y-58778000D01*
X123548000Y-58778000D01*
X123548000Y-57638770D01*
X123848000Y-57638770D01*
X123848000Y-58778000D01*
X124754498Y-58778000D01*
X124847306Y-58611295D01*
X124880000Y-58611295D01*
X124880000Y-59244706D01*
X124899650Y-59444214D01*
X124977302Y-59700198D01*
X125103402Y-59936114D01*
X125273104Y-60142897D01*
X125479887Y-60312598D01*
X125715803Y-60438698D01*
X125971787Y-60516350D01*
X126238000Y-60542570D01*
X126504214Y-60516350D01*
X126760198Y-60438698D01*
X126996114Y-60312598D01*
X127202897Y-60142897D01*
X127372598Y-59936114D01*
X127498698Y-59700197D01*
X127508000Y-59669533D01*
X127517302Y-59700198D01*
X127643402Y-59936114D01*
X127813104Y-60142897D01*
X128019887Y-60312598D01*
X128255803Y-60438698D01*
X128511787Y-60516350D01*
X128778000Y-60542570D01*
X129044214Y-60516350D01*
X129300198Y-60438698D01*
X129536114Y-60312598D01*
X129742897Y-60142897D01*
X129912598Y-59936114D01*
X130038698Y-59700197D01*
X130048000Y-59669533D01*
X130057302Y-59700198D01*
X130183402Y-59936114D01*
X130353104Y-60142897D01*
X130559887Y-60312598D01*
X130795803Y-60438698D01*
X131051787Y-60516350D01*
X131318000Y-60542570D01*
X131584214Y-60516350D01*
X131840198Y-60438698D01*
X132076114Y-60312598D01*
X132282897Y-60142897D01*
X132452598Y-59936114D01*
X132578698Y-59700197D01*
X132588000Y-59669533D01*
X132597302Y-59700198D01*
X132723402Y-59936114D01*
X132893104Y-60142897D01*
X133099887Y-60312598D01*
X133335803Y-60438698D01*
X133591787Y-60516350D01*
X133858000Y-60542570D01*
X134124214Y-60516350D01*
X134380198Y-60438698D01*
X134616114Y-60312598D01*
X134822897Y-60142897D01*
X134992598Y-59936114D01*
X135118698Y-59700197D01*
X135128000Y-59669533D01*
X135137302Y-59700198D01*
X135263402Y-59936114D01*
X135433104Y-60142897D01*
X135639887Y-60312598D01*
X135875803Y-60438698D01*
X136131787Y-60516350D01*
X136398000Y-60542570D01*
X136664214Y-60516350D01*
X136920198Y-60438698D01*
X137156114Y-60312598D01*
X137362897Y-60142897D01*
X137532598Y-59936114D01*
X137658698Y-59700197D01*
X137668000Y-59669533D01*
X137677302Y-59700198D01*
X137803402Y-59936114D01*
X137973104Y-60142897D01*
X138179887Y-60312598D01*
X138415803Y-60438698D01*
X138671787Y-60516350D01*
X138938000Y-60542570D01*
X139204214Y-60516350D01*
X139460198Y-60438698D01*
X139696114Y-60312598D01*
X139902897Y-60142897D01*
X140072598Y-59936114D01*
X140198698Y-59700197D01*
X140208000Y-59669533D01*
X140217302Y-59700198D01*
X140343402Y-59936114D01*
X140513104Y-60142897D01*
X140719887Y-60312598D01*
X140955803Y-60438698D01*
X141211787Y-60516350D01*
X141478000Y-60542570D01*
X141744214Y-60516350D01*
X142000198Y-60438698D01*
X142236114Y-60312598D01*
X142442897Y-60142897D01*
X142612598Y-59936114D01*
X142738698Y-59700197D01*
X142748000Y-59669533D01*
X142757302Y-59700198D01*
X142883402Y-59936114D01*
X143053104Y-60142897D01*
X143259887Y-60312598D01*
X143495803Y-60438698D01*
X143751787Y-60516350D01*
X144018000Y-60542570D01*
X144284214Y-60516350D01*
X144540198Y-60438698D01*
X144776114Y-60312598D01*
X144982897Y-60142897D01*
X145152598Y-59936114D01*
X145278698Y-59700197D01*
X145288000Y-59669533D01*
X145297302Y-59700198D01*
X145423402Y-59936114D01*
X145593104Y-60142897D01*
X145799887Y-60312598D01*
X146035803Y-60438698D01*
X146291787Y-60516350D01*
X146558000Y-60542570D01*
X146824214Y-60516350D01*
X147080198Y-60438698D01*
X147316114Y-60312598D01*
X147522897Y-60142897D01*
X147692598Y-59936114D01*
X147818698Y-59700197D01*
X147828000Y-59669533D01*
X147837302Y-59700198D01*
X147963402Y-59936114D01*
X148133104Y-60142897D01*
X148339887Y-60312598D01*
X148575803Y-60438698D01*
X148831787Y-60516350D01*
X149098000Y-60542570D01*
X149364214Y-60516350D01*
X149620198Y-60438698D01*
X149856114Y-60312598D01*
X150062897Y-60142897D01*
X150232598Y-59936114D01*
X150358698Y-59700197D01*
X150368000Y-59669533D01*
X150377302Y-59700198D01*
X150503402Y-59936114D01*
X150673104Y-60142897D01*
X150879887Y-60312598D01*
X151115803Y-60438698D01*
X151371787Y-60516350D01*
X151638000Y-60542570D01*
X151904214Y-60516350D01*
X152160198Y-60438698D01*
X152396114Y-60312598D01*
X152602897Y-60142897D01*
X152772598Y-59936114D01*
X152898698Y-59700197D01*
X152908000Y-59669533D01*
X152917302Y-59700198D01*
X153043402Y-59936114D01*
X153213104Y-60142897D01*
X153419887Y-60312598D01*
X153655803Y-60438698D01*
X153911787Y-60516350D01*
X154178000Y-60542570D01*
X154444214Y-60516350D01*
X154700198Y-60438698D01*
X154936114Y-60312598D01*
X155142897Y-60142897D01*
X155312598Y-59936114D01*
X155438698Y-59700197D01*
X155516350Y-59444213D01*
X155536000Y-59244705D01*
X155536000Y-58611294D01*
X155516350Y-58411786D01*
X155438698Y-58155802D01*
X155312598Y-57919886D01*
X155142896Y-57713103D01*
X154936113Y-57543402D01*
X154700197Y-57417302D01*
X154656347Y-57404000D01*
X155602000Y-57404000D01*
X155602000Y-85344000D01*
X155603921Y-85363509D01*
X155609612Y-85382268D01*
X155618853Y-85399557D01*
X155631289Y-85414711D01*
X155646443Y-85427147D01*
X155663732Y-85436388D01*
X155682491Y-85442079D01*
X155702000Y-85444000D01*
X175006000Y-85444000D01*
X175025509Y-85442079D01*
X175044268Y-85436388D01*
X175061557Y-85427147D01*
X175076711Y-85414711D01*
X175089147Y-85399557D01*
X175098388Y-85382268D01*
X175104079Y-85363509D01*
X175106000Y-85344000D01*
X175106000Y-57404000D01*
X175104079Y-57384491D01*
X175098388Y-57365732D01*
X175089147Y-57348443D01*
X175076711Y-57333289D01*
X175061557Y-57320853D01*
X175044268Y-57311612D01*
X175025509Y-57305921D01*
X175006000Y-57304000D01*
X155702000Y-57304000D01*
X155682491Y-57305921D01*
X155663732Y-57311612D01*
X155646443Y-57320853D01*
X155631289Y-57333289D01*
X155618853Y-57348443D01*
X155609612Y-57365732D01*
X155603921Y-57384491D01*
X155602000Y-57404000D01*
X154656347Y-57404000D01*
X154444213Y-57339650D01*
X154178000Y-57313430D01*
X153911786Y-57339650D01*
X153655802Y-57417302D01*
X153419886Y-57543402D01*
X153213103Y-57713104D01*
X153043402Y-57919887D01*
X152917302Y-58155803D01*
X152908000Y-58186467D01*
X152898698Y-58155802D01*
X152772598Y-57919886D01*
X152602896Y-57713103D01*
X152396113Y-57543402D01*
X152160197Y-57417302D01*
X151904213Y-57339650D01*
X151638000Y-57313430D01*
X151371786Y-57339650D01*
X151115802Y-57417302D01*
X150879886Y-57543402D01*
X150673103Y-57713104D01*
X150503402Y-57919887D01*
X150377302Y-58155803D01*
X150368000Y-58186467D01*
X150358698Y-58155802D01*
X150232598Y-57919886D01*
X150062896Y-57713103D01*
X149856113Y-57543402D01*
X149620197Y-57417302D01*
X149364213Y-57339650D01*
X149098000Y-57313430D01*
X148831786Y-57339650D01*
X148575802Y-57417302D01*
X148339886Y-57543402D01*
X148133103Y-57713104D01*
X147963402Y-57919887D01*
X147837302Y-58155803D01*
X147828000Y-58186467D01*
X147818698Y-58155802D01*
X147692598Y-57919886D01*
X147522896Y-57713103D01*
X147316113Y-57543402D01*
X147080197Y-57417302D01*
X146824213Y-57339650D01*
X146558000Y-57313430D01*
X146291786Y-57339650D01*
X146035802Y-57417302D01*
X145799886Y-57543402D01*
X145593103Y-57713104D01*
X145423402Y-57919887D01*
X145297302Y-58155803D01*
X145288000Y-58186467D01*
X145278698Y-58155802D01*
X145152598Y-57919886D01*
X144982896Y-57713103D01*
X144776113Y-57543402D01*
X144540197Y-57417302D01*
X144284213Y-57339650D01*
X144018000Y-57313430D01*
X143751786Y-57339650D01*
X143495802Y-57417302D01*
X143259886Y-57543402D01*
X143053103Y-57713104D01*
X142883402Y-57919887D01*
X142757302Y-58155803D01*
X142748000Y-58186467D01*
X142738698Y-58155802D01*
X142612598Y-57919886D01*
X142442896Y-57713103D01*
X142236113Y-57543402D01*
X142000197Y-57417302D01*
X141744213Y-57339650D01*
X141478000Y-57313430D01*
X141211786Y-57339650D01*
X140955802Y-57417302D01*
X140719886Y-57543402D01*
X140513103Y-57713104D01*
X140343402Y-57919887D01*
X140217302Y-58155803D01*
X140208000Y-58186467D01*
X140198698Y-58155802D01*
X140072598Y-57919886D01*
X139902896Y-57713103D01*
X139696113Y-57543402D01*
X139460197Y-57417302D01*
X139204213Y-57339650D01*
X138938000Y-57313430D01*
X138671786Y-57339650D01*
X138415802Y-57417302D01*
X138179886Y-57543402D01*
X137973103Y-57713104D01*
X137803402Y-57919887D01*
X137677302Y-58155803D01*
X137668000Y-58186467D01*
X137658698Y-58155802D01*
X137532598Y-57919886D01*
X137362896Y-57713103D01*
X137156113Y-57543402D01*
X136920197Y-57417302D01*
X136664213Y-57339650D01*
X136398000Y-57313430D01*
X136131786Y-57339650D01*
X135875802Y-57417302D01*
X135639886Y-57543402D01*
X135433103Y-57713104D01*
X135263402Y-57919887D01*
X135137302Y-58155803D01*
X135128000Y-58186467D01*
X135118698Y-58155802D01*
X134992598Y-57919886D01*
X134822896Y-57713103D01*
X134616113Y-57543402D01*
X134380197Y-57417302D01*
X134124213Y-57339650D01*
X133858000Y-57313430D01*
X133591786Y-57339650D01*
X133335802Y-57417302D01*
X133099886Y-57543402D01*
X132893103Y-57713104D01*
X132723402Y-57919887D01*
X132597302Y-58155803D01*
X132588000Y-58186467D01*
X132578698Y-58155802D01*
X132452598Y-57919886D01*
X132282896Y-57713103D01*
X132076113Y-57543402D01*
X131840197Y-57417302D01*
X131584213Y-57339650D01*
X131318000Y-57313430D01*
X131051786Y-57339650D01*
X130795802Y-57417302D01*
X130559886Y-57543402D01*
X130353103Y-57713104D01*
X130183402Y-57919887D01*
X130057302Y-58155803D01*
X130048000Y-58186467D01*
X130038698Y-58155802D01*
X129912598Y-57919886D01*
X129742896Y-57713103D01*
X129536113Y-57543402D01*
X129300197Y-57417302D01*
X129044213Y-57339650D01*
X128778000Y-57313430D01*
X128511786Y-57339650D01*
X128255802Y-57417302D01*
X128019886Y-57543402D01*
X127813103Y-57713104D01*
X127643402Y-57919887D01*
X127517302Y-58155803D01*
X127508000Y-58186467D01*
X127498698Y-58155802D01*
X127372598Y-57919886D01*
X127202896Y-57713103D01*
X126996113Y-57543402D01*
X126760197Y-57417302D01*
X126504213Y-57339650D01*
X126238000Y-57313430D01*
X125971786Y-57339650D01*
X125715802Y-57417302D01*
X125479886Y-57543402D01*
X125273103Y-57713104D01*
X125103402Y-57919887D01*
X124977302Y-58155803D01*
X124899650Y-58411787D01*
X124880000Y-58611295D01*
X124847306Y-58611295D01*
X124855903Y-58595853D01*
X124817628Y-58371536D01*
X124736327Y-58158996D01*
X124615123Y-57966401D01*
X124458675Y-57801152D01*
X124272994Y-57669600D01*
X124065217Y-57576800D01*
X124024516Y-57575328D01*
X123848000Y-57638770D01*
X123548000Y-57638770D01*
X123371484Y-57575328D01*
X123330783Y-57576800D01*
X123123006Y-57669600D01*
X122937325Y-57801152D01*
X122780877Y-57966401D01*
X122659673Y-58158996D01*
X122578372Y-58371536D01*
X122540097Y-58595853D01*
X122514480Y-58595853D01*
X122496350Y-58411786D01*
X122418698Y-58155802D01*
X122292598Y-57919886D01*
X122122896Y-57713103D01*
X121916113Y-57543402D01*
X121680197Y-57417302D01*
X121424213Y-57339650D01*
X121158000Y-57313430D01*
X120891786Y-57339650D01*
X120635802Y-57417302D01*
X120399886Y-57543402D01*
X120193103Y-57713104D01*
X120023402Y-57919887D01*
X119897302Y-58155803D01*
X119888000Y-58186467D01*
X119878698Y-58155802D01*
X119752598Y-57919886D01*
X119582896Y-57713103D01*
X119376113Y-57543402D01*
X119140197Y-57417302D01*
X118884213Y-57339650D01*
X118618000Y-57313430D01*
X118351786Y-57339650D01*
X118095802Y-57417302D01*
X117859886Y-57543402D01*
X117653103Y-57713104D01*
X117483402Y-57919887D01*
X117357302Y-58155803D01*
X117348000Y-58186467D01*
X117338698Y-58155802D01*
X117212598Y-57919886D01*
X117042896Y-57713103D01*
X116836113Y-57543402D01*
X116600197Y-57417302D01*
X116344213Y-57339650D01*
X116078000Y-57313430D01*
X115811786Y-57339650D01*
X115555802Y-57417302D01*
X115319886Y-57543402D01*
X115113103Y-57713104D01*
X114943402Y-57919887D01*
X114817302Y-58155803D01*
X114808000Y-58186467D01*
X114798698Y-58155802D01*
X114672598Y-57919886D01*
X114502896Y-57713103D01*
X114296113Y-57543402D01*
X114060197Y-57417302D01*
X113804213Y-57339650D01*
X113538000Y-57313430D01*
X113271786Y-57339650D01*
X113015802Y-57417302D01*
X112779886Y-57543402D01*
X112573103Y-57713104D01*
X112403402Y-57919887D01*
X112277302Y-58155803D01*
X112268000Y-58186467D01*
X112258698Y-58155802D01*
X112132598Y-57919886D01*
X111962896Y-57713103D01*
X111756113Y-57543402D01*
X111520197Y-57417302D01*
X111264213Y-57339650D01*
X110998000Y-57313430D01*
X110731786Y-57339650D01*
X110475802Y-57417302D01*
X110239886Y-57543402D01*
X110033103Y-57713104D01*
X109863402Y-57919887D01*
X109737302Y-58155803D01*
X109659650Y-58411787D01*
X109640000Y-58611295D01*
X109607306Y-58611295D01*
X109615903Y-58595853D01*
X109577628Y-58371536D01*
X109496327Y-58158996D01*
X109375123Y-57966401D01*
X109218675Y-57801152D01*
X109032994Y-57669600D01*
X108825217Y-57576800D01*
X108784516Y-57575328D01*
X108608000Y-57638770D01*
X108308000Y-57638770D01*
X108131484Y-57575328D01*
X108090783Y-57576800D01*
X107883006Y-57669600D01*
X107697325Y-57801152D01*
X107540877Y-57966401D01*
X107419673Y-58158996D01*
X107338372Y-58371536D01*
X107300097Y-58595853D01*
X107274480Y-58595853D01*
X107256350Y-58411786D01*
X107178698Y-58155802D01*
X107052598Y-57919886D01*
X106882896Y-57713103D01*
X106676113Y-57543402D01*
X106440197Y-57417302D01*
X106184213Y-57339650D01*
X105918000Y-57313430D01*
X105651786Y-57339650D01*
X105395802Y-57417302D01*
X105159886Y-57543402D01*
X104953103Y-57713104D01*
X104783402Y-57919887D01*
X104657302Y-58155803D01*
X104579650Y-58411787D01*
X104560000Y-58611295D01*
X83943680Y-58611295D01*
X83951970Y-58591283D01*
X84008000Y-58309601D01*
X84008000Y-58022399D01*
X83951970Y-57740717D01*
X83842063Y-57475378D01*
X83682503Y-57236579D01*
X83479421Y-57033497D01*
X83240622Y-56873937D01*
X82975283Y-56764030D01*
X82693601Y-56708000D01*
X82406399Y-56708000D01*
X82124717Y-56764030D01*
X81859378Y-56873937D01*
X81620579Y-57033497D01*
X81458751Y-57195325D01*
X81424436Y-57082203D01*
X81367979Y-56976579D01*
X81292001Y-56883999D01*
X81199421Y-56808021D01*
X81093797Y-56751564D01*
X80979189Y-56716798D01*
X80860000Y-56705059D01*
X79160000Y-56705059D01*
X79040811Y-56716798D01*
X78926203Y-56751564D01*
X78820579Y-56808021D01*
X78727999Y-56883999D01*
X78652021Y-56976579D01*
X78595564Y-57082203D01*
X78560798Y-57196811D01*
X78549059Y-57316000D01*
X74318000Y-57316000D01*
X74318000Y-55995324D01*
X86984000Y-55995324D01*
X86984000Y-56272676D01*
X87038108Y-56544699D01*
X87144246Y-56800938D01*
X87298335Y-57031548D01*
X87494452Y-57227665D01*
X87725062Y-57381754D01*
X87981301Y-57487892D01*
X88253324Y-57542000D01*
X88530676Y-57542000D01*
X88802699Y-57487892D01*
X89058938Y-57381754D01*
X89289548Y-57227665D01*
X89485665Y-57031548D01*
X89639754Y-56800938D01*
X89745892Y-56544699D01*
X89800000Y-56272676D01*
X89800000Y-55995324D01*
X89745892Y-55723301D01*
X89639754Y-55467062D01*
X89485665Y-55236452D01*
X89289548Y-55040335D01*
X89058938Y-54886246D01*
X88802699Y-54780108D01*
X88530676Y-54726000D01*
X88253324Y-54726000D01*
X87981301Y-54780108D01*
X87725062Y-54886246D01*
X87494452Y-55040335D01*
X87298335Y-55236452D01*
X87144246Y-55467062D01*
X87038108Y-55723301D01*
X86984000Y-55995324D01*
X74318000Y-55995324D01*
X74318000Y-53936283D01*
X78807777Y-53936283D01*
X78820220Y-53977325D01*
X78917864Y-54202074D01*
X79057478Y-54403455D01*
X79233697Y-54573729D01*
X79439749Y-54706353D01*
X79667716Y-54796230D01*
X79860000Y-54734974D01*
X79860000Y-53744000D01*
X78869825Y-53744000D01*
X78807777Y-53936283D01*
X74318000Y-53936283D01*
X74318000Y-50204000D01*
X78549059Y-50204000D01*
X78549059Y-51904000D01*
X78560798Y-52023189D01*
X78595564Y-52137797D01*
X78652021Y-52243421D01*
X78727999Y-52336001D01*
X78820579Y-52411979D01*
X78926203Y-52468436D01*
X79040811Y-52503202D01*
X79160000Y-52514941D01*
X79388022Y-52514941D01*
X79233697Y-52614271D01*
X79057478Y-52784545D01*
X78917864Y-52985926D01*
X78820220Y-53210675D01*
X78807777Y-53251717D01*
X78869825Y-53444000D01*
X79860000Y-53444000D01*
X79860000Y-53424000D01*
X80160000Y-53424000D01*
X80160000Y-53444000D01*
X80180000Y-53444000D01*
X80180000Y-53744000D01*
X80160000Y-53744000D01*
X80160000Y-54734974D01*
X80352284Y-54796230D01*
X80580251Y-54706353D01*
X80786303Y-54573729D01*
X80962522Y-54403455D01*
X81102136Y-54202074D01*
X81164391Y-54058781D01*
X81257937Y-54284622D01*
X81417497Y-54523421D01*
X81620579Y-54726503D01*
X81859378Y-54886063D01*
X82124717Y-54995970D01*
X82406399Y-55052000D01*
X82693601Y-55052000D01*
X82975283Y-54995970D01*
X83240622Y-54886063D01*
X83479421Y-54726503D01*
X83682503Y-54523421D01*
X83842063Y-54284622D01*
X83951970Y-54019283D01*
X84005788Y-53748721D01*
X137676000Y-53748721D01*
X137676000Y-53947279D01*
X137714737Y-54142023D01*
X137790722Y-54325467D01*
X137901035Y-54490562D01*
X138041438Y-54630965D01*
X138206533Y-54741278D01*
X138389977Y-54817263D01*
X138584721Y-54856000D01*
X138783279Y-54856000D01*
X138978023Y-54817263D01*
X139161467Y-54741278D01*
X139326562Y-54630965D01*
X139466965Y-54490562D01*
X139577278Y-54325467D01*
X139653263Y-54142023D01*
X139692000Y-53947279D01*
X139692000Y-53748721D01*
X139653263Y-53553977D01*
X139577278Y-53370533D01*
X139466965Y-53205438D01*
X139326562Y-53065035D01*
X139161467Y-52954722D01*
X138978023Y-52878737D01*
X138783279Y-52840000D01*
X138584721Y-52840000D01*
X138389977Y-52878737D01*
X138206533Y-52954722D01*
X138041438Y-53065035D01*
X137901035Y-53205438D01*
X137790722Y-53370533D01*
X137714737Y-53553977D01*
X137676000Y-53748721D01*
X84005788Y-53748721D01*
X84008000Y-53737601D01*
X84008000Y-53450399D01*
X83951970Y-53168717D01*
X83842063Y-52903378D01*
X83682503Y-52664579D01*
X83479421Y-52461497D01*
X83240622Y-52301937D01*
X83014217Y-52208157D01*
X83120251Y-52166353D01*
X83326303Y-52033729D01*
X83502522Y-51863455D01*
X83642136Y-51662074D01*
X83739780Y-51437325D01*
X83744024Y-51423324D01*
X151754000Y-51423324D01*
X151754000Y-51700676D01*
X151808108Y-51972699D01*
X151914246Y-52228938D01*
X152068335Y-52459548D01*
X152264452Y-52655665D01*
X152495062Y-52809754D01*
X152751301Y-52915892D01*
X153023324Y-52970000D01*
X153300676Y-52970000D01*
X153572699Y-52915892D01*
X153828938Y-52809754D01*
X154059548Y-52655665D01*
X154255665Y-52459548D01*
X154409754Y-52228938D01*
X154515892Y-51972699D01*
X154570000Y-51700676D01*
X154570000Y-51423324D01*
X161914000Y-51423324D01*
X161914000Y-51700676D01*
X161968108Y-51972699D01*
X162074246Y-52228938D01*
X162228335Y-52459548D01*
X162424452Y-52655665D01*
X162655062Y-52809754D01*
X162911301Y-52915892D01*
X163183324Y-52970000D01*
X163460676Y-52970000D01*
X163732699Y-52915892D01*
X163988938Y-52809754D01*
X164219548Y-52655665D01*
X164415665Y-52459548D01*
X164569754Y-52228938D01*
X164675892Y-51972699D01*
X164730000Y-51700676D01*
X164730000Y-51423324D01*
X164675892Y-51151301D01*
X164569754Y-50895062D01*
X164415665Y-50664452D01*
X164219548Y-50468335D01*
X163988938Y-50314246D01*
X163732699Y-50208108D01*
X163460676Y-50154000D01*
X163183324Y-50154000D01*
X162911301Y-50208108D01*
X162655062Y-50314246D01*
X162424452Y-50468335D01*
X162228335Y-50664452D01*
X162074246Y-50895062D01*
X161968108Y-51151301D01*
X161914000Y-51423324D01*
X154570000Y-51423324D01*
X154515892Y-51151301D01*
X154409754Y-50895062D01*
X154255665Y-50664452D01*
X154059548Y-50468335D01*
X153828938Y-50314246D01*
X153572699Y-50208108D01*
X153300676Y-50154000D01*
X153023324Y-50154000D01*
X152751301Y-50208108D01*
X152495062Y-50314246D01*
X152264452Y-50468335D01*
X152068335Y-50664452D01*
X151914246Y-50895062D01*
X151808108Y-51151301D01*
X151754000Y-51423324D01*
X83744024Y-51423324D01*
X83752223Y-51396283D01*
X83690175Y-51204000D01*
X82700000Y-51204000D01*
X82700000Y-51224000D01*
X82400000Y-51224000D01*
X82400000Y-51204000D01*
X82380000Y-51204000D01*
X82380000Y-50904000D01*
X82400000Y-50904000D01*
X82400000Y-49913026D01*
X82700000Y-49913026D01*
X82700000Y-50904000D01*
X83690175Y-50904000D01*
X83752223Y-50711717D01*
X83739780Y-50670675D01*
X83642136Y-50445926D01*
X83502522Y-50244545D01*
X83326303Y-50074271D01*
X83120251Y-49941647D01*
X82892284Y-49851770D01*
X82700000Y-49913026D01*
X82400000Y-49913026D01*
X82207716Y-49851770D01*
X81979749Y-49941647D01*
X81773697Y-50074271D01*
X81597478Y-50244545D01*
X81470941Y-50427064D01*
X81470941Y-50204000D01*
X81459202Y-50084811D01*
X81424436Y-49970203D01*
X81367979Y-49864579D01*
X81292001Y-49771999D01*
X81199421Y-49696021D01*
X81093797Y-49639564D01*
X80979189Y-49604798D01*
X80860000Y-49593059D01*
X79160000Y-49593059D01*
X79040811Y-49604798D01*
X78926203Y-49639564D01*
X78820579Y-49696021D01*
X78727999Y-49771999D01*
X78652021Y-49864579D01*
X78595564Y-49970203D01*
X78560798Y-50084811D01*
X78549059Y-50204000D01*
X74318000Y-50204000D01*
X74318000Y-47714000D01*
X93839059Y-47714000D01*
X93839059Y-49314000D01*
X93850798Y-49433189D01*
X93885564Y-49547797D01*
X93942021Y-49653421D01*
X94017999Y-49746001D01*
X94110579Y-49821979D01*
X94216203Y-49878436D01*
X94330811Y-49913202D01*
X94450000Y-49924941D01*
X96050000Y-49924941D01*
X96169189Y-49913202D01*
X96283797Y-49878436D01*
X96389421Y-49821979D01*
X96482001Y-49746001D01*
X96557979Y-49653421D01*
X96614436Y-49547797D01*
X96649202Y-49433189D01*
X96660941Y-49314000D01*
X96660941Y-47768000D01*
X105069059Y-47768000D01*
X105069059Y-49768000D01*
X105080798Y-49887189D01*
X105115564Y-50001797D01*
X105172021Y-50107421D01*
X105247999Y-50200001D01*
X105340579Y-50275979D01*
X105446203Y-50332436D01*
X105560811Y-50367202D01*
X105680000Y-50378941D01*
X107680000Y-50378941D01*
X107799189Y-50367202D01*
X107913797Y-50332436D01*
X108019421Y-50275979D01*
X108112001Y-50200001D01*
X108187979Y-50107421D01*
X108244436Y-50001797D01*
X108279202Y-49887189D01*
X108288578Y-49791987D01*
X110868145Y-49791987D01*
X110979186Y-49987784D01*
X111230620Y-50101068D01*
X111499324Y-50163124D01*
X111774971Y-50171565D01*
X112046968Y-50126069D01*
X112304862Y-50028382D01*
X112380814Y-49987784D01*
X112491855Y-49791987D01*
X111680000Y-48980132D01*
X110868145Y-49791987D01*
X108288578Y-49791987D01*
X108290941Y-49768000D01*
X108290941Y-48862971D01*
X110276435Y-48862971D01*
X110321931Y-49134968D01*
X110419618Y-49392862D01*
X110460216Y-49468814D01*
X110656013Y-49579855D01*
X111467868Y-48768000D01*
X111892132Y-48768000D01*
X112703987Y-49579855D01*
X112899784Y-49468814D01*
X113013068Y-49217380D01*
X113075124Y-48948676D01*
X113083565Y-48673029D01*
X113038069Y-48401032D01*
X112940382Y-48143138D01*
X112899784Y-48067186D01*
X112703987Y-47956145D01*
X111892132Y-48768000D01*
X111467868Y-48768000D01*
X110656013Y-47956145D01*
X110460216Y-48067186D01*
X110346932Y-48318620D01*
X110284876Y-48587324D01*
X110276435Y-48862971D01*
X108290941Y-48862971D01*
X108290941Y-47768000D01*
X108288579Y-47744013D01*
X110868145Y-47744013D01*
X111680000Y-48555868D01*
X112491855Y-47744013D01*
X112380814Y-47548216D01*
X112129380Y-47434932D01*
X111860676Y-47372876D01*
X111585029Y-47364435D01*
X111313032Y-47409931D01*
X111055138Y-47507618D01*
X110979186Y-47548216D01*
X110868145Y-47744013D01*
X108288579Y-47744013D01*
X108279202Y-47648811D01*
X108244436Y-47534203D01*
X108187979Y-47428579D01*
X108112001Y-47335999D01*
X108019421Y-47260021D01*
X107913797Y-47203564D01*
X107799189Y-47168798D01*
X107680000Y-47157059D01*
X105680000Y-47157059D01*
X105560811Y-47168798D01*
X105446203Y-47203564D01*
X105340579Y-47260021D01*
X105247999Y-47335999D01*
X105172021Y-47428579D01*
X105115564Y-47534203D01*
X105080798Y-47648811D01*
X105069059Y-47768000D01*
X96660941Y-47768000D01*
X96660941Y-47714000D01*
X96649202Y-47594811D01*
X96614436Y-47480203D01*
X96557979Y-47374579D01*
X96482001Y-47281999D01*
X96389421Y-47206021D01*
X96283797Y-47149564D01*
X96230374Y-47133358D01*
X96306109Y-47095897D01*
X96399338Y-46878680D01*
X96448399Y-46647448D01*
X96451407Y-46411088D01*
X96408244Y-46178682D01*
X96320572Y-45959163D01*
X96306109Y-45932103D01*
X96130762Y-45845370D01*
X95462132Y-46514000D01*
X95476275Y-46528143D01*
X95264143Y-46740275D01*
X95250000Y-46726132D01*
X95235858Y-46740275D01*
X95023726Y-46528143D01*
X95037868Y-46514000D01*
X94369238Y-45845370D01*
X94193891Y-45932103D01*
X94100662Y-46149320D01*
X94051601Y-46380552D01*
X94048593Y-46616912D01*
X94091756Y-46849318D01*
X94179428Y-47068837D01*
X94193891Y-47095897D01*
X94269626Y-47133358D01*
X94216203Y-47149564D01*
X94110579Y-47206021D01*
X94017999Y-47281999D01*
X93942021Y-47374579D01*
X93885564Y-47480203D01*
X93850798Y-47594811D01*
X93839059Y-47714000D01*
X74318000Y-47714000D01*
X74318000Y-45835324D01*
X86984000Y-45835324D01*
X86984000Y-46112676D01*
X87038108Y-46384699D01*
X87144246Y-46640938D01*
X87298335Y-46871548D01*
X87494452Y-47067665D01*
X87725062Y-47221754D01*
X87981301Y-47327892D01*
X88253324Y-47382000D01*
X88530676Y-47382000D01*
X88802699Y-47327892D01*
X89058938Y-47221754D01*
X89289548Y-47067665D01*
X89485665Y-46871548D01*
X89639754Y-46640938D01*
X89745892Y-46384699D01*
X89800000Y-46112676D01*
X89800000Y-45835324D01*
X89759804Y-45633238D01*
X94581370Y-45633238D01*
X95250000Y-46301868D01*
X95918630Y-45633238D01*
X95831897Y-45457891D01*
X95614680Y-45364662D01*
X95383448Y-45315601D01*
X95147088Y-45312593D01*
X94914682Y-45355756D01*
X94695163Y-45443428D01*
X94668103Y-45457891D01*
X94581370Y-45633238D01*
X89759804Y-45633238D01*
X89745892Y-45563301D01*
X89639754Y-45307062D01*
X89485665Y-45076452D01*
X89289548Y-44880335D01*
X89190869Y-44814399D01*
X129352000Y-44814399D01*
X129352000Y-45101601D01*
X129408030Y-45383283D01*
X129517937Y-45648622D01*
X129677497Y-45887421D01*
X129880579Y-46090503D01*
X130086358Y-46228000D01*
X129880579Y-46365497D01*
X129677497Y-46568579D01*
X129517937Y-46807378D01*
X129408030Y-47072717D01*
X129352000Y-47354399D01*
X129352000Y-47641601D01*
X129408030Y-47923283D01*
X129517937Y-48188622D01*
X129677497Y-48427421D01*
X129880579Y-48630503D01*
X130119378Y-48790063D01*
X130384717Y-48899970D01*
X130666399Y-48956000D01*
X130953601Y-48956000D01*
X131235283Y-48899970D01*
X131500622Y-48790063D01*
X131739421Y-48630503D01*
X131942503Y-48427421D01*
X132080000Y-48221642D01*
X132217497Y-48427421D01*
X132420579Y-48630503D01*
X132659378Y-48790063D01*
X132924717Y-48899970D01*
X133206399Y-48956000D01*
X133493601Y-48956000D01*
X133775283Y-48899970D01*
X134040622Y-48790063D01*
X134279421Y-48630503D01*
X134482503Y-48427421D01*
X134620000Y-48221642D01*
X134757497Y-48427421D01*
X134960579Y-48630503D01*
X135199378Y-48790063D01*
X135464717Y-48899970D01*
X135746399Y-48956000D01*
X136033601Y-48956000D01*
X136315283Y-48899970D01*
X136580622Y-48790063D01*
X136819421Y-48630503D01*
X137022503Y-48427421D01*
X137160000Y-48221642D01*
X137297497Y-48427421D01*
X137500579Y-48630503D01*
X137739378Y-48790063D01*
X138004717Y-48899970D01*
X138286399Y-48956000D01*
X138573601Y-48956000D01*
X138855283Y-48899970D01*
X139120622Y-48790063D01*
X139359421Y-48630503D01*
X139562503Y-48427421D01*
X139700000Y-48221642D01*
X139837497Y-48427421D01*
X140040579Y-48630503D01*
X140279378Y-48790063D01*
X140544717Y-48899970D01*
X140826399Y-48956000D01*
X141113601Y-48956000D01*
X141395283Y-48899970D01*
X141660622Y-48790063D01*
X141899421Y-48630503D01*
X142102503Y-48427421D01*
X142240000Y-48221642D01*
X142377497Y-48427421D01*
X142580579Y-48630503D01*
X142819378Y-48790063D01*
X143084717Y-48899970D01*
X143366399Y-48956000D01*
X143653601Y-48956000D01*
X143935283Y-48899970D01*
X144200622Y-48790063D01*
X144439421Y-48630503D01*
X144642503Y-48427421D01*
X144780000Y-48221642D01*
X144917497Y-48427421D01*
X145120579Y-48630503D01*
X145359378Y-48790063D01*
X145624717Y-48899970D01*
X145906399Y-48956000D01*
X146193601Y-48956000D01*
X146475283Y-48899970D01*
X146740622Y-48790063D01*
X146979421Y-48630503D01*
X147182503Y-48427421D01*
X147320000Y-48221642D01*
X147457497Y-48427421D01*
X147660579Y-48630503D01*
X147899378Y-48790063D01*
X148164717Y-48899970D01*
X148446399Y-48956000D01*
X148733601Y-48956000D01*
X149015283Y-48899970D01*
X149280622Y-48790063D01*
X149462223Y-48668721D01*
X149868000Y-48668721D01*
X149868000Y-48867279D01*
X149906737Y-49062023D01*
X149982722Y-49245467D01*
X150093035Y-49410562D01*
X150233438Y-49550965D01*
X150398533Y-49661278D01*
X150581977Y-49737263D01*
X150776721Y-49776000D01*
X150975279Y-49776000D01*
X151170023Y-49737263D01*
X151353467Y-49661278D01*
X151518562Y-49550965D01*
X151658965Y-49410562D01*
X151769278Y-49245467D01*
X151845263Y-49062023D01*
X151884000Y-48867279D01*
X151884000Y-48668721D01*
X151845263Y-48473977D01*
X151796241Y-48355626D01*
X165524000Y-48355626D01*
X165524000Y-48672374D01*
X165585795Y-48983036D01*
X165707009Y-49275673D01*
X165882985Y-49539040D01*
X166106960Y-49763015D01*
X166370327Y-49938991D01*
X166662964Y-50060205D01*
X166973626Y-50122000D01*
X167290374Y-50122000D01*
X167601036Y-50060205D01*
X167893673Y-49938991D01*
X168157040Y-49763015D01*
X168381015Y-49539040D01*
X168556991Y-49275673D01*
X168678205Y-48983036D01*
X168740000Y-48672374D01*
X168740000Y-48355626D01*
X172024000Y-48355626D01*
X172024000Y-48672374D01*
X172085795Y-48983036D01*
X172207009Y-49275673D01*
X172382985Y-49539040D01*
X172606960Y-49763015D01*
X172870327Y-49938991D01*
X173162964Y-50060205D01*
X173473626Y-50122000D01*
X173790374Y-50122000D01*
X174101036Y-50060205D01*
X174393673Y-49938991D01*
X174657040Y-49763015D01*
X174881015Y-49539040D01*
X175056991Y-49275673D01*
X175178205Y-48983036D01*
X175240000Y-48672374D01*
X175240000Y-48355626D01*
X175178205Y-48044964D01*
X175056991Y-47752327D01*
X174881015Y-47488960D01*
X174657040Y-47264985D01*
X174393673Y-47089009D01*
X174101036Y-46967795D01*
X173790374Y-46906000D01*
X173473626Y-46906000D01*
X173162964Y-46967795D01*
X172870327Y-47089009D01*
X172606960Y-47264985D01*
X172382985Y-47488960D01*
X172207009Y-47752327D01*
X172085795Y-48044964D01*
X172024000Y-48355626D01*
X168740000Y-48355626D01*
X168678205Y-48044964D01*
X168556991Y-47752327D01*
X168381015Y-47488960D01*
X168157040Y-47264985D01*
X167893673Y-47089009D01*
X167601036Y-46967795D01*
X167290374Y-46906000D01*
X166973626Y-46906000D01*
X166662964Y-46967795D01*
X166370327Y-47089009D01*
X166106960Y-47264985D01*
X165882985Y-47488960D01*
X165707009Y-47752327D01*
X165585795Y-48044964D01*
X165524000Y-48355626D01*
X151796241Y-48355626D01*
X151769278Y-48290533D01*
X151658965Y-48125438D01*
X151518562Y-47985035D01*
X151353467Y-47874722D01*
X151170023Y-47798737D01*
X150975279Y-47760000D01*
X150776721Y-47760000D01*
X150581977Y-47798737D01*
X150398533Y-47874722D01*
X150233438Y-47985035D01*
X150093035Y-48125438D01*
X149982722Y-48290533D01*
X149906737Y-48473977D01*
X149868000Y-48668721D01*
X149462223Y-48668721D01*
X149519421Y-48630503D01*
X149722503Y-48427421D01*
X149882063Y-48188622D01*
X149991970Y-47923283D01*
X150048000Y-47641601D01*
X150048000Y-47354399D01*
X149991970Y-47072717D01*
X149882063Y-46807378D01*
X149722503Y-46568579D01*
X149560675Y-46406751D01*
X149673797Y-46372436D01*
X149779421Y-46315979D01*
X149872001Y-46240001D01*
X149947979Y-46147421D01*
X150004436Y-46041797D01*
X150039202Y-45927189D01*
X150050941Y-45808000D01*
X150050941Y-45441031D01*
X154955101Y-45441031D01*
X155017341Y-45595990D01*
X155200249Y-45669111D01*
X155393908Y-45705143D01*
X155590876Y-45702702D01*
X155783583Y-45661881D01*
X155942659Y-45595990D01*
X156004899Y-45441031D01*
X155480000Y-44916132D01*
X154955101Y-45441031D01*
X150050941Y-45441031D01*
X150050941Y-44617908D01*
X154478857Y-44617908D01*
X154481298Y-44814876D01*
X154522119Y-45007583D01*
X154588010Y-45166659D01*
X154742969Y-45228899D01*
X155267868Y-44704000D01*
X155692132Y-44704000D01*
X156217031Y-45228899D01*
X156269059Y-45208002D01*
X156269059Y-45304000D01*
X156280798Y-45423189D01*
X156315564Y-45537797D01*
X156372021Y-45643421D01*
X156447999Y-45736001D01*
X156540579Y-45811979D01*
X156646203Y-45868436D01*
X156760811Y-45903202D01*
X156880000Y-45914941D01*
X158080000Y-45914941D01*
X158199189Y-45903202D01*
X158313797Y-45868436D01*
X158419421Y-45811979D01*
X158512001Y-45736001D01*
X158587979Y-45643421D01*
X158644436Y-45537797D01*
X158679202Y-45423189D01*
X158690941Y-45304000D01*
X158690941Y-45037987D01*
X166320145Y-45037987D01*
X166431186Y-45233784D01*
X166682620Y-45347068D01*
X166951324Y-45409124D01*
X167226971Y-45417565D01*
X167498968Y-45372069D01*
X167756862Y-45274382D01*
X167832814Y-45233784D01*
X167943855Y-45037987D01*
X172820145Y-45037987D01*
X172931186Y-45233784D01*
X173182620Y-45347068D01*
X173451324Y-45409124D01*
X173726971Y-45417565D01*
X173998968Y-45372069D01*
X174256862Y-45274382D01*
X174332814Y-45233784D01*
X174443855Y-45037987D01*
X173632000Y-44226132D01*
X172820145Y-45037987D01*
X167943855Y-45037987D01*
X167132000Y-44226132D01*
X166320145Y-45037987D01*
X158690941Y-45037987D01*
X158690941Y-44108971D01*
X165728435Y-44108971D01*
X165773931Y-44380968D01*
X165871618Y-44638862D01*
X165912216Y-44714814D01*
X166108013Y-44825855D01*
X166919868Y-44014000D01*
X167344132Y-44014000D01*
X168155987Y-44825855D01*
X168351784Y-44714814D01*
X168465068Y-44463380D01*
X168527124Y-44194676D01*
X168529748Y-44108971D01*
X172228435Y-44108971D01*
X172273931Y-44380968D01*
X172371618Y-44638862D01*
X172412216Y-44714814D01*
X172608013Y-44825855D01*
X173419868Y-44014000D01*
X173844132Y-44014000D01*
X174655987Y-44825855D01*
X174851784Y-44714814D01*
X174965068Y-44463380D01*
X175027124Y-44194676D01*
X175035565Y-43919029D01*
X174990069Y-43647032D01*
X174892382Y-43389138D01*
X174851784Y-43313186D01*
X174655987Y-43202145D01*
X173844132Y-44014000D01*
X173419868Y-44014000D01*
X172608013Y-43202145D01*
X172412216Y-43313186D01*
X172298932Y-43564620D01*
X172236876Y-43833324D01*
X172228435Y-44108971D01*
X168529748Y-44108971D01*
X168535565Y-43919029D01*
X168490069Y-43647032D01*
X168392382Y-43389138D01*
X168351784Y-43313186D01*
X168155987Y-43202145D01*
X167344132Y-44014000D01*
X166919868Y-44014000D01*
X166108013Y-43202145D01*
X165912216Y-43313186D01*
X165798932Y-43564620D01*
X165736876Y-43833324D01*
X165728435Y-44108971D01*
X158690941Y-44108971D01*
X158690941Y-44104000D01*
X158679202Y-43984811D01*
X158644436Y-43870203D01*
X158587979Y-43764579D01*
X158512001Y-43671999D01*
X158419421Y-43596021D01*
X158313797Y-43539564D01*
X158199189Y-43504798D01*
X158080000Y-43493059D01*
X156880000Y-43493059D01*
X156760811Y-43504798D01*
X156646203Y-43539564D01*
X156540579Y-43596021D01*
X156447999Y-43671999D01*
X156372021Y-43764579D01*
X156315564Y-43870203D01*
X156280798Y-43984811D01*
X156269059Y-44104000D01*
X156269059Y-44199998D01*
X156217031Y-44179101D01*
X155692132Y-44704000D01*
X155267868Y-44704000D01*
X154742969Y-44179101D01*
X154588010Y-44241341D01*
X154514889Y-44424249D01*
X154478857Y-44617908D01*
X150050941Y-44617908D01*
X150050941Y-44108000D01*
X150039202Y-43988811D01*
X150032577Y-43966969D01*
X154955101Y-43966969D01*
X155480000Y-44491868D01*
X156004899Y-43966969D01*
X155942659Y-43812010D01*
X155759751Y-43738889D01*
X155566092Y-43702857D01*
X155369124Y-43705298D01*
X155176417Y-43746119D01*
X155017341Y-43812010D01*
X154955101Y-43966969D01*
X150032577Y-43966969D01*
X150004436Y-43874203D01*
X149947979Y-43768579D01*
X149872001Y-43675999D01*
X149779421Y-43600021D01*
X149673797Y-43543564D01*
X149559189Y-43508798D01*
X149440000Y-43497059D01*
X147740000Y-43497059D01*
X147620811Y-43508798D01*
X147506203Y-43543564D01*
X147400579Y-43600021D01*
X147307999Y-43675999D01*
X147232021Y-43768579D01*
X147175564Y-43874203D01*
X147141249Y-43987325D01*
X146979421Y-43825497D01*
X146740622Y-43665937D01*
X146475283Y-43556030D01*
X146193601Y-43500000D01*
X145906399Y-43500000D01*
X145624717Y-43556030D01*
X145359378Y-43665937D01*
X145120579Y-43825497D01*
X144917497Y-44028579D01*
X144780000Y-44234358D01*
X144642503Y-44028579D01*
X144439421Y-43825497D01*
X144200622Y-43665937D01*
X143935283Y-43556030D01*
X143653601Y-43500000D01*
X143366399Y-43500000D01*
X143084717Y-43556030D01*
X142819378Y-43665937D01*
X142580579Y-43825497D01*
X142377497Y-44028579D01*
X142240000Y-44234358D01*
X142102503Y-44028579D01*
X141899421Y-43825497D01*
X141660622Y-43665937D01*
X141395283Y-43556030D01*
X141113601Y-43500000D01*
X140826399Y-43500000D01*
X140544717Y-43556030D01*
X140279378Y-43665937D01*
X140040579Y-43825497D01*
X139837497Y-44028579D01*
X139700000Y-44234358D01*
X139562503Y-44028579D01*
X139359421Y-43825497D01*
X139120622Y-43665937D01*
X138855283Y-43556030D01*
X138573601Y-43500000D01*
X138286399Y-43500000D01*
X138004717Y-43556030D01*
X137739378Y-43665937D01*
X137500579Y-43825497D01*
X137297497Y-44028579D01*
X137160000Y-44234358D01*
X137022503Y-44028579D01*
X136819421Y-43825497D01*
X136580622Y-43665937D01*
X136315283Y-43556030D01*
X136033601Y-43500000D01*
X135746399Y-43500000D01*
X135464717Y-43556030D01*
X135199378Y-43665937D01*
X134960579Y-43825497D01*
X134757497Y-44028579D01*
X134597937Y-44267378D01*
X134504157Y-44493783D01*
X134462353Y-44387749D01*
X134329729Y-44181697D01*
X134159455Y-44005478D01*
X133958074Y-43865864D01*
X133733325Y-43768220D01*
X133692283Y-43755777D01*
X133500000Y-43817825D01*
X133500000Y-44808000D01*
X133520000Y-44808000D01*
X133520000Y-45108000D01*
X133500000Y-45108000D01*
X133500000Y-45128000D01*
X133200000Y-45128000D01*
X133200000Y-45108000D01*
X133180000Y-45108000D01*
X133180000Y-44808000D01*
X133200000Y-44808000D01*
X133200000Y-43817825D01*
X133007717Y-43755777D01*
X132966675Y-43768220D01*
X132741926Y-43865864D01*
X132540545Y-44005478D01*
X132370271Y-44181697D01*
X132237647Y-44387749D01*
X132195843Y-44493783D01*
X132102063Y-44267378D01*
X131942503Y-44028579D01*
X131739421Y-43825497D01*
X131500622Y-43665937D01*
X131235283Y-43556030D01*
X130953601Y-43500000D01*
X130666399Y-43500000D01*
X130384717Y-43556030D01*
X130119378Y-43665937D01*
X129880579Y-43825497D01*
X129677497Y-44028579D01*
X129517937Y-44267378D01*
X129408030Y-44532717D01*
X129352000Y-44814399D01*
X89190869Y-44814399D01*
X89058938Y-44726246D01*
X88802699Y-44620108D01*
X88530676Y-44566000D01*
X88253324Y-44566000D01*
X87981301Y-44620108D01*
X87725062Y-44726246D01*
X87494452Y-44880335D01*
X87298335Y-45076452D01*
X87144246Y-45307062D01*
X87038108Y-45563301D01*
X86984000Y-45835324D01*
X74318000Y-45835324D01*
X74318000Y-42318721D01*
X143772000Y-42318721D01*
X143772000Y-42517279D01*
X143810737Y-42712023D01*
X143886722Y-42895467D01*
X143997035Y-43060562D01*
X144137438Y-43200965D01*
X144302533Y-43311278D01*
X144485977Y-43387263D01*
X144680721Y-43426000D01*
X144879279Y-43426000D01*
X145074023Y-43387263D01*
X145257467Y-43311278D01*
X145422562Y-43200965D01*
X145562965Y-43060562D01*
X145610104Y-42990013D01*
X166320145Y-42990013D01*
X167132000Y-43801868D01*
X167943855Y-42990013D01*
X172820145Y-42990013D01*
X173632000Y-43801868D01*
X174443855Y-42990013D01*
X174332814Y-42794216D01*
X174081380Y-42680932D01*
X173812676Y-42618876D01*
X173537029Y-42610435D01*
X173265032Y-42655931D01*
X173007138Y-42753618D01*
X172931186Y-42794216D01*
X172820145Y-42990013D01*
X167943855Y-42990013D01*
X167832814Y-42794216D01*
X167581380Y-42680932D01*
X167312676Y-42618876D01*
X167037029Y-42610435D01*
X166765032Y-42655931D01*
X166507138Y-42753618D01*
X166431186Y-42794216D01*
X166320145Y-42990013D01*
X145610104Y-42990013D01*
X145673278Y-42895467D01*
X145749263Y-42712023D01*
X145788000Y-42517279D01*
X145788000Y-42318721D01*
X145749263Y-42123977D01*
X145673278Y-41940533D01*
X145562965Y-41775438D01*
X145422562Y-41635035D01*
X145257467Y-41524722D01*
X145074023Y-41448737D01*
X144879279Y-41410000D01*
X144680721Y-41410000D01*
X144485977Y-41448737D01*
X144302533Y-41524722D01*
X144137438Y-41635035D01*
X143997035Y-41775438D01*
X143886722Y-41940533D01*
X143810737Y-42123977D01*
X143772000Y-42318721D01*
X74318000Y-42318721D01*
X74318000Y-41298000D01*
X177904000Y-41298000D01*
X177904001Y-90782000D01*
M02*
