G04 #@! TF.GenerationSoftware,KiCad,Pcbnew,(5.1.5)-3*
G04 #@! TF.CreationDate,2020-01-27T11:44:28-05:00*
G04 #@! TF.ProjectId,Main Board,4d61696e-2042-46f6-9172-642e6b696361,rev?*
G04 #@! TF.SameCoordinates,Original*
G04 #@! TF.FileFunction,Copper,L4,Bot*
G04 #@! TF.FilePolarity,Positive*
%FSLAX46Y46*%
G04 Gerber Fmt 4.6, Leading zero omitted, Abs format (unit mm)*
G04 Created by KiCad (PCBNEW (5.1.5)-3) date 2020-01-27 11:44:28*
%MOMM*%
%LPD*%
G04 APERTURE LIST*
%ADD10C,2.000000*%
%ADD11O,1.500000X2.000000*%
%ADD12C,1.524000*%
%ADD13O,1.700000X1.700000*%
%ADD14R,1.700000X1.700000*%
%ADD15R,1.200000X1.200000*%
%ADD16C,1.200000*%
%ADD17R,2.000000X2.000000*%
%ADD18R,1.600000X1.600000*%
%ADD19C,1.600000*%
%ADD20O,1.600000X1.600000*%
%ADD21C,0.800000*%
%ADD22C,0.250000*%
G04 APERTURE END LIST*
D10*
X154178000Y-86868000D03*
D11*
X154178000Y-58928000D03*
X151638000Y-86868000D03*
X151638000Y-58928000D03*
X149098000Y-86868000D03*
X149098000Y-58928000D03*
X146558000Y-86868000D03*
X146558000Y-58928000D03*
X144018000Y-86868000D03*
X144018000Y-58928000D03*
D10*
X141478000Y-86868000D03*
D11*
X141478000Y-58928000D03*
X138938000Y-86868000D03*
X138938000Y-58928000D03*
X136398000Y-86868000D03*
X136398000Y-58928000D03*
X133858000Y-86868000D03*
X133858000Y-58928000D03*
X131318000Y-86868000D03*
X131318000Y-58928000D03*
X128778000Y-86868000D03*
X128778000Y-58928000D03*
X126238000Y-86868000D03*
X126238000Y-58928000D03*
X123698000Y-86868000D03*
X123698000Y-58928000D03*
X121158000Y-86868000D03*
X121158000Y-58928000D03*
X118618000Y-86868000D03*
X118618000Y-58928000D03*
X116078000Y-86868000D03*
X116078000Y-58928000D03*
X113538000Y-86868000D03*
X113538000Y-58928000D03*
X110998000Y-86868000D03*
X110998000Y-58928000D03*
D10*
X108458000Y-86868000D03*
D11*
X108458000Y-58928000D03*
X105918000Y-86868000D03*
X105918000Y-58928000D03*
D12*
X164338000Y-89916000D03*
X167894000Y-89916000D03*
X171450000Y-89916000D03*
X164338000Y-87376000D03*
X171450000Y-87376000D03*
X167894000Y-87376000D03*
X161798000Y-88646000D03*
X173990000Y-88646000D03*
D13*
X130810000Y-47498000D03*
X130810000Y-44958000D03*
X133350000Y-47498000D03*
X133350000Y-44958000D03*
X135890000Y-47498000D03*
X135890000Y-44958000D03*
X138430000Y-47498000D03*
X138430000Y-44958000D03*
X140970000Y-47498000D03*
X140970000Y-44958000D03*
X143510000Y-47498000D03*
X143510000Y-44958000D03*
X146050000Y-47498000D03*
X146050000Y-44958000D03*
X148590000Y-47498000D03*
D14*
X148590000Y-44958000D03*
X82550000Y-83820000D03*
D13*
X80010000Y-83820000D03*
X82550000Y-81280000D03*
X80010000Y-81280000D03*
X82550000Y-78740000D03*
X80010000Y-78740000D03*
X82550000Y-76200000D03*
X80010000Y-76200000D03*
X82550000Y-73660000D03*
X80010000Y-73660000D03*
X82550000Y-71120000D03*
X80010000Y-71120000D03*
X82550000Y-68580000D03*
X80010000Y-68580000D03*
X82550000Y-66040000D03*
X80010000Y-66040000D03*
D15*
X157480000Y-44704000D03*
D16*
X155480000Y-44704000D03*
D17*
X106680000Y-48768000D03*
D10*
X111680000Y-48768000D03*
D18*
X95250000Y-48514000D03*
D19*
X95250000Y-46514000D03*
D14*
X80010000Y-51054000D03*
D13*
X82550000Y-51054000D03*
X80010000Y-53594000D03*
X82550000Y-53594000D03*
X82550000Y-60706000D03*
X80010000Y-60706000D03*
X82550000Y-58166000D03*
D14*
X80010000Y-58166000D03*
D19*
X163322000Y-51562000D03*
D20*
X153162000Y-51562000D03*
X88392000Y-45974000D03*
D19*
X88392000Y-56134000D03*
X113792000Y-74930000D03*
D20*
X113792000Y-64770000D03*
D10*
X167132000Y-44014000D03*
X167132000Y-48514000D03*
X173632000Y-44014000D03*
X173632000Y-48514000D03*
D21*
X120396000Y-69596012D03*
X129793996Y-70648990D03*
X123952000Y-68580000D03*
X114046000Y-78232000D03*
X92456000Y-60234990D03*
X150876000Y-48768000D03*
X144780000Y-42418000D03*
X91440000Y-77216000D03*
X138684000Y-53848000D03*
D22*
X85784081Y-71628000D02*
X133096000Y-71628000D01*
X82550000Y-73660000D02*
X83752081Y-73660000D01*
X83752081Y-73660000D02*
X85784081Y-71628000D01*
X144018000Y-82550000D02*
X133096000Y-71628000D01*
X144018000Y-86868000D02*
X144018000Y-82550000D01*
X81280000Y-74930000D02*
X84328000Y-74930000D01*
X80010000Y-73660000D02*
X81280000Y-74930000D01*
X84328000Y-74930000D02*
X86614000Y-72644000D01*
X86614000Y-72644000D02*
X115062000Y-72644000D01*
X123698000Y-85618000D02*
X123698000Y-81534000D01*
X123698000Y-86868000D02*
X123698000Y-85618000D01*
X115062000Y-72644000D02*
X123698000Y-81534000D01*
X84073988Y-69596012D02*
X119830315Y-69596012D01*
X119830315Y-69596012D02*
X120396000Y-69596012D01*
X82550000Y-71120000D02*
X84073988Y-69596012D01*
X129228311Y-70648990D02*
X129793996Y-70648990D01*
X83820000Y-72390000D02*
X85561010Y-70648990D01*
X80010000Y-71120000D02*
X81280000Y-72390000D01*
X85561010Y-70648990D02*
X129228311Y-70648990D01*
X81280000Y-72390000D02*
X83820000Y-72390000D01*
X82550000Y-68580000D02*
X123952000Y-68580000D01*
X113538000Y-60178000D02*
X113538000Y-58928000D01*
X80010000Y-68580000D02*
X81280000Y-67310000D01*
X81280000Y-67310000D02*
X81280000Y-65278000D01*
X81280000Y-65278000D02*
X84582000Y-61976000D01*
X111740000Y-61976000D02*
X113538000Y-60178000D01*
X84582000Y-61976000D02*
X111740000Y-61976000D01*
X82550000Y-66040000D02*
X103886000Y-66040000D01*
X103886000Y-66040000D02*
X106680000Y-63246000D01*
X121158000Y-60178000D02*
X121158000Y-58928000D01*
X118090000Y-63246000D02*
X121158000Y-60178000D01*
X115570000Y-63246000D02*
X118090000Y-63246000D01*
X106680000Y-63246000D02*
X115570000Y-63246000D01*
X88392000Y-45974000D02*
X92456000Y-50038000D01*
X92456000Y-50038000D02*
X92456000Y-60234990D01*
X116078000Y-80264000D02*
X114046000Y-78232000D01*
X116078000Y-86868000D02*
X116078000Y-80264000D01*
X150876000Y-48768000D02*
X150876000Y-43942000D01*
X150876000Y-43942000D02*
X149352000Y-42418000D01*
X145345685Y-42418000D02*
X144780000Y-42418000D01*
X149352000Y-42418000D02*
X145345685Y-42418000D01*
X110490000Y-77216000D02*
X91440000Y-77216000D01*
X113538000Y-86868000D02*
X113538000Y-80264000D01*
X113538000Y-80264000D02*
X110490000Y-77216000D01*
X114923370Y-74930000D02*
X113792000Y-74930000D01*
X118618000Y-86868000D02*
X118618000Y-85618000D01*
X118618000Y-85618000D02*
X118618000Y-78740000D01*
X118618000Y-78740000D02*
X114923370Y-74930000D01*
X129649787Y-43180000D02*
X136652000Y-43180000D01*
X146050000Y-44958000D02*
X144272000Y-43180000D01*
X144272000Y-43180000D02*
X140208000Y-43180000D01*
X140208000Y-43180000D02*
X138430000Y-43180000D01*
X138430000Y-43180000D02*
X136652000Y-43180000D01*
X110998000Y-57678000D02*
X113812000Y-54864000D01*
X113812000Y-54864000D02*
X117856000Y-54864000D01*
X110998000Y-58928000D02*
X110998000Y-57678000D01*
X117856000Y-54864000D02*
X129649787Y-43180000D01*
X138430000Y-44958000D02*
X136652000Y-43180000D01*
X139279999Y-44108001D02*
X140208000Y-43180000D01*
X138430000Y-44958000D02*
X139279999Y-44108001D01*
X141819999Y-46648001D02*
X143510000Y-44958000D01*
X140970000Y-47498000D02*
X141819999Y-46648001D01*
X128778000Y-57678000D02*
X128778000Y-58928000D01*
X132208001Y-54247999D02*
X128778000Y-57678000D01*
X138284001Y-54247999D02*
X132208001Y-54247999D01*
X138684000Y-53848000D02*
X138284001Y-54247999D01*
X143510000Y-49276000D02*
X143510000Y-47498000D01*
X140716000Y-52070000D02*
X143510000Y-49276000D01*
X131846000Y-52070000D02*
X140716000Y-52070000D01*
X126238000Y-58928000D02*
X126238000Y-57678000D01*
X126238000Y-57678000D02*
X131846000Y-52070000D01*
X167132000Y-49928213D02*
X167132000Y-48514000D01*
X161434213Y-55626000D02*
X167132000Y-49928213D01*
X141478000Y-58928000D02*
X141478000Y-57678000D01*
X143530000Y-55626000D02*
X161434213Y-55626000D01*
X141478000Y-57678000D02*
X143530000Y-55626000D01*
X157480000Y-47244000D02*
X157480000Y-44704000D01*
X153162000Y-51562000D02*
X157480000Y-47244000D01*
X145054000Y-51562000D02*
X138938000Y-57678000D01*
X138938000Y-57678000D02*
X138938000Y-58928000D01*
X153162000Y-51562000D02*
X145054000Y-51562000D01*
M02*
