G04 #@! TF.GenerationSoftware,KiCad,Pcbnew,(5.1.5)-3*
G04 #@! TF.CreationDate,2020-01-27T11:44:28-05:00*
G04 #@! TF.ProjectId,Main Board,4d61696e-2042-46f6-9172-642e6b696361,rev?*
G04 #@! TF.SameCoordinates,Original*
G04 #@! TF.FileFunction,Copper,L2,Inr*
G04 #@! TF.FilePolarity,Positive*
%FSLAX46Y46*%
G04 Gerber Fmt 4.6, Leading zero omitted, Abs format (unit mm)*
G04 Created by KiCad (PCBNEW (5.1.5)-3) date 2020-01-27 11:44:28*
%MOMM*%
%LPD*%
G04 APERTURE LIST*
%ADD10C,2.000000*%
%ADD11O,1.500000X2.000000*%
%ADD12C,1.524000*%
%ADD13O,1.700000X1.700000*%
%ADD14R,1.700000X1.700000*%
%ADD15R,1.200000X1.200000*%
%ADD16C,1.200000*%
%ADD17R,2.000000X2.000000*%
%ADD18R,1.600000X1.600000*%
%ADD19C,1.600000*%
%ADD20O,1.600000X1.600000*%
%ADD21C,0.800000*%
%ADD22C,1.500000*%
%ADD23C,0.200000*%
G04 APERTURE END LIST*
D10*
X154178000Y-86868000D03*
D11*
X154178000Y-58928000D03*
X151638000Y-86868000D03*
X151638000Y-58928000D03*
X149098000Y-86868000D03*
X149098000Y-58928000D03*
X146558000Y-86868000D03*
X146558000Y-58928000D03*
X144018000Y-86868000D03*
X144018000Y-58928000D03*
D10*
X141478000Y-86868000D03*
D11*
X141478000Y-58928000D03*
X138938000Y-86868000D03*
X138938000Y-58928000D03*
X136398000Y-86868000D03*
X136398000Y-58928000D03*
X133858000Y-86868000D03*
X133858000Y-58928000D03*
X131318000Y-86868000D03*
X131318000Y-58928000D03*
X128778000Y-86868000D03*
X128778000Y-58928000D03*
X126238000Y-86868000D03*
X126238000Y-58928000D03*
X123698000Y-86868000D03*
X123698000Y-58928000D03*
X121158000Y-86868000D03*
X121158000Y-58928000D03*
X118618000Y-86868000D03*
X118618000Y-58928000D03*
X116078000Y-86868000D03*
X116078000Y-58928000D03*
X113538000Y-86868000D03*
X113538000Y-58928000D03*
X110998000Y-86868000D03*
X110998000Y-58928000D03*
D10*
X108458000Y-86868000D03*
D11*
X108458000Y-58928000D03*
X105918000Y-86868000D03*
X105918000Y-58928000D03*
D12*
X164338000Y-89916000D03*
X167894000Y-89916000D03*
X171450000Y-89916000D03*
X164338000Y-87376000D03*
X171450000Y-87376000D03*
X167894000Y-87376000D03*
X161798000Y-88646000D03*
X173990000Y-88646000D03*
D13*
X130810000Y-47498000D03*
X130810000Y-44958000D03*
X133350000Y-47498000D03*
X133350000Y-44958000D03*
X135890000Y-47498000D03*
X135890000Y-44958000D03*
X138430000Y-47498000D03*
X138430000Y-44958000D03*
X140970000Y-47498000D03*
X140970000Y-44958000D03*
X143510000Y-47498000D03*
X143510000Y-44958000D03*
X146050000Y-47498000D03*
X146050000Y-44958000D03*
X148590000Y-47498000D03*
D14*
X148590000Y-44958000D03*
X82550000Y-83820000D03*
D13*
X80010000Y-83820000D03*
X82550000Y-81280000D03*
X80010000Y-81280000D03*
X82550000Y-78740000D03*
X80010000Y-78740000D03*
X82550000Y-76200000D03*
X80010000Y-76200000D03*
X82550000Y-73660000D03*
X80010000Y-73660000D03*
X82550000Y-71120000D03*
X80010000Y-71120000D03*
X82550000Y-68580000D03*
X80010000Y-68580000D03*
X82550000Y-66040000D03*
X80010000Y-66040000D03*
D15*
X157480000Y-44704000D03*
D16*
X155480000Y-44704000D03*
D17*
X106680000Y-48768000D03*
D10*
X111680000Y-48768000D03*
D18*
X95250000Y-48514000D03*
D19*
X95250000Y-46514000D03*
D14*
X80010000Y-51054000D03*
D13*
X82550000Y-51054000D03*
X80010000Y-53594000D03*
X82550000Y-53594000D03*
X82550000Y-60706000D03*
X80010000Y-60706000D03*
X82550000Y-58166000D03*
D14*
X80010000Y-58166000D03*
D19*
X163322000Y-51562000D03*
D20*
X153162000Y-51562000D03*
X88392000Y-45974000D03*
D19*
X88392000Y-56134000D03*
X113792000Y-74930000D03*
D20*
X113792000Y-64770000D03*
D10*
X167132000Y-44014000D03*
X167132000Y-48514000D03*
X173632000Y-44014000D03*
X173632000Y-48514000D03*
D21*
X120396000Y-69596012D03*
X129793996Y-70648990D03*
X123952000Y-68580000D03*
X114046000Y-78232000D03*
X92456000Y-60234990D03*
X150876000Y-48768000D03*
X144780000Y-42418000D03*
X91440000Y-77216000D03*
X138684000Y-53848000D03*
D22*
X82550000Y-81280000D02*
X80010000Y-81280000D01*
X106680000Y-46268000D02*
X106680000Y-48768000D01*
X78807919Y-81280000D02*
X77470000Y-79942081D01*
X80010000Y-81280000D02*
X78807919Y-81280000D01*
X77470000Y-79942081D02*
X77470000Y-46482000D01*
X103338000Y-42926000D02*
X106680000Y-46268000D01*
X77470000Y-46482000D02*
X81026000Y-42926000D01*
X81026000Y-42926000D02*
X103338000Y-42926000D01*
X82550000Y-81280000D02*
X85598000Y-81280000D01*
X85598000Y-81280000D02*
X94234000Y-89916000D01*
X154178000Y-88282213D02*
X154178000Y-86868000D01*
X152544213Y-89916000D02*
X154178000Y-88282213D01*
X94234000Y-89916000D02*
X152544213Y-89916000D01*
D23*
G36*
X101499427Y-88546000D02*
G01*
X95291422Y-88546000D01*
X86684711Y-79939289D01*
X86669557Y-79926853D01*
X86652268Y-79917612D01*
X86633509Y-79911921D01*
X86614000Y-79910000D01*
X82991776Y-79910000D01*
X83142097Y-79847735D01*
X83346828Y-79710938D01*
X83520938Y-79536828D01*
X83657735Y-79332097D01*
X83751963Y-79104611D01*
X83800000Y-78863114D01*
X83800000Y-78616886D01*
X83751963Y-78375389D01*
X83657735Y-78147903D01*
X83520938Y-77943172D01*
X83346828Y-77769062D01*
X83142097Y-77632265D01*
X82914611Y-77538037D01*
X82673114Y-77490000D01*
X82426886Y-77490000D01*
X82185389Y-77538037D01*
X81957903Y-77632265D01*
X81753172Y-77769062D01*
X81579062Y-77943172D01*
X81442265Y-78147903D01*
X81348037Y-78375389D01*
X81300000Y-78616886D01*
X81300000Y-78863114D01*
X81348037Y-79104611D01*
X81442265Y-79332097D01*
X81579062Y-79536828D01*
X81753172Y-79710938D01*
X81957903Y-79847735D01*
X82108224Y-79910000D01*
X80451776Y-79910000D01*
X80602097Y-79847735D01*
X80806828Y-79710938D01*
X80980938Y-79536828D01*
X81117735Y-79332097D01*
X81211963Y-79104611D01*
X81260000Y-78863114D01*
X81260000Y-78616886D01*
X81211963Y-78375389D01*
X81117735Y-78147903D01*
X80980938Y-77943172D01*
X80806828Y-77769062D01*
X80602097Y-77632265D01*
X80374611Y-77538037D01*
X80133114Y-77490000D01*
X79886886Y-77490000D01*
X79645389Y-77538037D01*
X79417903Y-77632265D01*
X79213172Y-77769062D01*
X79039062Y-77943172D01*
X78902265Y-78147903D01*
X78808037Y-78375389D01*
X78760000Y-78616886D01*
X78760000Y-78863114D01*
X78808037Y-79104611D01*
X78819780Y-79132961D01*
X78620000Y-78973137D01*
X78620000Y-76546157D01*
X78808886Y-76546157D01*
X78818990Y-76579487D01*
X78915909Y-76804550D01*
X79054873Y-77006380D01*
X79230542Y-77177222D01*
X79436166Y-77310510D01*
X79663842Y-77401121D01*
X79856000Y-77340484D01*
X79856000Y-76354000D01*
X80164000Y-76354000D01*
X80164000Y-77340484D01*
X80356158Y-77401121D01*
X80583834Y-77310510D01*
X80789458Y-77177222D01*
X80965127Y-77006380D01*
X81104091Y-76804550D01*
X81201010Y-76579487D01*
X81211114Y-76546157D01*
X81348886Y-76546157D01*
X81358990Y-76579487D01*
X81455909Y-76804550D01*
X81594873Y-77006380D01*
X81770542Y-77177222D01*
X81976166Y-77310510D01*
X82203842Y-77401121D01*
X82396000Y-77340484D01*
X82396000Y-76354000D01*
X82704000Y-76354000D01*
X82704000Y-77340484D01*
X82896158Y-77401121D01*
X83123834Y-77310510D01*
X83329458Y-77177222D01*
X83370603Y-77137207D01*
X90640000Y-77137207D01*
X90640000Y-77294793D01*
X90670743Y-77449351D01*
X90731049Y-77594942D01*
X90818599Y-77725970D01*
X90930030Y-77837401D01*
X91061058Y-77924951D01*
X91206649Y-77985257D01*
X91361207Y-78016000D01*
X91518793Y-78016000D01*
X91673351Y-77985257D01*
X91818942Y-77924951D01*
X91949970Y-77837401D01*
X92061401Y-77725970D01*
X92148951Y-77594942D01*
X92209257Y-77449351D01*
X92240000Y-77294793D01*
X92240000Y-77137207D01*
X92209257Y-76982649D01*
X92148951Y-76837058D01*
X92061401Y-76706030D01*
X91949970Y-76594599D01*
X91818942Y-76507049D01*
X91673351Y-76446743D01*
X91518793Y-76416000D01*
X91361207Y-76416000D01*
X91206649Y-76446743D01*
X91061058Y-76507049D01*
X90930030Y-76594599D01*
X90818599Y-76706030D01*
X90731049Y-76837058D01*
X90670743Y-76982649D01*
X90640000Y-77137207D01*
X83370603Y-77137207D01*
X83505127Y-77006380D01*
X83644091Y-76804550D01*
X83741010Y-76579487D01*
X83751114Y-76546157D01*
X83689642Y-76354000D01*
X82704000Y-76354000D01*
X82396000Y-76354000D01*
X81410358Y-76354000D01*
X81348886Y-76546157D01*
X81211114Y-76546157D01*
X81149642Y-76354000D01*
X80164000Y-76354000D01*
X79856000Y-76354000D01*
X78870358Y-76354000D01*
X78808886Y-76546157D01*
X78620000Y-76546157D01*
X78620000Y-75853843D01*
X78808886Y-75853843D01*
X78870358Y-76046000D01*
X79856000Y-76046000D01*
X79856000Y-75059516D01*
X80164000Y-75059516D01*
X80164000Y-76046000D01*
X81149642Y-76046000D01*
X81211114Y-75853843D01*
X81348886Y-75853843D01*
X81410358Y-76046000D01*
X82396000Y-76046000D01*
X82396000Y-75059516D01*
X82704000Y-75059516D01*
X82704000Y-76046000D01*
X83689642Y-76046000D01*
X83751114Y-75853843D01*
X83741010Y-75820513D01*
X83644091Y-75595450D01*
X83505127Y-75393620D01*
X83329458Y-75222778D01*
X83123834Y-75089490D01*
X82896158Y-74998879D01*
X82704000Y-75059516D01*
X82396000Y-75059516D01*
X82203842Y-74998879D01*
X81976166Y-75089490D01*
X81770542Y-75222778D01*
X81594873Y-75393620D01*
X81455909Y-75595450D01*
X81358990Y-75820513D01*
X81348886Y-75853843D01*
X81211114Y-75853843D01*
X81201010Y-75820513D01*
X81104091Y-75595450D01*
X80965127Y-75393620D01*
X80789458Y-75222778D01*
X80583834Y-75089490D01*
X80356158Y-74998879D01*
X80164000Y-75059516D01*
X79856000Y-75059516D01*
X79663842Y-74998879D01*
X79436166Y-75089490D01*
X79230542Y-75222778D01*
X79054873Y-75393620D01*
X78915909Y-75595450D01*
X78818990Y-75820513D01*
X78808886Y-75853843D01*
X78620000Y-75853843D01*
X78620000Y-73536886D01*
X78760000Y-73536886D01*
X78760000Y-73783114D01*
X78808037Y-74024611D01*
X78902265Y-74252097D01*
X79039062Y-74456828D01*
X79213172Y-74630938D01*
X79417903Y-74767735D01*
X79645389Y-74861963D01*
X79886886Y-74910000D01*
X80133114Y-74910000D01*
X80374611Y-74861963D01*
X80602097Y-74767735D01*
X80806828Y-74630938D01*
X80980938Y-74456828D01*
X81117735Y-74252097D01*
X81211963Y-74024611D01*
X81260000Y-73783114D01*
X81260000Y-73536886D01*
X81300000Y-73536886D01*
X81300000Y-73783114D01*
X81348037Y-74024611D01*
X81442265Y-74252097D01*
X81579062Y-74456828D01*
X81753172Y-74630938D01*
X81957903Y-74767735D01*
X82185389Y-74861963D01*
X82426886Y-74910000D01*
X82673114Y-74910000D01*
X82914611Y-74861963D01*
X83142097Y-74767735D01*
X83346828Y-74630938D01*
X83520938Y-74456828D01*
X83657735Y-74252097D01*
X83751963Y-74024611D01*
X83800000Y-73783114D01*
X83800000Y-73536886D01*
X83751963Y-73295389D01*
X83657735Y-73067903D01*
X83520938Y-72863172D01*
X83346828Y-72689062D01*
X83142097Y-72552265D01*
X82914611Y-72458037D01*
X82673114Y-72410000D01*
X82426886Y-72410000D01*
X82185389Y-72458037D01*
X81957903Y-72552265D01*
X81753172Y-72689062D01*
X81579062Y-72863172D01*
X81442265Y-73067903D01*
X81348037Y-73295389D01*
X81300000Y-73536886D01*
X81260000Y-73536886D01*
X81211963Y-73295389D01*
X81117735Y-73067903D01*
X80980938Y-72863172D01*
X80806828Y-72689062D01*
X80602097Y-72552265D01*
X80374611Y-72458037D01*
X80133114Y-72410000D01*
X79886886Y-72410000D01*
X79645389Y-72458037D01*
X79417903Y-72552265D01*
X79213172Y-72689062D01*
X79039062Y-72863172D01*
X78902265Y-73067903D01*
X78808037Y-73295389D01*
X78760000Y-73536886D01*
X78620000Y-73536886D01*
X78620000Y-70996886D01*
X78760000Y-70996886D01*
X78760000Y-71243114D01*
X78808037Y-71484611D01*
X78902265Y-71712097D01*
X79039062Y-71916828D01*
X79213172Y-72090938D01*
X79417903Y-72227735D01*
X79645389Y-72321963D01*
X79886886Y-72370000D01*
X80133114Y-72370000D01*
X80374611Y-72321963D01*
X80602097Y-72227735D01*
X80806828Y-72090938D01*
X80980938Y-71916828D01*
X81117735Y-71712097D01*
X81211963Y-71484611D01*
X81260000Y-71243114D01*
X81260000Y-70996886D01*
X81300000Y-70996886D01*
X81300000Y-71243114D01*
X81348037Y-71484611D01*
X81442265Y-71712097D01*
X81579062Y-71916828D01*
X81753172Y-72090938D01*
X81957903Y-72227735D01*
X82185389Y-72321963D01*
X82426886Y-72370000D01*
X82673114Y-72370000D01*
X82914611Y-72321963D01*
X83142097Y-72227735D01*
X83346828Y-72090938D01*
X83520938Y-71916828D01*
X83657735Y-71712097D01*
X83751963Y-71484611D01*
X83800000Y-71243114D01*
X83800000Y-70996886D01*
X83751963Y-70755389D01*
X83657735Y-70527903D01*
X83520938Y-70323172D01*
X83346828Y-70149062D01*
X83142097Y-70012265D01*
X82914611Y-69918037D01*
X82673114Y-69870000D01*
X82426886Y-69870000D01*
X82185389Y-69918037D01*
X81957903Y-70012265D01*
X81753172Y-70149062D01*
X81579062Y-70323172D01*
X81442265Y-70527903D01*
X81348037Y-70755389D01*
X81300000Y-70996886D01*
X81260000Y-70996886D01*
X81211963Y-70755389D01*
X81117735Y-70527903D01*
X80980938Y-70323172D01*
X80806828Y-70149062D01*
X80602097Y-70012265D01*
X80374611Y-69918037D01*
X80133114Y-69870000D01*
X79886886Y-69870000D01*
X79645389Y-69918037D01*
X79417903Y-70012265D01*
X79213172Y-70149062D01*
X79039062Y-70323172D01*
X78902265Y-70527903D01*
X78808037Y-70755389D01*
X78760000Y-70996886D01*
X78620000Y-70996886D01*
X78620000Y-68456886D01*
X78760000Y-68456886D01*
X78760000Y-68703114D01*
X78808037Y-68944611D01*
X78902265Y-69172097D01*
X79039062Y-69376828D01*
X79213172Y-69550938D01*
X79417903Y-69687735D01*
X79645389Y-69781963D01*
X79886886Y-69830000D01*
X80133114Y-69830000D01*
X80374611Y-69781963D01*
X80602097Y-69687735D01*
X80806828Y-69550938D01*
X80980938Y-69376828D01*
X81117735Y-69172097D01*
X81211963Y-68944611D01*
X81260000Y-68703114D01*
X81260000Y-68456886D01*
X81300000Y-68456886D01*
X81300000Y-68703114D01*
X81348037Y-68944611D01*
X81442265Y-69172097D01*
X81579062Y-69376828D01*
X81753172Y-69550938D01*
X81957903Y-69687735D01*
X82185389Y-69781963D01*
X82426886Y-69830000D01*
X82673114Y-69830000D01*
X82914611Y-69781963D01*
X83142097Y-69687735D01*
X83346828Y-69550938D01*
X83520938Y-69376828D01*
X83657735Y-69172097D01*
X83751963Y-68944611D01*
X83800000Y-68703114D01*
X83800000Y-68456886D01*
X83751963Y-68215389D01*
X83657735Y-67987903D01*
X83520938Y-67783172D01*
X83346828Y-67609062D01*
X83142097Y-67472265D01*
X82914611Y-67378037D01*
X82673114Y-67330000D01*
X82426886Y-67330000D01*
X82185389Y-67378037D01*
X81957903Y-67472265D01*
X81753172Y-67609062D01*
X81579062Y-67783172D01*
X81442265Y-67987903D01*
X81348037Y-68215389D01*
X81300000Y-68456886D01*
X81260000Y-68456886D01*
X81211963Y-68215389D01*
X81117735Y-67987903D01*
X80980938Y-67783172D01*
X80806828Y-67609062D01*
X80602097Y-67472265D01*
X80374611Y-67378037D01*
X80133114Y-67330000D01*
X79886886Y-67330000D01*
X79645389Y-67378037D01*
X79417903Y-67472265D01*
X79213172Y-67609062D01*
X79039062Y-67783172D01*
X78902265Y-67987903D01*
X78808037Y-68215389D01*
X78760000Y-68456886D01*
X78620000Y-68456886D01*
X78620000Y-65916886D01*
X78760000Y-65916886D01*
X78760000Y-66163114D01*
X78808037Y-66404611D01*
X78902265Y-66632097D01*
X79039062Y-66836828D01*
X79213172Y-67010938D01*
X79417903Y-67147735D01*
X79645389Y-67241963D01*
X79886886Y-67290000D01*
X80133114Y-67290000D01*
X80374611Y-67241963D01*
X80602097Y-67147735D01*
X80806828Y-67010938D01*
X80980938Y-66836828D01*
X81117735Y-66632097D01*
X81211963Y-66404611D01*
X81260000Y-66163114D01*
X81260000Y-65916886D01*
X81300000Y-65916886D01*
X81300000Y-66163114D01*
X81348037Y-66404611D01*
X81442265Y-66632097D01*
X81579062Y-66836828D01*
X81753172Y-67010938D01*
X81957903Y-67147735D01*
X82185389Y-67241963D01*
X82426886Y-67290000D01*
X82673114Y-67290000D01*
X82914611Y-67241963D01*
X83142097Y-67147735D01*
X83346828Y-67010938D01*
X83520938Y-66836828D01*
X83657735Y-66632097D01*
X83751963Y-66404611D01*
X83800000Y-66163114D01*
X83800000Y-65916886D01*
X83751963Y-65675389D01*
X83657735Y-65447903D01*
X83520938Y-65243172D01*
X83346828Y-65069062D01*
X83142097Y-64932265D01*
X82914611Y-64838037D01*
X82673114Y-64790000D01*
X82426886Y-64790000D01*
X82185389Y-64838037D01*
X81957903Y-64932265D01*
X81753172Y-65069062D01*
X81579062Y-65243172D01*
X81442265Y-65447903D01*
X81348037Y-65675389D01*
X81300000Y-65916886D01*
X81260000Y-65916886D01*
X81211963Y-65675389D01*
X81117735Y-65447903D01*
X80980938Y-65243172D01*
X80806828Y-65069062D01*
X80602097Y-64932265D01*
X80374611Y-64838037D01*
X80133114Y-64790000D01*
X79886886Y-64790000D01*
X79645389Y-64838037D01*
X79417903Y-64932265D01*
X79213172Y-65069062D01*
X79039062Y-65243172D01*
X78902265Y-65447903D01*
X78808037Y-65675389D01*
X78760000Y-65916886D01*
X78620000Y-65916886D01*
X78620000Y-60582886D01*
X78760000Y-60582886D01*
X78760000Y-60829114D01*
X78808037Y-61070611D01*
X78902265Y-61298097D01*
X79039062Y-61502828D01*
X79213172Y-61676938D01*
X79417903Y-61813735D01*
X79645389Y-61907963D01*
X79886886Y-61956000D01*
X80133114Y-61956000D01*
X80374611Y-61907963D01*
X80602097Y-61813735D01*
X80806828Y-61676938D01*
X80980938Y-61502828D01*
X81117735Y-61298097D01*
X81211963Y-61070611D01*
X81260000Y-60829114D01*
X81260000Y-60582886D01*
X81300000Y-60582886D01*
X81300000Y-60829114D01*
X81348037Y-61070611D01*
X81442265Y-61298097D01*
X81579062Y-61502828D01*
X81753172Y-61676938D01*
X81957903Y-61813735D01*
X82185389Y-61907963D01*
X82426886Y-61956000D01*
X82673114Y-61956000D01*
X82914611Y-61907963D01*
X83142097Y-61813735D01*
X83346828Y-61676938D01*
X83520938Y-61502828D01*
X83657735Y-61298097D01*
X83751963Y-61070611D01*
X83800000Y-60829114D01*
X83800000Y-60582886D01*
X83751963Y-60341389D01*
X83675254Y-60156197D01*
X91656000Y-60156197D01*
X91656000Y-60313783D01*
X91686743Y-60468341D01*
X91747049Y-60613932D01*
X91834599Y-60744960D01*
X91946030Y-60856391D01*
X92077058Y-60943941D01*
X92222649Y-61004247D01*
X92377207Y-61034990D01*
X92534793Y-61034990D01*
X92689351Y-61004247D01*
X92834942Y-60943941D01*
X92965970Y-60856391D01*
X93077401Y-60744960D01*
X93164951Y-60613932D01*
X93225257Y-60468341D01*
X93256000Y-60313783D01*
X93256000Y-60156197D01*
X93225257Y-60001639D01*
X93164951Y-59856048D01*
X93077401Y-59725020D01*
X92965970Y-59613589D01*
X92834942Y-59526039D01*
X92689351Y-59465733D01*
X92534793Y-59434990D01*
X92377207Y-59434990D01*
X92222649Y-59465733D01*
X92077058Y-59526039D01*
X91946030Y-59613589D01*
X91834599Y-59725020D01*
X91747049Y-59856048D01*
X91686743Y-60001639D01*
X91656000Y-60156197D01*
X83675254Y-60156197D01*
X83657735Y-60113903D01*
X83520938Y-59909172D01*
X83346828Y-59735062D01*
X83142097Y-59598265D01*
X82914611Y-59504037D01*
X82673114Y-59456000D01*
X82426886Y-59456000D01*
X82185389Y-59504037D01*
X81957903Y-59598265D01*
X81753172Y-59735062D01*
X81579062Y-59909172D01*
X81442265Y-60113903D01*
X81348037Y-60341389D01*
X81300000Y-60582886D01*
X81260000Y-60582886D01*
X81211963Y-60341389D01*
X81117735Y-60113903D01*
X80980938Y-59909172D01*
X80806828Y-59735062D01*
X80602097Y-59598265D01*
X80374611Y-59504037D01*
X80133114Y-59456000D01*
X79886886Y-59456000D01*
X79645389Y-59504037D01*
X79417903Y-59598265D01*
X79213172Y-59735062D01*
X79039062Y-59909172D01*
X78902265Y-60113903D01*
X78808037Y-60341389D01*
X78760000Y-60582886D01*
X78620000Y-60582886D01*
X78620000Y-59016000D01*
X78758065Y-59016000D01*
X78765788Y-59094414D01*
X78788660Y-59169814D01*
X78825803Y-59239303D01*
X78875789Y-59300211D01*
X78936697Y-59350197D01*
X79006186Y-59387340D01*
X79081586Y-59410212D01*
X79160000Y-59417935D01*
X79756000Y-59416000D01*
X79856000Y-59316000D01*
X79856000Y-58320000D01*
X80164000Y-58320000D01*
X80164000Y-59316000D01*
X80264000Y-59416000D01*
X80860000Y-59417935D01*
X80938414Y-59410212D01*
X81013814Y-59387340D01*
X81083303Y-59350197D01*
X81144211Y-59300211D01*
X81194197Y-59239303D01*
X81231340Y-59169814D01*
X81254212Y-59094414D01*
X81261935Y-59016000D01*
X81260000Y-58420000D01*
X81160000Y-58320000D01*
X80164000Y-58320000D01*
X79856000Y-58320000D01*
X78860000Y-58320000D01*
X78760000Y-58420000D01*
X78758065Y-59016000D01*
X78620000Y-59016000D01*
X78620000Y-58042886D01*
X81300000Y-58042886D01*
X81300000Y-58289114D01*
X81348037Y-58530611D01*
X81442265Y-58758097D01*
X81579062Y-58962828D01*
X81753172Y-59136938D01*
X81957903Y-59273735D01*
X82185389Y-59367963D01*
X82426886Y-59416000D01*
X82673114Y-59416000D01*
X82914611Y-59367963D01*
X83142097Y-59273735D01*
X83346828Y-59136938D01*
X83520938Y-58962828D01*
X83657735Y-58758097D01*
X83751963Y-58530611D01*
X83800000Y-58289114D01*
X83800000Y-58042886D01*
X83751963Y-57801389D01*
X83657735Y-57573903D01*
X83520938Y-57369172D01*
X83346828Y-57195062D01*
X83142097Y-57058265D01*
X83042953Y-57017198D01*
X87726591Y-57017198D01*
X87813638Y-57192047D01*
X88031166Y-57284550D01*
X88262561Y-57332838D01*
X88498929Y-57335056D01*
X88731189Y-57291117D01*
X88950414Y-57202711D01*
X88970362Y-57192047D01*
X89057409Y-57017198D01*
X88392000Y-56351789D01*
X87726591Y-57017198D01*
X83042953Y-57017198D01*
X82914611Y-56964037D01*
X82673114Y-56916000D01*
X82426886Y-56916000D01*
X82185389Y-56964037D01*
X81957903Y-57058265D01*
X81753172Y-57195062D01*
X81579062Y-57369172D01*
X81442265Y-57573903D01*
X81348037Y-57801389D01*
X81300000Y-58042886D01*
X78620000Y-58042886D01*
X78620000Y-57316000D01*
X78758065Y-57316000D01*
X78760000Y-57912000D01*
X78860000Y-58012000D01*
X79856000Y-58012000D01*
X79856000Y-57016000D01*
X80164000Y-57016000D01*
X80164000Y-58012000D01*
X81160000Y-58012000D01*
X81260000Y-57912000D01*
X81261935Y-57316000D01*
X81254212Y-57237586D01*
X81231340Y-57162186D01*
X81194197Y-57092697D01*
X81144211Y-57031789D01*
X81083303Y-56981803D01*
X81013814Y-56944660D01*
X80938414Y-56921788D01*
X80860000Y-56914065D01*
X80264000Y-56916000D01*
X80164000Y-57016000D01*
X79856000Y-57016000D01*
X79756000Y-56916000D01*
X79160000Y-56914065D01*
X79081586Y-56921788D01*
X79006186Y-56944660D01*
X78936697Y-56981803D01*
X78875789Y-57031789D01*
X78825803Y-57092697D01*
X78788660Y-57162186D01*
X78765788Y-57237586D01*
X78758065Y-57316000D01*
X78620000Y-57316000D01*
X78620000Y-56240929D01*
X87190944Y-56240929D01*
X87234883Y-56473189D01*
X87323289Y-56692414D01*
X87333953Y-56712362D01*
X87508802Y-56799409D01*
X88174211Y-56134000D01*
X88609789Y-56134000D01*
X89275198Y-56799409D01*
X89450047Y-56712362D01*
X89542550Y-56494834D01*
X89590838Y-56263439D01*
X89593056Y-56027071D01*
X89549117Y-55794811D01*
X89460711Y-55575586D01*
X89450047Y-55555638D01*
X89275198Y-55468591D01*
X88609789Y-56134000D01*
X88174211Y-56134000D01*
X87508802Y-55468591D01*
X87333953Y-55555638D01*
X87241450Y-55773166D01*
X87193162Y-56004561D01*
X87190944Y-56240929D01*
X78620000Y-56240929D01*
X78620000Y-55250802D01*
X87726591Y-55250802D01*
X88392000Y-55916211D01*
X89057409Y-55250802D01*
X88970362Y-55075953D01*
X88752834Y-54983450D01*
X88521439Y-54935162D01*
X88285071Y-54932944D01*
X88052811Y-54976883D01*
X87833586Y-55065289D01*
X87813638Y-55075953D01*
X87726591Y-55250802D01*
X78620000Y-55250802D01*
X78620000Y-53470886D01*
X78760000Y-53470886D01*
X78760000Y-53717114D01*
X78808037Y-53958611D01*
X78902265Y-54186097D01*
X79039062Y-54390828D01*
X79213172Y-54564938D01*
X79417903Y-54701735D01*
X79645389Y-54795963D01*
X79886886Y-54844000D01*
X80133114Y-54844000D01*
X80374611Y-54795963D01*
X80602097Y-54701735D01*
X80806828Y-54564938D01*
X80980938Y-54390828D01*
X81117735Y-54186097D01*
X81211963Y-53958611D01*
X81260000Y-53717114D01*
X81260000Y-53470886D01*
X81300000Y-53470886D01*
X81300000Y-53717114D01*
X81348037Y-53958611D01*
X81442265Y-54186097D01*
X81579062Y-54390828D01*
X81753172Y-54564938D01*
X81957903Y-54701735D01*
X82185389Y-54795963D01*
X82426886Y-54844000D01*
X82673114Y-54844000D01*
X82914611Y-54795963D01*
X83142097Y-54701735D01*
X83346828Y-54564938D01*
X83520938Y-54390828D01*
X83657735Y-54186097D01*
X83751963Y-53958611D01*
X83800000Y-53717114D01*
X83800000Y-53470886D01*
X83751963Y-53229389D01*
X83657735Y-53001903D01*
X83520938Y-52797172D01*
X83346828Y-52623062D01*
X83142097Y-52486265D01*
X82914611Y-52392037D01*
X82673114Y-52344000D01*
X82426886Y-52344000D01*
X82185389Y-52392037D01*
X81957903Y-52486265D01*
X81753172Y-52623062D01*
X81579062Y-52797172D01*
X81442265Y-53001903D01*
X81348037Y-53229389D01*
X81300000Y-53470886D01*
X81260000Y-53470886D01*
X81211963Y-53229389D01*
X81117735Y-53001903D01*
X80980938Y-52797172D01*
X80806828Y-52623062D01*
X80602097Y-52486265D01*
X80374611Y-52392037D01*
X80133114Y-52344000D01*
X79886886Y-52344000D01*
X79645389Y-52392037D01*
X79417903Y-52486265D01*
X79213172Y-52623062D01*
X79039062Y-52797172D01*
X78902265Y-53001903D01*
X78808037Y-53229389D01*
X78760000Y-53470886D01*
X78620000Y-53470886D01*
X78620000Y-50204000D01*
X78758065Y-50204000D01*
X78758065Y-51904000D01*
X78765788Y-51982414D01*
X78788660Y-52057814D01*
X78825803Y-52127303D01*
X78875789Y-52188211D01*
X78936697Y-52238197D01*
X79006186Y-52275340D01*
X79081586Y-52298212D01*
X79160000Y-52305935D01*
X80860000Y-52305935D01*
X80938414Y-52298212D01*
X81013814Y-52275340D01*
X81083303Y-52238197D01*
X81144211Y-52188211D01*
X81194197Y-52127303D01*
X81231340Y-52057814D01*
X81254212Y-51982414D01*
X81261935Y-51904000D01*
X81261935Y-50930886D01*
X81300000Y-50930886D01*
X81300000Y-51177114D01*
X81348037Y-51418611D01*
X81442265Y-51646097D01*
X81579062Y-51850828D01*
X81753172Y-52024938D01*
X81957903Y-52161735D01*
X82185389Y-52255963D01*
X82426886Y-52304000D01*
X82673114Y-52304000D01*
X82914611Y-52255963D01*
X83142097Y-52161735D01*
X83346828Y-52024938D01*
X83520938Y-51850828D01*
X83657735Y-51646097D01*
X83751963Y-51418611D01*
X83800000Y-51177114D01*
X83800000Y-50930886D01*
X83751963Y-50689389D01*
X83657735Y-50461903D01*
X83520938Y-50257172D01*
X83346828Y-50083062D01*
X83142097Y-49946265D01*
X82914611Y-49852037D01*
X82673114Y-49804000D01*
X82426886Y-49804000D01*
X82185389Y-49852037D01*
X81957903Y-49946265D01*
X81753172Y-50083062D01*
X81579062Y-50257172D01*
X81442265Y-50461903D01*
X81348037Y-50689389D01*
X81300000Y-50930886D01*
X81261935Y-50930886D01*
X81261935Y-50204000D01*
X81254212Y-50125586D01*
X81231340Y-50050186D01*
X81194197Y-49980697D01*
X81144211Y-49919789D01*
X81083303Y-49869803D01*
X81013814Y-49832660D01*
X80938414Y-49809788D01*
X80860000Y-49802065D01*
X79160000Y-49802065D01*
X79081586Y-49809788D01*
X79006186Y-49832660D01*
X78936697Y-49869803D01*
X78875789Y-49919789D01*
X78825803Y-49980697D01*
X78788660Y-50050186D01*
X78765788Y-50125586D01*
X78758065Y-50204000D01*
X78620000Y-50204000D01*
X78620000Y-49314000D01*
X94048065Y-49314000D01*
X94055788Y-49392414D01*
X94078660Y-49467814D01*
X94115803Y-49537303D01*
X94165789Y-49598211D01*
X94226697Y-49648197D01*
X94296186Y-49685340D01*
X94371586Y-49708212D01*
X94450000Y-49715935D01*
X94996000Y-49714000D01*
X95096000Y-49614000D01*
X95096000Y-48668000D01*
X95404000Y-48668000D01*
X95404000Y-49614000D01*
X95504000Y-49714000D01*
X96050000Y-49715935D01*
X96128414Y-49708212D01*
X96203814Y-49685340D01*
X96273303Y-49648197D01*
X96334211Y-49598211D01*
X96384197Y-49537303D01*
X96421340Y-49467814D01*
X96444212Y-49392414D01*
X96451935Y-49314000D01*
X96450000Y-48768000D01*
X96350000Y-48668000D01*
X95404000Y-48668000D01*
X95096000Y-48668000D01*
X94150000Y-48668000D01*
X94050000Y-48768000D01*
X94048065Y-49314000D01*
X78620000Y-49314000D01*
X78620000Y-47714000D01*
X94048065Y-47714000D01*
X94050000Y-48260000D01*
X94150000Y-48360000D01*
X95096000Y-48360000D01*
X95096000Y-48340000D01*
X95404000Y-48340000D01*
X95404000Y-48360000D01*
X96350000Y-48360000D01*
X96450000Y-48260000D01*
X96451935Y-47714000D01*
X96444212Y-47635586D01*
X96421340Y-47560186D01*
X96384197Y-47490697D01*
X96334211Y-47429789D01*
X96273303Y-47379803D01*
X96203814Y-47342660D01*
X96138276Y-47322780D01*
X96182101Y-47278955D01*
X96313426Y-47082413D01*
X96403884Y-46864027D01*
X96450000Y-46632190D01*
X96450000Y-46395810D01*
X96403884Y-46163973D01*
X96313426Y-45945587D01*
X96182101Y-45749045D01*
X96014955Y-45581899D01*
X95818413Y-45450574D01*
X95600027Y-45360116D01*
X95368190Y-45314000D01*
X95131810Y-45314000D01*
X94899973Y-45360116D01*
X94681587Y-45450574D01*
X94485045Y-45581899D01*
X94317899Y-45749045D01*
X94186574Y-45945587D01*
X94096116Y-46163973D01*
X94050000Y-46395810D01*
X94050000Y-46632190D01*
X94096116Y-46864027D01*
X94186574Y-47082413D01*
X94317899Y-47278955D01*
X94361724Y-47322780D01*
X94296186Y-47342660D01*
X94226697Y-47379803D01*
X94165789Y-47429789D01*
X94115803Y-47490697D01*
X94078660Y-47560186D01*
X94055788Y-47635586D01*
X94048065Y-47714000D01*
X78620000Y-47714000D01*
X78620000Y-47251422D01*
X80015612Y-45855810D01*
X87192000Y-45855810D01*
X87192000Y-46092190D01*
X87238116Y-46324027D01*
X87328574Y-46542413D01*
X87459899Y-46738955D01*
X87627045Y-46906101D01*
X87823587Y-47037426D01*
X88041973Y-47127884D01*
X88273810Y-47174000D01*
X88510190Y-47174000D01*
X88742027Y-47127884D01*
X88960413Y-47037426D01*
X89156955Y-46906101D01*
X89324101Y-46738955D01*
X89455426Y-46542413D01*
X89545884Y-46324027D01*
X89592000Y-46092190D01*
X89592000Y-45855810D01*
X89545884Y-45623973D01*
X89455426Y-45405587D01*
X89324101Y-45209045D01*
X89156955Y-45041899D01*
X88960413Y-44910574D01*
X88742027Y-44820116D01*
X88510190Y-44774000D01*
X88273810Y-44774000D01*
X88041973Y-44820116D01*
X87823587Y-44910574D01*
X87627045Y-45041899D01*
X87459899Y-45209045D01*
X87328574Y-45405587D01*
X87238116Y-45623973D01*
X87192000Y-45855810D01*
X80015612Y-45855810D01*
X81575422Y-44296000D01*
X101246570Y-44296000D01*
X101499427Y-88546000D01*
G37*
X101499427Y-88546000D02*
X95291422Y-88546000D01*
X86684711Y-79939289D01*
X86669557Y-79926853D01*
X86652268Y-79917612D01*
X86633509Y-79911921D01*
X86614000Y-79910000D01*
X82991776Y-79910000D01*
X83142097Y-79847735D01*
X83346828Y-79710938D01*
X83520938Y-79536828D01*
X83657735Y-79332097D01*
X83751963Y-79104611D01*
X83800000Y-78863114D01*
X83800000Y-78616886D01*
X83751963Y-78375389D01*
X83657735Y-78147903D01*
X83520938Y-77943172D01*
X83346828Y-77769062D01*
X83142097Y-77632265D01*
X82914611Y-77538037D01*
X82673114Y-77490000D01*
X82426886Y-77490000D01*
X82185389Y-77538037D01*
X81957903Y-77632265D01*
X81753172Y-77769062D01*
X81579062Y-77943172D01*
X81442265Y-78147903D01*
X81348037Y-78375389D01*
X81300000Y-78616886D01*
X81300000Y-78863114D01*
X81348037Y-79104611D01*
X81442265Y-79332097D01*
X81579062Y-79536828D01*
X81753172Y-79710938D01*
X81957903Y-79847735D01*
X82108224Y-79910000D01*
X80451776Y-79910000D01*
X80602097Y-79847735D01*
X80806828Y-79710938D01*
X80980938Y-79536828D01*
X81117735Y-79332097D01*
X81211963Y-79104611D01*
X81260000Y-78863114D01*
X81260000Y-78616886D01*
X81211963Y-78375389D01*
X81117735Y-78147903D01*
X80980938Y-77943172D01*
X80806828Y-77769062D01*
X80602097Y-77632265D01*
X80374611Y-77538037D01*
X80133114Y-77490000D01*
X79886886Y-77490000D01*
X79645389Y-77538037D01*
X79417903Y-77632265D01*
X79213172Y-77769062D01*
X79039062Y-77943172D01*
X78902265Y-78147903D01*
X78808037Y-78375389D01*
X78760000Y-78616886D01*
X78760000Y-78863114D01*
X78808037Y-79104611D01*
X78819780Y-79132961D01*
X78620000Y-78973137D01*
X78620000Y-76546157D01*
X78808886Y-76546157D01*
X78818990Y-76579487D01*
X78915909Y-76804550D01*
X79054873Y-77006380D01*
X79230542Y-77177222D01*
X79436166Y-77310510D01*
X79663842Y-77401121D01*
X79856000Y-77340484D01*
X79856000Y-76354000D01*
X80164000Y-76354000D01*
X80164000Y-77340484D01*
X80356158Y-77401121D01*
X80583834Y-77310510D01*
X80789458Y-77177222D01*
X80965127Y-77006380D01*
X81104091Y-76804550D01*
X81201010Y-76579487D01*
X81211114Y-76546157D01*
X81348886Y-76546157D01*
X81358990Y-76579487D01*
X81455909Y-76804550D01*
X81594873Y-77006380D01*
X81770542Y-77177222D01*
X81976166Y-77310510D01*
X82203842Y-77401121D01*
X82396000Y-77340484D01*
X82396000Y-76354000D01*
X82704000Y-76354000D01*
X82704000Y-77340484D01*
X82896158Y-77401121D01*
X83123834Y-77310510D01*
X83329458Y-77177222D01*
X83370603Y-77137207D01*
X90640000Y-77137207D01*
X90640000Y-77294793D01*
X90670743Y-77449351D01*
X90731049Y-77594942D01*
X90818599Y-77725970D01*
X90930030Y-77837401D01*
X91061058Y-77924951D01*
X91206649Y-77985257D01*
X91361207Y-78016000D01*
X91518793Y-78016000D01*
X91673351Y-77985257D01*
X91818942Y-77924951D01*
X91949970Y-77837401D01*
X92061401Y-77725970D01*
X92148951Y-77594942D01*
X92209257Y-77449351D01*
X92240000Y-77294793D01*
X92240000Y-77137207D01*
X92209257Y-76982649D01*
X92148951Y-76837058D01*
X92061401Y-76706030D01*
X91949970Y-76594599D01*
X91818942Y-76507049D01*
X91673351Y-76446743D01*
X91518793Y-76416000D01*
X91361207Y-76416000D01*
X91206649Y-76446743D01*
X91061058Y-76507049D01*
X90930030Y-76594599D01*
X90818599Y-76706030D01*
X90731049Y-76837058D01*
X90670743Y-76982649D01*
X90640000Y-77137207D01*
X83370603Y-77137207D01*
X83505127Y-77006380D01*
X83644091Y-76804550D01*
X83741010Y-76579487D01*
X83751114Y-76546157D01*
X83689642Y-76354000D01*
X82704000Y-76354000D01*
X82396000Y-76354000D01*
X81410358Y-76354000D01*
X81348886Y-76546157D01*
X81211114Y-76546157D01*
X81149642Y-76354000D01*
X80164000Y-76354000D01*
X79856000Y-76354000D01*
X78870358Y-76354000D01*
X78808886Y-76546157D01*
X78620000Y-76546157D01*
X78620000Y-75853843D01*
X78808886Y-75853843D01*
X78870358Y-76046000D01*
X79856000Y-76046000D01*
X79856000Y-75059516D01*
X80164000Y-75059516D01*
X80164000Y-76046000D01*
X81149642Y-76046000D01*
X81211114Y-75853843D01*
X81348886Y-75853843D01*
X81410358Y-76046000D01*
X82396000Y-76046000D01*
X82396000Y-75059516D01*
X82704000Y-75059516D01*
X82704000Y-76046000D01*
X83689642Y-76046000D01*
X83751114Y-75853843D01*
X83741010Y-75820513D01*
X83644091Y-75595450D01*
X83505127Y-75393620D01*
X83329458Y-75222778D01*
X83123834Y-75089490D01*
X82896158Y-74998879D01*
X82704000Y-75059516D01*
X82396000Y-75059516D01*
X82203842Y-74998879D01*
X81976166Y-75089490D01*
X81770542Y-75222778D01*
X81594873Y-75393620D01*
X81455909Y-75595450D01*
X81358990Y-75820513D01*
X81348886Y-75853843D01*
X81211114Y-75853843D01*
X81201010Y-75820513D01*
X81104091Y-75595450D01*
X80965127Y-75393620D01*
X80789458Y-75222778D01*
X80583834Y-75089490D01*
X80356158Y-74998879D01*
X80164000Y-75059516D01*
X79856000Y-75059516D01*
X79663842Y-74998879D01*
X79436166Y-75089490D01*
X79230542Y-75222778D01*
X79054873Y-75393620D01*
X78915909Y-75595450D01*
X78818990Y-75820513D01*
X78808886Y-75853843D01*
X78620000Y-75853843D01*
X78620000Y-73536886D01*
X78760000Y-73536886D01*
X78760000Y-73783114D01*
X78808037Y-74024611D01*
X78902265Y-74252097D01*
X79039062Y-74456828D01*
X79213172Y-74630938D01*
X79417903Y-74767735D01*
X79645389Y-74861963D01*
X79886886Y-74910000D01*
X80133114Y-74910000D01*
X80374611Y-74861963D01*
X80602097Y-74767735D01*
X80806828Y-74630938D01*
X80980938Y-74456828D01*
X81117735Y-74252097D01*
X81211963Y-74024611D01*
X81260000Y-73783114D01*
X81260000Y-73536886D01*
X81300000Y-73536886D01*
X81300000Y-73783114D01*
X81348037Y-74024611D01*
X81442265Y-74252097D01*
X81579062Y-74456828D01*
X81753172Y-74630938D01*
X81957903Y-74767735D01*
X82185389Y-74861963D01*
X82426886Y-74910000D01*
X82673114Y-74910000D01*
X82914611Y-74861963D01*
X83142097Y-74767735D01*
X83346828Y-74630938D01*
X83520938Y-74456828D01*
X83657735Y-74252097D01*
X83751963Y-74024611D01*
X83800000Y-73783114D01*
X83800000Y-73536886D01*
X83751963Y-73295389D01*
X83657735Y-73067903D01*
X83520938Y-72863172D01*
X83346828Y-72689062D01*
X83142097Y-72552265D01*
X82914611Y-72458037D01*
X82673114Y-72410000D01*
X82426886Y-72410000D01*
X82185389Y-72458037D01*
X81957903Y-72552265D01*
X81753172Y-72689062D01*
X81579062Y-72863172D01*
X81442265Y-73067903D01*
X81348037Y-73295389D01*
X81300000Y-73536886D01*
X81260000Y-73536886D01*
X81211963Y-73295389D01*
X81117735Y-73067903D01*
X80980938Y-72863172D01*
X80806828Y-72689062D01*
X80602097Y-72552265D01*
X80374611Y-72458037D01*
X80133114Y-72410000D01*
X79886886Y-72410000D01*
X79645389Y-72458037D01*
X79417903Y-72552265D01*
X79213172Y-72689062D01*
X79039062Y-72863172D01*
X78902265Y-73067903D01*
X78808037Y-73295389D01*
X78760000Y-73536886D01*
X78620000Y-73536886D01*
X78620000Y-70996886D01*
X78760000Y-70996886D01*
X78760000Y-71243114D01*
X78808037Y-71484611D01*
X78902265Y-71712097D01*
X79039062Y-71916828D01*
X79213172Y-72090938D01*
X79417903Y-72227735D01*
X79645389Y-72321963D01*
X79886886Y-72370000D01*
X80133114Y-72370000D01*
X80374611Y-72321963D01*
X80602097Y-72227735D01*
X80806828Y-72090938D01*
X80980938Y-71916828D01*
X81117735Y-71712097D01*
X81211963Y-71484611D01*
X81260000Y-71243114D01*
X81260000Y-70996886D01*
X81300000Y-70996886D01*
X81300000Y-71243114D01*
X81348037Y-71484611D01*
X81442265Y-71712097D01*
X81579062Y-71916828D01*
X81753172Y-72090938D01*
X81957903Y-72227735D01*
X82185389Y-72321963D01*
X82426886Y-72370000D01*
X82673114Y-72370000D01*
X82914611Y-72321963D01*
X83142097Y-72227735D01*
X83346828Y-72090938D01*
X83520938Y-71916828D01*
X83657735Y-71712097D01*
X83751963Y-71484611D01*
X83800000Y-71243114D01*
X83800000Y-70996886D01*
X83751963Y-70755389D01*
X83657735Y-70527903D01*
X83520938Y-70323172D01*
X83346828Y-70149062D01*
X83142097Y-70012265D01*
X82914611Y-69918037D01*
X82673114Y-69870000D01*
X82426886Y-69870000D01*
X82185389Y-69918037D01*
X81957903Y-70012265D01*
X81753172Y-70149062D01*
X81579062Y-70323172D01*
X81442265Y-70527903D01*
X81348037Y-70755389D01*
X81300000Y-70996886D01*
X81260000Y-70996886D01*
X81211963Y-70755389D01*
X81117735Y-70527903D01*
X80980938Y-70323172D01*
X80806828Y-70149062D01*
X80602097Y-70012265D01*
X80374611Y-69918037D01*
X80133114Y-69870000D01*
X79886886Y-69870000D01*
X79645389Y-69918037D01*
X79417903Y-70012265D01*
X79213172Y-70149062D01*
X79039062Y-70323172D01*
X78902265Y-70527903D01*
X78808037Y-70755389D01*
X78760000Y-70996886D01*
X78620000Y-70996886D01*
X78620000Y-68456886D01*
X78760000Y-68456886D01*
X78760000Y-68703114D01*
X78808037Y-68944611D01*
X78902265Y-69172097D01*
X79039062Y-69376828D01*
X79213172Y-69550938D01*
X79417903Y-69687735D01*
X79645389Y-69781963D01*
X79886886Y-69830000D01*
X80133114Y-69830000D01*
X80374611Y-69781963D01*
X80602097Y-69687735D01*
X80806828Y-69550938D01*
X80980938Y-69376828D01*
X81117735Y-69172097D01*
X81211963Y-68944611D01*
X81260000Y-68703114D01*
X81260000Y-68456886D01*
X81300000Y-68456886D01*
X81300000Y-68703114D01*
X81348037Y-68944611D01*
X81442265Y-69172097D01*
X81579062Y-69376828D01*
X81753172Y-69550938D01*
X81957903Y-69687735D01*
X82185389Y-69781963D01*
X82426886Y-69830000D01*
X82673114Y-69830000D01*
X82914611Y-69781963D01*
X83142097Y-69687735D01*
X83346828Y-69550938D01*
X83520938Y-69376828D01*
X83657735Y-69172097D01*
X83751963Y-68944611D01*
X83800000Y-68703114D01*
X83800000Y-68456886D01*
X83751963Y-68215389D01*
X83657735Y-67987903D01*
X83520938Y-67783172D01*
X83346828Y-67609062D01*
X83142097Y-67472265D01*
X82914611Y-67378037D01*
X82673114Y-67330000D01*
X82426886Y-67330000D01*
X82185389Y-67378037D01*
X81957903Y-67472265D01*
X81753172Y-67609062D01*
X81579062Y-67783172D01*
X81442265Y-67987903D01*
X81348037Y-68215389D01*
X81300000Y-68456886D01*
X81260000Y-68456886D01*
X81211963Y-68215389D01*
X81117735Y-67987903D01*
X80980938Y-67783172D01*
X80806828Y-67609062D01*
X80602097Y-67472265D01*
X80374611Y-67378037D01*
X80133114Y-67330000D01*
X79886886Y-67330000D01*
X79645389Y-67378037D01*
X79417903Y-67472265D01*
X79213172Y-67609062D01*
X79039062Y-67783172D01*
X78902265Y-67987903D01*
X78808037Y-68215389D01*
X78760000Y-68456886D01*
X78620000Y-68456886D01*
X78620000Y-65916886D01*
X78760000Y-65916886D01*
X78760000Y-66163114D01*
X78808037Y-66404611D01*
X78902265Y-66632097D01*
X79039062Y-66836828D01*
X79213172Y-67010938D01*
X79417903Y-67147735D01*
X79645389Y-67241963D01*
X79886886Y-67290000D01*
X80133114Y-67290000D01*
X80374611Y-67241963D01*
X80602097Y-67147735D01*
X80806828Y-67010938D01*
X80980938Y-66836828D01*
X81117735Y-66632097D01*
X81211963Y-66404611D01*
X81260000Y-66163114D01*
X81260000Y-65916886D01*
X81300000Y-65916886D01*
X81300000Y-66163114D01*
X81348037Y-66404611D01*
X81442265Y-66632097D01*
X81579062Y-66836828D01*
X81753172Y-67010938D01*
X81957903Y-67147735D01*
X82185389Y-67241963D01*
X82426886Y-67290000D01*
X82673114Y-67290000D01*
X82914611Y-67241963D01*
X83142097Y-67147735D01*
X83346828Y-67010938D01*
X83520938Y-66836828D01*
X83657735Y-66632097D01*
X83751963Y-66404611D01*
X83800000Y-66163114D01*
X83800000Y-65916886D01*
X83751963Y-65675389D01*
X83657735Y-65447903D01*
X83520938Y-65243172D01*
X83346828Y-65069062D01*
X83142097Y-64932265D01*
X82914611Y-64838037D01*
X82673114Y-64790000D01*
X82426886Y-64790000D01*
X82185389Y-64838037D01*
X81957903Y-64932265D01*
X81753172Y-65069062D01*
X81579062Y-65243172D01*
X81442265Y-65447903D01*
X81348037Y-65675389D01*
X81300000Y-65916886D01*
X81260000Y-65916886D01*
X81211963Y-65675389D01*
X81117735Y-65447903D01*
X80980938Y-65243172D01*
X80806828Y-65069062D01*
X80602097Y-64932265D01*
X80374611Y-64838037D01*
X80133114Y-64790000D01*
X79886886Y-64790000D01*
X79645389Y-64838037D01*
X79417903Y-64932265D01*
X79213172Y-65069062D01*
X79039062Y-65243172D01*
X78902265Y-65447903D01*
X78808037Y-65675389D01*
X78760000Y-65916886D01*
X78620000Y-65916886D01*
X78620000Y-60582886D01*
X78760000Y-60582886D01*
X78760000Y-60829114D01*
X78808037Y-61070611D01*
X78902265Y-61298097D01*
X79039062Y-61502828D01*
X79213172Y-61676938D01*
X79417903Y-61813735D01*
X79645389Y-61907963D01*
X79886886Y-61956000D01*
X80133114Y-61956000D01*
X80374611Y-61907963D01*
X80602097Y-61813735D01*
X80806828Y-61676938D01*
X80980938Y-61502828D01*
X81117735Y-61298097D01*
X81211963Y-61070611D01*
X81260000Y-60829114D01*
X81260000Y-60582886D01*
X81300000Y-60582886D01*
X81300000Y-60829114D01*
X81348037Y-61070611D01*
X81442265Y-61298097D01*
X81579062Y-61502828D01*
X81753172Y-61676938D01*
X81957903Y-61813735D01*
X82185389Y-61907963D01*
X82426886Y-61956000D01*
X82673114Y-61956000D01*
X82914611Y-61907963D01*
X83142097Y-61813735D01*
X83346828Y-61676938D01*
X83520938Y-61502828D01*
X83657735Y-61298097D01*
X83751963Y-61070611D01*
X83800000Y-60829114D01*
X83800000Y-60582886D01*
X83751963Y-60341389D01*
X83675254Y-60156197D01*
X91656000Y-60156197D01*
X91656000Y-60313783D01*
X91686743Y-60468341D01*
X91747049Y-60613932D01*
X91834599Y-60744960D01*
X91946030Y-60856391D01*
X92077058Y-60943941D01*
X92222649Y-61004247D01*
X92377207Y-61034990D01*
X92534793Y-61034990D01*
X92689351Y-61004247D01*
X92834942Y-60943941D01*
X92965970Y-60856391D01*
X93077401Y-60744960D01*
X93164951Y-60613932D01*
X93225257Y-60468341D01*
X93256000Y-60313783D01*
X93256000Y-60156197D01*
X93225257Y-60001639D01*
X93164951Y-59856048D01*
X93077401Y-59725020D01*
X92965970Y-59613589D01*
X92834942Y-59526039D01*
X92689351Y-59465733D01*
X92534793Y-59434990D01*
X92377207Y-59434990D01*
X92222649Y-59465733D01*
X92077058Y-59526039D01*
X91946030Y-59613589D01*
X91834599Y-59725020D01*
X91747049Y-59856048D01*
X91686743Y-60001639D01*
X91656000Y-60156197D01*
X83675254Y-60156197D01*
X83657735Y-60113903D01*
X83520938Y-59909172D01*
X83346828Y-59735062D01*
X83142097Y-59598265D01*
X82914611Y-59504037D01*
X82673114Y-59456000D01*
X82426886Y-59456000D01*
X82185389Y-59504037D01*
X81957903Y-59598265D01*
X81753172Y-59735062D01*
X81579062Y-59909172D01*
X81442265Y-60113903D01*
X81348037Y-60341389D01*
X81300000Y-60582886D01*
X81260000Y-60582886D01*
X81211963Y-60341389D01*
X81117735Y-60113903D01*
X80980938Y-59909172D01*
X80806828Y-59735062D01*
X80602097Y-59598265D01*
X80374611Y-59504037D01*
X80133114Y-59456000D01*
X79886886Y-59456000D01*
X79645389Y-59504037D01*
X79417903Y-59598265D01*
X79213172Y-59735062D01*
X79039062Y-59909172D01*
X78902265Y-60113903D01*
X78808037Y-60341389D01*
X78760000Y-60582886D01*
X78620000Y-60582886D01*
X78620000Y-59016000D01*
X78758065Y-59016000D01*
X78765788Y-59094414D01*
X78788660Y-59169814D01*
X78825803Y-59239303D01*
X78875789Y-59300211D01*
X78936697Y-59350197D01*
X79006186Y-59387340D01*
X79081586Y-59410212D01*
X79160000Y-59417935D01*
X79756000Y-59416000D01*
X79856000Y-59316000D01*
X79856000Y-58320000D01*
X80164000Y-58320000D01*
X80164000Y-59316000D01*
X80264000Y-59416000D01*
X80860000Y-59417935D01*
X80938414Y-59410212D01*
X81013814Y-59387340D01*
X81083303Y-59350197D01*
X81144211Y-59300211D01*
X81194197Y-59239303D01*
X81231340Y-59169814D01*
X81254212Y-59094414D01*
X81261935Y-59016000D01*
X81260000Y-58420000D01*
X81160000Y-58320000D01*
X80164000Y-58320000D01*
X79856000Y-58320000D01*
X78860000Y-58320000D01*
X78760000Y-58420000D01*
X78758065Y-59016000D01*
X78620000Y-59016000D01*
X78620000Y-58042886D01*
X81300000Y-58042886D01*
X81300000Y-58289114D01*
X81348037Y-58530611D01*
X81442265Y-58758097D01*
X81579062Y-58962828D01*
X81753172Y-59136938D01*
X81957903Y-59273735D01*
X82185389Y-59367963D01*
X82426886Y-59416000D01*
X82673114Y-59416000D01*
X82914611Y-59367963D01*
X83142097Y-59273735D01*
X83346828Y-59136938D01*
X83520938Y-58962828D01*
X83657735Y-58758097D01*
X83751963Y-58530611D01*
X83800000Y-58289114D01*
X83800000Y-58042886D01*
X83751963Y-57801389D01*
X83657735Y-57573903D01*
X83520938Y-57369172D01*
X83346828Y-57195062D01*
X83142097Y-57058265D01*
X83042953Y-57017198D01*
X87726591Y-57017198D01*
X87813638Y-57192047D01*
X88031166Y-57284550D01*
X88262561Y-57332838D01*
X88498929Y-57335056D01*
X88731189Y-57291117D01*
X88950414Y-57202711D01*
X88970362Y-57192047D01*
X89057409Y-57017198D01*
X88392000Y-56351789D01*
X87726591Y-57017198D01*
X83042953Y-57017198D01*
X82914611Y-56964037D01*
X82673114Y-56916000D01*
X82426886Y-56916000D01*
X82185389Y-56964037D01*
X81957903Y-57058265D01*
X81753172Y-57195062D01*
X81579062Y-57369172D01*
X81442265Y-57573903D01*
X81348037Y-57801389D01*
X81300000Y-58042886D01*
X78620000Y-58042886D01*
X78620000Y-57316000D01*
X78758065Y-57316000D01*
X78760000Y-57912000D01*
X78860000Y-58012000D01*
X79856000Y-58012000D01*
X79856000Y-57016000D01*
X80164000Y-57016000D01*
X80164000Y-58012000D01*
X81160000Y-58012000D01*
X81260000Y-57912000D01*
X81261935Y-57316000D01*
X81254212Y-57237586D01*
X81231340Y-57162186D01*
X81194197Y-57092697D01*
X81144211Y-57031789D01*
X81083303Y-56981803D01*
X81013814Y-56944660D01*
X80938414Y-56921788D01*
X80860000Y-56914065D01*
X80264000Y-56916000D01*
X80164000Y-57016000D01*
X79856000Y-57016000D01*
X79756000Y-56916000D01*
X79160000Y-56914065D01*
X79081586Y-56921788D01*
X79006186Y-56944660D01*
X78936697Y-56981803D01*
X78875789Y-57031789D01*
X78825803Y-57092697D01*
X78788660Y-57162186D01*
X78765788Y-57237586D01*
X78758065Y-57316000D01*
X78620000Y-57316000D01*
X78620000Y-56240929D01*
X87190944Y-56240929D01*
X87234883Y-56473189D01*
X87323289Y-56692414D01*
X87333953Y-56712362D01*
X87508802Y-56799409D01*
X88174211Y-56134000D01*
X88609789Y-56134000D01*
X89275198Y-56799409D01*
X89450047Y-56712362D01*
X89542550Y-56494834D01*
X89590838Y-56263439D01*
X89593056Y-56027071D01*
X89549117Y-55794811D01*
X89460711Y-55575586D01*
X89450047Y-55555638D01*
X89275198Y-55468591D01*
X88609789Y-56134000D01*
X88174211Y-56134000D01*
X87508802Y-55468591D01*
X87333953Y-55555638D01*
X87241450Y-55773166D01*
X87193162Y-56004561D01*
X87190944Y-56240929D01*
X78620000Y-56240929D01*
X78620000Y-55250802D01*
X87726591Y-55250802D01*
X88392000Y-55916211D01*
X89057409Y-55250802D01*
X88970362Y-55075953D01*
X88752834Y-54983450D01*
X88521439Y-54935162D01*
X88285071Y-54932944D01*
X88052811Y-54976883D01*
X87833586Y-55065289D01*
X87813638Y-55075953D01*
X87726591Y-55250802D01*
X78620000Y-55250802D01*
X78620000Y-53470886D01*
X78760000Y-53470886D01*
X78760000Y-53717114D01*
X78808037Y-53958611D01*
X78902265Y-54186097D01*
X79039062Y-54390828D01*
X79213172Y-54564938D01*
X79417903Y-54701735D01*
X79645389Y-54795963D01*
X79886886Y-54844000D01*
X80133114Y-54844000D01*
X80374611Y-54795963D01*
X80602097Y-54701735D01*
X80806828Y-54564938D01*
X80980938Y-54390828D01*
X81117735Y-54186097D01*
X81211963Y-53958611D01*
X81260000Y-53717114D01*
X81260000Y-53470886D01*
X81300000Y-53470886D01*
X81300000Y-53717114D01*
X81348037Y-53958611D01*
X81442265Y-54186097D01*
X81579062Y-54390828D01*
X81753172Y-54564938D01*
X81957903Y-54701735D01*
X82185389Y-54795963D01*
X82426886Y-54844000D01*
X82673114Y-54844000D01*
X82914611Y-54795963D01*
X83142097Y-54701735D01*
X83346828Y-54564938D01*
X83520938Y-54390828D01*
X83657735Y-54186097D01*
X83751963Y-53958611D01*
X83800000Y-53717114D01*
X83800000Y-53470886D01*
X83751963Y-53229389D01*
X83657735Y-53001903D01*
X83520938Y-52797172D01*
X83346828Y-52623062D01*
X83142097Y-52486265D01*
X82914611Y-52392037D01*
X82673114Y-52344000D01*
X82426886Y-52344000D01*
X82185389Y-52392037D01*
X81957903Y-52486265D01*
X81753172Y-52623062D01*
X81579062Y-52797172D01*
X81442265Y-53001903D01*
X81348037Y-53229389D01*
X81300000Y-53470886D01*
X81260000Y-53470886D01*
X81211963Y-53229389D01*
X81117735Y-53001903D01*
X80980938Y-52797172D01*
X80806828Y-52623062D01*
X80602097Y-52486265D01*
X80374611Y-52392037D01*
X80133114Y-52344000D01*
X79886886Y-52344000D01*
X79645389Y-52392037D01*
X79417903Y-52486265D01*
X79213172Y-52623062D01*
X79039062Y-52797172D01*
X78902265Y-53001903D01*
X78808037Y-53229389D01*
X78760000Y-53470886D01*
X78620000Y-53470886D01*
X78620000Y-50204000D01*
X78758065Y-50204000D01*
X78758065Y-51904000D01*
X78765788Y-51982414D01*
X78788660Y-52057814D01*
X78825803Y-52127303D01*
X78875789Y-52188211D01*
X78936697Y-52238197D01*
X79006186Y-52275340D01*
X79081586Y-52298212D01*
X79160000Y-52305935D01*
X80860000Y-52305935D01*
X80938414Y-52298212D01*
X81013814Y-52275340D01*
X81083303Y-52238197D01*
X81144211Y-52188211D01*
X81194197Y-52127303D01*
X81231340Y-52057814D01*
X81254212Y-51982414D01*
X81261935Y-51904000D01*
X81261935Y-50930886D01*
X81300000Y-50930886D01*
X81300000Y-51177114D01*
X81348037Y-51418611D01*
X81442265Y-51646097D01*
X81579062Y-51850828D01*
X81753172Y-52024938D01*
X81957903Y-52161735D01*
X82185389Y-52255963D01*
X82426886Y-52304000D01*
X82673114Y-52304000D01*
X82914611Y-52255963D01*
X83142097Y-52161735D01*
X83346828Y-52024938D01*
X83520938Y-51850828D01*
X83657735Y-51646097D01*
X83751963Y-51418611D01*
X83800000Y-51177114D01*
X83800000Y-50930886D01*
X83751963Y-50689389D01*
X83657735Y-50461903D01*
X83520938Y-50257172D01*
X83346828Y-50083062D01*
X83142097Y-49946265D01*
X82914611Y-49852037D01*
X82673114Y-49804000D01*
X82426886Y-49804000D01*
X82185389Y-49852037D01*
X81957903Y-49946265D01*
X81753172Y-50083062D01*
X81579062Y-50257172D01*
X81442265Y-50461903D01*
X81348037Y-50689389D01*
X81300000Y-50930886D01*
X81261935Y-50930886D01*
X81261935Y-50204000D01*
X81254212Y-50125586D01*
X81231340Y-50050186D01*
X81194197Y-49980697D01*
X81144211Y-49919789D01*
X81083303Y-49869803D01*
X81013814Y-49832660D01*
X80938414Y-49809788D01*
X80860000Y-49802065D01*
X79160000Y-49802065D01*
X79081586Y-49809788D01*
X79006186Y-49832660D01*
X78936697Y-49869803D01*
X78875789Y-49919789D01*
X78825803Y-49980697D01*
X78788660Y-50050186D01*
X78765788Y-50125586D01*
X78758065Y-50204000D01*
X78620000Y-50204000D01*
X78620000Y-49314000D01*
X94048065Y-49314000D01*
X94055788Y-49392414D01*
X94078660Y-49467814D01*
X94115803Y-49537303D01*
X94165789Y-49598211D01*
X94226697Y-49648197D01*
X94296186Y-49685340D01*
X94371586Y-49708212D01*
X94450000Y-49715935D01*
X94996000Y-49714000D01*
X95096000Y-49614000D01*
X95096000Y-48668000D01*
X95404000Y-48668000D01*
X95404000Y-49614000D01*
X95504000Y-49714000D01*
X96050000Y-49715935D01*
X96128414Y-49708212D01*
X96203814Y-49685340D01*
X96273303Y-49648197D01*
X96334211Y-49598211D01*
X96384197Y-49537303D01*
X96421340Y-49467814D01*
X96444212Y-49392414D01*
X96451935Y-49314000D01*
X96450000Y-48768000D01*
X96350000Y-48668000D01*
X95404000Y-48668000D01*
X95096000Y-48668000D01*
X94150000Y-48668000D01*
X94050000Y-48768000D01*
X94048065Y-49314000D01*
X78620000Y-49314000D01*
X78620000Y-47714000D01*
X94048065Y-47714000D01*
X94050000Y-48260000D01*
X94150000Y-48360000D01*
X95096000Y-48360000D01*
X95096000Y-48340000D01*
X95404000Y-48340000D01*
X95404000Y-48360000D01*
X96350000Y-48360000D01*
X96450000Y-48260000D01*
X96451935Y-47714000D01*
X96444212Y-47635586D01*
X96421340Y-47560186D01*
X96384197Y-47490697D01*
X96334211Y-47429789D01*
X96273303Y-47379803D01*
X96203814Y-47342660D01*
X96138276Y-47322780D01*
X96182101Y-47278955D01*
X96313426Y-47082413D01*
X96403884Y-46864027D01*
X96450000Y-46632190D01*
X96450000Y-46395810D01*
X96403884Y-46163973D01*
X96313426Y-45945587D01*
X96182101Y-45749045D01*
X96014955Y-45581899D01*
X95818413Y-45450574D01*
X95600027Y-45360116D01*
X95368190Y-45314000D01*
X95131810Y-45314000D01*
X94899973Y-45360116D01*
X94681587Y-45450574D01*
X94485045Y-45581899D01*
X94317899Y-45749045D01*
X94186574Y-45945587D01*
X94096116Y-46163973D01*
X94050000Y-46395810D01*
X94050000Y-46632190D01*
X94096116Y-46864027D01*
X94186574Y-47082413D01*
X94317899Y-47278955D01*
X94361724Y-47322780D01*
X94296186Y-47342660D01*
X94226697Y-47379803D01*
X94165789Y-47429789D01*
X94115803Y-47490697D01*
X94078660Y-47560186D01*
X94055788Y-47635586D01*
X94048065Y-47714000D01*
X78620000Y-47714000D01*
X78620000Y-47251422D01*
X80015612Y-45855810D01*
X87192000Y-45855810D01*
X87192000Y-46092190D01*
X87238116Y-46324027D01*
X87328574Y-46542413D01*
X87459899Y-46738955D01*
X87627045Y-46906101D01*
X87823587Y-47037426D01*
X88041973Y-47127884D01*
X88273810Y-47174000D01*
X88510190Y-47174000D01*
X88742027Y-47127884D01*
X88960413Y-47037426D01*
X89156955Y-46906101D01*
X89324101Y-46738955D01*
X89455426Y-46542413D01*
X89545884Y-46324027D01*
X89592000Y-46092190D01*
X89592000Y-45855810D01*
X89545884Y-45623973D01*
X89455426Y-45405587D01*
X89324101Y-45209045D01*
X89156955Y-45041899D01*
X88960413Y-44910574D01*
X88742027Y-44820116D01*
X88510190Y-44774000D01*
X88273810Y-44774000D01*
X88041973Y-44820116D01*
X87823587Y-44910574D01*
X87627045Y-45041899D01*
X87459899Y-45209045D01*
X87328574Y-45405587D01*
X87238116Y-45623973D01*
X87192000Y-45855810D01*
X80015612Y-45855810D01*
X81575422Y-44296000D01*
X101246570Y-44296000D01*
X101499427Y-88546000D01*
G36*
X144302533Y-41524722D02*
G01*
X144137438Y-41635035D01*
X143997035Y-41775438D01*
X143886722Y-41940533D01*
X143810737Y-42123977D01*
X143772000Y-42318721D01*
X143772000Y-42517279D01*
X143810737Y-42712023D01*
X143886722Y-42895467D01*
X143997035Y-43060562D01*
X144137438Y-43200965D01*
X144302533Y-43311278D01*
X144485977Y-43387263D01*
X144680721Y-43426000D01*
X144879279Y-43426000D01*
X145074023Y-43387263D01*
X145257467Y-43311278D01*
X145422562Y-43200965D01*
X145562965Y-43060562D01*
X145673278Y-42895467D01*
X145749263Y-42712023D01*
X145788000Y-42517279D01*
X145788000Y-42318721D01*
X145749263Y-42123977D01*
X145673278Y-41940533D01*
X145562965Y-41775438D01*
X145422562Y-41635035D01*
X145257467Y-41524722D01*
X145202611Y-41502000D01*
X174906000Y-41502000D01*
X174906000Y-43026353D01*
X174881015Y-42988960D01*
X174657040Y-42764985D01*
X174393673Y-42589009D01*
X174101036Y-42467795D01*
X173790374Y-42406000D01*
X173473626Y-42406000D01*
X173162964Y-42467795D01*
X172870327Y-42589009D01*
X172606960Y-42764985D01*
X172382985Y-42988960D01*
X172207009Y-43252327D01*
X172085795Y-43544964D01*
X172024000Y-43855626D01*
X172024000Y-44172374D01*
X172085795Y-44483036D01*
X172207009Y-44775673D01*
X172382985Y-45039040D01*
X172606960Y-45263015D01*
X172870327Y-45438991D01*
X173162964Y-45560205D01*
X173473626Y-45622000D01*
X173790374Y-45622000D01*
X174101036Y-45560205D01*
X174393673Y-45438991D01*
X174657040Y-45263015D01*
X174881015Y-45039040D01*
X174906000Y-45001647D01*
X174906000Y-47526353D01*
X174881015Y-47488960D01*
X174657040Y-47264985D01*
X174393673Y-47089009D01*
X174101036Y-46967795D01*
X173790374Y-46906000D01*
X173473626Y-46906000D01*
X173162964Y-46967795D01*
X172870327Y-47089009D01*
X172606960Y-47264985D01*
X172382985Y-47488960D01*
X172207009Y-47752327D01*
X172085795Y-48044964D01*
X172024000Y-48355626D01*
X172024000Y-48672374D01*
X172085795Y-48983036D01*
X172207009Y-49275673D01*
X172382985Y-49539040D01*
X172606960Y-49763015D01*
X172870327Y-49938991D01*
X173162964Y-50060205D01*
X173473626Y-50122000D01*
X173790374Y-50122000D01*
X174101036Y-50060205D01*
X174393673Y-49938991D01*
X174657040Y-49763015D01*
X174881015Y-49539040D01*
X174906000Y-49501647D01*
X174906000Y-57304000D01*
X155702000Y-57304000D01*
X155682491Y-57305921D01*
X155663732Y-57311612D01*
X155646443Y-57320853D01*
X155631289Y-57333289D01*
X155618853Y-57348443D01*
X155609612Y-57365732D01*
X155603921Y-57384491D01*
X155602000Y-57404000D01*
X155602000Y-85344000D01*
X155603921Y-85363509D01*
X155609612Y-85382268D01*
X155618853Y-85399557D01*
X155631289Y-85414711D01*
X155646443Y-85427147D01*
X155663732Y-85436388D01*
X155682491Y-85442079D01*
X155702000Y-85444000D01*
X156110000Y-85444000D01*
X156110000Y-88546000D01*
X155516589Y-88546000D01*
X155536000Y-88348919D01*
X155536000Y-88348917D01*
X155542570Y-88282213D01*
X155536000Y-88215510D01*
X155536000Y-87729932D01*
X155602991Y-87629673D01*
X155724205Y-87337036D01*
X155786000Y-87026374D01*
X155786000Y-86709626D01*
X155724205Y-86398964D01*
X155602991Y-86106327D01*
X155427015Y-85842960D01*
X155203040Y-85618985D01*
X154939673Y-85443009D01*
X154647036Y-85321795D01*
X154336374Y-85260000D01*
X154019626Y-85260000D01*
X153708964Y-85321795D01*
X153416327Y-85443009D01*
X153152960Y-85618985D01*
X152928985Y-85842960D01*
X152837075Y-85980513D01*
X152772598Y-85859886D01*
X152602896Y-85653103D01*
X152396113Y-85483402D01*
X152160197Y-85357302D01*
X151904213Y-85279650D01*
X151638000Y-85253430D01*
X151371786Y-85279650D01*
X151115802Y-85357302D01*
X150879886Y-85483402D01*
X150673103Y-85653104D01*
X150503402Y-85859887D01*
X150377302Y-86095803D01*
X150368000Y-86126467D01*
X150358698Y-86095802D01*
X150232598Y-85859886D01*
X150062896Y-85653103D01*
X149856113Y-85483402D01*
X149620197Y-85357302D01*
X149364213Y-85279650D01*
X149098000Y-85253430D01*
X148831786Y-85279650D01*
X148575802Y-85357302D01*
X148339886Y-85483402D01*
X148133103Y-85653104D01*
X147963402Y-85859887D01*
X147837302Y-86095803D01*
X147828000Y-86126467D01*
X147818698Y-86095802D01*
X147692598Y-85859886D01*
X147522896Y-85653103D01*
X147316113Y-85483402D01*
X147080197Y-85357302D01*
X146824213Y-85279650D01*
X146558000Y-85253430D01*
X146291786Y-85279650D01*
X146035802Y-85357302D01*
X145799886Y-85483402D01*
X145593103Y-85653104D01*
X145423402Y-85859887D01*
X145297302Y-86095803D01*
X145288000Y-86126467D01*
X145278698Y-86095802D01*
X145152598Y-85859886D01*
X144982896Y-85653103D01*
X144776113Y-85483402D01*
X144540197Y-85357302D01*
X144284213Y-85279650D01*
X144018000Y-85253430D01*
X143751786Y-85279650D01*
X143495802Y-85357302D01*
X143259886Y-85483402D01*
X143053103Y-85653104D01*
X142883402Y-85859887D01*
X142818925Y-85980514D01*
X142727015Y-85842960D01*
X142503040Y-85618985D01*
X142239673Y-85443009D01*
X141947036Y-85321795D01*
X141636374Y-85260000D01*
X141319626Y-85260000D01*
X141008964Y-85321795D01*
X140716327Y-85443009D01*
X140452960Y-85618985D01*
X140228985Y-85842960D01*
X140137075Y-85980513D01*
X140072598Y-85859886D01*
X139902896Y-85653103D01*
X139696113Y-85483402D01*
X139460197Y-85357302D01*
X139204213Y-85279650D01*
X138938000Y-85253430D01*
X138671786Y-85279650D01*
X138415802Y-85357302D01*
X138179886Y-85483402D01*
X137973103Y-85653104D01*
X137803402Y-85859887D01*
X137677302Y-86095803D01*
X137668000Y-86126467D01*
X137658698Y-86095802D01*
X137532598Y-85859886D01*
X137362896Y-85653103D01*
X137156113Y-85483402D01*
X136920197Y-85357302D01*
X136664213Y-85279650D01*
X136398000Y-85253430D01*
X136131786Y-85279650D01*
X135875802Y-85357302D01*
X135639886Y-85483402D01*
X135433103Y-85653104D01*
X135263402Y-85859887D01*
X135137302Y-86095803D01*
X135128000Y-86126467D01*
X135118698Y-86095802D01*
X134992598Y-85859886D01*
X134822896Y-85653103D01*
X134616113Y-85483402D01*
X134380197Y-85357302D01*
X134124213Y-85279650D01*
X133858000Y-85253430D01*
X133591786Y-85279650D01*
X133335802Y-85357302D01*
X133099886Y-85483402D01*
X132893103Y-85653104D01*
X132723402Y-85859887D01*
X132597302Y-86095803D01*
X132588000Y-86126467D01*
X132578698Y-86095802D01*
X132452598Y-85859886D01*
X132282896Y-85653103D01*
X132076113Y-85483402D01*
X131840197Y-85357302D01*
X131584213Y-85279650D01*
X131318000Y-85253430D01*
X131051786Y-85279650D01*
X130795802Y-85357302D01*
X130559886Y-85483402D01*
X130353103Y-85653104D01*
X130183402Y-85859887D01*
X130057302Y-86095803D01*
X130048000Y-86126467D01*
X130038698Y-86095802D01*
X129912598Y-85859886D01*
X129742896Y-85653103D01*
X129536113Y-85483402D01*
X129300197Y-85357302D01*
X129044213Y-85279650D01*
X128778000Y-85253430D01*
X128511786Y-85279650D01*
X128255802Y-85357302D01*
X128019886Y-85483402D01*
X127813103Y-85653104D01*
X127643402Y-85859887D01*
X127517302Y-86095803D01*
X127508000Y-86126467D01*
X127498698Y-86095802D01*
X127372598Y-85859886D01*
X127202896Y-85653103D01*
X126996113Y-85483402D01*
X126760197Y-85357302D01*
X126504213Y-85279650D01*
X126238000Y-85253430D01*
X125971786Y-85279650D01*
X125715802Y-85357302D01*
X125479886Y-85483402D01*
X125273103Y-85653104D01*
X125103402Y-85859887D01*
X124977302Y-86095803D01*
X124968000Y-86126467D01*
X124958698Y-86095802D01*
X124832598Y-85859886D01*
X124662896Y-85653103D01*
X124456113Y-85483402D01*
X124220197Y-85357302D01*
X123964213Y-85279650D01*
X123698000Y-85253430D01*
X123431786Y-85279650D01*
X123175802Y-85357302D01*
X122939886Y-85483402D01*
X122733103Y-85653104D01*
X122563402Y-85859887D01*
X122437302Y-86095803D01*
X122428000Y-86126467D01*
X122418698Y-86095802D01*
X122292598Y-85859886D01*
X122122896Y-85653103D01*
X121916113Y-85483402D01*
X121680197Y-85357302D01*
X121424213Y-85279650D01*
X121158000Y-85253430D01*
X120891786Y-85279650D01*
X120635802Y-85357302D01*
X120399886Y-85483402D01*
X120193103Y-85653104D01*
X120023402Y-85859887D01*
X119897302Y-86095803D01*
X119888000Y-86126467D01*
X119878698Y-86095802D01*
X119752598Y-85859886D01*
X119582896Y-85653103D01*
X119376113Y-85483402D01*
X119140197Y-85357302D01*
X118884213Y-85279650D01*
X118618000Y-85253430D01*
X118351786Y-85279650D01*
X118095802Y-85357302D01*
X117859886Y-85483402D01*
X117653103Y-85653104D01*
X117483402Y-85859887D01*
X117357302Y-86095803D01*
X117348000Y-86126467D01*
X117338698Y-86095802D01*
X117212598Y-85859886D01*
X117042896Y-85653103D01*
X116836113Y-85483402D01*
X116600197Y-85357302D01*
X116344213Y-85279650D01*
X116078000Y-85253430D01*
X115811786Y-85279650D01*
X115555802Y-85357302D01*
X115319886Y-85483402D01*
X115113103Y-85653104D01*
X114943402Y-85859887D01*
X114817302Y-86095803D01*
X114808000Y-86126467D01*
X114798698Y-86095802D01*
X114672598Y-85859886D01*
X114502896Y-85653103D01*
X114296113Y-85483402D01*
X114060197Y-85357302D01*
X113804213Y-85279650D01*
X113538000Y-85253430D01*
X113271786Y-85279650D01*
X113015802Y-85357302D01*
X112779886Y-85483402D01*
X112573103Y-85653104D01*
X112403402Y-85859887D01*
X112277302Y-86095803D01*
X112268000Y-86126467D01*
X112258698Y-86095802D01*
X112132598Y-85859886D01*
X111962896Y-85653103D01*
X111756113Y-85483402D01*
X111520197Y-85357302D01*
X111264213Y-85279650D01*
X110998000Y-85253430D01*
X110731786Y-85279650D01*
X110475802Y-85357302D01*
X110239886Y-85483402D01*
X110033103Y-85653104D01*
X109863402Y-85859887D01*
X109737302Y-86095803D01*
X109701987Y-86212220D01*
X109679782Y-86170677D01*
X109484484Y-86059305D01*
X108675789Y-86868000D01*
X109484484Y-87676695D01*
X109679782Y-87565323D01*
X109700520Y-87518943D01*
X109737302Y-87640198D01*
X109863402Y-87876114D01*
X110033104Y-88082897D01*
X110239887Y-88252598D01*
X110475803Y-88378698D01*
X110731787Y-88456350D01*
X110998000Y-88482570D01*
X111264214Y-88456350D01*
X111520198Y-88378698D01*
X111756114Y-88252598D01*
X111962897Y-88082897D01*
X112132598Y-87876114D01*
X112258698Y-87640197D01*
X112268000Y-87609533D01*
X112277302Y-87640198D01*
X112403402Y-87876114D01*
X112573104Y-88082897D01*
X112779887Y-88252598D01*
X113015803Y-88378698D01*
X113271787Y-88456350D01*
X113538000Y-88482570D01*
X113804214Y-88456350D01*
X114060198Y-88378698D01*
X114296114Y-88252598D01*
X114502897Y-88082897D01*
X114672598Y-87876114D01*
X114798698Y-87640197D01*
X114808000Y-87609533D01*
X114817302Y-87640198D01*
X114943402Y-87876114D01*
X115113104Y-88082897D01*
X115319887Y-88252598D01*
X115555803Y-88378698D01*
X115811787Y-88456350D01*
X116078000Y-88482570D01*
X116344214Y-88456350D01*
X116600198Y-88378698D01*
X116836114Y-88252598D01*
X117042897Y-88082897D01*
X117212598Y-87876114D01*
X117338698Y-87640197D01*
X117348000Y-87609533D01*
X117357302Y-87640198D01*
X117483402Y-87876114D01*
X117653104Y-88082897D01*
X117859887Y-88252598D01*
X118095803Y-88378698D01*
X118351787Y-88456350D01*
X118618000Y-88482570D01*
X118884214Y-88456350D01*
X119140198Y-88378698D01*
X119376114Y-88252598D01*
X119582897Y-88082897D01*
X119752598Y-87876114D01*
X119878698Y-87640197D01*
X119888000Y-87609533D01*
X119897302Y-87640198D01*
X120023402Y-87876114D01*
X120193104Y-88082897D01*
X120399887Y-88252598D01*
X120635803Y-88378698D01*
X120891787Y-88456350D01*
X121158000Y-88482570D01*
X121424214Y-88456350D01*
X121680198Y-88378698D01*
X121916114Y-88252598D01*
X122122897Y-88082897D01*
X122292598Y-87876114D01*
X122418698Y-87640197D01*
X122428000Y-87609533D01*
X122437302Y-87640198D01*
X122563402Y-87876114D01*
X122733104Y-88082897D01*
X122939887Y-88252598D01*
X123175803Y-88378698D01*
X123431787Y-88456350D01*
X123698000Y-88482570D01*
X123964214Y-88456350D01*
X124220198Y-88378698D01*
X124456114Y-88252598D01*
X124662897Y-88082897D01*
X124832598Y-87876114D01*
X124958698Y-87640197D01*
X124968000Y-87609533D01*
X124977302Y-87640198D01*
X125103402Y-87876114D01*
X125273104Y-88082897D01*
X125479887Y-88252598D01*
X125715803Y-88378698D01*
X125971787Y-88456350D01*
X126238000Y-88482570D01*
X126504214Y-88456350D01*
X126760198Y-88378698D01*
X126996114Y-88252598D01*
X127202897Y-88082897D01*
X127372598Y-87876114D01*
X127498698Y-87640197D01*
X127508000Y-87609533D01*
X127517302Y-87640198D01*
X127643402Y-87876114D01*
X127813104Y-88082897D01*
X128019887Y-88252598D01*
X128255803Y-88378698D01*
X128511787Y-88456350D01*
X128778000Y-88482570D01*
X129044214Y-88456350D01*
X129300198Y-88378698D01*
X129536114Y-88252598D01*
X129742897Y-88082897D01*
X129912598Y-87876114D01*
X130038698Y-87640197D01*
X130048000Y-87609533D01*
X130057302Y-87640198D01*
X130183402Y-87876114D01*
X130353104Y-88082897D01*
X130559887Y-88252598D01*
X130795803Y-88378698D01*
X131051787Y-88456350D01*
X131318000Y-88482570D01*
X131584214Y-88456350D01*
X131840198Y-88378698D01*
X132076114Y-88252598D01*
X132282897Y-88082897D01*
X132452598Y-87876114D01*
X132578698Y-87640197D01*
X132588000Y-87609533D01*
X132597302Y-87640198D01*
X132723402Y-87876114D01*
X132893104Y-88082897D01*
X133099887Y-88252598D01*
X133335803Y-88378698D01*
X133591787Y-88456350D01*
X133858000Y-88482570D01*
X134124214Y-88456350D01*
X134380198Y-88378698D01*
X134616114Y-88252598D01*
X134822897Y-88082897D01*
X134992598Y-87876114D01*
X135118698Y-87640197D01*
X135128000Y-87609533D01*
X135137302Y-87640198D01*
X135263402Y-87876114D01*
X135433104Y-88082897D01*
X135639887Y-88252598D01*
X135875803Y-88378698D01*
X136131787Y-88456350D01*
X136398000Y-88482570D01*
X136664214Y-88456350D01*
X136920198Y-88378698D01*
X137156114Y-88252598D01*
X137362897Y-88082897D01*
X137532598Y-87876114D01*
X137658698Y-87640197D01*
X137668000Y-87609533D01*
X137677302Y-87640198D01*
X137803402Y-87876114D01*
X137973104Y-88082897D01*
X138179887Y-88252598D01*
X138415803Y-88378698D01*
X138671787Y-88456350D01*
X138938000Y-88482570D01*
X139204214Y-88456350D01*
X139460198Y-88378698D01*
X139696114Y-88252598D01*
X139902897Y-88082897D01*
X140072598Y-87876114D01*
X140137075Y-87755486D01*
X140228985Y-87893040D01*
X140452960Y-88117015D01*
X140716327Y-88292991D01*
X141008964Y-88414205D01*
X141319626Y-88476000D01*
X141636374Y-88476000D01*
X141947036Y-88414205D01*
X142239673Y-88292991D01*
X142503040Y-88117015D01*
X142727015Y-87893040D01*
X142818925Y-87755487D01*
X142883402Y-87876114D01*
X143053104Y-88082897D01*
X143259887Y-88252598D01*
X143495803Y-88378698D01*
X143751787Y-88456350D01*
X144018000Y-88482570D01*
X144284214Y-88456350D01*
X144540198Y-88378698D01*
X144776114Y-88252598D01*
X144982897Y-88082897D01*
X145152598Y-87876114D01*
X145278698Y-87640197D01*
X145288000Y-87609533D01*
X145297302Y-87640198D01*
X145423402Y-87876114D01*
X145593104Y-88082897D01*
X145799887Y-88252598D01*
X146035803Y-88378698D01*
X146291787Y-88456350D01*
X146558000Y-88482570D01*
X146824214Y-88456350D01*
X147080198Y-88378698D01*
X147316114Y-88252598D01*
X147522897Y-88082897D01*
X147692598Y-87876114D01*
X147818698Y-87640197D01*
X147828000Y-87609533D01*
X147837302Y-87640198D01*
X147963402Y-87876114D01*
X148133104Y-88082897D01*
X148339887Y-88252598D01*
X148575803Y-88378698D01*
X148831787Y-88456350D01*
X149098000Y-88482570D01*
X149364214Y-88456350D01*
X149620198Y-88378698D01*
X149856114Y-88252598D01*
X150062897Y-88082897D01*
X150232598Y-87876114D01*
X150358698Y-87640197D01*
X150368000Y-87609533D01*
X150377302Y-87640198D01*
X150503402Y-87876114D01*
X150673104Y-88082897D01*
X150879887Y-88252598D01*
X151115803Y-88378698D01*
X151371787Y-88456350D01*
X151638000Y-88482570D01*
X151904214Y-88456350D01*
X152160198Y-88378698D01*
X152161950Y-88377761D01*
X151993712Y-88546000D01*
X101192000Y-88546000D01*
X101192000Y-86551295D01*
X104560000Y-86551295D01*
X104560000Y-87184706D01*
X104579650Y-87384214D01*
X104657302Y-87640198D01*
X104783402Y-87876114D01*
X104953104Y-88082897D01*
X105159887Y-88252598D01*
X105395803Y-88378698D01*
X105651787Y-88456350D01*
X105918000Y-88482570D01*
X106184214Y-88456350D01*
X106440198Y-88378698D01*
X106676114Y-88252598D01*
X106882897Y-88082897D01*
X107037522Y-87894484D01*
X107649305Y-87894484D01*
X107760677Y-88089782D01*
X108012434Y-88202347D01*
X108281314Y-88263634D01*
X108556983Y-88271287D01*
X108828849Y-88225012D01*
X109086463Y-88126589D01*
X109155323Y-88089782D01*
X109266695Y-87894484D01*
X108458000Y-87085789D01*
X107649305Y-87894484D01*
X107037522Y-87894484D01*
X107052598Y-87876114D01*
X107178698Y-87640197D01*
X107214013Y-87523780D01*
X107236218Y-87565323D01*
X107431516Y-87676695D01*
X108240211Y-86868000D01*
X107431516Y-86059305D01*
X107236218Y-86170677D01*
X107215480Y-86217057D01*
X107178698Y-86095802D01*
X107052598Y-85859886D01*
X107037523Y-85841516D01*
X107649305Y-85841516D01*
X108458000Y-86650211D01*
X109266695Y-85841516D01*
X109155323Y-85646218D01*
X108903566Y-85533653D01*
X108634686Y-85472366D01*
X108359017Y-85464713D01*
X108087151Y-85510988D01*
X107829537Y-85609411D01*
X107760677Y-85646218D01*
X107649305Y-85841516D01*
X107037523Y-85841516D01*
X106882896Y-85653103D01*
X106676113Y-85483402D01*
X106440197Y-85357302D01*
X106184213Y-85279650D01*
X105918000Y-85253430D01*
X105651786Y-85279650D01*
X105395802Y-85357302D01*
X105159886Y-85483402D01*
X104953103Y-85653104D01*
X104783402Y-85859887D01*
X104657302Y-86095803D01*
X104579650Y-86351787D01*
X104560000Y-86551295D01*
X101192000Y-86551295D01*
X101192000Y-78132721D01*
X113038000Y-78132721D01*
X113038000Y-78331279D01*
X113076737Y-78526023D01*
X113152722Y-78709467D01*
X113263035Y-78874562D01*
X113403438Y-79014965D01*
X113568533Y-79125278D01*
X113751977Y-79201263D01*
X113946721Y-79240000D01*
X114145279Y-79240000D01*
X114340023Y-79201263D01*
X114523467Y-79125278D01*
X114688562Y-79014965D01*
X114828965Y-78874562D01*
X114939278Y-78709467D01*
X115015263Y-78526023D01*
X115054000Y-78331279D01*
X115054000Y-78132721D01*
X115015263Y-77937977D01*
X114939278Y-77754533D01*
X114828965Y-77589438D01*
X114688562Y-77449035D01*
X114523467Y-77338722D01*
X114340023Y-77262737D01*
X114145279Y-77224000D01*
X113946721Y-77224000D01*
X113751977Y-77262737D01*
X113568533Y-77338722D01*
X113403438Y-77449035D01*
X113263035Y-77589438D01*
X113152722Y-77754533D01*
X113076737Y-77937977D01*
X113038000Y-78132721D01*
X101192000Y-78132721D01*
X101192000Y-74791324D01*
X112384000Y-74791324D01*
X112384000Y-75068676D01*
X112438108Y-75340699D01*
X112544246Y-75596938D01*
X112698335Y-75827548D01*
X112894452Y-76023665D01*
X113125062Y-76177754D01*
X113381301Y-76283892D01*
X113653324Y-76338000D01*
X113930676Y-76338000D01*
X114202699Y-76283892D01*
X114458938Y-76177754D01*
X114689548Y-76023665D01*
X114885665Y-75827548D01*
X115039754Y-75596938D01*
X115145892Y-75340699D01*
X115200000Y-75068676D01*
X115200000Y-74791324D01*
X115145892Y-74519301D01*
X115039754Y-74263062D01*
X114885665Y-74032452D01*
X114689548Y-73836335D01*
X114458938Y-73682246D01*
X114202699Y-73576108D01*
X113930676Y-73522000D01*
X113653324Y-73522000D01*
X113381301Y-73576108D01*
X113125062Y-73682246D01*
X112894452Y-73836335D01*
X112698335Y-74032452D01*
X112544246Y-74263062D01*
X112438108Y-74519301D01*
X112384000Y-74791324D01*
X101192000Y-74791324D01*
X101192000Y-69496733D01*
X119388000Y-69496733D01*
X119388000Y-69695291D01*
X119426737Y-69890035D01*
X119502722Y-70073479D01*
X119613035Y-70238574D01*
X119753438Y-70378977D01*
X119918533Y-70489290D01*
X120101977Y-70565275D01*
X120296721Y-70604012D01*
X120495279Y-70604012D01*
X120690023Y-70565275D01*
X120727597Y-70549711D01*
X128785996Y-70549711D01*
X128785996Y-70748269D01*
X128824733Y-70943013D01*
X128900718Y-71126457D01*
X129011031Y-71291552D01*
X129151434Y-71431955D01*
X129316529Y-71542268D01*
X129499973Y-71618253D01*
X129694717Y-71656990D01*
X129893275Y-71656990D01*
X130088019Y-71618253D01*
X130271463Y-71542268D01*
X130436558Y-71431955D01*
X130576961Y-71291552D01*
X130687274Y-71126457D01*
X130763259Y-70943013D01*
X130801996Y-70748269D01*
X130801996Y-70549711D01*
X130763259Y-70354967D01*
X130687274Y-70171523D01*
X130576961Y-70006428D01*
X130436558Y-69866025D01*
X130271463Y-69755712D01*
X130088019Y-69679727D01*
X129893275Y-69640990D01*
X129694717Y-69640990D01*
X129499973Y-69679727D01*
X129316529Y-69755712D01*
X129151434Y-69866025D01*
X129011031Y-70006428D01*
X128900718Y-70171523D01*
X128824733Y-70354967D01*
X128785996Y-70549711D01*
X120727597Y-70549711D01*
X120873467Y-70489290D01*
X121038562Y-70378977D01*
X121178965Y-70238574D01*
X121289278Y-70073479D01*
X121365263Y-69890035D01*
X121404000Y-69695291D01*
X121404000Y-69496733D01*
X121365263Y-69301989D01*
X121289278Y-69118545D01*
X121178965Y-68953450D01*
X121038562Y-68813047D01*
X120873467Y-68702734D01*
X120690023Y-68626749D01*
X120495279Y-68588012D01*
X120296721Y-68588012D01*
X120101977Y-68626749D01*
X119918533Y-68702734D01*
X119753438Y-68813047D01*
X119613035Y-68953450D01*
X119502722Y-69118545D01*
X119426737Y-69301989D01*
X119388000Y-69496733D01*
X101192000Y-69496733D01*
X101192000Y-68480721D01*
X122944000Y-68480721D01*
X122944000Y-68679279D01*
X122982737Y-68874023D01*
X123058722Y-69057467D01*
X123169035Y-69222562D01*
X123309438Y-69362965D01*
X123474533Y-69473278D01*
X123657977Y-69549263D01*
X123852721Y-69588000D01*
X124051279Y-69588000D01*
X124246023Y-69549263D01*
X124429467Y-69473278D01*
X124594562Y-69362965D01*
X124734965Y-69222562D01*
X124845278Y-69057467D01*
X124921263Y-68874023D01*
X124960000Y-68679279D01*
X124960000Y-68480721D01*
X124921263Y-68285977D01*
X124845278Y-68102533D01*
X124734965Y-67937438D01*
X124594562Y-67797035D01*
X124429467Y-67686722D01*
X124246023Y-67610737D01*
X124051279Y-67572000D01*
X123852721Y-67572000D01*
X123657977Y-67610737D01*
X123474533Y-67686722D01*
X123309438Y-67797035D01*
X123169035Y-67937438D01*
X123058722Y-68102533D01*
X122982737Y-68285977D01*
X122944000Y-68480721D01*
X101192000Y-68480721D01*
X101192000Y-64631324D01*
X112384000Y-64631324D01*
X112384000Y-64908676D01*
X112438108Y-65180699D01*
X112544246Y-65436938D01*
X112698335Y-65667548D01*
X112894452Y-65863665D01*
X113125062Y-66017754D01*
X113381301Y-66123892D01*
X113653324Y-66178000D01*
X113930676Y-66178000D01*
X114202699Y-66123892D01*
X114458938Y-66017754D01*
X114689548Y-65863665D01*
X114885665Y-65667548D01*
X115039754Y-65436938D01*
X115145892Y-65180699D01*
X115200000Y-64908676D01*
X115200000Y-64631324D01*
X115145892Y-64359301D01*
X115039754Y-64103062D01*
X114885665Y-63872452D01*
X114689548Y-63676335D01*
X114458938Y-63522246D01*
X114202699Y-63416108D01*
X113930676Y-63362000D01*
X113653324Y-63362000D01*
X113381301Y-63416108D01*
X113125062Y-63522246D01*
X112894452Y-63676335D01*
X112698335Y-63872452D01*
X112544246Y-64103062D01*
X112438108Y-64359301D01*
X112384000Y-64631324D01*
X101192000Y-64631324D01*
X101192000Y-58611295D01*
X104560000Y-58611295D01*
X104560000Y-59244706D01*
X104579650Y-59444214D01*
X104657302Y-59700198D01*
X104783402Y-59936114D01*
X104953104Y-60142897D01*
X105159887Y-60312598D01*
X105395803Y-60438698D01*
X105651787Y-60516350D01*
X105918000Y-60542570D01*
X106184214Y-60516350D01*
X106440198Y-60438698D01*
X106676114Y-60312598D01*
X106882897Y-60142897D01*
X107052598Y-59936114D01*
X107178698Y-59700197D01*
X107188000Y-59669533D01*
X107197302Y-59700198D01*
X107323402Y-59936114D01*
X107493104Y-60142897D01*
X107699887Y-60312598D01*
X107935803Y-60438698D01*
X108191787Y-60516350D01*
X108458000Y-60542570D01*
X108724214Y-60516350D01*
X108980198Y-60438698D01*
X109216114Y-60312598D01*
X109422897Y-60142897D01*
X109592598Y-59936114D01*
X109718698Y-59700197D01*
X109728000Y-59669533D01*
X109737302Y-59700198D01*
X109863402Y-59936114D01*
X110033104Y-60142897D01*
X110239887Y-60312598D01*
X110475803Y-60438698D01*
X110731787Y-60516350D01*
X110998000Y-60542570D01*
X111264214Y-60516350D01*
X111520198Y-60438698D01*
X111756114Y-60312598D01*
X111962897Y-60142897D01*
X112132598Y-59936114D01*
X112258698Y-59700197D01*
X112268000Y-59669533D01*
X112277302Y-59700198D01*
X112403402Y-59936114D01*
X112573104Y-60142897D01*
X112779887Y-60312598D01*
X113015803Y-60438698D01*
X113271787Y-60516350D01*
X113538000Y-60542570D01*
X113804214Y-60516350D01*
X114060198Y-60438698D01*
X114296114Y-60312598D01*
X114502897Y-60142897D01*
X114672598Y-59936114D01*
X114798698Y-59700197D01*
X114808000Y-59669533D01*
X114817302Y-59700198D01*
X114943402Y-59936114D01*
X115113104Y-60142897D01*
X115319887Y-60312598D01*
X115555803Y-60438698D01*
X115811787Y-60516350D01*
X116078000Y-60542570D01*
X116344214Y-60516350D01*
X116600198Y-60438698D01*
X116836114Y-60312598D01*
X117042897Y-60142897D01*
X117212598Y-59936114D01*
X117338698Y-59700197D01*
X117348000Y-59669533D01*
X117357302Y-59700198D01*
X117483402Y-59936114D01*
X117653104Y-60142897D01*
X117859887Y-60312598D01*
X118095803Y-60438698D01*
X118351787Y-60516350D01*
X118618000Y-60542570D01*
X118884214Y-60516350D01*
X119140198Y-60438698D01*
X119376114Y-60312598D01*
X119582897Y-60142897D01*
X119752598Y-59936114D01*
X119878698Y-59700197D01*
X119888000Y-59669533D01*
X119897302Y-59700198D01*
X120023402Y-59936114D01*
X120193104Y-60142897D01*
X120399887Y-60312598D01*
X120635803Y-60438698D01*
X120891787Y-60516350D01*
X121158000Y-60542570D01*
X121424214Y-60516350D01*
X121680198Y-60438698D01*
X121916114Y-60312598D01*
X122122897Y-60142897D01*
X122292598Y-59936114D01*
X122418698Y-59700197D01*
X122428000Y-59669533D01*
X122437302Y-59700198D01*
X122563402Y-59936114D01*
X122733104Y-60142897D01*
X122939887Y-60312598D01*
X123175803Y-60438698D01*
X123431787Y-60516350D01*
X123698000Y-60542570D01*
X123964214Y-60516350D01*
X124220198Y-60438698D01*
X124456114Y-60312598D01*
X124662897Y-60142897D01*
X124832598Y-59936114D01*
X124958698Y-59700197D01*
X124968000Y-59669533D01*
X124977302Y-59700198D01*
X125103402Y-59936114D01*
X125273104Y-60142897D01*
X125479887Y-60312598D01*
X125715803Y-60438698D01*
X125971787Y-60516350D01*
X126238000Y-60542570D01*
X126504214Y-60516350D01*
X126760198Y-60438698D01*
X126996114Y-60312598D01*
X127202897Y-60142897D01*
X127372598Y-59936114D01*
X127498698Y-59700197D01*
X127508000Y-59669533D01*
X127517302Y-59700198D01*
X127643402Y-59936114D01*
X127813104Y-60142897D01*
X128019887Y-60312598D01*
X128255803Y-60438698D01*
X128511787Y-60516350D01*
X128778000Y-60542570D01*
X129044214Y-60516350D01*
X129300198Y-60438698D01*
X129536114Y-60312598D01*
X129742897Y-60142897D01*
X129912598Y-59936114D01*
X130038698Y-59700197D01*
X130048000Y-59669533D01*
X130057302Y-59700198D01*
X130183402Y-59936114D01*
X130353104Y-60142897D01*
X130559887Y-60312598D01*
X130795803Y-60438698D01*
X131051787Y-60516350D01*
X131318000Y-60542570D01*
X131584214Y-60516350D01*
X131840198Y-60438698D01*
X132076114Y-60312598D01*
X132282897Y-60142897D01*
X132452598Y-59936114D01*
X132578698Y-59700197D01*
X132588000Y-59669533D01*
X132597302Y-59700198D01*
X132723402Y-59936114D01*
X132893104Y-60142897D01*
X133099887Y-60312598D01*
X133335803Y-60438698D01*
X133591787Y-60516350D01*
X133858000Y-60542570D01*
X134124214Y-60516350D01*
X134380198Y-60438698D01*
X134616114Y-60312598D01*
X134822897Y-60142897D01*
X134992598Y-59936114D01*
X135118698Y-59700197D01*
X135128000Y-59669533D01*
X135137302Y-59700198D01*
X135263402Y-59936114D01*
X135433104Y-60142897D01*
X135639887Y-60312598D01*
X135875803Y-60438698D01*
X136131787Y-60516350D01*
X136398000Y-60542570D01*
X136664214Y-60516350D01*
X136920198Y-60438698D01*
X137156114Y-60312598D01*
X137362897Y-60142897D01*
X137532598Y-59936114D01*
X137658698Y-59700197D01*
X137668000Y-59669533D01*
X137677302Y-59700198D01*
X137803402Y-59936114D01*
X137973104Y-60142897D01*
X138179887Y-60312598D01*
X138415803Y-60438698D01*
X138671787Y-60516350D01*
X138938000Y-60542570D01*
X139204214Y-60516350D01*
X139460198Y-60438698D01*
X139696114Y-60312598D01*
X139902897Y-60142897D01*
X140072598Y-59936114D01*
X140198698Y-59700197D01*
X140208000Y-59669533D01*
X140217302Y-59700198D01*
X140343402Y-59936114D01*
X140513104Y-60142897D01*
X140719887Y-60312598D01*
X140955803Y-60438698D01*
X141211787Y-60516350D01*
X141478000Y-60542570D01*
X141744214Y-60516350D01*
X142000198Y-60438698D01*
X142236114Y-60312598D01*
X142442897Y-60142897D01*
X142612598Y-59936114D01*
X142738698Y-59700197D01*
X142748000Y-59669533D01*
X142757302Y-59700198D01*
X142883402Y-59936114D01*
X143053104Y-60142897D01*
X143259887Y-60312598D01*
X143495803Y-60438698D01*
X143751787Y-60516350D01*
X144018000Y-60542570D01*
X144284214Y-60516350D01*
X144540198Y-60438698D01*
X144776114Y-60312598D01*
X144982897Y-60142897D01*
X145152598Y-59936114D01*
X145278698Y-59700197D01*
X145288000Y-59669533D01*
X145297302Y-59700198D01*
X145423402Y-59936114D01*
X145593104Y-60142897D01*
X145799887Y-60312598D01*
X146035803Y-60438698D01*
X146291787Y-60516350D01*
X146558000Y-60542570D01*
X146824214Y-60516350D01*
X147080198Y-60438698D01*
X147316114Y-60312598D01*
X147522897Y-60142897D01*
X147692598Y-59936114D01*
X147818698Y-59700197D01*
X147828000Y-59669533D01*
X147837302Y-59700198D01*
X147963402Y-59936114D01*
X148133104Y-60142897D01*
X148339887Y-60312598D01*
X148575803Y-60438698D01*
X148831787Y-60516350D01*
X149098000Y-60542570D01*
X149364214Y-60516350D01*
X149620198Y-60438698D01*
X149856114Y-60312598D01*
X150062897Y-60142897D01*
X150232598Y-59936114D01*
X150358698Y-59700197D01*
X150368000Y-59669533D01*
X150377302Y-59700198D01*
X150503402Y-59936114D01*
X150673104Y-60142897D01*
X150879887Y-60312598D01*
X151115803Y-60438698D01*
X151371787Y-60516350D01*
X151638000Y-60542570D01*
X151904214Y-60516350D01*
X152160198Y-60438698D01*
X152396114Y-60312598D01*
X152602897Y-60142897D01*
X152772598Y-59936114D01*
X152898698Y-59700197D01*
X152908000Y-59669533D01*
X152917302Y-59700198D01*
X153043402Y-59936114D01*
X153213104Y-60142897D01*
X153419887Y-60312598D01*
X153655803Y-60438698D01*
X153911787Y-60516350D01*
X154178000Y-60542570D01*
X154444214Y-60516350D01*
X154700198Y-60438698D01*
X154936114Y-60312598D01*
X155142897Y-60142897D01*
X155312598Y-59936114D01*
X155438698Y-59700197D01*
X155516350Y-59444213D01*
X155536000Y-59244705D01*
X155536000Y-58611294D01*
X155516350Y-58411786D01*
X155438698Y-58155802D01*
X155312598Y-57919886D01*
X155142896Y-57713103D01*
X154936113Y-57543402D01*
X154700197Y-57417302D01*
X154444213Y-57339650D01*
X154178000Y-57313430D01*
X153911786Y-57339650D01*
X153655802Y-57417302D01*
X153419886Y-57543402D01*
X153213103Y-57713104D01*
X153043402Y-57919887D01*
X152917302Y-58155803D01*
X152908000Y-58186467D01*
X152898698Y-58155802D01*
X152772598Y-57919886D01*
X152602896Y-57713103D01*
X152396113Y-57543402D01*
X152160197Y-57417302D01*
X151904213Y-57339650D01*
X151638000Y-57313430D01*
X151371786Y-57339650D01*
X151115802Y-57417302D01*
X150879886Y-57543402D01*
X150673103Y-57713104D01*
X150503402Y-57919887D01*
X150377302Y-58155803D01*
X150368000Y-58186467D01*
X150358698Y-58155802D01*
X150232598Y-57919886D01*
X150062896Y-57713103D01*
X149856113Y-57543402D01*
X149620197Y-57417302D01*
X149364213Y-57339650D01*
X149098000Y-57313430D01*
X148831786Y-57339650D01*
X148575802Y-57417302D01*
X148339886Y-57543402D01*
X148133103Y-57713104D01*
X147963402Y-57919887D01*
X147837302Y-58155803D01*
X147828000Y-58186467D01*
X147818698Y-58155802D01*
X147692598Y-57919886D01*
X147522896Y-57713103D01*
X147316113Y-57543402D01*
X147080197Y-57417302D01*
X146824213Y-57339650D01*
X146558000Y-57313430D01*
X146291786Y-57339650D01*
X146035802Y-57417302D01*
X145799886Y-57543402D01*
X145593103Y-57713104D01*
X145423402Y-57919887D01*
X145297302Y-58155803D01*
X145288000Y-58186467D01*
X145278698Y-58155802D01*
X145152598Y-57919886D01*
X144982896Y-57713103D01*
X144776113Y-57543402D01*
X144540197Y-57417302D01*
X144284213Y-57339650D01*
X144018000Y-57313430D01*
X143751786Y-57339650D01*
X143495802Y-57417302D01*
X143259886Y-57543402D01*
X143053103Y-57713104D01*
X142883402Y-57919887D01*
X142757302Y-58155803D01*
X142748000Y-58186467D01*
X142738698Y-58155802D01*
X142612598Y-57919886D01*
X142442896Y-57713103D01*
X142236113Y-57543402D01*
X142000197Y-57417302D01*
X141744213Y-57339650D01*
X141478000Y-57313430D01*
X141211786Y-57339650D01*
X140955802Y-57417302D01*
X140719886Y-57543402D01*
X140513103Y-57713104D01*
X140343402Y-57919887D01*
X140217302Y-58155803D01*
X140208000Y-58186467D01*
X140198698Y-58155802D01*
X140072598Y-57919886D01*
X139902896Y-57713103D01*
X139696113Y-57543402D01*
X139460197Y-57417302D01*
X139204213Y-57339650D01*
X138938000Y-57313430D01*
X138671786Y-57339650D01*
X138415802Y-57417302D01*
X138179886Y-57543402D01*
X137973103Y-57713104D01*
X137803402Y-57919887D01*
X137677302Y-58155803D01*
X137668000Y-58186467D01*
X137658698Y-58155802D01*
X137532598Y-57919886D01*
X137362896Y-57713103D01*
X137156113Y-57543402D01*
X136920197Y-57417302D01*
X136664213Y-57339650D01*
X136398000Y-57313430D01*
X136131786Y-57339650D01*
X135875802Y-57417302D01*
X135639886Y-57543402D01*
X135433103Y-57713104D01*
X135263402Y-57919887D01*
X135137302Y-58155803D01*
X135128000Y-58186467D01*
X135118698Y-58155802D01*
X134992598Y-57919886D01*
X134822896Y-57713103D01*
X134616113Y-57543402D01*
X134380197Y-57417302D01*
X134124213Y-57339650D01*
X133858000Y-57313430D01*
X133591786Y-57339650D01*
X133335802Y-57417302D01*
X133099886Y-57543402D01*
X132893103Y-57713104D01*
X132723402Y-57919887D01*
X132597302Y-58155803D01*
X132588000Y-58186467D01*
X132578698Y-58155802D01*
X132452598Y-57919886D01*
X132282896Y-57713103D01*
X132076113Y-57543402D01*
X131840197Y-57417302D01*
X131584213Y-57339650D01*
X131318000Y-57313430D01*
X131051786Y-57339650D01*
X130795802Y-57417302D01*
X130559886Y-57543402D01*
X130353103Y-57713104D01*
X130183402Y-57919887D01*
X130057302Y-58155803D01*
X130048000Y-58186467D01*
X130038698Y-58155802D01*
X129912598Y-57919886D01*
X129742896Y-57713103D01*
X129536113Y-57543402D01*
X129300197Y-57417302D01*
X129044213Y-57339650D01*
X128778000Y-57313430D01*
X128511786Y-57339650D01*
X128255802Y-57417302D01*
X128019886Y-57543402D01*
X127813103Y-57713104D01*
X127643402Y-57919887D01*
X127517302Y-58155803D01*
X127508000Y-58186467D01*
X127498698Y-58155802D01*
X127372598Y-57919886D01*
X127202896Y-57713103D01*
X126996113Y-57543402D01*
X126760197Y-57417302D01*
X126504213Y-57339650D01*
X126238000Y-57313430D01*
X125971786Y-57339650D01*
X125715802Y-57417302D01*
X125479886Y-57543402D01*
X125273103Y-57713104D01*
X125103402Y-57919887D01*
X124977302Y-58155803D01*
X124968000Y-58186467D01*
X124958698Y-58155802D01*
X124832598Y-57919886D01*
X124662896Y-57713103D01*
X124456113Y-57543402D01*
X124220197Y-57417302D01*
X123964213Y-57339650D01*
X123698000Y-57313430D01*
X123431786Y-57339650D01*
X123175802Y-57417302D01*
X122939886Y-57543402D01*
X122733103Y-57713104D01*
X122563402Y-57919887D01*
X122437302Y-58155803D01*
X122428000Y-58186467D01*
X122418698Y-58155802D01*
X122292598Y-57919886D01*
X122122896Y-57713103D01*
X121916113Y-57543402D01*
X121680197Y-57417302D01*
X121424213Y-57339650D01*
X121158000Y-57313430D01*
X120891786Y-57339650D01*
X120635802Y-57417302D01*
X120399886Y-57543402D01*
X120193103Y-57713104D01*
X120023402Y-57919887D01*
X119897302Y-58155803D01*
X119888000Y-58186467D01*
X119878698Y-58155802D01*
X119752598Y-57919886D01*
X119582896Y-57713103D01*
X119376113Y-57543402D01*
X119140197Y-57417302D01*
X118884213Y-57339650D01*
X118618000Y-57313430D01*
X118351786Y-57339650D01*
X118095802Y-57417302D01*
X117859886Y-57543402D01*
X117653103Y-57713104D01*
X117483402Y-57919887D01*
X117357302Y-58155803D01*
X117348000Y-58186467D01*
X117338698Y-58155802D01*
X117212598Y-57919886D01*
X117042896Y-57713103D01*
X116836113Y-57543402D01*
X116600197Y-57417302D01*
X116344213Y-57339650D01*
X116078000Y-57313430D01*
X115811786Y-57339650D01*
X115555802Y-57417302D01*
X115319886Y-57543402D01*
X115113103Y-57713104D01*
X114943402Y-57919887D01*
X114817302Y-58155803D01*
X114808000Y-58186467D01*
X114798698Y-58155802D01*
X114672598Y-57919886D01*
X114502896Y-57713103D01*
X114296113Y-57543402D01*
X114060197Y-57417302D01*
X113804213Y-57339650D01*
X113538000Y-57313430D01*
X113271786Y-57339650D01*
X113015802Y-57417302D01*
X112779886Y-57543402D01*
X112573103Y-57713104D01*
X112403402Y-57919887D01*
X112277302Y-58155803D01*
X112268000Y-58186467D01*
X112258698Y-58155802D01*
X112132598Y-57919886D01*
X111962896Y-57713103D01*
X111756113Y-57543402D01*
X111520197Y-57417302D01*
X111264213Y-57339650D01*
X110998000Y-57313430D01*
X110731786Y-57339650D01*
X110475802Y-57417302D01*
X110239886Y-57543402D01*
X110033103Y-57713104D01*
X109863402Y-57919887D01*
X109737302Y-58155803D01*
X109728000Y-58186467D01*
X109718698Y-58155802D01*
X109592598Y-57919886D01*
X109422896Y-57713103D01*
X109216113Y-57543402D01*
X108980197Y-57417302D01*
X108724213Y-57339650D01*
X108458000Y-57313430D01*
X108191786Y-57339650D01*
X107935802Y-57417302D01*
X107699886Y-57543402D01*
X107493103Y-57713104D01*
X107323402Y-57919887D01*
X107197302Y-58155803D01*
X107188000Y-58186467D01*
X107178698Y-58155802D01*
X107052598Y-57919886D01*
X106882896Y-57713103D01*
X106676113Y-57543402D01*
X106440197Y-57417302D01*
X106184213Y-57339650D01*
X105918000Y-57313430D01*
X105651786Y-57339650D01*
X105395802Y-57417302D01*
X105159886Y-57543402D01*
X104953103Y-57713104D01*
X104783402Y-57919887D01*
X104657302Y-58155803D01*
X104579650Y-58411787D01*
X104560000Y-58611295D01*
X101192000Y-58611295D01*
X101192000Y-53748721D01*
X137676000Y-53748721D01*
X137676000Y-53947279D01*
X137714737Y-54142023D01*
X137790722Y-54325467D01*
X137901035Y-54490562D01*
X138041438Y-54630965D01*
X138206533Y-54741278D01*
X138389977Y-54817263D01*
X138584721Y-54856000D01*
X138783279Y-54856000D01*
X138978023Y-54817263D01*
X139161467Y-54741278D01*
X139326562Y-54630965D01*
X139466965Y-54490562D01*
X139577278Y-54325467D01*
X139653263Y-54142023D01*
X139692000Y-53947279D01*
X139692000Y-53748721D01*
X139653263Y-53553977D01*
X139577278Y-53370533D01*
X139466965Y-53205438D01*
X139326562Y-53065035D01*
X139161467Y-52954722D01*
X138978023Y-52878737D01*
X138783279Y-52840000D01*
X138584721Y-52840000D01*
X138389977Y-52878737D01*
X138206533Y-52954722D01*
X138041438Y-53065035D01*
X137901035Y-53205438D01*
X137790722Y-53370533D01*
X137714737Y-53553977D01*
X137676000Y-53748721D01*
X101192000Y-53748721D01*
X101192000Y-51423324D01*
X151754000Y-51423324D01*
X151754000Y-51700676D01*
X151808108Y-51972699D01*
X151914246Y-52228938D01*
X152068335Y-52459548D01*
X152264452Y-52655665D01*
X152495062Y-52809754D01*
X152751301Y-52915892D01*
X153023324Y-52970000D01*
X153300676Y-52970000D01*
X153572699Y-52915892D01*
X153828938Y-52809754D01*
X154059548Y-52655665D01*
X154255665Y-52459548D01*
X154409754Y-52228938D01*
X154515892Y-51972699D01*
X154570000Y-51700676D01*
X154570000Y-51423324D01*
X161914000Y-51423324D01*
X161914000Y-51700676D01*
X161968108Y-51972699D01*
X162074246Y-52228938D01*
X162228335Y-52459548D01*
X162424452Y-52655665D01*
X162655062Y-52809754D01*
X162911301Y-52915892D01*
X163183324Y-52970000D01*
X163460676Y-52970000D01*
X163732699Y-52915892D01*
X163988938Y-52809754D01*
X164219548Y-52655665D01*
X164415665Y-52459548D01*
X164569754Y-52228938D01*
X164675892Y-51972699D01*
X164730000Y-51700676D01*
X164730000Y-51423324D01*
X164675892Y-51151301D01*
X164569754Y-50895062D01*
X164415665Y-50664452D01*
X164219548Y-50468335D01*
X163988938Y-50314246D01*
X163732699Y-50208108D01*
X163460676Y-50154000D01*
X163183324Y-50154000D01*
X162911301Y-50208108D01*
X162655062Y-50314246D01*
X162424452Y-50468335D01*
X162228335Y-50664452D01*
X162074246Y-50895062D01*
X161968108Y-51151301D01*
X161914000Y-51423324D01*
X154570000Y-51423324D01*
X154515892Y-51151301D01*
X154409754Y-50895062D01*
X154255665Y-50664452D01*
X154059548Y-50468335D01*
X153828938Y-50314246D01*
X153572699Y-50208108D01*
X153300676Y-50154000D01*
X153023324Y-50154000D01*
X152751301Y-50208108D01*
X152495062Y-50314246D01*
X152264452Y-50468335D01*
X152068335Y-50664452D01*
X151914246Y-50895062D01*
X151808108Y-51151301D01*
X151754000Y-51423324D01*
X101192000Y-51423324D01*
X101192000Y-44296000D01*
X102577340Y-44296000D01*
X104889086Y-46397588D01*
X105310000Y-46818502D01*
X105310000Y-47285116D01*
X105247999Y-47335999D01*
X105172021Y-47428579D01*
X105115564Y-47534203D01*
X105080798Y-47648811D01*
X105069059Y-47768000D01*
X105069059Y-49768000D01*
X105080798Y-49887189D01*
X105115564Y-50001797D01*
X105172021Y-50107421D01*
X105247999Y-50200001D01*
X105340579Y-50275979D01*
X105446203Y-50332436D01*
X105560811Y-50367202D01*
X105680000Y-50378941D01*
X107680000Y-50378941D01*
X107799189Y-50367202D01*
X107913797Y-50332436D01*
X108019421Y-50275979D01*
X108112001Y-50200001D01*
X108187979Y-50107421D01*
X108244436Y-50001797D01*
X108279202Y-49887189D01*
X108279516Y-49884000D01*
X108966000Y-49884000D01*
X108985509Y-49882079D01*
X109004268Y-49876388D01*
X109021557Y-49867147D01*
X109036711Y-49854711D01*
X109049147Y-49839557D01*
X109058388Y-49822268D01*
X109064079Y-49803509D01*
X109066000Y-49784000D01*
X109066000Y-48609626D01*
X110072000Y-48609626D01*
X110072000Y-48926374D01*
X110133795Y-49237036D01*
X110255009Y-49529673D01*
X110430985Y-49793040D01*
X110654960Y-50017015D01*
X110918327Y-50192991D01*
X111210964Y-50314205D01*
X111521626Y-50376000D01*
X111838374Y-50376000D01*
X112149036Y-50314205D01*
X112441673Y-50192991D01*
X112705040Y-50017015D01*
X112929015Y-49793040D01*
X113104991Y-49529673D01*
X113226205Y-49237036D01*
X113288000Y-48926374D01*
X113288000Y-48609626D01*
X113226205Y-48298964D01*
X113104991Y-48006327D01*
X112929015Y-47742960D01*
X112705040Y-47518985D01*
X112458720Y-47354399D01*
X129352000Y-47354399D01*
X129352000Y-47641601D01*
X129408030Y-47923283D01*
X129517937Y-48188622D01*
X129677497Y-48427421D01*
X129880579Y-48630503D01*
X130119378Y-48790063D01*
X130384717Y-48899970D01*
X130666399Y-48956000D01*
X130953601Y-48956000D01*
X131235283Y-48899970D01*
X131500622Y-48790063D01*
X131739421Y-48630503D01*
X131942503Y-48427421D01*
X132102063Y-48188622D01*
X132195854Y-47962191D01*
X132239490Y-48071834D01*
X132372778Y-48277458D01*
X132543620Y-48453127D01*
X132745450Y-48592091D01*
X132970513Y-48689010D01*
X133003843Y-48699114D01*
X133196000Y-48637642D01*
X133196000Y-47652000D01*
X133176000Y-47652000D01*
X133176000Y-47344000D01*
X133196000Y-47344000D01*
X133196000Y-47324000D01*
X133504000Y-47324000D01*
X133504000Y-47344000D01*
X133524000Y-47344000D01*
X133524000Y-47652000D01*
X133504000Y-47652000D01*
X133504000Y-48637642D01*
X133696157Y-48699114D01*
X133729487Y-48689010D01*
X133954550Y-48592091D01*
X134156380Y-48453127D01*
X134327222Y-48277458D01*
X134460510Y-48071834D01*
X134504146Y-47962191D01*
X134597937Y-48188622D01*
X134757497Y-48427421D01*
X134960579Y-48630503D01*
X135199378Y-48790063D01*
X135464717Y-48899970D01*
X135746399Y-48956000D01*
X136033601Y-48956000D01*
X136315283Y-48899970D01*
X136580622Y-48790063D01*
X136819421Y-48630503D01*
X137022503Y-48427421D01*
X137160000Y-48221642D01*
X137297497Y-48427421D01*
X137500579Y-48630503D01*
X137739378Y-48790063D01*
X138004717Y-48899970D01*
X138286399Y-48956000D01*
X138573601Y-48956000D01*
X138855283Y-48899970D01*
X139120622Y-48790063D01*
X139359421Y-48630503D01*
X139562503Y-48427421D01*
X139700000Y-48221642D01*
X139837497Y-48427421D01*
X140040579Y-48630503D01*
X140279378Y-48790063D01*
X140544717Y-48899970D01*
X140826399Y-48956000D01*
X141113601Y-48956000D01*
X141395283Y-48899970D01*
X141660622Y-48790063D01*
X141899421Y-48630503D01*
X142102503Y-48427421D01*
X142240000Y-48221642D01*
X142377497Y-48427421D01*
X142580579Y-48630503D01*
X142819378Y-48790063D01*
X143084717Y-48899970D01*
X143366399Y-48956000D01*
X143653601Y-48956000D01*
X143935283Y-48899970D01*
X144200622Y-48790063D01*
X144439421Y-48630503D01*
X144642503Y-48427421D01*
X144780000Y-48221642D01*
X144917497Y-48427421D01*
X145120579Y-48630503D01*
X145359378Y-48790063D01*
X145624717Y-48899970D01*
X145906399Y-48956000D01*
X146193601Y-48956000D01*
X146475283Y-48899970D01*
X146740622Y-48790063D01*
X146979421Y-48630503D01*
X147182503Y-48427421D01*
X147320000Y-48221642D01*
X147457497Y-48427421D01*
X147660579Y-48630503D01*
X147899378Y-48790063D01*
X148164717Y-48899970D01*
X148446399Y-48956000D01*
X148733601Y-48956000D01*
X149015283Y-48899970D01*
X149280622Y-48790063D01*
X149462223Y-48668721D01*
X149868000Y-48668721D01*
X149868000Y-48867279D01*
X149906737Y-49062023D01*
X149982722Y-49245467D01*
X150093035Y-49410562D01*
X150233438Y-49550965D01*
X150398533Y-49661278D01*
X150581977Y-49737263D01*
X150776721Y-49776000D01*
X150975279Y-49776000D01*
X151170023Y-49737263D01*
X151353467Y-49661278D01*
X151518562Y-49550965D01*
X151658965Y-49410562D01*
X151769278Y-49245467D01*
X151845263Y-49062023D01*
X151884000Y-48867279D01*
X151884000Y-48668721D01*
X151845263Y-48473977D01*
X151796241Y-48355626D01*
X165524000Y-48355626D01*
X165524000Y-48672374D01*
X165585795Y-48983036D01*
X165707009Y-49275673D01*
X165882985Y-49539040D01*
X166106960Y-49763015D01*
X166370327Y-49938991D01*
X166662964Y-50060205D01*
X166973626Y-50122000D01*
X167290374Y-50122000D01*
X167601036Y-50060205D01*
X167893673Y-49938991D01*
X168157040Y-49763015D01*
X168381015Y-49539040D01*
X168556991Y-49275673D01*
X168678205Y-48983036D01*
X168740000Y-48672374D01*
X168740000Y-48355626D01*
X168678205Y-48044964D01*
X168556991Y-47752327D01*
X168381015Y-47488960D01*
X168157040Y-47264985D01*
X167893673Y-47089009D01*
X167601036Y-46967795D01*
X167290374Y-46906000D01*
X166973626Y-46906000D01*
X166662964Y-46967795D01*
X166370327Y-47089009D01*
X166106960Y-47264985D01*
X165882985Y-47488960D01*
X165707009Y-47752327D01*
X165585795Y-48044964D01*
X165524000Y-48355626D01*
X151796241Y-48355626D01*
X151769278Y-48290533D01*
X151658965Y-48125438D01*
X151518562Y-47985035D01*
X151353467Y-47874722D01*
X151170023Y-47798737D01*
X150975279Y-47760000D01*
X150776721Y-47760000D01*
X150581977Y-47798737D01*
X150398533Y-47874722D01*
X150233438Y-47985035D01*
X150093035Y-48125438D01*
X149982722Y-48290533D01*
X149906737Y-48473977D01*
X149868000Y-48668721D01*
X149462223Y-48668721D01*
X149519421Y-48630503D01*
X149722503Y-48427421D01*
X149882063Y-48188622D01*
X149991970Y-47923283D01*
X150048000Y-47641601D01*
X150048000Y-47354399D01*
X149991970Y-47072717D01*
X149882063Y-46807378D01*
X149722503Y-46568579D01*
X149560675Y-46406751D01*
X149673797Y-46372436D01*
X149779421Y-46315979D01*
X149872001Y-46240001D01*
X149947979Y-46147421D01*
X150004436Y-46041797D01*
X150039202Y-45927189D01*
X150050941Y-45808000D01*
X150050941Y-44585022D01*
X154272000Y-44585022D01*
X154272000Y-44822978D01*
X154318423Y-45056361D01*
X154409484Y-45276203D01*
X154541685Y-45474055D01*
X154709945Y-45642315D01*
X154907797Y-45774516D01*
X155127639Y-45865577D01*
X155361022Y-45912000D01*
X155598978Y-45912000D01*
X155832361Y-45865577D01*
X156052203Y-45774516D01*
X156250055Y-45642315D01*
X156329152Y-45563218D01*
X156372021Y-45643421D01*
X156447999Y-45736001D01*
X156540579Y-45811979D01*
X156646203Y-45868436D01*
X156760811Y-45903202D01*
X156880000Y-45914941D01*
X158080000Y-45914941D01*
X158199189Y-45903202D01*
X158313797Y-45868436D01*
X158419421Y-45811979D01*
X158512001Y-45736001D01*
X158587979Y-45643421D01*
X158644436Y-45537797D01*
X158679202Y-45423189D01*
X158690941Y-45304000D01*
X158690941Y-44104000D01*
X158679202Y-43984811D01*
X158644436Y-43870203D01*
X158636645Y-43855626D01*
X165524000Y-43855626D01*
X165524000Y-44172374D01*
X165585795Y-44483036D01*
X165707009Y-44775673D01*
X165882985Y-45039040D01*
X166106960Y-45263015D01*
X166370327Y-45438991D01*
X166662964Y-45560205D01*
X166973626Y-45622000D01*
X167290374Y-45622000D01*
X167601036Y-45560205D01*
X167893673Y-45438991D01*
X168157040Y-45263015D01*
X168381015Y-45039040D01*
X168556991Y-44775673D01*
X168678205Y-44483036D01*
X168740000Y-44172374D01*
X168740000Y-43855626D01*
X168678205Y-43544964D01*
X168556991Y-43252327D01*
X168381015Y-42988960D01*
X168157040Y-42764985D01*
X167893673Y-42589009D01*
X167601036Y-42467795D01*
X167290374Y-42406000D01*
X166973626Y-42406000D01*
X166662964Y-42467795D01*
X166370327Y-42589009D01*
X166106960Y-42764985D01*
X165882985Y-42988960D01*
X165707009Y-43252327D01*
X165585795Y-43544964D01*
X165524000Y-43855626D01*
X158636645Y-43855626D01*
X158587979Y-43764579D01*
X158512001Y-43671999D01*
X158419421Y-43596021D01*
X158313797Y-43539564D01*
X158199189Y-43504798D01*
X158080000Y-43493059D01*
X156880000Y-43493059D01*
X156760811Y-43504798D01*
X156646203Y-43539564D01*
X156540579Y-43596021D01*
X156447999Y-43671999D01*
X156372021Y-43764579D01*
X156329152Y-43844782D01*
X156250055Y-43765685D01*
X156052203Y-43633484D01*
X155832361Y-43542423D01*
X155598978Y-43496000D01*
X155361022Y-43496000D01*
X155127639Y-43542423D01*
X154907797Y-43633484D01*
X154709945Y-43765685D01*
X154541685Y-43933945D01*
X154409484Y-44131797D01*
X154318423Y-44351639D01*
X154272000Y-44585022D01*
X150050941Y-44585022D01*
X150050941Y-44108000D01*
X150039202Y-43988811D01*
X150004436Y-43874203D01*
X149947979Y-43768579D01*
X149872001Y-43675999D01*
X149779421Y-43600021D01*
X149673797Y-43543564D01*
X149559189Y-43508798D01*
X149440000Y-43497059D01*
X147740000Y-43497059D01*
X147620811Y-43508798D01*
X147506203Y-43543564D01*
X147400579Y-43600021D01*
X147307999Y-43675999D01*
X147232021Y-43768579D01*
X147175564Y-43874203D01*
X147141249Y-43987325D01*
X146979421Y-43825497D01*
X146740622Y-43665937D01*
X146475283Y-43556030D01*
X146193601Y-43500000D01*
X145906399Y-43500000D01*
X145624717Y-43556030D01*
X145359378Y-43665937D01*
X145120579Y-43825497D01*
X144917497Y-44028579D01*
X144780000Y-44234358D01*
X144642503Y-44028579D01*
X144439421Y-43825497D01*
X144200622Y-43665937D01*
X143935283Y-43556030D01*
X143653601Y-43500000D01*
X143366399Y-43500000D01*
X143084717Y-43556030D01*
X142819378Y-43665937D01*
X142580579Y-43825497D01*
X142377497Y-44028579D01*
X142240000Y-44234358D01*
X142102503Y-44028579D01*
X141899421Y-43825497D01*
X141660622Y-43665937D01*
X141395283Y-43556030D01*
X141113601Y-43500000D01*
X140826399Y-43500000D01*
X140544717Y-43556030D01*
X140279378Y-43665937D01*
X140040579Y-43825497D01*
X139837497Y-44028579D01*
X139700000Y-44234358D01*
X139562503Y-44028579D01*
X139359421Y-43825497D01*
X139120622Y-43665937D01*
X138855283Y-43556030D01*
X138573601Y-43500000D01*
X138286399Y-43500000D01*
X138004717Y-43556030D01*
X137739378Y-43665937D01*
X137500579Y-43825497D01*
X137297497Y-44028579D01*
X137160000Y-44234358D01*
X137022503Y-44028579D01*
X136819421Y-43825497D01*
X136580622Y-43665937D01*
X136315283Y-43556030D01*
X136033601Y-43500000D01*
X135746399Y-43500000D01*
X135464717Y-43556030D01*
X135199378Y-43665937D01*
X134960579Y-43825497D01*
X134757497Y-44028579D01*
X134620000Y-44234358D01*
X134482503Y-44028579D01*
X134279421Y-43825497D01*
X134040622Y-43665937D01*
X133775283Y-43556030D01*
X133493601Y-43500000D01*
X133206399Y-43500000D01*
X132924717Y-43556030D01*
X132659378Y-43665937D01*
X132420579Y-43825497D01*
X132217497Y-44028579D01*
X132057937Y-44267378D01*
X131964146Y-44493809D01*
X131920510Y-44384166D01*
X131787222Y-44178542D01*
X131616380Y-44002873D01*
X131414550Y-43863909D01*
X131189487Y-43766990D01*
X131156157Y-43756886D01*
X130964000Y-43818358D01*
X130964000Y-44804000D01*
X130984000Y-44804000D01*
X130984000Y-45112000D01*
X130964000Y-45112000D01*
X130964000Y-45132000D01*
X130656000Y-45132000D01*
X130656000Y-45112000D01*
X129669516Y-45112000D01*
X129608879Y-45304158D01*
X129699490Y-45531834D01*
X129832778Y-45737458D01*
X130003620Y-45913127D01*
X130205450Y-46052091D01*
X130345350Y-46112336D01*
X130119378Y-46205937D01*
X129880579Y-46365497D01*
X129677497Y-46568579D01*
X129517937Y-46807378D01*
X129408030Y-47072717D01*
X129352000Y-47354399D01*
X112458720Y-47354399D01*
X112441673Y-47343009D01*
X112149036Y-47221795D01*
X111838374Y-47160000D01*
X111521626Y-47160000D01*
X111210964Y-47221795D01*
X110918327Y-47343009D01*
X110654960Y-47518985D01*
X110430985Y-47742960D01*
X110255009Y-48006327D01*
X110133795Y-48298964D01*
X110072000Y-48609626D01*
X109066000Y-48609626D01*
X109066000Y-44611842D01*
X129608879Y-44611842D01*
X129669516Y-44804000D01*
X130656000Y-44804000D01*
X130656000Y-43818358D01*
X130463843Y-43756886D01*
X130430513Y-43766990D01*
X130205450Y-43863909D01*
X130003620Y-44002873D01*
X129832778Y-44178542D01*
X129699490Y-44384166D01*
X129608879Y-44611842D01*
X109066000Y-44611842D01*
X109066000Y-41502000D01*
X144357389Y-41502000D01*
X144302533Y-41524722D01*
G37*
X144302533Y-41524722D02*
X144137438Y-41635035D01*
X143997035Y-41775438D01*
X143886722Y-41940533D01*
X143810737Y-42123977D01*
X143772000Y-42318721D01*
X143772000Y-42517279D01*
X143810737Y-42712023D01*
X143886722Y-42895467D01*
X143997035Y-43060562D01*
X144137438Y-43200965D01*
X144302533Y-43311278D01*
X144485977Y-43387263D01*
X144680721Y-43426000D01*
X144879279Y-43426000D01*
X145074023Y-43387263D01*
X145257467Y-43311278D01*
X145422562Y-43200965D01*
X145562965Y-43060562D01*
X145673278Y-42895467D01*
X145749263Y-42712023D01*
X145788000Y-42517279D01*
X145788000Y-42318721D01*
X145749263Y-42123977D01*
X145673278Y-41940533D01*
X145562965Y-41775438D01*
X145422562Y-41635035D01*
X145257467Y-41524722D01*
X145202611Y-41502000D01*
X174906000Y-41502000D01*
X174906000Y-43026353D01*
X174881015Y-42988960D01*
X174657040Y-42764985D01*
X174393673Y-42589009D01*
X174101036Y-42467795D01*
X173790374Y-42406000D01*
X173473626Y-42406000D01*
X173162964Y-42467795D01*
X172870327Y-42589009D01*
X172606960Y-42764985D01*
X172382985Y-42988960D01*
X172207009Y-43252327D01*
X172085795Y-43544964D01*
X172024000Y-43855626D01*
X172024000Y-44172374D01*
X172085795Y-44483036D01*
X172207009Y-44775673D01*
X172382985Y-45039040D01*
X172606960Y-45263015D01*
X172870327Y-45438991D01*
X173162964Y-45560205D01*
X173473626Y-45622000D01*
X173790374Y-45622000D01*
X174101036Y-45560205D01*
X174393673Y-45438991D01*
X174657040Y-45263015D01*
X174881015Y-45039040D01*
X174906000Y-45001647D01*
X174906000Y-47526353D01*
X174881015Y-47488960D01*
X174657040Y-47264985D01*
X174393673Y-47089009D01*
X174101036Y-46967795D01*
X173790374Y-46906000D01*
X173473626Y-46906000D01*
X173162964Y-46967795D01*
X172870327Y-47089009D01*
X172606960Y-47264985D01*
X172382985Y-47488960D01*
X172207009Y-47752327D01*
X172085795Y-48044964D01*
X172024000Y-48355626D01*
X172024000Y-48672374D01*
X172085795Y-48983036D01*
X172207009Y-49275673D01*
X172382985Y-49539040D01*
X172606960Y-49763015D01*
X172870327Y-49938991D01*
X173162964Y-50060205D01*
X173473626Y-50122000D01*
X173790374Y-50122000D01*
X174101036Y-50060205D01*
X174393673Y-49938991D01*
X174657040Y-49763015D01*
X174881015Y-49539040D01*
X174906000Y-49501647D01*
X174906000Y-57304000D01*
X155702000Y-57304000D01*
X155682491Y-57305921D01*
X155663732Y-57311612D01*
X155646443Y-57320853D01*
X155631289Y-57333289D01*
X155618853Y-57348443D01*
X155609612Y-57365732D01*
X155603921Y-57384491D01*
X155602000Y-57404000D01*
X155602000Y-85344000D01*
X155603921Y-85363509D01*
X155609612Y-85382268D01*
X155618853Y-85399557D01*
X155631289Y-85414711D01*
X155646443Y-85427147D01*
X155663732Y-85436388D01*
X155682491Y-85442079D01*
X155702000Y-85444000D01*
X156110000Y-85444000D01*
X156110000Y-88546000D01*
X155516589Y-88546000D01*
X155536000Y-88348919D01*
X155536000Y-88348917D01*
X155542570Y-88282213D01*
X155536000Y-88215510D01*
X155536000Y-87729932D01*
X155602991Y-87629673D01*
X155724205Y-87337036D01*
X155786000Y-87026374D01*
X155786000Y-86709626D01*
X155724205Y-86398964D01*
X155602991Y-86106327D01*
X155427015Y-85842960D01*
X155203040Y-85618985D01*
X154939673Y-85443009D01*
X154647036Y-85321795D01*
X154336374Y-85260000D01*
X154019626Y-85260000D01*
X153708964Y-85321795D01*
X153416327Y-85443009D01*
X153152960Y-85618985D01*
X152928985Y-85842960D01*
X152837075Y-85980513D01*
X152772598Y-85859886D01*
X152602896Y-85653103D01*
X152396113Y-85483402D01*
X152160197Y-85357302D01*
X151904213Y-85279650D01*
X151638000Y-85253430D01*
X151371786Y-85279650D01*
X151115802Y-85357302D01*
X150879886Y-85483402D01*
X150673103Y-85653104D01*
X150503402Y-85859887D01*
X150377302Y-86095803D01*
X150368000Y-86126467D01*
X150358698Y-86095802D01*
X150232598Y-85859886D01*
X150062896Y-85653103D01*
X149856113Y-85483402D01*
X149620197Y-85357302D01*
X149364213Y-85279650D01*
X149098000Y-85253430D01*
X148831786Y-85279650D01*
X148575802Y-85357302D01*
X148339886Y-85483402D01*
X148133103Y-85653104D01*
X147963402Y-85859887D01*
X147837302Y-86095803D01*
X147828000Y-86126467D01*
X147818698Y-86095802D01*
X147692598Y-85859886D01*
X147522896Y-85653103D01*
X147316113Y-85483402D01*
X147080197Y-85357302D01*
X146824213Y-85279650D01*
X146558000Y-85253430D01*
X146291786Y-85279650D01*
X146035802Y-85357302D01*
X145799886Y-85483402D01*
X145593103Y-85653104D01*
X145423402Y-85859887D01*
X145297302Y-86095803D01*
X145288000Y-86126467D01*
X145278698Y-86095802D01*
X145152598Y-85859886D01*
X144982896Y-85653103D01*
X144776113Y-85483402D01*
X144540197Y-85357302D01*
X144284213Y-85279650D01*
X144018000Y-85253430D01*
X143751786Y-85279650D01*
X143495802Y-85357302D01*
X143259886Y-85483402D01*
X143053103Y-85653104D01*
X142883402Y-85859887D01*
X142818925Y-85980514D01*
X142727015Y-85842960D01*
X142503040Y-85618985D01*
X142239673Y-85443009D01*
X141947036Y-85321795D01*
X141636374Y-85260000D01*
X141319626Y-85260000D01*
X141008964Y-85321795D01*
X140716327Y-85443009D01*
X140452960Y-85618985D01*
X140228985Y-85842960D01*
X140137075Y-85980513D01*
X140072598Y-85859886D01*
X139902896Y-85653103D01*
X139696113Y-85483402D01*
X139460197Y-85357302D01*
X139204213Y-85279650D01*
X138938000Y-85253430D01*
X138671786Y-85279650D01*
X138415802Y-85357302D01*
X138179886Y-85483402D01*
X137973103Y-85653104D01*
X137803402Y-85859887D01*
X137677302Y-86095803D01*
X137668000Y-86126467D01*
X137658698Y-86095802D01*
X137532598Y-85859886D01*
X137362896Y-85653103D01*
X137156113Y-85483402D01*
X136920197Y-85357302D01*
X136664213Y-85279650D01*
X136398000Y-85253430D01*
X136131786Y-85279650D01*
X135875802Y-85357302D01*
X135639886Y-85483402D01*
X135433103Y-85653104D01*
X135263402Y-85859887D01*
X135137302Y-86095803D01*
X135128000Y-86126467D01*
X135118698Y-86095802D01*
X134992598Y-85859886D01*
X134822896Y-85653103D01*
X134616113Y-85483402D01*
X134380197Y-85357302D01*
X134124213Y-85279650D01*
X133858000Y-85253430D01*
X133591786Y-85279650D01*
X133335802Y-85357302D01*
X133099886Y-85483402D01*
X132893103Y-85653104D01*
X132723402Y-85859887D01*
X132597302Y-86095803D01*
X132588000Y-86126467D01*
X132578698Y-86095802D01*
X132452598Y-85859886D01*
X132282896Y-85653103D01*
X132076113Y-85483402D01*
X131840197Y-85357302D01*
X131584213Y-85279650D01*
X131318000Y-85253430D01*
X131051786Y-85279650D01*
X130795802Y-85357302D01*
X130559886Y-85483402D01*
X130353103Y-85653104D01*
X130183402Y-85859887D01*
X130057302Y-86095803D01*
X130048000Y-86126467D01*
X130038698Y-86095802D01*
X129912598Y-85859886D01*
X129742896Y-85653103D01*
X129536113Y-85483402D01*
X129300197Y-85357302D01*
X129044213Y-85279650D01*
X128778000Y-85253430D01*
X128511786Y-85279650D01*
X128255802Y-85357302D01*
X128019886Y-85483402D01*
X127813103Y-85653104D01*
X127643402Y-85859887D01*
X127517302Y-86095803D01*
X127508000Y-86126467D01*
X127498698Y-86095802D01*
X127372598Y-85859886D01*
X127202896Y-85653103D01*
X126996113Y-85483402D01*
X126760197Y-85357302D01*
X126504213Y-85279650D01*
X126238000Y-85253430D01*
X125971786Y-85279650D01*
X125715802Y-85357302D01*
X125479886Y-85483402D01*
X125273103Y-85653104D01*
X125103402Y-85859887D01*
X124977302Y-86095803D01*
X124968000Y-86126467D01*
X124958698Y-86095802D01*
X124832598Y-85859886D01*
X124662896Y-85653103D01*
X124456113Y-85483402D01*
X124220197Y-85357302D01*
X123964213Y-85279650D01*
X123698000Y-85253430D01*
X123431786Y-85279650D01*
X123175802Y-85357302D01*
X122939886Y-85483402D01*
X122733103Y-85653104D01*
X122563402Y-85859887D01*
X122437302Y-86095803D01*
X122428000Y-86126467D01*
X122418698Y-86095802D01*
X122292598Y-85859886D01*
X122122896Y-85653103D01*
X121916113Y-85483402D01*
X121680197Y-85357302D01*
X121424213Y-85279650D01*
X121158000Y-85253430D01*
X120891786Y-85279650D01*
X120635802Y-85357302D01*
X120399886Y-85483402D01*
X120193103Y-85653104D01*
X120023402Y-85859887D01*
X119897302Y-86095803D01*
X119888000Y-86126467D01*
X119878698Y-86095802D01*
X119752598Y-85859886D01*
X119582896Y-85653103D01*
X119376113Y-85483402D01*
X119140197Y-85357302D01*
X118884213Y-85279650D01*
X118618000Y-85253430D01*
X118351786Y-85279650D01*
X118095802Y-85357302D01*
X117859886Y-85483402D01*
X117653103Y-85653104D01*
X117483402Y-85859887D01*
X117357302Y-86095803D01*
X117348000Y-86126467D01*
X117338698Y-86095802D01*
X117212598Y-85859886D01*
X117042896Y-85653103D01*
X116836113Y-85483402D01*
X116600197Y-85357302D01*
X116344213Y-85279650D01*
X116078000Y-85253430D01*
X115811786Y-85279650D01*
X115555802Y-85357302D01*
X115319886Y-85483402D01*
X115113103Y-85653104D01*
X114943402Y-85859887D01*
X114817302Y-86095803D01*
X114808000Y-86126467D01*
X114798698Y-86095802D01*
X114672598Y-85859886D01*
X114502896Y-85653103D01*
X114296113Y-85483402D01*
X114060197Y-85357302D01*
X113804213Y-85279650D01*
X113538000Y-85253430D01*
X113271786Y-85279650D01*
X113015802Y-85357302D01*
X112779886Y-85483402D01*
X112573103Y-85653104D01*
X112403402Y-85859887D01*
X112277302Y-86095803D01*
X112268000Y-86126467D01*
X112258698Y-86095802D01*
X112132598Y-85859886D01*
X111962896Y-85653103D01*
X111756113Y-85483402D01*
X111520197Y-85357302D01*
X111264213Y-85279650D01*
X110998000Y-85253430D01*
X110731786Y-85279650D01*
X110475802Y-85357302D01*
X110239886Y-85483402D01*
X110033103Y-85653104D01*
X109863402Y-85859887D01*
X109737302Y-86095803D01*
X109701987Y-86212220D01*
X109679782Y-86170677D01*
X109484484Y-86059305D01*
X108675789Y-86868000D01*
X109484484Y-87676695D01*
X109679782Y-87565323D01*
X109700520Y-87518943D01*
X109737302Y-87640198D01*
X109863402Y-87876114D01*
X110033104Y-88082897D01*
X110239887Y-88252598D01*
X110475803Y-88378698D01*
X110731787Y-88456350D01*
X110998000Y-88482570D01*
X111264214Y-88456350D01*
X111520198Y-88378698D01*
X111756114Y-88252598D01*
X111962897Y-88082897D01*
X112132598Y-87876114D01*
X112258698Y-87640197D01*
X112268000Y-87609533D01*
X112277302Y-87640198D01*
X112403402Y-87876114D01*
X112573104Y-88082897D01*
X112779887Y-88252598D01*
X113015803Y-88378698D01*
X113271787Y-88456350D01*
X113538000Y-88482570D01*
X113804214Y-88456350D01*
X114060198Y-88378698D01*
X114296114Y-88252598D01*
X114502897Y-88082897D01*
X114672598Y-87876114D01*
X114798698Y-87640197D01*
X114808000Y-87609533D01*
X114817302Y-87640198D01*
X114943402Y-87876114D01*
X115113104Y-88082897D01*
X115319887Y-88252598D01*
X115555803Y-88378698D01*
X115811787Y-88456350D01*
X116078000Y-88482570D01*
X116344214Y-88456350D01*
X116600198Y-88378698D01*
X116836114Y-88252598D01*
X117042897Y-88082897D01*
X117212598Y-87876114D01*
X117338698Y-87640197D01*
X117348000Y-87609533D01*
X117357302Y-87640198D01*
X117483402Y-87876114D01*
X117653104Y-88082897D01*
X117859887Y-88252598D01*
X118095803Y-88378698D01*
X118351787Y-88456350D01*
X118618000Y-88482570D01*
X118884214Y-88456350D01*
X119140198Y-88378698D01*
X119376114Y-88252598D01*
X119582897Y-88082897D01*
X119752598Y-87876114D01*
X119878698Y-87640197D01*
X119888000Y-87609533D01*
X119897302Y-87640198D01*
X120023402Y-87876114D01*
X120193104Y-88082897D01*
X120399887Y-88252598D01*
X120635803Y-88378698D01*
X120891787Y-88456350D01*
X121158000Y-88482570D01*
X121424214Y-88456350D01*
X121680198Y-88378698D01*
X121916114Y-88252598D01*
X122122897Y-88082897D01*
X122292598Y-87876114D01*
X122418698Y-87640197D01*
X122428000Y-87609533D01*
X122437302Y-87640198D01*
X122563402Y-87876114D01*
X122733104Y-88082897D01*
X122939887Y-88252598D01*
X123175803Y-88378698D01*
X123431787Y-88456350D01*
X123698000Y-88482570D01*
X123964214Y-88456350D01*
X124220198Y-88378698D01*
X124456114Y-88252598D01*
X124662897Y-88082897D01*
X124832598Y-87876114D01*
X124958698Y-87640197D01*
X124968000Y-87609533D01*
X124977302Y-87640198D01*
X125103402Y-87876114D01*
X125273104Y-88082897D01*
X125479887Y-88252598D01*
X125715803Y-88378698D01*
X125971787Y-88456350D01*
X126238000Y-88482570D01*
X126504214Y-88456350D01*
X126760198Y-88378698D01*
X126996114Y-88252598D01*
X127202897Y-88082897D01*
X127372598Y-87876114D01*
X127498698Y-87640197D01*
X127508000Y-87609533D01*
X127517302Y-87640198D01*
X127643402Y-87876114D01*
X127813104Y-88082897D01*
X128019887Y-88252598D01*
X128255803Y-88378698D01*
X128511787Y-88456350D01*
X128778000Y-88482570D01*
X129044214Y-88456350D01*
X129300198Y-88378698D01*
X129536114Y-88252598D01*
X129742897Y-88082897D01*
X129912598Y-87876114D01*
X130038698Y-87640197D01*
X130048000Y-87609533D01*
X130057302Y-87640198D01*
X130183402Y-87876114D01*
X130353104Y-88082897D01*
X130559887Y-88252598D01*
X130795803Y-88378698D01*
X131051787Y-88456350D01*
X131318000Y-88482570D01*
X131584214Y-88456350D01*
X131840198Y-88378698D01*
X132076114Y-88252598D01*
X132282897Y-88082897D01*
X132452598Y-87876114D01*
X132578698Y-87640197D01*
X132588000Y-87609533D01*
X132597302Y-87640198D01*
X132723402Y-87876114D01*
X132893104Y-88082897D01*
X133099887Y-88252598D01*
X133335803Y-88378698D01*
X133591787Y-88456350D01*
X133858000Y-88482570D01*
X134124214Y-88456350D01*
X134380198Y-88378698D01*
X134616114Y-88252598D01*
X134822897Y-88082897D01*
X134992598Y-87876114D01*
X135118698Y-87640197D01*
X135128000Y-87609533D01*
X135137302Y-87640198D01*
X135263402Y-87876114D01*
X135433104Y-88082897D01*
X135639887Y-88252598D01*
X135875803Y-88378698D01*
X136131787Y-88456350D01*
X136398000Y-88482570D01*
X136664214Y-88456350D01*
X136920198Y-88378698D01*
X137156114Y-88252598D01*
X137362897Y-88082897D01*
X137532598Y-87876114D01*
X137658698Y-87640197D01*
X137668000Y-87609533D01*
X137677302Y-87640198D01*
X137803402Y-87876114D01*
X137973104Y-88082897D01*
X138179887Y-88252598D01*
X138415803Y-88378698D01*
X138671787Y-88456350D01*
X138938000Y-88482570D01*
X139204214Y-88456350D01*
X139460198Y-88378698D01*
X139696114Y-88252598D01*
X139902897Y-88082897D01*
X140072598Y-87876114D01*
X140137075Y-87755486D01*
X140228985Y-87893040D01*
X140452960Y-88117015D01*
X140716327Y-88292991D01*
X141008964Y-88414205D01*
X141319626Y-88476000D01*
X141636374Y-88476000D01*
X141947036Y-88414205D01*
X142239673Y-88292991D01*
X142503040Y-88117015D01*
X142727015Y-87893040D01*
X142818925Y-87755487D01*
X142883402Y-87876114D01*
X143053104Y-88082897D01*
X143259887Y-88252598D01*
X143495803Y-88378698D01*
X143751787Y-88456350D01*
X144018000Y-88482570D01*
X144284214Y-88456350D01*
X144540198Y-88378698D01*
X144776114Y-88252598D01*
X144982897Y-88082897D01*
X145152598Y-87876114D01*
X145278698Y-87640197D01*
X145288000Y-87609533D01*
X145297302Y-87640198D01*
X145423402Y-87876114D01*
X145593104Y-88082897D01*
X145799887Y-88252598D01*
X146035803Y-88378698D01*
X146291787Y-88456350D01*
X146558000Y-88482570D01*
X146824214Y-88456350D01*
X147080198Y-88378698D01*
X147316114Y-88252598D01*
X147522897Y-88082897D01*
X147692598Y-87876114D01*
X147818698Y-87640197D01*
X147828000Y-87609533D01*
X147837302Y-87640198D01*
X147963402Y-87876114D01*
X148133104Y-88082897D01*
X148339887Y-88252598D01*
X148575803Y-88378698D01*
X148831787Y-88456350D01*
X149098000Y-88482570D01*
X149364214Y-88456350D01*
X149620198Y-88378698D01*
X149856114Y-88252598D01*
X150062897Y-88082897D01*
X150232598Y-87876114D01*
X150358698Y-87640197D01*
X150368000Y-87609533D01*
X150377302Y-87640198D01*
X150503402Y-87876114D01*
X150673104Y-88082897D01*
X150879887Y-88252598D01*
X151115803Y-88378698D01*
X151371787Y-88456350D01*
X151638000Y-88482570D01*
X151904214Y-88456350D01*
X152160198Y-88378698D01*
X152161950Y-88377761D01*
X151993712Y-88546000D01*
X101192000Y-88546000D01*
X101192000Y-86551295D01*
X104560000Y-86551295D01*
X104560000Y-87184706D01*
X104579650Y-87384214D01*
X104657302Y-87640198D01*
X104783402Y-87876114D01*
X104953104Y-88082897D01*
X105159887Y-88252598D01*
X105395803Y-88378698D01*
X105651787Y-88456350D01*
X105918000Y-88482570D01*
X106184214Y-88456350D01*
X106440198Y-88378698D01*
X106676114Y-88252598D01*
X106882897Y-88082897D01*
X107037522Y-87894484D01*
X107649305Y-87894484D01*
X107760677Y-88089782D01*
X108012434Y-88202347D01*
X108281314Y-88263634D01*
X108556983Y-88271287D01*
X108828849Y-88225012D01*
X109086463Y-88126589D01*
X109155323Y-88089782D01*
X109266695Y-87894484D01*
X108458000Y-87085789D01*
X107649305Y-87894484D01*
X107037522Y-87894484D01*
X107052598Y-87876114D01*
X107178698Y-87640197D01*
X107214013Y-87523780D01*
X107236218Y-87565323D01*
X107431516Y-87676695D01*
X108240211Y-86868000D01*
X107431516Y-86059305D01*
X107236218Y-86170677D01*
X107215480Y-86217057D01*
X107178698Y-86095802D01*
X107052598Y-85859886D01*
X107037523Y-85841516D01*
X107649305Y-85841516D01*
X108458000Y-86650211D01*
X109266695Y-85841516D01*
X109155323Y-85646218D01*
X108903566Y-85533653D01*
X108634686Y-85472366D01*
X108359017Y-85464713D01*
X108087151Y-85510988D01*
X107829537Y-85609411D01*
X107760677Y-85646218D01*
X107649305Y-85841516D01*
X107037523Y-85841516D01*
X106882896Y-85653103D01*
X106676113Y-85483402D01*
X106440197Y-85357302D01*
X106184213Y-85279650D01*
X105918000Y-85253430D01*
X105651786Y-85279650D01*
X105395802Y-85357302D01*
X105159886Y-85483402D01*
X104953103Y-85653104D01*
X104783402Y-85859887D01*
X104657302Y-86095803D01*
X104579650Y-86351787D01*
X104560000Y-86551295D01*
X101192000Y-86551295D01*
X101192000Y-78132721D01*
X113038000Y-78132721D01*
X113038000Y-78331279D01*
X113076737Y-78526023D01*
X113152722Y-78709467D01*
X113263035Y-78874562D01*
X113403438Y-79014965D01*
X113568533Y-79125278D01*
X113751977Y-79201263D01*
X113946721Y-79240000D01*
X114145279Y-79240000D01*
X114340023Y-79201263D01*
X114523467Y-79125278D01*
X114688562Y-79014965D01*
X114828965Y-78874562D01*
X114939278Y-78709467D01*
X115015263Y-78526023D01*
X115054000Y-78331279D01*
X115054000Y-78132721D01*
X115015263Y-77937977D01*
X114939278Y-77754533D01*
X114828965Y-77589438D01*
X114688562Y-77449035D01*
X114523467Y-77338722D01*
X114340023Y-77262737D01*
X114145279Y-77224000D01*
X113946721Y-77224000D01*
X113751977Y-77262737D01*
X113568533Y-77338722D01*
X113403438Y-77449035D01*
X113263035Y-77589438D01*
X113152722Y-77754533D01*
X113076737Y-77937977D01*
X113038000Y-78132721D01*
X101192000Y-78132721D01*
X101192000Y-74791324D01*
X112384000Y-74791324D01*
X112384000Y-75068676D01*
X112438108Y-75340699D01*
X112544246Y-75596938D01*
X112698335Y-75827548D01*
X112894452Y-76023665D01*
X113125062Y-76177754D01*
X113381301Y-76283892D01*
X113653324Y-76338000D01*
X113930676Y-76338000D01*
X114202699Y-76283892D01*
X114458938Y-76177754D01*
X114689548Y-76023665D01*
X114885665Y-75827548D01*
X115039754Y-75596938D01*
X115145892Y-75340699D01*
X115200000Y-75068676D01*
X115200000Y-74791324D01*
X115145892Y-74519301D01*
X115039754Y-74263062D01*
X114885665Y-74032452D01*
X114689548Y-73836335D01*
X114458938Y-73682246D01*
X114202699Y-73576108D01*
X113930676Y-73522000D01*
X113653324Y-73522000D01*
X113381301Y-73576108D01*
X113125062Y-73682246D01*
X112894452Y-73836335D01*
X112698335Y-74032452D01*
X112544246Y-74263062D01*
X112438108Y-74519301D01*
X112384000Y-74791324D01*
X101192000Y-74791324D01*
X101192000Y-69496733D01*
X119388000Y-69496733D01*
X119388000Y-69695291D01*
X119426737Y-69890035D01*
X119502722Y-70073479D01*
X119613035Y-70238574D01*
X119753438Y-70378977D01*
X119918533Y-70489290D01*
X120101977Y-70565275D01*
X120296721Y-70604012D01*
X120495279Y-70604012D01*
X120690023Y-70565275D01*
X120727597Y-70549711D01*
X128785996Y-70549711D01*
X128785996Y-70748269D01*
X128824733Y-70943013D01*
X128900718Y-71126457D01*
X129011031Y-71291552D01*
X129151434Y-71431955D01*
X129316529Y-71542268D01*
X129499973Y-71618253D01*
X129694717Y-71656990D01*
X129893275Y-71656990D01*
X130088019Y-71618253D01*
X130271463Y-71542268D01*
X130436558Y-71431955D01*
X130576961Y-71291552D01*
X130687274Y-71126457D01*
X130763259Y-70943013D01*
X130801996Y-70748269D01*
X130801996Y-70549711D01*
X130763259Y-70354967D01*
X130687274Y-70171523D01*
X130576961Y-70006428D01*
X130436558Y-69866025D01*
X130271463Y-69755712D01*
X130088019Y-69679727D01*
X129893275Y-69640990D01*
X129694717Y-69640990D01*
X129499973Y-69679727D01*
X129316529Y-69755712D01*
X129151434Y-69866025D01*
X129011031Y-70006428D01*
X128900718Y-70171523D01*
X128824733Y-70354967D01*
X128785996Y-70549711D01*
X120727597Y-70549711D01*
X120873467Y-70489290D01*
X121038562Y-70378977D01*
X121178965Y-70238574D01*
X121289278Y-70073479D01*
X121365263Y-69890035D01*
X121404000Y-69695291D01*
X121404000Y-69496733D01*
X121365263Y-69301989D01*
X121289278Y-69118545D01*
X121178965Y-68953450D01*
X121038562Y-68813047D01*
X120873467Y-68702734D01*
X120690023Y-68626749D01*
X120495279Y-68588012D01*
X120296721Y-68588012D01*
X120101977Y-68626749D01*
X119918533Y-68702734D01*
X119753438Y-68813047D01*
X119613035Y-68953450D01*
X119502722Y-69118545D01*
X119426737Y-69301989D01*
X119388000Y-69496733D01*
X101192000Y-69496733D01*
X101192000Y-68480721D01*
X122944000Y-68480721D01*
X122944000Y-68679279D01*
X122982737Y-68874023D01*
X123058722Y-69057467D01*
X123169035Y-69222562D01*
X123309438Y-69362965D01*
X123474533Y-69473278D01*
X123657977Y-69549263D01*
X123852721Y-69588000D01*
X124051279Y-69588000D01*
X124246023Y-69549263D01*
X124429467Y-69473278D01*
X124594562Y-69362965D01*
X124734965Y-69222562D01*
X124845278Y-69057467D01*
X124921263Y-68874023D01*
X124960000Y-68679279D01*
X124960000Y-68480721D01*
X124921263Y-68285977D01*
X124845278Y-68102533D01*
X124734965Y-67937438D01*
X124594562Y-67797035D01*
X124429467Y-67686722D01*
X124246023Y-67610737D01*
X124051279Y-67572000D01*
X123852721Y-67572000D01*
X123657977Y-67610737D01*
X123474533Y-67686722D01*
X123309438Y-67797035D01*
X123169035Y-67937438D01*
X123058722Y-68102533D01*
X122982737Y-68285977D01*
X122944000Y-68480721D01*
X101192000Y-68480721D01*
X101192000Y-64631324D01*
X112384000Y-64631324D01*
X112384000Y-64908676D01*
X112438108Y-65180699D01*
X112544246Y-65436938D01*
X112698335Y-65667548D01*
X112894452Y-65863665D01*
X113125062Y-66017754D01*
X113381301Y-66123892D01*
X113653324Y-66178000D01*
X113930676Y-66178000D01*
X114202699Y-66123892D01*
X114458938Y-66017754D01*
X114689548Y-65863665D01*
X114885665Y-65667548D01*
X115039754Y-65436938D01*
X115145892Y-65180699D01*
X115200000Y-64908676D01*
X115200000Y-64631324D01*
X115145892Y-64359301D01*
X115039754Y-64103062D01*
X114885665Y-63872452D01*
X114689548Y-63676335D01*
X114458938Y-63522246D01*
X114202699Y-63416108D01*
X113930676Y-63362000D01*
X113653324Y-63362000D01*
X113381301Y-63416108D01*
X113125062Y-63522246D01*
X112894452Y-63676335D01*
X112698335Y-63872452D01*
X112544246Y-64103062D01*
X112438108Y-64359301D01*
X112384000Y-64631324D01*
X101192000Y-64631324D01*
X101192000Y-58611295D01*
X104560000Y-58611295D01*
X104560000Y-59244706D01*
X104579650Y-59444214D01*
X104657302Y-59700198D01*
X104783402Y-59936114D01*
X104953104Y-60142897D01*
X105159887Y-60312598D01*
X105395803Y-60438698D01*
X105651787Y-60516350D01*
X105918000Y-60542570D01*
X106184214Y-60516350D01*
X106440198Y-60438698D01*
X106676114Y-60312598D01*
X106882897Y-60142897D01*
X107052598Y-59936114D01*
X107178698Y-59700197D01*
X107188000Y-59669533D01*
X107197302Y-59700198D01*
X107323402Y-59936114D01*
X107493104Y-60142897D01*
X107699887Y-60312598D01*
X107935803Y-60438698D01*
X108191787Y-60516350D01*
X108458000Y-60542570D01*
X108724214Y-60516350D01*
X108980198Y-60438698D01*
X109216114Y-60312598D01*
X109422897Y-60142897D01*
X109592598Y-59936114D01*
X109718698Y-59700197D01*
X109728000Y-59669533D01*
X109737302Y-59700198D01*
X109863402Y-59936114D01*
X110033104Y-60142897D01*
X110239887Y-60312598D01*
X110475803Y-60438698D01*
X110731787Y-60516350D01*
X110998000Y-60542570D01*
X111264214Y-60516350D01*
X111520198Y-60438698D01*
X111756114Y-60312598D01*
X111962897Y-60142897D01*
X112132598Y-59936114D01*
X112258698Y-59700197D01*
X112268000Y-59669533D01*
X112277302Y-59700198D01*
X112403402Y-59936114D01*
X112573104Y-60142897D01*
X112779887Y-60312598D01*
X113015803Y-60438698D01*
X113271787Y-60516350D01*
X113538000Y-60542570D01*
X113804214Y-60516350D01*
X114060198Y-60438698D01*
X114296114Y-60312598D01*
X114502897Y-60142897D01*
X114672598Y-59936114D01*
X114798698Y-59700197D01*
X114808000Y-59669533D01*
X114817302Y-59700198D01*
X114943402Y-59936114D01*
X115113104Y-60142897D01*
X115319887Y-60312598D01*
X115555803Y-60438698D01*
X115811787Y-60516350D01*
X116078000Y-60542570D01*
X116344214Y-60516350D01*
X116600198Y-60438698D01*
X116836114Y-60312598D01*
X117042897Y-60142897D01*
X117212598Y-59936114D01*
X117338698Y-59700197D01*
X117348000Y-59669533D01*
X117357302Y-59700198D01*
X117483402Y-59936114D01*
X117653104Y-60142897D01*
X117859887Y-60312598D01*
X118095803Y-60438698D01*
X118351787Y-60516350D01*
X118618000Y-60542570D01*
X118884214Y-60516350D01*
X119140198Y-60438698D01*
X119376114Y-60312598D01*
X119582897Y-60142897D01*
X119752598Y-59936114D01*
X119878698Y-59700197D01*
X119888000Y-59669533D01*
X119897302Y-59700198D01*
X120023402Y-59936114D01*
X120193104Y-60142897D01*
X120399887Y-60312598D01*
X120635803Y-60438698D01*
X120891787Y-60516350D01*
X121158000Y-60542570D01*
X121424214Y-60516350D01*
X121680198Y-60438698D01*
X121916114Y-60312598D01*
X122122897Y-60142897D01*
X122292598Y-59936114D01*
X122418698Y-59700197D01*
X122428000Y-59669533D01*
X122437302Y-59700198D01*
X122563402Y-59936114D01*
X122733104Y-60142897D01*
X122939887Y-60312598D01*
X123175803Y-60438698D01*
X123431787Y-60516350D01*
X123698000Y-60542570D01*
X123964214Y-60516350D01*
X124220198Y-60438698D01*
X124456114Y-60312598D01*
X124662897Y-60142897D01*
X124832598Y-59936114D01*
X124958698Y-59700197D01*
X124968000Y-59669533D01*
X124977302Y-59700198D01*
X125103402Y-59936114D01*
X125273104Y-60142897D01*
X125479887Y-60312598D01*
X125715803Y-60438698D01*
X125971787Y-60516350D01*
X126238000Y-60542570D01*
X126504214Y-60516350D01*
X126760198Y-60438698D01*
X126996114Y-60312598D01*
X127202897Y-60142897D01*
X127372598Y-59936114D01*
X127498698Y-59700197D01*
X127508000Y-59669533D01*
X127517302Y-59700198D01*
X127643402Y-59936114D01*
X127813104Y-60142897D01*
X128019887Y-60312598D01*
X128255803Y-60438698D01*
X128511787Y-60516350D01*
X128778000Y-60542570D01*
X129044214Y-60516350D01*
X129300198Y-60438698D01*
X129536114Y-60312598D01*
X129742897Y-60142897D01*
X129912598Y-59936114D01*
X130038698Y-59700197D01*
X130048000Y-59669533D01*
X130057302Y-59700198D01*
X130183402Y-59936114D01*
X130353104Y-60142897D01*
X130559887Y-60312598D01*
X130795803Y-60438698D01*
X131051787Y-60516350D01*
X131318000Y-60542570D01*
X131584214Y-60516350D01*
X131840198Y-60438698D01*
X132076114Y-60312598D01*
X132282897Y-60142897D01*
X132452598Y-59936114D01*
X132578698Y-59700197D01*
X132588000Y-59669533D01*
X132597302Y-59700198D01*
X132723402Y-59936114D01*
X132893104Y-60142897D01*
X133099887Y-60312598D01*
X133335803Y-60438698D01*
X133591787Y-60516350D01*
X133858000Y-60542570D01*
X134124214Y-60516350D01*
X134380198Y-60438698D01*
X134616114Y-60312598D01*
X134822897Y-60142897D01*
X134992598Y-59936114D01*
X135118698Y-59700197D01*
X135128000Y-59669533D01*
X135137302Y-59700198D01*
X135263402Y-59936114D01*
X135433104Y-60142897D01*
X135639887Y-60312598D01*
X135875803Y-60438698D01*
X136131787Y-60516350D01*
X136398000Y-60542570D01*
X136664214Y-60516350D01*
X136920198Y-60438698D01*
X137156114Y-60312598D01*
X137362897Y-60142897D01*
X137532598Y-59936114D01*
X137658698Y-59700197D01*
X137668000Y-59669533D01*
X137677302Y-59700198D01*
X137803402Y-59936114D01*
X137973104Y-60142897D01*
X138179887Y-60312598D01*
X138415803Y-60438698D01*
X138671787Y-60516350D01*
X138938000Y-60542570D01*
X139204214Y-60516350D01*
X139460198Y-60438698D01*
X139696114Y-60312598D01*
X139902897Y-60142897D01*
X140072598Y-59936114D01*
X140198698Y-59700197D01*
X140208000Y-59669533D01*
X140217302Y-59700198D01*
X140343402Y-59936114D01*
X140513104Y-60142897D01*
X140719887Y-60312598D01*
X140955803Y-60438698D01*
X141211787Y-60516350D01*
X141478000Y-60542570D01*
X141744214Y-60516350D01*
X142000198Y-60438698D01*
X142236114Y-60312598D01*
X142442897Y-60142897D01*
X142612598Y-59936114D01*
X142738698Y-59700197D01*
X142748000Y-59669533D01*
X142757302Y-59700198D01*
X142883402Y-59936114D01*
X143053104Y-60142897D01*
X143259887Y-60312598D01*
X143495803Y-60438698D01*
X143751787Y-60516350D01*
X144018000Y-60542570D01*
X144284214Y-60516350D01*
X144540198Y-60438698D01*
X144776114Y-60312598D01*
X144982897Y-60142897D01*
X145152598Y-59936114D01*
X145278698Y-59700197D01*
X145288000Y-59669533D01*
X145297302Y-59700198D01*
X145423402Y-59936114D01*
X145593104Y-60142897D01*
X145799887Y-60312598D01*
X146035803Y-60438698D01*
X146291787Y-60516350D01*
X146558000Y-60542570D01*
X146824214Y-60516350D01*
X147080198Y-60438698D01*
X147316114Y-60312598D01*
X147522897Y-60142897D01*
X147692598Y-59936114D01*
X147818698Y-59700197D01*
X147828000Y-59669533D01*
X147837302Y-59700198D01*
X147963402Y-59936114D01*
X148133104Y-60142897D01*
X148339887Y-60312598D01*
X148575803Y-60438698D01*
X148831787Y-60516350D01*
X149098000Y-60542570D01*
X149364214Y-60516350D01*
X149620198Y-60438698D01*
X149856114Y-60312598D01*
X150062897Y-60142897D01*
X150232598Y-59936114D01*
X150358698Y-59700197D01*
X150368000Y-59669533D01*
X150377302Y-59700198D01*
X150503402Y-59936114D01*
X150673104Y-60142897D01*
X150879887Y-60312598D01*
X151115803Y-60438698D01*
X151371787Y-60516350D01*
X151638000Y-60542570D01*
X151904214Y-60516350D01*
X152160198Y-60438698D01*
X152396114Y-60312598D01*
X152602897Y-60142897D01*
X152772598Y-59936114D01*
X152898698Y-59700197D01*
X152908000Y-59669533D01*
X152917302Y-59700198D01*
X153043402Y-59936114D01*
X153213104Y-60142897D01*
X153419887Y-60312598D01*
X153655803Y-60438698D01*
X153911787Y-60516350D01*
X154178000Y-60542570D01*
X154444214Y-60516350D01*
X154700198Y-60438698D01*
X154936114Y-60312598D01*
X155142897Y-60142897D01*
X155312598Y-59936114D01*
X155438698Y-59700197D01*
X155516350Y-59444213D01*
X155536000Y-59244705D01*
X155536000Y-58611294D01*
X155516350Y-58411786D01*
X155438698Y-58155802D01*
X155312598Y-57919886D01*
X155142896Y-57713103D01*
X154936113Y-57543402D01*
X154700197Y-57417302D01*
X154444213Y-57339650D01*
X154178000Y-57313430D01*
X153911786Y-57339650D01*
X153655802Y-57417302D01*
X153419886Y-57543402D01*
X153213103Y-57713104D01*
X153043402Y-57919887D01*
X152917302Y-58155803D01*
X152908000Y-58186467D01*
X152898698Y-58155802D01*
X152772598Y-57919886D01*
X152602896Y-57713103D01*
X152396113Y-57543402D01*
X152160197Y-57417302D01*
X151904213Y-57339650D01*
X151638000Y-57313430D01*
X151371786Y-57339650D01*
X151115802Y-57417302D01*
X150879886Y-57543402D01*
X150673103Y-57713104D01*
X150503402Y-57919887D01*
X150377302Y-58155803D01*
X150368000Y-58186467D01*
X150358698Y-58155802D01*
X150232598Y-57919886D01*
X150062896Y-57713103D01*
X149856113Y-57543402D01*
X149620197Y-57417302D01*
X149364213Y-57339650D01*
X149098000Y-57313430D01*
X148831786Y-57339650D01*
X148575802Y-57417302D01*
X148339886Y-57543402D01*
X148133103Y-57713104D01*
X147963402Y-57919887D01*
X147837302Y-58155803D01*
X147828000Y-58186467D01*
X147818698Y-58155802D01*
X147692598Y-57919886D01*
X147522896Y-57713103D01*
X147316113Y-57543402D01*
X147080197Y-57417302D01*
X146824213Y-57339650D01*
X146558000Y-57313430D01*
X146291786Y-57339650D01*
X146035802Y-57417302D01*
X145799886Y-57543402D01*
X145593103Y-57713104D01*
X145423402Y-57919887D01*
X145297302Y-58155803D01*
X145288000Y-58186467D01*
X145278698Y-58155802D01*
X145152598Y-57919886D01*
X144982896Y-57713103D01*
X144776113Y-57543402D01*
X144540197Y-57417302D01*
X144284213Y-57339650D01*
X144018000Y-57313430D01*
X143751786Y-57339650D01*
X143495802Y-57417302D01*
X143259886Y-57543402D01*
X143053103Y-57713104D01*
X142883402Y-57919887D01*
X142757302Y-58155803D01*
X142748000Y-58186467D01*
X142738698Y-58155802D01*
X142612598Y-57919886D01*
X142442896Y-57713103D01*
X142236113Y-57543402D01*
X142000197Y-57417302D01*
X141744213Y-57339650D01*
X141478000Y-57313430D01*
X141211786Y-57339650D01*
X140955802Y-57417302D01*
X140719886Y-57543402D01*
X140513103Y-57713104D01*
X140343402Y-57919887D01*
X140217302Y-58155803D01*
X140208000Y-58186467D01*
X140198698Y-58155802D01*
X140072598Y-57919886D01*
X139902896Y-57713103D01*
X139696113Y-57543402D01*
X139460197Y-57417302D01*
X139204213Y-57339650D01*
X138938000Y-57313430D01*
X138671786Y-57339650D01*
X138415802Y-57417302D01*
X138179886Y-57543402D01*
X137973103Y-57713104D01*
X137803402Y-57919887D01*
X137677302Y-58155803D01*
X137668000Y-58186467D01*
X137658698Y-58155802D01*
X137532598Y-57919886D01*
X137362896Y-57713103D01*
X137156113Y-57543402D01*
X136920197Y-57417302D01*
X136664213Y-57339650D01*
X136398000Y-57313430D01*
X136131786Y-57339650D01*
X135875802Y-57417302D01*
X135639886Y-57543402D01*
X135433103Y-57713104D01*
X135263402Y-57919887D01*
X135137302Y-58155803D01*
X135128000Y-58186467D01*
X135118698Y-58155802D01*
X134992598Y-57919886D01*
X134822896Y-57713103D01*
X134616113Y-57543402D01*
X134380197Y-57417302D01*
X134124213Y-57339650D01*
X133858000Y-57313430D01*
X133591786Y-57339650D01*
X133335802Y-57417302D01*
X133099886Y-57543402D01*
X132893103Y-57713104D01*
X132723402Y-57919887D01*
X132597302Y-58155803D01*
X132588000Y-58186467D01*
X132578698Y-58155802D01*
X132452598Y-57919886D01*
X132282896Y-57713103D01*
X132076113Y-57543402D01*
X131840197Y-57417302D01*
X131584213Y-57339650D01*
X131318000Y-57313430D01*
X131051786Y-57339650D01*
X130795802Y-57417302D01*
X130559886Y-57543402D01*
X130353103Y-57713104D01*
X130183402Y-57919887D01*
X130057302Y-58155803D01*
X130048000Y-58186467D01*
X130038698Y-58155802D01*
X129912598Y-57919886D01*
X129742896Y-57713103D01*
X129536113Y-57543402D01*
X129300197Y-57417302D01*
X129044213Y-57339650D01*
X128778000Y-57313430D01*
X128511786Y-57339650D01*
X128255802Y-57417302D01*
X128019886Y-57543402D01*
X127813103Y-57713104D01*
X127643402Y-57919887D01*
X127517302Y-58155803D01*
X127508000Y-58186467D01*
X127498698Y-58155802D01*
X127372598Y-57919886D01*
X127202896Y-57713103D01*
X126996113Y-57543402D01*
X126760197Y-57417302D01*
X126504213Y-57339650D01*
X126238000Y-57313430D01*
X125971786Y-57339650D01*
X125715802Y-57417302D01*
X125479886Y-57543402D01*
X125273103Y-57713104D01*
X125103402Y-57919887D01*
X124977302Y-58155803D01*
X124968000Y-58186467D01*
X124958698Y-58155802D01*
X124832598Y-57919886D01*
X124662896Y-57713103D01*
X124456113Y-57543402D01*
X124220197Y-57417302D01*
X123964213Y-57339650D01*
X123698000Y-57313430D01*
X123431786Y-57339650D01*
X123175802Y-57417302D01*
X122939886Y-57543402D01*
X122733103Y-57713104D01*
X122563402Y-57919887D01*
X122437302Y-58155803D01*
X122428000Y-58186467D01*
X122418698Y-58155802D01*
X122292598Y-57919886D01*
X122122896Y-57713103D01*
X121916113Y-57543402D01*
X121680197Y-57417302D01*
X121424213Y-57339650D01*
X121158000Y-57313430D01*
X120891786Y-57339650D01*
X120635802Y-57417302D01*
X120399886Y-57543402D01*
X120193103Y-57713104D01*
X120023402Y-57919887D01*
X119897302Y-58155803D01*
X119888000Y-58186467D01*
X119878698Y-58155802D01*
X119752598Y-57919886D01*
X119582896Y-57713103D01*
X119376113Y-57543402D01*
X119140197Y-57417302D01*
X118884213Y-57339650D01*
X118618000Y-57313430D01*
X118351786Y-57339650D01*
X118095802Y-57417302D01*
X117859886Y-57543402D01*
X117653103Y-57713104D01*
X117483402Y-57919887D01*
X117357302Y-58155803D01*
X117348000Y-58186467D01*
X117338698Y-58155802D01*
X117212598Y-57919886D01*
X117042896Y-57713103D01*
X116836113Y-57543402D01*
X116600197Y-57417302D01*
X116344213Y-57339650D01*
X116078000Y-57313430D01*
X115811786Y-57339650D01*
X115555802Y-57417302D01*
X115319886Y-57543402D01*
X115113103Y-57713104D01*
X114943402Y-57919887D01*
X114817302Y-58155803D01*
X114808000Y-58186467D01*
X114798698Y-58155802D01*
X114672598Y-57919886D01*
X114502896Y-57713103D01*
X114296113Y-57543402D01*
X114060197Y-57417302D01*
X113804213Y-57339650D01*
X113538000Y-57313430D01*
X113271786Y-57339650D01*
X113015802Y-57417302D01*
X112779886Y-57543402D01*
X112573103Y-57713104D01*
X112403402Y-57919887D01*
X112277302Y-58155803D01*
X112268000Y-58186467D01*
X112258698Y-58155802D01*
X112132598Y-57919886D01*
X111962896Y-57713103D01*
X111756113Y-57543402D01*
X111520197Y-57417302D01*
X111264213Y-57339650D01*
X110998000Y-57313430D01*
X110731786Y-57339650D01*
X110475802Y-57417302D01*
X110239886Y-57543402D01*
X110033103Y-57713104D01*
X109863402Y-57919887D01*
X109737302Y-58155803D01*
X109728000Y-58186467D01*
X109718698Y-58155802D01*
X109592598Y-57919886D01*
X109422896Y-57713103D01*
X109216113Y-57543402D01*
X108980197Y-57417302D01*
X108724213Y-57339650D01*
X108458000Y-57313430D01*
X108191786Y-57339650D01*
X107935802Y-57417302D01*
X107699886Y-57543402D01*
X107493103Y-57713104D01*
X107323402Y-57919887D01*
X107197302Y-58155803D01*
X107188000Y-58186467D01*
X107178698Y-58155802D01*
X107052598Y-57919886D01*
X106882896Y-57713103D01*
X106676113Y-57543402D01*
X106440197Y-57417302D01*
X106184213Y-57339650D01*
X105918000Y-57313430D01*
X105651786Y-57339650D01*
X105395802Y-57417302D01*
X105159886Y-57543402D01*
X104953103Y-57713104D01*
X104783402Y-57919887D01*
X104657302Y-58155803D01*
X104579650Y-58411787D01*
X104560000Y-58611295D01*
X101192000Y-58611295D01*
X101192000Y-53748721D01*
X137676000Y-53748721D01*
X137676000Y-53947279D01*
X137714737Y-54142023D01*
X137790722Y-54325467D01*
X137901035Y-54490562D01*
X138041438Y-54630965D01*
X138206533Y-54741278D01*
X138389977Y-54817263D01*
X138584721Y-54856000D01*
X138783279Y-54856000D01*
X138978023Y-54817263D01*
X139161467Y-54741278D01*
X139326562Y-54630965D01*
X139466965Y-54490562D01*
X139577278Y-54325467D01*
X139653263Y-54142023D01*
X139692000Y-53947279D01*
X139692000Y-53748721D01*
X139653263Y-53553977D01*
X139577278Y-53370533D01*
X139466965Y-53205438D01*
X139326562Y-53065035D01*
X139161467Y-52954722D01*
X138978023Y-52878737D01*
X138783279Y-52840000D01*
X138584721Y-52840000D01*
X138389977Y-52878737D01*
X138206533Y-52954722D01*
X138041438Y-53065035D01*
X137901035Y-53205438D01*
X137790722Y-53370533D01*
X137714737Y-53553977D01*
X137676000Y-53748721D01*
X101192000Y-53748721D01*
X101192000Y-51423324D01*
X151754000Y-51423324D01*
X151754000Y-51700676D01*
X151808108Y-51972699D01*
X151914246Y-52228938D01*
X152068335Y-52459548D01*
X152264452Y-52655665D01*
X152495062Y-52809754D01*
X152751301Y-52915892D01*
X153023324Y-52970000D01*
X153300676Y-52970000D01*
X153572699Y-52915892D01*
X153828938Y-52809754D01*
X154059548Y-52655665D01*
X154255665Y-52459548D01*
X154409754Y-52228938D01*
X154515892Y-51972699D01*
X154570000Y-51700676D01*
X154570000Y-51423324D01*
X161914000Y-51423324D01*
X161914000Y-51700676D01*
X161968108Y-51972699D01*
X162074246Y-52228938D01*
X162228335Y-52459548D01*
X162424452Y-52655665D01*
X162655062Y-52809754D01*
X162911301Y-52915892D01*
X163183324Y-52970000D01*
X163460676Y-52970000D01*
X163732699Y-52915892D01*
X163988938Y-52809754D01*
X164219548Y-52655665D01*
X164415665Y-52459548D01*
X164569754Y-52228938D01*
X164675892Y-51972699D01*
X164730000Y-51700676D01*
X164730000Y-51423324D01*
X164675892Y-51151301D01*
X164569754Y-50895062D01*
X164415665Y-50664452D01*
X164219548Y-50468335D01*
X163988938Y-50314246D01*
X163732699Y-50208108D01*
X163460676Y-50154000D01*
X163183324Y-50154000D01*
X162911301Y-50208108D01*
X162655062Y-50314246D01*
X162424452Y-50468335D01*
X162228335Y-50664452D01*
X162074246Y-50895062D01*
X161968108Y-51151301D01*
X161914000Y-51423324D01*
X154570000Y-51423324D01*
X154515892Y-51151301D01*
X154409754Y-50895062D01*
X154255665Y-50664452D01*
X154059548Y-50468335D01*
X153828938Y-50314246D01*
X153572699Y-50208108D01*
X153300676Y-50154000D01*
X153023324Y-50154000D01*
X152751301Y-50208108D01*
X152495062Y-50314246D01*
X152264452Y-50468335D01*
X152068335Y-50664452D01*
X151914246Y-50895062D01*
X151808108Y-51151301D01*
X151754000Y-51423324D01*
X101192000Y-51423324D01*
X101192000Y-44296000D01*
X102577340Y-44296000D01*
X104889086Y-46397588D01*
X105310000Y-46818502D01*
X105310000Y-47285116D01*
X105247999Y-47335999D01*
X105172021Y-47428579D01*
X105115564Y-47534203D01*
X105080798Y-47648811D01*
X105069059Y-47768000D01*
X105069059Y-49768000D01*
X105080798Y-49887189D01*
X105115564Y-50001797D01*
X105172021Y-50107421D01*
X105247999Y-50200001D01*
X105340579Y-50275979D01*
X105446203Y-50332436D01*
X105560811Y-50367202D01*
X105680000Y-50378941D01*
X107680000Y-50378941D01*
X107799189Y-50367202D01*
X107913797Y-50332436D01*
X108019421Y-50275979D01*
X108112001Y-50200001D01*
X108187979Y-50107421D01*
X108244436Y-50001797D01*
X108279202Y-49887189D01*
X108279516Y-49884000D01*
X108966000Y-49884000D01*
X108985509Y-49882079D01*
X109004268Y-49876388D01*
X109021557Y-49867147D01*
X109036711Y-49854711D01*
X109049147Y-49839557D01*
X109058388Y-49822268D01*
X109064079Y-49803509D01*
X109066000Y-49784000D01*
X109066000Y-48609626D01*
X110072000Y-48609626D01*
X110072000Y-48926374D01*
X110133795Y-49237036D01*
X110255009Y-49529673D01*
X110430985Y-49793040D01*
X110654960Y-50017015D01*
X110918327Y-50192991D01*
X111210964Y-50314205D01*
X111521626Y-50376000D01*
X111838374Y-50376000D01*
X112149036Y-50314205D01*
X112441673Y-50192991D01*
X112705040Y-50017015D01*
X112929015Y-49793040D01*
X113104991Y-49529673D01*
X113226205Y-49237036D01*
X113288000Y-48926374D01*
X113288000Y-48609626D01*
X113226205Y-48298964D01*
X113104991Y-48006327D01*
X112929015Y-47742960D01*
X112705040Y-47518985D01*
X112458720Y-47354399D01*
X129352000Y-47354399D01*
X129352000Y-47641601D01*
X129408030Y-47923283D01*
X129517937Y-48188622D01*
X129677497Y-48427421D01*
X129880579Y-48630503D01*
X130119378Y-48790063D01*
X130384717Y-48899970D01*
X130666399Y-48956000D01*
X130953601Y-48956000D01*
X131235283Y-48899970D01*
X131500622Y-48790063D01*
X131739421Y-48630503D01*
X131942503Y-48427421D01*
X132102063Y-48188622D01*
X132195854Y-47962191D01*
X132239490Y-48071834D01*
X132372778Y-48277458D01*
X132543620Y-48453127D01*
X132745450Y-48592091D01*
X132970513Y-48689010D01*
X133003843Y-48699114D01*
X133196000Y-48637642D01*
X133196000Y-47652000D01*
X133176000Y-47652000D01*
X133176000Y-47344000D01*
X133196000Y-47344000D01*
X133196000Y-47324000D01*
X133504000Y-47324000D01*
X133504000Y-47344000D01*
X133524000Y-47344000D01*
X133524000Y-47652000D01*
X133504000Y-47652000D01*
X133504000Y-48637642D01*
X133696157Y-48699114D01*
X133729487Y-48689010D01*
X133954550Y-48592091D01*
X134156380Y-48453127D01*
X134327222Y-48277458D01*
X134460510Y-48071834D01*
X134504146Y-47962191D01*
X134597937Y-48188622D01*
X134757497Y-48427421D01*
X134960579Y-48630503D01*
X135199378Y-48790063D01*
X135464717Y-48899970D01*
X135746399Y-48956000D01*
X136033601Y-48956000D01*
X136315283Y-48899970D01*
X136580622Y-48790063D01*
X136819421Y-48630503D01*
X137022503Y-48427421D01*
X137160000Y-48221642D01*
X137297497Y-48427421D01*
X137500579Y-48630503D01*
X137739378Y-48790063D01*
X138004717Y-48899970D01*
X138286399Y-48956000D01*
X138573601Y-48956000D01*
X138855283Y-48899970D01*
X139120622Y-48790063D01*
X139359421Y-48630503D01*
X139562503Y-48427421D01*
X139700000Y-48221642D01*
X139837497Y-48427421D01*
X140040579Y-48630503D01*
X140279378Y-48790063D01*
X140544717Y-48899970D01*
X140826399Y-48956000D01*
X141113601Y-48956000D01*
X141395283Y-48899970D01*
X141660622Y-48790063D01*
X141899421Y-48630503D01*
X142102503Y-48427421D01*
X142240000Y-48221642D01*
X142377497Y-48427421D01*
X142580579Y-48630503D01*
X142819378Y-48790063D01*
X143084717Y-48899970D01*
X143366399Y-48956000D01*
X143653601Y-48956000D01*
X143935283Y-48899970D01*
X144200622Y-48790063D01*
X144439421Y-48630503D01*
X144642503Y-48427421D01*
X144780000Y-48221642D01*
X144917497Y-48427421D01*
X145120579Y-48630503D01*
X145359378Y-48790063D01*
X145624717Y-48899970D01*
X145906399Y-48956000D01*
X146193601Y-48956000D01*
X146475283Y-48899970D01*
X146740622Y-48790063D01*
X146979421Y-48630503D01*
X147182503Y-48427421D01*
X147320000Y-48221642D01*
X147457497Y-48427421D01*
X147660579Y-48630503D01*
X147899378Y-48790063D01*
X148164717Y-48899970D01*
X148446399Y-48956000D01*
X148733601Y-48956000D01*
X149015283Y-48899970D01*
X149280622Y-48790063D01*
X149462223Y-48668721D01*
X149868000Y-48668721D01*
X149868000Y-48867279D01*
X149906737Y-49062023D01*
X149982722Y-49245467D01*
X150093035Y-49410562D01*
X150233438Y-49550965D01*
X150398533Y-49661278D01*
X150581977Y-49737263D01*
X150776721Y-49776000D01*
X150975279Y-49776000D01*
X151170023Y-49737263D01*
X151353467Y-49661278D01*
X151518562Y-49550965D01*
X151658965Y-49410562D01*
X151769278Y-49245467D01*
X151845263Y-49062023D01*
X151884000Y-48867279D01*
X151884000Y-48668721D01*
X151845263Y-48473977D01*
X151796241Y-48355626D01*
X165524000Y-48355626D01*
X165524000Y-48672374D01*
X165585795Y-48983036D01*
X165707009Y-49275673D01*
X165882985Y-49539040D01*
X166106960Y-49763015D01*
X166370327Y-49938991D01*
X166662964Y-50060205D01*
X166973626Y-50122000D01*
X167290374Y-50122000D01*
X167601036Y-50060205D01*
X167893673Y-49938991D01*
X168157040Y-49763015D01*
X168381015Y-49539040D01*
X168556991Y-49275673D01*
X168678205Y-48983036D01*
X168740000Y-48672374D01*
X168740000Y-48355626D01*
X168678205Y-48044964D01*
X168556991Y-47752327D01*
X168381015Y-47488960D01*
X168157040Y-47264985D01*
X167893673Y-47089009D01*
X167601036Y-46967795D01*
X167290374Y-46906000D01*
X166973626Y-46906000D01*
X166662964Y-46967795D01*
X166370327Y-47089009D01*
X166106960Y-47264985D01*
X165882985Y-47488960D01*
X165707009Y-47752327D01*
X165585795Y-48044964D01*
X165524000Y-48355626D01*
X151796241Y-48355626D01*
X151769278Y-48290533D01*
X151658965Y-48125438D01*
X151518562Y-47985035D01*
X151353467Y-47874722D01*
X151170023Y-47798737D01*
X150975279Y-47760000D01*
X150776721Y-47760000D01*
X150581977Y-47798737D01*
X150398533Y-47874722D01*
X150233438Y-47985035D01*
X150093035Y-48125438D01*
X149982722Y-48290533D01*
X149906737Y-48473977D01*
X149868000Y-48668721D01*
X149462223Y-48668721D01*
X149519421Y-48630503D01*
X149722503Y-48427421D01*
X149882063Y-48188622D01*
X149991970Y-47923283D01*
X150048000Y-47641601D01*
X150048000Y-47354399D01*
X149991970Y-47072717D01*
X149882063Y-46807378D01*
X149722503Y-46568579D01*
X149560675Y-46406751D01*
X149673797Y-46372436D01*
X149779421Y-46315979D01*
X149872001Y-46240001D01*
X149947979Y-46147421D01*
X150004436Y-46041797D01*
X150039202Y-45927189D01*
X150050941Y-45808000D01*
X150050941Y-44585022D01*
X154272000Y-44585022D01*
X154272000Y-44822978D01*
X154318423Y-45056361D01*
X154409484Y-45276203D01*
X154541685Y-45474055D01*
X154709945Y-45642315D01*
X154907797Y-45774516D01*
X155127639Y-45865577D01*
X155361022Y-45912000D01*
X155598978Y-45912000D01*
X155832361Y-45865577D01*
X156052203Y-45774516D01*
X156250055Y-45642315D01*
X156329152Y-45563218D01*
X156372021Y-45643421D01*
X156447999Y-45736001D01*
X156540579Y-45811979D01*
X156646203Y-45868436D01*
X156760811Y-45903202D01*
X156880000Y-45914941D01*
X158080000Y-45914941D01*
X158199189Y-45903202D01*
X158313797Y-45868436D01*
X158419421Y-45811979D01*
X158512001Y-45736001D01*
X158587979Y-45643421D01*
X158644436Y-45537797D01*
X158679202Y-45423189D01*
X158690941Y-45304000D01*
X158690941Y-44104000D01*
X158679202Y-43984811D01*
X158644436Y-43870203D01*
X158636645Y-43855626D01*
X165524000Y-43855626D01*
X165524000Y-44172374D01*
X165585795Y-44483036D01*
X165707009Y-44775673D01*
X165882985Y-45039040D01*
X166106960Y-45263015D01*
X166370327Y-45438991D01*
X166662964Y-45560205D01*
X166973626Y-45622000D01*
X167290374Y-45622000D01*
X167601036Y-45560205D01*
X167893673Y-45438991D01*
X168157040Y-45263015D01*
X168381015Y-45039040D01*
X168556991Y-44775673D01*
X168678205Y-44483036D01*
X168740000Y-44172374D01*
X168740000Y-43855626D01*
X168678205Y-43544964D01*
X168556991Y-43252327D01*
X168381015Y-42988960D01*
X168157040Y-42764985D01*
X167893673Y-42589009D01*
X167601036Y-42467795D01*
X167290374Y-42406000D01*
X166973626Y-42406000D01*
X166662964Y-42467795D01*
X166370327Y-42589009D01*
X166106960Y-42764985D01*
X165882985Y-42988960D01*
X165707009Y-43252327D01*
X165585795Y-43544964D01*
X165524000Y-43855626D01*
X158636645Y-43855626D01*
X158587979Y-43764579D01*
X158512001Y-43671999D01*
X158419421Y-43596021D01*
X158313797Y-43539564D01*
X158199189Y-43504798D01*
X158080000Y-43493059D01*
X156880000Y-43493059D01*
X156760811Y-43504798D01*
X156646203Y-43539564D01*
X156540579Y-43596021D01*
X156447999Y-43671999D01*
X156372021Y-43764579D01*
X156329152Y-43844782D01*
X156250055Y-43765685D01*
X156052203Y-43633484D01*
X155832361Y-43542423D01*
X155598978Y-43496000D01*
X155361022Y-43496000D01*
X155127639Y-43542423D01*
X154907797Y-43633484D01*
X154709945Y-43765685D01*
X154541685Y-43933945D01*
X154409484Y-44131797D01*
X154318423Y-44351639D01*
X154272000Y-44585022D01*
X150050941Y-44585022D01*
X150050941Y-44108000D01*
X150039202Y-43988811D01*
X150004436Y-43874203D01*
X149947979Y-43768579D01*
X149872001Y-43675999D01*
X149779421Y-43600021D01*
X149673797Y-43543564D01*
X149559189Y-43508798D01*
X149440000Y-43497059D01*
X147740000Y-43497059D01*
X147620811Y-43508798D01*
X147506203Y-43543564D01*
X147400579Y-43600021D01*
X147307999Y-43675999D01*
X147232021Y-43768579D01*
X147175564Y-43874203D01*
X147141249Y-43987325D01*
X146979421Y-43825497D01*
X146740622Y-43665937D01*
X146475283Y-43556030D01*
X146193601Y-43500000D01*
X145906399Y-43500000D01*
X145624717Y-43556030D01*
X145359378Y-43665937D01*
X145120579Y-43825497D01*
X144917497Y-44028579D01*
X144780000Y-44234358D01*
X144642503Y-44028579D01*
X144439421Y-43825497D01*
X144200622Y-43665937D01*
X143935283Y-43556030D01*
X143653601Y-43500000D01*
X143366399Y-43500000D01*
X143084717Y-43556030D01*
X142819378Y-43665937D01*
X142580579Y-43825497D01*
X142377497Y-44028579D01*
X142240000Y-44234358D01*
X142102503Y-44028579D01*
X141899421Y-43825497D01*
X141660622Y-43665937D01*
X141395283Y-43556030D01*
X141113601Y-43500000D01*
X140826399Y-43500000D01*
X140544717Y-43556030D01*
X140279378Y-43665937D01*
X140040579Y-43825497D01*
X139837497Y-44028579D01*
X139700000Y-44234358D01*
X139562503Y-44028579D01*
X139359421Y-43825497D01*
X139120622Y-43665937D01*
X138855283Y-43556030D01*
X138573601Y-43500000D01*
X138286399Y-43500000D01*
X138004717Y-43556030D01*
X137739378Y-43665937D01*
X137500579Y-43825497D01*
X137297497Y-44028579D01*
X137160000Y-44234358D01*
X137022503Y-44028579D01*
X136819421Y-43825497D01*
X136580622Y-43665937D01*
X136315283Y-43556030D01*
X136033601Y-43500000D01*
X135746399Y-43500000D01*
X135464717Y-43556030D01*
X135199378Y-43665937D01*
X134960579Y-43825497D01*
X134757497Y-44028579D01*
X134620000Y-44234358D01*
X134482503Y-44028579D01*
X134279421Y-43825497D01*
X134040622Y-43665937D01*
X133775283Y-43556030D01*
X133493601Y-43500000D01*
X133206399Y-43500000D01*
X132924717Y-43556030D01*
X132659378Y-43665937D01*
X132420579Y-43825497D01*
X132217497Y-44028579D01*
X132057937Y-44267378D01*
X131964146Y-44493809D01*
X131920510Y-44384166D01*
X131787222Y-44178542D01*
X131616380Y-44002873D01*
X131414550Y-43863909D01*
X131189487Y-43766990D01*
X131156157Y-43756886D01*
X130964000Y-43818358D01*
X130964000Y-44804000D01*
X130984000Y-44804000D01*
X130984000Y-45112000D01*
X130964000Y-45112000D01*
X130964000Y-45132000D01*
X130656000Y-45132000D01*
X130656000Y-45112000D01*
X129669516Y-45112000D01*
X129608879Y-45304158D01*
X129699490Y-45531834D01*
X129832778Y-45737458D01*
X130003620Y-45913127D01*
X130205450Y-46052091D01*
X130345350Y-46112336D01*
X130119378Y-46205937D01*
X129880579Y-46365497D01*
X129677497Y-46568579D01*
X129517937Y-46807378D01*
X129408030Y-47072717D01*
X129352000Y-47354399D01*
X112458720Y-47354399D01*
X112441673Y-47343009D01*
X112149036Y-47221795D01*
X111838374Y-47160000D01*
X111521626Y-47160000D01*
X111210964Y-47221795D01*
X110918327Y-47343009D01*
X110654960Y-47518985D01*
X110430985Y-47742960D01*
X110255009Y-48006327D01*
X110133795Y-48298964D01*
X110072000Y-48609626D01*
X109066000Y-48609626D01*
X109066000Y-44611842D01*
X129608879Y-44611842D01*
X129669516Y-44804000D01*
X130656000Y-44804000D01*
X130656000Y-43818358D01*
X130463843Y-43756886D01*
X130430513Y-43766990D01*
X130205450Y-43863909D01*
X130003620Y-44002873D01*
X129832778Y-44178542D01*
X129699490Y-44384166D01*
X129608879Y-44611842D01*
X109066000Y-44611842D01*
X109066000Y-41502000D01*
X144357389Y-41502000D01*
X144302533Y-41524722D01*
M02*
