G04 #@! TF.GenerationSoftware,KiCad,Pcbnew,(5.1.5)-3*
G04 #@! TF.CreationDate,2020-01-27T11:23:28-05:00*
G04 #@! TF.ProjectId,Secondary_Board,5365636f-6e64-4617-9279-5f426f617264,rev?*
G04 #@! TF.SameCoordinates,Original*
G04 #@! TF.FileFunction,Copper,L2,Bot*
G04 #@! TF.FilePolarity,Positive*
%FSLAX46Y46*%
G04 Gerber Fmt 4.6, Leading zero omitted, Abs format (unit mm)*
G04 Created by KiCad (PCBNEW (5.1.5)-3) date 2020-01-27 11:23:28*
%MOMM*%
%LPD*%
G04 APERTURE LIST*
%ADD10O,1.700000X1.700000*%
%ADD11R,1.700000X1.700000*%
%ADD12C,1.700000*%
%ADD13R,1.600000X1.600000*%
%ADD14C,1.600000*%
%ADD15O,2.000000X1.200000*%
%ADD16C,0.800000*%
%ADD17C,0.500000*%
%ADD18C,0.250000*%
G04 APERTURE END LIST*
D10*
X171958000Y-101854000D03*
X174498000Y-101854000D03*
X171958000Y-104394000D03*
X174498000Y-104394000D03*
X171958000Y-106934000D03*
X174498000Y-106934000D03*
X171958000Y-109474000D03*
X174498000Y-109474000D03*
X171958000Y-112014000D03*
X174498000Y-112014000D03*
X171958000Y-114554000D03*
X174498000Y-114554000D03*
X171958000Y-117094000D03*
X174498000Y-117094000D03*
D11*
X171958000Y-119634000D03*
D12*
X174498000Y-119634000D03*
D13*
X170942000Y-88646000D03*
D14*
X172942000Y-88646000D03*
D11*
X119126000Y-106680000D03*
D10*
X119126000Y-109220000D03*
D15*
X145796000Y-104140000D03*
X133096000Y-104140000D03*
X145796000Y-106680000D03*
X133096000Y-106680000D03*
X145796000Y-109220000D03*
X133096000Y-109220000D03*
X145796000Y-111760000D03*
X133096000Y-111760000D03*
X145796000Y-114300000D03*
X133096000Y-114300000D03*
X145796000Y-116840000D03*
X133096000Y-116840000D03*
D11*
X127671001Y-87169001D03*
D10*
X130211001Y-87169001D03*
X132751001Y-87169001D03*
X135291001Y-87169001D03*
X137831001Y-87169001D03*
X140371001Y-87169001D03*
D11*
X93980000Y-87169001D03*
D10*
X96520000Y-87169001D03*
X99060000Y-87169001D03*
X101600000Y-87169001D03*
X104140000Y-87169001D03*
X106680000Y-87169001D03*
X109220000Y-87169001D03*
D16*
X136144000Y-81280000D03*
X146304000Y-83820000D03*
D17*
X174498000Y-112014000D02*
X171958000Y-112014000D01*
X136100002Y-81280000D02*
X130211001Y-87169001D01*
X136144000Y-81280000D02*
X136100002Y-81280000D01*
X171958000Y-112014000D02*
X165100000Y-112014000D01*
X157226000Y-104140000D02*
X145796000Y-104140000D01*
X165100000Y-112014000D02*
X157226000Y-104140000D01*
X157480000Y-81280000D02*
X136144000Y-81280000D01*
X170942000Y-88646000D02*
X164846000Y-88646000D01*
X164846000Y-88646000D02*
X157480000Y-81280000D01*
X176276000Y-97536000D02*
X170942000Y-92202000D01*
X170942000Y-92202000D02*
X170942000Y-88646000D01*
X174498000Y-112014000D02*
X176276000Y-110236000D01*
X176276000Y-110236000D02*
X176276000Y-97536000D01*
X174498000Y-119634000D02*
X171958000Y-119634000D01*
X174498000Y-114554000D02*
X171958000Y-114554000D01*
X172942000Y-87514630D02*
X164929370Y-79502000D01*
X172942000Y-88646000D02*
X172942000Y-87514630D01*
X104187001Y-79502000D02*
X96520000Y-87169001D01*
X127671001Y-87169001D02*
X127671001Y-83148999D01*
X164929370Y-79502000D02*
X131318000Y-79502000D01*
X127671001Y-83148999D02*
X131318000Y-79502000D01*
X131318000Y-79502000D02*
X104187001Y-79502000D01*
X171958000Y-114554000D02*
X165100000Y-114554000D01*
X157226000Y-106680000D02*
X145796000Y-106680000D01*
X165100000Y-114554000D02*
X157226000Y-106680000D01*
X175848000Y-119634000D02*
X174498000Y-119634000D01*
X177546000Y-117936000D02*
X175848000Y-119634000D01*
X177546000Y-114804059D02*
X177546000Y-117936000D01*
X173741999Y-89445999D02*
X172942000Y-88646000D01*
X177546000Y-112776000D02*
X177546000Y-93250000D01*
X177546000Y-93250000D02*
X173741999Y-89445999D01*
X177546000Y-112776000D02*
X177546000Y-114804059D01*
X175768000Y-114554000D02*
X177546000Y-112776000D01*
X174498000Y-114554000D02*
X175768000Y-114554000D01*
X174498000Y-117094000D02*
X171958000Y-117094000D01*
X144780000Y-115570000D02*
X133350000Y-104140000D01*
X160274000Y-115570000D02*
X144780000Y-115570000D01*
X133350000Y-104140000D02*
X133096000Y-104140000D01*
X171958000Y-117094000D02*
X161798000Y-117094000D01*
X161798000Y-117094000D02*
X160274000Y-115570000D01*
D18*
X146304000Y-83820000D02*
X146304000Y-83820000D01*
X154178000Y-91694000D02*
X146304000Y-83820000D01*
X171958000Y-104394000D02*
X166878000Y-104394000D01*
X166878000Y-104394000D02*
X154178000Y-91694000D01*
X136141000Y-88019000D02*
X135291001Y-87169001D01*
X173228000Y-105664000D02*
X164846000Y-105664000D01*
X174498000Y-104394000D02*
X173228000Y-105664000D01*
X153670000Y-94488000D02*
X142610000Y-94488000D01*
X142610000Y-94488000D02*
X136141000Y-88019000D01*
X164846000Y-105664000D02*
X153670000Y-94488000D01*
M02*
