G04 #@! TF.GenerationSoftware,KiCad,Pcbnew,(5.1.5)-3*
G04 #@! TF.CreationDate,2020-01-27T11:23:27-05:00*
G04 #@! TF.ProjectId,Secondary_Board,5365636f-6e64-4617-9279-5f426f617264,rev?*
G04 #@! TF.SameCoordinates,Original*
G04 #@! TF.FileFunction,Copper,L1,Top*
G04 #@! TF.FilePolarity,Positive*
%FSLAX46Y46*%
G04 Gerber Fmt 4.6, Leading zero omitted, Abs format (unit mm)*
G04 Created by KiCad (PCBNEW (5.1.5)-3) date 2020-01-27 11:23:27*
%MOMM*%
%LPD*%
G04 APERTURE LIST*
%ADD10O,1.700000X1.700000*%
%ADD11R,1.700000X1.700000*%
%ADD12C,1.700000*%
%ADD13R,1.600000X1.600000*%
%ADD14C,1.600000*%
%ADD15O,2.000000X1.200000*%
%ADD16C,0.800000*%
%ADD17C,0.500000*%
%ADD18C,0.250000*%
G04 APERTURE END LIST*
D10*
X171958000Y-101854000D03*
X174498000Y-101854000D03*
X171958000Y-104394000D03*
X174498000Y-104394000D03*
X171958000Y-106934000D03*
X174498000Y-106934000D03*
X171958000Y-109474000D03*
X174498000Y-109474000D03*
X171958000Y-112014000D03*
X174498000Y-112014000D03*
X171958000Y-114554000D03*
X174498000Y-114554000D03*
X171958000Y-117094000D03*
X174498000Y-117094000D03*
D11*
X171958000Y-119634000D03*
D12*
X174498000Y-119634000D03*
D13*
X170942000Y-88646000D03*
D14*
X172942000Y-88646000D03*
D11*
X119126000Y-106680000D03*
D10*
X119126000Y-109220000D03*
D15*
X145796000Y-104140000D03*
X133096000Y-104140000D03*
X145796000Y-106680000D03*
X133096000Y-106680000D03*
X145796000Y-109220000D03*
X133096000Y-109220000D03*
X145796000Y-111760000D03*
X133096000Y-111760000D03*
X145796000Y-114300000D03*
X133096000Y-114300000D03*
X145796000Y-116840000D03*
X133096000Y-116840000D03*
D11*
X127671001Y-87169001D03*
D10*
X130211001Y-87169001D03*
X132751001Y-87169001D03*
X135291001Y-87169001D03*
X137831001Y-87169001D03*
X140371001Y-87169001D03*
D11*
X93980000Y-87169001D03*
D10*
X96520000Y-87169001D03*
X99060000Y-87169001D03*
X101600000Y-87169001D03*
X104140000Y-87169001D03*
X106680000Y-87169001D03*
X109220000Y-87169001D03*
D16*
X136144000Y-81280000D03*
X146304000Y-83820000D03*
D17*
X107489001Y-81280000D02*
X101600000Y-87169001D01*
X136144000Y-81280000D02*
X107489001Y-81280000D01*
X93980000Y-85819001D02*
X93980000Y-87169001D01*
X98519001Y-81280000D02*
X93980000Y-85819001D01*
X107489001Y-81280000D02*
X98519001Y-81280000D01*
X144296000Y-106680000D02*
X133096000Y-106680000D01*
X145796000Y-106680000D02*
X144296000Y-106680000D01*
X131846000Y-106680000D02*
X119126000Y-106680000D01*
D18*
X133096000Y-106680000D02*
X131846000Y-106680000D01*
X151384000Y-109220000D02*
X145796000Y-109220000D01*
X152908000Y-110744000D02*
X151384000Y-109220000D01*
X170688000Y-110744000D02*
X171958000Y-109474000D01*
X152908000Y-110744000D02*
X170688000Y-110744000D01*
X99909999Y-88019000D02*
X99060000Y-87169001D01*
X173228000Y-108204000D02*
X163830000Y-108204000D01*
X174498000Y-109474000D02*
X173228000Y-108204000D01*
X113236999Y-101346000D02*
X99909999Y-88019000D01*
X163830000Y-108204000D02*
X156972000Y-101346000D01*
X156972000Y-101346000D02*
X113236999Y-101346000D01*
X171108001Y-106084001D02*
X163488001Y-106084001D01*
X171958000Y-106934000D02*
X171108001Y-106084001D01*
X163488001Y-106084001D02*
X157480000Y-100076000D01*
X117046999Y-100076000D02*
X104140000Y-87169001D01*
X157480000Y-100076000D02*
X117046999Y-100076000D01*
X110069999Y-88019000D02*
X109220000Y-87169001D01*
X120856999Y-98806000D02*
X110069999Y-88019000D01*
X163830000Y-98806000D02*
X120856999Y-98806000D01*
X173228000Y-105664000D02*
X173228000Y-103924998D01*
X174498000Y-106934000D02*
X173228000Y-105664000D01*
X172427002Y-103124000D02*
X168148000Y-103124000D01*
X173228000Y-103924998D02*
X172427002Y-103124000D01*
X168148000Y-103124000D02*
X163830000Y-98806000D01*
X107529999Y-86319002D02*
X106680000Y-87169001D01*
X146304000Y-83820000D02*
X110029001Y-83820000D01*
X110029001Y-83820000D02*
X107529999Y-86319002D01*
X133601000Y-88019000D02*
X132751001Y-87169001D01*
X141848000Y-96266000D02*
X133601000Y-88019000D01*
X168910000Y-96266000D02*
X141848000Y-96266000D01*
X171958000Y-99314000D02*
X168910000Y-96266000D01*
X171958000Y-101854000D02*
X171958000Y-99314000D01*
X133096000Y-109220000D02*
X119126000Y-109220000D01*
M02*
