G04 #@! TF.GenerationSoftware,KiCad,Pcbnew,(5.1.5)-3*
G04 #@! TF.CreationDate,2020-01-27T11:23:28-05:00*
G04 #@! TF.ProjectId,Secondary_Board,5365636f-6e64-4617-9279-5f426f617264,rev?*
G04 #@! TF.SameCoordinates,Original*
G04 #@! TF.FileFunction,Legend,Top*
G04 #@! TF.FilePolarity,Positive*
%FSLAX46Y46*%
G04 Gerber Fmt 4.6, Leading zero omitted, Abs format (unit mm)*
G04 Created by KiCad (PCBNEW (5.1.5)-3) date 2020-01-27 11:23:28*
%MOMM*%
%LPD*%
G04 APERTURE LIST*
%ADD10C,0.150000*%
%ADD11C,0.250000*%
%ADD12C,0.120000*%
G04 APERTURE END LIST*
D10*
X104276952Y-78382761D02*
X104419809Y-78430380D01*
X104657904Y-78430380D01*
X104753142Y-78382761D01*
X104800761Y-78335142D01*
X104848380Y-78239904D01*
X104848380Y-78144666D01*
X104800761Y-78049428D01*
X104753142Y-78001809D01*
X104657904Y-77954190D01*
X104467428Y-77906571D01*
X104372190Y-77858952D01*
X104324571Y-77811333D01*
X104276952Y-77716095D01*
X104276952Y-77620857D01*
X104324571Y-77525619D01*
X104372190Y-77478000D01*
X104467428Y-77430380D01*
X104705523Y-77430380D01*
X104848380Y-77478000D01*
X105657904Y-78382761D02*
X105562666Y-78430380D01*
X105372190Y-78430380D01*
X105276952Y-78382761D01*
X105229333Y-78287523D01*
X105229333Y-77906571D01*
X105276952Y-77811333D01*
X105372190Y-77763714D01*
X105562666Y-77763714D01*
X105657904Y-77811333D01*
X105705523Y-77906571D01*
X105705523Y-78001809D01*
X105229333Y-78097047D01*
X106562666Y-78382761D02*
X106467428Y-78430380D01*
X106276952Y-78430380D01*
X106181714Y-78382761D01*
X106134095Y-78335142D01*
X106086476Y-78239904D01*
X106086476Y-77954190D01*
X106134095Y-77858952D01*
X106181714Y-77811333D01*
X106276952Y-77763714D01*
X106467428Y-77763714D01*
X106562666Y-77811333D01*
X107134095Y-78430380D02*
X107038857Y-78382761D01*
X106991238Y-78335142D01*
X106943619Y-78239904D01*
X106943619Y-77954190D01*
X106991238Y-77858952D01*
X107038857Y-77811333D01*
X107134095Y-77763714D01*
X107276952Y-77763714D01*
X107372190Y-77811333D01*
X107419809Y-77858952D01*
X107467428Y-77954190D01*
X107467428Y-78239904D01*
X107419809Y-78335142D01*
X107372190Y-78382761D01*
X107276952Y-78430380D01*
X107134095Y-78430380D01*
X107895999Y-77763714D02*
X107895999Y-78430380D01*
X107895999Y-77858952D02*
X107943619Y-77811333D01*
X108038857Y-77763714D01*
X108181714Y-77763714D01*
X108276952Y-77811333D01*
X108324571Y-77906571D01*
X108324571Y-78430380D01*
X109229333Y-78430380D02*
X109229333Y-77430380D01*
X109229333Y-78382761D02*
X109134095Y-78430380D01*
X108943619Y-78430380D01*
X108848380Y-78382761D01*
X108800761Y-78335142D01*
X108753142Y-78239904D01*
X108753142Y-77954190D01*
X108800761Y-77858952D01*
X108848380Y-77811333D01*
X108943619Y-77763714D01*
X109134095Y-77763714D01*
X109229333Y-77811333D01*
X110134095Y-78430380D02*
X110134095Y-77906571D01*
X110086476Y-77811333D01*
X109991238Y-77763714D01*
X109800761Y-77763714D01*
X109705523Y-77811333D01*
X110134095Y-78382761D02*
X110038857Y-78430380D01*
X109800761Y-78430380D01*
X109705523Y-78382761D01*
X109657904Y-78287523D01*
X109657904Y-78192285D01*
X109705523Y-78097047D01*
X109800761Y-78049428D01*
X110038857Y-78049428D01*
X110134095Y-78001809D01*
X110610285Y-78430380D02*
X110610285Y-77763714D01*
X110610285Y-77954190D02*
X110657904Y-77858952D01*
X110705523Y-77811333D01*
X110800761Y-77763714D01*
X110895999Y-77763714D01*
X111134095Y-77763714D02*
X111372190Y-78430380D01*
X111610285Y-77763714D02*
X111372190Y-78430380D01*
X111276952Y-78668476D01*
X111229333Y-78716095D01*
X111134095Y-78763714D01*
X113086476Y-77906571D02*
X113229333Y-77954190D01*
X113276952Y-78001809D01*
X113324571Y-78097047D01*
X113324571Y-78239904D01*
X113276952Y-78335142D01*
X113229333Y-78382761D01*
X113134095Y-78430380D01*
X112753142Y-78430380D01*
X112753142Y-77430380D01*
X113086476Y-77430380D01*
X113181714Y-77478000D01*
X113229333Y-77525619D01*
X113276952Y-77620857D01*
X113276952Y-77716095D01*
X113229333Y-77811333D01*
X113181714Y-77858952D01*
X113086476Y-77906571D01*
X112753142Y-77906571D01*
X113895999Y-78430380D02*
X113800761Y-78382761D01*
X113753142Y-78335142D01*
X113705523Y-78239904D01*
X113705523Y-77954190D01*
X113753142Y-77858952D01*
X113800761Y-77811333D01*
X113895999Y-77763714D01*
X114038857Y-77763714D01*
X114134095Y-77811333D01*
X114181714Y-77858952D01*
X114229333Y-77954190D01*
X114229333Y-78239904D01*
X114181714Y-78335142D01*
X114134095Y-78382761D01*
X114038857Y-78430380D01*
X113895999Y-78430380D01*
X115086476Y-78430380D02*
X115086476Y-77906571D01*
X115038857Y-77811333D01*
X114943619Y-77763714D01*
X114753142Y-77763714D01*
X114657904Y-77811333D01*
X115086476Y-78382761D02*
X114991238Y-78430380D01*
X114753142Y-78430380D01*
X114657904Y-78382761D01*
X114610285Y-78287523D01*
X114610285Y-78192285D01*
X114657904Y-78097047D01*
X114753142Y-78049428D01*
X114991238Y-78049428D01*
X115086476Y-78001809D01*
X115562666Y-78430380D02*
X115562666Y-77763714D01*
X115562666Y-77954190D02*
X115610285Y-77858952D01*
X115657904Y-77811333D01*
X115753142Y-77763714D01*
X115848380Y-77763714D01*
X116610285Y-78430380D02*
X116610285Y-77430380D01*
X116610285Y-78382761D02*
X116515047Y-78430380D01*
X116324571Y-78430380D01*
X116229333Y-78382761D01*
X116181714Y-78335142D01*
X116134095Y-78239904D01*
X116134095Y-77954190D01*
X116181714Y-77858952D01*
X116229333Y-77811333D01*
X116324571Y-77763714D01*
X116515047Y-77763714D01*
X116610285Y-77811333D01*
X117848380Y-78049428D02*
X118610285Y-78049428D01*
X119848380Y-78430380D02*
X119848380Y-77430380D01*
X120086476Y-77430380D01*
X120229333Y-77478000D01*
X120324571Y-77573238D01*
X120372190Y-77668476D01*
X120419809Y-77858952D01*
X120419809Y-78001809D01*
X120372190Y-78192285D01*
X120324571Y-78287523D01*
X120229333Y-78382761D01*
X120086476Y-78430380D01*
X119848380Y-78430380D01*
X120848380Y-78430380D02*
X120848380Y-77430380D01*
X121086476Y-77430380D01*
X121229333Y-77478000D01*
X121324571Y-77573238D01*
X121372190Y-77668476D01*
X121419809Y-77858952D01*
X121419809Y-78001809D01*
X121372190Y-78192285D01*
X121324571Y-78287523D01*
X121229333Y-78382761D01*
X121086476Y-78430380D01*
X120848380Y-78430380D01*
X121848380Y-78430380D02*
X121848380Y-77430380D01*
X122229333Y-77430380D01*
X122324571Y-77478000D01*
X122372190Y-77525619D01*
X122419809Y-77620857D01*
X122419809Y-77763714D01*
X122372190Y-77858952D01*
X122324571Y-77906571D01*
X122229333Y-77954190D01*
X121848380Y-77954190D01*
X123562666Y-78144666D02*
X124038857Y-78144666D01*
X123467428Y-78430380D02*
X123800761Y-77430380D01*
X124134095Y-78430380D01*
X124610285Y-78430380D02*
X124515047Y-78382761D01*
X124467428Y-78287523D01*
X124467428Y-77430380D01*
X125419809Y-78430380D02*
X125419809Y-77906571D01*
X125372190Y-77811333D01*
X125276952Y-77763714D01*
X125086476Y-77763714D01*
X124991238Y-77811333D01*
X125419809Y-78382761D02*
X125324571Y-78430380D01*
X125086476Y-78430380D01*
X124991238Y-78382761D01*
X124943619Y-78287523D01*
X124943619Y-78192285D01*
X124991238Y-78097047D01*
X125086476Y-78049428D01*
X125324571Y-78049428D01*
X125419809Y-78001809D01*
X125895999Y-78430380D02*
X125895999Y-77763714D01*
X125895999Y-77954190D02*
X125943619Y-77858952D01*
X125991238Y-77811333D01*
X126086476Y-77763714D01*
X126181714Y-77763714D01*
X126515047Y-78430380D02*
X126515047Y-77763714D01*
X126515047Y-77858952D02*
X126562666Y-77811333D01*
X126657904Y-77763714D01*
X126800761Y-77763714D01*
X126895999Y-77811333D01*
X126943619Y-77906571D01*
X126943619Y-78430380D01*
X126943619Y-77906571D02*
X126991238Y-77811333D01*
X127086476Y-77763714D01*
X127229333Y-77763714D01*
X127324571Y-77811333D01*
X127372190Y-77906571D01*
X127372190Y-78430380D01*
X129181714Y-78335142D02*
X129134095Y-78382761D01*
X128991238Y-78430380D01*
X128895999Y-78430380D01*
X128753142Y-78382761D01*
X128657904Y-78287523D01*
X128610285Y-78192285D01*
X128562666Y-78001809D01*
X128562666Y-77858952D01*
X128610285Y-77668476D01*
X128657904Y-77573238D01*
X128753142Y-77478000D01*
X128895999Y-77430380D01*
X128991238Y-77430380D01*
X129134095Y-77478000D01*
X129181714Y-77525619D01*
X129753142Y-78430380D02*
X129657904Y-78382761D01*
X129610285Y-78287523D01*
X129610285Y-77430380D01*
X130276952Y-78430380D02*
X130181714Y-78382761D01*
X130134095Y-78335142D01*
X130086476Y-78239904D01*
X130086476Y-77954190D01*
X130134095Y-77858952D01*
X130181714Y-77811333D01*
X130276952Y-77763714D01*
X130419809Y-77763714D01*
X130515047Y-77811333D01*
X130562666Y-77858952D01*
X130610285Y-77954190D01*
X130610285Y-78239904D01*
X130562666Y-78335142D01*
X130515047Y-78382761D01*
X130419809Y-78430380D01*
X130276952Y-78430380D01*
X131467428Y-78382761D02*
X131372190Y-78430380D01*
X131181714Y-78430380D01*
X131086476Y-78382761D01*
X131038857Y-78335142D01*
X130991238Y-78239904D01*
X130991238Y-77954190D01*
X131038857Y-77858952D01*
X131086476Y-77811333D01*
X131181714Y-77763714D01*
X131372190Y-77763714D01*
X131467428Y-77811333D01*
X131895999Y-78430380D02*
X131895999Y-77430380D01*
X131991238Y-78049428D02*
X132276952Y-78430380D01*
X132276952Y-77763714D02*
X131895999Y-78144666D01*
X133467428Y-78430380D02*
X133467428Y-77430380D01*
X133848380Y-77430380D01*
X133943619Y-77478000D01*
X133991238Y-77525619D01*
X134038857Y-77620857D01*
X134038857Y-77763714D01*
X133991238Y-77858952D01*
X133943619Y-77906571D01*
X133848380Y-77954190D01*
X133467428Y-77954190D01*
X134467428Y-78430380D02*
X134467428Y-77763714D01*
X134467428Y-77954190D02*
X134515047Y-77858952D01*
X134562666Y-77811333D01*
X134657904Y-77763714D01*
X134753142Y-77763714D01*
X135229333Y-78430380D02*
X135134095Y-78382761D01*
X135086476Y-78335142D01*
X135038857Y-78239904D01*
X135038857Y-77954190D01*
X135086476Y-77858952D01*
X135134095Y-77811333D01*
X135229333Y-77763714D01*
X135372190Y-77763714D01*
X135467428Y-77811333D01*
X135515047Y-77858952D01*
X135562666Y-77954190D01*
X135562666Y-78239904D01*
X135515047Y-78335142D01*
X135467428Y-78382761D01*
X135372190Y-78430380D01*
X135229333Y-78430380D01*
X135991238Y-77763714D02*
X135991238Y-78620857D01*
X135943619Y-78716095D01*
X135848380Y-78763714D01*
X135800761Y-78763714D01*
X135991238Y-77430380D02*
X135943619Y-77478000D01*
X135991238Y-77525619D01*
X136038857Y-77478000D01*
X135991238Y-77430380D01*
X135991238Y-77525619D01*
X136467428Y-78335142D02*
X136515047Y-78382761D01*
X136467428Y-78430380D01*
X136419809Y-78382761D01*
X136467428Y-78335142D01*
X136467428Y-78430380D01*
D11*
X83566000Y-127000000D02*
G75*
G02X116078000Y-127000000I16256000J0D01*
G01*
D12*
X175828000Y-120964000D02*
X174498000Y-120964000D01*
X175828000Y-119634000D02*
X175828000Y-120964000D01*
X173228000Y-120964000D02*
X170628000Y-120964000D01*
X173228000Y-118364000D02*
X173228000Y-120964000D01*
X175828000Y-118364000D02*
X173228000Y-118364000D01*
X170628000Y-120964000D02*
X170628000Y-100524000D01*
X175828000Y-118364000D02*
X175828000Y-100524000D01*
X175828000Y-100524000D02*
X170628000Y-100524000D01*
X174562000Y-88646000D02*
G75*
G03X174562000Y-88646000I-2620000J0D01*
G01*
X171942000Y-89686000D02*
X171942000Y-91226000D01*
X171942000Y-86066000D02*
X171942000Y-87606000D01*
X171982000Y-89686000D02*
X171982000Y-91226000D01*
X171982000Y-86066000D02*
X171982000Y-87606000D01*
X172022000Y-86067000D02*
X172022000Y-87606000D01*
X172022000Y-89686000D02*
X172022000Y-91225000D01*
X172062000Y-86068000D02*
X172062000Y-87606000D01*
X172062000Y-89686000D02*
X172062000Y-91224000D01*
X172102000Y-86070000D02*
X172102000Y-87606000D01*
X172102000Y-89686000D02*
X172102000Y-91222000D01*
X172142000Y-86073000D02*
X172142000Y-87606000D01*
X172142000Y-89686000D02*
X172142000Y-91219000D01*
X172182000Y-86077000D02*
X172182000Y-87606000D01*
X172182000Y-89686000D02*
X172182000Y-91215000D01*
X172222000Y-86081000D02*
X172222000Y-87606000D01*
X172222000Y-89686000D02*
X172222000Y-91211000D01*
X172262000Y-86085000D02*
X172262000Y-87606000D01*
X172262000Y-89686000D02*
X172262000Y-91207000D01*
X172302000Y-86090000D02*
X172302000Y-87606000D01*
X172302000Y-89686000D02*
X172302000Y-91202000D01*
X172342000Y-86096000D02*
X172342000Y-87606000D01*
X172342000Y-89686000D02*
X172342000Y-91196000D01*
X172382000Y-86103000D02*
X172382000Y-87606000D01*
X172382000Y-89686000D02*
X172382000Y-91189000D01*
X172422000Y-86110000D02*
X172422000Y-87606000D01*
X172422000Y-89686000D02*
X172422000Y-91182000D01*
X172462000Y-86118000D02*
X172462000Y-87606000D01*
X172462000Y-89686000D02*
X172462000Y-91174000D01*
X172502000Y-86126000D02*
X172502000Y-87606000D01*
X172502000Y-89686000D02*
X172502000Y-91166000D01*
X172542000Y-86135000D02*
X172542000Y-87606000D01*
X172542000Y-89686000D02*
X172542000Y-91157000D01*
X172582000Y-86145000D02*
X172582000Y-87606000D01*
X172582000Y-89686000D02*
X172582000Y-91147000D01*
X172622000Y-86155000D02*
X172622000Y-87606000D01*
X172622000Y-89686000D02*
X172622000Y-91137000D01*
X172663000Y-86166000D02*
X172663000Y-87606000D01*
X172663000Y-89686000D02*
X172663000Y-91126000D01*
X172703000Y-86178000D02*
X172703000Y-87606000D01*
X172703000Y-89686000D02*
X172703000Y-91114000D01*
X172743000Y-86191000D02*
X172743000Y-87606000D01*
X172743000Y-89686000D02*
X172743000Y-91101000D01*
X172783000Y-86204000D02*
X172783000Y-87606000D01*
X172783000Y-89686000D02*
X172783000Y-91088000D01*
X172823000Y-86218000D02*
X172823000Y-87606000D01*
X172823000Y-89686000D02*
X172823000Y-91074000D01*
X172863000Y-86232000D02*
X172863000Y-87606000D01*
X172863000Y-89686000D02*
X172863000Y-91060000D01*
X172903000Y-86248000D02*
X172903000Y-87606000D01*
X172903000Y-89686000D02*
X172903000Y-91044000D01*
X172943000Y-86264000D02*
X172943000Y-87606000D01*
X172943000Y-89686000D02*
X172943000Y-91028000D01*
X172983000Y-86281000D02*
X172983000Y-87606000D01*
X172983000Y-89686000D02*
X172983000Y-91011000D01*
X173023000Y-86298000D02*
X173023000Y-87606000D01*
X173023000Y-89686000D02*
X173023000Y-90994000D01*
X173063000Y-86317000D02*
X173063000Y-87606000D01*
X173063000Y-89686000D02*
X173063000Y-90975000D01*
X173103000Y-86336000D02*
X173103000Y-87606000D01*
X173103000Y-89686000D02*
X173103000Y-90956000D01*
X173143000Y-86356000D02*
X173143000Y-87606000D01*
X173143000Y-89686000D02*
X173143000Y-90936000D01*
X173183000Y-86378000D02*
X173183000Y-87606000D01*
X173183000Y-89686000D02*
X173183000Y-90914000D01*
X173223000Y-86399000D02*
X173223000Y-87606000D01*
X173223000Y-89686000D02*
X173223000Y-90893000D01*
X173263000Y-86422000D02*
X173263000Y-87606000D01*
X173263000Y-89686000D02*
X173263000Y-90870000D01*
X173303000Y-86446000D02*
X173303000Y-87606000D01*
X173303000Y-89686000D02*
X173303000Y-90846000D01*
X173343000Y-86471000D02*
X173343000Y-87606000D01*
X173343000Y-89686000D02*
X173343000Y-90821000D01*
X173383000Y-86497000D02*
X173383000Y-87606000D01*
X173383000Y-89686000D02*
X173383000Y-90795000D01*
X173423000Y-86524000D02*
X173423000Y-87606000D01*
X173423000Y-89686000D02*
X173423000Y-90768000D01*
X173463000Y-86551000D02*
X173463000Y-87606000D01*
X173463000Y-89686000D02*
X173463000Y-90741000D01*
X173503000Y-86581000D02*
X173503000Y-87606000D01*
X173503000Y-89686000D02*
X173503000Y-90711000D01*
X173543000Y-86611000D02*
X173543000Y-87606000D01*
X173543000Y-89686000D02*
X173543000Y-90681000D01*
X173583000Y-86642000D02*
X173583000Y-87606000D01*
X173583000Y-89686000D02*
X173583000Y-90650000D01*
X173623000Y-86675000D02*
X173623000Y-87606000D01*
X173623000Y-89686000D02*
X173623000Y-90617000D01*
X173663000Y-86709000D02*
X173663000Y-87606000D01*
X173663000Y-89686000D02*
X173663000Y-90583000D01*
X173703000Y-86745000D02*
X173703000Y-87606000D01*
X173703000Y-89686000D02*
X173703000Y-90547000D01*
X173743000Y-86782000D02*
X173743000Y-87606000D01*
X173743000Y-89686000D02*
X173743000Y-90510000D01*
X173783000Y-86820000D02*
X173783000Y-87606000D01*
X173783000Y-89686000D02*
X173783000Y-90472000D01*
X173823000Y-86861000D02*
X173823000Y-87606000D01*
X173823000Y-89686000D02*
X173823000Y-90431000D01*
X173863000Y-86903000D02*
X173863000Y-87606000D01*
X173863000Y-89686000D02*
X173863000Y-90389000D01*
X173903000Y-86947000D02*
X173903000Y-87606000D01*
X173903000Y-89686000D02*
X173903000Y-90345000D01*
X173943000Y-86993000D02*
X173943000Y-87606000D01*
X173943000Y-89686000D02*
X173943000Y-90299000D01*
X173983000Y-87041000D02*
X173983000Y-90251000D01*
X174023000Y-87092000D02*
X174023000Y-90200000D01*
X174063000Y-87146000D02*
X174063000Y-90146000D01*
X174103000Y-87203000D02*
X174103000Y-90089000D01*
X174143000Y-87263000D02*
X174143000Y-90029000D01*
X174183000Y-87327000D02*
X174183000Y-89965000D01*
X174223000Y-87395000D02*
X174223000Y-89897000D01*
X174263000Y-87468000D02*
X174263000Y-89824000D01*
X174303000Y-87548000D02*
X174303000Y-89744000D01*
X174343000Y-87635000D02*
X174343000Y-89657000D01*
X174383000Y-87731000D02*
X174383000Y-89561000D01*
X174423000Y-87841000D02*
X174423000Y-89451000D01*
X174463000Y-87969000D02*
X174463000Y-89323000D01*
X174503000Y-88128000D02*
X174503000Y-89164000D01*
X174543000Y-88362000D02*
X174543000Y-88930000D01*
X169137225Y-87171000D02*
X169637225Y-87171000D01*
X169387225Y-86921000D02*
X169387225Y-87421000D01*
X117796000Y-110550000D02*
X120456000Y-110550000D01*
X117796000Y-107950000D02*
X117796000Y-110550000D01*
X120456000Y-107950000D02*
X120456000Y-110550000D01*
X117796000Y-107950000D02*
X120456000Y-107950000D01*
X117796000Y-106680000D02*
X117796000Y-105350000D01*
X117796000Y-105350000D02*
X119126000Y-105350000D01*
X131596000Y-103040000D02*
X131596000Y-117939999D01*
X131596000Y-117939999D02*
X147296000Y-117940000D01*
X147296000Y-117940000D02*
X147296000Y-103040001D01*
X147296000Y-103040001D02*
X142062666Y-103040000D01*
X142062666Y-103040000D02*
X142062666Y-103400000D01*
X142062666Y-103400000D02*
X136829334Y-103400000D01*
X136829334Y-103400000D02*
X136829334Y-103040000D01*
X136829334Y-103040000D02*
X131596000Y-103040000D01*
X128941001Y-88499001D02*
X128941001Y-85839001D01*
X128941001Y-88499001D02*
X141701001Y-88499001D01*
X141701001Y-88499001D02*
X141701001Y-85839001D01*
X128941001Y-85839001D02*
X141701001Y-85839001D01*
X126341001Y-85839001D02*
X127671001Y-85839001D01*
X126341001Y-87169001D02*
X126341001Y-85839001D01*
X95250000Y-88499001D02*
X95250000Y-85839001D01*
X95250000Y-88499001D02*
X110550000Y-88499001D01*
X110550000Y-88499001D02*
X110550000Y-85839001D01*
X95250000Y-85839001D02*
X110550000Y-85839001D01*
X92650000Y-85839001D02*
X93980000Y-85839001D01*
X92650000Y-87169001D02*
X92650000Y-85839001D01*
D10*
X172894666Y-121416380D02*
X172894666Y-122130666D01*
X172847047Y-122273523D01*
X172751809Y-122368761D01*
X172608952Y-122416380D01*
X172513714Y-122416380D01*
X173894666Y-122416380D02*
X173323238Y-122416380D01*
X173608952Y-122416380D02*
X173608952Y-121416380D01*
X173513714Y-121559238D01*
X173418476Y-121654476D01*
X173323238Y-121702095D01*
X171775333Y-85253142D02*
X171727714Y-85300761D01*
X171584857Y-85348380D01*
X171489619Y-85348380D01*
X171346761Y-85300761D01*
X171251523Y-85205523D01*
X171203904Y-85110285D01*
X171156285Y-84919809D01*
X171156285Y-84776952D01*
X171203904Y-84586476D01*
X171251523Y-84491238D01*
X171346761Y-84396000D01*
X171489619Y-84348380D01*
X171584857Y-84348380D01*
X171727714Y-84396000D01*
X171775333Y-84443619D01*
X172727714Y-85348380D02*
X172156285Y-85348380D01*
X172442000Y-85348380D02*
X172442000Y-84348380D01*
X172346761Y-84491238D01*
X172251523Y-84586476D01*
X172156285Y-84634095D01*
X118792666Y-103802380D02*
X118792666Y-104516666D01*
X118745047Y-104659523D01*
X118649809Y-104754761D01*
X118506952Y-104802380D01*
X118411714Y-104802380D01*
X119221238Y-103897619D02*
X119268857Y-103850000D01*
X119364095Y-103802380D01*
X119602190Y-103802380D01*
X119697428Y-103850000D01*
X119745047Y-103897619D01*
X119792666Y-103992857D01*
X119792666Y-104088095D01*
X119745047Y-104230952D01*
X119173619Y-104802380D01*
X119792666Y-104802380D01*
X138684095Y-101492380D02*
X138684095Y-102301904D01*
X138731714Y-102397142D01*
X138779333Y-102444761D01*
X138874571Y-102492380D01*
X139065047Y-102492380D01*
X139160285Y-102444761D01*
X139207904Y-102397142D01*
X139255523Y-102301904D01*
X139255523Y-101492380D01*
X140255523Y-102492380D02*
X139684095Y-102492380D01*
X139969809Y-102492380D02*
X139969809Y-101492380D01*
X139874571Y-101635238D01*
X139779333Y-101730476D01*
X139684095Y-101778095D01*
X124353381Y-87930905D02*
X125162905Y-87930905D01*
X125258143Y-87883286D01*
X125305762Y-87835667D01*
X125353381Y-87740429D01*
X125353381Y-87549953D01*
X125305762Y-87454715D01*
X125258143Y-87407096D01*
X125162905Y-87359477D01*
X124353381Y-87359477D01*
X124448620Y-86930905D02*
X124401001Y-86883286D01*
X124353381Y-86788048D01*
X124353381Y-86549953D01*
X124401001Y-86454715D01*
X124448620Y-86407096D01*
X124543858Y-86359477D01*
X124639096Y-86359477D01*
X124781953Y-86407096D01*
X125353381Y-86978524D01*
X125353381Y-86359477D01*
X90662380Y-87930905D02*
X91471904Y-87930905D01*
X91567142Y-87883286D01*
X91614761Y-87835667D01*
X91662380Y-87740429D01*
X91662380Y-87549953D01*
X91614761Y-87454715D01*
X91567142Y-87407096D01*
X91471904Y-87359477D01*
X90662380Y-87359477D01*
X90662380Y-86978524D02*
X90662380Y-86359477D01*
X91043333Y-86692810D01*
X91043333Y-86549953D01*
X91090952Y-86454715D01*
X91138571Y-86407096D01*
X91233809Y-86359477D01*
X91471904Y-86359477D01*
X91567142Y-86407096D01*
X91614761Y-86454715D01*
X91662380Y-86549953D01*
X91662380Y-86835667D01*
X91614761Y-86930905D01*
X91567142Y-86978524D01*
M02*
