M48
; DRILL file {KiCad (5.1.5)-3} date 1/27/2020 11:23:30 AM
; FORMAT={-:-/ absolute / inch / decimal}
; #@! TF.CreationDate,2020-01-27T11:23:30-05:00
; #@! TF.GenerationSoftware,Kicad,Pcbnew,(5.1.5)-3
; #@! TF.FileFunction,Plated,1,2,PTH
FMAT,2
INCH
T1C0.0157
T2C0.0315
T3C0.0394
%
G90
G05
T1
X5.36Y-3.2
X5.76Y-3.3
T2
X5.24Y-4.1
X5.24Y-4.2
X5.24Y-4.3
X5.24Y-4.4
X5.24Y-4.5
X5.24Y-4.6
X5.74Y-4.1
X5.74Y-4.2
X5.74Y-4.3
X5.74Y-4.4
X5.74Y-4.5
X5.74Y-4.6
X6.73Y-3.49
X6.8087Y-3.49
T3
X4.69Y-4.2
X4.69Y-4.3
X6.77Y-4.01
X6.77Y-4.11
X6.77Y-4.21
X6.77Y-4.31
X6.77Y-4.41
X6.77Y-4.51
X6.77Y-4.61
X6.77Y-4.71
X6.87Y-4.01
X6.87Y-4.11
X6.87Y-4.21
X6.87Y-4.31
X6.87Y-4.41
X6.87Y-4.51
X6.87Y-4.61
X6.87Y-4.71
X3.7Y-3.4319
X3.8Y-3.4319
X3.9Y-3.4319
X4.0Y-3.4319
X4.1Y-3.4319
X4.2Y-3.4319
X4.3Y-3.4319
X5.0264Y-3.4319
X5.1264Y-3.4319
X5.2264Y-3.4319
X5.3264Y-3.4319
X5.4264Y-3.4319
X5.5264Y-3.4319
T0
M30
