G04 #@! TF.GenerationSoftware,KiCad,Pcbnew,(5.1.5)-3*
G04 #@! TF.CreationDate,2020-01-27T11:23:28-05:00*
G04 #@! TF.ProjectId,Secondary_Board,5365636f-6e64-4617-9279-5f426f617264,rev?*
G04 #@! TF.SameCoordinates,Original*
G04 #@! TF.FileFunction,Soldermask,Top*
G04 #@! TF.FilePolarity,Negative*
%FSLAX46Y46*%
G04 Gerber Fmt 4.6, Leading zero omitted, Abs format (unit mm)*
G04 Created by KiCad (PCBNEW (5.1.5)-3) date 2020-01-27 11:23:28*
%MOMM*%
%LPD*%
G04 APERTURE LIST*
%ADD10O,1.700000X1.700000*%
%ADD11R,1.700000X1.700000*%
%ADD12C,1.700000*%
%ADD13R,1.600000X1.600000*%
%ADD14C,1.600000*%
%ADD15O,2.000000X1.200000*%
G04 APERTURE END LIST*
D10*
X171958000Y-101854000D03*
X174498000Y-101854000D03*
X171958000Y-104394000D03*
X174498000Y-104394000D03*
X171958000Y-106934000D03*
X174498000Y-106934000D03*
X171958000Y-109474000D03*
X174498000Y-109474000D03*
X171958000Y-112014000D03*
X174498000Y-112014000D03*
X171958000Y-114554000D03*
X174498000Y-114554000D03*
X171958000Y-117094000D03*
X174498000Y-117094000D03*
D11*
X171958000Y-119634000D03*
D12*
X174498000Y-119634000D03*
D13*
X170942000Y-88646000D03*
D14*
X172942000Y-88646000D03*
D11*
X119126000Y-106680000D03*
D10*
X119126000Y-109220000D03*
D15*
X145796000Y-104140000D03*
X133096000Y-104140000D03*
X145796000Y-106680000D03*
X133096000Y-106680000D03*
X145796000Y-109220000D03*
X133096000Y-109220000D03*
X145796000Y-111760000D03*
X133096000Y-111760000D03*
X145796000Y-114300000D03*
X133096000Y-114300000D03*
X145796000Y-116840000D03*
X133096000Y-116840000D03*
D11*
X127671001Y-87169001D03*
D10*
X130211001Y-87169001D03*
X132751001Y-87169001D03*
X135291001Y-87169001D03*
X137831001Y-87169001D03*
X140371001Y-87169001D03*
D11*
X93980000Y-87169001D03*
D10*
X96520000Y-87169001D03*
X99060000Y-87169001D03*
X101600000Y-87169001D03*
X104140000Y-87169001D03*
X106680000Y-87169001D03*
X109220000Y-87169001D03*
M02*
